<svg xmlns="http://www.w3.org/2000/svg" width="39" height="39" viewBox="0 0 39 38" fill="none">
  <path d="M38.5 19.0001C38.5 22.758 37.3857 26.4314 35.2979 29.556C33.2102 32.6805 30.2428 35.1158 26.771 36.5538C23.2992 37.9919 19.4789 38.3682 15.7933 37.635C12.1076 36.9019 8.72217 35.0924 6.06497 32.4352C3.40777 29.778 1.5982 26.3925 0.86508 22.7068C0.13196 19.0212 0.508224 15.2009 1.94629 11.7291C3.38435 8.25734 5.81963 5.28995 8.94417 3.2022C12.0687 1.11445 15.7422 0.000122026 19.5 0.00012207V19.0001H38.5Z" fill="#BBBBBB" fill-opacity="0.6"/>
  <path d="M22.3389 0.00012207C24.4453 0.000122095 26.5311 0.41501 28.4771 1.2211C30.4232 2.02719 32.1915 3.20869 33.6809 4.69815C35.1704 6.1876 36.3519 7.95584 37.158 9.90191C37.964 11.848 38.3789 13.9338 38.3789 16.0402L22.3389 16.0402V0.00012207Z" fill="#BBBBBB" fill-opacity="0.6"/>
</svg>
