<svg width="102" height="100" viewBox="0 0 102 100" fill="none" xmlns="http://www.w3.org/2000/svg">
<path d="M1.98186 74.3436L1.98999 74.3482L1.99828 74.3524L47.7817 97.993C48.7506 98.4935 49.8319 98.7602 50.9208 98.7602C52.0133 98.7602 53.0995 98.4941 54.0644 97.9933C54.0649 97.993 54.0654 97.9928 54.0659 97.9925L99.924 74.4444L99.9243 74.4443C99.9513 74.4304 99.9773 74.414 100.002 74.3951C100.877 73.9018 101.436 72.9769 101.482 71.9661L101.483 71.9546V71.9432V71.7554V71.7539L101.335 23.1699C101.335 23.1699 101.335 23.1698 101.335 23.1698C101.334 22.8831 101.102 22.6514 100.815 22.6514H51.3922C51.186 22.6514 51.0044 22.7723 50.9208 22.9517C50.8369 22.7716 50.6542 22.6505 50.4471 22.6514L1.02116 22.8695C0.734821 22.8708 0.50345 23.1033 0.503456 23.3895L0.504395 71.4494C0.498106 71.5099 0.500031 71.5617 0.501005 71.5878L0.501073 71.5897C0.501639 71.605 0.502183 71.6173 0.50266 71.6282C0.503668 71.651 0.504378 71.6672 0.504378 71.6903C0.504378 71.7081 0.504369 71.7258 0.504359 71.7436C0.504127 72.1804 0.503899 72.6081 0.64486 72.9987C0.803696 73.4388 1.11441 73.7778 1.59998 74.1247L1.62165 74.1402L1.64484 74.1533L1.98186 74.3436ZM99.954 74.4216C99.9535 74.4219 99.953 74.4221 99.9526 74.4224L99.9527 74.4223C99.9531 74.4221 99.9536 74.4219 99.954 74.4216Z" fill="#FCA92E" stroke="black"/>
<path d="M50.934 27.6593V98.3567C49.9756 98.3567 49.0172 98.1295 48.1379 97.675L2.09649 73.849C2.09649 73.849 2.05203 73.8243 2.03227 73.8094H2.02733C1.15957 73.2781 1.00342 72.7641 1.00342 71.5885L1.00436 47.6479V23.7073H50.2671L50.929 27.6544L50.934 27.6593Z" fill="#FCA92E"/>
<path d="M100.995 23.6526L101 71.8784L100.995 72.0612C100.973 72.6315 100.77 73.0697 100.392 73.4775C100.201 73.6832 99.8936 73.9227 99.5535 74.0927C84.3908 81.673 68.8879 89.7717 53.8267 97.5527C52.9523 98.0071 51.9106 98.2503 50.9473 98.2503L50.9471 27.5997L51.6141 23.6526H100.995Z" fill="#FFCD3A"/>
<path d="M1.62864 21.6864L1.62784 21.6868C0.952385 21.9877 0.519815 22.636 0.50642 23.3794C0.493023 24.1229 0.904862 24.7918 1.57537 25.1136C1.57539 25.1137 1.57542 25.1137 1.57544 25.1137L48.0212 47.5066C48.9189 47.9394 49.9218 48.1688 50.9208 48.1688C51.9184 48.1688 52.9165 47.945 53.8154 47.5116L53.8155 47.5116L100.262 25.1133L100.265 25.1119C100.93 24.7862 101.344 24.1257 101.33 23.3794C101.317 22.636 100.884 21.9877 100.209 21.6868L100.208 21.6864L53.8263 1.11625C53.8263 1.11623 53.8262 1.1162 53.8261 1.11618C52.9071 0.707159 51.924 0.5 50.9208 0.5C49.917 0.5 48.9391 0.707405 48.0162 1.11582L48.0159 1.11597L1.62864 21.6864Z" fill="#FFE946" stroke="black"/>
<g clip-path="url(#clip0_318_12615)">
<path d="M58.6175 32.2303L31.1289 18.754C30.4901 18.4371 30.4901 17.9467 31.1435 17.6373C31.797 17.3279 32.8028 17.3279 33.4489 17.6373L60.9376 31.1136C61.5763 31.4305 61.5763 31.9209 60.9229 32.2303C60.2768 32.5397 59.2636 32.5397 58.6175 32.2303Z" fill="black"/>
<path d="M68.9844 27.2352L41.4958 13.7589C40.857 13.442 40.857 12.9515 41.5105 12.6422C42.1639 12.3328 43.1698 12.3328 43.8159 12.6422L71.3045 26.1184C71.9433 26.4354 71.9433 26.9258 71.2898 27.2352C70.6364 27.5445 69.6305 27.5445 68.9844 27.2352Z" fill="black"/>
</g>
<defs>
<clipPath id="clip0_318_12615">
<rect width="41.1302" height="20.0635" fill="white" transform="translate(30.6516 12.4082)"/>
</clipPath>
</defs>
</svg>
