<?xml version="1.0" encoding="utf-8"?>
<!-- Generator: Adobe Illustrator 27.6.1, SVG Export Plug-In . SVG Version: 6.00 Build 0)  -->
<svg version="1.1" id="Layer_1" xmlns="http://www.w3.org/2000/svg" xmlns:xlink="http://www.w3.org/1999/xlink" x="0px" y="0px"
	 viewBox="0 0 102 100" style="enable-background:new 0 0 102 100;" xml:space="preserve">
<style type="text/css">
	.st0{fill:none;}
	.st1{clip-path:url(#SVGID_00000035501427355943837810000000883747595411919522_);}
	.st2{fill:#6EBD46;stroke:#000000;stroke-width:0.981;}
	.st3{fill:#84E453;}
	.st4{fill:#99FF62;stroke:#000000;stroke-width:0.9813;}
	.st5{clip-path:url(#SVGID_00000062893999416189663930000004549446275479584679_);}
</style>
<g>
	<rect class="st0" width="102" height="112"/>
	<g>
		<g>
			<g>
				<g>
					<defs>
						<rect id="SVGID_1_" width="102" height="112"/>
					</defs>
					<clipPath id="SVGID_00000103233624894104122350000004324166548958239916_">
						<use xlink:href="#SVGID_1_"  style="overflow:visible;"/>
					</clipPath>
					<g style="clip-path:url(#SVGID_00000103233624894104122350000004324166548958239916_);">
						<path class="st2" d="M2,74.3L2,74.3L2,74.3L47.8,98l0,0c1,0.5,2,0.8,3.2,0.8c1.1,0,2.2-0.3,3.2-0.8l0,0L100,74.5
							c1-0.6,1.4-1.5,1.5-2.5v-0.3l0,0V23.1c0-0.3-0.3-0.5-0.6-0.5H51.5c-0.2,0-0.3,0.1-0.5,0.3c-0.1-0.1-0.3-0.3-0.5-0.3L1.1,22.8
							c-0.3,0-0.5,0.3-0.5,0.5v48.1c0,0.1,0,0.1,0,0.1l0,0c0,0,0,0,0,0.1v0.1v0.1c0,0.4,0,0.9,0.1,1.3c0.1,0.4,0.5,0.8,1,1.1l0,0
							l0,0L2,74.3z"/>
						<path class="st3" d="M101,23.7V72c0,0.6-0.4,1.3-0.6,1.4s-0.4,0.4-0.8,0.6c-15.4,8-30.5,15.6-45.6,23.4
							c-0.9,0.4-1.9,0.7-3,0.7V27.6l0.7-4C51.7,23.7,101,23.7,101,23.7z"/>
						<path class="st4" d="M1.8,21.7L1.8,21.7c0,0-1.2,0.7-1.2,1.6c0,1.3,1.1,1.8,1.1,1.8l0,0l0,0l46.4,22.4
							c0.9,0.4,1.9,0.7,2.9,0.7s2-0.3,2.9-0.7l0,0l46.4-22.4l0,0c0.7-0.3,1.1-1,1.1-1.7c0-0.8-0.4-1.4-1.2-1.7l0,0L54.1,1.1l0,0
							c-1-0.4-1.9-0.6-2.9-0.6s-2,0.2-2.9,0.6l0,0L1.8,21.7z"/>
						<g>
							<g>
								<g>
									<defs>
										<rect id="SVGID_00000098934477642904704630000017658752810093754797_" x="23" y="13.1" width="48" height="22"/>
									</defs>
									<clipPath id="SVGID_00000137132263680364991600000015510100156288550800_">
										<use xlink:href="#SVGID_00000098934477642904704630000017658752810093754797_"  style="overflow:visible;"/>
									</clipPath>
									<g style="clip-path:url(#SVGID_00000137132263680364991600000015510100156288550800_);">
										<path d="M30.6,26.4l-6.7-3.1c-1.4-0.6-1.3-1.8,0.3-2.5l5.2-2.3c1.6-0.7,3.9-0.7,5.3-0.1l6.5,3c1.4,0.6,1.3,1.7-0.2,2.4
											L36,26.2C34.4,27,32,27,30.6,26.4L30.6,26.4z M33,19.4c-0.5-0.3-1.2-0.2-1.8,0L26,21.6c-0.5,0.3-0.6,0.6-0.1,0.8l6.6,3.1
											c0.5,0.3,1.3,0.2,1.8,0l5.1-2.3c0.5-0.3,0.5-0.6,0.1-0.8L33,19.4L33,19.4z"/>
										<path d="M59.9,21.1l-6.5-3c-1.4-0.6-1.3-1.7,0.1-2.3l4.8-2.1c1.4-0.6,3.7-0.7,5.2-0.1l6.5,3c1.4,0.6,1.4,1.7-0.1,2.3
											L65.1,21C63.6,21.7,61.3,21.7,59.9,21.1z M61.7,14.2c-0.5-0.2-1.2-0.2-1.7,0l-4.8,2.1c-0.5,0.3-0.5,0.6-0.1,0.8l6.5,3
											c0.5,0.2,1.2,0.2,1.8,0l4.8-2.2c0.5-0.3,0.5-0.6,0.1-0.8L61.7,14.2L61.7,14.2z"/>
										<path d="M48,34.6l-6.7-3.1c-1.4-0.7-1.3-1.8,0.2-2.5l5.1-2.3c1.5-0.7,3.9-0.8,5.3-0.1l6.7,3.1c1.4,0.7,1.4,1.8-0.1,2.5
											l-5,2.3C51.8,35.2,49.4,35.2,48,34.6L48,34.6z M50.1,27.4c-0.5-0.3-1.3-0.2-1.8,0l-5.1,2.3c-0.5,0.3-0.5,0.6-0.1,0.8
											l6.7,3.1c0.5,0.3,1.3,0.2,1.8,0l5-2.3c0.5-0.3,0.5-0.6,0.1-0.8L50.1,27.4L50.1,27.4z"/>
										<path d="M50.7,22.1c-0.5-0.3-0.5-0.6,0.1-0.8l5.9-2.6c0.5-0.3,1.3-0.3,1.8,0c0.5,0.2,0.5,0.6-0.1,0.8l-5.8,2.6
											C52,22.4,51.2,22.4,50.7,22.1L50.7,22.1z"/>
										<path d="M53.4,28.9c-0.5-0.3-0.5-0.6,0.1-0.8l5-2.3L43,18.6l-5.1,2.3c-0.5,0.3-1.3,0.3-1.8,0c-0.5-0.3-0.4-0.6,0.1-0.8
											l6-2.6c0.5-0.3,1.3-0.3,1.8,0l17.1,7.9c0.5,0.3,0.5,0.6-0.1,0.8l-5.9,2.8C54.7,29.1,53.9,29.1,53.4,28.9L53.4,28.9z"/>
									</g>
								</g>
							</g>
						</g>
					</g>
				</g>
			</g>
		</g>
	</g>
</g>
</svg>
