<?xml version="1.0" encoding="utf-8"?>
<!-- Generator: Adobe Illustrator 27.6.1, SVG Export Plug-In . SVG Version: 6.00 Build 0)  -->
<svg version="1.1" id="Layer_1" xmlns="http://www.w3.org/2000/svg" xmlns:xlink="http://www.w3.org/1999/xlink" x="0px" y="0px"
	 viewBox="0 0 102 100" style="enable-background:new 0 0 102 100;" xml:space="preserve">
<style type="text/css">
	.st0{fill:none;}
	.st1{fill:#FCA92E;stroke:#000000;stroke-width:0.9807;}
	.st2{fill:#FFCD3A;}
	.st3{fill:#FFE946;stroke:#000000;stroke-width:0.9807;}
</style>
<g>
	<rect x="-0.1" y="-0.3" class="st0" width="102.1" height="111.8"/>
	<rect x="-0.1" y="0.1" class="st0" width="102.1" height="111.8"/>
	<g>
		<path class="st1" d="M1.9,74.3L1.9,74.3L1.9,74.3l45.9,23.6l0,0c1,0.5,2,0.8,3.2,0.8c1.1,0,2.2-0.3,3.2-0.8l0,0L100,74.4
			c1-0.6,1.4-1.5,1.5-2.5v-0.3l0,0V23.2c0-0.3-0.3-0.5-0.6-0.5H51.4c-0.2,0-0.3,0.1-0.5,0.3c-0.1-0.1-0.3-0.3-0.5-0.3L1,22.9
			c-0.3,0-0.5,0.3-0.5,0.5v48c0,0.1,0,0.1,0,0.1l0,0c0,0,0,0,0,0.1v0.1v0.1c0,0.4,0,0.9,0.1,1.3c0.1,0.4,0.5,0.8,1,1.1l0,0l0,0
			L1.9,74.3z"/>
		<path class="st2" d="M101,23.7V72c0,0.6-0.4,1.3-0.6,1.4c-0.2,0.2-0.4,0.4-0.8,0.6c-15.4,8-30.7,15.6-45.7,23.4
			c-0.9,0.4-1.9,0.6-2.9,0.6V27.6l0.7-4C51.6,23.7,101,23.7,101,23.7z"/>
		<path class="st3" d="M1.7,21.7L1.7,21.7c0,0-1.2,0.7-1.2,1.6c0,1.3,1.1,1.8,1.1,1.8l0,0l0,0l46.5,22.4c0.9,0.4,1.9,0.7,2.9,0.7
			s2-0.3,2.9-0.7l0,0l46.5-22.4l0,0c0.7-0.3,1.1-1,1.1-1.7c0-0.8-0.4-1.4-1.2-1.7l0,0L54,1.1l0,0c-1-0.4-1.9-0.6-2.9-0.6
			s-2,0.2-2.9,0.6l0,0L1.7,21.7z"/>
	</g>
	<g>
		<g>
			<rect x="22.9" y="9.7" class="st0" width="57" height="24.9"/>
			<g>
				<path d="M47.6,34.1L24.3,23.6c-1.8-0.8-1.8-2.1,0.1-2.9l24.3-10.3c1.9-0.8,4.8-0.8,6.7,0l23.3,10.5c1.8,0.8,1.8,2.1-0.1,2.9
					L54.3,34.1C52.3,34.9,49.4,34.9,47.6,34.1z M53.5,11.2c-0.9-0.4-2.2-0.4-3.1,0L26.2,21.5c-0.9,0.4-1,0.9-0.1,1.3l23.3,10.5
					c0.9,0.4,2.2,0.4,3.1,0L76.8,23c0.9-0.4,1-0.9,0.1-1.3L53.5,11.2L53.5,11.2L53.5,11.2z"/>
				<path d="M72.9,24.7L45.9,12.6l-1.8,0.8L71,25.4L72.9,24.7z"/>
				<path d="M43.5,21.1l-8.8-4l-1.8,0.8l8.8,4L43.5,21.1z"/>
				<path d="M54.5,17.2l-1.8-0.8l-21.9,9.4l1.8,0.8L54.5,17.2z"/>
				<path d="M44,28.8c-0.5-0.2-0.5-0.6,0.1-0.8l11.6-5c1.6-0.7,4.1-0.7,5.6,0c1.5,0.7,1.4,1.8-0.1,2.5c-0.5,0.2-1.3,0.2-1.8,0
					c-0.5-0.2-0.5-0.6,0.1-0.8c0.6-0.3,0.6-0.6,0.1-0.9c-0.5-0.3-1.5-0.3-2,0l-11.6,5C45.3,29,44.4,29,44,28.8z"/>
				<path d="M53.6,26.8l-4.6-2.1c-0.5-0.2-0.5-0.6,0.1-0.8c0.5-0.2,1.3-0.2,1.8,0l4.6,2.1c0.5,0.2,0.5,0.6-0.1,0.8
					C54.8,26.9,54,26.9,53.6,26.8z"/>
			</g>
		</g>
	</g>
</g>
</svg>
