<?xml version="1.0" encoding="utf-8"?>
<!-- Generator: Adobe Illustrator 27.6.1, SVG Export Plug-In . SVG Version: 6.00 Build 0)  -->
<svg version="1.1" id="Layer_1" xmlns="http://www.w3.org/2000/svg" xmlns:xlink="http://www.w3.org/1999/xlink" x="0px" y="0px"
	 viewBox="0 0 102 100" style="enable-background:new 0 0 102 100;" xml:space="preserve">
<style type="text/css">
	.st0{clip-path:url(#SVGID_00000098222104818294087440000009619276572217525388_);}
	.st1{fill:#FCA92E;stroke:#000000;stroke-width:0.9821;}
	.st2{fill:#FFCD3A;}
	.st3{fill:#FFE946;stroke:#000000;stroke-width:0.9825;}
	.st4{clip-path:url(#SVGID_00000177444131665452209030000013508489394159168160_);}
</style>
<g>
	<g>
		<g>
			<defs>
				<rect id="SVGID_1_" x="0" y="0.1" width="102.1" height="112.1"/>
			</defs>
			<clipPath id="SVGID_00000147195767109642633310000002508188858401355956_">
				<use xlink:href="#SVGID_1_"  style="overflow:visible;"/>
			</clipPath>
			<g style="clip-path:url(#SVGID_00000147195767109642633310000002508188858401355956_);">
				<path class="st1" d="M1.9,74.5L1.9,74.5L1.9,74.5l45.9,23.7l0,0c1,0.5,2,0.8,3.2,0.8c1.1,0,2.2-0.3,3.2-0.8l0,0l45.9-23.6
					c1-0.6,1.4-1.5,1.5-2.5v-0.3l0,0V23.2c0-0.3-0.3-0.5-0.6-0.5H51.5c-0.2,0-0.3,0.1-0.5,0.3c-0.1-0.1-0.3-0.3-0.5-0.3L1.1,22.9
					c-0.3,0-0.5,0.3-0.5,0.5v48.1c0,0.1,0,0.1,0,0.1l0,0c0,0,0,0,0,0.1v0.1v0.1c0,0.4,0,0.9,0.1,1.3c0.1,0.4,0.5,0.8,1,1.1l0,0l0,0
					L1.9,74.5z"/>
				<path class="st2" d="M101,23.7v48.4c0,0.6-0.4,1.3-0.6,1.4c-0.2,0.2-0.4,0.4-0.8,0.6C84.1,82.3,69,90,53.9,97.8
					c-0.9,0.4-2,0.7-2.9,0.7V27.7l0.7-4C51.7,23.7,101,23.7,101,23.7z"/>
				<path class="st3" d="M1.7,21.8L1.7,21.8c0,0-1.2,0.7-1.2,1.6c0,1.3,1.1,1.8,1.1,1.8l0,0l0,0l46.5,22.4c0.9,0.4,1.9,0.7,2.9,0.7
					s2-0.3,2.9-0.7l0,0l46.5-22.4l0,0c0.7-0.3,1.1-1,1.1-1.7c0-0.8-0.4-1.4-1.2-1.7l0,0L54.1,1.2l0,0c-1-0.4-1.9-0.6-2.9-0.6
					s-2,0.2-2.9,0.6l0,0L1.7,21.8z"/>
				<g>
					<g>
						<g>
							<defs>
								<rect id="SVGID_00000109022109618573867090000005280482000521320621_" x="23" y="10.1" width="57" height="25"/>
							</defs>
							<clipPath id="SVGID_00000175286432827153474600000015599424696566997136_">
								<use xlink:href="#SVGID_00000109022109618573867090000005280482000521320621_"  style="overflow:visible;"/>
							</clipPath>
							<g style="clip-path:url(#SVGID_00000175286432827153474600000015599424696566997136_);">
								<path d="M48.5,34.5L24.4,23.9c-1.9-0.8-1.8-2.1,0.1-3l24-10.3c1.8-0.8,4.8-0.8,6.6,0.1l23.6,10.5c1.8,0.8,1.8,2.1,0.1,2.9
									L55.2,34.5C53.2,35.3,50.3,35.3,48.5,34.5L48.5,34.5z M53.2,11.5c-0.9-0.4-2.2-0.4-3.1,0l-24,10.2c-0.9,0.4-0.9,0.9,0,1.4
									l24,10.6c0.9,0.4,2.2,0.4,3.1,0l23.5-10.3c0.9-0.4,0.8-0.9,0-1.3L53.2,11.5z"/>
								<path d="M73.2,24.9L45.8,12.8l-1.8,0.8l27.4,12.2L73.2,24.9L73.2,24.9z"/>
								<path d="M43.9,21.3l-9-4L33,18.1l9,4L43.9,21.3L43.9,21.3z"/>
								<path d="M54.6,17.6l-1.8-0.8L31.1,26l1.8,0.8L54.6,17.6z"/>
								<path d="M46,27.1c-0.2-0.1-0.5-0.3-0.4-0.6l0.7-3.2c0.1-0.3,0.7-0.5,1.4-0.5c0.7,0.1,1.2,0.3,1.2,0.6l-0.6,2.7l14.9-0.6
									c0.7,0,1.3,0.2,1.4,0.5c0.1,0.3-0.4,0.6-1.1,0.6l-16,0.7C46.6,27.3,46.2,27.2,46,27.1L46,27.1z"/>
							</g>
						</g>
					</g>
				</g>
			</g>
		</g>
	</g>
</g>
</svg>
