<svg width="84" height="84" viewBox="0 0 84 84" fill="none" xmlns="http://www.w3.org/2000/svg">
<path fill-rule="evenodd" clip-rule="evenodd" d="M7.5 42C7.5 22.9462 22.9462 7.5 42 7.5C61.0538 7.5 76.5 22.9462 76.5 42C76.5 43.2827 76.43 44.549 76.2936 45.7953C77.2807 46.2457 78.2248 46.7741 79.118 47.3725C79.3697 45.618 79.5 43.8242 79.5 42C79.5 21.2893 62.7107 4.5 42 4.5C21.2893 4.5 4.5 21.2893 4.5 42C4.5 62.7107 21.2893 79.5 42 79.5C45.9925 79.5 49.8394 78.8761 53.4482 77.7204C52.7086 76.9362 52.0317 76.0923 51.4255 75.1967C48.4296 76.0457 45.2679 76.5 42 76.5C22.9462 76.5 7.5 61.0538 7.5 42Z" fill="#5B5E61"/>
<path fill-rule="evenodd" clip-rule="evenodd" d="M7.5 42C7.5 22.9462 22.9462 7.5 42 7.5C61.0538 7.5 76.5 22.9462 76.5 42C76.5 43.2827 76.43 44.549 76.2936 45.7953C77.2807 46.2457 78.2248 46.7741 79.118 47.3725C79.3697 45.618 79.5 43.8242 79.5 42C79.5 21.2893 62.7107 4.5 42 4.5C21.2893 4.5 4.5 21.2893 4.5 42C4.5 62.7107 21.2893 79.5 42 79.5C45.9925 79.5 49.8394 78.8761 53.4482 77.7204C52.7086 76.9362 52.0317 76.0923 51.4255 75.1967C48.4296 76.0457 45.2679 76.5 42 76.5C22.9462 76.5 7.5 61.0538 7.5 42Z" fill="#5B5E61"/>
<path fill-rule="evenodd" clip-rule="evenodd" d="M33.834 31.3333V35.1666H32.6667C30.3655 35.1666 28.5 37.0321 28.5 39.3333V48.6666C28.5 50.9678 30.3655 52.8333 32.6667 52.8333H51.3333C53.6345 52.8333 55.5 50.9678 55.5 48.6666V39.3333C55.5 37.0321 53.6345 35.1666 51.3333 35.1666H50.1673V31.3333C50.1673 29.1674 49.3069 27.0901 47.7754 25.5586C46.2438 24.027 44.1666 23.1666 42.0007 23.1666C39.8347 23.1666 37.7575 24.027 36.2259 25.5586C34.6944 27.0901 33.834 29.1674 33.834 31.3333ZM42.0007 26.1666C40.6304 26.1666 39.3162 26.711 38.3473 27.6799C37.3783 28.6488 36.834 29.963 36.834 31.3333V35.1666H47.1673V31.3333C47.1673 29.963 46.623 28.6488 45.654 27.6799C44.6851 26.711 43.3709 26.1666 42.0007 26.1666ZM31.5 39.3333C31.5 38.689 32.0223 38.1666 32.6667 38.1666H51.3333C51.9777 38.1666 52.5 38.689 52.5 39.3333V48.6666C52.5 49.311 51.9777 49.8333 51.3333 49.8333H32.6667C32.0223 49.8333 31.5 49.311 31.5 48.6666V39.3333Z" fill="#FF5459"/>
<path fill-rule="evenodd" clip-rule="evenodd" d="M83 64C83 72.2843 76.2843 79 68 79C59.7157 79 53 72.2843 53 64C53 55.7157 59.7157 49 68 49C76.2843 49 83 55.7157 83 64ZM75.0607 56.9393C75.6464 57.5251 75.6464 58.4749 75.0607 59.0607L70.6213 63.5L75.0607 67.9393C75.6465 68.5251 75.6465 69.4749 75.0607 70.0607C74.4749 70.6464 73.5251 70.6464 72.9393 70.0607L68.5 65.6213L64.0607 70.0607C63.4749 70.6464 62.5251 70.6464 61.9393 70.0607C61.3536 69.4749 61.3536 68.5251 61.9393 67.9393L66.3787 63.5L61.9393 59.0607C61.3536 58.4749 61.3536 57.5251 61.9393 56.9393C62.5251 56.3536 63.4749 56.3536 64.0607 56.9393L68.5 61.3787L72.9393 56.9393C73.5251 56.3536 74.4749 56.3536 75.0607 56.9393Z" fill="#FF5459"/>
</svg>
