<svg width="84" height="84" viewBox="0 0 84 84" fill="none" xmlns="http://www.w3.org/2000/svg">
<path fill-rule="evenodd" clip-rule="evenodd" d="M75.3326 19.4677C75.3151 14.7123 71.4253 10.8334 66.666 10.8334H9.33268C4.56259 10.8334 0.666016 14.7299 0.666016 19.5V62.5C0.666016 67.2701 4.56259 71.1667 9.33268 71.1667H48.7732C48.21 70.2146 47.7236 69.2118 47.3224 68.1667H9.33268C6.21944 68.1667 3.66602 65.6133 3.66602 62.5V22.3809L37.1393 45.8122C37.6558 46.1737 38.3432 46.1737 38.8597 45.8122L72.3327 22.3811V42.0233C73.3734 42.3704 74.376 42.8008 75.3327 43.3064V19.5267C75.333 19.507 75.333 19.4874 75.3326 19.4677ZM3.71549 18.7536L37.9995 42.7524L72.2832 18.7537C71.9143 15.9889 69.5264 13.8334 66.666 13.8334H9.33268C6.47232 13.8334 4.08452 15.9888 3.71549 18.7536Z" fill="#5B5E61"/>
<path fill-rule="evenodd" clip-rule="evenodd" d="M65.998 76C74.2823 76 80.998 69.2843 80.998 61C80.998 52.7157 74.2823 46 65.998 46C57.7138 46 50.998 52.7157 50.998 61C50.998 69.2843 57.7138 76 65.998 76ZM74.9493 57.0155C75.5351 56.4297 75.5351 55.48 74.9493 54.8942C74.3635 54.3084 73.4138 54.3084 72.828 54.8942L63.8575 63.8647L60.3674 60.3742C59.7816 59.7884 58.8319 59.7883 58.246 60.3741C57.6602 60.9598 57.6602 61.9096 58.2459 62.4954L62.7967 67.0467C63.078 67.328 63.4595 67.486 63.8574 67.4861C64.2552 67.4861 64.6368 67.328 64.9181 67.0467L74.9493 57.0155Z" fill="#FEAB30"/>
</svg>
