<svg width="84" height="84" viewBox="0 0 84 84" fill="none" xmlns="http://www.w3.org/2000/svg">
<path fill-rule="evenodd" clip-rule="evenodd" d="M7.5 42C7.5 22.9462 22.9462 7.5 42 7.5C61.0538 7.5 76.5 22.9462 76.5 42C76.5 43.2827 76.43 44.549 76.2936 45.7953C77.2807 46.2457 78.2248 46.7741 79.118 47.3725C79.3697 45.618 79.5 43.8242 79.5 42C79.5 21.2893 62.7107 4.5 42 4.5C21.2893 4.5 4.5 21.2893 4.5 42C4.5 62.7107 21.2893 79.5 42 79.5C45.9925 79.5 49.8394 78.8761 53.4482 77.7204C52.7086 76.9362 52.0317 76.0923 51.4255 75.1967C48.4296 76.0457 45.2679 76.5 42 76.5C22.9462 76.5 7.5 61.0538 7.5 42Z" fill="#5B5E61"/>
<path fill-rule="evenodd" clip-rule="evenodd" d="M68 79C76.2843 79 83 72.2843 83 64C83 55.7157 76.2843 49 68 49C59.7157 49 53 55.7157 53 64C53 72.2843 59.7157 79 68 79ZM76.9513 60.0155C77.537 59.4297 77.537 58.48 76.9513 57.8942C76.3655 57.3084 75.4157 57.3084 74.8299 57.8942L65.8594 66.8647L62.3693 63.3742C61.7836 62.7884 60.8338 62.7883 60.248 63.3741C59.6622 63.9598 59.6621 64.9096 60.2479 65.4954L64.7987 70.0467C65.08 70.328 65.4615 70.486 65.8593 70.4861C66.2572 70.4861 66.6387 70.328 66.92 70.0467L76.9513 60.0155Z" fill="#6EBE45"/>
<path fill-rule="evenodd" clip-rule="evenodd" d="M33.834 35.1666V31.3333C33.834 29.1674 34.6944 27.0901 36.2259 25.5586C37.7575 24.027 39.8347 23.1666 42.0007 23.1666C44.1666 23.1666 46.2438 24.027 47.7754 25.5586C49.3069 27.0901 50.1673 29.1674 50.1673 31.3333V35.1666H51.3333C53.6345 35.1666 55.5 37.0321 55.5 39.3333V48.6666C55.5 50.9678 53.6345 52.8333 51.3333 52.8333H32.6667C30.3655 52.8333 28.5 50.9678 28.5 48.6666V39.3333C28.5 37.0321 30.3655 35.1666 32.6667 35.1666H33.834ZM38.3473 27.6799C39.3162 26.711 40.6304 26.1666 42.0007 26.1666C43.3709 26.1666 44.6851 26.711 45.654 27.6799C46.623 28.6488 47.1673 29.963 47.1673 31.3333V35.1666H36.834V31.3333C36.834 29.963 37.3783 28.6488 38.3473 27.6799ZM32.6667 38.1666C32.0223 38.1666 31.5 38.689 31.5 39.3333V48.6666C31.5 49.311 32.0223 49.8333 32.6667 49.8333H51.3333C51.9777 49.8333 52.5 49.311 52.5 48.6666V39.3333C52.5 38.689 51.9777 38.1666 51.3333 38.1666H32.6667Z" fill="#6EBE45"/>
</svg>
