<svg width="44" height="47" viewBox="0 0 44 47" fill="none" xmlns="http://www.w3.org/2000/svg">
<path fill-rule="evenodd" clip-rule="evenodd" d="M11.2207 11.2889C9.75241 11.2889 8.56213 12.4929 8.56213 13.9781V43.467C8.56213 44.9522 9.75241 46.1561 11.2207 46.1561H40.7702C42.2386 46.1561 43.4288 44.9522 43.4288 43.467V13.9781C43.4288 12.4929 42.2386 11.2889 40.7702 11.2889H11.2207ZM16.233 41.044C16.233 41.3411 16.4711 41.5818 16.7647 41.5818H21.3628C21.6565 41.5818 21.8945 41.3411 21.8945 41.044V34.3499C21.8945 34.0527 22.1326 33.8838 22.4262 33.8838H26.5637C28.3387 33.8838 29.8416 33.5555 31.0722 32.8988C32.5161 32.1448 33.6521 31.0624 34.4803 29.6517C35.3324 28.2409 35.7583 26.6966 35.7583 25.0183C35.7583 23.3401 35.3324 21.8078 34.4803 20.4214C33.6285 19.0107 32.4805 17.9284 31.0369 17.1744C29.7826 16.5177 28.2914 16.1893 26.5637 16.1893H16.7647C16.4711 16.1893 16.233 16.4301 16.233 16.7271V22.1007C16.233 22.3977 16.4696 22.6385 16.7633 22.6385H27.1563C29.8751 22.6385 29.8751 27.5498 27.1563 27.5498H16.7633C16.4696 27.5498 16.233 27.7905 16.233 28.0877V41.044Z" fill="#4356FF"/>
<path d="M1.47974 21.8917C1.47974 21.1509 2.0803 20.5503 2.82114 20.5503H11.3974C12.1382 20.5503 12.7388 21.1509 12.7388 21.8917V30.4679C12.7388 31.2089 12.1382 31.8093 11.3974 31.8093H2.82114C2.08031 31.8093 1.47974 31.2089 1.47974 30.4679V21.8917Z" fill="#6EBE45"/>
<path d="M9.2887 3.80613C9.2887 3.22494 9.75984 2.75378 10.3411 2.75378H15.137C15.7182 2.75378 16.1894 3.22494 16.1894 3.80613V8.60213C16.1894 9.18334 15.7182 9.65449 15.137 9.65449H10.3411C9.75984 9.65449 9.2887 9.18334 9.2887 8.60213V3.80613Z" fill="#CF00C7"/>
<path d="M3.6593 12.1597C3.6593 11.5784 4.13047 11.1073 4.71166 11.1073H9.50765C10.0889 11.1073 10.56 11.5784 10.56 12.1597V16.9556C10.56 17.5368 10.0889 18.008 9.50765 18.008H4.71166C4.13047 18.008 3.6593 17.5368 3.6593 16.9556V12.1597Z" fill="#FF7F37"/>
<path d="M0.57312 1.35359C0.57312 0.923426 0.921839 0.574707 1.352 0.574707H5.24216C5.67234 0.574707 6.02104 0.923426 6.02104 1.35359V5.24374C6.02104 5.67392 5.67234 6.02263 5.24216 6.02263H1.352C0.921839 6.02263 0.57312 5.67392 0.57312 5.24374V1.35359Z" fill="#4356FF"/>
</svg>
