<svg width="40" height="25" viewBox="0 0 40 25" fill="none" xmlns="http://www.w3.org/2000/svg">
  <path
    d="M12.5059 24.4454C18.9619 24.4454 24.1955 19.1666 24.1955 12.6548C24.1955 6.14307 18.9619 0.864258 12.5059 0.864258C6.04999 0.864258 0.816406 6.14307 0.816406 12.6548C0.816406 19.1666 6.04999 24.4454 12.5059 24.4454Z"
    fill="#D62E2D"/>
  <path
    d="M27.6251 24.4454C34.081 24.4454 39.3146 19.1666 39.3146 12.6548C39.3146 6.14307 34.081 0.864258 27.6251 0.864258C21.1691 0.864258 15.9355 6.14307 15.9355 12.6548C15.9355 19.1666 21.1691 24.4454 27.6251 24.4454Z"
    fill="#EAA240"/>
  <path
    d="M15.9355 12.6552C15.9355 16.2582 17.5425 19.4788 20.0669 21.6415C22.5925 19.4788 24.1983 16.2582 24.1983 12.6552C24.1983 9.05228 22.5914 5.83166 20.0669 3.66895C17.5425 5.83166 15.9355 9.05228 15.9355 12.6552Z"
    fill="#EF682E"/>
</svg>
