<svg width="84" height="84" viewBox="0 0 84 84" fill="none" xmlns="http://www.w3.org/2000/svg">
<path fill-rule="evenodd" clip-rule="evenodd" d="M68 79C76.2843 79 83 72.2843 83 64C83 55.7157 76.2843 49 68 49C59.7157 49 53 55.7157 53 64C53 72.2843 59.7157 79 68 79ZM58.3091 62.3096C58.292 62.5282 58.3636 62.753 58.5256 62.9255C58.6848 63.0949 58.8998 63.1803 59.1153 63.18L63.9604 63.18C64.4063 63.18 64.7678 62.8185 64.7678 62.3726C64.7678 61.9268 64.4063 61.5653 63.9604 61.5653H61.1521L63.4128 59.441L63.4226 59.4317L63.431 59.4234C64.2023 58.6517 65.1565 58.088 66.2045 57.7849C67.2526 57.4817 68.3603 57.449 69.4244 57.6898C70.4886 57.9306 71.4743 58.437 72.2898 59.1618C73.1053 59.8866 73.7238 60.8061 74.0878 61.8346C74.2365 62.255 74.6979 62.4751 75.1182 62.3264C75.5385 62.1777 75.7587 61.7163 75.61 61.296C75.155 60.0103 74.3818 58.8609 73.3625 57.9549C72.3431 57.0489 71.1109 56.4159 69.7808 56.1149C68.4506 55.814 67.0659 55.8549 65.7559 56.2338C64.4499 56.6115 63.2606 57.3129 62.2982 58.2728L59.9238 60.5039L59.9238 57.5287C59.9238 57.0828 59.5623 56.7213 59.1164 56.7213C58.6706 56.7213 58.3091 57.0828 58.3091 57.5287L58.3091 62.3096ZM77.6913 65.6904C77.7083 65.4717 77.6368 65.2469 77.4747 65.0745C77.3156 64.9051 77.1005 64.8197 76.8851 64.82L72.0399 64.82C71.5941 64.82 71.2326 65.1814 71.2326 65.6273C71.2326 66.0732 71.5941 66.4347 72.0399 66.4347H74.8482L72.5875 68.559L72.5726 68.5733L72.5694 68.5766C71.7981 69.3482 70.8439 69.9119 69.7959 70.2151C68.7478 70.5182 67.64 70.5509 66.5759 70.3102C65.5118 70.0694 64.526 69.563 63.7106 68.8382C62.8951 68.1134 62.2765 67.1939 61.9126 66.1653C61.7638 65.745 61.3025 65.5248 60.8822 65.6736C60.4618 65.8223 60.2417 66.2836 60.3904 66.704C60.8454 67.9896 61.6186 69.1391 62.6379 70.0451C63.6572 70.9511 64.8895 71.5841 66.2196 71.885C67.5497 72.186 68.9344 72.1451 70.2445 71.7662C71.5504 71.3884 72.7397 70.6871 73.7022 69.7272L76.0766 67.4961V70.4713C76.0766 70.9172 76.4381 71.2787 76.8839 71.2787C77.3298 71.2787 77.6913 70.9172 77.6913 70.4713V65.6904Z" fill="#6EBE45"/>
<path d="M42 7.5C22.9462 7.5 7.5 22.9462 7.5 42C7.5 61.0538 22.9462 76.5 42 76.5C45.2679 76.5 48.4296 76.0457 51.4255 75.1967C52.0317 76.0923 52.7086 76.9362 53.4482 77.7204C49.8393 78.8761 45.9925 79.5 42 79.5C21.2893 79.5 4.5 62.7107 4.5 42C4.5 21.2893 21.2893 4.5 42 4.5C62.7107 4.5 79.5 21.2893 79.5 42C79.5 43.8242 79.3697 45.618 79.118 47.3725C78.2248 46.7741 77.2807 46.2457 76.2936 45.7953C76.43 44.549 76.5 43.2827 76.5 42C76.5 22.9462 61.0538 7.5 42 7.5Z" fill="#5B5E61"/>
<path fill-rule="evenodd" clip-rule="evenodd" d="M33.834 31.3333V35.1666H32.6667C30.3655 35.1666 28.5 37.0321 28.5 39.3333V48.6666C28.5 50.9678 30.3655 52.8333 32.6667 52.8333H51.3333C53.6345 52.8333 55.5 50.9678 55.5 48.6666V39.3333C55.5 37.0321 53.6345 35.1666 51.3333 35.1666H50.1673V31.3333C50.1673 29.1674 49.3069 27.0901 47.7754 25.5586C46.2438 24.027 44.1666 23.1666 42.0006 23.1666C39.8347 23.1666 37.7575 24.027 36.2259 25.5586C34.6944 27.0901 33.834 29.1674 33.834 31.3333ZM42.0006 26.1666C40.6304 26.1666 39.3162 26.711 38.3473 27.6799C37.3783 28.6488 36.834 29.963 36.834 31.3333V35.1666H47.1673V31.3333C47.1673 29.963 46.623 28.6488 45.654 27.6799C44.6851 26.711 43.3709 26.1666 42.0006 26.1666ZM31.5 39.3333C31.5 38.689 32.0223 38.1666 32.6667 38.1666H51.3333C51.9777 38.1666 52.5 38.689 52.5 39.3333V48.6666C52.5 49.311 51.9777 49.8333 51.3333 49.8333H32.6667C32.0223 49.8333 31.5 49.311 31.5 48.6666V39.3333Z" fill="#5B5E61"/>
</svg>
