<svg width="84" height="84" viewBox="0 0 84 84" fill="none" xmlns="http://www.w3.org/2000/svg">
<path fill-rule="evenodd" clip-rule="evenodd" d="M68 79C76.2843 79 83 72.2843 83 64C83 55.7157 76.2843 49 68 49C59.7157 49 53 55.7157 53 64C53 72.2843 59.7157 79 68 79ZM60.2788 61.1594C60.1403 61.1594 60.008 61.2169 59.9134 61.3181C59.8189 61.4193 59.7705 61.5552 59.78 61.6934L59.8776 63.125L58.603 62.5999C58.4757 62.5475 58.3323 62.5499 58.2067 62.6066C58.0812 62.6633 57.9846 62.7694 57.9398 62.8996L57.5272 64.0994C57.4823 64.2298 57.4933 64.3729 57.5576 64.4949C57.6219 64.617 57.7337 64.707 57.8666 64.7438L59.1823 65.1082L58.2382 66.2394C58.1469 66.3489 58.1066 66.4921 58.1275 66.6331C58.1483 66.7741 58.2284 66.8994 58.3475 66.9777L59.4393 67.695C59.5506 67.7681 59.6865 67.7938 59.8168 67.7664C59.9471 67.739 60.0611 67.6607 60.1335 67.549L60.8745 66.4052L61.626 67.6058C61.6983 67.7213 61.8146 67.8023 61.948 67.8301C62.0814 67.8578 62.2203 67.83 62.3327 67.7529L63.4245 67.0039C63.5402 66.9244 63.6172 66.8 63.6367 66.661C63.6563 66.522 63.6164 66.3812 63.527 66.273L62.6303 65.188L63.9778 64.8205C64.1105 64.7843 64.2224 64.6951 64.2872 64.5737C64.352 64.4524 64.364 64.3097 64.3203 64.1793L63.914 62.9669C63.8701 62.8356 63.7736 62.7285 63.6477 62.6709C63.5218 62.6134 63.3777 62.6107 63.2496 62.6634L62.0229 63.1683L62.1296 61.6955C62.1396 61.557 62.0916 61.4206 61.997 61.3189C61.9024 61.2172 61.7697 61.1594 61.6309 61.1594H60.2788ZM67.9845 61.1594C67.846 61.1594 67.7136 61.2169 67.6191 61.3181C67.5245 61.4193 67.4762 61.5552 67.4856 61.6934L67.5832 63.125L66.3087 62.5999C66.1813 62.5475 66.0379 62.5499 65.9124 62.6066C65.7868 62.6633 65.6902 62.7694 65.6454 62.8996L65.2328 64.0994C65.188 64.2298 65.199 64.3729 65.2633 64.4949C65.3275 64.617 65.4393 64.707 65.5722 64.7438L66.888 65.1082L65.9439 66.2394C65.8525 66.3489 65.8122 66.4921 65.8331 66.6331C65.854 66.7741 65.9341 66.8994 66.0532 66.9777L67.145 67.695C67.2563 67.7681 67.3921 67.7938 67.5225 67.7664C67.6528 67.739 67.7668 67.6607 67.8392 67.549L68.5802 66.4052L69.3316 67.6058C69.4039 67.7213 69.5202 67.8023 69.6536 67.8301C69.787 67.8578 69.926 67.83 70.0383 67.7529L71.1301 67.0039C71.2459 66.9244 71.3229 66.8 71.3424 66.661C71.3619 66.522 71.3221 66.3812 71.2327 66.273L70.336 65.188L71.6834 64.8205C71.8161 64.7843 71.9281 64.6951 71.9929 64.5737C72.0577 64.4524 72.0697 64.3097 72.0259 64.1793L71.6197 62.9669C71.5757 62.8356 71.4793 62.7285 71.3534 62.6709C71.2274 62.6134 71.0833 62.6107 70.9553 62.6634L69.7286 63.1683L69.8352 61.6955C69.8452 61.557 69.7972 61.4206 69.7026 61.3189C69.608 61.2172 69.4754 61.1594 69.3365 61.1594H67.9845ZM75.3248 61.3181C75.4193 61.2169 75.5516 61.1594 75.6901 61.1594H77.0422C77.1811 61.1594 77.3137 61.2172 77.4083 61.3189C77.5029 61.4206 77.5509 61.557 77.5409 61.6955L77.4342 63.1683L78.661 62.6634C78.789 62.6107 78.9331 62.6134 79.059 62.6709C79.1849 62.7285 79.2814 62.8356 79.3254 62.9669L79.7316 64.1793C79.7753 64.3097 79.7634 64.4524 79.6985 64.5737C79.6337 64.6951 79.5218 64.7843 79.3891 64.8205L78.0417 65.188L78.9383 66.273C79.0278 66.3812 79.0676 66.522 79.0481 66.661C79.0286 66.8 78.9515 66.9244 78.8358 67.0039L77.744 67.7529C77.6316 67.83 77.4927 67.8578 77.3593 67.8301C77.2259 67.8023 77.1096 67.7213 77.0373 67.6058L76.2859 66.4052L75.5448 67.549C75.4724 67.6607 75.3584 67.739 75.2281 67.7664C75.0978 67.7938 74.9619 67.7681 74.8507 67.695L73.7589 66.9777C73.6397 66.8994 73.5597 66.7741 73.5388 66.6331C73.5179 66.4921 73.5582 66.3489 73.6495 66.2394L74.5936 65.1082L73.2779 64.7438C73.145 64.707 73.0332 64.617 72.9689 64.4949C72.9047 64.3729 72.8937 64.2298 72.9385 64.0994L73.3511 62.8996C73.3959 62.7694 73.4925 62.6633 73.618 62.6066C73.7436 62.5499 73.887 62.5475 74.0144 62.5999L75.2889 63.125L75.1913 61.6934C75.1819 61.5552 75.2302 61.4193 75.3248 61.3181Z" fill="#2CBADD"/>
<path d="M42.0021 11.0679C27.0245 11.0679 14.5302 21.7145 11.6804 35.8534C11.5167 36.6655 10.7257 37.1912 9.91359 37.0275C9.1015 36.8638 8.57586 36.0728 8.73954 35.2607C11.866 19.7491 25.5683 8.06787 42.0021 8.06787C58.1104 8.06787 71.5942 19.2908 75.0665 34.3433L78.4799 28.6078C78.9036 27.8959 79.8242 27.6623 80.5361 28.0859C81.2479 28.5096 81.4816 29.4302 81.0579 30.1421L75.6199 39.2794C75.1962 39.9913 74.2756 40.2249 73.5637 39.8013L65.0478 34.7331C64.336 34.3094 64.1023 33.3888 64.526 32.677C64.9497 31.9651 65.8702 31.7314 66.5821 32.1551L72.2574 35.5327C69.2846 21.5538 56.8663 11.0679 42.0021 11.0679Z" fill="#5B5E61"/>
<path d="M11.6789 48.1392L11.6804 48.1466C14.5302 62.2855 27.0245 72.9321 42.0021 72.9321C44.6433 72.9321 47.2072 72.6011 49.6547 71.9782C50.0672 72.9255 50.551 73.8347 51.0993 74.6989C48.2042 75.5026 45.1534 75.9321 42.0021 75.9321C25.6819 75.9321 12.0557 64.4119 8.80591 49.0606L5.75241 54.3494C5.3382 55.0668 4.42081 55.3126 3.70338 54.8984C2.98594 54.4842 2.74012 53.5668 3.15434 52.8494L8.07505 44.3265C8.48926 43.609 9.40665 43.3632 10.1241 43.7774L18.7063 48.7324C19.4238 49.1466 19.6696 50.064 19.2554 50.7814C18.8412 51.4989 17.9238 51.7447 17.2064 51.3305L11.6789 48.1392Z" fill="#5B5E61"/>
<path fill-rule="evenodd" clip-rule="evenodd" d="M33.834 31.3333V35.1666H32.6667C30.3655 35.1666 28.5 37.0321 28.5 39.3333V48.6666C28.5 50.9678 30.3655 52.8333 32.6667 52.8333H51.3333C53.6345 52.8333 55.5 50.9678 55.5 48.6666V39.3333C55.5 37.0321 53.6345 35.1666 51.3333 35.1666H50.1673V31.3333C50.1673 29.1674 49.3069 27.0901 47.7754 25.5586C46.2438 24.027 44.1666 23.1666 42.0006 23.1666C39.8347 23.1666 37.7575 24.027 36.2259 25.5586C34.6944 27.0901 33.834 29.1674 33.834 31.3333ZM42.0006 26.1666C40.6304 26.1666 39.3162 26.711 38.3473 27.6799C37.3783 28.6488 36.834 29.963 36.834 31.3333V35.1666H47.1673V31.3333C47.1673 29.963 46.623 28.6488 45.654 27.6799C44.6851 26.711 43.3709 26.1666 42.0006 26.1666ZM32.6667 38.1666H51.3333C51.9777 38.1666 52.5 38.689 52.5 39.3333V48.6666C52.5 49.311 51.9777 49.8333 51.3333 49.8333H32.6667C32.0223 49.8333 31.5 49.311 31.5 48.6666V39.3333C31.5 38.689 32.0223 38.1666 32.6667 38.1666Z" fill="#5B5E61"/>
</svg>
