<svg width="108" height="14" viewBox="0 0 108 14" fill="none" xmlns="http://www.w3.org/2000/svg">
<g clip-path="url(#clip0_226_27051)">
<path d="M3.4527 7.56603C4.01178 7.56603 4.51374 7.48786 4.9586 7.33159C5.40347 7.17526 5.77918 6.95887 6.08575 6.6823C6.39836 6.40579 6.63584 6.08117 6.79815 5.70845C6.96649 5.32972 7.05063 4.91793 7.05063 4.47307C7.05063 3.49318 6.75004 2.73873 6.14891 2.20971C5.54774 1.68069 4.649 1.41618 3.4527 1.41618H1.08113V7.56603H3.4527ZM3.4527 0.685776C4.94958 0.685776 6.07673 1.01341 6.83419 1.66867C7.59767 2.32393 7.97942 3.25873 7.97942 4.47307C7.97942 5.03215 7.87424 5.54615 7.66383 6.01502C7.45341 6.48395 7.15282 6.88973 6.76206 7.23239C6.37134 7.56902 5.89643 7.83357 5.33732 8.02593C4.77825 8.21227 4.15004 8.30544 3.4527 8.30544H1.08113V13.4454H0.152344V0.685776H3.4527Z" fill="white"/>
<path d="M13.7162 6.98892C14.2813 6.98892 14.7862 6.92277 15.2311 6.79053C15.682 6.6523 16.0607 6.45689 16.3673 6.2044C16.6799 5.95192 16.9173 5.64834 17.0796 5.29365C17.2419 4.93897 17.3231 4.5392 17.3231 4.09434C17.3231 3.18659 17.0255 2.5133 16.4304 2.07445C15.8412 1.63561 14.9786 1.41618 13.8424 1.41618H11.5069V6.98892H13.7162ZM19.3791 13.4454H18.5855C18.4833 13.4454 18.3962 13.4303 18.324 13.4003C18.2579 13.3642 18.1948 13.3011 18.1347 13.2109L14.0408 8.03496C13.9927 7.96881 13.9416 7.91168 13.8875 7.86363C13.8394 7.81552 13.7823 7.77943 13.7162 7.7554C13.6561 7.72534 13.5809 7.70431 13.4907 7.6923C13.4066 7.68023 13.3014 7.67425 13.1751 7.67425H11.5069V13.4454H10.5781V0.685776H13.8424C15.3092 0.685776 16.4063 0.971327 17.1338 1.54243C17.8671 2.10752 18.2339 2.94012 18.2339 4.04024C18.2339 4.52718 18.1497 4.97203 17.9814 5.37481C17.8131 5.77759 17.5696 6.13227 17.251 6.43884C16.9384 6.73943 16.5566 6.98593 16.1058 7.1783C15.6609 7.37067 15.1589 7.49988 14.5998 7.56603C14.7442 7.6562 14.8734 7.77644 14.9876 7.92673L19.3791 13.4454Z" fill="white"/>
<path d="M32.7972 7.06109C32.7972 8.04701 32.65 8.94269 32.3554 9.74825C32.0608 10.5478 31.646 11.2332 31.111 11.8042C30.5759 12.3693 29.9327 12.8082 29.1813 13.1208C28.4358 13.4274 27.6122 13.5806 26.7105 13.5806C25.8088 13.5806 24.9852 13.4274 24.2397 13.1208C23.4943 12.8082 22.8541 12.3693 22.3191 11.8042C21.784 11.2332 21.3692 10.5478 21.0747 9.74825C20.7801 8.94269 20.6328 8.04701 20.6328 7.06109C20.6328 6.08121 20.7801 5.19149 21.0747 4.39195C21.3692 3.5864 21.784 2.90108 22.3191 2.33599C22.8541 1.76489 23.4943 1.32304 24.2397 1.01043C24.9852 0.697834 25.8088 0.541534 26.7105 0.541534C27.6122 0.541534 28.4358 0.697834 29.1813 1.01043C29.9327 1.31703 30.5759 1.75588 31.111 2.32698C31.646 2.89808 32.0608 3.5864 32.3554 4.39195C32.65 5.19149 32.7972 6.08121 32.7972 7.06109ZM31.8414 7.06109C31.8414 6.17139 31.7181 5.37184 31.4717 4.66247C31.2252 3.95311 30.8765 3.35195 30.4256 2.859C29.9748 2.36605 29.4338 1.99033 28.8025 1.73182C28.1713 1.46732 27.474 1.33507 26.7105 1.33507C25.953 1.33507 25.2587 1.46732 24.6275 1.73182C23.9963 1.99033 23.4522 2.36605 22.9954 2.859C22.5445 3.35195 22.1928 3.95311 21.9403 4.66247C21.6938 5.37184 21.5706 6.17139 21.5706 7.06109C21.5706 7.95683 21.6938 8.75935 21.9403 9.46875C22.1928 10.1721 22.5445 10.7703 22.9954 11.2632C23.4522 11.7561 23.9963 12.1319 24.6275 12.3903C25.2587 12.6489 25.953 12.7781 26.7105 12.7781C27.474 12.7781 28.1713 12.6489 28.8025 12.3903C29.4338 12.1319 29.9748 11.7561 30.4256 11.2632C30.8765 10.7703 31.2252 10.1721 31.4717 9.46875C31.7181 8.75935 31.8414 7.95683 31.8414 7.06109Z" fill="white"/>
<path d="M44.9348 11.2993C44.9949 11.2993 45.046 11.3203 45.0881 11.3624L45.4488 11.7501C45.1842 12.0327 44.8957 12.2882 44.5831 12.5166C44.2765 12.739 43.9369 12.9314 43.5641 13.0937C43.1974 13.25 42.7916 13.3702 42.3468 13.4544C41.908 13.5446 41.424 13.5897 40.895 13.5897C40.0113 13.5897 39.1997 13.4364 38.4603 13.1298C37.7269 12.8172 37.0957 12.3783 36.5666 11.8132C36.0376 11.2421 35.6258 10.5538 35.3313 9.74825C35.0427 8.94269 34.8984 8.04701 34.8984 7.06109C34.8984 6.09322 35.0487 5.20953 35.3493 4.40999C35.6499 3.61045 36.0707 2.92512 36.6117 2.35403C37.1528 1.77692 37.802 1.33206 38.5595 1.01946C39.317 0.700841 40.1526 0.541534 41.0663 0.541534C41.938 0.541534 42.7105 0.676794 43.3838 0.947316C44.0571 1.21784 44.6702 1.59958 45.2233 2.09252L44.9438 2.4983C44.8957 2.57044 44.8205 2.60652 44.7183 2.60652C44.6462 2.60652 44.529 2.54039 44.3667 2.40813C44.2043 2.27588 43.9789 2.1316 43.6904 1.9753C43.4018 1.81298 43.0411 1.6657 42.6083 1.53345C42.1815 1.40119 41.6675 1.33507 41.0663 1.33507C40.2968 1.33507 39.5905 1.46732 38.9472 1.73182C38.31 1.99634 37.76 2.37507 37.2971 2.86802C36.8402 3.36097 36.4825 3.96212 36.224 4.67149C35.9655 5.38086 35.8362 6.17737 35.8362 7.06109C35.8362 7.96281 35.9655 8.76837 36.224 9.47777C36.4885 10.1871 36.8492 10.7883 37.3061 11.2812C37.763 11.7682 38.301 12.1439 38.9202 12.4084C39.5454 12.6669 40.2187 12.7961 40.9401 12.7961C41.397 12.7961 41.8027 12.7661 42.1574 12.7059C42.5181 12.6458 42.8488 12.5557 43.1493 12.4355C43.4499 12.3152 43.7294 12.1679 43.988 11.9936C44.2464 11.8193 44.5019 11.6148 44.7544 11.3804C44.7845 11.3564 44.8146 11.3383 44.8446 11.3263C44.8747 11.3083 44.9047 11.2993 44.9348 11.2993Z" fill="white"/>
<path d="M55.5808 12.6789L55.5626 13.4454H47.916V0.685776H55.5626V1.45226H48.8448V6.61017H54.4358V7.35866H48.8448V12.6789H55.5808Z" fill="white"/>
<path d="M64.5719 2.2368C64.5177 2.339 64.4396 2.3901 64.3373 2.3901C64.2592 2.3901 64.1568 2.33599 64.0306 2.22778C63.9104 2.11356 63.7452 1.99033 63.5348 1.85807C63.3245 1.7198 63.0599 1.59356 62.741 1.47934C62.4288 1.36512 62.041 1.30801 61.5782 1.30801C61.1149 1.30801 60.7063 1.37414 60.3515 1.50639C60.0028 1.63865 59.7083 1.819 59.468 2.04744C59.2333 2.27588 59.0534 2.54039 58.9266 2.84097C58.8065 3.14154 58.7467 3.45715 58.7467 3.78779C58.7467 4.22062 58.8369 4.57831 59.0169 4.86086C59.2034 5.1434 59.4467 5.38386 59.7473 5.58222C60.0479 5.78062 60.3875 5.94896 60.7662 6.08719C61.1509 6.21949 61.5448 6.35174 61.9477 6.48399C62.3502 6.61624 62.741 6.76354 63.1202 6.92585C63.5049 7.08213 63.8476 7.28053 64.1477 7.521C64.4483 7.76142 64.689 8.05902 64.8695 8.4137C65.0555 8.76239 65.1488 9.19822 65.1488 9.72124C65.1488 10.2563 65.0555 10.7612 64.8695 11.2361C64.689 11.705 64.4244 12.1138 64.0757 12.4625C63.7269 12.8112 63.3001 13.0877 62.7953 13.2921C62.2904 13.4905 61.713 13.5897 61.0642 13.5897C60.2223 13.5897 59.4979 13.4424 58.8906 13.1478C58.2834 12.8472 57.7516 12.4385 57.2949 11.9215L57.5474 11.5247C57.6193 11.4345 57.7035 11.3894 57.7998 11.3894C57.854 11.3894 57.923 11.4255 58.0071 11.4977C58.0913 11.5698 58.1937 11.66 58.3138 11.7681C58.4339 11.8704 58.5784 11.9846 58.7467 12.1108C58.915 12.231 59.1101 12.3453 59.3327 12.4535C59.5552 12.5557 59.8107 12.6428 60.0991 12.715C60.3875 12.7871 60.7155 12.8232 61.082 12.8232C61.5868 12.8232 62.038 12.7481 62.4349 12.5978C62.8313 12.4414 63.1648 12.231 63.4355 11.9665C63.7122 11.702 63.9226 11.3894 64.0666 11.0287C64.211 10.662 64.283 10.2713 64.283 9.85647C64.283 9.40559 64.1903 9.03591 64.0037 8.74733C63.8233 8.45278 63.583 8.20931 63.2824 8.01695C62.9818 7.81855 62.6391 7.65325 62.2544 7.521C61.8758 7.3887 61.4849 7.25949 61.082 7.13322C60.6795 7.00701 60.2856 6.86573 59.9009 6.70941C59.5222 6.55313 59.1821 6.35473 58.882 6.11426C58.5814 5.86781 58.3376 5.56423 58.1516 5.20351C57.9711 4.83681 57.8809 4.37993 57.8809 3.83288C57.8809 3.40605 57.962 2.99426 58.1242 2.59749C58.2864 2.20073 58.5241 1.85206 58.8369 1.55148C59.1492 1.24489 59.5339 1.00142 59.9911 0.821073C60.4539 0.634714 60.9801 0.541534 61.5691 0.541534C62.2301 0.541534 62.8221 0.646738 63.3453 0.857144C63.8745 1.06755 64.3555 1.38917 64.7884 1.822L64.5719 2.2368Z" fill="white"/>
<path d="M74.2243 2.2368C74.17 2.339 74.092 2.3901 73.9896 2.3901C73.9115 2.3901 73.8091 2.33599 73.6829 2.22778C73.5628 2.11356 73.3975 1.99033 73.1872 1.85807C72.9768 1.7198 72.7122 1.59356 72.3939 1.47934C72.0811 1.36512 71.6933 1.30801 71.2305 1.30801C70.7677 1.30801 70.3587 1.37414 70.0039 1.50639C69.6551 1.63865 69.3606 1.819 69.1203 2.04744C68.8856 2.27588 68.7057 2.54039 68.5795 2.84097C68.4588 3.14154 68.399 3.45715 68.399 3.78779C68.399 4.22062 68.4892 4.57831 68.6697 4.86086C68.8557 5.1434 69.099 5.38386 69.3996 5.58222C69.7002 5.78062 70.0403 5.94896 70.419 6.08719C70.8037 6.21949 71.1971 6.35174 71.6001 6.48399C72.0031 6.61624 72.3939 6.76354 72.7725 6.92585C73.1573 7.08213 73.4999 7.28053 73.8005 7.521C74.1011 7.76142 74.3414 8.05902 74.5218 8.4137C74.7079 8.76239 74.8011 9.19822 74.8011 9.72124C74.8011 10.2563 74.7079 10.7612 74.5218 11.2361C74.3414 11.705 74.0768 12.1138 73.728 12.4625C73.3798 12.8112 72.9525 13.0877 72.4476 13.2921C71.9427 13.4905 71.3659 13.5897 70.7166 13.5897C69.8746 13.5897 69.1502 13.4424 68.543 13.1478C67.9362 12.8472 67.404 12.4385 66.9473 11.9215L67.1997 11.5247C67.2717 11.4345 67.3558 11.3894 67.4521 11.3894C67.5064 11.3894 67.5753 11.4255 67.6595 11.4977C67.7436 11.5698 67.846 11.66 67.9661 11.7681C68.0863 11.8704 68.2307 11.9846 68.399 12.1108C68.5673 12.231 68.7625 12.3453 68.985 12.4535C69.2075 12.5557 69.463 12.6428 69.7514 12.715C70.0403 12.7871 70.3678 12.8232 70.7343 12.8232C71.2392 12.8232 71.6903 12.7481 72.0872 12.5978C72.4836 12.4414 72.8176 12.231 73.0878 11.9665C73.3646 11.702 73.5749 11.3894 73.7194 11.0287C73.8634 10.662 73.9359 10.2713 73.9359 9.85647C73.9359 9.40559 73.8426 9.03591 73.656 8.74733C73.4756 8.45278 73.2353 8.20931 72.9347 8.01695C72.6341 7.81855 72.2915 7.65325 71.9067 7.521C71.5281 7.3887 71.1373 7.25949 70.7343 7.13322C70.3318 7.00701 69.938 6.86573 69.5532 6.70941C69.1746 6.55313 68.8349 6.35473 68.5344 6.11426C68.2338 5.86781 67.99 5.56423 67.8039 5.20351C67.6235 4.83681 67.5332 4.37993 67.5332 3.83288C67.5332 3.40605 67.6143 2.99426 67.7765 2.59749C67.9393 2.20073 68.1765 1.85206 68.4892 1.55148C68.8015 1.24489 69.1862 1.00142 69.6434 0.821073C70.1062 0.634714 70.6324 0.541534 71.2214 0.541534C71.8824 0.541534 72.475 0.646738 72.9976 0.857144C73.5268 1.06755 74.0078 1.38917 74.4407 1.822L74.2243 2.2368Z" fill="white"/>
<path d="M89.5709 0.657074V13.4167H88.7684V2.5417C88.7684 2.3854 88.7776 2.22009 88.7953 2.04575L83.773 10.9639C83.6888 11.1202 83.5682 11.1984 83.4121 11.1984H83.2681C83.1115 11.1984 82.9913 11.1202 82.9072 10.9639L77.749 2.02771C77.7673 2.20806 77.7764 2.37939 77.7764 2.5417V13.4167H76.9648V0.657074H77.6051C77.6892 0.657074 77.7551 0.666092 77.8033 0.684127C77.8514 0.702161 77.8996 0.750254 77.9477 0.828404L83.0968 9.70152C83.1865 9.86981 83.2651 10.0502 83.331 10.2425C83.3669 10.1464 83.406 10.0532 83.448 9.96298C83.4901 9.86682 83.5352 9.77664 83.5834 9.6925L88.588 0.828404C88.6361 0.750254 88.6843 0.702161 88.7324 0.684127C88.7867 0.666092 88.8556 0.657074 88.9398 0.657074H89.5709Z" fill="#6EBE45"/>
<path d="M94.2729 13.4167H93.3438V0.657074H94.2729V13.4167Z" fill="#6EBE45"/>
<path d="M107.018 13.4167H106.107C106.023 13.4167 105.957 13.3926 105.909 13.3445C105.861 13.2904 105.822 13.2393 105.791 13.1912L101.769 7.30288C101.746 7.39306 101.703 7.48324 101.643 7.57341L97.6939 13.1912C97.6519 13.2453 97.6067 13.2964 97.5586 13.3445C97.5165 13.3926 97.4592 13.4167 97.3873 13.4167H96.5215L101.138 6.87005L96.7288 0.657074H97.6397C97.7238 0.657074 97.7837 0.675109 97.8202 0.711179C97.8622 0.747248 97.8982 0.789329 97.9281 0.837421L101.805 6.41916C101.842 6.32898 101.887 6.23881 101.941 6.14863L105.683 0.846439C105.713 0.792335 105.749 0.747248 105.791 0.711179C105.839 0.675109 105.893 0.657074 105.954 0.657074H106.837L102.428 6.81596L107.018 13.4167Z" fill="#6EBE45"/>
</g>
<defs>
<clipPath id="clip0_226_27051">
<rect width="107.462" height="13.1793" fill="white" transform="translate(0 0.410339)"/>
</clipPath>
</defs>
</svg>
