<svg width="101" height="17" viewBox="0 0 101 17" fill="none" xmlns="http://www.w3.org/2000/svg">
<path d="M28.2517 11.5003C28.5643 11.5003 28.8392 11.46 29.0764 11.3795C29.3174 11.2991 29.5188 11.1875 29.6808 11.0448C29.8464 10.8985 29.9707 10.7248 30.0535 10.5236C30.1364 10.3224 30.1778 10.1011 30.1778 9.85967C30.1778 9.35853 30.0178 8.96713 29.6977 8.68547C29.3814 8.40381 28.8994 8.26298 28.2517 8.26298H26.9526V11.5003H28.2517ZM28.2517 7.42348C28.7639 7.42348 29.2082 7.48201 29.5847 7.59907C29.9651 7.71246 30.2795 7.87524 30.528 8.0874C30.7765 8.29956 30.961 8.55562 31.0815 8.85557C31.2058 9.15552 31.2679 9.49022 31.2679 9.85967C31.2679 10.2255 31.202 10.5602 31.0702 10.8638C30.9384 11.1674 30.7445 11.4289 30.4885 11.6484C30.2362 11.8679 29.9218 12.0398 29.5452 12.1642C29.1724 12.2849 28.7413 12.3452 28.2517 12.3452H26.9526V15.2862H25.8625V7.42348H28.2517Z" fill="white"/>
<path d="M35.5799 11.2314C35.8962 11.2314 36.1748 11.1948 36.4158 11.1217C36.6606 11.0448 36.8639 10.9388 37.0258 10.8034C37.1915 10.6644 37.3158 10.4998 37.3986 10.3096C37.4815 10.1194 37.5229 9.90905 37.5229 9.6786C37.5229 9.21039 37.3647 8.85739 37.0484 8.61963C36.7321 8.38186 36.2577 8.26298 35.6251 8.26298H34.4276V11.2314H35.5799ZM39.319 15.2862H38.3475C38.148 15.2862 38.0011 15.2112 37.907 15.0613L35.8058 12.252C35.7418 12.1642 35.6721 12.102 35.5968 12.0654C35.5253 12.0252 35.4123 12.005 35.2579 12.005H34.4276V15.2862H33.3375V7.42348H35.6251C36.1372 7.42348 36.5796 7.4747 36.9524 7.57712C37.3252 7.67588 37.6321 7.82037 37.8731 8.01058C38.1178 8.2008 38.2986 8.43125 38.4153 8.70193C38.532 8.96896 38.5904 9.26891 38.5904 9.60178C38.5904 9.87979 38.5452 10.1395 38.4548 10.3809C38.3645 10.6223 38.2327 10.84 38.0595 11.0339C37.89 11.2241 37.681 11.3869 37.4325 11.5222C37.1877 11.6575 36.9091 11.76 36.5966 11.8295C36.7359 11.9063 36.8564 12.0179 36.958 12.1642L39.319 15.2862Z" fill="white"/>
<path d="M48.754 11.3576C48.754 11.9465 48.658 12.4879 48.4659 12.9817C48.2739 13.4719 48.0028 13.8944 47.6526 14.2492C47.3024 14.604 46.8806 14.8802 46.3874 15.0777C45.8978 15.2716 45.3556 15.3685 44.7607 15.3685C44.1657 15.3685 43.6235 15.2716 43.1339 15.0777C42.6444 14.8802 42.2246 14.604 41.8744 14.2492C41.5242 13.8944 41.2531 13.4719 41.061 12.9817C40.869 12.4879 40.773 11.9465 40.773 11.3576C40.773 10.7687 40.869 10.2291 41.061 9.73896C41.2531 9.24514 41.5242 8.82082 41.8744 8.466C42.2246 8.10752 42.6444 7.82951 43.1339 7.63199C43.6235 7.43446 44.1657 7.33569 44.7607 7.33569C45.3556 7.33569 45.8978 7.43446 46.3874 7.63199C46.8806 7.82951 47.3024 8.10752 47.6526 8.466C48.0028 8.82082 48.2739 9.24514 48.4659 9.73896C48.658 10.2291 48.754 10.7687 48.754 11.3576ZM47.63 11.3576C47.63 10.8747 47.5622 10.4413 47.4266 10.0572C47.2911 9.67311 47.099 9.34939 46.8505 9.08602C46.602 8.81899 46.3007 8.61414 45.9468 8.47148C45.5928 8.32882 45.1975 8.25749 44.7607 8.25749C44.3276 8.25749 43.9341 8.32882 43.5802 8.47148C43.2262 8.61414 42.9231 8.81899 42.6708 9.08602C42.4223 9.34939 42.2302 9.67311 42.0947 10.0572C41.9591 10.4413 41.8913 10.8747 41.8913 11.3576C41.8913 11.8404 41.9591 12.2739 42.0947 12.658C42.2302 13.0384 42.4223 13.3621 42.6708 13.6292C42.9231 13.8925 43.2262 14.0956 43.5802 14.2382C43.9341 14.3772 44.3276 14.4467 44.7607 14.4467C45.1975 14.4467 45.5928 14.3772 45.9468 14.2382C46.3007 14.0956 46.602 13.8925 46.8505 13.6292C47.099 13.3621 47.2911 13.0384 47.4266 12.658C47.5622 12.2739 47.63 11.8404 47.63 11.3576Z" fill="white"/>
<path d="M56.7804 13.6621C56.8407 13.6621 56.8934 13.6859 56.9386 13.7334L57.3735 14.1888C57.0421 14.5619 56.6392 14.8528 56.1648 15.0613C55.6941 15.2698 55.1236 15.374 54.4533 15.374C53.8735 15.374 53.3463 15.2771 52.8718 15.0832C52.3974 14.8857 51.9926 14.6113 51.6574 14.2602C51.3223 13.9053 51.0625 13.481 50.878 12.9872C50.6935 12.4934 50.6012 11.9502 50.6012 11.3576C50.6012 10.765 50.6972 10.2218 50.8893 9.72798C51.0813 9.23416 51.3506 8.80984 51.697 8.45502C52.0472 8.1002 52.4652 7.82586 52.9509 7.63199C53.4367 7.43446 53.9732 7.33569 54.5607 7.33569C55.1368 7.33569 55.6451 7.42531 56.0857 7.60455C56.5263 7.78379 56.9141 8.02704 57.2492 8.33431L56.8878 8.82264C56.8652 8.85922 56.835 8.89032 56.7974 8.91592C56.7635 8.93787 56.7164 8.94884 56.6562 8.94884C56.5884 8.94884 56.5056 8.91409 56.4077 8.84459C56.3097 8.77143 56.1817 8.69096 56.0236 8.60317C55.8654 8.51538 55.6677 8.43673 55.4305 8.36723C55.1933 8.29407 54.9014 8.25749 54.555 8.25749C54.137 8.25749 53.7548 8.32882 53.4084 8.47148C53.062 8.61048 52.7626 8.8135 52.5103 9.08053C52.2618 9.34756 52.0679 9.67311 51.9286 10.0572C51.7892 10.4413 51.7196 10.8747 51.7196 11.3576C51.7196 11.8478 51.7911 12.2849 51.9342 12.669C52.0811 13.053 52.2788 13.3786 52.5273 13.6456C52.7796 13.909 53.0752 14.1102 53.4141 14.2492C53.7567 14.3882 54.1257 14.4577 54.5211 14.4577C54.7621 14.4577 54.9786 14.4449 55.1707 14.4193C55.3665 14.39 55.5453 14.3461 55.7073 14.2876C55.8729 14.2291 56.0255 14.1559 56.1648 14.0681C56.3079 13.9767 56.4491 13.8688 56.5884 13.7444C56.6524 13.6895 56.7164 13.6621 56.7804 13.6621Z" fill="white"/>
<path d="M64.2116 14.4193L64.2059 15.2862H59.2185V7.42348H64.2059V8.29041H60.3143V10.9022H63.466V11.7362H60.3143V14.4193H64.2116Z" fill="white"/>
<path d="M70.2748 8.65255C70.2409 8.70742 70.2033 8.74949 70.1619 8.77875C70.1242 8.80435 70.0771 8.81716 70.0207 8.81716C69.9566 8.81716 69.8813 8.78607 69.7947 8.72388C69.7081 8.6617 69.5989 8.59402 69.4671 8.52086C69.3391 8.44405 69.1828 8.37455 68.9983 8.31236C68.8176 8.25018 68.5973 8.21908 68.3375 8.21908C68.0927 8.21908 67.8762 8.25201 67.6879 8.31785C67.5034 8.38003 67.3471 8.466 67.2191 8.57573C67.0948 8.68547 67.0007 8.81533 66.9367 8.9653C66.8727 9.11162 66.8407 9.27074 66.8407 9.44266C66.8407 9.66214 66.8953 9.84504 67.0045 9.99135C67.1174 10.134 67.2643 10.2566 67.445 10.359C67.6295 10.4614 67.8367 10.551 68.0663 10.6278C68.2998 10.701 68.537 10.7778 68.778 10.8583C69.0228 10.9388 69.26 11.0302 69.4897 11.1326C69.7232 11.2314 69.9303 11.3576 70.111 11.5112C70.2955 11.6649 70.4424 11.8532 70.5516 12.0764C70.6646 12.2995 70.721 12.5739 70.721 12.8994C70.721 13.2433 70.6608 13.567 70.5403 13.8706C70.4198 14.1705 70.2428 14.4321 70.0094 14.6552C69.7797 14.8784 69.4954 15.0539 69.1565 15.182C68.8213 15.31 68.4391 15.374 68.0099 15.374C67.4827 15.374 67.0045 15.2826 66.5752 15.0997C66.1459 14.9131 65.7788 14.6625 65.4738 14.348L65.7901 13.8432C65.8202 13.8029 65.856 13.77 65.8974 13.7444C65.9426 13.7151 65.9915 13.7005 66.0443 13.7005C66.0932 13.7005 66.1478 13.7206 66.2081 13.7609C66.2721 13.7974 66.3436 13.845 66.4227 13.9035C66.5018 13.962 66.5921 14.0261 66.6938 14.0956C66.7955 14.1651 66.9103 14.2291 67.0384 14.2876C67.1702 14.3461 67.3189 14.3955 67.4846 14.4357C67.6503 14.4723 67.8367 14.4906 68.0438 14.4906C68.3036 14.4906 68.5352 14.4559 68.7385 14.3864C68.9418 14.3169 69.1132 14.2199 69.2525 14.0956C69.3956 13.9675 69.5048 13.8157 69.5801 13.6401C69.6554 13.4646 69.6931 13.2689 69.6931 13.053C69.6931 12.8153 69.6366 12.6214 69.5236 12.4714C69.4144 12.3178 69.2694 12.1898 69.0887 12.0874C68.9079 11.9849 68.7008 11.899 68.4674 11.8295C68.2339 11.7563 67.9967 11.6832 67.7557 11.61C67.5147 11.5332 67.2775 11.4454 67.044 11.3466C66.8105 11.2479 66.6034 11.1198 66.4227 10.9625C66.242 10.8052 66.0951 10.6095 65.9821 10.3754C65.8729 10.1377 65.8183 9.84504 65.8183 9.49753C65.8183 9.21953 65.8729 8.95067 65.9821 8.69096C66.0951 8.43125 66.257 8.2008 66.4679 7.99961C66.6825 7.79842 66.9442 7.63747 67.253 7.51676C67.5655 7.39605 67.9233 7.33569 68.3262 7.33569C68.778 7.33569 69.1885 7.40519 69.5575 7.5442C69.9303 7.6832 70.2579 7.88438 70.5403 8.14775L70.2748 8.65255Z" fill="white"/>
<path d="M77.014 8.65255C76.9801 8.70742 76.9424 8.74949 76.901 8.77875C76.8634 8.80435 76.8163 8.81716 76.7598 8.81716C76.6958 8.81716 76.6205 8.78607 76.5339 8.72388C76.4473 8.6617 76.3381 8.59402 76.2063 8.52086C76.0782 8.44405 75.922 8.37455 75.7375 8.31236C75.5567 8.25018 75.3364 8.21908 75.0766 8.21908C74.8319 8.21908 74.6153 8.25201 74.4271 8.31785C74.2426 8.38003 74.0863 8.466 73.9583 8.57573C73.834 8.68547 73.7399 8.81533 73.6758 8.9653C73.6118 9.11162 73.5798 9.27074 73.5798 9.44266C73.5798 9.66214 73.6344 9.84504 73.7436 9.99135C73.8566 10.134 74.0034 10.2566 74.1842 10.359C74.3687 10.4614 74.5758 10.551 74.8055 10.6278C75.039 10.701 75.2762 10.7778 75.5172 10.8583C75.7619 10.9388 75.9992 11.0302 76.2289 11.1326C76.4623 11.2314 76.6694 11.3576 76.8502 11.5112C77.0347 11.6649 77.1815 11.8532 77.2907 12.0764C77.4037 12.2995 77.4602 12.5739 77.4602 12.8994C77.4602 13.2433 77.3999 13.567 77.2794 13.8706C77.159 14.1705 76.982 14.4321 76.7485 14.6552C76.5188 14.8784 76.2345 15.0539 75.8956 15.182C75.5605 15.31 75.1783 15.374 74.749 15.374C74.2218 15.374 73.7436 15.2826 73.3144 15.0997C72.8851 14.9131 72.617 14.6625 72.312 14.348L72.5292 13.8432C72.5594 13.8029 72.5951 13.77 72.6366 13.7444C72.6818 13.7151 72.7307 13.7005 72.7834 13.7005C72.8324 13.7005 72.887 13.7206 72.9472 13.7609C73.0112 13.7974 73.0828 13.845 73.1619 13.9035C73.2409 13.962 73.3313 14.0261 73.433 14.0956C73.5346 14.1651 73.6495 14.2291 73.7775 14.2876C73.9093 14.3461 74.058 14.3955 74.2237 14.4357C74.3894 14.4723 74.5758 14.4906 74.7829 14.4906C75.0427 14.4906 75.2743 14.4559 75.4776 14.3864C75.681 14.3169 75.8523 14.2199 75.9916 14.0956C76.1347 13.9675 76.2439 13.8157 76.3192 13.6401C76.3946 13.4646 76.4322 13.2689 76.4322 13.053C76.4322 12.8153 76.3757 12.6214 76.2628 12.4714C76.1536 12.3178 76.0086 12.1898 75.8278 12.0874C75.6471 11.9849 75.44 11.899 75.2065 11.8295C74.9731 11.7563 74.7358 11.6832 74.4948 11.61C74.2539 11.5332 74.0166 11.4454 73.7832 11.3466C73.5497 11.2479 73.3426 11.1198 73.1619 10.9625C72.9811 10.8052 72.8343 10.6095 72.7213 10.3754C72.6121 10.1377 72.5575 9.84504 72.5575 9.49753C72.5575 9.21953 72.6121 8.95067 72.7213 8.69096C72.8343 8.43125 72.9962 8.2008 73.207 7.99961C73.4217 7.79842 73.6834 7.63747 73.9922 7.51676C74.3047 7.39605 74.6624 7.33569 75.0653 7.33569C75.5172 7.33569 75.9276 7.40519 76.2966 7.5442C76.6694 7.6832 76.997 7.88438 77.2794 8.14775L77.014 8.65255Z" fill="white"/>
<path d="M88.5838 7.51099V15.3737H87.6236V9.59601C87.6236 9.51919 87.6255 9.43689 87.6292 9.3491C87.6368 9.26131 87.6443 9.17169 87.6518 9.08024L84.8729 13.9965C84.7863 14.1611 84.6545 14.2434 84.4775 14.2434H84.3193C84.1424 14.2434 84.0106 14.1611 83.924 13.9965L81.0885 9.05829C81.1111 9.25216 81.1224 9.4314 81.1224 9.59601V15.3737H80.1622V7.51099H80.9699C81.0678 7.51099 81.1431 7.52013 81.1958 7.53842C81.2486 7.55671 81.2994 7.60792 81.3483 7.69205L84.1442 12.5315C84.1894 12.6193 84.2327 12.7107 84.2742 12.8058C84.3193 12.901 84.3608 12.9979 84.3984 13.0967C84.4361 12.9979 84.4756 12.901 84.517 12.8058C84.5584 12.7071 84.6036 12.6138 84.6526 12.526L87.3977 7.69205C87.4428 7.60792 87.4918 7.55671 87.5445 7.53842C87.601 7.52013 87.6782 7.51099 87.7761 7.51099H88.5838Z" fill="#6EBE45"/>
<path d="M91.6549 15.3737H90.5591V7.51099H91.6549V15.3737Z" fill="#6EBE45"/>
<path d="M100.336 15.3737H99.2511C99.1683 15.3737 99.1024 15.3536 99.0534 15.3134C99.0082 15.2695 98.9706 15.2219 98.9405 15.1707L96.7715 11.8676C96.7414 11.9554 96.7075 12.0304 96.6698 12.0926L94.5574 15.1707C94.5197 15.2219 94.4783 15.2695 94.4331 15.3134C94.3917 15.3536 94.3333 15.3737 94.258 15.3737H93.2413L96.0259 11.3354L93.3543 7.51099H94.4444C94.5235 7.51099 94.5819 7.52379 94.6195 7.54939C94.6572 7.575 94.6911 7.61158 94.7212 7.65913L96.8336 10.8086C96.86 10.7318 96.8995 10.6477 96.9523 10.5562L98.9461 7.68108C98.9762 7.62987 99.012 7.58963 99.0534 7.56037C99.0948 7.52745 99.1438 7.51099 99.2003 7.51099H100.245L97.5623 11.286L100.336 15.3737Z" fill="#6EBE45"/>
<path fill-rule="evenodd" clip-rule="evenodd" d="M5.15513 4.04102C4.59758 4.04102 4.14561 4.48512 4.14561 5.03296V15.9105C4.14561 16.4583 4.59758 16.9024 5.15513 16.9024H16.3756C16.9331 16.9024 17.3851 16.4583 17.3851 15.9105V5.03296C17.3851 4.48512 16.9331 4.04102 16.3756 4.04102H5.15513ZM7.05838 15.0932C7.05838 15.2028 7.14878 15.2916 7.26028 15.2916H9.00625C9.11776 15.2916 9.20815 15.2028 9.20815 15.0932V12.5475C9.20815 12.4378 9.29855 12.3756 9.41006 12.3756H10.9811C11.6551 12.3756 12.2258 12.2544 12.6931 12.0122C13.2414 11.7341 13.6727 11.3348 13.9872 10.8144C14.3107 10.2941 14.4725 9.7244 14.4725 9.10536C14.4725 8.48631 14.3107 7.92108 13.9872 7.40969C13.6637 6.88933 13.2278 6.49008 12.6797 6.21196C12.2034 5.96972 11.6371 5.84861 10.9811 5.84861H7.26028C7.14878 5.84861 7.05838 5.93742 7.05838 6.04699V8.02912C7.05838 8.13869 7.14822 8.22751 7.25973 8.22751H11.2061C12.2385 8.22751 12.2385 10.0391 11.2061 10.0391H7.25973C7.14822 10.0391 7.05838 10.1279 7.05838 10.2375V15.0932Z" fill="#4356FF"/>
<path d="M0.835693 7.7352C0.835693 7.47074 1.05639 7.25635 1.32863 7.25635H4.48016C4.7524 7.25635 4.97309 7.47074 4.97309 7.7352V10.7967C4.97309 11.0612 4.7524 11.2755 4.48016 11.2755H1.32863C1.05639 11.2755 0.835693 11.0612 0.835693 10.7967V7.7352Z" fill="#6EBE45"/>
<path d="M4.14561 1.19344C4.14561 0.990334 4.3151 0.825684 4.52419 0.825684H6.24948C6.45856 0.825684 6.62805 0.990334 6.62805 1.19344V2.86944C6.62805 3.07255 6.45856 3.2372 6.24948 3.2372H4.52419C4.3151 3.2372 4.14561 3.07255 4.14561 2.86944V1.19344Z" fill="#CF00C7"/>
<path d="M1.66318 4.40877C1.66318 4.20566 1.83267 4.04102 2.04175 4.04102H3.76704C3.97613 4.04102 4.14562 4.20566 4.14562 4.40877V6.08477C4.14562 6.28787 3.97613 6.45253 3.76704 6.45253H2.04175C1.83267 6.45253 1.66318 6.28787 1.66318 6.08477V4.40877Z" fill="#FF7F37"/>
<path d="M0.835693 0.31391C0.835693 0.152542 0.970355 0.0217285 1.13647 0.0217285H2.63869C2.80481 0.0217285 2.93947 0.152542 2.93947 0.313909V1.77321C2.93947 1.93458 2.80481 2.06539 2.63869 2.06539H1.13647C0.970355 2.06539 0.835693 1.93458 0.835693 1.77321V0.31391Z" fill="#4356FF"/>
</svg>
