<svg width="85" height="84" viewBox="0 0 85 84" fill="none" xmlns="http://www.w3.org/2000/svg">
<path fill-rule="evenodd" clip-rule="evenodd" d="M76.0396 19.4678C76.0221 14.7125 72.1324 10.8335 67.373 10.8335H10.0397C5.26962 10.8335 1.37305 14.7301 1.37305 19.5002V62.5002C1.37305 67.2703 5.26962 71.1668 10.0397 71.1668H49.4802C48.9171 70.2147 48.4306 69.2119 48.0294 68.1668H10.0397C6.92647 68.1668 4.37305 65.6134 4.37305 62.5002V22.381L37.8463 45.8123C38.3628 46.1739 39.0502 46.1739 39.5667 45.8123L73.0397 22.3812V42.0234C74.0804 42.3706 75.083 42.8009 76.0397 43.3066V19.5268C76.0401 19.5071 76.0401 19.4875 76.0396 19.4678ZM4.42252 18.7537L38.7065 42.7525L72.9903 18.7539C72.6213 15.989 70.2335 13.8335 67.373 13.8335H10.0397C7.17935 13.8335 4.79155 15.989 4.42252 18.7537Z" fill="#5B5E61"/>
<path fill-rule="evenodd" clip-rule="evenodd" d="M66.7051 76C74.9893 76 81.7051 69.2843 81.7051 61C81.7051 52.7157 74.9893 46 66.7051 46C58.4208 46 51.7051 52.7157 51.7051 61C51.7051 69.2843 58.4208 76 66.7051 76ZM75.6563 57.0155C76.2421 56.4297 76.2421 55.48 75.6563 54.8942C75.0705 54.3084 74.1208 54.3084 73.535 54.8942L64.5645 63.8647L61.0744 60.3742C60.4886 59.7884 59.5389 59.7883 58.9531 60.3741C58.3673 60.9598 58.3672 61.9096 58.953 62.4954L63.5037 67.0467C63.785 67.328 64.1666 67.486 64.5644 67.4861C64.9623 67.4861 65.3438 67.328 65.6251 67.0467L75.6563 57.0155Z" fill="#499C54"/>
</svg>
