<svg width="43" height="27" viewBox="0 0 43 27" fill="none" xmlns="http://www.w3.org/2000/svg">
<path d="M8.80499 0.635742H19.1309C20.5724 0.635742 21.4689 1.81062 21.1326 3.25681L16.3251 23.8971C15.9859 25.3383 14.5427 26.5142 13.1003 26.5142H2.77533C1.33593 26.5142 0.437408 25.3383 0.773662 23.8971L5.58315 3.25681C5.9194 1.81062 7.36182 0.635742 8.80499 0.635742Z" fill="#E21836"/>
<path d="M18.2731 0.635742H30.1477C31.5888 0.635742 30.939 1.81062 30.6 3.25681L25.7932 23.8971C25.456 25.3383 25.5612 26.5142 24.117 26.5142H12.2424C10.7982 26.5142 9.9045 25.3383 10.2438 23.8971L15.0502 3.25681C15.3915 1.81062 16.8309 0.635742 18.2731 0.635742Z" fill="#00447C"/>
<path d="M29.673 0.635742H39.999C41.4424 0.635742 42.3389 1.81062 41.9999 3.25681L37.1931 23.8971C36.8539 25.3383 35.4097 26.5142 33.9665 26.5142H23.6453C22.2012 26.5142 21.3054 25.3383 21.6437 23.8971L26.4512 3.25681C26.7874 1.81062 28.2288 0.635742 29.673 0.635742Z" fill="#007B84"/>
<path d="M11.504 7.25031C10.4421 7.26113 10.1285 7.25031 10.0283 7.22665C9.98984 7.40963 9.27329 10.715 9.27127 10.7178C9.11699 11.3865 9.00474 11.8632 8.62343 12.171C8.40698 12.35 8.15429 12.4363 7.86132 12.4363C7.39042 12.4363 7.11608 12.2025 7.07002 11.759L7.06121 11.6068C7.06121 11.6068 7.20467 10.711 7.20467 10.706C7.20467 10.706 7.95671 7.69378 8.09137 7.29561C8.09841 7.27296 8.10043 7.26113 8.10219 7.25031C6.63838 7.26315 6.37889 7.25031 6.36102 7.22665C6.3512 7.25912 6.31496 7.44587 6.31496 7.44587L5.54706 10.8409L5.48112 11.1288L5.35352 12.0706C5.35352 12.35 5.40838 12.578 5.51762 12.7708C5.86746 13.3822 6.8654 13.4738 7.42993 13.4738C8.15731 13.4738 8.83963 13.3192 9.30072 13.0371C10.1011 12.5642 10.3105 11.825 10.4972 11.1681L10.5838 10.8311C10.5838 10.8311 11.3585 7.70259 11.4901 7.29561C11.4952 7.27296 11.4972 7.26113 11.504 7.25031ZM14.1398 9.77408C13.9531 9.77408 13.6118 9.81938 13.3052 9.96964C13.194 10.0268 13.0888 10.0927 12.9778 10.1584L13.078 9.79673L13.0231 9.73582C12.373 9.86745 12.2275 9.88507 11.627 9.96964L11.5767 10.0031C11.5069 10.5812 11.445 11.0159 11.1865 12.1523C11.0881 12.5711 10.9859 12.9939 10.8835 13.4117L10.9112 13.4648C11.5266 13.4323 11.7133 13.4323 12.2482 13.4412L12.2914 13.3941C12.3594 13.046 12.3682 12.9645 12.5187 12.2595C12.5894 11.9252 12.7369 11.1908 12.8097 10.9293C12.9433 10.8674 13.0752 10.8065 13.201 10.8065C13.5008 10.8065 13.4643 11.068 13.4527 11.1722C13.4399 11.3471 13.3307 11.9184 13.2187 12.409L13.1439 12.7256C13.0918 12.9594 13.0347 13.1867 12.9826 13.4185L13.0052 13.4648C13.6118 13.4323 13.7968 13.4323 14.3148 13.4412L14.3757 13.3941C14.4693 12.8504 14.4967 12.705 14.6628 11.9134L14.7464 11.5497C14.9087 10.838 14.9903 10.477 14.8675 10.1831C14.7376 9.85361 14.426 9.77408 14.1398 9.77408ZM17.0844 10.5193C16.762 10.5812 16.5563 10.6225 16.352 10.6492C16.1493 10.6816 15.9518 10.7111 15.6402 10.7544L15.6155 10.7768L15.5929 10.7946C15.5604 11.0267 15.5377 11.2273 15.4947 11.4631C15.4582 11.707 15.4021 11.9841 15.3107 12.3823C15.24 12.6871 15.2035 12.7933 15.1632 12.9005C15.124 13.0077 15.0807 13.1119 15.0012 13.4117L15.0198 13.4394L15.0354 13.4648C15.3266 13.4509 15.5171 13.4411 15.7129 13.4394C15.9085 13.4323 16.1111 13.4394 16.4247 13.4411L16.4521 13.4187L16.4816 13.3941C16.5269 13.1238 16.5337 13.051 16.5614 12.9191C16.5888 12.7777 16.6361 12.5819 16.7521 12.0589C16.807 11.8132 16.8682 11.5683 16.925 11.3176C16.9842 11.068 17.0461 10.8221 17.105 10.5764L17.0962 10.5467L17.0844 10.5193ZM17.0912 9.51451C16.7983 9.3416 16.2841 9.39647 15.938 9.63532C15.5929 9.86939 15.5537 10.2016 15.8456 10.3768C16.1336 10.5449 16.6498 10.4948 16.9928 10.254C17.3371 10.0149 17.3802 9.68566 17.0912 9.51451ZM18.863 13.519C19.4557 13.519 20.0633 13.3556 20.5206 12.8709C20.8725 12.4777 21.0338 11.8928 21.0897 11.652C21.2716 10.8536 21.1299 10.4809 20.952 10.2538C20.6817 9.90777 20.204 9.79678 19.7084 9.79678C19.4104 9.79678 18.7006 9.82623 18.1462 10.3374C17.748 10.7061 17.564 11.2065 17.453 11.6862C17.341 12.175 17.2122 13.0549 18.0213 13.3823C18.271 13.4895 18.6309 13.519 18.863 13.519ZM18.8167 11.7227C18.9533 11.1181 19.1147 10.6107 19.5264 10.6107C19.8491 10.6107 19.8725 10.9883 19.729 11.5948C19.7034 11.7295 19.5856 12.2301 19.4263 12.4433C19.315 12.6006 19.1834 12.696 19.0379 12.696C18.9946 12.696 18.7371 12.696 18.7331 12.3136C18.7311 12.1249 18.7696 11.9321 18.8167 11.7227ZM22.5713 13.4412L22.6177 13.3942C22.6833 13.0461 22.6942 12.9643 22.8396 12.2596C22.9124 11.9253 23.0629 11.1909 23.1336 10.9294C23.2675 10.8672 23.3971 10.8063 23.527 10.8063C23.8247 10.8063 23.7885 11.0678 23.7767 11.172C23.7658 11.3472 23.6566 11.9183 23.5426 12.4088L23.4719 12.7254C23.4178 12.9595 23.3589 13.1865 23.3068 13.4186L23.3294 13.4649C23.938 13.4324 24.1159 13.4324 24.6369 13.4412L24.6999 13.3942C24.7912 12.8503 24.8159 12.7048 24.987 11.9135L25.0686 11.5496C25.2317 10.8378 25.3142 10.4771 25.1934 10.1831C25.0598 9.85368 24.7462 9.77415 24.464 9.77415C24.277 9.77415 23.934 9.8192 23.6292 9.96971C23.5202 10.0268 23.411 10.0925 23.3038 10.1585L23.3971 9.7968L23.347 9.73564C22.6972 9.86753 22.5487 9.88515 21.9489 9.96971L21.9029 10.0032C21.8301 10.5813 21.771 11.0157 21.5125 12.1523C21.4141 12.5711 21.3119 12.994 21.2097 13.4118L21.2371 13.4649C21.8535 13.4324 22.0375 13.4324 22.5713 13.4412ZM27.0427 13.4648C27.0809 13.278 27.3082 12.1711 27.3102 12.1711C27.3102 12.1711 27.5038 11.3589 27.5156 11.3295C27.5156 11.3295 27.5765 11.2449 27.6374 11.2114H27.727C28.5724 11.2114 29.5271 11.2114 30.2754 10.661C30.7845 10.2834 31.1326 9.72595 31.2879 9.04841C31.3282 8.8823 31.3579 8.68473 31.3579 8.48715C31.3579 8.22766 31.3058 7.97094 31.1552 7.77035C30.7737 7.23652 30.0138 7.2267 29.1367 7.22268C29.134 7.22268 28.7043 7.2267 28.7043 7.2267C27.5815 7.24055 27.1313 7.23652 26.9463 7.21387C26.9307 7.29567 26.9012 7.44114 26.9012 7.44114C26.9012 7.44114 26.499 9.30513 26.499 9.30815C26.499 9.30815 25.5366 13.2712 25.4913 13.458C26.4716 13.4461 26.8736 13.4461 27.0427 13.4648ZM27.7879 10.1536C27.7879 10.1536 28.2155 8.29335 28.2135 8.3004L28.2274 8.20501L28.2334 8.13227L28.4043 8.14989C28.4043 8.14989 29.2862 8.22565 29.3069 8.22766C29.6549 8.36231 29.7984 8.70939 29.6982 9.16243C29.6069 9.57645 29.3383 9.92453 28.9933 10.0927C28.7091 10.2351 28.361 10.2469 28.0024 10.2469H27.7703L27.7879 10.1536ZM30.4504 11.7571C30.3374 12.2389 30.2075 13.1188 31.0126 13.4324C31.2694 13.5416 31.4994 13.5741 31.7332 13.5622C31.9801 13.5489 32.2089 13.4251 32.4208 13.2469C32.4017 13.3201 32.3826 13.3934 32.3634 13.4669L32.3999 13.5139C32.9791 13.4895 33.1588 13.4895 33.7862 13.4943L33.8431 13.451C33.9347 12.9124 34.0211 12.3894 34.2592 11.359C34.3752 10.8654 34.491 10.3766 34.61 9.88509L34.5914 9.83098C33.9435 9.95104 33.7704 9.97671 33.1472 10.0651L33.0999 10.1036C33.0936 10.1536 33.087 10.2017 33.081 10.2498C32.9841 10.0932 32.8437 9.95959 32.627 9.87629C32.3499 9.76731 31.699 9.90775 31.1395 10.4172C30.7464 10.7808 30.5576 11.2792 30.4504 11.7571ZM31.811 11.7866C31.9497 11.1929 32.109 10.6905 32.5218 10.6905C32.7828 10.6905 32.9202 10.9314 32.8922 11.3421C32.8701 11.4445 32.8462 11.5525 32.8177 11.6746C32.7765 11.851 32.7317 12.0259 32.6881 12.2011C32.6438 12.3209 32.5922 12.4339 32.5356 12.5092C32.4294 12.6597 32.1767 12.7531 32.0312 12.7531C31.9899 12.7531 31.7352 12.7531 31.7264 12.3776C31.7244 12.1905 31.7629 11.998 31.811 11.7866ZM38.9162 9.82618L38.8662 9.76904C38.2251 9.89891 38.1091 9.91955 37.5201 9.99908L37.4768 10.0424C37.4748 10.0494 37.4731 10.0602 37.47 10.0701L37.468 10.0602C37.0296 11.0718 37.0424 10.8536 36.6855 11.6499C36.6835 11.6137 36.6835 11.591 36.6815 11.5525L36.5922 9.82618L36.536 9.76904C35.8645 9.89891 35.8487 9.91955 35.2285 9.99908L35.1802 10.0424C35.1734 10.063 35.1734 10.0857 35.1694 10.1103L35.1734 10.1191C35.2509 10.5153 35.2323 10.427 35.3101 11.0521C35.3463 11.3589 35.3946 11.6675 35.4309 11.9705C35.492 12.4777 35.5263 12.7274 35.601 13.5013C35.1822 14.1924 35.083 14.4539 34.6798 15.0605L34.6826 15.0665L34.3987 15.5156C34.3662 15.5629 34.3368 15.5953 34.2955 15.6092C34.2502 15.6316 34.1913 15.6356 34.1095 15.6356H33.9522L33.7184 16.4133L34.5205 16.4272C34.9914 16.4252 35.2874 16.2049 35.4467 15.9089L35.9511 15.0447H35.9431L35.9962 14.9837C36.3354 14.2533 38.9162 9.82618 38.9162 9.82618ZM30.4503 20.0403H30.1101L31.3695 15.8746H31.7873L31.92 15.4455L31.9328 15.9227C31.9172 16.2176 32.1492 16.4791 32.7588 16.4359H33.4638L33.7064 15.6337H33.4411C33.2886 15.6337 33.2179 15.5952 33.2267 15.5127L33.2139 15.0272H31.9084V15.0297C31.4863 15.0385 30.2258 15.0702 29.9706 15.1382C29.6618 15.2177 29.3364 15.4518 29.3364 15.4518L29.4642 15.0221H28.2431L27.9886 15.8746L26.7123 20.1039H26.4646L26.2218 20.9003H28.6541L28.5725 21.1658H29.771L29.8506 20.9003H30.1868L30.4503 20.0403ZM29.4524 16.721C29.2568 16.7751 28.8929 16.9392 28.8929 16.9392L29.2166 15.8746H30.1868L29.9528 16.6503C29.9528 16.6503 29.653 16.6679 29.4524 16.721ZM29.471 18.242C29.471 18.242 29.1662 18.2802 28.9656 18.3255C28.7681 18.3854 28.3976 18.5742 28.3976 18.5742L28.7318 17.4663H29.7071L29.471 18.242ZM28.9274 20.0501H27.9541L28.2363 19.1151H29.2065L28.9274 20.0501ZM31.2712 17.4663H32.6742L32.4726 18.1191H31.051L30.8376 18.8329H32.0814L31.1396 20.1591C31.0737 20.2565 31.0145 20.2909 30.9488 20.3184C30.8829 20.3518 30.7963 20.3911 30.6961 20.3911H30.3511L30.114 21.1728H31.0165C31.4857 21.1728 31.7628 20.9594 31.9674 20.6793L32.6132 19.7954L32.7519 20.6929C32.7814 20.861 32.9022 20.9594 32.984 20.9977C33.0743 21.043 33.1677 21.1207 33.2996 21.1323C33.441 21.1384 33.5432 21.1431 33.6112 21.1431H34.0547L34.3209 20.2683H34.146C34.0456 20.2683 33.8727 20.2514 33.8432 20.22C33.8138 20.1817 33.8138 20.1228 33.7979 20.0332L33.6572 19.1337H33.0811L33.3338 18.8329H34.7526L34.9708 18.1191H33.6572L33.8619 17.4663H35.1714L35.4143 16.6611H31.5101L31.2712 17.4663ZM19.4223 20.2319L19.7497 19.1426H21.0955L21.3414 18.3324H19.9944L20.2 17.6619H21.5163L21.7602 16.8774H18.4666L18.2278 17.6619H18.976L18.7765 18.3324H18.0262L17.7775 19.1564H18.5255L18.0891 20.5976C18.0302 20.7883 18.1168 20.8611 18.1717 20.9497C18.2278 21.036 18.2847 21.0931 18.4125 21.1256C18.5444 21.1551 18.6348 21.1727 18.7576 21.1727H20.2747L20.5451 20.2752L19.8726 20.3675C19.7427 20.3675 19.383 20.3519 19.4223 20.2319ZM19.5766 15.0172L19.2356 15.6336C19.1626 15.7683 19.0969 15.8518 19.0378 15.8903C18.9857 15.9228 18.8825 15.9364 18.733 15.9364H18.555L18.3172 16.7249H18.9082C19.1923 16.7249 19.4105 16.6207 19.5147 16.5686C19.6267 16.5087 19.6562 16.5429 19.7428 16.4594L19.9423 16.2865H21.7877L22.0326 15.4655H20.6818L20.9176 15.0172H19.5766ZM22.301 20.2477C22.2695 20.2024 22.2922 20.1226 22.3403 19.9565L22.8446 18.2871H24.6389C24.9004 18.2833 25.0892 18.2803 25.212 18.2715C25.3439 18.2576 25.4874 18.2105 25.6437 18.126C25.805 18.0374 25.8875 17.944 25.9573 17.8368C26.035 17.7298 26.1599 17.4958 26.2671 17.1348L26.9011 15.0222L25.0391 15.033C25.0391 15.033 24.4658 15.1176 24.2133 15.2109C23.9586 15.3151 23.5947 15.6061 23.5947 15.6061L23.7628 15.027H22.6126L21.0023 20.3675C20.9452 20.5749 20.9069 20.7254 20.8981 20.8158C20.8951 20.9132 21.0209 21.0096 21.1025 21.0823C21.1989 21.155 21.3413 21.1432 21.478 21.155C21.6217 21.1659 21.8261 21.1726 22.1082 21.1726H22.9921L23.2635 20.2565L22.4722 20.3313C22.3876 20.3313 22.3264 20.286 22.301 20.2477ZM23.1701 17.1595H25.0547L24.9349 17.535C24.918 17.5438 24.8778 17.5164 24.686 17.539H23.0541L23.1701 17.1595ZM23.5476 15.9001H25.4481L25.3114 16.3523C25.3114 16.3523 24.4157 16.3435 24.2722 16.37C23.641 16.4792 23.2723 16.8165 23.2723 16.8165L23.5476 15.9001ZM24.9771 18.7925C24.9615 18.8486 24.9368 18.8829 24.9023 18.9085C24.8641 18.9332 24.8022 18.942 24.7098 18.942H24.4412L24.4571 18.4847H23.3401L23.2948 20.7204C23.2931 20.8818 23.3087 20.9751 23.4267 21.0499C23.5447 21.1433 23.9084 21.1551 24.398 21.1551H25.0979L25.3506 20.3182L24.7413 20.3517L24.5387 20.3636C24.511 20.3517 24.4845 20.3409 24.4551 20.3115C24.4294 20.286 24.3861 20.3016 24.3932 20.1403L24.398 19.5672L25.037 19.5408C25.3821 19.5408 25.5295 19.4285 25.6554 19.3216C25.7754 19.2191 25.8147 19.1013 25.86 18.942L25.9672 18.4346H25.0891L24.9771 18.7925Z" fill="#FEFEFE"/>
</svg>
