<svg width="40" height="29" viewBox="0 0 40 29" fill="none" xmlns="http://www.w3.org/2000/svg">
<path d="M39.4436 24.7777C39.4436 26.8231 37.7852 28.4814 35.7399 28.4814H4.25839C2.21302 28.4814 0.554688 26.8231 0.554688 24.7777V4.40732C0.554688 2.36195 2.21302 0.703613 4.25839 0.703613H35.7399C37.7852 0.703613 39.4436 2.36195 39.4436 4.40732V24.7777Z" fill="#1565C0"/>
<path d="M11.8378 9.96284L9.40634 17.2147C9.40634 17.2147 8.78874 14.1471 8.72763 13.7619C7.34337 10.6036 5.30078 10.7795 5.30078 10.7795L7.70819 20.148V20.1462H10.635L14.6823 9.96284H11.8378ZM14.1554 20.148H16.8137L18.4212 9.96284H15.7295L14.1554 20.148ZM32.9693 9.96284H30.1721L25.811 20.148H28.4517L28.9962 18.6934H32.3258L32.6091 20.148H35.0286L32.9693 9.96284ZM29.7332 16.748L31.1804 12.899L31.9378 16.748H29.7332ZM22.1924 12.9314C22.1924 12.3702 22.6536 11.9527 23.9758 11.9527C24.835 11.9527 25.8193 12.5767 25.8193 12.5767L26.2508 10.4388C26.2508 10.4388 24.9934 9.96191 23.7591 9.96191C20.9637 9.96191 19.5221 11.299 19.5221 12.9915C19.5221 16.0527 23.2063 15.6332 23.2063 17.2054C23.2063 17.4749 22.9924 18.098 21.4582 18.098C19.9193 18.098 18.9036 17.5341 18.9036 17.5341L18.4452 19.586C18.4452 19.586 19.4295 20.1471 21.3313 20.1471C23.2378 20.1471 25.8823 18.7212 25.8823 16.673C25.8823 14.2091 22.1924 14.0314 22.1924 12.9314Z" fill="white"/>
<path d="M9.08508 15.4672L8.19064 11.0709C8.19064 11.0709 7.78601 10.1182 6.73416 10.1182C5.68231 10.1182 2.62305 10.1182 2.62305 10.1182C2.62305 10.1182 7.86471 11.6663 9.08508 15.4672Z" fill="#FFC107"/>
</svg>
