<svg width="1920" height="680" viewBox="0 0 1920 680" fill="none" xmlns="http://www.w3.org/2000/svg">
<path d="M1919.03 1.43475L1918.98 0.721191L960.007 40.5339L1.01941 0.721191L0.965761 1.43475L0 1.52272L111.103 679.482L112.069 679.394L112.578 680L113.987 679.384H1806.03L1807.44 680L1807.95 679.394L1808.91 679.482L1920 1.51295L1919.03 1.42498V1.43475ZM1761.04 8.70718L1749.56 92.1642L1626.89 89.5348L1635.68 13.9074L1761.04 8.70718ZM961.013 275.392V244.543L982.581 251.571L982.38 283.613L961.013 275.392ZM982.38 285.216L982.193 315.205L961.026 305.89V276.995L982.38 285.216ZM961.013 242.979V211.72L982.81 217.526L982.608 250.017L961.026 242.979H961.013ZM961.013 210.204V178.534L983.024 183.07L982.81 216.011L960.999 210.204H961.013ZM961.013 177.048V144.968L983.252 148.193L983.038 181.584L961.013 177.048ZM961.013 143.511V111.02L983.48 112.897L983.266 146.737L961.013 143.501V143.511ZM961.013 109.593V76.7005L983.708 77.1893L983.494 111.479L961.013 109.602V109.593ZM1036.06 268.99L1035.51 304.042L1009.72 294.121L1010.08 260.525L1036.06 268.99ZM1010.09 258.971L1010.47 224.886L1036.65 231.856L1036.09 267.436L1010.11 258.971H1010.09ZM1035.47 305.636L1034.95 338.42L1009.34 327.15L1009.68 295.714L1035.46 305.636H1035.47ZM1101.38 329.379L1102.44 290.612L1137.98 302.185L1136.59 342.917L1101.38 329.379ZM1136.54 344.51L1135.25 382.553L1100.36 367.197L1101.36 330.972L1136.55 344.51H1136.54ZM1102.48 289.067L1103.56 249.675L1139.44 259.225L1138.03 300.65L1102.48 289.067ZM1138.46 345.253L1177.88 360.413L1176.22 400.578L1137.17 383.394L1138.47 345.253H1138.46ZM1138.51 343.669L1139.91 302.82L1179.73 315.801L1177.95 358.84L1138.51 343.669ZM1228.49 331.685L1279.46 348.293L1276.56 396.776L1226.19 377.402L1228.47 331.685H1228.49ZM1224.29 376.659L1179.86 359.573L1181.66 316.427L1226.57 331.06L1224.29 376.659ZM1345.53 312.595L1349.36 258.57L1418.65 272.851L1413.82 330.776L1345.55 312.595H1345.53ZM1413.69 332.262L1408.95 388.926L1341.68 367.011L1345.43 314.091L1413.69 332.272V332.262ZM1349.45 257.114L1353.35 201.955L1423.71 212.169L1418.76 271.395L1349.45 257.114ZM1347.52 256.713L1287.6 244.367L1290.67 192.854L1351.41 201.681L1347.52 256.723V256.713ZM1347.41 258.169L1343.6 312.087L1284.5 296.35L1287.52 245.824L1347.42 258.169H1347.41ZM1343.49 313.573L1339.77 366.386L1281.46 347.384L1284.41 297.835L1343.49 313.573ZM1279.54 346.758L1228.56 330.141L1230.89 283.574L1282.49 297.317L1279.54 346.748V346.758ZM1281.36 348.909L1339.66 367.901L1336 419.629L1278.45 397.499L1281.35 348.909H1281.36ZM1341.56 368.526L1408.82 390.442L1404.19 445.865L1337.9 420.362L1341.56 368.526ZM1410.71 391.057L1489.07 416.589L1483.19 476.254L1406.07 446.588L1410.71 391.057ZM1410.83 389.542L1415.56 332.77L1495.23 353.982L1489.22 415.084L1410.83 389.542ZM1415.69 331.285L1420.53 273.242L1501.52 289.937L1495.36 352.506L1415.69 331.285ZM1420.65 271.786L1425.6 212.443L1507.97 224.407L1501.66 288.491L1420.65 271.795V271.786ZM1425.72 211.006L1430.79 150.324L1514.57 157.333L1508.1 222.97L1425.72 211.006ZM1423.79 210.722L1353.42 200.498L1357.4 144.176L1428.84 150.158L1423.79 210.722ZM1351.48 200.224L1290.73 191.398L1293.87 138.868L1355.46 144.019L1351.49 200.224H1351.48ZM1288.78 191.114L1235.85 183.422L1238.31 134.215L1291.91 138.702L1288.78 191.114ZM1288.7 192.551L1285.63 243.957L1233.36 233.185L1235.77 184.868L1288.69 192.551H1288.7ZM1285.55 245.413L1282.54 295.822L1230.92 282.078L1233.29 234.651L1285.55 245.423V245.413ZM1229 281.56L1183.57 269.459L1185.42 224.769L1231.36 234.241L1229 281.56ZM1228.92 283.056L1226.6 329.506L1181.68 314.873L1183.5 270.964L1228.92 283.056ZM1181.62 268.951L1141.37 258.228L1142.8 215.991L1183.47 224.378L1181.62 268.951ZM1181.56 270.446L1179.73 314.247L1139.89 301.266L1141.3 259.733L1181.56 270.446ZM1179.74 361.137L1224.16 378.223L1222.02 420.753L1178.07 401.409L1179.74 361.137ZM1226.06 378.956L1276.41 398.33L1273.72 443.509L1223.93 421.594L1226.06 378.956ZM1278.32 399.063L1335.84 421.193L1332.43 469.344L1275.61 444.34L1278.31 399.063H1278.32ZM1337.74 421.916L1404.02 447.409L1399.71 498.942L1334.33 470.174L1337.74 421.916ZM1405.91 448.132L1483.01 477.789L1477.56 533.192L1401.6 499.772L1405.91 448.142V448.132ZM1484.9 478.512L1575.63 513.408L1568.68 573.279L1479.44 534.013L1484.9 478.512ZM1485.05 476.958L1490.93 417.185L1583.31 447.282L1575.81 511.874L1485.06 476.968L1485.05 476.958ZM1491.08 415.67L1497.1 354.461L1591.19 379.513L1583.49 445.777L1491.08 415.67ZM1497.25 352.985L1503.42 290.309L1599.25 310.064L1591.35 378.047L1497.25 352.985ZM1503.57 288.852L1509.89 224.661L1607.52 238.845L1599.42 308.617L1503.57 288.862V288.852ZM1510.02 223.224L1516.49 157.47L1616 165.798L1607.68 237.408L1510.02 223.224ZM1516.63 156.052L1523.26 88.6942L1624.71 90.8642L1616.16 164.38L1516.62 156.052H1516.63ZM1514.69 155.886L1430.88 148.877L1436.06 86.8272L1521.3 88.6551L1514.69 155.896V155.886ZM1428.95 148.711L1357.48 142.729L1361.55 85.2241L1434.12 86.7783L1428.95 148.711ZM1355.54 142.573L1293.93 137.421L1297.12 83.8557L1359.59 85.1948L1355.54 142.573ZM1291.99 137.255L1238.37 132.769L1240.88 82.6534L1295.18 83.8166L1291.99 137.255ZM1236.43 132.602L1189.39 128.663L1191.35 81.5879L1238.92 82.6045L1236.43 132.602ZM1236.36 134.03L1233.91 183.119L1187.42 176.364L1189.33 130.09L1236.36 134.03ZM1233.84 184.555L1231.43 232.755L1185.47 223.283L1187.36 177.811L1233.84 184.565V184.555ZM1185.49 176.081L1144.36 170.108L1145.85 126.454L1187.4 129.934L1185.49 176.09V176.081ZM1185.43 177.518L1183.55 222.873L1142.87 214.486L1144.33 171.545L1185.45 177.518H1185.43ZM1142.43 169.825L1105.84 164.507L1106.96 123.189L1143.9 126.278L1142.43 169.815V169.825ZM1142.37 171.271L1140.91 214.095L1104.68 206.627L1105.8 165.954L1142.37 171.271ZM1140.87 215.571L1139.44 257.69L1103.56 248.131L1104.64 208.103L1140.87 215.571ZM1102.75 206.236L1070.3 199.55L1071.12 160.93L1103.86 165.68L1102.75 206.236ZM1102.71 207.702L1101.62 247.613L1069.46 239.05L1070.26 201.016L1102.71 207.702ZM1101.58 249.118L1100.51 288.403L1068.64 278.022L1069.43 240.565L1101.58 249.128V249.118ZM1100.47 289.947L1099.41 328.597L1067.81 316.446L1068.59 279.566L1100.46 289.947H1100.47ZM1099.37 330.19L1098.38 366.308L1067.05 352.515L1067.78 318.03L1099.37 330.18V330.19ZM1067.53 238.532L1038.57 230.819L1039.15 194.594L1068.33 200.615L1067.53 238.532ZM1067.5 240.037L1066.71 277.377L1037.99 268.022L1038.56 232.325L1067.5 240.037ZM1066.67 278.931L1065.89 315.704L1037.4 304.746L1037.95 269.576L1066.67 278.931ZM1065.85 317.297L1065.13 351.675L1036.87 339.231L1037.39 306.339L1065.86 317.297H1065.85ZM1570.56 574.09L1577.52 514.122L1685.74 555.753L1676.78 620.843L1570.54 574.1L1570.56 574.09ZM1577.7 512.577L1585.22 447.878L1695.64 483.849L1685.95 554.208L1577.7 512.568V512.577ZM1585.39 446.383L1593.1 380.012L1705.79 410.02L1695.84 482.364L1585.39 446.383ZM1593.28 378.546L1601.19 310.445L1716.24 334.158L1706 408.564L1593.29 378.546H1593.28ZM1601.35 309.008L1609.47 239.128L1726.96 256.195L1716.43 332.731L1601.35 309.018V309.008ZM1609.64 237.701L1617.97 165.974L1737.98 176.012L1727.14 254.768L1609.63 237.701H1609.64ZM1618.13 164.556L1626.69 90.9228L1749.33 93.5522L1738.18 174.605L1618.13 164.556ZM1633.67 13.9562L1624.89 89.4566L1523.42 87.2866L1530.22 18.2474L1633.68 13.9562H1633.67ZM1528.25 18.3353L1521.46 87.2475L1436.19 85.4196L1441.49 21.9325L1528.24 18.3353H1528.25ZM1439.55 22.0204L1434.26 85.3805L1361.68 83.8263L1365.84 25.0799L1439.56 22.0204H1439.55ZM1363.87 25.1581L1359.72 83.7872L1297.25 82.4481L1300.5 27.7875L1363.87 25.1581ZM1298.55 27.8657L1295.29 82.3992L1240.98 81.236L1243.52 30.153L1298.53 27.8657H1298.55ZM1241.58 30.2312L1239.03 81.1969L1191.44 80.1804L1193.43 32.2351L1241.58 30.2312ZM1149.01 34.0727L1191.48 32.3133L1189.5 80.1413L1147.49 79.242L1149.03 34.0825L1149.01 34.0727ZM1189.43 81.5586L1187.48 128.517L1145.92 125.037L1147.43 80.6593L1189.43 81.5586ZM1109.36 35.7247L1147.06 34.1607L1145.53 79.2029L1108.2 78.4013L1109.36 35.7247ZM1145.47 80.6202L1143.97 124.88L1107.02 121.792L1108.16 79.8285L1145.47 80.63V80.6202ZM1073.75 37.2007L1107.41 35.8029L1106.24 78.3525L1072.89 77.6389L1073.75 37.2007ZM1072.87 79.066L1106.21 79.7796L1105.07 121.625L1072.02 118.859L1072.87 79.066ZM1105.03 123.053L1103.91 164.253L1071.16 159.493L1071.99 120.286L1105.03 123.053ZM1041.61 38.5398L1071.81 37.2886L1070.95 77.6096L1041 76.9644L1041.6 38.5398H1041.61ZM1040.98 78.3818L1070.92 79.0269L1070.08 118.693L1040.38 116.21L1040.98 78.3818ZM1040.37 117.637L1070.05 120.12L1069.22 159.209L1039.78 154.928L1040.37 117.637ZM1069.19 160.646L1068.37 199.149L1039.17 193.128L1039.75 156.365L1069.19 160.637V160.646ZM1012.44 39.7421L1039.67 38.6082L1039.07 76.9058L1012.05 76.3291L1012.45 39.7421H1012.44ZM1012.02 77.7562L1039.04 78.3329L1038.45 116.034L1011.65 113.796L1012.04 77.7562H1012.02ZM1011.62 115.223L1038.42 117.461L1037.83 154.635L1011.23 150.774L1011.62 115.223ZM1011.22 152.22L1037.8 156.081L1037.23 192.727L1010.84 187.292L1011.22 152.23V152.22ZM1037.2 194.193L1036.62 230.301L1010.44 223.332L1010.82 188.759L1037.2 194.193ZM985.841 40.8369L1010.48 39.8105L1010.08 76.2802L985.613 75.7524L985.841 40.8271V40.8369ZM985.613 77.1795L1010.08 77.7073L1009.69 113.63L985.398 111.596L985.613 77.1893V77.1795ZM985.385 113.024L1009.66 115.057L1009.27 150.49L985.157 146.991L985.371 113.033L985.385 113.024ZM985.157 148.438L1009.26 151.937L1008.89 186.882L984.942 181.946L985.157 148.438ZM984.929 183.422L1008.86 188.358L1008.48 222.814L984.714 216.48L984.929 183.422ZM984.714 217.995L1008.48 224.319L1008.12 258.287L984.513 250.594L984.714 217.985V217.995ZM984.5 252.158L1008.09 259.841L1007.73 293.319L984.298 284.307L984.5 252.148V252.158ZM984.285 285.92L1007.72 294.932L1007.38 326.26L984.097 316.016L984.285 285.92ZM983.883 40.9249L983.668 75.7231L960.959 75.2343V41.873L983.883 40.9249ZM854.041 315.704L853.263 278.931L881.981 269.576L882.531 304.746L854.041 315.704ZM882.558 306.349L883.081 339.241L854.819 351.685L854.095 317.307L882.572 306.349H882.558ZM853.237 277.386L852.445 240.047L881.391 232.335L881.955 268.032L853.237 277.386ZM852.888 352.525L821.554 366.308L820.562 330.19L852.15 318.04L852.888 352.525ZM852.418 238.532L851.614 200.615L880.801 194.594L881.378 230.819L852.418 238.532ZM852.123 316.446L820.535 328.597L819.475 289.947L851.345 279.566L852.123 316.446ZM638.516 347.345L580.208 366.347L576.479 313.534L635.565 297.796L638.516 347.345ZM637.483 297.288L689.097 283.545L691.431 330.112L640.447 346.729L637.496 297.298L637.483 297.288ZM574.547 314.042L578.29 366.963L511.022 388.878L506.287 332.213L574.547 314.032V314.042ZM506.166 330.737L501.337 272.812L570.631 258.531L574.453 312.556L506.18 330.737H506.166ZM576.358 312.048L572.549 258.13L632.453 245.785L635.471 296.31L576.372 312.048H576.358ZM572.441 256.674L568.552 201.632L629.287 192.805L632.359 244.318L572.441 256.664V256.674ZM570.51 257.074L501.203 271.355L496.254 212.13L566.607 201.915L570.51 257.074ZM499.285 271.756L418.268 288.452L411.964 224.368L494.336 212.404L499.285 271.746V271.756ZM499.406 273.213L504.248 331.255L424.573 352.476L418.416 289.908L499.406 273.213ZM504.369 332.741L509.104 389.513L430.729 415.054L424.72 353.952L504.382 332.741H504.369ZM509.238 391.028L513.879 446.559L436.752 476.225L430.877 416.55L509.238 391.018V391.028ZM511.143 390.412L578.397 368.497L582.059 420.333L515.77 445.835L511.143 390.412ZM580.302 367.881L638.596 348.889L641.493 397.479L583.95 419.609L580.288 367.881H580.302ZM640.514 348.263L691.485 331.656L693.765 377.373L643.398 396.746L640.501 348.263H640.514ZM693.403 331.03L738.311 316.398L740.108 359.543L695.683 376.63L693.403 331.03ZM738.351 270.437L778.605 259.723L780.013 301.256L740.175 314.237L738.351 270.437ZM738.284 268.941L736.433 224.368L777.102 215.981L778.538 258.218L738.284 268.941ZM738.244 314.863L693.323 329.496L691.002 283.046L736.42 270.955L738.244 314.863ZM690.922 281.551L688.561 234.231L734.502 224.759L736.353 269.449L690.922 281.551ZM688.99 282.059L637.362 295.802L634.358 245.394L686.616 234.622L688.99 282.049V282.059ZM634.277 243.937L631.205 192.532L684.121 184.849L686.535 233.165L634.264 243.937H634.277ZM631.125 191.095L628 138.682L681.599 134.196L684.054 183.402L631.125 191.095ZM629.193 191.378L568.444 200.205L564.474 144L626.068 138.849L629.207 191.378H629.193ZM566.513 200.479L496.146 210.703L491.09 150.138L562.529 144.156L566.513 200.479ZM494.215 210.977L411.83 222.941L405.365 157.303L489.145 150.295L494.215 210.977ZM409.899 223.224L312.236 237.408L303.92 165.798L403.433 157.47L409.899 223.224ZM410.033 224.652L416.35 288.843L320.499 308.597L312.397 238.825L410.033 224.642V224.652ZM416.498 290.299L422.668 352.975L328.573 378.037L320.673 310.054L416.498 290.299ZM422.816 354.451L428.838 415.66L336.434 445.767L328.734 379.504L422.816 354.451ZM428.986 417.166L434.874 476.948L344.119 511.854L336.621 447.262L428.999 417.166H428.986ZM435.022 478.493L440.481 533.994L351.242 573.259L344.294 513.389L435.022 478.493ZM436.913 477.769L514.013 448.113L518.319 499.743L442.359 533.163L436.913 477.76V477.769ZM515.904 447.38L582.166 421.887L585.573 470.145L520.197 498.912L515.891 447.38H515.904ZM584.071 421.154L641.587 399.024L644.283 444.301L587.464 469.304L584.057 421.154H584.071ZM643.505 398.291L693.859 378.917L695.992 421.555L646.202 443.47L643.505 398.291ZM695.777 378.184L740.189 361.098L741.866 401.37L697.91 420.714L695.777 378.184ZM740.256 315.743L780.08 302.762L781.475 343.611L742.04 358.781L740.256 315.743ZM780.55 259.176L816.43 249.626L817.503 289.018L781.958 300.602L780.55 259.176ZM781.529 345.204L782.83 383.345L743.784 400.529L742.12 360.365L781.542 345.204H781.529ZM782.012 302.146L817.544 290.573L818.603 329.339L783.393 342.877L782.012 302.146ZM818.644 330.933L819.636 367.158L784.748 382.514L783.46 344.471L818.657 330.933H818.644ZM819.435 288.403L818.362 249.118L850.514 240.555L851.305 278.012L819.435 288.393V288.403ZM818.322 247.613L817.235 207.702L849.669 201.016L850.473 239.05L818.308 247.613H818.322ZM817.195 206.226L816.082 165.671L848.81 160.92L849.628 199.54L817.181 206.226H817.195ZM816.39 248.131L780.509 257.69L779.074 215.571L815.304 208.103L816.39 248.131ZM779.021 214.095L777.558 171.271L814.137 165.954L815.25 206.627L779.007 214.095H779.021ZM777.518 169.825L776.043 126.288L812.983 123.199L814.11 164.517L777.518 169.835V169.825ZM777.089 214.496L736.406 222.882L734.528 177.527L775.64 171.555L777.102 214.496H777.089ZM734.461 176.081L732.543 129.924L774.098 126.444L775.587 170.099L734.475 176.071L734.461 176.081ZM732.583 177.801L734.475 223.273L688.521 232.745L686.106 184.546L732.583 177.791V177.801ZM686.039 183.109L683.585 134.02L730.612 130.081L732.53 176.354L686.039 183.109ZM683.517 132.593L681.023 82.5947L728.6 81.5781L730.558 128.653L683.517 132.593ZM681.573 132.759L627.959 137.245L624.767 83.8068L679.064 82.6436L681.573 132.759ZM626.014 137.412L564.407 142.563L560.356 85.185L622.822 83.8459L626.014 137.412ZM562.462 142.729L490.996 148.711L485.832 86.7881L558.398 85.2339L562.462 142.739V142.729ZM489.064 148.868L405.258 155.876L398.645 88.6355L483.887 86.8076L489.064 148.858V148.868ZM403.326 156.042L303.786 164.37L295.241 90.8544L396.686 88.6844L403.313 156.042H403.326ZM301.854 164.537L181.805 174.585L170.658 93.5327L293.296 90.9033L301.854 164.537ZM302.015 165.954L310.345 237.681L192.83 254.748L181.992 175.993L302.002 165.954H302.015ZM310.519 239.108L318.634 308.988L203.561 332.702L193.032 256.165L310.519 239.099V239.108ZM318.808 310.435L326.722 378.536L214.01 408.554L203.776 334.149L318.822 310.435H318.808ZM326.883 380.002L334.596 446.373L224.15 482.354L214.198 410.011L326.883 380.002ZM334.77 447.868L342.282 512.568L234.036 554.208L224.352 483.849L334.77 447.878V447.868ZM342.47 514.102L349.431 574.07L243.197 620.813L234.237 555.723L342.456 514.092L342.47 514.102ZM884.543 303.984L883.993 268.931L909.975 260.466L910.337 294.062L884.543 303.984ZM910.351 295.665L910.686 327.101L885.08 338.371L884.557 305.587L910.337 295.665H910.351ZM883.967 267.377L883.403 231.797L909.586 224.827L909.962 258.912L883.98 267.377H883.967ZM937.861 315.137L937.674 285.148L959.095 276.908V305.792L937.861 315.137ZM959.095 275.295L937.66 283.545L937.459 251.503L959.095 244.455V275.304V275.295ZM959.095 242.891L937.446 249.949L937.244 217.457L959.095 211.641V242.901V242.891ZM937.231 215.942L937.016 183.001L959.081 178.456V210.126L937.218 215.952L937.231 215.942ZM937.016 181.525L936.802 148.135L959.095 144.899V176.98L937.016 181.535V181.525ZM959.095 143.443L936.802 146.678L936.587 112.838L959.095 110.951V143.443ZM936.574 111.411L936.359 77.1208L959.095 76.6321V109.524L936.574 111.411ZM959.068 41.8535V41.9316H959.081V75.2148L936.346 75.7035L936.131 40.9053L959.081 41.8535H959.068ZM935.916 315.997L912.631 326.241L912.296 294.913L935.729 285.9L935.916 315.997ZM935.715 284.297L912.282 293.31L911.92 259.831L935.514 252.148L935.715 284.307V284.297ZM935.501 250.584L911.893 258.277L911.518 224.309L935.286 217.985L935.487 250.594L935.501 250.584ZM935.286 216.46L911.518 222.794L911.142 188.338L935.085 183.402L935.299 216.46H935.286ZM935.071 181.926L911.129 186.862L910.753 151.917L934.857 148.418L935.071 181.926ZM934.843 146.962L910.726 150.461L910.337 115.027L934.629 112.994L934.843 146.952V146.962ZM934.615 111.567L910.324 113.6L909.935 77.678L934.401 77.1502L934.615 111.557V111.567ZM934.173 40.8173L934.401 75.7426L909.935 76.2704L909.532 39.8007L934.173 40.8271V40.8173ZM909.573 223.312L883.39 230.282L882.813 194.174L909.197 188.739L909.573 223.312ZM909.184 187.263L882.8 192.698L882.223 156.062L908.808 152.201L909.184 187.263ZM908.781 150.754L882.183 154.615L881.592 117.442L908.392 115.203L908.781 150.754ZM908.379 113.776L881.579 116.015L880.989 78.3134L908.003 77.7367L908.392 113.776H908.379ZM907.574 39.7226L907.976 76.3095L880.962 76.8863L880.358 38.5887L907.587 39.7226H907.574ZM880.841 193.108L851.64 199.13L850.822 160.627L880.264 156.355L880.841 193.118V193.108ZM880.238 154.899L850.795 159.18L849.964 120.091L879.647 117.608L880.238 154.899ZM879.621 116.181L849.923 118.664L849.078 78.9976L879.017 78.3525L879.621 116.181ZM878.387 38.5105L878.99 76.9351L849.038 77.5803L848.18 37.2593L878.373 38.5105H878.387ZM848.837 159.464L816.095 164.224L814.968 123.023L848.005 120.257L848.837 159.464ZM847.979 118.83L814.941 121.596L813.801 79.7503L847.147 79.0367L847.992 118.83H847.979ZM846.248 37.1713L847.107 77.6096L813.761 78.3231L812.594 35.7735L846.248 37.1713ZM812.997 121.752L776.043 124.841L774.54 80.5811L811.856 79.7796L812.997 121.743V121.752ZM810.649 35.6953L811.816 78.372L774.487 79.1736L772.958 34.1314L810.649 35.6953ZM774.098 125.007L732.543 128.487L730.598 81.5293L772.596 80.63L774.111 125.007H774.098ZM770.999 34.0434L772.542 79.2029L730.531 80.1021L728.546 32.2742L771.013 34.0336L770.999 34.0434ZM726.588 32.196L728.573 80.1413L680.982 81.1578L678.434 30.1921L726.588 32.196ZM676.475 30.1139L679.024 81.1969L624.713 82.3601L621.454 27.8266L676.462 30.1139H676.475ZM619.509 27.7484L622.768 82.409L560.289 83.7481L556.144 25.119L619.509 27.7484ZM554.186 25.0408L558.344 83.7872L485.764 85.3414L480.48 21.9813L554.199 25.0408H554.186ZM478.508 21.9031L483.806 85.3903L398.537 87.2182L391.75 18.306L478.494 21.9031H478.508ZM389.792 18.218L396.593 87.2573L295.121 89.4273L286.348 13.9269L389.805 18.218H389.792ZM284.376 13.8389L293.162 89.4664L170.497 92.0958L159.015 8.63876L284.376 13.8389ZM2.07907 2.18741L156.99 8.61921L168.485 92.2033L17.3569 95.4388L2.07907 2.18741ZM17.5983 96.8561L168.686 93.6207L179.86 174.8L32.3932 187.136L17.5983 96.8561ZM32.6213 188.553L180.047 176.218L190.899 255.09L46.9601 275.998L32.6347 188.553H32.6213ZM47.1882 277.406L191.1 256.508L201.643 333.161L61.071 362.134L47.1882 277.406ZM61.3124 363.561L201.844 334.598L212.092 409.111L74.766 445.679L61.3124 363.561ZM75.0074 447.125L212.293 410.568L222.259 483.018L88.0586 526.741L75.0074 447.125ZM88.3001 528.227L222.474 484.514L232.172 554.98L100.962 605.448L88.3001 528.227ZM101.204 606.963L232.373 556.505L241.346 621.693L112.887 678.221L101.204 606.963ZM1807.15 678.221L1678.69 621.693L1687.67 556.505L1818.84 606.963L1807.15 678.221ZM1819.08 605.448L1687.87 554.98L1697.57 484.514L1831.74 528.227L1819.08 605.448ZM1831.98 526.741L1697.78 483.018L1707.75 410.568L1845.03 447.125L1831.98 526.741ZM1845.27 445.669L1707.95 409.102L1718.2 334.588L1858.73 363.551L1845.27 445.669ZM1858.97 362.124L1718.4 333.152L1728.94 256.498L1872.85 277.396L1858.97 362.114V362.124ZM1873.08 275.989L1729.14 255.08L1739.99 176.208L1887.42 188.544L1873.09 275.989H1873.08ZM1887.65 187.136L1740.18 174.8L1751.35 93.6207L1902.44 96.8561L1887.65 187.136ZM1902.67 95.4388L1751.54 92.2033L1763.04 8.61921L1917.95 2.18741L1902.67 95.4388Z" fill="url(#paint0_radial_318_11011)"/>
<defs>
<radialGradient id="paint0_radial_318_11011" cx="0" cy="0" r="1" gradientUnits="userSpaceOnUse" gradientTransform="translate(1057.9 382.328) scale(862.101 315.328)">
<stop stop-color="#1A1FBB"/>
<stop offset="1" stop-color="#263ED2"/>
</radialGradient>
</defs>
</svg>
