<?xml version="1.0" encoding="utf-8"?>
<!-- Generator: Adobe Illustrator 27.6.1, SVG Export Plug-In . SVG Version: 6.00 Build 0)  -->
<svg version="1.1" id="Layer_1" xmlns="http://www.w3.org/2000/svg" xmlns:xlink="http://www.w3.org/1999/xlink" x="0px" y="0px"
	 viewBox="0 0 901 628" style="enable-background:new 0 0 901 628;" xml:space="preserve">
<style type="text/css">
	.st0{fill-rule:evenodd;clip-rule:evenodd;fill:url(#SVGID_1_);}
	.st1{fill:url(#SVGID_00000114782860293335912730000005681757385387871894_);}
	.st2{fill:none;stroke:#24B8D1;stroke-width:3;stroke-miterlimit:10;}
	.st3{fill:none;stroke:#2F4AEE;}
	.st4{opacity:0.2;enable-background:new    ;}
	.st5{fill:#EA68A5;}
	.st6{fill:#FF89C3;}
	.st7{fill:#FFA4F8;stroke:#000000;stroke-width:2.2998;stroke-miterlimit:10;}
	.st8{fill:#04181F;}
	.st9{fill:#FFCC3A;stroke:#000000;stroke-width:2.3;}
	.st10{fill:#FDA72F;}
	.st11{fill:#FFE141;stroke:#000000;stroke-width:2.3;}
	.st12{fill:#30E9FF;}
	.st13{fill:#FFFFFF;filter:url(#Adobe_OpacityMaskFilter);}
	.st14{mask:url(#path-30-outside-1_515_9180_00000074431507539020902350000001240718035128197533_);}
	.st15{fill:#35F5FF;}
	.st16{fill:#2CBADD;stroke:#000000;stroke-width:2.2998;stroke-linejoin:round;}
</style>
<radialGradient id="SVGID_1_" cx="53.8924" cy="384.9872" r="1" gradientTransform="matrix(502.08 0 0 -192.839 -26546.2637 74671.75)" gradientUnits="userSpaceOnUse">
	<stop  offset="0" style="stop-color:#1A1FBB"/>
	<stop  offset="1" style="stop-color:#263ED2"/>
</radialGradient>
<path class="st0" d="M252.1,628L0,526.5v-1.4l53.7,21.6l60.7-20.6l-76-30.6L0,508.5v-1.4l36.4-12.4L0,480.1v-1.4l38.4,15.4L99,473.5
	l-76-30.6l-23,7.8v-1.4l21.1-7.2L0,433.6v-1.4l23,9.3l60.6-20.6l-76-30.6L0,392.9v-1.4l5.8-2L0,387.2v-1.4l7.7,3.1l60.7-20.6
	L0,340.7v-1.4l70.3,28.3L131,347l-76-30.6L0,335.1v-1.4l53.1-18L0,294.3v-1.4L55,315l60.7-20.6l-76-30.6L0,277.3v-1.4l37.7-12.8
	L0,247.9v-1.4l39.7,16l60.7-20.6l-76-30.6L0,219.5v-1.4L524.8,40l0.2,0.7l0.3-0.7L901,191.3v1.4l-64.4-25.9l-60.7,20.6l76,30.6
	l49-16.6v1.4l-47.1,16l47.1,19v1.4l-49.1-19.8L791.3,240l76,30.6l33.7-11.4v1.4l-31.8,10.8l31.8,12.8v1.4L867.2,272l-60.7,20.6
	l76,30.6L901,317v1.4l-16.5,5.6l16.5,6.7v1.4l-18.4-7.4l-60.7,20.6l76,30.6l3.1-1.1v1.4l-1.2,0.4l1.2,0.5v1.4l-3.1-1.3l-60.7,20.6
	l63.8,25.7v1.4l-65.7-26.5L774.6,419l76,30.6l50.4-17.1v1.4l-48.5,16.5l48.5,19.5v1.4l-50.4-20.3l-60.7,20.6l76,30.6l35.1-11.9v1.4
	L867.8,503l33.2,13.4v1.4l-35.1-14.1l-60.7,20.6l76,30.6l19.8-6.7v1.4l-17.9,6.1l17.9,7.2v1.4l-19.8-8l-60.7,20.6l76,30.6l4.4-1.5
	v1.4l-4.3,1.5l0,0.1l-0.1,0L840.2,628h-4.1l58.6-19.9l-76-30.6L758,598.1l74.2,29.9h-3.6L756,598.8l-60.7,20.6l21.5,8.7h-3.6
	l-19.9-8l-23.6,8h-4.1l25.8-8.8l-76-30.6l-60.7,20.6l46.7,18.8H598L553,609.9L499.5,628h-4.1l55.7-18.9l-76-30.6l-60.6,20.6
	l71.8,28.9h-3.6l-70.2-28.3l-60.7,20.6l19.1,7.7h-3.6l-17.5-7l-20.7,7H325l23-7.8l-76-30.6l-60.7,20.6l44.3,17.8H252.1z M131.6,578
	l-76-30.6l60.7-20.6l76,30.6L131.6,578z M209.5,609.4l-76-30.6l60.7-20.6l76,30.6L209.5,609.4z M349.9,619.5l60.7-20.6l-76-30.6
	l-60.7,20.6L349.9,619.5z M272,588.2l60.7-20.6l-76-30.6L196,557.6L272,588.2z M194.1,556.8l60.7-20.6l-76-30.6l-60.7,20.6
	L194.1,556.8z M116.2,525.4l60.7-20.6l-76-30.6l-60.7,20.6L116.2,525.4z M100.9,472.8l-76-30.6l60.6-20.6l76,30.6L100.9,472.8z
	 M178.8,504.2l-76-30.6l60.6-20.6l76,30.6L178.8,504.2z M256.7,535.6l-76-30.6l60.6-20.6l76,30.6L256.7,535.6z M334.6,566.9
	l-76-30.6l60.6-20.6l76,30.6L334.6,566.9z M412.5,598.3l-76-30.6l60.6-20.6l76,30.6L412.5,598.3z M553,608.4l60.7-20.6l-76-30.6
	L477,577.8L553,608.4z M475.1,577.1l60.7-20.6l-76-30.6l-60.7,20.6L475.1,577.1z M397.2,545.7l60.7-20.6l-76-30.6l-60.7,20.6
	L397.2,545.7z M319.3,514.3l60.7-20.6l-76-30.6l-60.7,20.6L319.3,514.3z M241.4,483l60.7-20.6l-76-30.6l-60.7,20.6L241.4,483z
	 M163.5,451.6l60.7-20.6l-76-30.6L87.5,421L163.5,451.6z M85.6,420.2l60.7-20.6l-76-30.6L9.6,389.6L85.6,420.2z M148.2,399l-76-30.6
	l60.7-20.6l76,30.6L148.2,399z M226.1,430.4l-76-30.6l60.7-20.6l76,30.6L226.1,430.4z M304,461.7l-76-30.6l60.7-20.6l76,30.6
	L304,461.7z M381.9,493.1l-76-30.6l60.7-20.6l76,30.6L381.9,493.1z M459.8,524.5l-76-30.6l60.7-20.6l76,30.6L459.8,524.5z
	 M537.7,555.8l-76-30.6l60.7-20.6l76,30.6L537.7,555.8z M615.6,587.2l-76-30.6l60.7-20.6l76,30.6L615.6,587.2z M693.5,618.6
	l-76-30.6l60.7-20.6l76,30.6L693.5,618.6z M756.1,597.3l60.7-20.6l-76-30.6l-60.7,20.6L756.1,597.3z M678.2,566l60.7-20.6l-76-30.6
	l-60.7,20.6L678.2,566z M600.3,534.6l60.7-20.6l-76-30.6L524.3,504L600.3,534.6z M522.4,503.2l60.7-20.6L507,452l-60.7,20.6
	L522.4,503.2z M444.5,471.9l60.7-20.6l-76-30.6l-60.7,20.6L444.5,471.9z M366.6,440.5l60.7-20.6l-76-30.6l-60.7,20.6L366.6,440.5z
	 M288.7,409.1l60.7-20.6l-76-30.6l-60.7,20.6L288.7,409.1z M210.8,377.8l60.7-20.6l-76-30.6l-60.7,20.6L210.8,377.8z M132.9,346.4
	l60.7-20.6l-76-30.6l-60.7,20.6L132.9,346.4z M117.6,293.8l-76-30.6l60.7-20.6l76,30.6L117.6,293.8z M195.5,325.2l-76-30.6
	l60.7-20.6l76,30.6L195.5,325.2z M273.4,356.5l-76-30.6l60.7-20.6l76,30.6L273.4,356.5z M351.3,387.9l-76-30.6l60.7-20.6l76,30.6
	L351.3,387.9z M429.2,419.3l-76-30.6l60.7-20.6l76,30.6L429.2,419.3z M507.1,450.6l-76-30.6l60.7-20.6l76,30.6L507.1,450.6z
	 M585,482l-76-30.6l60.7-20.6l76,30.6L585,482z M662.9,513.4l-76-30.6l60.7-20.6l76,30.6L662.9,513.4z M740.8,544.7l-76-30.6
	l60.7-20.6l76,30.6L740.8,544.7z M818.7,576.1l-76-30.6l60.7-20.6l76,30.6L818.7,576.1z M803.3,523.5l60.7-20.6l-76-30.6l-60.7,20.6
	L803.3,523.5z M725.4,492.1l60.7-20.6l-76-30.6l-60.7,20.6L725.4,492.1z M647.5,460.8l60.7-20.6l-76-30.6l-60.7,20.6L647.5,460.8z
	 M569.7,429.4l60.7-20.6l-76-30.6l-60.7,20.6L569.7,429.4z M491.7,398l60.7-20.6l-76-30.6l-60.7,20.6L491.7,398z M413.9,366.7
	l60.7-20.6l-76-30.6L337.8,336L413.9,366.7z M335.9,335.3l60.7-20.6l-76-30.6l-60.7,20.6L335.9,335.3z M258.1,303.9l60.7-20.6
	l-76-30.6L182,273.3L258.1,303.9z M180.1,272.5l60.7-20.6l-76-30.6l-60.7,20.6L180.1,272.5z M102.3,241.2l60.7-20.6l-76-30.6
	l-60.7,20.6L102.3,241.2z M164.9,219.9l-76-30.6l60.7-20.6l76,30.6L164.9,219.9z M242.7,251.3l-76-30.6l60.7-20.6l76,30.6
	L242.7,251.3z M320.7,282.7l-76-30.6l60.7-20.6l76,30.6L320.7,282.7z M398.5,314l-76-30.6l60.7-20.6l76,30.6L398.5,314z
	 M476.5,345.4l-76-30.6l60.7-20.6l76,30.6L476.5,345.4z M554.3,376.8l-76-30.6l60.7-20.6l76,30.6L554.3,376.8z M632.2,408.2
	l-76-30.6l60.7-20.6l76,30.6L632.2,408.2z M710.1,439.5l-76-30.6l60.7-20.6l76,30.6L710.1,439.5z M788,470.9l-76-30.6l60.7-20.6
	l76,30.6L788,470.9z M772.7,418.3l60.7-20.6l-76-30.6l-60.7,20.6L772.7,418.3z M694.8,386.9l60.7-20.6l-76-30.6l-60.7,20.6
	L694.8,386.9z M616.9,355.5l60.7-20.6l-76-30.6l-60.7,20.6L616.9,355.5z M539,324.2l60.7-20.6l-76-30.6L463,293.6L539,324.2z
	 M461.1,292.8l60.7-20.6l-76-30.6l-60.7,20.6L461.1,292.8z M383.2,261.4l60.7-20.6l-76-30.6l-60.7,20.6L383.2,261.4z M305.3,230.1
	l60.7-20.6l-76-30.6l-60.7,20.6L305.3,230.1z M227.4,198.7l60.7-20.6l-76-30.6l-60.7,20.6L227.4,198.7z M290,177.5l-76-30.6
	l60.7-20.6l76,30.6L290,177.5z M367.9,208.8l-76-30.6l60.7-20.6l76,30.6L367.9,208.8z M445.8,240.2l-76-30.6l60.7-20.6l76,30.6
	L445.8,240.2z M523.7,271.6l-76-30.6l60.7-20.6l76,30.6L523.7,271.6z M601.6,302.9l-76-30.6l60.7-20.6l76,30.6L601.6,302.9z
	 M679.5,334.3l-76-30.6l60.7-20.6l76,30.6L679.5,334.3z M757.4,365.7l-76-30.6l60.7-20.6l76,30.6L757.4,365.7z M835.3,397l-76-30.6
	l60.7-20.6l76,30.6L835.3,397z M820,344.4l60.7-20.6l-76-30.6L744,313.8L820,344.4z M742.1,313.1l60.7-20.6l-76-30.6l-60.7,20.6
	L742.1,313.1z M664.2,281.7l60.7-20.6l-76-30.6l-60.7,20.6L664.2,281.7z M586.3,250.3l60.7-20.6l-76-30.6l-60.7,20.6L586.3,250.3z
	 M508.4,219l60.7-20.6l-76-30.6l-60.7,20.6L508.4,219z M430.5,187.6l60.7-20.6l-76-30.6L354.5,157L430.5,187.6z M352.6,156.2
	l60.7-20.6l-76-30.6l-60.7,20.6L352.6,156.2z M415.2,135l-76-30.6l60.6-20.6l76,30.6L415.2,135z M493.1,166.4l-76-30.6l60.6-20.6
	l76,30.6L493.1,166.4z M571,197.7l-76-30.6l60.6-20.6l76,30.6L571,197.7z M648.9,229.1l-76-30.6l60.6-20.6l76,30.6L648.9,229.1z
	 M726.8,260.5l-76-30.6l60.7-20.6l76,30.6L726.8,260.5z M804.7,291.8l-76-30.6l60.7-20.6l76,30.6L804.7,291.8z M789.4,239.2
	l60.7-20.6L774,188l-60.7,20.6L789.4,239.2z M711.5,207.9l60.7-20.6l-76-30.6l-60.7,20.6L711.5,207.9z M633.6,176.5l60.7-20.6
	l-76-30.6l-60.7,20.6L633.6,176.5z M555.7,145.1l60.7-20.6l-76-30.6l-60.7,20.6L555.7,145.1z M477.8,113.8l60.7-20.6l-76-30.6
	l-60.7,20.6L477.8,113.8z M540.4,92.5l-76-30.6L525,41.3l76,30.6L540.4,92.5z M618.3,123.9l-76-30.6l60.7-20.6l76,30.6L618.3,123.9z
	 M696.2,155.3l-76-30.6l60.7-20.6l76,30.6L696.2,155.3z M774.1,186.6L698,156l60.7-20.6l76,30.6L774.1,186.6z"/>
<radialGradient id="SVGID_00000142862470991969653920000016630576625322617501_" cx="53.3813" cy="383.8746" r="1" gradientTransform="matrix(181.4701 340.9998 409.3931 -217.867 -166384.7344 65364.1094)" gradientUnits="userSpaceOnUse">
	<stop  offset="0" style="stop-color:#50DCFF"/>
	<stop  offset="1" style="stop-color:#263ED2"/>
</radialGradient>
<path style="fill:url(#SVGID_00000142862470991969653920000016630576625322617501_);" d="M445.4,316l412.6-0.4l-1.2-223.8
	c-17.1-2.7-135.6-12.6-241.9,34.5c-25.7,11.4-50,26-77.5,30.4c-13.9,2.2-27.9-3.2-41.2-8.8c-13.3-5.6-35.1-21.1-49.2-22.5
	c-0.1,0-0.2,0-0.3,0c-1.2-0.1-2.4-0.1-3.6-0.2c-0.2,0-0.4,0-0.6,0c-0.2,0-0.4,0-0.6,0c-1.2,0-2.4,0-3.6,0.1c0,0-0.2,0-0.3,0
	c-14,1.3-35.9,16.9-49.2,22.5c-13.3,5.6-27.3,11-41.2,8.8c-27.5-4.4-50.3-37.6-77.5-30.4c-23.2,6.1-34,38.1-54,53.4
	c-20.6,15.7-63.5,4.4-88.5,2.5C62.4,177.2,27,315.6,27,315.6l412.6,0.4h2.9H445.4z"/>
<path class="st2" d="M27,320c0,0,28.1-56.7,120.6-63.8c41.2-3.1,64.8,9.6,115.2,8.8c114.5-1.8,88.7-101.7,202.9-116.9
	c114.3-15.2,126.5,21.3,181.3,17.8C759.2,158.7,728.5,46,858,46"/>
<path class="st3" d="M515.9,23.2v251.3"/>
<path class="st3" d="M578.7,44.3v251.3"/>
<path class="st3" d="M641.5,65.3v251.3"/>
<path class="st3" d="M704.3,86.4v251.3"/>
<path class="st3" d="M757,115.5v251.3"/>
<path class="st3" d="M460.9,23.2v266.1"/>
<path class="st3" d="M398.1,45.5v266.1"/>
<path class="st3" d="M335.4,67.8v266.1"/>
<path class="st3" d="M272.6,90.1v266.1"/>
<path class="st3" d="M209.8,112.4v266.1"/>
<path class="st3" d="M147,134.7v266.1"/>
<path class="st4" d="M578.9,301.2l-67.6,53.2c-5.4,4.2-3.5,13.8,3.4,17.5l87.1,47.5c12.4,6.8,26.3,6.3,35.9-1.3l67.6-53.2
	c5.4-4.2,3.5-13.8-3.4-17.5l-87.1-47.5C602.4,293.1,588.5,293.6,578.9,301.2z"/>
<path class="st4" d="M456.6,442.1L398.3,499c-5.4,4.2-3.5,13.8,3.4,17.5l72.9,30.5c15.7,5.9,20.2,4.4,35.9-1.3l75.6-32.9
	c5.4-4.2,3.5-13.8-3.4-17.5l-90.3-54.5C480.1,434,466.2,434.5,456.6,442.1z"/>
<path class="st5" d="M581,258.6l-64.4-9.2l-7.4,92.7c0,0.2-0.1,0.4-0.1,0.6c0,1,0.5,2,1.6,2.5l108,52.5c4.2,2,9.1,1.7,12.9-0.7
	l6.7-99.4l1.9-27.8L581,258.6z"/>
<path class="st6" d="M714.5,240.3l-58.7,13.8l-21.1,12.2l-1.4,28.8l-5.1,103.5c1.8-0.5,3.5-1.3,5-2.6l72.8-59.5c1.2-1,1-3.8,1.2-4.7
	L714.5,240.3z"/>
<path class="st7" d="M517.6,246.4l75.2-60c4.1-3.2,9.6-3.8,14.3-1.6L712.9,237c1.8,0.9,2.1,3.3,0.5,4.6l-73.4,60
	c-4,3.3-9.7,4-14.4,1.7L518.2,251C516.3,250.1,516.1,247.6,517.6,246.4L517.6,246.4z"/>
<path class="st8" d="M601.2,184.5c2,0,4,0.5,5.9,1.4l105.8,52.2c0.9,0.4,1.4,1.3,1.5,2.2v0.1c0,0.3,0,0.5-0.1,0.8l-7.3,90.6
	c-0.2,2.4-0.6,4.2-1.9,5.2l-72.1,59c-0.5,0.4-1,0.7-1.5,1v0.1c-0.2,0.1-0.4,0.2-0.6,0.3c-0.2,0.1-0.3,0.2-0.5,0.3
	c-0.7,0.4-1.4,0.6-2.2,0.9c-0.1,0-0.1,0-0.2,0.1c-1.2,0.3-2.4,0.5-3.6,0.5c-2,0-4-0.4-5.8-1.3l-108-52.5c-1-0.5-1.6-1.5-1.6-2.5
	c0-0.2,0-0.4,0.1-0.6l7.4-92.7c0.1-0.7,0.4-1.4,1-1.9l75.2-60C595.2,185.5,598.2,184.5,601.2,184.5 M601.2,182
	c-3.6,0-7.1,1.2-9.9,3.5l-75.2,60c-1,0.8-1.7,2-1.9,3.3c0,0.2-0.1,0.3-0.1,0.4l-7.4,92.6c0,0.3-0.1,0.6-0.1,0.9c0,2.1,1.1,3.9,3,4.8
	L617.5,400c2.2,1.1,4.5,1.6,6.9,1.6c1.3,0,2.6-0.2,3.9-0.5c0.1,0,0.3-0.1,0.4-0.1c0.1,0,0.2-0.1,0.3-0.1c0.8-0.3,1.7-0.6,2.5-1
	c0.2-0.1,0.3-0.2,0.5-0.3l0.1-0.1l0.2-0.1c0.2-0.1,0.4-0.2,0.6-0.3c0.2-0.1,0.3-0.2,0.4-0.3c0.4-0.3,0.9-0.5,1.3-0.9l72.1-59
	c2.1-1.8,2.5-4.5,2.8-6.9l7.3-90.5c0.1-0.4,0.1-0.9,0.1-1.3c0-0.1,0-0.2,0-0.3c-0.2-1.8-1.3-3.3-2.9-4.1l-105.8-52.2
	C606,182.6,603.6,182,601.2,182L601.2,182z"/>
<path d="M661.7,232.2L618.3,211c-4.9-2.4-12.2-1.7-16.3,1.6l-3.9,3.2c-0.8,0.7-0.7,1.6,0.3,2.1c1,0.5,2.4,0.4,3.3-0.3l3.9-3.2
	c2.5-2,6.8-2.4,9.8-1l43.3,21.1c3,1.5,3.5,4.3,0.9,6.3l-36,28.5c-2.5,2-6.9,2.3-9.8,0.8l-42.5-21.3c-2.9-1.4-3.3-4.2-0.9-6.2
	l3.8-3.1c0.8-0.7,0.7-1.6-0.3-2.1c-1-0.5-2.4-0.4-3.2,0.3L567,241c-4,3.2-3.3,7.8,1.5,10.2l42.4,21.3c4.9,2.5,12.3,1.9,16.4-1.4
	l36-28.5C667.5,239.3,666.8,234.6,661.7,232.2L661.7,232.2z"/>
<path d="M584.7,228.9l24.1,11.9l-8.2,0.8c-1.3,0.1-2.2,0.9-2.1,1.7c0,0.4,0.3,0.7,0.8,1s1,0.4,1.8,0.3l13.4-1.2
	c0.4,0,0.8-0.1,1.2-0.2c0.9-0.3,1.4-0.9,1.3-1.5l-1.3-8.8c-0.1-0.8-1.2-1.4-2.5-1.2c-1.3,0.1-2.2,0.9-2.1,1.7l0.8,5.3l-24.2-11.9
	c-1-0.5-2.4-0.4-3.2,0.3C583.6,227.6,583.7,228.5,584.7,228.9z"/>
<path class="st4" d="M350.8,347l-72.3,25.7c-5.7,2.1-3.8,6.7,3.6,8.5l93,22.9c13.3,3.3,28.1,3,38.4-0.6l72.3-25.7
	c5.7-2.1,3.8-6.7-3.6-8.5l-93-22.9C375.9,343.1,361.1,343.4,350.8,347z"/>
<path class="st9" d="M379.3,377.6L379.3,377.6C379.3,377.6,379.3,377.6,379.3,377.6L379.3,377.6L379.3,377.6L379.3,377.6
	L379.3,377.6L379.3,377.6L379.3,377.6C379.3,377.6,379.3,377.6,379.3,377.6C379.3,377.6,379.3,377.6,379.3,377.6c-0.1,0-0.2,0-0.2,0
	l0,0c0,0-0.1,0-0.3,0c-1.1,0-2.1-0.1-3-0.3h0L379.3,377.6z M379.3,377.6h1.1v-0.1c0.5,0,1-0.1,1.6-0.1l0,0l0.1,0
	c0.2,0,0.5,0,0.7-0.1c1-0.2,1.9-0.4,2.8-0.7c0,0,0,0,0,0l2.2-0.7c0,0,0.1,0,0.1,0c0.1,0,0.1,0,0.2-0.1c0,0,0,0,0,0l77-24.9l0,0l0,0
	c1.4-0.5,2.3-1.8,2.3-3.2v-108c0-1.2-0.9-2.2-2.1-2.4 M379.3,377.6 M465.3,237.4 M374.2,265.7l-4.8-16.5l-42.9-14.5
	c-0.4-0.2-0.7-0.2-0.8-0.2c0,0,0,0,0,0c-0.1,0-0.2,0-0.3,0h0c0,0-0.1,0-0.1,0l0,0l0,0l0,0h0l0,0l0,0h0l0.2,1.1l-0.2-1.1l0,0l0,0
	l-50.4,10.3l0,0l0,0c-1.1,0.2-1.9,1.2-1.9,2.3v107c-0.2,1.3,0.2,2.7,1.2,3.6c0.5,0.5,1.3,0.9,2,1l99.7,18.5L374.2,265.7z
	 M465.3,237.4l-91.1,28.3l-15.3,108.4l20.4,3.5"/>
<path class="st10" d="M324.3,238l-50.4,10.3v107.2c-0.2,0.6,0,1.2,0.4,1.6h0c0.2,0.2,0.5,0.4,0.8,0.4l99.8,18.6
	c2.9,0.6,5.9,0.4,8.7-0.6l2.3-0.7v-116L324.3,238z"/>
<path class="st11" d="M276.1,250.7L276.1,250.7l99.8,18.6c0.8,0.2,1.7,0.3,2.5,0.3v0.1h1.2c2.1,0,4.2-0.3,6.2-1l0,0l79.4-25.7l0,0
	c1.5-0.5,2.4-1.9,2.3-3.4l0,0l0,0c-0.1-1.6-1.2-2.8-2.7-3.1l0,0L366,216.3c0,0,0,0,0,0c-1.3-0.3-2.7-0.4-4-0.4c-2.1,0-4.3,0.3-6.3,1
	c0,0,0,0,0,0l-80.1,26.2l0,0l0,0c-1.7,0.6-2.9,2.2-2.7,4l0,0C273,248.9,274.3,250.3,276.1,250.7z"/>
<path d="M384.8,253.3l-49.6-12c-1.1-0.3-1-0.9,0.3-1.5c1.3-0.6,3.2-0.8,4.3-0.5l49.6,11.9c1.2,0.3,1.1,1-0.2,1.5
	C387.9,253.4,386,253.6,384.8,253.3z"/>
<path d="M405.6,244.1l-49.8-11.6c-1.1-0.3-1-0.9,0.3-1.4c1.3-0.6,3.2-0.8,4.3-0.5l49.8,11.6c1.2,0.3,1.1,0.9-0.2,1.5
	C408.7,244.2,406.7,244.4,405.6,244.1L405.6,244.1z"/>
<path class="st12" d="M412.4,508.3c-0.5,0-0.9-0.2-1.1-0.6c-0.2-0.4-0.2-0.9,0-1.3l20.4-35.1l32.4-55.6l17.1-21.2l-71.9,14.2
	l-43.6,8c0,0-0.2,0-0.3,0c-0.4,0-0.8-0.2-1.1-0.6c-0.3-0.4-0.3-1,0.1-1.4l33.6-48.4c0.9-1.4,2.3-2.4,3.9-2.9l119.2-38.5l0.7-0.2
	c0.8-0.2,1.6-0.3,2.3-0.3c4.3,0,8.2,2.7,9.7,6.7l43,117.4c1.1,3,0.7,6.2-1.1,8.8l-33.3,49.1c-0.2,0.4-0.6,0.6-1,0.6
	C541.6,506.8,412.4,508.3,412.4,508.3L412.4,508.3z"/>
<defs>
	<filter id="Adobe_OpacityMaskFilter" filterUnits="userSpaceOnUse" x="361.7" y="323.3" width="216.9" height="187.5">
		<feColorMatrix  type="matrix" values="1 0 0 0 0  0 1 0 0 0  0 0 1 0 0  0 0 0 1 0"/>
	</filter>
</defs>
<mask maskUnits="userSpaceOnUse" x="361.7" y="323.3" width="216.9" height="187.5" id="path-30-outside-1_515_9180_00000074431507539020902350000001240718035128197533_">
	<rect x="361" y="322.6" class="st13" width="218" height="189"/>
	<path d="M524.3,325.6c3.7,0,7.2,2.3,8.5,5.9l0.3,0.8l1.1,2.9l41.6,113.7c1,2.7,0.5,5.5-1,7.6l-0.1,0.1l-33.2,49L412.4,507
		l20.4-35.1l32.4-55.6l19.2-23.8l-75.3,14.8L364,419l33.1-49.1l2.2-3c0.8-1.1,1.9-2,3.3-2.4L521.7,326l0.7-0.2
		C523,325.7,523.7,325.6,524.3,325.6z"/>
</mask>
<path class="st14" d="M478,396.4l0.9,0.7l2-2.5l-3.1,0.6L478,396.4z M463.2,414.7l-0.9-0.7l0,0l0,0L463.2,414.7z M463,415l-0.9-0.7
	l0,0.1l0,0.1L463,415z M430.6,470.6l-1-0.6l0,0L430.6,470.6z M410.1,505.7l-1-0.6l0,0L410.1,505.7z M409.8,411l68.4-13.5l-0.4-2.3
	l-68.4,13.5L409.8,411z M477.2,395.6L462.4,414l1.8,1.4l14.8-18.3L477.2,395.6z M463.2,414.7c-0.9-0.7-0.9-0.7-0.9-0.7l0,0l0,0l0,0
	v0c0,0,0,0,0,0s0,0,0,0c0,0,0,0,0,0c0,0,0,0-0.1,0.1c0,0.1-0.1,0.1-0.1,0.2l1.8,1.4c0-0.1,0.1-0.1,0.1-0.2c0,0,0-0.1,0.1-0.1
	c0,0,0,0,0,0c0,0,0,0,0,0l0,0c0,0,0,0,0,0l0,0l0,0l0,0C464.2,415.4,464.2,415.4,463.2,414.7z M462,414.4l-32.4,55.6l2,1.2l32.4-55.6
	L462,414.4z M429.6,470.1l-20.4,35.1l2,1.2l20.4-35.1L429.6,470.1z M409.1,505.2c-0.7,1.1-0.7,2.6,0,3.7l2-1.2c-0.2-0.4-0.2-1,0-1.4
	L409.1,505.2z M409.1,508.9c0.7,1.1,1.9,1.8,3.2,1.8v-2.3c-0.5,0-0.9-0.3-1.2-0.7L409.1,508.9z M412.3,509.6c0,1.1,0,1.1,0,1.1l0,0
	l0,0l0,0l0,0l0,0l0,0l0,0l0,0l0,0l0,0l0,0l0,0l0,0l0,0l0,0l0,0l0,0l0,0l0,0l0,0l0,0l0,0l0,0l0,0l0,0l0,0l0,0l0,0l0,0l0,0l0,0l0,0
	l0,0l0,0l0,0l0,0l0,0l0,0l0,0l0,0l0,0l0,0l0,0l0,0l0,0l0,0l0,0l0,0l0,0l0,0l0,0l0,0l0,0l0,0l0,0l0,0l0,0l0,0l0,0l0,0l0,0l0,0l0,0
	l0,0l0,0l0,0l0,0l0,0l0,0l0,0l0,0l0,0l0,0l0,0l0,0l0,0l0,0l0,0l0,0l0,0l0,0l0,0l0,0l0,0l0,0l0,0l0,0l0,0l0,0l0,0l0,0l0,0l0,0l0,0
	l0,0l0,0l0,0l0,0l0,0l0,0l0,0l0,0l0,0l0,0l0,0l0,0h0l0,0l0,0l0,0l0,0l0,0l0,0l0,0l0,0l0,0l0,0l0,0l0,0l0,0l0,0l0,0l0,0l0,0l0,0l0,0
	l0,0l0,0l0,0l0,0l0,0l0,0l0,0l0,0l0,0l0,0l0,0l0,0l0,0l0,0l0,0l0,0l0,0l0,0l0,0l0,0l0,0l0,0l0,0l0,0l0,0l0,0l0,0l0,0l0,0l0,0l0,0
	c0,0,0,0,0,0l0,0l0,0l0,0l0,0l0,0l0,0l0,0l0,0l0,0l0,0l0,0l0,0l0,0l0,0l0,0l0,0l0,0l0,0l0,0l0,0l0,0l0,0l0,0l0,0l0,0l0,0l0,0l0,0
	l0,0l0,0l0,0l0,0c0,0,0,0,0,0l0,0l0,0l0,0l0,0l0,0l0,0l0,0l0,0l0,0l0,0l0,0l0,0l0,0l0,0l0,0l0,0l0,0l0,0l0,0l0,0l0,0l0,0l0,0l0,0
	l0,0l0,0c0,0,0,0,0,0l0,0l0,0l0,0l0,0l0,0l0,0l0,0l0,0l0,0l0,0l0,0l0,0l0,0l0,0l0,0l0,0l0,0l0,0l0,0l0,0l0,0c0,0,0,0,0,0l0,0l0,0
	l0,0l0,0l0,0l0,0l0,0l0,0l0,0l0,0l0,0l0,0l0,0l0,0l0,0l0,0l0,0l0,0c0,0,0,0,0,0l0,0l0,0l0,0l0,0l0,0l0,0l0,0l0,0l0,0l0,0l0,0l0,0
	l0,0l0,0l0,0l0,0h0l0,0l0,0l0,0l0,0l0,0l0,0l0,0l0,0l0,0l0,0l0,0l0,0l0,0l0,0c0,0,0,0,0,0l0,0l0,0l0,0l0,0l0,0l0,0l0,0l0,0l0,0l0,0
	l0,0l0,0l0,0l0,0c0,0,0,0,0,0l0,0l0,0l0,0l0,0l0,0l0,0l0,0l0,0l0,0l0,0l0,0l0,0c0,0,0,0,0,0l0,0l0,0l0,0l0,0l0,0l0,0l0,0l0,0l0,0
	l0,0l0,0h0l0,0l0,0l0,0l0,0l0,0l0,0l0,0l0,0l0,0l0,0l0,0c0,0,0,0,0,0l0,0l0,0l0,0l0,0l0,0l0,0l0,0l0,0l0,0c0,0,0,0,0,0l0,0l0,0l0,0
	l0,0l0,0l0,0l0,0l0,0l0,0l0,0c0,0,0,0,0,0l0,0l0,0l0,0l0,0l0,0l0,0l0,0l0,0l0,0c0,0,0,0,0,0l0,0l0,0l0,0l0,0l0,0l0,0l0,0l0,0h0l0,0
	l0,0l0,0l0,0l0,0l0,0l0,0l0,0h0l0,0l0,0l0,0l0,0l0,0l0,0l0,0l0,0c0,0,0,0,0,0l0,0l0,0l0,0l0,0l0,0l0,0l0,0h0l0,0l0,0l0,0l0,0l0,0
	l0,0l0,0c0,0,0,0,0,0l0,0l0,0l0,0l0,0l0,0l0,0l0,0h0l0,0l0,0l0,0l0,0l0,0l0,0l0,0c0,0,0,0,0,0l0,0l0,0l0,0l0,0l0,0l0,0h0l0,0l0,0
	l0,0l0,0l0,0l0,0h0l0,0l0,0l0,0l0,0l0,0l0,0h0l0,0l0,0l0,0l0,0v-2.3l0,0l0,0l0,0l0,0h0l0,0l0,0l0,0l0,0l0,0l0,0h0l0,0l0,0l0,0l0,0
	l0,0l0,0h0l0,0l0,0l0,0l0,0l0,0l0,0c0,0,0,0,0,0l0,0l0,0l0,0l0,0l0,0l0,0l0,0h0l0,0l0,0l0,0l0,0l0,0l0,0l0,0c0,0,0,0,0,0l0,0l0,0
	l0,0l0,0l0,0l0,0l0,0h0l0,0l0,0l0,0l0,0l0,0l0,0l0,0c0,0,0,0,0,0l0,0l0,0l0,0l0,0l0,0l0,0l0,0l0,0h0l0,0l0,0l0,0l0,0l0,0l0,0l0,0
	l0,0h0l0,0l0,0l0,0l0,0l0,0l0,0l0,0l0,0c0,0,0,0,0,0l0,0l0,0l0,0l0,0l0,0l0,0l0,0l0,0l0,0c0,0,0,0,0,0l0,0l0,0l0,0l0,0l0,0l0,0l0,0
	l0,0l0,0l0,0c0,0,0,0,0,0l0,0l0,0l0,0l0,0l0,0l0,0l0,0l0,0l0,0c0,0,0,0,0,0l0,0l0,0l0,0l0,0l0,0l0,0l0,0l0,0l0,0l0,0l0,0h0l0,0l0,0
	l0,0l0,0l0,0l0,0l0,0l0,0l0,0l0,0l0,0c0,0,0,0,0,0l0,0l0,0l0,0l0,0l0,0l0,0l0,0l0,0l0,0l0,0l0,0l0,0c0,0,0,0,0,0l0,0l0,0l0,0l0,0
	l0,0l0,0l0,0l0,0l0,0l0,0l0,0l0,0l0,0l0,0c0,0,0,0,0,0l0,0l0,0l0,0l0,0l0,0l0,0l0,0l0,0l0,0l0,0l0,0l0,0l0,0l0,0h0l0,0l0,0l0,0l0,0
	l0,0l0,0l0,0l0,0l0,0l0,0l0,0l0,0l0,0l0,0l0,0l0,0c0,0,0,0,0,0l0,0l0,0l0,0l0,0l0,0l0,0l0,0l0,0l0,0l0,0l0,0l0,0l0,0l0,0l0,0l0,0
	l0,0l0,0c0,0,0,0,0,0l0,0l0,0l0,0l0,0l0,0l0,0l0,0l0,0l0,0l0,0l0,0l0,0l0,0l0,0l0,0l0,0l0,0l0,0l0,0l0,0l0,0c0,0,0,0,0,0l0,0l0,0
	l0,0l0,0l0,0l0,0l0,0l0,0l0,0l0,0l0,0l0,0l0,0l0,0l0,0l0,0l0,0l0,0l0,0l0,0l0,0l0,0l0,0l0,0l0,0l0,0c0,0,0,0,0,0l0,0l0,0l0,0l0,0
	l0,0l0,0l0,0l0,0l0,0l0,0l0,0l0,0l0,0l0,0l0,0l0,0l0,0l0,0l0,0l0,0l0,0l0,0l0,0l0,0l0,0l0,0l0,0l0,0l0,0l0,0l0,0l0,0c0,0,0,0,0,0
	l0,0l0,0l0,0l0,0l0,0l0,0l0,0l0,0l0,0l0,0l0,0l0,0l0,0l0,0l0,0l0,0l0,0l0,0l0,0l0,0l0,0l0,0l0,0l0,0l0,0l0,0l0,0l0,0l0,0l0,0l0,0
	l0,0l0,0l0,0l0,0l0,0l0,0l0,0l0,0l0,0l0,0l0,0l0,0l0,0l0,0l0,0l0,0l0,0l0,0l0,0h0l0,0l0,0l0,0l0,0l0,0l0,0l0,0l0,0l0,0l0,0l0,0l0,0
	l0,0l0,0l0,0l0,0l0,0l0,0l0,0l0,0l0,0l0,0l0,0l0,0l0,0l0,0l0,0l0,0l0,0l0,0l0,0l0,0l0,0l0,0l0,0l0,0l0,0l0,0l0,0l0,0l0,0l0,0l0,0
	l0,0l0,0l0,0l0,0l0,0l0,0l0,0l0,0l0,0l0,0l0,0l0,0l0,0l0,0l0,0l0,0l0,0l0,0l0,0l0,0l0,0l0,0l0,0l0,0l0,0l0,0l0,0l0,0l0,0l0,0l0,0
	l0,0l0,0l0,0l0,0l0,0l0,0l0,0l0,0l0,0l0,0l0,0l0,0l0,0l0,0l0,0l0,0l0,0l0,0l0,0l0,0l0,0l0,0l0,0l0,0l0,0l0,0l0,0l0,0l0,0l0,0l0,0
	l0,0C412.3,508.4,412.3,508.4,412.3,509.6z M532.9,331.5l2.2-0.8l0,0l0,0L532.9,331.5z M533.2,332.2l2.2-0.8l0,0L533.2,332.2z
	 M534.2,335.1l-2.2,0.8v0L534.2,335.1z M575.8,448.8l-2.2,0.8l0,0L575.8,448.8z M574.9,456.5l1.8,1.4l0,0l0,0L574.9,456.5z
	 M574.8,456.6l-1.8-1.4l0,0l0,0L574.8,456.6z M541.6,505.6l0,2.3l1.2,0l0.7-1L541.6,505.6z M412.4,507l-2-1.2l-2,3.5l4.1,0
	L412.4,507z M432.8,471.9l-2-1.2v0L432.8,471.9z M465.3,416.3l-1.8-1.4l-0.1,0.1l-0.1,0.2L465.3,416.3z M484.5,392.5l1.8,1.4l4-4.9
	l-6.2,1.2L484.5,392.5z M409.2,407.3l-0.4-2.3l-0.1,0l-0.1,0L409.2,407.3z M364,419l-1.9-1.3c-0.5,0.8-0.5,1.8,0,2.6
	c0.6,0.8,1.5,1.1,2.5,0.9L364,419z M397.1,369.9l-1.9-1.4l0,0l0,0L397.1,369.9z M399.2,366.9l1.9,1.4l0,0l0,0L399.2,366.9z
	 M402.5,364.5l0.7,2.2l0,0l0,0L402.5,364.5z M521.7,326l-0.6-2.2l-0.1,0l-0.1,0L521.7,326z M522.3,325.8l-0.5-2.2l0,0l0,0
	L522.3,325.8z M524.3,327.9c2.8,0,5.4,1.7,6.4,4.4l4.3-1.6c-1.7-4.5-6.1-7.4-10.7-7.4V327.9z M530.7,332.2l0.3,0.8l4.3-1.6l-0.3-0.8
	L530.7,332.2z M531,333l1.1,2.9l4.3-1.6l-1.1-2.9L531,333z M532.1,335.9l41.6,113.7l4.3-1.6l-41.6-113.7L532.1,335.9z M573.7,449.6
	c0.7,1.9,0.4,4-0.7,5.5l3.8,2.6c1.9-2.7,2.5-6.4,1.2-9.8L573.7,449.6z M573,455.1l-0.1,0.1l3.7,2.8l0.1-0.1L573,455.1z M572.9,455.3
	l-33.2,49l3.8,2.6l33.2-49L572.9,455.3z M541.5,503.3l-129.2,1.5l0.1,4.6l129.2-1.5L541.5,503.3z M414.3,508.2l20.4-35.1l-4-2.3
	l-20.4,35.1L414.3,508.2z M434.8,473.1l32.4-55.6l-4-2.3l-32.4,55.6L434.8,473.1z M467,417.7l19.2-23.8l-3.6-2.9l-19.2,23.8
	L467,417.7z M484,390.3l-75.3,14.8l0.9,4.5l75.3-14.8L484,390.3z M408.6,405.1l-45.2,11.7l1.2,4.5l45.2-11.7L408.6,405.1z
	 M365.9,420.3l33.1-49.1l-3.8-2.6l-33.1,49.1L365.9,420.3z M398.9,371.3l2.2-3l-3.7-2.7l-2.2,3L398.9,371.3z M401.1,368.2
	c0.5-0.7,1.2-1.3,2-1.5l-1.4-4.4c-1.8,0.6-3.4,1.8-4.5,3.3L401.1,368.2z M403.2,366.7l119.2-38.5l-1.4-4.4l-119.2,38.5L403.2,366.7z
	 M522.3,328.2l0.7-0.2l-1.2-4.4l-0.7,0.2L522.3,328.2z M522.8,328c0.5-0.1,1-0.2,1.5-0.2v-4.6c-0.8,0-1.7,0.1-2.5,0.3L522.8,328z"/>
<path class="st15" d="M534.2,335.2l-41,55.6l-84,16.6l-44.7,9.6l32.6-47.1l2.2-3c0.8-1.1,1.9-2,3.3-2.4L521.7,326l0.7-0.2
	c4.4-1,9,1.4,10.6,5.6L534.2,335.2z"/>
<path class="st12" d="M574.9,456.5l-0.1,0.1l-33.2,49l-129.2,1.5l20.4-35.1l32.4-55.6l67.9-84.1l1.1,2.9l41.6,113.7
	C576.8,451.5,576.4,454.3,574.9,456.5z"/>
<path class="st16" d="M537.4,509.2l-119.8,38.4c-4.6,1.5-9.6-1-11.3-5.5l-43.2-118.2c-1.6-4.5,0.7-9.3,5.3-10.8l119.8-38.4
	c4.6-1.5,9.6,1,11.3,5.5l43.2,118.2C544.3,502.9,542,507.7,537.4,509.2z"/>
<path d="M438.9,496.5l-6.9,3l11.6-26.7c0.5-1.1,0.1-2.3-1-2.8c-1.1-0.5-2.2,0.1-2.7,1.2l-11.6,26.7l-2.5-6.9
	c-0.4-1.1-1.6-1.6-2.6-1.1c-1.1,0.5-1.6,1.7-1.2,2.8l4.2,11.6v0.1c0.4,1.1,1.6,1.6,2.6,1.1l11.5-4.9c1-0.4,1.6-1.7,1.2-2.8
	C441.1,496.6,440,496.1,438.9,496.5z"/>
<path d="M484.4,463.5c-1.1,0.5-1.6,1.7-1.2,2.8l2.5,6.9l-25.2-10.8c-1-0.5-2.2,0-2.7,1.2c-0.5,1.1-0.1,2.3,1,2.8l25.3,10.9l-6.9,3
	c-1.1,0.5-1.6,1.7-1.2,2.8c0.4,1.1,1.6,1.6,2.6,1.1l11.5-4.9c0,0,0.2-0.1,0.3-0.2c0.1,0,0.1-0.1,0.2-0.1c0.1-0.1,0.3-0.2,0.4-0.4
	c0.1-0.1,0.1-0.2,0.2-0.3c0.1-0.1,0.1-0.2,0.2-0.3c0.3-0.7,0.2-1.4-0.1-2l-4.1-11.3C486.7,463.5,485.5,463,484.4,463.5L484.4,463.5z
	"/>
<path d="M465.7,479.2c0.5-1.1,0.1-2.3-1-2.8c-1-0.5-2.2,0.1-2.7,1.2l-3.1,7l-4.6-12.6c-0.4-1.1-1.6-1.6-2.6-1.1
	c-1.1,0.5-1.6,1.7-1.2,2.8l4.6,12.6l-6.7-2.9c-1-0.5-2.2,0.1-2.7,1.2c-0.5,1.1,0,2.3,1,2.8l11.1,4.8c0,0,0.1,0,0.1,0
	c0.5,0.2,1,0.2,1.5,0c0.2-0.1,0.5-0.3,0.7-0.4c0,0,0-0.1,0.1-0.1c0.2-0.2,0.3-0.4,0.4-0.6c0,0,0,0,0,0L465.7,479.2L465.7,479.2z"/>
<path d="M450.5,467.6c2.1-0.9,3.2-3.4,2.4-5.5c-0.8-2.1-3.2-3.2-5.3-2.3c-2.1,0.9-3.2,3.4-2.4,5.5
	C446.1,467.5,448.4,468.5,450.5,467.6z"/>
<path d="M437.8,425.1c-5.4,1-9.5,5.8-9.7,11.4c-0.1,1.1,0.8,2.1,2,2.1c1.1,0,2.1-0.9,2.1-2.1c0.1-3.1,2.2-6.5,6.2-7.2
	c2.5-0.5,5.1,0.6,6.5,2.6c2.2,3.2,1.4,6.9-0.4,9.1c-2.4,3-3.1,7.2-1.7,11.2l0.8,2.1c0.4,1.1,1.6,1.6,2.6,1.1c1-0.4,1.6-1.7,1.2-2.7
	l-0.8-2.1c-0.9-2.4-0.5-5.1,0.9-6.8c3.4-4.2,3.8-10.1,0.8-14.4C445.9,426,441.8,424.3,437.8,425.1L437.8,425.1z"/>
</svg>
