<svg width="18" height="21" viewBox="0 0 18 21" fill="none" xmlns="http://www.w3.org/2000/svg">
<path d="M10 1.32253C10 0.648752 10.5462 0.102539 11.22 0.102539H16.78C17.4538 0.102539 18 0.648752 18 1.32253V6.88254C18 7.55634 17.4538 8.10254 16.78 8.10254H11.22C10.5462 8.10254 10 7.55634 10 6.88254V1.32253Z" fill="#555555" fill-opacity="0.8"/>
<path d="M0 11.6275C0 10.7853 0.682781 10.1025 1.525 10.1025H8.475C9.31726 10.1025 10 10.7853 10 11.6275V18.5775C10 19.4198 9.31726 20.1025 8.475 20.1025H1.525C0.682781 20.1025 0 19.4198 0 18.5775V11.6275Z" fill="#555555"/>
<path d="M0 2.81739C0 2.42259 0.320048 2.10254 0.714844 2.10254H4.28516C4.67996 2.10254 5 2.42259 5 2.81738V6.38769C5 6.7825 4.67996 7.10254 4.28516 7.10254H0.714844C0.320048 7.10254 0 6.7825 0 6.38769V2.81739Z" fill="#555555" fill-opacity="0.6"/>
</svg>
