<?xml version="1.0" encoding="utf-8"?>
<!-- Generator: Adobe Illustrator 27.6.1, SVG Export Plug-In . SVG Version: 6.00 Build 0)  -->
<svg version="1.1" id="Layer_1" xmlns="http://www.w3.org/2000/svg" xmlns:xlink="http://www.w3.org/1999/xlink" x="0px" y="0px"
	 viewBox="0 0 364 330" style="enable-background:new 0 0 364 330;" xml:space="preserve">
<style type="text/css">
	.st0{fill:#DEDEDE;}
	.st1{fill:#6EBD46;}
	.st2{fill:#84E453;}
	.st3{fill:#99FF62;}
	.st4{fill:#04181F;}
	.st5{fill:#FFFFFF;filter:url(#Adobe_OpacityMaskFilter);}
	.st6{mask:url(#path-10-outside-1_515_9808_00000127026397957464628890000008150522078533759669_);}
	.st7{fill-rule:evenodd;clip-rule:evenodd;}
	.st8{fill:none;}
	.st9{clip-path:url(#SVGID_00000005966765312410124690000010680215930501649284_);}
</style>
<path class="st0" d="M177.8,103l-50.4,39.7c-4,3.1-2.6,10.3,2.5,13.1l65,35.4c9.3,5.1,19.6,4.7,26.8-1l50.4-39.7
	c4-3.1,2.6-10.3-2.5-13.1l-65-35.4C195.3,97,185,97.4,177.8,103z"/>
<path class="st1" d="M179.3,71.2l-48-6.8l-5.5,69.1c0,0.1,0,0.3,0,0.4c0,0.7,0.4,1.5,1.2,1.8l80.5,39.2c3.1,1.5,6.8,1.3,9.7-0.5
	l5-74.2l1.4-20.7L179.3,71.2z"/>
<path class="st2" d="M278.9,57.5l-43.8,10.3L219.3,77l-1,21.5l-3.8,77.2c1.3-0.4,2.6-1,3.7-1.9l54.3-44.4c0.9-0.8,0.8-2.8,0.9-3.5
	L278.9,57.5z"/>
<g>
	<path class="st3" d="M131.2,62.4L188,17.3c3.1-2.4,7.3-2.9,10.8-1.2l79.9,39.2c1.4,0.7,1.6,2.5,0.4,3.5l-55.4,45.1
		c-3.1,2.5-7.3,3-10.9,1.3l-81.3-39.3C130.2,65.2,130,63.3,131.2,62.4L131.2,62.4z"/>
	<path class="st4" d="M217.2,106.9c-1.6,0-3.2-0.4-4.8-1.1l-81.3-39.3c-0.9-0.4-1.5-1.3-1.6-2.2c-0.1-1,0.3-1.9,1.1-2.5l0,0l56.8-45
		c3.3-2.6,7.8-3.1,11.6-1.3L279,54.7c0.9,0.4,1.5,1.3,1.6,2.2c0.1,1-0.3,1.9-1,2.5l-55.4,45.1C222.2,106.1,219.7,106.9,217.2,106.9z
		 M131.6,63c-0.3,0.3-0.5,0.7-0.5,1.2c0.1,0.4,0.3,0.8,0.7,1l81.3,39.3c3.3,1.6,7.2,1.1,10-1.2l55.4-45.1c0.4-0.3,0.5-0.7,0.5-1.2
		c-0.1-0.5-0.3-0.8-0.7-1l-79.9-39.2c-3.2-1.6-7.2-1.2-10,1.1L131.6,63L131.6,63z"/>
</g>
<path d="M194.4,16c1.5,0,3,0.3,4.4,1l78.9,38.9c0.7,0.3,1.1,0.9,1.1,1.6v0.1c0,0.2,0,0.4-0.1,0.6l-5.5,67.6
	c-0.2,1.8-0.5,3.1-1.4,3.9l-53.8,44c-0.3,0.3-0.7,0.5-1.1,0.7v0.1c-0.2,0.1-0.3,0.2-0.5,0.2c-0.1,0.1-0.2,0.1-0.4,0.2
	c-0.5,0.3-1.1,0.5-1.6,0.6c0,0-0.1,0-0.1,0.1c-0.9,0.2-1.8,0.4-2.7,0.4c-1.5,0-3-0.3-4.3-1l-80.5-39.2c-0.8-0.4-1.2-1.1-1.2-1.8
	c0-0.2,0-0.3,0-0.4l5.5-69.1c0-0.5,0.3-1.1,0.8-1.4l56.1-44.8C190,16.7,192.2,16,194.4,16 M194.4,14.1c-2.7,0-5.3,0.9-7.4,2.6
	l-56.1,44.8c-0.8,0.6-1.3,1.5-1.4,2.5c0,0.1,0,0.2-0.1,0.3l-5.5,69.1c0,0.2-0.1,0.4-0.1,0.6c0,1.5,0.9,2.9,2.2,3.5l80.5,39.2
	c1.6,0.8,3.4,1.2,5.2,1.2c1,0,2-0.1,2.9-0.4c0.1,0,0.2,0,0.3-0.1c0.1,0,0.2-0.1,0.2-0.1c0.6-0.2,1.3-0.4,1.9-0.7
	c0.1-0.1,0.2-0.1,0.3-0.2l0.1-0.1l0.1-0.1c0.2-0.1,0.3-0.2,0.4-0.2c0.1-0.1,0.2-0.2,0.3-0.2c0.3-0.2,0.6-0.4,1-0.7l53.8-44
	c1.6-1.3,1.9-3.3,2.1-5.2l5.5-67.5c0.1-0.3,0.1-0.6,0.1-0.9c0-0.1,0-0.1,0-0.2c-0.2-1.3-1-2.5-2.2-3.1l-78.9-38.9
	C198,14.5,196.2,14.1,194.4,14.1L194.4,14.1z"/>
<path d="M222.3,54.8c2.8,0.1,6.3,1.3,7.6,3.7c0.6,1.2,0.3,2.5-0.7,3.6c-1,1.1-2.6,1.9-4.3,2.3c-1.7,0.3-3.5,0.1-5.1-0.3
	c-0.8-0.2-1.4-0.4-1.9-0.5c0,0-0.5-0.2-0.7-0.2c-0.1,0-0.6-0.1-0.8-0.1c0,0-0.9,0-1.4,0.4c-0.4,0.3-0.3,0.7-0.2,0.9
	c0.1,0.2,0.2,0.3,0.3,0.3c0.1,0.1,0.2,0.2,0.3,0.2c0.1,0,0.2,0.1,0.2,0.1c0,0,0.1,0.1,0.2,0.1l0.2,0.1c0.4,0.2,0.9,0.4,1.4,0.7
	c1.1,0.6,2.2,1.5,2.9,2.6c0.9,1.5,0.8,3.7-2.3,5.5c-1.8,1.1-3.6,1.5-5.3,1.6c-1.7,0.1-3.3-0.1-4.9-0.6s-2.9-1.1-4-1.8
	c-1.1-0.7-1.7-1.4-2-1.7c-0.6-0.8-0.9-1.3-0.9-2.6c0-0.6,0.2-1,0.4-1.4c0.1-0.2,0.5-0.6,0.5-0.6c0.4-0.5,0.2-1.1-0.6-1.4
	c-0.8-0.3-1.7-0.2-2.2,0.2c0,0-0.1,0.2-0.3,0.3c-0.1,0.2-0.3,0.4-0.5,0.7c-0.3,0.5-0.6,1.4-0.6,2.2c0.1,1.5,0.5,2.3,1.1,3.3
	c0.5,0.8,1.5,1.7,2.8,2.5c1.3,0.9,3.1,1.7,5,2.3c2,0.6,4.3,1,6.7,0.8c2.4-0.1,4.8-0.8,7.1-2.1c4.1-2.4,4.3-5.4,3-7.6
	c-0.4-0.6-0.8-1.1-1.3-1.6c1.3,0.1,2.6,0.1,4-0.1c2.5-0.4,4.7-1.6,6-3.1c1.3-1.5,1.9-3.3,0.9-5.2c-1.8-3.5-6.9-5.1-10.7-5.3
	c-3.6-0.2-6.1,1.1-8.2,2.3c-0.6,0.4-0.6,1,0,1.4c0.6,0.4,1.7,0.5,2.3,0.1C218.3,55.4,220,54.7,222.3,54.8L222.3,54.8z"/>
<path d="M211.6,48.1c-1-1.4-2-2.6-3.4-3.6c-1.4-1.1-3.2-1.9-5.6-2.7c-7.4-2.3-13.6-0.1-15,3c-0.7,1.5-0.5,2.8,0.7,4.5
	c1.1,1.6,3.2,3.5,6.2,6.2c2.2,1.9,2.2,3.6,1.5,4.9c-0.7,1.4-2.3,2.4-3.5,2.9c-2,0.9-7,1.7-12.3-1c-4.4-2.2-5.1-4.6-5.5-5.9
	c-0.2-0.6-1.1-1-2-0.9c-0.9,0.1-1.5,0.6-1.3,1.1c0.4,1.4,1.4,4.4,6.8,7.2c6.8,3.5,13.4,2.5,16.4,1.2c1.6-0.7,3.6-2,4.6-3.9
	c1-1.9,0.8-4.2-2-6.7c-3.1-2.7-4.8-4.5-5.8-5.8c-0.9-1.3-1-2.1-0.5-3.1c0.8-1.9,5-3.6,10.5-1.9c2,0.6,3.3,1.3,4.4,2.1
	c1.1,0.8,2,1.8,2.9,3.1c0.4,0.5,1.4,0.8,2.2,0.6C211.6,49.2,212,48.6,211.6,48.1L211.6,48.1z"/>
<path class="st0" d="M86.6,208.1l-43.5,42.5c-4,3.1-2.6,10.3,2.5,13.1l54.4,22.8c11.7,4.4,15.1,3.3,26.8-1l56.4-24.6
	c4-3.1,2.6-10.3-2.5-13.1l-67.3-40.7C104.1,202,93.8,202.4,86.6,208.1z"/>
<defs>
	<filter id="Adobe_OpacityMaskFilter" filterUnits="userSpaceOnUse" x="15.3" y="119.5" width="162.3" height="138.8">
		<feColorMatrix  type="matrix" values="1 0 0 0 0  0 1 0 0 0  0 0 1 0 0  0 0 0 1 0"/>
	</filter>
</defs>
<mask maskUnits="userSpaceOnUse" x="15.3" y="119.5" width="162.3" height="138.8" id="path-10-outside-1_515_9808_00000127026397957464628890000008150522078533759669_">
	<rect x="15" y="119.2" class="st5" width="163" height="141"/>
	<path d="M137.1,121.2c2.8,0,5.4,1.7,6.4,4.4l0.2,0.6l0.8,2.2l31,84.8c0.7,2,0.4,4.1-0.7,5.7l-0.1,0.1L150,255.5l-96.4,1.1
		l15.2-26.2L93,188.9l14.3-17.7l-56.2,11.1L17,188.9l25.2-34.7l1.6-2.2c0.6-0.9,1.4-1.5,2.4-1.8l88.9-28.7l0.5-0.1
		C136.1,121.2,136.6,121.2,137.1,121.2z"/>
</mask>
<path class="st6" d="M143.5,125.6l1.6-0.6l0,0L143.5,125.6z M143.7,126.1l1.6-0.6l0,0L143.7,126.1z M144.5,128.3l-1.6,0.6v0
	L144.5,128.3z M175.5,213.1l-1.6,0.6l0,0L175.5,213.1z M174.8,218.8l1.4,1l0,0l0,0L174.8,218.8z M174.7,218.9l-1.4-1l0,0l0,0
	L174.7,218.9z M150,255.5l0,1.7l0.9,0l0.5-0.7L150,255.5z M17,188.9l-1.4-1c-0.4,0.6-0.4,1.3-0.1,1.9c0.4,0.6,1.1,0.9,1.8,0.8
	L17,188.9z M42.2,154.3l-1.4-1l0,0L42.2,154.3z M43.8,152l1.4,1l0,0l0,0L43.8,152z M46.2,150.2l0.5,1.6l0,0l0,0L46.2,150.2z
	 M135.1,121.5l-0.4-1.7l0,0l0,0L135.1,121.5z M135.6,121.4l-0.4-1.7l0,0l0,0L135.6,121.4z M137.1,122.9c2.1,0,4,1.3,4.8,3.3l3.2-1.2
	c-1.3-3.4-4.5-5.5-8-5.5V122.9z M141.9,126.2l0.2,0.6l3.2-1.2l-0.2-0.6L141.9,126.2z M142.1,126.7l0.8,2.2l3.2-1.2l-0.8-2.2
	L142.1,126.7z M142.9,128.9l31,84.8l3.2-1.2l-31-84.8L142.9,128.9z M173.9,213.7c0.5,1.4,0.3,3-0.5,4.1l2.8,2c1.4-2,1.9-4.7,0.9-7.3
	L173.9,213.7z M173.4,217.8L173.4,217.8l2.7,2.1l0.1-0.1L173.4,217.8z M173.3,217.9l-24.8,36.6l2.8,1.9l24.8-36.6L173.3,217.9z
	 M149.9,253.7l-96.4,1.1l0,3.4l96.4-1.1L149.9,253.7z M17.5,190.8l26-35.5l-2.8-2l-25.2,34.7L17.5,190.8z M43.6,155.3l1.6-2.2
	l-2.8-2l-1.6,2.2L43.6,155.3z M45.2,153c0.4-0.6,0.9-1,1.5-1.1l-1-3.3c-1.4,0.4-2.5,1.3-3.3,2.5L45.2,153z M46.7,151.9l88.9-28.7
	l-1.1-3.3l-88.9,28.7L46.7,151.9z M135.5,123.1l0.5-0.1l-0.9-3.3l-0.5,0.1L135.5,123.1z M136,123c0.4-0.1,0.7-0.1,1.1-0.1v-3.4
	c-0.6,0-1.3,0.1-1.9,0.2L136,123z"/>
<path class="st3" d="M144.5,128.3l-30.6,41.5l-62.7,12.4L17,189l25.2-34.7l1.6-2.2c0.6-0.9,1.4-1.5,2.4-1.8l88.9-28.7l0.5-0.1
	c3.3-0.8,6.7,1,7.9,4.2L144.5,128.3z"/>
<path class="st2" d="M174.8,218.8L174.8,218.8L150,255.5l-81.1-25.1L93,188.9l50.6-62.7l0.8,2.2l31,84.8
	C176.2,215.1,175.9,217.2,174.8,218.8z"/>
<g>
	<path class="st1" d="M147.4,258.6l-89.7,28.8c-3.4,1.1-7.2-0.7-8.4-4.1L16,193.2c-1.2-3.4,0.5-7,4-8.1l89.7-28.8
		c3.4-1.1,7.2,0.7,8.4,4.1l33.3,90.1C152.6,253.8,150.8,257.4,147.4,258.6z"/>
	<path d="M55.7,288.4c-3.1,0-6-1.9-7.1-4.9l-33.3-90.1c-0.7-1.8-0.6-3.8,0.3-5.5c0.8-1.7,2.3-3,4.2-3.6l89.7-28.8
		c3.8-1.2,8,0.8,9.4,4.6l33.3,90c0.7,1.8,0.6,3.8-0.3,5.5c-0.8,1.7-2.3,3-4.2,3.6c0,0,0,0,0,0l-89.7,28.8
		C57.2,288.3,56.4,288.4,55.7,288.4z M111.6,156.7c-0.6,0-1.2,0.1-1.8,0.3l-89.7,28.8c-1.5,0.5-2.6,1.5-3.3,2.8
		c-0.7,1.3-0.7,2.9-0.2,4.3L50,283c1.1,3,4.5,4.6,7.5,3.7l89.7-28.8c1.5-0.5,2.6-1.5,3.3-2.8c0.7-1.3,0.7-2.9,0.2-4.3l-33.3-90
		C116.5,158.2,114.1,156.7,111.6,156.7z"/>
</g>
<path class="st7" d="M53.1,212.2c-0.6,1.4-0.7,2.5-0.3,3.3c0.3,0.8,1.1,1.6,2.5,2.2c1.4,0.6,3.4,1,5.7,1c4.7,0.1,10.9-1.1,17.3-3.6
	c6.4-2.5,11.7-5.9,15.1-9.2c1.7-1.6,2.9-3.2,3.5-4.6c0.6-1.4,0.7-2.5,0.3-3.3c-0.3-0.8-1.1-1.6-2.5-2.2c-1.4-0.6-3.4-1-5.7-1
	c-4.7-0.1-10.9,1.1-17.3,3.6c-6.4,2.5-11.7,5.9-15.1,9.2C54.9,209.2,53.8,210.8,53.1,212.2z M54.4,205.2c3.8-3.7,9.5-7.2,16.2-9.8
	c6.7-2.6,13.3-3.9,18.5-3.8c2.6,0,5,0.5,6.9,1.3c1.9,0.8,3.5,2.1,4.2,4c0.1,0.2,0.1,0.3,0.2,0.5l0,0l10.6,26.9l0.1,0.4
	c1.2,3.8-1,7.9-4.6,11.4c-3.8,3.7-9.5,7.2-16.2,9.9c-6.7,2.7-13.3,3.9-18.6,3.8c-2.6,0-5-0.5-6.9-1.3c-1.9-0.8-3.5-2.1-4.2-4L50,217
	c0-0.1-0.1-0.2-0.1-0.3c-0.7-1.9-0.5-3.9,0.4-5.8C51.1,209,52.6,207.1,54.4,205.2L54.4,205.2z M55,221l3.3,8.4
	c0.3,0.8,1,1.5,2.4,2.2c1.4,0.6,3.2,1.1,5.4,1.2c4.8,0.1,11.3-1.2,17.7-3.7c6.4-2.5,12-6,15.5-9.3c1.6-1.6,2.7-3.1,3.3-4.5
	c0.6-1.3,0.6-2.4,0.2-3.4l-3.3-8.4c-0.9,1.6-2.2,3.2-3.8,4.8c-3.8,3.7-9.5,7.2-16.2,9.8c-6.7,2.6-13.3,3.9-18.5,3.8
	C58.8,221.9,56.7,221.6,55,221L55,221z M105.1,217.5c-0.8,1.5-2,3-3.4,4.4l0,0c-3.9,3.7-9.8,7.4-16.6,10c-6.7,2.6-13.6,4-18.9,3.9
	l0,0l0,0c-2-0.1-4-0.4-5.6-1l3.3,8.4c0.3,0.9,1.1,1.6,2.5,2.2c1.4,0.6,3.4,1,5.7,1c4.7,0.1,10.9-1.1,17.3-3.6
	c6.4-2.5,11.8-5.9,15.1-9.2c3.5-3.4,4.5-6.3,3.7-8.3L105.1,217.5L105.1,217.5z"/>
<rect x="174.4" y="125.6" class="st8" width="161.4" height="191.9"/>
<g>
	<rect x="174.4" y="125.6" class="st8" width="161.4" height="191.9"/>
	<g>
		<path class="st0" d="M241.1,230.7l-58.5,34.8c-4.7,2.8-4.7,9.4,0,12.1l58.5,34.8c8.4,5,18.8,5,27.2,0l58.5-34.8
			c4.7-2.8,4.7-9.4,0-12.1l-58.5-34.8C259.9,225.7,249.5,225.7,241.1,230.7z"/>
		<g>
			<path class="st1" d="M334.5,165.3c0-0.3-0.3-0.6-0.6-0.6h-78.2c-0.3,0-79.7,0.4-79.7,0.4l0,0.6l0,0l0-0.6c-0.3,0-0.6,0.3-0.6,0.6
				l0,82.8c0,0.8,0,1.5,0.2,2.1c0.2,0.7,0.6,1.3,1.4,1.8c0.1,0.1,0.6,0.4,0.6,0.4l72.4,40.5c1.5,0.8,3.2,1.3,4.9,1.3
				c1.7,0,3.4-0.5,4.9-1.3c0,0,0,0,0,0l72.6-40.3h0c0,0,0.1,0,0.1-0.1c1.3-0.8,2.2-2.3,2.2-3.9l0,0v0v-0.3v0L334.5,165.3z"/>
			<path d="M255,295.1c-1.8,0-3.6-0.5-5.2-1.4l-72.4-40.5c0,0-0.5-0.3-0.7-0.4c-0.8-0.6-1.4-1.3-1.7-2.1c-0.2-0.7-0.2-1.5-0.2-2.3
				l0-82.8c0-0.4,0.2-0.8,0.6-1.1l0-0.2l0.6,0c0,0,0,0,0,0l0.6,0v0c7.8,0,78.8-0.4,79.1-0.4h78.2c0.7,0,1.2,0.5,1.2,1.2l0.2,83.6
				c-0.1,1.9-1,3.6-2.5,4.5c0,0-0.1,0.1-0.1,0.1l-72.6,40.4C258.6,294.7,256.8,295.1,255,295.1z M176,165.8l0,82.7
				c0,0.7,0,1.4,0.2,1.9c0.2,0.6,0.6,1.1,1.2,1.5c0.1,0.1,0.6,0.4,0.6,0.4l72.4,40.5c2.9,1.6,6.4,1.6,9.2,0l72.7-40.4
				c1.1-0.7,1.9-2,2-3.5v-0.3l-0.2-83.2c0,0,0,0,0,0h-78.2c-0.3,0-71.7,0.3-79.1,0.4v0L176,165.8z"/>
		</g>
		<path class="st2" d="M334.2,166.1l0,82.6l0,0.3c0,1-0.4,1.7-1,2.4c-0.3,0.4-0.8,0.8-1.3,1.1c-24,13-48.5,26.9-72.4,40.2
			c-1.4,0.8-3,1.2-4.6,1.2l0-121l1.1-6.8H334.2z"/>
		<g>
			<path class="st3" d="M177.2,163L177.2,163c-1,0.5-1.6,1.5-1.6,2.7c0,1.1,0.6,2.2,1.6,2.7l0,0l73.4,38.4c1.4,0.7,3,1.1,4.5,1.1
				c1.6,0,3.1-0.4,4.5-1.1l-0.3-0.5l0.3,0.5l73.4-38.4l0,0c1-0.5,1.6-1.6,1.6-2.7c0-1.1-0.6-2.2-1.6-2.7l0,0l-73.3-35.2
				c-1.4-0.7-3-1-4.5-1c-1.6,0-3.1,0.4-4.5,1v0L177.2,163z"/>
			<path d="M255.1,208.6c-1.7,0-3.4-0.4-4.9-1.2L176.8,169c-1.2-0.6-2-1.9-2-3.4c0-1.4,0.8-2.7,2.1-3.3l0,0l73.3-35.2
				c3.1-1.5,6.7-1.5,9.7,0l73.3,35.2c1.2,0.6,2,1.9,2.1,3.3c0,1.4-0.7,2.7-2,3.4l-73.4,38.4c0,0,0,0,0,0l-0.7,0.3l0,0
				C257.9,208.3,256.5,208.6,255.1,208.6z M177.5,163.7c-0.7,0.4-1.2,1.1-1.2,2c0,0.9,0.4,1.7,1.2,2l73.4,38.4
				c2.6,1.4,5.8,1.3,8.3,0l0.1,0.1l-0.1-0.1l73.4-38.4c0.7-0.4,1.2-1.2,1.2-2c0-0.9-0.5-1.6-1.2-2l-73.3-35.2
				c-2.7-1.3-5.7-1.3-8.4,0L177.5,163.7z"/>
		</g>
		<g>
			<defs>
				<rect id="SVGID_1_" x="220.3" y="147.9" width="71.2" height="34.3"/>
			</defs>
			<clipPath id="SVGID_00000056402583663986601500000005609461951694025657_">
				<use xlink:href="#SVGID_1_"  style="overflow:visible;"/>
			</clipPath>
			<g style="clip-path:url(#SVGID_00000056402583663986601500000005609461951694025657_);">
				<path class="st7" d="M241.1,151.7c-2.5,0.7-4.9,1.5-7.1,2.5c-2.5,1.2-4.5,2.5-6,3.9l9,4.3c2-1.2,4.2-2.5,6.7-3.7
					c2.1-1,4.4-2,6.6-2.8L241.1,151.7L241.1,151.7z M245.1,150.8l8.5,4c3.6-1.2,7.2-2.1,10.6-2.7c2-0.3,4-0.6,5.9-0.7
					C262.3,149.5,253.2,149.3,245.1,150.8z M280.9,152.7c-13.8-6.5-35.9-6.4-49.8,0.1c-14.1,6.7-14.5,17.6-0.5,24.3
					c13.9,6.8,37,6.7,50.9-0.3C295.1,170,294.7,159.2,280.9,152.7L280.9,152.7z M278,154.1c-2.1-1-6.3-1.2-12.3-0.1
					c-2.8,0.5-5.9,1.3-9,2.3l17.2,8.1c2.1-1.5,3.6-3,4.6-4.4C280.6,157.1,280.1,155.1,278,154.1L278,154.1z M276.8,165.8
					c2.4-1.8,4.3-3.5,5.5-5.1c0.7-1,1.2-1.9,1.4-2.8c4.1,3.7,4.7,8.1,1.7,12.1L276.8,165.8z M271.4,166l-18.1-8.6
					c-2.2,0.8-4.4,1.8-6.6,2.8c-2.5,1.2-4.7,2.4-6.6,3.7l18,8.6c2.6-0.9,5.1-2,7.6-3.2C267.7,168.2,269.7,167.1,271.4,166L271.4,166
					z M261,173.9c2.6-1,5.1-2.1,7.6-3.3c2.1-1,4.1-2.1,5.8-3.2l9.3,4.4c-1.4,1.2-3.1,2.4-5.3,3.5c-2.5,1.2-5.3,2.2-8.3,3L261,173.9
					L261,173.9z M254.4,173.7l-16.9-8.1c-1.8,1.4-3.2,2.7-4.2,3.9c-2.3,3-1.9,5.1,0.2,6.1c2.1,1,6.5,1.2,12.7,0.1
					C248.8,175.3,251.6,174.6,254.4,173.7L254.4,173.7z M241.6,178.4c2-0.1,4-0.4,6.1-0.8c3.1-0.6,6.4-1.4,9.8-2.5l8.5,4.1
					C258,180.5,249.2,180.3,241.6,178.4L241.6,178.4z M227.8,171.8c0.3-0.9,0.9-1.9,1.6-2.9c1.2-1.5,2.9-3.1,5.1-4.7l-8.3-4
					C223.5,163.9,224,168.1,227.8,171.8L227.8,171.8z"/>
			</g>
		</g>
	</g>
</g>
</svg>
