<svg width="18" height="20" viewBox="0 0 18 20" fill="none" xmlns="http://www.w3.org/2000/svg">
<path d="M10 1.21999C10 0.546213 10.5462 0 11.22 0H16.78C17.4538 0 18 0.546213 18 1.21999V6.78C18 7.4538 17.4538 8 16.78 8H11.22C10.5462 8 10 7.4538 10 6.78V1.21999Z" fill="#4356FF" fill-opacity="0.8"/>
<path d="M0 11.525C0 10.6827 0.682781 10 1.525 10H8.475C9.31726 10 10 10.6827 10 11.525V18.475C10 19.3172 9.31726 20 8.475 20H1.525C0.682781 20 0 19.3172 0 18.475V11.525Z" fill="#4356FF"/>
<path d="M0 2.71485C0 2.32005 0.320048 2 0.714844 2H4.28516C4.67996 2 5 2.32005 5 2.71484V6.28515C5 6.67996 4.67996 7 4.28516 7H0.714844C0.320048 7 0 6.67996 0 6.28515V2.71485Z" fill="#4356FF" fill-opacity="0.6"/>
</svg>
