<svg width="328" height="347" viewBox="0 0 328 347" fill="none" xmlns="http://www.w3.org/2000/svg">
<g clip-path="url(#clip0_187_6108)">
<path d="M25.2031 278.129L125.853 331.705C158.234 348.933 198.208 346.43 227.936 325.273L319.683 259.998C330.873 252.024 330.751 235.989 319.439 228.19L215.13 156.134C177.657 130.263 126.067 134.192 93.3805 165.418L19.1049 236.368C6.11582 248.765 9.1649 269.573 25.2031 278.129Z" fill="#E8E8E8"/>
<path d="M321.874 206.383L164.306 115.238L6.79858 206.383L163.937 297.65L321.874 206.413V206.383Z" fill="#40FBFF" stroke="black" stroke-width="1.53546" stroke-linejoin="round"/>
<path d="M321.874 206.198L163.937 297.65V323.876L321.874 232.762V206.229V206.198Z" fill="#35DFFF" stroke="black" stroke-width="1.53546" stroke-linejoin="round"/>
<path d="M6.76782 205.738L164 297.404V323.845L6.76782 231.963V205.738Z" fill="url(#paint0_linear_187_6108)" stroke="black" stroke-width="1.53546" stroke-linejoin="round"/>
<path d="M161.818 273.666L309.407 189.278L309.714 202.078L161.818 286.33V273.666Z" fill="#35DFFF" stroke="black" stroke-width="1.53546" stroke-linejoin="round"/>
<path d="M161.818 273.666L25.0398 192.993L25.3469 206.168L161.818 286.377L161.849 273.666H161.818Z" fill="url(#paint1_linear_187_6108)" stroke="black" stroke-width="1.53546" stroke-linejoin="round"/>
<path d="M160.836 115.268L25.0398 192.993L161.818 273.666L309.407 189.278L160.836 115.238V115.268Z" fill="#40FBFF" stroke="black" stroke-width="1.53546" stroke-linejoin="round"/>
<g style="mix-blend-mode:multiply">
<path d="M59.787 135.319L197.886 163.234L173.656 243.569L162.5 234.078L151.5 229.078L149 225.578L127 210.078L112.5 207.078L112 198.578L107.816 196.308L49 194.578L59.787 135.319Z" fill="black" fill-opacity="0.2"/>
</g>
<g style="mix-blend-mode:multiply">
<path d="M189.518 189.078L235 184.078L278.513 206.475L195 255.078L168.083 259.479L189.518 199.811V189.078Z" fill="black" fill-opacity="0.2"/>
</g>
<g style="mix-blend-mode:multiply">
<path d="M241.632 178.898H259.873L276.026 183.074L260.702 189.646L234.323 184.763L241.632 178.929V178.898Z" fill="black" fill-opacity="0.2"/>
</g>
<g style="mix-blend-mode:multiply">
<path d="M230.423 150.523L273.415 170.668L253.332 181.815L220.473 175.244L230.423 150.523Z" fill="black" fill-opacity="0.2"/>
</g>
<path d="M146.003 202.452L146.525 207.242L145.819 206.843C145.512 206.659 145.297 206.26 145.297 205.707V202.052L146.003 202.452Z" fill="#221C3A"/>
<path d="M148.828 199.995L149.535 200.425L145.972 202.483L145.266 202.083L148.828 200.026V199.995Z" fill="#BEC7EE"/>
<path d="M149.535 200.425V204.079C149.535 205.216 148.736 206.598 147.784 207.15C146.802 207.703 146.003 207.273 146.003 206.137V202.483L149.535 200.425Z" fill="#221C3A"/>
<path d="M146.341 207.549C145.88 207.304 145.635 206.782 145.635 206.106V202.482C145.635 202.482 145.696 202.237 145.788 202.175L149.351 200.118C149.351 200.118 149.596 200.056 149.688 200.118C149.811 200.179 149.873 200.302 149.873 200.425V204.079C149.873 205.338 149.043 206.812 147.938 207.457C147.6 207.642 147.262 207.734 146.955 207.734C146.74 207.734 146.525 207.672 146.31 207.549H146.341ZM146.341 202.667V206.106C146.341 206.505 146.464 206.812 146.679 206.935C146.894 207.058 147.232 207.027 147.569 206.812C148.429 206.321 149.166 205.031 149.166 204.049V201.008L146.31 202.667H146.341Z" fill="#221C3A"/>
<path d="M148.03 203.035C148.368 202.851 149.35 202.329 150.548 202.974L150.794 203.127C151.101 203.312 151.377 203.557 151.562 203.834C151.654 203.957 151.746 204.11 151.807 204.233C151.991 204.663 152.053 205.124 152.022 205.615C151.961 206.229 151.776 206.751 151.5 207.242C151.377 207.488 151.224 207.703 151.07 207.887C150.855 208.133 150.64 208.379 150.364 208.594C149.995 208.901 149.565 209.116 149.135 209.208C148.921 209.269 148.706 209.269 148.521 209.269C147.969 209.269 147.569 209.054 147.416 208.962L147.139 208.809C144.928 207.427 146.095 204.172 147.999 203.035H148.03Z" fill="#221C3A"/>
<path d="M148.89 204.141L149.412 208.931L148.706 208.532C148.399 208.348 148.184 207.949 148.184 207.396V203.741L148.89 204.141Z" fill="#221C3A"/>
<path d="M151.715 201.684L152.421 202.083L148.859 204.141L148.153 203.742L151.715 201.684Z" fill="#BEC7EE"/>
<path d="M152.421 202.083V205.738C152.421 206.874 151.623 208.256 150.671 208.809C149.688 209.361 148.89 208.931 148.89 207.795V204.141L152.421 202.083Z" fill="#221C3A"/>
<path d="M149.228 209.208C148.767 208.962 148.521 208.44 148.521 207.765V204.11C148.521 204.11 148.583 203.864 148.706 203.803L152.268 201.746C152.268 201.746 152.514 201.684 152.606 201.746C152.729 201.807 152.79 201.93 152.79 202.053V205.676C152.79 206.935 151.961 208.44 150.855 209.054C150.518 209.239 150.18 209.331 149.903 209.331C149.658 209.331 149.473 209.269 149.259 209.146L149.228 209.208ZM149.228 204.325V207.765C149.228 208.164 149.351 208.471 149.566 208.594C149.781 208.717 150.118 208.686 150.456 208.471C151.316 207.98 152.053 206.72 152.053 205.707V202.698L149.197 204.325H149.228Z" fill="#221C3A"/>
<path d="M145.174 161.302L145.696 166.092L144.99 165.693C144.683 165.509 144.468 165.11 144.468 164.557V160.902L145.174 161.302Z" fill="#221C3A"/>
<path d="M147.999 158.845L148.706 159.244L145.143 161.301L144.437 160.902L147.999 158.845Z" fill="#BEC7EE"/>
<path d="M148.706 159.244V162.898C148.706 164.035 147.907 165.416 146.955 165.969C145.973 166.522 145.174 166.092 145.174 164.956V161.301L148.706 159.244Z" fill="#221C3A"/>
<path d="M145.512 166.399C145.051 166.154 144.806 165.632 144.806 164.956V161.302C144.806 161.302 144.867 161.056 144.99 160.994L148.552 158.937C148.552 158.937 148.798 158.876 148.921 158.937C149.044 158.998 149.105 159.121 149.105 159.244V162.868C149.105 164.127 148.276 165.601 147.17 166.246C146.832 166.43 146.495 166.522 146.218 166.522C145.973 166.522 145.788 166.461 145.573 166.338L145.512 166.399ZM145.512 161.517V164.956C145.512 165.355 145.635 165.662 145.85 165.785C146.065 165.908 146.403 165.877 146.74 165.662C147.6 165.171 148.337 163.912 148.337 162.898V159.889L145.481 161.517H145.512Z" fill="#221C3A"/>
<path d="M147.201 161.885C147.539 161.701 148.521 161.179 149.719 161.823L149.965 161.977C150.272 162.161 150.548 162.407 150.732 162.683C150.825 162.806 150.917 162.96 150.978 163.083C151.162 163.512 151.224 163.973 151.193 164.464C151.132 165.079 150.947 165.601 150.671 166.092C150.548 166.338 150.395 166.553 150.241 166.737C150.026 167.013 149.811 167.228 149.535 167.443C149.166 167.75 148.736 167.965 148.306 168.057C148.091 168.119 147.876 168.119 147.692 168.119C147.139 168.119 146.74 167.904 146.587 167.812L146.31 167.658C144.099 166.276 145.266 163.021 147.17 161.885H147.201Z" fill="#221C3A"/>
<path d="M148.061 162.991L148.583 167.781L147.877 167.382C147.569 167.198 147.354 166.798 147.354 166.246V162.591L148.061 162.991Z" fill="#221C3A"/>
<path d="M150.886 160.503L151.592 160.902L148.03 162.96L147.324 162.53L150.886 160.472V160.503Z" fill="#BEC7EE"/>
<path d="M151.592 160.933V164.587C151.592 165.724 150.794 167.106 149.842 167.658C148.859 168.211 148.061 167.781 148.061 166.645V162.991L151.592 160.933Z" fill="#221C3A"/>
<path d="M148.398 168.058C147.938 167.812 147.692 167.29 147.692 166.614V162.991C147.692 162.991 147.754 162.745 147.846 162.683L151.408 160.626C151.408 160.626 151.654 160.565 151.746 160.626C151.869 160.687 151.93 160.81 151.93 160.933V164.557C151.93 165.816 151.101 167.29 149.995 167.935C149.658 168.119 149.32 168.211 149.043 168.211C148.828 168.211 148.613 168.15 148.398 168.027V168.058ZM148.398 163.175V166.614C148.398 167.013 148.521 167.321 148.736 167.443C148.951 167.566 149.289 167.535 149.627 167.321C150.487 166.829 151.224 165.57 151.224 164.557V161.547L148.368 163.175H148.398Z" fill="#221C3A"/>
<path d="M210.277 209.668L210.769 214.183L210.093 213.784C209.786 213.599 209.602 213.231 209.602 212.709V209.269L210.247 209.668H210.277Z" fill="#221C3A"/>
<path d="M216.604 211.787L217.31 212.187L213.748 214.244L213.041 213.845L216.604 211.787Z" fill="#BEC7EE"/>
<path d="M217.31 212.187V215.841C217.31 216.977 216.511 218.359 215.559 218.912C214.577 219.465 213.778 219.035 213.778 217.898V214.244L217.31 212.187Z" fill="#221C3A"/>
<path d="M214.116 219.342C213.655 219.096 213.41 218.574 213.41 217.898V214.275C213.41 214.275 213.471 214.029 213.594 213.968L217.156 211.91C217.156 211.91 217.402 211.849 217.494 211.91C217.617 211.972 217.678 212.094 217.678 212.217V215.872C217.678 217.131 216.849 218.605 215.744 219.25C215.406 219.434 215.068 219.526 214.792 219.526C214.546 219.526 214.362 219.465 214.147 219.342H214.116ZM214.116 214.459V217.898C214.116 218.298 214.239 218.605 214.454 218.728C214.669 218.85 215.007 218.82 215.344 218.605C216.204 218.113 216.941 216.854 216.941 215.841V212.801L214.085 214.459H214.116Z" fill="#221C3A"/>
<path d="M212.181 210.221C212.489 210.068 213.44 209.546 214.577 210.16L214.822 210.313C215.13 210.498 215.375 210.713 215.529 210.958C215.621 211.081 215.682 211.204 215.744 211.357C215.928 211.757 215.989 212.217 215.928 212.647C215.867 213.231 215.682 213.722 215.437 214.183C215.314 214.398 215.191 214.613 215.037 214.797C214.853 215.043 214.638 215.257 214.392 215.442C214.024 215.718 213.655 215.933 213.256 216.025C213.041 216.087 212.857 216.087 212.703 216.087C212.181 216.087 211.813 215.872 211.659 215.78L211.414 215.626C209.325 214.336 210.431 211.235 212.243 210.19L212.181 210.221Z" fill="#221C3A"/>
<path d="M213.011 211.235L213.502 215.749L212.826 215.35C212.519 215.165 212.335 214.797 212.335 214.275V210.835L213.011 211.235Z" fill="#221C3A"/>
<path d="M215.682 210.16L216.358 210.559L213.011 211.265L212.335 210.866L215.682 210.16Z" fill="#BEC7EE"/>
<path d="M216.358 210.559V212.739C216.358 213.814 215.621 215.104 214.699 215.626C213.778 216.148 213.041 215.718 213.01 214.674V211.235L216.358 210.528V210.559Z" fill="#221C3A"/>
<path d="M213.318 216.056C212.888 215.81 212.642 215.319 212.642 214.674V211.235C212.642 211.081 212.734 210.928 212.888 210.897L216.235 210.221C216.235 210.221 216.45 210.221 216.511 210.283C216.573 210.344 216.634 210.436 216.634 210.528V212.709C216.634 213.906 215.836 215.288 214.792 215.902C214.485 216.087 214.178 216.179 213.87 216.179C213.655 216.179 213.441 216.117 213.256 216.025L213.318 216.056ZM213.318 211.511V214.674C213.318 215.073 213.441 215.35 213.655 215.472C213.87 215.595 214.178 215.534 214.515 215.35C215.344 214.889 216.02 213.691 216.02 212.739V210.958L213.318 211.511Z" fill="#221C3A"/>
<path d="M253.946 181.078L254.468 185.869L253.762 185.47C253.454 185.285 253.24 184.886 253.24 184.333V180.71L253.946 181.109V181.078Z" fill="#221C3A"/>
<path d="M256.771 178.622L257.478 179.021L253.915 181.078L253.209 180.679L256.771 178.622Z" fill="#BEC7EE"/>
<path d="M257.477 179.052V182.706C257.477 183.842 256.679 185.224 255.727 185.777C254.744 186.33 253.946 185.9 253.946 184.763V181.109L257.477 179.052Z" fill="#221C3A"/>
<path d="M254.284 186.176C253.823 185.93 253.577 185.408 253.577 184.733V181.109C253.577 181.109 253.639 180.863 253.762 180.802L257.324 178.744C257.324 178.744 257.57 178.683 257.662 178.744C257.785 178.806 257.846 178.929 257.846 179.051V182.706C257.846 183.965 257.017 185.439 255.911 186.084C255.573 186.268 255.236 186.36 254.929 186.36C254.683 186.36 254.499 186.299 254.284 186.176ZM254.284 181.293V184.733C254.284 185.132 254.407 185.439 254.621 185.562C254.836 185.685 255.174 185.654 255.512 185.439C256.372 184.948 257.109 183.689 257.109 182.675V179.635L254.253 181.293H254.284Z" fill="#221C3A"/>
<path d="M255.973 181.662C256.311 181.477 257.293 180.955 258.491 181.6L258.737 181.754C259.044 181.938 259.32 182.184 259.504 182.46C259.597 182.583 259.689 182.737 259.75 182.859C259.934 183.289 259.996 183.75 259.965 184.241C259.904 184.856 259.719 185.378 259.443 185.869C259.32 186.115 259.167 186.33 259.013 186.514C258.798 186.759 258.583 187.005 258.307 187.22C257.938 187.527 257.508 187.742 257.078 187.834C256.863 187.896 256.648 187.896 256.464 187.896C255.911 187.896 255.512 187.681 255.359 187.589L255.082 187.435C252.871 186.053 254.038 182.798 255.942 181.662H255.973Z" fill="#221C3A"/>
<path d="M256.833 182.767L257.355 187.558L256.648 187.159C256.341 186.974 256.126 186.575 256.126 186.022V182.368L256.833 182.767Z" fill="#221C3A"/>
<path d="M259.658 180.311L260.364 180.71L256.802 182.767L256.095 182.368L259.658 180.311Z" fill="#BEC7EE"/>
<path d="M260.364 180.71V184.364C260.364 185.5 259.566 186.882 258.614 187.435C257.631 187.988 256.833 187.558 256.833 186.422V182.767L260.364 180.71Z" fill="#221C3A"/>
<path d="M257.17 187.834C256.71 187.588 256.464 187.066 256.464 186.391V182.767C256.464 182.767 256.525 182.521 256.648 182.46L260.21 180.403C260.21 180.403 260.456 180.341 260.548 180.403C260.671 180.464 260.732 180.587 260.732 180.71V184.364C260.732 185.623 259.903 187.097 258.798 187.742C258.46 187.926 258.122 188.018 257.846 188.018C257.6 188.018 257.416 187.957 257.201 187.834H257.17ZM257.17 182.951V186.391C257.17 186.79 257.293 187.097 257.508 187.22C257.723 187.343 258.03 187.312 258.399 187.097C259.258 186.606 259.995 185.347 259.995 184.333V181.293L257.139 182.951H257.17Z" fill="#221C3A"/>
<path d="M214.177 149.11C214.515 148.926 215.498 148.404 216.696 149.049L216.941 149.202C217.248 149.386 217.525 149.632 217.709 149.908C217.801 150.031 217.893 150.185 217.955 150.308C218.139 150.738 218.2 151.198 218.17 151.69C218.108 152.304 217.924 152.826 217.648 153.317C217.525 153.563 217.371 153.778 217.218 153.962C217.003 154.208 216.788 154.453 216.511 154.668C216.143 154.975 215.713 155.19 215.283 155.283C215.068 155.344 214.853 155.344 214.669 155.344C214.116 155.344 213.717 155.129 213.563 155.037L213.287 154.883C211.076 153.501 212.243 150.246 214.147 149.11H214.177Z" fill="#221C3A"/>
<path d="M215.037 150.185L215.559 154.976L214.853 154.576C214.546 154.392 214.331 153.993 214.331 153.44V149.816L215.037 150.216V150.185Z" fill="#221C3A"/>
<path d="M217.863 147.728L218.569 148.158L215.007 150.215L214.3 149.816L217.863 147.759V147.728Z" fill="#BEC7EE"/>
<path d="M218.569 148.127V151.782C218.569 152.918 217.77 154.3 216.818 154.853C215.836 155.405 215.037 154.975 215.037 153.839V150.185L218.569 148.127Z" fill="#221C3A"/>
<path d="M215.375 155.283C214.915 155.037 214.669 154.515 214.669 153.839V150.216C214.669 150.216 214.73 149.97 214.853 149.909L218.415 147.851C218.415 147.851 218.661 147.79 218.753 147.851C218.845 147.912 218.938 148.035 218.938 148.158V151.782C218.938 153.041 218.108 154.546 217.003 155.16C216.665 155.344 216.327 155.436 216.02 155.436C215.805 155.436 215.59 155.375 215.375 155.252V155.283ZM215.375 150.4V153.839C215.375 154.239 215.498 154.546 215.713 154.668C215.928 154.791 216.266 154.761 216.604 154.546C217.463 154.054 218.201 152.795 218.201 151.782V148.772L215.345 150.4H215.375Z" fill="#221C3A"/>
<path d="M204.105 172.848V179.666L219.03 147.636V145.855L204.105 172.848Z" fill="#221C3A"/>
<path d="M204.043 180.034C203.89 180.003 203.767 179.85 203.767 179.696V172.848C203.767 172.848 203.767 172.725 203.767 172.664L218.692 145.671C218.692 145.671 218.937 145.456 219.091 145.486C219.244 145.517 219.367 145.671 219.367 145.824C219.367 145.824 219.367 147.605 219.367 147.759L204.443 179.789C204.443 179.789 204.258 180.003 204.105 180.003C204.105 180.003 204.043 180.003 204.013 180.003L204.043 180.034ZM218.661 147.237L204.443 172.94V178.069L218.661 147.575V147.237Z" fill="#221C3A"/>
<path d="M143.915 160.779V162.561L189.457 182.583V175.735L143.915 160.749V160.779Z" fill="#4C4A91"/>
<path d="M189.303 182.952L143.792 162.929C143.792 162.929 143.577 162.745 143.577 162.591V160.81C143.577 160.81 143.608 160.595 143.7 160.534C143.792 160.472 143.915 160.442 144.007 160.472L189.518 175.459C189.518 175.459 189.764 175.643 189.764 175.796V182.645C189.764 182.645 189.733 182.89 189.61 182.952C189.549 182.982 189.487 183.013 189.426 183.013C189.364 183.013 189.334 183.013 189.272 183.013L189.303 182.952ZM144.283 161.271V162.346L189.088 182.061V176.042L144.283 161.271Z" fill="#4C4A91"/>
<path d="M204.258 178.406V185.255L261.469 183.443V181.662L204.258 178.406Z" fill="#221C3A"/>
<path d="M204.013 185.5C204.013 185.5 203.921 185.347 203.921 185.255V178.406C203.921 178.406 203.921 178.222 204.013 178.161C204.074 178.099 204.166 178.069 204.289 178.069L261.5 181.324C261.685 181.324 261.838 181.477 261.838 181.662V183.443C261.838 183.627 261.715 183.781 261.5 183.811L204.289 185.592C204.197 185.592 204.105 185.562 204.043 185.5H204.013ZM261.101 181.999L204.596 178.806V184.886L261.101 183.105V181.999Z" fill="#221C3A"/>
<path d="M148.03 204.172V205.953L195.199 187.036V180.188L148.03 204.141V204.172Z" fill="#221C3A"/>
<path d="M147.846 206.26C147.846 206.26 147.692 206.076 147.692 205.983V204.202C147.692 204.202 147.754 203.926 147.876 203.895L195.015 179.942C195.015 179.942 195.261 179.881 195.353 179.942C195.445 180.004 195.537 180.126 195.537 180.249V187.097C195.537 187.097 195.445 187.374 195.322 187.435C195.322 187.435 148.183 206.352 148.03 206.383C147.969 206.383 147.876 206.383 147.846 206.321V206.26ZM194.831 180.771L148.398 204.387V205.431L194.831 186.79V180.771Z" fill="#221C3A"/>
<path d="M144.836 201.745V203.526L148.03 205.983V204.202L144.836 201.745Z" fill="#221C3A"/>
<path d="M211.997 211.511V213.2L216.757 212.248V210.559L211.997 211.511Z" fill="#221C3A"/>
<path d="M211.813 213.476C211.813 213.476 211.69 213.323 211.69 213.231V211.542C211.69 211.388 211.782 211.235 211.936 211.204L216.665 210.252C216.665 210.252 216.88 210.252 216.941 210.313C217.003 210.375 217.064 210.467 217.064 210.559V212.248C217.064 212.402 216.972 212.555 216.818 212.586C216.818 212.586 212.089 213.538 211.997 213.538C211.936 213.538 211.843 213.538 211.782 213.476H211.813ZM216.419 210.989L212.335 211.787V212.801L216.419 212.002V210.989Z" fill="#221C3A"/>
<path d="M195.168 180.218V187.066L215.621 217.991V216.209L195.168 180.249V180.218Z" fill="#4C4A91"/>
<path d="M215.345 218.175L194.892 187.251C194.892 187.251 194.831 187.128 194.831 187.066V180.218C194.831 180.065 194.923 179.911 195.076 179.88C195.23 179.85 195.384 179.88 195.476 180.065L215.928 216.025C215.928 216.025 215.959 216.148 215.959 216.209V217.991C215.959 218.144 215.867 218.298 215.621 218.359C215.498 218.359 215.406 218.298 215.314 218.206L215.345 218.175ZM195.537 181.569V186.944L215.252 216.793V216.302L195.537 181.6V181.569Z" fill="#4C4A91"/>
<path d="M146.955 158.292L143.915 160.81L189.426 175.796L144.836 201.745L147.999 204.202L195.138 180.249L215.559 216.209L220.596 215.227L204.228 178.437L261.439 181.692L261.378 178.652L204.105 172.91L219.03 145.916L213.963 145.026L194.954 171.282L146.955 158.323V158.292Z" fill="#221C3A"/>
<path d="M215.283 216.363L195.015 180.679L148.184 204.479C148.184 204.479 147.907 204.54 147.815 204.448L144.652 201.991C144.652 201.991 144.498 201.807 144.529 201.684C144.529 201.561 144.591 201.469 144.713 201.408L188.628 175.858L143.854 161.117C143.854 161.117 143.639 160.964 143.608 160.841C143.608 160.718 143.608 160.595 143.731 160.503L146.771 157.985C146.771 157.985 146.986 157.893 147.078 157.924L194.831 170.821L213.717 144.749C213.717 144.749 213.932 144.565 214.055 144.596L219.122 145.486C219.122 145.486 219.337 145.578 219.367 145.671C219.429 145.763 219.429 145.886 219.367 146.008L204.719 172.51L261.439 178.192C261.623 178.192 261.746 178.376 261.746 178.529L261.807 181.57C261.807 181.57 261.777 181.754 261.715 181.846C261.654 181.907 261.531 181.969 261.439 181.938L204.811 178.714L220.964 214.95C220.964 214.95 220.995 215.165 220.964 215.257C220.903 215.35 220.811 215.411 220.719 215.442C220.719 215.442 215.713 216.424 215.621 216.455C215.498 216.455 215.375 216.394 215.314 216.271L215.283 216.363ZM203.921 178.56C203.921 178.56 203.89 178.314 203.951 178.222C204.013 178.13 204.136 178.069 204.258 178.069L261.07 181.293L261.009 178.929L204.044 173.217C204.044 173.217 203.829 173.125 203.767 173.032C203.706 172.94 203.706 172.787 203.767 172.695L218.446 146.162L214.085 145.394L195.199 171.497C195.199 171.497 194.954 171.681 194.831 171.62L147.017 158.691L144.621 160.687L189.518 175.489C189.518 175.489 189.733 175.643 189.764 175.796C189.794 175.95 189.702 176.073 189.58 176.134L145.45 201.807L148.03 203.803L194.984 179.942C195.138 179.85 195.353 179.942 195.445 180.096L215.744 215.841L220.074 214.981L203.89 178.591L203.921 178.56Z" fill="#221C3A"/>
<path d="M202.846 152.396V174.752C202.846 175.489 202.324 176.226 201.372 176.779C199.407 177.915 196.213 177.915 194.217 176.779C193.234 176.195 192.743 175.458 192.743 174.691V152.334L202.846 152.396Z" fill="#221C3A"/>
<path d="M194.063 177.086C192.988 176.472 192.405 175.612 192.405 174.691V152.334C192.405 152.334 192.435 152.15 192.497 152.089C192.558 152.027 192.65 151.997 192.743 151.997L202.846 152.058C203.03 152.058 203.184 152.212 203.184 152.396V174.752C203.184 175.643 202.57 176.472 201.525 177.086C200.481 177.669 199.13 177.977 197.779 177.977C196.428 177.977 195.076 177.669 194.032 177.086H194.063ZM193.111 152.703V174.691C193.111 175.336 193.572 175.98 194.401 176.472C196.274 177.547 199.314 177.547 201.188 176.472C202.017 175.98 202.477 175.366 202.508 174.752V152.764L193.111 152.703Z" fill="#221C3A"/>
<path d="M194.217 154.423C196.182 155.559 199.376 155.559 201.372 154.423C203.337 153.287 203.337 151.444 201.372 150.308C199.407 149.172 196.213 149.172 194.217 150.308C192.251 151.444 192.251 153.287 194.217 154.423Z" fill="#BEC7EE"/>
<path d="M203.491 148.68V155.098C203.491 155.927 202.907 156.757 201.833 157.401C199.621 158.691 195.998 158.691 193.787 157.401C192.65 156.757 192.098 155.897 192.128 155.037V148.619L203.522 148.68H203.491Z" fill="#221C3A"/>
<path d="M197.81 151.935C200.942 151.935 203.491 150.461 203.491 148.649C203.491 146.838 200.942 145.364 197.81 145.364C194.677 145.364 192.128 146.838 192.128 148.649C192.128 150.461 194.677 151.935 197.81 151.935Z" fill="#2B2633"/>
<path d="M201.403 128.873V148.281C201.403 148.803 201.034 149.325 200.358 149.724C198.946 150.523 196.673 150.523 195.261 149.724C194.554 149.325 194.186 148.772 194.217 148.25V128.842H201.433V128.873H201.403Z" fill="#6361C2"/>
<path d="M194.984 150.185C194.124 149.694 193.664 148.987 193.664 148.22V128.811C193.664 128.811 193.725 128.535 193.817 128.443C193.909 128.351 194.063 128.289 194.186 128.289H201.403C201.679 128.32 201.925 128.566 201.925 128.873V148.281C201.925 149.018 201.433 149.694 200.604 150.185C199.806 150.646 198.792 150.861 197.779 150.861C196.765 150.861 195.752 150.615 194.954 150.185H194.984ZM194.739 129.364V148.25C194.739 148.619 195.015 148.987 195.537 149.264C196.765 149.97 198.854 149.97 200.113 149.264C200.604 148.987 200.911 148.619 200.911 148.281V129.426H194.769L194.739 129.364Z" fill="#403D8B"/>
<path d="M202.784 161.885L200.788 160.718C200.174 160.35 199.775 159.551 199.775 158.446C199.775 156.173 201.372 153.44 203.337 152.304C204.32 151.72 205.241 151.69 205.886 152.058L207.882 153.225L202.815 161.885H202.784Z" fill="#2B2633"/>
<path d="M205.333 153.471C203.368 154.607 201.771 157.34 201.771 159.613C201.771 161.885 203.368 162.806 205.333 161.67C207.299 160.534 208.896 157.801 208.896 155.528C208.896 153.256 207.299 152.335 205.333 153.471Z" fill="#221C3A"/>
<path d="M205.333 155.16C204.197 155.835 203.245 157.432 203.245 158.753C203.245 160.073 204.166 160.626 205.333 159.95C206.47 159.275 207.422 157.678 207.422 156.357C207.422 155.037 206.5 154.484 205.333 155.16Z" fill="#8A91B8"/>
<path d="M197.195 199.135C197.195 204.386 197.902 209.238 197.871 216.424C197.871 217.254 197.871 218.144 197.748 218.973C197.748 220.539 197.779 222.259 196.704 223.365C194.892 225.177 187.645 226.405 185.157 224.04C183.622 222.566 183.346 220.14 183.714 217.376C183.53 211.665 187.584 203.127 188.167 198.183C188.167 197.784 188.198 197.415 188.198 197.016C187.921 196.648 187.737 196.218 187.676 195.696C187.491 194.252 187.399 192.41 187.307 190.23L152.422 204.233V205.738C152.422 206.874 151.623 208.256 150.64 208.809C150.272 209.024 149.934 209.054 149.627 208.993C149.443 209.085 149.289 209.208 149.105 209.269C148.89 209.331 148.675 209.331 148.491 209.331C147.938 209.331 147.539 209.116 147.385 209.024L147.109 208.87C146.372 208.409 146.034 207.734 145.973 207.027L145.788 206.905C145.481 206.72 145.266 206.321 145.266 205.768V203.957L144.806 203.619V201.838L178.924 181.969C186.232 186.79 192.159 192.686 197.195 199.227V199.135Z" fill="#221C3A"/>
<path d="M184.912 224.286C183.438 222.873 182.946 220.601 183.346 217.346C183.223 213.906 184.574 209.638 185.895 205.492C186.754 202.728 187.584 200.087 187.829 198.122C187.829 197.937 187.829 197.753 187.829 197.569C187.829 197.385 187.829 197.231 187.829 197.047C187.553 196.617 187.369 196.156 187.307 195.665C187.123 194.314 187.061 192.625 186.969 190.69L152.79 204.417V205.707C152.79 206.966 151.93 208.471 150.855 209.085C150.487 209.3 150.088 209.361 149.658 209.361C149.535 209.423 149.381 209.515 149.228 209.546C148.982 209.607 148.767 209.638 148.552 209.607C147.907 209.607 147.447 209.331 147.262 209.238L146.986 209.085C146.28 208.655 145.85 207.979 145.666 207.119C145.205 206.874 144.959 206.352 144.959 205.676V204.018L144.652 203.772C144.652 203.772 144.529 203.588 144.529 203.496V201.715C144.529 201.715 144.591 201.469 144.683 201.408L178.801 181.539C178.801 181.539 179.077 181.477 179.169 181.539C186.017 186.053 192.036 191.704 197.503 198.859C197.564 198.92 197.564 199.012 197.564 199.074C197.564 201.469 197.718 203.834 197.871 206.321C198.055 209.208 198.27 212.494 198.24 216.363V216.639C198.24 217.407 198.24 218.205 198.117 219.096C198.117 220.662 198.117 222.413 196.95 223.58C195.752 224.777 192.62 225.668 189.764 225.668C187.798 225.668 185.956 225.269 184.912 224.255V224.286ZM178.954 182.276L145.205 201.93V203.342L145.543 203.588C145.635 203.649 145.666 203.772 145.666 203.864V205.676C145.666 206.075 145.788 206.382 146.003 206.505L146.188 206.628C146.188 206.628 146.341 206.782 146.372 206.905C146.464 207.611 146.802 208.133 147.355 208.501L147.631 208.655C147.631 208.655 148.122 208.901 148.583 208.931C148.736 208.931 148.921 208.931 149.074 208.87C149.136 208.87 149.228 208.808 149.289 208.747C149.351 208.716 149.443 208.655 149.504 208.624C149.596 208.594 149.658 208.594 149.75 208.624C149.996 208.686 150.241 208.624 150.487 208.501C151.347 208.01 152.084 206.751 152.084 205.738V204.233C152.084 204.233 152.176 203.956 152.299 203.895L187.184 189.892C187.184 189.892 187.43 189.861 187.522 189.892C187.614 189.953 187.676 190.076 187.676 190.168V190.567C187.798 192.533 187.86 194.222 188.044 195.573C188.106 196.003 188.259 196.371 188.536 196.74C188.566 196.801 188.597 196.893 188.597 196.955C188.597 197.17 188.597 197.385 188.597 197.6C188.597 197.784 188.597 197.937 188.597 198.152C188.351 200.241 187.522 202.882 186.632 205.676C185.403 209.576 184.021 213.968 184.144 217.346C183.745 220.386 184.206 222.474 185.495 223.733C187.768 225.914 194.739 224.869 196.551 223.088C197.503 222.136 197.503 220.601 197.503 219.096V218.881C197.625 218.175 197.625 217.407 197.625 216.639V216.363C197.625 212.494 197.441 209.238 197.257 206.352C197.103 203.895 196.95 201.561 196.95 199.197C191.576 192.226 185.71 186.667 179.046 182.245L178.954 182.276Z" fill="#221C3A"/>
<path d="M193.625 70.8086C193.532 69.8833 192.946 69.0197 191.774 68.3411L191.034 67.9093C188.289 66.3363 183.477 66.5213 180.3 68.3411L157.939 81.2953C156.243 82.2823 155.379 83.516 155.317 84.688V88.6051C155.317 89.623 155.934 90.5791 157.168 91.3193L157.908 91.7512C160.653 93.3242 165.465 93.1391 168.611 91.3193L190.972 78.3652C192.607 77.409 193.471 76.237 193.594 75.0958V70.8394L193.625 70.8086Z" fill="#221C3A"/>
<path d="M158.093 87.5872L157.353 87.1554C156.058 86.4152 155.564 85.4591 155.688 84.5029C155.811 83.5468 156.582 82.4673 158.124 81.5728L180.486 68.6186C181.997 67.7242 183.94 67.2307 185.821 67.169C187.703 67.1073 189.523 67.4466 190.818 68.1868L191.558 68.6186C192.854 69.3589 193.347 70.315 193.224 71.2711C193.1 72.2273 192.329 73.3068 190.787 74.2013L168.426 87.1554C166.914 88.0499 164.971 88.5434 163.09 88.6051C161.208 88.6668 159.389 88.3275 158.093 87.5872Z" fill="#6EBE45" stroke="#221C3A" stroke-width="0.23"/>
<path d="M213.796 0.640056C212.161 -0.223556 210.064 -0.131026 207.782 1.19524L206.394 1.99716C201.212 4.98896 197.017 13.0391 197.017 19.948V112.786L209.447 105.6V108.561L194.519 120.775L160.622 143.568L203.865 166.269L235.664 149.459L251.271 136.104L256.329 24.7903L213.796 0.640056Z" fill="#6EBE45" stroke="#221C3A" stroke-width="0.47"/>
<path d="M248.186 48.9406L197.233 20.3489" stroke="#221C3A" stroke-width="0.76"/>
<path d="M248.186 89.4996L197.233 60.9078" stroke="#221C3A" stroke-width="0.76"/>
<path d="M240.568 136.536L193.254 113.526L155.656 135.95C155.965 137.677 156.428 139.281 156.983 140.761C157.014 140.761 163.922 141.748 167.13 141.07C170.338 140.391 240.784 146.159 221.877 146.714C224.776 145.11 234.924 141.224 240.568 136.536Z" fill="black" fill-opacity="0.2"/>
<path d="M251.363 24.9138L249.975 25.7157C244.794 28.7075 240.599 36.7576 240.599 43.6665V136.505L207.103 155.874C204.79 157.201 202.908 160.84 202.908 163.924C202.908 167.009 204.79 168.458 207.103 167.101L253.923 140.021C257.686 137.831 260.74 132.002 260.74 126.974V31.9769C260.74 25.0371 256.545 21.8603 251.363 24.8521V24.9138Z" fill="#221C3A"/>
<path d="M114.882 93.7868L130.735 66.6447L133.85 64.2389L134.005 64.1464L134.56 63.8379C135.023 63.5604 135.732 63.1902 136.565 62.7276C138.261 61.8023 140.543 60.5069 143.042 59.1498C148.008 56.4047 153.652 53.2587 156.489 51.7474C159.605 50.051 162.812 47.0592 165.095 44.6843C167.223 42.4327 170.215 41.199 173.299 41.1681L202.878 41.0139V41.0756C203.032 41.2298 203.155 41.4457 203.34 41.7233C203.68 42.2785 204.142 42.9879 204.667 43.759C205.16 44.53 205.715 45.332 206.209 46.0105C206.702 46.6891 207.134 47.2751 207.473 47.5527C207.689 47.7686 208.399 48.3855 209.447 49.2799C210.403 50.1127 211.637 51.1614 212.994 52.3642C215.832 54.8626 219.317 57.9469 222.186 60.7228C222.833 61.3705 222.988 62.4808 222.71 64.1155C222.432 65.7194 221.754 67.6625 220.921 69.8215C220.674 70.5001 220.397 71.1786 220.119 71.8572C218.639 75.6201 217.035 79.7531 216.634 83.3001C214.475 102.793 216.603 117.289 220.983 126.265C220.983 126.265 220.983 126.265 220.983 126.296C220.921 126.419 220.829 126.604 220.736 126.851C220.52 127.313 220.181 127.992 219.749 128.794C218.885 130.429 217.621 132.588 216.048 134.839C214.475 137.06 212.563 139.342 210.434 141.162C208.306 142.982 205.962 144.308 203.464 144.709C198.375 145.511 192.422 144.709 187.425 141.748C182.459 138.787 178.419 133.605 177.185 125.617V125.339L176.877 125.309H176.846H176.692C176.692 125.309 176.322 125.216 176.044 125.185C175.489 125.093 174.687 124.969 173.7 124.815C171.726 124.507 169.043 124.044 166.205 123.52C163.367 122.995 160.345 122.409 157.692 121.823C155.04 121.237 152.788 120.62 151.462 120.065C151.184 119.942 151.092 119.603 151.277 119.356C151.74 118.739 152.511 117.845 153.467 116.765C153.744 116.426 154.053 116.086 154.361 115.747C155.718 114.174 157.291 112.293 158.834 110.226C161.918 106.155 164.848 101.374 165.28 97.1795C165.773 92.4297 165.557 86.1376 165.126 80.555C164.694 75.0032 164.046 70.13 163.645 68.2485L163.553 67.8167L163.152 67.9709L163.275 68.3102C163.193 68.084 163.152 67.9709 163.152 67.9709H163.121L162.997 68.0326C162.997 68.0326 162.72 68.1252 162.504 68.2177C162.072 68.3719 161.486 68.6187 160.715 68.8654C159.234 69.4206 157.168 70.1608 154.978 70.9319C150.568 72.5049 145.602 74.1704 143.227 74.6639H143.103L143.011 74.7873L143.288 75.0341C143.103 74.8696 143.011 74.7873 143.011 74.7873L142.98 74.849L142.826 75.0341C142.826 75.0341 142.487 75.4042 142.24 75.6818C141.715 76.2369 140.975 77.0697 140.05 78.0567C138.199 80.0615 135.639 82.7449 132.863 85.6441C127.774 90.9184 121.883 96.7477 117.997 99.8012C118.09 99.4003 118.182 98.9685 118.182 98.4441C118.182 97.673 117.997 96.8403 117.473 95.9767C116.979 95.2056 116.208 94.4345 115.005 93.7559L114.882 93.7868Z" fill="#C3D4FF"/>
<path d="M176.877 125.309L177.185 125.339V125.617C178.419 133.605 182.459 138.787 187.425 141.748C192.422 144.709 198.375 145.511 203.464 144.709C205.962 144.308 208.306 142.982 210.434 141.162C212.563 139.342 214.475 137.06 216.048 134.839C217.621 132.588 218.885 130.429 219.749 128.794C220.181 127.992 220.52 127.313 220.736 126.851C220.829 126.604 220.921 126.419 220.983 126.296C220.983 126.265 220.983 126.265 220.983 126.265C216.603 117.289 214.475 102.793 216.634 83.3001C217.035 79.7531 218.639 75.6201 220.119 71.8572C220.397 71.1787 220.674 70.5001 220.921 69.8215C221.754 67.6625 222.432 65.7194 222.71 64.1155C222.988 62.4808 222.833 61.3705 222.186 60.7228C219.317 57.9469 215.832 54.8626 212.994 52.3642C211.637 51.1614 210.403 50.1127 209.447 49.2799C208.399 48.3855 207.689 47.7686 207.473 47.5527C207.134 47.2751 206.702 46.6891 206.209 46.0105C205.715 45.332 205.16 44.53 204.667 43.759C204.142 42.9879 203.68 42.2785 203.34 41.7233C203.155 41.4457 203.032 41.2298 202.878 41.0756V41.0139L173.299 41.1681C170.215 41.199 167.223 42.4327 165.095 44.6843C162.812 47.0592 159.605 50.051 156.489 51.7474C153.652 53.2587 148.008 56.4047 143.042 59.1498C140.543 60.5069 138.261 61.8023 136.565 62.7276C135.732 63.1902 135.023 63.5604 134.56 63.8379L134.005 64.1464L133.85 64.2389L130.735 66.6447L114.882 93.7868L115.005 93.7559C116.208 94.4345 116.979 95.2056 117.473 95.9767C117.997 96.8403 118.182 97.673 118.182 98.4441C118.182 98.9685 118.09 99.4003 117.997 99.8012C121.883 96.7477 127.774 90.9184 132.863 85.6441C135.639 82.7449 138.199 80.0615 140.05 78.0567C140.975 77.0697 141.715 76.2369 142.24 75.6818C142.487 75.4042 142.826 75.0341 142.826 75.0341L142.98 74.849L143.011 74.7873M176.877 125.309L176.815 125.679M176.877 125.309H176.846H176.692C176.692 125.309 176.322 125.216 176.044 125.185C175.489 125.093 174.687 124.969 173.7 124.815C171.726 124.507 169.043 124.044 166.205 123.52C163.367 122.995 160.345 122.409 157.692 121.823C155.04 121.237 152.788 120.62 151.462 120.065C151.184 119.942 151.092 119.603 151.277 119.356C151.74 118.739 152.511 117.845 153.467 116.765C153.744 116.426 154.053 116.086 154.361 115.747C155.718 114.174 157.291 112.293 158.834 110.226C161.918 106.155 164.848 101.374 165.28 97.1795C165.773 92.4297 165.557 86.1376 165.126 80.555C164.694 75.0032 164.046 70.13 163.645 68.2485L163.553 67.8167L163.152 67.9709M163.152 67.9709L163.275 68.3102C163.193 68.084 163.152 67.9709 163.152 67.9709ZM163.152 67.9709H163.121L162.997 68.0326C162.997 68.0326 162.72 68.1252 162.504 68.2177C162.072 68.3719 161.486 68.6187 160.715 68.8654C159.234 69.4206 157.168 70.1608 154.978 70.9319C150.568 72.5049 145.602 74.1704 143.227 74.6639H143.103L143.011 74.7873M143.011 74.7873L143.288 75.0341C143.103 74.8696 143.011 74.7873 143.011 74.7873Z" stroke="#6361C2" stroke-width="0.74"/>
<path d="M176.476 50.5754C176.476 50.5754 171.818 67.8168 176.753 85.5208C176.753 85.5208 194.704 51.9633 196.647 46.5349C198.59 41.1065 199.3 37.2203 197.48 35.2771C195.691 33.3032 179.437 43.4198 179.437 43.4198L176.476 50.6062V50.5754Z" fill="#FFF8F8"/>
<path d="M181.842 57.8852L185.544 55.0784L186.901 57.8852C186.901 57.8852 193.686 52.8886 194.118 51.9633C194.118 51.9633 188.659 55.7261 186.932 56.2813C186.932 56.2813 186.13 54.9242 185.05 54.4616C183.971 53.9989 181.318 57.6693 181.318 57.6693C181.318 57.6693 180.701 57.6384 181.842 57.8543V57.8852Z" fill="#C4CCD6"/>
<path d="M185.081 54.4924C185.081 54.4924 182.058 49.1257 178.08 50.7604C178.08 50.7604 177.463 57.3608 177.987 57.9777C177.093 59.1497 174.903 62.3266 174.502 65.8427C173.391 75.6817 176.722 85.4899 176.722 85.4899L179.375 80.4625C179.375 80.4625 180.054 74.4172 181.812 67.9401C183.107 63.1285 182.459 59.3348 182.028 57.6693C183.169 56.744 185.081 54.4616 185.081 54.4616V54.4924Z" fill="#6361C2"/>
<path d="M168.087 23.094C168.087 23.094 167.254 27.2887 167.562 28.0906C167.871 28.8926 168.919 29.4169 168.673 31.0516C168.426 32.6863 169.351 37.5595 169.845 39.1942C169.845 39.1942 169.505 40.9214 169.968 41.4766C170.461 42.0318 171.078 42.001 171.541 42.8029C172.004 43.6048 172.158 47.8612 173.854 49.2491C175.551 50.6679 177.771 50.9455 178.913 50.6371C180.054 50.3286 181.226 49.465 181.226 49.465L183.817 50.5446C183.817 50.5446 197.172 46.7508 196.74 37.3436V36.3566C196.74 36.3566 197.696 35.0304 197.943 34.1668C198.22 33.3032 200.41 29.3861 199.3 27.7205C199.3 27.7205 204.482 7.27142 188.536 6.03769C172.59 4.80396 170.184 16.0001 168.087 23.1249V23.094Z" fill="#FCBE9F"/>
<path d="M196.74 37.3745V37.2511C196.061 36.8501 195.414 36.6034 194.889 36.6959C193.07 37.0043 193.501 33.2415 193.501 33.2415C193.501 33.2415 193.162 33.92 192.237 38.7932C191.311 43.6356 181.257 49.4959 181.257 49.4959L183.847 50.5754C183.847 50.5754 197.203 46.7817 196.771 37.3745H196.74Z" fill="#F2A883"/>
<path d="M168.179 14.211C166.606 17.5113 165.866 21.5209 169.135 24.2043C169.135 24.2043 171.88 24.9445 177.093 22.5387C180.609 20.904 184.094 21.6134 186.037 22.2611C186.932 22.5696 187.518 23.4023 187.456 24.3276L187.363 27.2269C187.363 27.998 187.795 28.6765 188.474 28.9541L190.91 29.972L191.373 32.8095C191.496 33.6423 192.36 34.1358 193.162 33.8582L193.779 33.6423C193.779 33.6423 194.118 27.3503 199.331 27.6587C199.331 27.6587 203.525 18.5599 199.238 10.2323C194.951 1.90457 183.138 2.49059 180.64 3.44673C177.339 4.71131 177.802 4.52625 175.89 5.66745C172.559 7.73395 169.814 10.6332 168.179 14.1494V14.211Z" fill="#221C3A"/>
<path opacity="0.6" d="M202.785 43.3888C202.785 43.3888 198.652 57.6076 197.788 60.3526L194.457 59.9825L195.074 64.4856L177.185 88.1424L197.048 65.2875L196.246 61.2779L199.269 61.5863L202.785 43.3888Z" fill="#6361C2"/>
<path d="M124.196 187.643C124.196 187.643 117.318 192.084 114.974 194.675C112.661 197.297 108.004 202.664 109.916 205.193C111.828 207.753 118.244 209.171 125.122 202.787C132 196.402 130.057 196.032 135.948 192.886C141.839 189.74 143.443 186.286 142.733 184.312C142.024 182.338 139.124 178.883 137.551 179.624C135.978 180.364 124.196 187.612 124.196 187.612V187.643Z" fill="#221C3A"/>
<path d="M157.754 206.303C157.754 206.303 155.286 211.762 153.991 213.582C152.696 215.402 146.527 225.858 149.765 228.233C153.004 230.638 159.111 229.96 163.984 224.686C168.827 219.411 169.906 212.996 171.109 210.899C172.312 208.801 175.273 203.157 173.885 199.949C172.466 196.711 172.158 196.156 172.158 196.156L157.785 206.303H157.754Z" fill="#221C3A"/>
<path d="M132.709 128.455C132.709 128.455 112.229 148.719 108.836 158.928C108.836 158.928 107.418 164.449 111.396 168.736C115.344 173.054 123.765 187.149 123.765 187.149C123.765 187.149 130.057 194.768 138.168 188.661C138.168 188.661 141.839 182.77 139.587 178.883C137.336 174.966 131.321 162.506 131.321 162.506C131.321 162.506 144.46 153.438 150.968 151.155C157.445 148.842 160.9 147.084 160.9 147.084C160.9 147.084 159.728 153.222 154.978 159.205C150.228 165.189 142.301 174.812 144.923 181.505C147.576 188.198 149.118 190.265 151.585 194.12C154.053 197.975 156.428 206.026 158.556 206.827C160.684 207.66 170.461 208.647 172.065 202.232C173.638 195.816 168.734 183.387 166.513 179.192C166.513 179.192 193.008 148.534 195.537 145.141C198.066 141.779 140.913 123.181 132.709 128.393V128.455Z" fill="#C3D4FF"/>
<path d="M253.892 105.6C253.8 104.674 253.214 103.811 252.042 103.132L251.301 102.7C248.556 101.127 243.745 101.312 240.568 103.132L218.207 116.086C216.51 117.073 215.647 118.307 215.585 119.479V123.396C215.585 124.414 216.202 125.37 217.436 126.11L218.176 126.542C220.921 128.115 225.732 127.93 228.878 126.11L251.24 113.156C252.875 112.2 253.738 111.028 253.861 109.887V105.631L253.892 105.6Z" fill="#221C3A"/>
<path d="M218.392 122.44L217.652 122.008C216.356 121.268 215.863 120.312 215.986 119.356C216.109 118.4 216.881 117.32 218.423 116.426L240.784 103.472C242.295 102.577 244.239 102.084 246.12 102.022C248.001 101.96 249.821 102.3 251.117 103.04L251.857 103.472C253.152 104.212 253.646 105.168 253.522 106.124C253.399 107.08 252.628 108.16 251.086 109.054L228.724 122.008C227.213 122.903 225.27 123.396 223.388 123.458C221.507 123.52 219.687 123.181 218.392 122.44Z" fill="#6EBE45" stroke="#221C3A" stroke-width="0.23"/>
<path d="M49.5764 194.099L110.718 158.538V97.365L49.5764 132.926V194.099Z" fill="#B1A2A2"/>
<path d="M168.513 259.755L229.655 224.194V163.021L168.513 198.582V259.755Z" fill="#F7E9E9"/>
<path d="M164.859 257.636L168.513 259.755V198.582L164.859 196.463V257.636Z" fill="#DDCDCC"/>
<path d="M46.4441 192.533L50.0985 194.652V133.479L46.4441 131.36V192.533Z" fill="#DDCDCC"/>
<path d="M168.513 196.187L243.842 152.457V156.941L168.513 200.671V196.187Z" fill="#FFF8F8"/>
<path d="M39.6575 129.272L168.544 200.64V196.156L39.6575 124.819V129.303V129.272Z" fill="#EADCDB"/>
<path d="M168.513 196.187L243.843 152.457L114.956 81.0891L39.6267 124.819L168.513 196.187Z" fill="#6EBE45"/>
<path d="M186.407 151.926L180.732 154.456C180.516 154.548 180.269 154.548 180.054 154.456L173.916 151.68C173.916 151.68 173.761 151.402 173.916 151.34L179.776 148.78C179.992 148.688 180.239 148.688 180.454 148.78L186.407 151.587C186.407 151.587 186.561 151.865 186.407 151.926Z" fill="black" fill-opacity="0.2"/>
<path d="M184.248 151.34L180.208 153.129L175.859 151.155V128.886L184.217 128.948V151.34H184.248Z" fill="#4A48B3"/>
<path d="M177.648 155.319L171.973 157.848C171.757 157.941 171.51 157.941 171.294 157.848L165.156 155.072C165.156 155.072 165.002 154.795 165.156 154.733L171.017 152.173C171.233 152.081 171.479 152.081 171.695 152.173L177.648 154.98C177.648 154.98 177.802 155.257 177.648 155.319Z" fill="black" fill-opacity="0.2"/>
<path d="M184.248 128.948L180.239 130.768L175.89 128.886L180.054 127.005L184.248 128.948Z" fill="#8381E2"/>
<path d="M180.239 153.129V130.768L175.89 128.886V151.155L180.239 153.129Z" fill="#6361C2"/>
<path d="M175.766 155.103L171.726 156.892L167.377 154.918V142.673L175.735 142.735V155.103H175.766Z" fill="#4D4BB7"/>
<path d="M175.766 142.735L171.757 144.555L167.408 142.673L171.572 140.792L175.766 142.735Z" fill="#8381E2"/>
<path d="M169.351 159.082L163.676 161.611C163.46 161.704 163.213 161.704 162.997 161.611L156.86 158.835C156.86 158.835 156.705 158.558 156.86 158.496L162.72 155.936C162.936 155.843 163.182 155.843 163.398 155.936L169.351 158.743C169.351 158.743 169.505 159.02 169.351 159.082Z" fill="black" fill-opacity="0.2"/>
<path d="M171.726 156.892V144.555L167.377 142.673V154.918L171.726 156.892Z" fill="#6361C2"/>
<path d="M160.992 163.431L155.317 165.96C155.101 166.053 154.855 166.053 154.639 165.96L148.501 163.184C148.501 163.184 148.347 162.907 148.501 162.845L154.361 160.285C154.577 160.192 154.824 160.192 155.04 160.285L160.992 163.092C160.992 163.092 161.147 163.369 160.992 163.431Z" fill="black" fill-opacity="0.2"/>
<path d="M167.285 158.866L163.244 160.655L158.926 158.681V140.576L167.285 140.638V158.866Z" fill="#4D4BB7"/>
<path d="M167.254 140.638L163.244 142.457L158.926 140.576L163.059 138.695L167.254 140.638Z" fill="#8381E2"/>
<path d="M163.244 160.655V142.457L158.926 140.576V158.681L163.244 160.655Z" fill="#6361C2"/>
<path d="M158.772 162.629L154.731 164.418L150.382 162.444V153.993L158.741 154.055V162.629H158.772Z" fill="#4D4BB7"/>
<path d="M158.772 154.055L154.762 155.874L150.413 153.993L154.546 152.111L158.741 154.055H158.772Z" fill="#8381E2"/>
<path d="M154.731 164.449V155.905L150.382 154.024V162.475L154.731 164.449Z" fill="#6361C2"/>
<path d="M145.879 145.943C141.623 145.943 138.168 147.608 138.168 149.644C138.168 149.952 138.261 150.261 138.415 150.569C137.86 150.508 137.274 150.477 136.657 150.477C132.401 150.477 128.946 152.142 128.946 154.178C128.946 156.214 132.401 157.879 136.657 157.879C140.913 157.879 144.368 156.214 144.368 154.178C144.368 153.869 144.275 153.561 144.121 153.253C144.676 153.314 145.262 153.345 145.879 153.345C150.136 153.345 153.59 151.68 153.59 149.644C153.59 147.608 150.136 145.943 145.879 145.943Z" fill="black" fill-opacity="0.2"/>
<path d="M152.912 147.793V149.181C152.912 151.063 149.735 152.605 145.818 152.605C141.9 152.605 138.724 151.063 138.724 149.181V147.793H152.912Z" fill="#FDC110"/>
<g opacity="0.45">
<path d="M142.209 148.873H142.918V152.389C142.672 152.327 142.425 152.266 142.209 152.204V148.873Z" fill="#FFF679"/>
</g>
<path d="M138.724 147.793C138.724 149.675 141.9 151.217 145.818 151.217C149.735 151.217 152.912 149.675 152.912 147.793C152.912 145.912 149.735 144.37 145.818 144.37C141.9 144.37 138.724 145.912 138.724 147.793Z" fill="#FDDF41"/>
<path d="M140.358 147.732C140.358 149.151 142.795 150.292 145.818 150.292C148.84 150.292 151.277 149.151 151.277 147.732C151.277 146.313 148.84 145.172 145.818 145.172C142.795 145.172 140.358 146.313 140.358 147.732Z" fill="#FFD250"/>
<path d="M145.817 145.542C148.717 145.542 151.061 146.591 151.246 147.917C151.246 147.855 151.246 147.793 151.246 147.732C151.246 146.313 148.809 145.172 145.787 145.172C142.764 145.172 140.327 146.313 140.327 147.732C140.327 147.793 140.327 147.855 140.327 147.917C140.512 146.591 142.887 145.542 145.787 145.542H145.817Z" fill="#F9AC4C"/>
<path d="M148.223 146.714L148.717 146.467L148.316 146.251L147.822 146.498C146.928 146.097 145.818 146.004 145.047 146.405C144.09 146.899 144.738 147.423 145.201 147.855L144.214 148.349C144.214 148.349 144.09 148.071 144.337 147.917L143.196 147.331C142.425 147.763 142.61 148.287 143.381 148.78L142.887 149.027L143.288 149.243L143.782 148.996C144.8 149.49 145.941 149.459 146.589 149.12C147.545 148.626 146.866 148.102 146.404 147.67L147.36 147.176C147.36 147.176 147.452 147.423 147.236 147.577L148.378 148.163C149.118 147.732 148.994 147.238 148.193 146.776L148.223 146.714ZM145.447 148.564C145.232 148.688 144.892 148.688 144.615 148.564L145.478 148.102C145.633 148.287 145.663 148.41 145.447 148.534V148.564ZM146.126 147.392C146.003 147.238 145.972 147.084 146.188 146.991C146.434 146.868 146.712 146.868 146.99 146.991L146.126 147.423V147.392Z" fill="#F9AC4C"/>
<path d="M148.223 146.529L148.717 146.282L148.316 146.066L147.822 146.313C146.928 145.912 145.818 145.819 145.047 146.22C144.09 146.714 144.738 147.238 145.201 147.67L144.214 148.163C144.214 148.163 144.09 147.886 144.337 147.732L143.196 147.146C142.425 147.577 142.61 148.102 143.381 148.595L142.887 148.842L143.288 149.058L143.782 148.811C144.8 149.305 145.941 149.274 146.589 148.935C147.545 148.441 146.866 147.917 146.404 147.485L147.36 146.991C147.36 146.991 147.452 147.238 147.236 147.362L148.378 147.948C149.118 147.516 148.994 147.022 148.193 146.529H148.223ZM145.447 148.379C145.232 148.503 144.892 148.503 144.615 148.379L145.478 147.917C145.633 148.102 145.663 148.225 145.447 148.349V148.379ZM146.126 147.207C146.003 147.053 145.972 146.899 146.188 146.806C146.434 146.683 146.712 146.683 146.99 146.806L146.126 147.238V147.207Z" fill="#FFEB58"/>
<path d="M152.912 145.511V146.899C152.912 148.78 149.735 150.323 145.818 150.323C141.9 150.323 138.724 148.78 138.724 146.899V145.511H152.912Z" fill="#FDC110"/>
<g opacity="0.45">
<path d="M142.209 146.59H142.918V150.107C142.672 150.045 142.425 149.983 142.209 149.922V146.59Z" fill="#FFF679"/>
</g>
<path d="M138.724 145.511C138.724 147.392 141.9 148.935 145.818 148.935C149.735 148.935 152.912 147.392 152.912 145.511C152.912 143.63 149.735 142.087 145.818 142.087C141.9 142.087 138.724 143.63 138.724 145.511Z" fill="#FDDF41"/>
<path d="M140.358 145.449C140.358 146.868 142.795 148.009 145.818 148.009C148.84 148.009 151.277 146.868 151.277 145.449C151.277 144.03 148.84 142.889 145.818 142.889C142.795 142.889 140.358 144.03 140.358 145.449Z" fill="#FFD250"/>
<path d="M145.817 143.259C148.717 143.259 151.061 144.308 151.246 145.634C151.246 145.573 151.246 145.511 151.246 145.449C151.246 144.03 148.809 142.889 145.787 142.889C142.764 142.889 140.327 144.03 140.327 145.449C140.327 145.511 140.327 145.573 140.327 145.634C140.512 144.308 142.887 143.259 145.787 143.259H145.817Z" fill="#F9AC4C"/>
<path d="M148.223 144.431L148.717 144.185L148.316 143.969L147.822 144.216C146.928 143.815 145.818 143.722 145.047 144.123C144.09 144.617 144.738 145.141 145.201 145.573L144.214 146.066C144.214 146.066 144.09 145.789 144.337 145.634L143.196 145.048C142.425 145.48 142.61 146.004 143.381 146.498L142.887 146.745L143.288 146.961L143.782 146.714C144.8 147.207 145.941 147.177 146.589 146.837C147.545 146.344 146.866 145.819 146.404 145.388L147.36 144.894C147.36 144.894 147.452 145.141 147.236 145.264L148.378 145.85C149.118 145.418 148.994 144.925 148.193 144.431H148.223ZM145.447 146.282C145.232 146.405 144.892 146.405 144.615 146.282L145.478 145.819C145.633 146.004 145.663 146.128 145.447 146.251V146.282ZM146.126 145.11C146.003 144.956 145.972 144.802 146.188 144.709C146.434 144.586 146.712 144.586 146.99 144.709L146.126 145.141V145.11Z" fill="#F9AC4C"/>
<path d="M148.223 144.246L148.717 144L148.316 143.784L147.822 144.031C146.928 143.63 145.818 143.537 145.047 143.938C144.09 144.431 144.738 144.956 145.201 145.388L144.214 145.881C144.214 145.881 144.09 145.604 144.337 145.449L143.196 144.863C142.425 145.295 142.61 145.819 143.381 146.313L142.887 146.56L143.288 146.776L143.782 146.529C144.8 147.022 145.941 146.991 146.589 146.652C147.545 146.159 146.866 145.634 146.404 145.203L147.36 144.709C147.36 144.709 147.452 144.956 147.236 145.079L148.378 145.665C149.118 145.233 148.994 144.74 148.193 144.246H148.223ZM145.447 146.097C145.232 146.22 144.892 146.22 144.615 146.097L145.478 145.634C145.633 145.819 145.663 145.943 145.447 146.066V146.097ZM146.126 144.925C146.003 144.771 145.972 144.617 146.188 144.524C146.434 144.401 146.712 144.401 146.99 144.524L146.126 144.956V144.925Z" fill="#FFEB58"/>
<path d="M152.912 143.229V144.617C152.912 146.498 149.735 148.04 145.818 148.04C141.9 148.04 138.724 146.498 138.724 144.617V143.229H152.912Z" fill="#FDC110"/>
<path d="M138.724 143.229C138.724 145.11 141.9 146.652 145.818 146.652C149.735 146.652 152.912 145.11 152.912 143.229C152.912 141.347 149.735 139.805 145.818 139.805C141.9 139.805 138.724 141.347 138.724 143.229Z" fill="#FDDF41"/>
<path d="M140.358 143.167C140.358 144.586 142.795 145.727 145.818 145.727C148.84 145.727 151.277 144.586 151.277 143.167C151.277 141.748 148.84 140.607 145.818 140.607C142.795 140.607 140.358 141.748 140.358 143.167Z" fill="#FFD250"/>
<path d="M145.817 140.977C148.717 140.977 151.061 142.026 151.246 143.352C151.246 143.29 151.246 143.229 151.246 143.167C151.246 141.748 148.809 140.607 145.787 140.607C142.764 140.607 140.327 141.748 140.327 143.167C140.327 143.229 140.327 143.29 140.327 143.352C140.512 142.026 142.887 140.977 145.787 140.977H145.817Z" fill="#F9AC4C"/>
<path d="M148.223 142.149L148.717 141.902L148.316 141.686L147.822 141.933C146.928 141.532 145.818 141.44 145.047 141.841C144.09 142.334 144.738 142.858 145.201 143.29L144.214 143.784C144.214 143.784 144.09 143.506 144.337 143.352L143.196 142.766C142.425 143.198 142.61 143.722 143.381 144.216L142.887 144.462L143.288 144.678L143.782 144.431C144.8 144.925 145.941 144.894 146.589 144.555C147.545 144.061 146.866 143.537 146.404 143.105L147.36 142.612C147.36 142.612 147.452 142.858 147.236 143.013L148.378 143.599C149.118 143.167 148.994 142.673 148.193 142.18L148.223 142.149ZM145.447 144C145.232 144.123 144.892 144.123 144.615 144L145.478 143.537C145.633 143.722 145.663 143.845 145.447 143.969V144ZM146.126 142.828C146.003 142.673 145.972 142.519 146.188 142.427C146.434 142.303 146.712 142.303 146.99 142.427L146.126 142.858V142.828Z" fill="#F9AC4C"/>
<path d="M148.223 141.964L148.717 141.717L148.316 141.501L147.822 141.748C146.928 141.347 145.818 141.255 145.047 141.656C144.09 142.149 144.738 142.673 145.201 143.105L144.214 143.599C144.214 143.599 144.09 143.321 144.337 143.167L143.196 142.581C142.425 143.013 142.61 143.537 143.381 144.03L142.887 144.277L143.288 144.493L143.782 144.246C144.8 144.74 145.941 144.709 146.589 144.37C147.545 143.876 146.866 143.352 146.404 142.92L147.36 142.427C147.36 142.427 147.452 142.673 147.236 142.797L148.378 143.383C149.118 142.951 148.994 142.457 148.193 141.964H148.223ZM145.447 143.815C145.232 143.938 144.892 143.938 144.615 143.815L145.478 143.352C145.633 143.537 145.663 143.66 145.447 143.784V143.815ZM146.126 142.643C146.003 142.488 145.972 142.334 146.188 142.242C146.434 142.118 146.712 142.118 146.99 142.242L146.126 142.673V142.643Z" fill="#FFEB58"/>
<path d="M152.912 140.946V142.334C152.912 144.216 149.735 145.758 145.818 145.758C141.9 145.758 138.724 144.216 138.724 142.334V140.946H152.912Z" fill="#FDC110"/>
<path d="M138.724 140.946C138.724 142.828 141.9 144.37 145.818 144.37C149.735 144.37 152.912 142.828 152.912 140.946C152.912 139.065 149.735 137.523 145.818 137.523C141.9 137.523 138.724 139.065 138.724 140.946Z" fill="#FDDF41"/>
<path d="M140.358 140.884C140.358 142.303 142.795 143.444 145.818 143.444C148.84 143.444 151.277 142.303 151.277 140.884C151.277 139.466 148.84 138.324 145.818 138.324C142.795 138.324 140.358 139.466 140.358 140.884Z" fill="#FFDD3E"/>
<path d="M145.817 138.695C148.717 138.695 151.061 139.743 151.246 141.07C151.246 141.008 151.246 140.946 151.246 140.884C151.246 139.466 148.809 138.324 145.787 138.324C142.764 138.324 140.327 139.466 140.327 140.884C140.327 140.946 140.327 141.008 140.327 141.07C140.512 139.743 142.887 138.695 145.787 138.695H145.817Z" fill="#E2AC22"/>
<path d="M148.223 139.867L148.717 139.62L148.316 139.404L147.822 139.651C146.928 139.25 145.818 139.157 145.047 139.558C144.09 140.052 144.738 140.576 145.201 141.008L144.214 141.501C144.214 141.501 144.09 141.224 144.337 141.07L143.196 140.484C142.425 140.915 142.61 141.44 143.381 141.933L142.887 142.18L143.288 142.396L143.782 142.149C144.8 142.643 145.941 142.612 146.589 142.272C147.545 141.779 146.866 141.255 146.404 140.823L147.36 140.329C147.36 140.329 147.452 140.576 147.236 140.699L148.378 141.285C149.118 140.854 148.994 140.36 148.193 139.867H148.223ZM145.447 141.717C145.232 141.841 144.892 141.841 144.615 141.717L145.478 141.255C145.633 141.44 145.663 141.563 145.447 141.686V141.717ZM146.126 140.545C146.003 140.391 145.972 140.237 146.188 140.144C146.434 140.021 146.712 140.021 146.99 140.144L146.126 140.576V140.545Z" fill="#E2AC22"/>
<path d="M148.223 139.682L148.717 139.435L148.316 139.219L147.822 139.466C146.928 139.065 145.818 138.972 145.047 139.373C144.09 139.867 144.738 140.391 145.201 140.823L144.214 141.316C144.214 141.316 144.09 141.039 144.337 140.884L143.196 140.298C142.425 140.73 142.61 141.255 143.381 141.748L142.887 141.995L143.288 142.211L143.782 141.964C144.8 142.458 145.941 142.427 146.589 142.087C147.545 141.594 146.866 141.07 146.404 140.638L147.36 140.144C147.36 140.144 147.452 140.391 147.236 140.514L148.378 141.1C149.118 140.669 148.994 140.175 148.193 139.682H148.223ZM145.447 141.532C145.232 141.656 144.892 141.656 144.615 141.532L145.478 141.07C145.633 141.255 145.663 141.378 145.447 141.501V141.532ZM146.126 140.36C146.003 140.206 145.972 140.052 146.188 139.959C146.434 139.836 146.712 139.836 146.99 139.959L146.126 140.391V140.36Z" fill="#FDDF41"/>
<path d="M143.628 152.142V153.53C143.628 155.412 140.451 156.954 136.534 156.954C132.617 156.954 129.44 155.412 129.44 153.53V152.142H143.628Z" fill="#FDC110"/>
<path d="M129.44 152.142C129.44 154.024 132.617 155.566 136.534 155.566C140.451 155.566 143.628 154.024 143.628 152.142C143.628 150.261 140.451 148.719 136.534 148.719C132.617 148.719 129.44 150.261 129.44 152.142Z" fill="#FDDF41"/>
<path d="M131.074 152.112C131.074 153.53 133.511 154.671 136.534 154.671C139.556 154.671 141.993 153.53 141.993 152.112C141.993 150.693 139.556 149.552 136.534 149.552C133.511 149.552 131.074 150.693 131.074 152.112Z" fill="#FFD250"/>
<path d="M136.534 149.891C139.433 149.891 141.777 150.939 141.962 152.266C141.962 152.204 141.962 152.142 141.962 152.081C141.962 150.662 139.526 149.521 136.503 149.521C133.48 149.521 131.044 150.662 131.044 152.081C131.044 152.142 131.044 152.204 131.044 152.266C131.229 150.939 133.604 149.891 136.503 149.891H136.534Z" fill="#F9AC4C"/>
<path d="M138.939 151.063L139.433 150.816L139.032 150.6L138.538 150.847C137.644 150.446 136.534 150.353 135.763 150.754C134.806 151.248 135.454 151.772 135.917 152.204L134.93 152.698C134.93 152.698 134.806 152.42 135.053 152.266L133.912 151.68C133.141 152.112 133.326 152.636 134.097 153.129L133.604 153.376L134.005 153.592L134.498 153.345C135.516 153.839 136.657 153.808 137.305 153.469C138.261 152.975 137.582 152.451 137.12 152.019L138.076 151.525C138.076 151.525 138.168 151.772 137.952 151.926L139.094 152.512C139.834 152.081 139.711 151.587 138.909 151.094L138.939 151.063ZM136.164 152.913C135.948 153.037 135.608 153.037 135.331 152.913L136.194 152.451C136.349 152.636 136.379 152.759 136.164 152.883V152.913ZM136.842 151.741C136.719 151.587 136.688 151.433 136.904 151.34C137.151 151.217 137.428 151.217 137.706 151.34L136.842 151.772V151.741Z" fill="#F9AC4C"/>
<path d="M138.939 150.909L139.433 150.662L139.032 150.446L138.538 150.693C137.644 150.292 136.534 150.199 135.763 150.6C134.806 151.094 135.454 151.618 135.917 152.05L134.93 152.543C134.93 152.543 134.806 152.266 135.053 152.111L133.912 151.525C133.141 151.957 133.326 152.482 134.097 152.975L133.604 153.222L134.005 153.438L134.498 153.191C135.516 153.684 136.657 153.654 137.305 153.314C138.261 152.821 137.582 152.296 137.12 151.865L138.076 151.371C138.076 151.371 138.168 151.618 137.952 151.741L139.094 152.327C139.834 151.896 139.711 151.402 138.909 150.909H138.939ZM136.164 152.759C135.948 152.883 135.608 152.883 135.331 152.759L136.194 152.296C136.349 152.482 136.379 152.605 136.164 152.728V152.759ZM136.842 151.587C136.719 151.433 136.688 151.279 136.904 151.186C137.151 151.063 137.428 151.063 137.706 151.186L136.842 151.618V151.587Z" fill="#FFEB58"/>
<path d="M143.628 149.86V151.248C143.628 153.129 140.451 154.671 136.534 154.671C132.617 154.671 129.44 153.129 129.44 151.248V149.86H143.628Z" fill="#FDC110"/>
<path d="M129.44 149.86C129.44 151.741 132.617 153.283 136.534 153.283C140.451 153.283 143.628 151.741 143.628 149.86C143.628 147.978 140.451 146.436 136.534 146.436C132.617 146.436 129.44 147.978 129.44 149.86Z" fill="#FDDF41"/>
<path d="M131.074 149.829C131.074 151.248 133.511 152.389 136.534 152.389C139.556 152.389 141.993 151.248 141.993 149.829C141.993 148.41 139.556 147.269 136.534 147.269C133.511 147.269 131.074 148.41 131.074 149.829Z" fill="#FFDD3E"/>
<path d="M136.534 147.608C139.433 147.608 141.777 148.657 141.962 149.983C141.962 149.922 141.962 149.86 141.962 149.798C141.962 148.379 139.526 147.238 136.503 147.238C133.48 147.238 131.044 148.379 131.044 149.798C131.044 149.86 131.044 149.922 131.044 149.983C131.229 148.657 133.604 147.608 136.503 147.608H136.534Z" fill="#E2AC22"/>
<path d="M138.939 148.78L139.433 148.534L139.032 148.318L138.538 148.564C137.644 148.163 136.534 148.071 135.763 148.472C134.806 148.965 135.454 149.49 135.917 149.922L134.93 150.415C134.93 150.415 134.806 150.137 135.053 149.983L133.912 149.397C133.141 149.829 133.326 150.353 134.097 150.847L133.604 151.094L134.005 151.31L134.498 151.063C135.516 151.556 136.657 151.525 137.305 151.186C138.261 150.693 137.582 150.168 137.12 149.736L138.076 149.243C138.076 149.243 138.168 149.49 137.952 149.644L139.094 150.23C139.834 149.798 139.711 149.305 138.909 148.811L138.939 148.78ZM136.164 150.631C135.948 150.754 135.608 150.754 135.331 150.631L136.194 150.168C136.349 150.353 136.379 150.477 136.164 150.6V150.631ZM136.842 149.459C136.719 149.305 136.688 149.15 136.904 149.058C137.151 148.935 137.428 148.935 137.706 149.058L136.842 149.49V149.459Z" fill="#E2AC22"/>
<path d="M138.939 148.626L139.433 148.379L139.032 148.164L138.538 148.41C137.644 148.009 136.534 147.917 135.763 148.318C134.806 148.811 135.454 149.336 135.917 149.767L134.93 150.261C134.93 150.261 134.806 149.983 135.053 149.829L133.912 149.243C133.141 149.675 133.326 150.199 134.097 150.693L133.604 150.939L134.005 151.155L134.498 150.909C135.516 151.402 136.657 151.371 137.305 151.032C138.261 150.538 137.582 150.014 137.12 149.582L138.076 149.089C138.076 149.089 138.168 149.336 137.952 149.459L139.094 150.045C139.834 149.613 139.711 149.12 138.909 148.626H138.939ZM136.164 150.477C135.948 150.6 135.608 150.6 135.331 150.477L136.194 150.014C136.349 150.199 136.379 150.323 136.164 150.446V150.477ZM136.842 149.305C136.719 149.151 136.688 148.996 136.904 148.904C137.151 148.78 137.428 148.78 137.706 148.904L136.842 149.336V149.305Z" fill="#FDDF41"/>
<g style="mix-blend-mode:multiply">
<path d="M120.711 102.824C120.711 102.824 131.136 96.3467 133.295 95.2055C135.423 94.0643 136.904 92.9848 136.904 92.9848L128.175 88.1116L122.839 93.7867L110.687 101.22L97.1467 108.777C97.1467 108.777 112.322 113.927 113.031 113.496C114.573 112.509 120.742 102.824 120.742 102.824H120.711Z" fill="black" fill-opacity="0.2"/>
</g>
<g style="mix-blend-mode:multiply">
<path d="M63.4351 118.708L110.564 145.974C111.088 146.282 111.859 146.313 112.322 146.035L140.451 129.781C140.913 129.534 140.852 129.071 140.327 128.763L93.1988 101.498C92.6745 101.189 91.9034 101.158 91.4408 101.436L63.3117 117.69C62.849 117.937 62.9107 118.4 63.4351 118.708Z" fill="black" fill-opacity="0.2"/>
</g>
<path d="M106.831 95.7607C106.831 95.7607 106.677 96.8094 104.888 97.8581C103.099 98.8759 98.5038 101.189 97.7635 101.868C97.0233 102.515 93.6922 105.476 93.5997 105.877C93.5072 106.278 92.5202 109.609 92.5202 109.825C92.5202 110.041 92.8595 111.583 92.8595 111.583L91.8416 116.549C91.8416 116.549 90.5462 118.461 91.965 118.986C93.3838 119.51 94.1549 118.03 94.2166 117.783C94.2166 117.783 96.3448 116.765 97.9178 115.531C99.4908 114.298 105.752 109.178 106.801 109.486C107.849 109.794 106.893 111.645 106.369 111.953C105.844 112.262 102.544 115.562 103.932 117.875C105.32 120.158 106.245 116.58 107.14 115.84C108.065 115.13 110.039 112.231 111.273 111.892C112.476 111.552 114.697 106.926 114.974 104.859C115.252 102.793 116.701 101.467 117.226 100.788C117.75 100.11 116.084 94.9896 116.084 94.9896L109.885 93.0465L107.726 94.4653L106.862 95.7916L106.831 95.7607Z" fill="#FBBD9E"/>
<path d="M165.619 44.2833C162.134 46.9666 159.604 49.5266 155.626 51.6548C149.95 54.7083 132.987 64.1772 132.987 64.1772L129.841 66.6138C119.878 74.448 108.744 91.5044 107.109 94.8663C107.88 93.8176 109.885 92.1212 113.74 94.1569C119.045 96.9636 116.516 101.22 116.516 101.22C124.227 95.699 142.548 75.2808 142.548 75.2808C147.082 74.3246 161.763 68.7729 163.46 68.156C163.46 60.1984 163.707 52.8886 165.619 44.2524V44.2833Z" fill="#C3D4FF" stroke="#6361C2" stroke-width="0.74"/>
<path d="M63.7126 120.651L66.3035 122.008L92.3661 106.926C92.7979 106.679 93.5689 106.71 94.0624 106.988L139.001 132.989C139.433 132.742 141.376 131.786 141.376 131.786L140.42 134.253C140.42 134.253 140.297 134.469 140.173 134.531L112.723 150.415C112.291 150.662 111.52 150.631 111.026 150.353L65.0389 123.736C64.823 123.612 64.6996 123.489 64.6379 123.335L63.7126 120.59V120.651Z" fill="#B1A2A2"/>
<path d="M64.1135 121.083L111.242 148.349C111.766 148.657 112.537 148.688 113 148.41L141.129 132.125C141.592 131.878 141.53 131.416 141.006 131.107L93.8773 103.842C93.353 103.533 92.5819 103.502 92.1192 103.78L63.9901 120.034C63.5275 120.281 63.5892 120.744 64.1135 121.052V121.083Z" fill="#FFF8F8"/>
<path d="M123.487 134.592L125.183 133.605C125.368 133.482 125.708 133.482 125.893 133.605L127.898 134.808C128.083 134.932 128.083 135.117 127.898 135.24L126.201 136.227C126.016 136.351 125.677 136.351 125.492 136.227L123.487 135.024C123.302 134.901 123.302 134.716 123.487 134.592ZM120.248 133.081L122.253 134.284C122.438 134.407 122.778 134.407 122.963 134.284L124.659 133.297C124.844 133.174 124.844 132.989 124.659 132.865L122.654 131.662C122.469 131.539 122.13 131.539 121.945 131.662L120.248 132.649C120.063 132.773 120.063 132.958 120.248 133.081ZM117.01 131.169L119.015 132.372C119.2 132.495 119.539 132.495 119.724 132.372L121.421 131.385C121.606 131.261 121.606 131.076 121.421 130.953L119.416 129.75C119.231 129.627 118.891 129.627 118.706 129.75L117.01 130.737C116.825 130.86 116.825 131.045 117.01 131.169ZM113.771 129.257L115.776 130.459C115.961 130.583 116.301 130.583 116.486 130.459L118.182 129.472C118.367 129.349 118.367 129.164 118.182 129.041L116.177 127.838C115.992 127.714 115.653 127.714 115.468 127.838L113.771 128.825C113.586 128.948 113.586 129.133 113.771 129.257ZM110.533 127.344L112.538 128.547C112.723 128.671 113.062 128.671 113.247 128.547L114.943 127.56C115.128 127.437 115.128 127.252 114.943 127.128L112.939 125.925C112.754 125.802 112.414 125.802 112.229 125.925L110.533 126.912C110.348 127.036 110.348 127.221 110.533 127.344ZM107.294 125.432L109.299 126.635C109.484 126.758 109.823 126.758 110.008 126.635L111.705 125.648C111.89 125.525 111.89 125.339 111.705 125.216L109.7 124.013C109.515 123.89 109.176 123.89 108.991 124.013L107.294 125C107.109 125.124 107.109 125.309 107.294 125.432ZM104.056 123.52L106.061 124.723C106.246 124.846 106.585 124.846 106.77 124.723L108.466 123.736C108.651 123.612 108.651 123.427 108.466 123.304L106.462 122.101C106.276 121.978 105.937 121.978 105.752 122.101L104.056 123.088C103.871 123.211 103.871 123.396 104.056 123.52ZM100.817 121.607L102.822 122.81C103.007 122.934 103.346 122.934 103.531 122.81L105.228 121.823C105.413 121.7 105.413 121.515 105.228 121.392L103.223 120.189C103.038 120.065 102.699 120.065 102.514 120.189L100.817 121.176C100.632 121.299 100.632 121.484 100.817 121.607ZM97.5787 119.695L99.5835 120.898C99.7685 121.021 100.108 121.021 100.293 120.898L101.989 119.911C102.174 119.788 102.174 119.603 101.989 119.479L99.9844 118.276C99.7994 118.153 99.4601 118.153 99.275 118.276L97.5787 119.263C97.3936 119.387 97.3936 119.572 97.5787 119.695ZM93.3223 117.166L96.3758 118.986C96.5608 119.109 96.9001 119.109 97.0852 118.986L98.7815 117.999C98.9666 117.875 98.9666 117.69 98.7815 117.567L95.7281 115.747C95.543 115.624 95.2037 115.624 95.0187 115.747L93.3223 116.734C93.1372 116.858 93.1372 117.043 93.3223 117.166ZM81.2009 120.466L83.2057 121.669C83.3907 121.792 83.73 121.792 83.9151 121.669L85.6115 120.682C85.7965 120.559 85.7965 120.374 85.6115 120.25L83.6066 119.047C83.4216 118.924 83.0823 118.924 82.8972 119.047L81.2009 120.034C81.0158 120.158 81.0158 120.343 81.2009 120.466ZM77.9623 118.554L79.9671 119.757C80.1522 119.88 80.4915 119.88 80.6765 119.757L82.3729 118.77C82.558 118.646 82.558 118.461 82.3729 118.338L80.3681 117.135C80.183 117.012 79.8438 117.012 79.6587 117.135L77.9623 118.122C77.7773 118.245 77.7773 118.431 77.9623 118.554ZM74.7238 116.642L76.7286 117.845C76.9136 117.968 77.2529 117.968 77.438 117.845L79.1344 116.858C79.3194 116.734 79.3194 116.549 79.1344 116.426L77.1295 115.223C76.9445 115.099 76.6052 115.099 76.4202 115.223L74.7238 116.21C74.5387 116.333 74.5387 116.518 74.7238 116.642ZM78.2399 122.224L80.2447 123.427C80.4298 123.551 80.7691 123.551 80.9541 123.427L82.6505 122.44C82.8356 122.317 82.8356 122.132 82.6505 122.008L80.6457 120.805C80.4606 120.682 80.1214 120.682 79.9363 120.805L78.2399 121.792C78.0549 121.916 78.0549 122.101 78.2399 122.224ZM75.0014 120.312L77.0062 121.515C77.1912 121.638 77.5305 121.638 77.7156 121.515L79.412 120.528C79.597 120.405 79.597 120.219 79.412 120.096L77.4071 118.893C77.2221 118.77 76.8828 118.77 76.6977 118.893L75.0014 119.88C74.8163 120.004 74.8163 120.189 75.0014 120.312ZM71.7628 118.4L73.7676 119.603C73.9527 119.726 74.292 119.726 74.477 119.603L76.1734 118.616C76.3585 118.492 76.3585 118.307 76.1734 118.184L74.1686 116.981C73.9835 116.858 73.6443 116.858 73.4592 116.981L71.7628 117.968C71.5778 118.091 71.5778 118.276 71.7628 118.4ZM119.354 136.135L122.407 137.954C122.593 138.078 122.932 138.078 123.117 137.954L124.813 136.967C124.998 136.844 124.998 136.659 124.813 136.536L121.76 134.716C121.575 134.592 121.235 134.592 121.05 134.716L119.354 135.703C119.169 135.826 119.169 136.011 119.354 136.135ZM116.115 134.222L118.12 135.425C118.305 135.549 118.645 135.549 118.83 135.425L120.526 134.438C120.711 134.315 120.711 134.13 120.526 134.006L118.521 132.804C118.336 132.68 117.997 132.68 117.812 132.804L116.115 133.791C115.93 133.914 115.93 134.099 116.115 134.222ZM112.877 132.31L114.882 133.513C115.067 133.636 115.406 133.636 115.591 133.513L117.288 132.526C117.473 132.403 117.473 132.218 117.288 132.094L115.283 130.891C115.098 130.768 114.758 130.768 114.573 130.891L112.877 131.878C112.692 132.002 112.692 132.187 112.877 132.31ZM109.638 130.398L111.643 131.601C111.828 131.724 112.168 131.724 112.353 131.601L114.049 130.614C114.234 130.49 114.234 130.305 114.049 130.182L112.044 128.979C111.859 128.856 111.52 128.856 111.335 128.979L109.638 129.966C109.453 130.089 109.453 130.274 109.638 130.398ZM106.4 128.485L108.405 129.688C108.59 129.812 108.929 129.812 109.114 129.688L110.81 128.701C110.995 128.578 110.995 128.393 110.81 128.27L108.806 127.067C108.621 126.943 108.281 126.943 108.096 127.067L106.4 128.054C106.215 128.177 106.215 128.362 106.4 128.485ZM103.161 126.573L105.166 127.776C105.351 127.899 105.69 127.899 105.875 127.776L107.572 126.789C107.757 126.666 107.757 126.481 107.572 126.357L105.567 125.154C105.382 125.031 105.043 125.031 104.858 125.154L103.161 126.141C102.976 126.265 102.976 126.45 103.161 126.573ZM99.9227 124.661L101.928 125.864C102.113 125.987 102.452 125.987 102.637 125.864L104.333 124.877C104.518 124.753 104.518 124.568 104.333 124.445L102.329 123.242C102.143 123.119 101.804 123.119 101.619 123.242L99.9227 124.229C99.7377 124.352 99.7377 124.538 99.9227 124.661ZM96.6842 122.749L98.689 123.952C98.8741 124.075 99.2133 124.075 99.3984 123.952L101.095 122.965C101.28 122.841 101.28 122.656 101.095 122.533L99.09 121.33C98.9049 121.206 98.5656 121.206 98.3806 121.33L96.6842 122.317C96.4991 122.44 96.4991 122.625 96.6842 122.749ZM93.4457 120.836L95.4505 122.039C95.6355 122.163 95.9748 122.163 96.1599 122.039L97.8562 121.052C98.0413 120.929 98.0413 120.744 97.8562 120.62L95.8514 119.418C95.6664 119.294 95.3271 119.294 95.142 119.418L93.4457 120.405C93.2606 120.528 93.2606 120.713 93.4457 120.836ZM90.2071 118.924L92.2119 120.127C92.397 120.25 92.7363 120.25 92.9213 120.127L94.6177 119.14C94.8028 119.017 94.8028 118.832 94.6177 118.708L92.6129 117.505C92.4278 117.382 92.0885 117.382 91.9035 117.505L90.2071 118.492C90.022 118.616 90.022 118.801 90.2071 118.924ZM117.442 138.51L119.447 139.712C119.632 139.836 119.971 139.836 120.156 139.712L121.852 138.725C122.037 138.602 122.037 138.417 121.852 138.294L119.848 137.091C119.662 136.967 119.323 136.967 119.138 137.091L117.442 138.078C117.257 138.201 117.257 138.386 117.442 138.51ZM114.203 136.597L116.208 137.8C116.393 137.924 116.732 137.924 116.917 137.8L118.614 136.813C118.799 136.69 118.799 136.505 118.614 136.381L116.609 135.178C116.424 135.055 116.085 135.055 115.9 135.178L114.203 136.165C114.018 136.289 114.018 136.474 114.203 136.597ZM110.965 134.685L112.969 135.888C113.155 136.011 113.494 136.011 113.679 135.888L115.375 134.901C115.56 134.777 115.56 134.592 115.375 134.469L113.37 133.266C113.185 133.143 112.846 133.143 112.661 133.266L110.965 134.253C110.78 134.377 110.78 134.562 110.965 134.685ZM107.726 132.773L109.731 133.976C109.916 134.099 110.255 134.099 110.44 133.976L112.137 132.989C112.322 132.865 112.322 132.68 112.137 132.557L110.132 131.354C109.947 131.231 109.608 131.231 109.422 131.354L107.726 132.341C107.541 132.464 107.541 132.649 107.726 132.773ZM111.551 141.995L113.555 143.198C113.741 143.321 114.08 143.321 114.265 143.198L115.961 142.211C116.146 142.087 116.146 141.902 115.961 141.779L113.956 140.576C113.771 140.453 113.432 140.453 113.247 140.576L111.551 141.563C111.366 141.686 111.366 141.871 111.551 141.995ZM108.312 140.083L110.317 141.285C110.502 141.409 110.841 141.409 111.026 141.285L112.723 140.298C112.908 140.175 112.908 139.99 112.723 139.867L110.718 138.664C110.533 138.54 110.194 138.54 110.008 138.664L108.312 139.651C108.127 139.774 108.127 139.959 108.312 140.083ZM105.074 138.17L107.078 139.373C107.263 139.497 107.603 139.497 107.788 139.373L109.484 138.386C109.669 138.263 109.669 138.078 109.484 137.954L107.479 136.751C107.294 136.628 106.955 136.628 106.77 136.751L105.074 137.738C104.889 137.862 104.889 138.047 105.074 138.17ZM101.835 136.258L103.84 137.461C104.025 137.584 104.364 137.584 104.549 137.461L106.246 136.474C106.431 136.35 106.431 136.165 106.246 136.042L104.241 134.839C104.056 134.716 103.716 134.716 103.531 134.839L101.835 135.826C101.65 135.95 101.65 136.135 101.835 136.258ZM81.4476 124.167L84.5011 125.987C84.6862 126.111 85.0254 126.111 85.2105 125.987L86.9069 125C87.0919 124.877 87.0919 124.692 86.9069 124.568L83.8534 122.749C83.6683 122.625 83.3291 122.625 83.144 122.749L81.4476 123.736C81.2626 123.859 81.2626 124.044 81.4476 124.167ZM104.457 130.86L106.462 132.063C106.647 132.187 106.986 132.187 107.171 132.063L108.867 131.076C109.052 130.953 109.052 130.768 108.867 130.644L106.862 129.442C106.677 129.318 106.338 129.318 106.153 129.442L104.457 130.429C104.272 130.552 104.272 130.737 104.457 130.86ZM101.218 128.948L103.223 130.151C103.408 130.274 103.747 130.274 103.932 130.151L105.629 129.164C105.814 129.041 105.814 128.856 105.629 128.732L103.624 127.529C103.439 127.406 103.1 127.406 102.915 127.529L101.218 128.516C101.033 128.64 101.033 128.825 101.218 128.948ZM97.9796 127.036L99.9844 128.239C100.169 128.362 100.509 128.362 100.694 128.239L102.39 127.252C102.575 127.128 102.575 126.943 102.39 126.82L100.385 125.617C100.2 125.494 99.8611 125.494 99.676 125.617L97.9796 126.604C97.7946 126.727 97.7946 126.912 97.9796 127.036ZM94.7411 125.124L96.7459 126.326C96.9309 126.45 97.2702 126.45 97.4553 126.326L99.1517 125.339C99.3367 125.216 99.3367 125.031 99.1517 124.908L97.1468 123.705C96.9618 123.581 96.6225 123.581 96.4374 123.705L94.7411 124.692C94.556 124.815 94.556 125 94.7411 125.124ZM91.5025 123.211L93.5073 124.414C93.6924 124.538 94.0317 124.538 94.2167 124.414L95.9131 123.427C96.0982 123.304 96.0982 123.119 95.9131 122.995L93.9083 121.792C93.7232 121.669 93.384 121.669 93.1989 121.792L91.5025 122.779C91.3175 122.903 91.3175 123.088 91.5025 123.211ZM87.2462 120.682L90.2996 122.502C90.4847 122.625 90.824 122.625 91.009 122.502L92.7054 121.515C92.8905 121.392 92.8905 121.206 92.7054 121.083L89.6519 119.263C89.4669 119.14 89.1276 119.14 88.9425 119.263L87.2462 120.25C87.0611 120.374 87.0611 120.559 87.2462 120.682ZM113.309 139.651L116.362 141.47C116.547 141.594 116.887 141.594 117.072 141.47L118.768 140.483C118.953 140.36 118.953 140.175 118.768 140.052L115.715 138.232C115.529 138.109 115.19 138.109 115.005 138.232L113.309 139.219C113.124 139.342 113.124 139.527 113.309 139.651ZM110.07 137.738L112.075 138.941C112.26 139.065 112.599 139.065 112.784 138.941L114.481 137.954C114.666 137.831 114.666 137.646 114.481 137.523L112.476 136.32C112.291 136.196 111.952 136.196 111.767 136.32L110.07 137.307C109.885 137.43 109.885 137.615 110.07 137.738ZM106.832 135.826L108.836 137.029C109.022 137.152 109.361 137.152 109.546 137.029L111.242 136.042C111.427 135.919 111.427 135.734 111.242 135.61L109.237 134.407C109.052 134.284 108.713 134.284 108.528 134.407L106.832 135.394C106.647 135.518 106.647 135.703 106.832 135.826ZM103.593 133.914L105.598 135.117C105.783 135.24 106.122 135.24 106.307 135.117L108.004 134.13C108.189 134.006 108.189 133.821 108.004 133.698L105.999 132.495C105.814 132.372 105.475 132.372 105.289 132.495L103.593 133.482C103.408 133.605 103.408 133.791 103.593 133.914ZM100.355 132.002L102.359 133.204C102.544 133.328 102.884 133.328 103.069 133.204L104.765 132.218C104.95 132.094 104.95 131.909 104.765 131.786L102.76 130.583C102.575 130.459 102.236 130.459 102.051 130.583L100.355 131.57C100.169 131.693 100.169 131.878 100.355 132.002ZM85.5806 126.697L100.54 135.579C100.725 135.703 101.064 135.703 101.249 135.579L102.945 134.592C103.13 134.469 103.13 134.284 102.945 134.161L87.9864 125.278C87.8013 125.154 87.4621 125.154 87.277 125.278L85.5806 126.265C85.3956 126.388 85.3956 126.573 85.5806 126.697ZM97.116 130.089L99.1208 131.292C99.3059 131.416 99.6452 131.416 99.8302 131.292L101.527 130.305C101.712 130.182 101.712 129.997 101.527 129.873L99.5218 128.671C99.3367 128.547 98.9974 128.547 98.8124 128.671L97.116 129.658C96.9309 129.781 96.9309 129.966 97.116 130.089ZM93.8775 128.177L95.8823 129.38C96.0673 129.503 96.4066 129.503 96.5917 129.38L98.288 128.393C98.4731 128.27 98.4731 128.084 98.288 127.961L96.2832 126.758C96.0982 126.635 95.7589 126.635 95.5738 126.758L93.8775 127.745C93.6924 127.869 93.6924 128.054 93.8775 128.177ZM90.6389 126.265L92.6437 127.468C92.8288 127.591 93.1681 127.591 93.3531 127.468L95.0495 126.481C95.2346 126.357 95.2346 126.172 95.0495 126.049L93.0447 124.846C92.8596 124.723 92.5204 124.723 92.3353 124.846L90.6389 125.833C90.4539 125.956 90.4539 126.141 90.6389 126.265ZM87.4004 124.352L89.4052 125.555C89.5902 125.679 89.9295 125.679 90.1146 125.555L91.811 124.568C91.996 124.445 91.996 124.26 91.811 124.137L89.8061 122.934C89.6211 122.81 89.2818 122.81 89.0967 122.934L87.4004 123.921C87.2153 124.044 87.2153 124.229 87.4004 124.352ZM84.1618 122.44L86.1666 123.643C86.3517 123.766 86.691 123.766 86.876 123.643L88.5724 122.656C88.7575 122.533 88.7575 122.348 88.5724 122.224L86.5676 121.021C86.3825 120.898 86.0433 120.898 85.8582 121.021L84.1618 122.008C83.9768 122.132 83.9768 122.317 84.1618 122.44ZM89.7445 115.315L91.7493 116.518C91.9343 116.642 92.2736 116.642 92.4587 116.518L94.155 115.531C94.3401 115.408 94.3401 115.223 94.155 115.099L92.1502 113.897C91.9652 113.773 91.6259 113.773 91.4408 113.897L89.7445 114.884C89.5594 115.007 89.5594 115.192 89.7445 115.315ZM86.5059 113.403L88.5107 114.606C88.6958 114.729 89.0351 114.729 89.2201 114.606L90.9165 113.619C91.1016 113.496 91.1016 113.311 90.9165 113.187L88.9117 111.984C88.7266 111.861 88.3874 111.861 88.2023 111.984L86.5059 112.971C86.3209 113.095 86.3209 113.28 86.5059 113.403ZM83.2674 111.491L85.2722 112.694C85.4572 112.817 85.7965 112.817 85.9816 112.694L87.678 111.707C87.863 111.583 87.863 111.398 87.678 111.275L85.6731 110.072C85.4881 109.949 85.1488 109.949 84.9637 110.072L83.2674 111.059C83.0823 111.182 83.0823 111.367 83.2674 111.491ZM80.3064 113.249L82.3112 114.452C82.4963 114.575 82.8356 114.575 83.0206 114.452L84.717 113.465C84.9021 113.341 84.9021 113.156 84.717 113.033L82.7122 111.83C82.5271 111.707 82.1879 111.707 82.0028 111.83L80.3064 112.817C80.1214 112.94 80.1214 113.126 80.3064 113.249ZM77.438 114.976L85.8274 119.973C86.0741 120.127 86.4442 120.127 86.691 119.973L91.1016 117.351C91.3483 117.197 91.3483 116.981 91.1016 116.827L86.0433 113.835C85.7965 113.681 85.4264 113.681 85.1796 113.835L82.9589 115.161C82.9589 115.161 82.6197 115.254 82.4654 115.161L79.6279 113.496C79.4736 113.403 79.1961 113.403 79.0418 113.496L77.4071 114.483C77.1604 114.637 77.1604 114.853 77.4071 115.007L77.438 114.976Z" fill="#6361C2"/>
<g opacity="0.2">
<path d="M99.3674 119.849L112.383 127.19C112.661 127.344 113.154 127.344 113.432 127.19L122.037 122.348C122.315 122.193 122.315 121.916 122.037 121.762L109.021 114.421C108.744 114.267 108.25 114.267 107.973 114.421L99.3674 119.263C99.0898 119.418 99.0898 119.695 99.3674 119.849Z" fill="#EADCDB"/>
</g>
<path d="M63.7742 119.973L69.727 84.5646L69.2643 84.3487L69.9737 83.9169C69.9737 83.9169 70.313 83.8243 70.5289 83.9477L118.12 111.491C118.521 111.738 118.799 112.293 118.737 112.694L112.753 148.41C112.753 148.595 112.63 148.719 112.507 148.78L111.797 149.181L111.674 148.534H111.705L64.3911 121.145C63.9901 120.898 63.7125 120.343 63.7742 119.942V119.973Z" fill="#FFF8F8"/>
<path d="M117.874 112.478L118.645 112.139C118.737 112.354 118.768 112.54 118.737 112.725L112.754 148.441C112.754 148.626 112.63 148.75 112.507 148.811L111.797 149.212L111.674 148.564H111.705L109.299 147.177L117.843 112.478H117.874Z" fill="#B1A2A2"/>
<path d="M63.6508 121.607L111.242 149.15C111.612 149.366 111.921 149.243 111.982 148.873L117.966 113.156C118.028 112.755 117.75 112.169 117.349 111.953L69.7578 84.4104C69.3877 84.1945 69.0793 84.3179 69.0176 84.688L63.034 120.405C62.9723 120.806 63.2499 121.392 63.6508 121.607Z" fill="#EADCDB"/>
<path d="M191.219 122.995L173.885 114.513L165.125 115.069L159.512 120.435C159.82 122.163 159.666 122.286 160.252 123.766C160.283 123.766 160.036 125.617 167.377 125.494C170.585 124.815 178.573 123.119 191.188 122.995H191.219Z" fill="black" fill-opacity="0.2"/>
<path d="M243.406 113.496L226.75 111.892L218.885 117.166C218.299 117.69 216.171 119.448 216.726 120.898C216.757 120.898 217.22 123.766 224.591 123.643C229.5 122.578 235.5 117.578 243.375 113.465L243.406 113.496Z" fill="black" fill-opacity="0.2"/>
<path d="M183.169 109.949C183.169 109.949 183.045 109.794 182.953 109.764C181.596 109.733 172.867 109.486 169.567 108.314C165.989 107.08 162.195 107.296 162.01 107.512C161.825 107.728 155.872 110.257 155.502 111.306C155.194 112.231 154.608 115.408 155.41 116.549C156.212 117.721 156.582 118.523 156.582 118.523L157.199 118.585C157.199 118.585 158.001 120.158 158.463 120.744C158.679 120.99 158.803 121.268 158.957 121.546C159.327 122.348 160.005 123.705 160.283 123.736C160.684 123.766 162.535 124.137 162.997 124.013C163.398 123.921 163.707 122.749 163.583 122.224C163.522 122.101 163.614 121.947 163.738 121.947C164.57 121.823 166.884 121.515 170.091 121.823C173.978 122.193 179.468 119.633 179.961 119.387C179.992 119.387 180.023 119.387 180.054 119.387L185.544 118.893C185.544 118.893 185.79 118.739 185.76 118.585L183.261 110.01H183.23L183.169 109.949Z" fill="#FBBD9E"/>
<path d="M222.648 61.3705C221.322 59.2731 220.736 60.8153 218.947 62.5425C216.541 64.8866 213.549 68.4644 212.007 73.0292C209.201 81.3261 210.218 102.053 211.144 105.014C211.144 105.014 184.865 109.332 183.045 109.239C181.226 109.147 185.297 122.132 185.297 122.132C185.297 122.132 227.244 120.775 228.323 120.004C229.403 119.232 229.588 108.406 229.495 102.145C229.403 96.7785 229.495 72.2273 222.648 61.3705Z" fill="#C3D4FF" stroke="#6361C2" stroke-width="0.74"/>
</g>
<defs>
<linearGradient id="paint0_linear_187_6108" x1="6.76782" y1="264.791" x2="165.104" y2="264.791" gradientUnits="userSpaceOnUse">
<stop stop-color="#2CB8DB"/>
<stop offset="1" stop-color="#2CB8DB"/>
</linearGradient>
<linearGradient id="paint1_linear_187_6108" x1="25.0398" y1="239.917" x2="162.156" y2="239.917" gradientUnits="userSpaceOnUse">
<stop stop-color="#2CB8DB"/>
<stop offset="1" stop-color="#2CB8DB"/>
</linearGradient>
<clipPath id="clip0_187_6108">
<rect width="328" height="346" fill="white" transform="translate(0 0.0783691)"/>
</clipPath>
</defs>
</svg>
