<svg width="150" height="151" viewBox="0 0 150 151" fill="none" xmlns="http://www.w3.org/2000/svg">
<g clip-path="url(#clip0_515_9607)">
<path d="M72.1365 144.17L148.962 100.242L149.121 106.906L72.1365 150.762V144.17Z" fill="#84E453" stroke="black" stroke-width="1.53546" stroke-linejoin="round"/>
<path d="M72.1366 144.17L0.938232 102.177L1.09809 109.034L72.1366 150.786L72.1526 144.17H72.1366Z" fill="url(#paint0_linear_515_9607)" stroke="black" stroke-width="1.53546" stroke-linejoin="round"/>
<path d="M71.6251 61.7183L0.938232 102.177L72.1366 144.17L148.962 100.243L71.6251 61.7023V61.7183Z" fill="#99FF62" stroke="black" stroke-width="1.53546" stroke-linejoin="round"/>
<g style="mix-blend-mode:multiply">
<path d="M28.5 118.612L32.4939 121.112C33 120.612 33.7362 120.485 34.6785 119.921L105.624 81.076C107.003 80.2513 108.974 79.3007 108.91 79.1824L104.32 77.1917C104.276 77.1104 103.039 77.7161 102.097 78.2801L32.4938 116.422C31.5052 117.013 29.5195 118.102 28.5 118.612Z" fill="black" fill-opacity="0.1"/>
</g>
<path d="M34.7373 50.0548V114.041C34.7373 115.253 36.1005 116.008 37.1878 115.404L115.436 71.9646C117.026 71.0855 118 69.4521 118 67.6887V3.70216C118 2.49016 116.637 1.73591 115.55 2.33931L37.3068 45.779C35.7164 46.6581 34.7427 48.2915 34.7427 50.0548H34.7373Z" fill="#F4E8E7"/>
<path d="M34.7372 114.041V50.0545C34.7372 48.2911 35.7163 46.663 37.3013 45.7787L115.549 2.33899C116.058 2.05809 116.626 2.0737 117.086 2.29217L114.5 0.856493C114.013 0.565195 113.375 0.507976 112.812 0.820081L34.5641 44.265C32.9737 45.1441 32 46.7774 32 48.5408V112.527C32 113.198 32.4165 113.729 32.9791 113.963L35.4567 115.336C35.0347 115.061 34.7426 114.603 34.7426 114.041H34.7372Z" fill="#E0CBC9"/>
<path d="M99.5266 73.6031C95.9347 73.6031 93.614 70.5132 93.614 65.7276C93.614 59.5532 97.5575 52.3436 102.404 49.6543C103.692 48.9416 104.952 48.5775 106.159 48.5775C109.751 48.5775 112.071 51.6673 112.071 56.4529C112.071 62.6274 108.128 69.837 103.281 72.5263C101.993 73.2389 100.733 73.6031 99.5266 73.6031ZM106.159 50.2577C105.266 50.2577 104.298 50.5438 103.281 51.1108C98.9153 53.5348 95.3667 60.0942 95.3667 65.7276C95.3667 69.4937 97.0003 71.9229 99.532 71.9229C100.425 71.9229 101.393 71.6368 102.41 71.0698C106.775 68.6458 110.324 62.0864 110.324 56.4529C110.324 52.6869 108.69 50.2577 106.159 50.2577Z" fill="#4356FF"/>
<path d="M106.435 59.0902C106.435 61.6339 104.828 64.5885 102.843 65.6912C100.857 66.794 99.2507 65.6236 99.2507 63.0799C99.2507 60.5363 100.857 57.5817 102.843 56.4789C104.828 55.3762 106.435 56.5466 106.435 59.0902Z" fill="#4356FF"/>
<path d="M99.5212 74.4457C98.4502 74.4457 97.4278 74.1908 96.5028 73.6759C94.1118 72.3494 92.7432 69.4521 92.7432 65.7224C92.7432 64.7965 93.5275 64.0423 94.4904 64.0423C95.4533 64.0423 96.2377 64.7965 96.2377 65.7224C96.2377 68.1776 96.9896 70.0607 98.25 70.7629C99.4726 71.4391 100.944 70.9085 101.966 70.3416C106.018 68.0892 109.448 61.7275 109.448 56.4477C109.448 53.9925 108.696 52.1095 107.435 51.4072C106.213 50.731 104.741 51.2616 103.719 51.8286C102.886 52.2915 101.815 52.0158 101.333 51.2148C100.852 50.4085 101.139 49.3838 101.972 48.9208C104.541 47.4903 107.105 47.3447 109.183 48.4995C111.574 49.8259 112.942 52.7233 112.942 56.4477C112.942 62.9967 108.89 70.378 103.714 73.2493C102.285 74.0452 100.857 74.4405 99.5158 74.4405L99.5212 74.4457Z" fill="#8666FF"/>
<path d="M83.287 35.6407C83.287 35.6407 78.1696 49.4566 71.3861 52.1355C68.108 53.4307 62.8175 49.7323 58.4088 52.7024C53.5348 55.9847 51.9336 60.6143 48.5797 63.3868C44.0953 67.0904 42.2993 64.6144 42.2993 64.6144V76.6252L83.287 53.8676V35.6407Z" fill="url(#paint1_linear_515_9607)"/>
<path d="M83.2873 44.9675C77.6398 47.3603 75.1352 32.8578 71.4946 38.5849C67.8594 44.312 65.2142 60.297 59.3449 63.7665C53.4756 67.2361 50.9169 57.7429 48.7693 56.4997C46.6218 55.2565 42.2942 59.2462 42.2942 59.2462V76.6252L83.2819 53.8676V44.9675H83.2873Z" fill="url(#paint2_linear_515_9607)"/>
<path d="M42.2993 59.2462C42.2993 59.2462 46.6269 55.2565 48.7745 56.4997C50.922 57.7429 53.4861 67.2361 59.35 63.7665C65.2193 60.297 67.8645 44.312 71.4997 38.5849C75.1349 32.8578 77.6449 47.3603 83.2924 44.9675" stroke="#FF604F" stroke-width="1.2" stroke-linecap="round" stroke-linejoin="round"/>
<path d="M83.2874 57.15V28.8629" stroke="#4356FF" stroke-width="1.41" stroke-linecap="round" stroke-linejoin="round"/>
<path d="M42.2993 51.6153V79.9075" stroke="#4356FF" stroke-width="1.41" stroke-linecap="round" stroke-linejoin="round"/>
<path d="M42.2993 64.6144C42.2993 64.6144 44.0953 67.0905 48.5797 63.3868C51.939 60.6143 53.5402 55.9847 58.4088 52.7024C62.8175 49.7323 68.108 53.4307 71.3861 52.1355C78.1696 49.4566 83.287 35.6407 83.287 35.6407" stroke="#4356FF" stroke-width="1.41" stroke-linecap="round" stroke-linejoin="round"/>
<path d="M53.7839 45.238V73.5302" stroke="#4356FF" stroke-width="1.41" stroke-linecap="round" stroke-linejoin="round"/>
<path d="M71.7976 35.2402V63.5273" stroke="#4356FF" stroke-width="1.41" stroke-linecap="round" stroke-linejoin="round"/>
<path d="M49.3482 50.9339L46.7625 52.3696V50.2473L49.3482 48.8116V50.9339Z" fill="#4356FF"/>
<path d="M51.5553 51.8494L46.7625 54.5075V53.6596L51.5553 51.0015V51.8494Z" fill="#4356FF"/>
<path d="M64.0025 46.3356L61.4167 47.7764V45.6541L64.0025 44.2184V46.3356Z" fill="#4356FF"/>
<path d="M66.2096 47.2511L61.4167 49.9144V49.0665L66.2096 46.4032V47.2511Z" fill="#4356FF"/>
<path d="M78.4403 31.5418L75.8491 32.9775V30.8604L78.4403 29.4247V31.5418Z" fill="#4356FF"/>
<path d="M80.6419 32.4573L75.8491 35.1206V34.2727L80.6419 31.6094V32.4573Z" fill="#4356FF"/>
<path d="M54.9848 81.1872L42.2996 88.4124V86.2953L54.9848 79.0701V81.1872Z" fill="#FF604F"/>
<path d="M63.1856 81.1872L42.2996 93.0888V90.9665L63.1856 79.0701V81.1872Z" fill="#4356FF"/>
<path d="M63.1856 85.8584L42.2996 97.76V95.6428L63.1856 83.7413V85.8584Z" fill="#4356FF"/>
<path d="M63.1856 90.5347L42.2996 102.431V100.314L63.1856 88.4124V90.5347Z" fill="#4356FF"/>
<path d="M63.1856 95.2059L42.2996 107.107V104.985L63.1856 93.0887V95.2059Z" fill="#4356FF"/>
<path d="M80.8964 66.3467L68.2112 73.5771V71.4548L80.8964 64.2296V66.3467Z" fill="#FF604F"/>
<path d="M89.1026 66.3467L68.2112 78.2482V76.1311L89.1026 64.2296V66.3467Z" fill="#4356FF"/>
<path d="M89.1026 71.023L68.2112 82.9194V80.8023L89.1026 68.9007V71.023Z" fill="#4356FF"/>
<path d="M89.1026 75.6942L68.2112 87.5958V85.4735L89.1026 73.5771V75.6942Z" fill="#4356FF"/>
<path d="M89.1026 80.3653L68.2112 92.2669V90.1498L89.1026 78.2482V80.3653Z" fill="#4356FF"/>
<path d="M103.865 21.4661L91.1797 28.6913V26.5742L103.865 19.3438V21.4661Z" fill="#FF604F"/>
<path d="M112.071 21.4661L91.1797 33.3624V31.2453L112.071 19.3438V21.4661Z" fill="#4356FF"/>
<path d="M112.071 26.1372L91.1797 38.0388V35.9165L112.071 24.0201V26.1372Z" fill="#4356FF"/>
<path d="M112.071 30.8084L91.1797 42.71V40.5929L112.071 28.6913V30.8084Z" fill="#4356FF"/>
<path d="M112.071 35.4847L91.1797 47.3863V45.264L112.071 33.3624V35.4847Z" fill="#4356FF"/>
</g>
<defs>
<linearGradient id="paint0_linear_515_9607" x1="0.938232" y1="126.602" x2="72.3124" y2="126.602" gradientUnits="userSpaceOnUse">
<stop stop-color="#6EBD46"/>
<stop offset="1" stop-color="#84E453"/>
</linearGradient>
<linearGradient id="paint1_linear_515_9607" x1="88.6415" y1="47.8212" x2="80.9078" y2="33.8911" gradientUnits="userSpaceOnUse">
<stop stop-color="#4356FF" stop-opacity="0"/>
<stop offset="0.11" stop-color="#4356FF" stop-opacity="0.13"/>
<stop offset="0.44" stop-color="#4356FF" stop-opacity="0.5"/>
<stop offset="0.71" stop-color="#4356FF" stop-opacity="0.77"/>
<stop offset="0.9" stop-color="#4356FF" stop-opacity="0.94"/>
<stop offset="1" stop-color="#4356FF"/>
</linearGradient>
<linearGradient id="paint2_linear_515_9607" x1="91.7685" y1="53.0288" x2="82.2684" y2="35.917" gradientUnits="userSpaceOnUse">
<stop stop-color="#FF604F" stop-opacity="0"/>
<stop offset="0.09" stop-color="#FF604F" stop-opacity="0.06"/>
<stop offset="0.27" stop-color="#FF604F" stop-opacity="0.2"/>
<stop offset="0.51" stop-color="#FF604F" stop-opacity="0.44"/>
<stop offset="0.8" stop-color="#FF604F" stop-opacity="0.76"/>
<stop offset="1" stop-color="#FF604F"/>
</linearGradient>
<clipPath id="clip0_515_9607">
<rect width="149.007" height="150" fill="white" transform="translate(0.496582 0.612305)"/>
</clipPath>
</defs>
</svg>
