<svg width="150" height="150" viewBox="0 0 150 150" fill="none" xmlns="http://www.w3.org/2000/svg">
<g clip-path="url(#clip0_515_9758)">
<path d="M72.1365 143.563L148.962 99.6353L149.121 106.299L72.1365 150.154V143.563Z" fill="#84E453" stroke="black" stroke-width="1.53546" stroke-linejoin="round"/>
<path d="M72.1366 143.563L0.938232 101.57L1.09809 108.427L72.1366 150.179L72.1526 143.563H72.1366Z" fill="url(#paint0_linear_515_9758)" stroke="black" stroke-width="1.53546" stroke-linejoin="round"/>
<path d="M71.6251 61.1111L0.938232 101.57L72.1366 143.563L148.962 99.6356L71.6251 61.0951V61.1111Z" fill="#99FF62" stroke="black" stroke-width="1.53546" stroke-linejoin="round"/>
<g style="mix-blend-mode:multiply" opacity="0.3">
<path d="M108.909 71.076L69.4211 94.4693L40.8849 110.939C40.5665 111.122 40.1729 111.117 39.86 110.924L35.0132 107.934V96.7789L37.4778 87.2037L37.5213 74.9393L37.4778 57.9832L61.4542 44.1457L80.1074 33.3686L97.339 23.4183L90.5943 47.6413L101.516 54.0815L108.909 71.076Z" fill="#50298A"/>
</g>
<path d="M107.185 7.91576C107.162 7.91576 107.162 7.91576 107.185 7.91576C107.115 7.86926 107.069 7.84602 106.999 7.82277H106.976C106.953 7.82277 106.929 7.79953 106.929 7.79953C106.906 7.79953 106.883 7.77628 106.836 7.77628C106.813 7.77628 106.767 7.75303 106.743 7.75303C106.72 7.75303 106.697 7.75304 106.697 7.72979H106.674C106.604 7.72979 106.558 7.70654 106.488 7.70654H106.046C106.023 7.70654 106 7.70654 105.976 7.72979C105.93 7.72979 105.883 7.75303 105.837 7.75303C105.814 7.75303 105.79 7.75304 105.767 7.77628C105.744 7.77628 105.721 7.79953 105.697 7.79953C105.628 7.82277 105.558 7.84602 105.465 7.86926C105.442 7.86926 105.418 7.89251 105.395 7.89251C105.372 7.89251 105.372 7.91576 105.349 7.91576C105.209 7.96225 105.093 8.03199 104.954 8.10172L33.7743 49.2239C33.6116 49.3169 33.4489 49.4331 33.2861 49.5493C33.2629 49.5726 33.2396 49.5958 33.1932 49.6191C33.0537 49.7353 32.8909 49.8748 32.7515 50.0143C32.7282 50.0143 32.7282 50.0375 32.705 50.0375L32.6352 50.1072C32.5655 50.177 32.4958 50.2467 32.426 50.3397L32.3563 50.4094C32.3331 50.4327 32.3098 50.4559 32.3098 50.4792C32.2633 50.5257 32.2168 50.5722 32.1936 50.6186C32.1703 50.6419 32.1471 50.6884 32.1238 50.7116C32.1006 50.7349 32.0773 50.7814 32.0541 50.8046C32.0308 50.8511 31.9844 50.8743 31.9611 50.9208L31.8914 50.9906C31.8681 51.0371 31.8216 51.0836 31.7984 51.1301C31.7751 51.1533 31.7519 51.1998 31.7287 51.223C31.7287 51.2463 31.7054 51.2463 31.7054 51.2695C31.6589 51.3625 31.5892 51.4555 31.5427 51.5485V51.5717C31.5427 51.595 31.5194 51.6182 31.5194 51.6182C31.4729 51.688 31.4497 51.7577 31.4032 51.8042C31.38 51.8274 31.38 51.8739 31.3567 51.8972C31.3335 51.9204 31.3335 51.9669 31.3102 51.9902C31.287 52.0134 31.287 52.0366 31.2637 52.0831C31.2405 52.1529 31.194 52.2226 31.1707 52.2924C31.1707 52.3156 31.1475 52.3156 31.1475 52.3389V52.3621C31.101 52.4551 31.0778 52.5481 31.0313 52.641C31.0313 52.6643 31.0313 52.6643 31.008 52.6875C30.9848 52.7108 30.9848 52.7573 30.9615 52.7805C30.9383 52.827 30.915 52.8735 30.915 52.92C30.8918 52.9665 30.8918 52.9897 30.8918 53.0362C30.8685 53.0827 30.8686 53.1292 30.8453 53.1757C30.8453 53.199 30.8221 53.2222 30.8221 53.2687C30.7988 53.3152 30.7988 53.3617 30.7988 53.4082C30.7756 53.4547 30.7756 53.5244 30.7523 53.5709C30.7523 53.5941 30.7523 53.6174 30.7291 53.6406C30.7291 53.6871 30.7058 53.7104 30.7058 53.7569C30.6826 53.8498 30.6826 53.9196 30.6593 54.0126C30.6593 54.0358 30.6593 54.0591 30.6361 54.0823V54.152C30.6128 54.338 30.5896 54.524 30.5896 54.7099L30.7291 103.712C30.7291 104.201 30.8221 104.619 30.9848 104.968C31.1475 105.316 31.38 105.572 31.6589 105.735L35.0993 107.734C34.5414 107.409 34.1695 106.711 34.1695 105.712L34.0765 56.6626C34.0765 56.4766 34.0997 56.2907 34.123 56.1047C34.123 56.0582 34.123 56.0117 34.1462 55.9652C34.1695 55.8722 34.1695 55.8025 34.1927 55.7095C34.1927 55.663 34.216 55.5933 34.216 55.5468C34.2392 55.5003 34.2392 55.4306 34.2625 55.3841C34.2857 55.3143 34.309 55.2446 34.3322 55.1516C34.3555 55.1051 34.3554 55.0586 34.3787 55.0121C34.4019 54.9192 34.4252 54.8494 34.4717 54.7564C34.4949 54.7332 34.4949 54.6867 34.5182 54.6634L34.6576 54.3148C34.6576 54.2915 34.6809 54.2915 34.6809 54.2683C34.7274 54.1753 34.7739 54.0591 34.8204 53.9661C34.8436 53.9428 34.8436 53.8963 34.8669 53.8731C34.9134 53.7801 34.9598 53.6871 35.0296 53.5941C35.0296 53.5709 35.0528 53.5476 35.0528 53.5476C35.1226 53.4314 35.1923 53.3384 35.262 53.2222C35.2853 53.1989 35.3085 53.1525 35.3318 53.1292C35.3783 53.0595 35.4248 52.9897 35.4945 52.8968C35.5178 52.8503 35.5642 52.827 35.5875 52.7805C35.634 52.7108 35.6805 52.6643 35.727 52.5946C35.7735 52.5481 35.8199 52.5016 35.8432 52.4551C35.8897 52.4086 35.9129 52.3621 35.9594 52.3156C36.0292 52.2459 36.0989 52.1761 36.1686 52.0831C36.1919 52.0366 36.2384 52.0134 36.2849 51.9669C36.4243 51.8274 36.5638 51.688 36.7265 51.5717C36.7498 51.5485 36.773 51.5252 36.8195 51.502C36.9822 51.3858 37.145 51.2695 37.3077 51.1766L108.464 10.1009C108.603 10.0311 108.719 9.9614 108.859 9.91491C108.905 9.89167 108.952 9.89167 108.975 9.86842L109.184 9.79868C109.231 9.77544 109.277 9.77544 109.324 9.75219C109.37 9.75219 109.417 9.72894 109.463 9.72894C109.51 9.72894 109.579 9.7057 109.626 9.7057H109.975C110.044 9.7057 110.137 9.72894 110.207 9.72894C110.23 9.72894 110.254 9.72895 110.254 9.75219C110.323 9.77544 110.37 9.77544 110.416 9.79868C110.44 9.79868 110.463 9.82193 110.463 9.82193C110.533 9.84518 110.602 9.89167 110.672 9.91491L107.185 7.91576Z" fill="#997EFF"/>
<path d="M108.396 10.1265C110.142 9.12591 111.561 9.94031 111.561 11.9181L111.701 60.9682C111.701 62.9692 110.281 65.4124 108.559 66.413L37.3344 107.528C35.5893 108.529 34.1699 107.715 34.1699 105.737L34.0303 56.6867C34.0303 54.6857 35.4497 52.2425 37.1715 51.2419L108.396 10.1265Z" fill="#8666FF"/>
<path d="M52.0226 68.2896C55.9744 66.0115 59.1823 67.7781 59.1823 72.2414V72.7528C59.1823 74.5195 55.9976 76.4257 52.0458 78.7038L47.4431 81.3538C43.4913 83.6319 40.3066 85.4684 40.2833 83.6552V83.1438C40.2601 78.6805 43.468 73.2177 47.3966 70.9396L52.0226 68.2896Z" fill="#2828CE"/>
<path d="M41.1668 85.1431C41.1668 85.3755 41.2365 85.5615 41.3295 85.6777C41.376 85.7242 41.3993 85.7475 41.4457 85.7707L43.9563 87.2352C43.7704 87.119 43.6541 86.9098 43.6541 86.5843V86.0729L41.1436 84.6084L41.1668 85.1431Z" fill="#ACC5EA"/>
<path d="M58.0197 69.2661C57.9964 69.2661 57.9964 69.2428 57.9732 69.2428C57.857 69.1731 57.7407 69.1266 57.6245 69.0801C57.6013 69.0801 57.578 69.0569 57.5548 69.0569C57.5083 69.0336 57.485 69.0336 57.4385 69.0104C57.3688 68.9871 57.3223 68.9639 57.2526 68.9406C57.1828 68.9174 57.1131 68.9174 57.0434 68.8941C56.9969 68.8941 56.9736 68.8709 56.9271 68.8709C56.9039 68.8709 56.8806 68.8709 56.8574 68.8476C56.7179 68.8244 56.5784 68.8011 56.4157 68.8011H55.9508C55.9043 68.8011 55.8578 68.8011 55.8346 68.8244C55.7648 68.8244 55.6951 68.8476 55.6254 68.8476C55.5556 68.8476 55.5091 68.8476 55.4394 68.8709C55.3696 68.8709 55.3232 68.8941 55.2534 68.9174C55.1604 68.9406 55.0674 68.9639 54.9512 68.9871C54.9047 69.0104 54.8582 69.0104 54.7885 69.0104C54.6723 69.0336 54.5328 69.0801 54.3933 69.1266H54.3701C54.2306 69.1731 54.0679 69.2428 53.9284 69.2893C53.8587 69.3126 53.8122 69.3358 53.7424 69.3823C53.6959 69.4055 53.6262 69.4288 53.5797 69.452C53.3705 69.545 53.138 69.6612 52.9056 69.8007L48.3029 72.4508C48.0704 72.5902 47.8379 72.7297 47.6287 72.8924C47.559 72.9389 47.4893 73.0087 47.4195 73.0552C47.2568 73.1714 47.1173 73.2644 46.9778 73.4039C46.8849 73.4736 46.8151 73.5433 46.7221 73.6131C46.5827 73.7293 46.4432 73.8455 46.327 73.9618C46.234 74.0315 46.1642 74.1245 46.0712 74.1942C46.0248 74.2407 45.955 74.2872 45.9085 74.3569L45.7691 74.4964C45.6063 74.6591 45.4436 74.8451 45.2809 75.0311L45.1182 75.1938C45.0949 75.2403 45.0484 75.2635 45.0252 75.31L44.7462 75.6587C44.6765 75.7517 44.6068 75.8214 44.537 75.9144C44.4905 75.9609 44.4673 76.0074 44.4208 76.0771C44.351 76.1701 44.2813 76.2631 44.2348 76.3561C44.1883 76.4258 44.1186 76.4956 44.0721 76.5886C44.0024 76.6815 43.9559 76.7513 43.8861 76.8443C43.8396 76.914 43.7931 77.007 43.7234 77.0767C43.7002 77.1232 43.6769 77.1697 43.6304 77.193C43.5142 77.3789 43.398 77.5881 43.2817 77.7741V77.7974C43.1655 77.9833 43.0493 78.1925 42.9563 78.4017C42.933 78.4482 42.9098 78.4947 42.8866 78.5645C42.8401 78.6342 42.8168 78.7039 42.7936 78.7737C42.7471 78.8434 42.7006 78.9364 42.6773 79.0061C42.6076 79.1224 42.5611 79.2618 42.4914 79.4013C42.4681 79.4478 42.4449 79.5175 42.4216 79.564C42.4216 79.5873 42.3984 79.6105 42.3984 79.6338C42.3054 79.843 42.2124 80.0522 42.1427 80.2614C42.1427 80.2847 42.1194 80.3079 42.1194 80.3312L42.0497 80.5404C42.0032 80.6566 41.9567 80.7961 41.9102 80.9123L41.8405 81.1215C41.8172 81.2145 41.7707 81.3075 41.7475 81.4005L41.6778 81.6097C41.6545 81.7027 41.6313 81.7957 41.608 81.9119C41.5848 82.0281 41.5383 82.1444 41.515 82.2606C41.515 82.3071 41.4918 82.3536 41.4685 82.4001C41.4453 82.493 41.4453 82.5628 41.422 82.6558C41.3988 82.8417 41.3523 83.0045 41.3291 83.1904C41.3291 83.2369 41.3058 83.3066 41.3058 83.3531C41.2826 83.4694 41.2826 83.5856 41.2826 83.6786C41.2826 83.7716 41.2593 83.8413 41.2593 83.9343C41.2361 84.19 41.2361 84.4457 41.2361 84.7014L43.7466 86.1659C43.7466 85.9102 43.7699 85.6545 43.7699 85.3988C43.7699 85.3058 43.7931 85.2361 43.7931 85.1431C43.8164 84.9804 43.8396 84.8176 43.8629 84.6317C43.8861 84.4457 43.9094 84.283 43.9559 84.097C43.9791 83.9575 44.0024 83.8181 44.0256 83.7018C44.0488 83.5856 44.0721 83.4694 44.1186 83.3531C44.1651 83.1904 44.2116 83.0045 44.2581 82.8417C44.2813 82.7487 44.3046 82.6558 44.351 82.5628C44.4208 82.3768 44.4905 82.1676 44.5603 81.9816L44.63 81.7724C44.723 81.5167 44.8392 81.261 44.9554 81.0053C44.9787 80.9588 45.0019 80.8891 45.0252 80.8426C45.1182 80.6334 45.2112 80.4241 45.3274 80.2149C45.3506 80.1452 45.3971 80.0755 45.4204 80.0057C45.5598 79.75 45.6761 79.4943 45.8388 79.2618V79.2386C45.9783 79.0061 46.1177 78.7504 46.2805 78.518C46.327 78.4482 46.3734 78.3552 46.4432 78.2855L46.7919 77.7974L47.0011 77.5184C47.0941 77.3789 47.2103 77.2394 47.3265 77.1232L47.6055 76.7745C47.6985 76.6815 47.7682 76.5886 47.8612 76.4956C48.0239 76.3096 48.1866 76.1469 48.3494 75.9609L48.6516 75.6587C48.7445 75.589 48.8143 75.496 48.9073 75.4263C49.0467 75.31 49.163 75.1938 49.3024 75.0776C49.3954 75.0078 49.4652 74.9381 49.5581 74.8684C49.6976 74.7521 49.8604 74.6359 49.9998 74.5197C50.0696 74.4732 50.1393 74.4034 50.209 74.3569C50.4415 74.1942 50.674 74.0547 50.8832 73.9153L55.4859 71.2652C55.7183 71.1257 55.9276 71.0328 56.16 70.9165C56.2065 70.8933 56.2762 70.87 56.3227 70.8468C56.5319 70.7538 56.7412 70.6608 56.9504 70.5911H56.9736C57.1596 70.5214 57.3456 70.4749 57.5083 70.4284C57.6013 70.4051 57.7175 70.3819 57.8105 70.3586C57.9267 70.3354 58.0662 70.3121 58.1824 70.2889C58.2521 70.2889 58.3219 70.2656 58.3916 70.2656C58.5543 70.2656 58.6938 70.2424 58.8333 70.2656H58.9495C59.1355 70.2656 59.2982 70.2889 59.4842 70.3354C59.5307 70.3354 59.5772 70.3586 59.6004 70.3586C59.7399 70.3819 59.8794 70.4284 59.9956 70.4749C60.0421 70.4981 60.0886 70.4981 60.1118 70.5213C60.2746 70.5911 60.4373 70.6608 60.5768 70.7538L58.0197 69.2661Z" fill="#ACC5EA"/>
<path d="M48.8378 56.318C51.8831 54.5513 54.3704 55.9228 54.3936 59.3864C54.4169 62.8501 51.9295 67.0576 48.8843 68.8243C45.8391 70.591 43.3518 69.2195 43.3285 65.7558C43.3053 62.2922 45.7694 58.0847 48.8378 56.318Z" fill="#2828CE"/>
<path d="M55.3932 71.2189C59.345 68.9408 62.5529 70.7075 62.5529 75.1707V75.6821C62.5529 77.4488 59.3682 79.355 55.4164 81.6331L50.8137 84.2831C46.8619 86.5612 43.6772 88.3977 43.6539 86.5845V86.0731C43.6307 81.6098 46.8386 76.147 50.7672 73.8689L55.3932 71.2189Z" fill="white"/>
<path d="M53.9522 57.5734C54.1149 57.5269 54.2544 57.4804 54.3938 57.4571C54.4636 57.4339 54.5566 57.4339 54.6263 57.4106C54.7193 57.3874 54.8123 57.3874 54.9285 57.3641C54.975 57.3641 55.0447 57.3409 55.0912 57.3409H55.5329C55.6724 57.3409 55.8118 57.3641 55.9513 57.3874C55.9746 57.3874 56.0211 57.4106 56.0443 57.4106C56.1605 57.4339 56.2535 57.4571 56.3465 57.5036C56.3697 57.5036 56.4162 57.5269 56.4395 57.5269C56.5557 57.5734 56.6952 57.6431 56.8114 57.6896L54.3009 56.2251C54.3009 56.2251 54.2776 56.2251 54.2776 56.2018L53.9987 56.0624C53.9754 56.0624 53.9522 56.0391 53.9522 56.0391C53.9289 56.0159 53.8824 56.0159 53.8592 56.0159C53.8127 55.9926 53.7662 55.9694 53.7197 55.9694C53.6732 55.9461 53.6035 55.9461 53.557 55.9229C53.5337 55.9229 53.4872 55.8996 53.464 55.8996H53.4175C53.3013 55.8764 53.185 55.8764 53.0921 55.8531H52.6271C52.5807 55.8531 52.5109 55.8532 52.4644 55.8764C52.4179 55.8764 52.3714 55.8764 52.3249 55.8996C52.2785 55.8996 52.232 55.9229 52.1855 55.9229C52.1157 55.9461 52.0227 55.9461 51.953 55.9694C51.9065 55.9694 51.8833 55.9926 51.8368 55.9926C51.7438 56.0159 51.6508 56.0391 51.5346 56.0856H51.5113C51.3951 56.1321 51.2789 56.1553 51.1626 56.2251L51.0232 56.2948L50.8837 56.3646C50.721 56.4343 50.535 56.5273 50.3723 56.6203C50.1863 56.7133 50.0236 56.8295 49.8376 56.9457C49.7911 56.9922 49.7214 57.0387 49.6749 57.0619C49.5587 57.1549 49.4424 57.2247 49.3262 57.3177C49.2565 57.3641 49.1867 57.4339 49.1402 57.4804C49.0473 57.5734 48.931 57.6663 48.838 57.7593C48.7683 57.8291 48.6986 57.8756 48.6521 57.9453C48.6056 57.9918 48.5591 58.015 48.5126 58.0615L48.3964 58.1777C48.2569 58.3172 48.1407 58.4567 48.0244 58.5962C47.9779 58.6427 47.9315 58.6892 47.9082 58.7357C47.885 58.7589 47.8617 58.8054 47.8385 58.8286C47.7687 58.9216 47.699 58.9914 47.6293 59.0843C47.5828 59.1541 47.513 59.2006 47.4665 59.2703C47.4433 59.3168 47.42 59.3401 47.3735 59.3865C47.3271 59.4563 47.2806 59.526 47.2108 59.5958C47.1643 59.6655 47.1178 59.712 47.0714 59.7585L46.9319 59.9677C46.8854 60.0374 46.8621 60.0839 46.8156 60.1537C46.7924 60.1769 46.7692 60.2234 46.7459 60.2466C46.6529 60.3861 46.5599 60.5488 46.467 60.7116C46.374 60.8743 46.3042 61.0138 46.2112 61.1765C46.188 61.223 46.1648 61.2462 46.1415 61.2927C46.1183 61.3392 46.095 61.4089 46.0718 61.4554C46.0485 61.5252 46.002 61.5717 45.9788 61.6414C45.9323 61.7344 45.8858 61.8506 45.8393 61.9436C45.8161 61.9901 45.7928 62.0366 45.7928 62.0598C45.7928 62.0831 45.7696 62.0831 45.7696 62.1063L45.5604 62.5945C45.5604 62.6177 45.5371 62.641 45.5371 62.6642C45.5139 62.7107 45.4906 62.7572 45.4906 62.8269C45.4441 62.9199 45.4209 63.0129 45.3744 63.1291C45.3511 63.1756 45.3511 63.2454 45.3279 63.2919C45.3047 63.3616 45.2814 63.4313 45.2582 63.5243C45.2349 63.5708 45.2117 63.6406 45.2117 63.6871C45.1884 63.7568 45.1652 63.8498 45.1652 63.9195L45.0954 64.1985C45.0954 64.245 45.0722 64.2682 45.0722 64.3147C45.0489 64.3844 45.0489 64.4542 45.0489 64.5239L44.9792 64.9423C44.9792 64.9888 44.956 65.0353 44.956 65.0818C44.956 65.1748 44.9327 65.2445 44.9327 65.3375C44.9327 65.4073 44.9095 65.4537 44.9095 65.5235C44.8862 65.7327 44.8862 65.9187 44.8862 66.1279C44.8862 67.8248 45.4906 69.0104 46.467 69.5915L48.9775 71.056C48.0012 70.4981 47.3968 69.2893 47.3968 67.5924C47.3968 67.4064 47.3968 67.1972 47.42 66.988C47.42 66.9182 47.4433 66.8718 47.4433 66.802C47.4665 66.6625 47.4665 66.5463 47.4898 66.4068L47.5595 65.9884C47.5828 65.8954 47.606 65.7792 47.6293 65.6862L47.699 65.4073C47.7222 65.2678 47.7687 65.1516 47.8152 65.0121C47.8385 64.9423 47.8617 64.8726 47.885 64.7796C47.9315 64.6169 47.9779 64.4774 48.0477 64.3147C48.0709 64.2682 48.0942 64.2217 48.0942 64.152C48.1639 63.9428 48.2569 63.7568 48.3266 63.5476C48.3499 63.5011 48.3731 63.4546 48.3731 63.4313C48.4429 63.2686 48.5126 63.1059 48.6056 62.9432C48.6288 62.8967 48.6521 62.827 48.6753 62.7805C48.7683 62.5945 48.8845 62.3853 49.0008 62.1993L49.3495 61.6414C49.3959 61.5717 49.4192 61.5252 49.4657 61.4554C49.5587 61.3392 49.6284 61.1997 49.7214 61.0835C49.7679 61.0138 49.8144 60.944 49.8841 60.8743C49.9539 60.7581 50.0468 60.6651 50.1398 60.5721C50.2096 60.4791 50.2793 60.3861 50.349 60.3164C50.4188 60.2466 50.4885 60.1769 50.535 60.1072C50.6512 59.9677 50.7907 59.8282 50.9069 59.6887L51.1394 59.4563L51.3254 59.2703C51.4183 59.1773 51.5346 59.0843 51.6276 58.9914C51.6973 58.9449 51.767 58.8751 51.8135 58.8286C51.9298 58.7357 52.046 58.6427 52.1622 58.5729C52.2087 58.5264 52.2785 58.4799 52.3249 58.4567C52.5109 58.3405 52.6736 58.2242 52.8596 58.1313C53.0223 58.0383 53.2083 57.9453 53.371 57.8756L53.5105 57.8058C53.6267 57.7128 53.7894 57.6431 53.9522 57.5734Z" fill="#ACC5EA"/>
<path d="M52.8129 58.108C55.8581 56.3413 58.3455 57.7128 58.3687 61.1765C58.3687 64.6401 55.9046 68.8476 52.8594 70.6143C49.8142 72.381 47.3269 71.0095 47.3036 67.5459C47.2804 64.0822 49.7677 59.8747 52.8129 58.108Z" fill="white"/>
<path d="M101.141 24.2385C102.234 23.6109 103.14 24.1223 103.14 25.3776C103.14 26.6329 102.257 28.1903 101.164 28.818L69.5964 47.0428C68.5038 47.6705 67.5972 47.1591 67.5972 45.9038C67.5972 44.6485 68.4806 43.091 69.5732 42.4634L101.141 24.2385ZM100.7 38.8835C101.792 38.2559 102.699 38.7673 102.699 40.0226C102.699 41.2778 101.815 42.8353 100.723 43.463L69.1315 61.6878C68.0389 62.3155 67.1323 61.804 67.1323 60.5488C67.1323 59.2935 68.0157 57.736 69.1082 57.1084L100.7 38.8835Z" fill="#2828CE"/>
<path d="M103.164 25.7495C103.14 25.7495 103.14 25.7495 103.164 25.7495C103.117 25.7262 103.094 25.703 103.047 25.703H103.024C103.024 25.703 103.001 25.703 103.001 25.6797C102.978 25.6797 102.978 25.6565 102.954 25.6565C102.931 25.6565 102.908 25.6565 102.908 25.6332H102.861H102.838C102.792 25.6332 102.768 25.6332 102.722 25.61H102.606H102.42C102.397 25.61 102.373 25.61 102.35 25.6332H102.304C102.28 25.6332 102.28 25.6332 102.257 25.6565C102.211 25.6797 102.164 25.6797 102.118 25.703C102.094 25.703 102.094 25.703 102.071 25.7262C102.071 25.7262 102.048 25.7262 102.048 25.7495C101.955 25.7959 101.885 25.8192 101.792 25.8657L70.2241 44.0905C70.1079 44.1603 69.9684 44.2533 69.8522 44.3462C69.8057 44.3695 69.7824 44.416 69.7359 44.4392C69.6894 44.4857 69.6197 44.5322 69.5732 44.602C69.55 44.6252 69.5267 44.6484 69.5035 44.6949L69.4337 44.7647L69.364 44.8344C69.3175 44.9042 69.2478 44.9739 69.2013 45.0436C69.178 45.0669 69.1548 45.0901 69.1548 45.1134C69.1548 45.1366 69.1315 45.1366 69.1315 45.1599C69.1083 45.1831 69.1083 45.2064 69.085 45.2296C69.0385 45.2761 69.0153 45.3458 68.9688 45.3923C68.9223 45.4388 68.8991 45.5086 68.8758 45.555V45.6015L68.8061 45.741C68.7828 45.7875 68.7364 45.8572 68.7131 45.9037C68.6899 45.9502 68.6666 45.9967 68.6434 46.0665C68.6201 46.1362 68.5969 46.1827 68.5736 46.2524C68.5504 46.3222 68.5271 46.3687 68.5039 46.4384C68.5039 46.4616 68.4806 46.5081 68.4806 46.5314C68.4806 46.5546 68.4806 46.5546 68.4574 46.5779C68.4574 46.6011 68.4342 46.6244 68.4342 46.6476C68.4109 46.7173 68.3877 46.8103 68.3877 46.8801C68.3877 46.9266 68.3644 46.973 68.3644 47.0195C68.3644 47.0428 68.3644 47.066 68.3412 47.0893C68.3412 47.1125 68.3412 47.1358 68.3179 47.159C68.2947 47.2985 68.2947 47.4147 68.2947 47.5542C68.2947 47.8564 68.3412 48.1353 68.4574 48.3446C68.5504 48.5538 68.7131 48.7165 68.8758 48.8327L71.3864 50.2972C71.0377 50.088 70.8052 49.6463 70.8052 49.0187C70.8052 48.8792 70.8285 48.7165 70.8517 48.5538C70.8517 48.5305 70.8517 48.5073 70.875 48.484C70.8982 48.3446 70.9215 48.2051 70.968 48.0424C70.968 48.0191 70.968 48.0191 70.9912 47.9959C71.0377 47.8332 71.1074 47.6704 71.1539 47.531C71.2237 47.3682 71.2934 47.2055 71.3864 47.066V47.0428L71.6653 46.6244C71.6653 46.6011 71.6886 46.6011 71.6886 46.5779C71.7816 46.4616 71.8746 46.3454 71.9908 46.2292L72.0605 46.1594C72.1303 46.0665 72.2233 45.9967 72.3162 45.927C72.3627 45.9037 72.386 45.8572 72.4325 45.834C72.5487 45.741 72.6882 45.648 72.8044 45.5783L104.233 27.3534C104.326 27.3069 104.396 27.2605 104.489 27.2372C104.512 27.2372 104.535 27.214 104.558 27.214C104.605 27.1907 104.651 27.1907 104.698 27.1675C104.721 27.1675 104.768 27.1442 104.791 27.1442C104.814 27.1442 104.837 27.121 104.861 27.121C104.907 27.121 104.93 27.0977 104.977 27.0977H105.209C105.256 27.0977 105.302 27.0977 105.349 27.121H105.395C105.442 27.121 105.465 27.1442 105.512 27.1442C105.512 27.1442 105.535 27.1442 105.535 27.1675L105.674 27.2372L103.164 25.7495Z" fill="#ACC5EA"/>
<path d="M104.233 27.3535C105.325 26.7259 106.232 27.2373 106.232 28.4926C106.232 29.7478 105.348 31.3053 104.256 31.933L72.6879 50.1578C71.5953 50.7855 70.6887 50.2741 70.6887 49.0188C70.6887 47.7635 71.5721 46.206 72.6646 45.5784L104.233 27.3535Z" fill="white"/>
<path d="M103.164 40.0457C103.14 40.0457 103.14 40.0225 103.164 40.0457C103.117 40.0225 103.094 39.9992 103.047 39.9992H103.024C103.024 39.9992 103.001 39.9992 103.001 39.976C102.978 39.976 102.978 39.9527 102.954 39.9527C102.931 39.9527 102.908 39.9527 102.908 39.9295H102.861H102.838C102.792 39.9295 102.768 39.9295 102.722 39.9063H102.606H102.42C102.397 39.9063 102.373 39.9062 102.35 39.9295H102.304C102.28 39.9295 102.28 39.9295 102.257 39.9527C102.211 39.976 102.164 39.976 102.118 39.9992C102.094 39.9992 102.094 39.9992 102.071 40.0225C102.071 40.0225 102.048 40.0225 102.048 40.0457C101.955 40.0922 101.885 40.1155 101.792 40.162L70.2241 58.3868C70.1079 58.4566 69.9684 58.5495 69.8522 58.6425C69.8057 58.6658 69.7824 58.7123 69.7359 58.7355C69.6894 58.782 69.6197 58.8285 69.5732 58.8982C69.55 58.9215 69.5267 58.9447 69.5035 58.9912L69.4337 59.0609L69.364 59.1307C69.3175 59.2004 69.2478 59.2702 69.2013 59.3399C69.178 59.3631 69.1548 59.3864 69.1548 59.4096C69.1548 59.4329 69.1315 59.4329 69.1315 59.4561C69.1083 59.4794 69.1083 59.5026 69.085 59.5259C69.0385 59.5724 69.0153 59.6421 68.9688 59.6886C68.9223 59.7351 68.8991 59.8048 68.8758 59.8513V59.8978L68.8061 60.0373C68.7828 60.0838 68.7364 60.1535 68.7131 60.2C68.6899 60.2465 68.6666 60.293 68.6434 60.3627V60.386C68.6201 60.4557 68.5969 60.5022 68.5736 60.5719C68.5504 60.6417 68.5271 60.6882 68.5039 60.7579C68.5039 60.7811 68.4806 60.8276 68.4806 60.8509C68.4806 60.8741 68.4806 60.8741 68.4574 60.8974C68.4574 60.9206 68.4342 60.9439 68.4342 60.9671C68.4109 61.0369 68.3877 61.1298 68.3877 61.1996C68.3877 61.2461 68.3644 61.2926 68.3644 61.3391C68.3644 61.3623 68.3644 61.3855 68.3412 61.4088C68.3412 61.432 68.3412 61.4553 68.3179 61.4785C68.2947 61.618 68.2947 61.7342 68.2947 61.8737C68.2947 62.5014 68.5271 62.943 68.8758 63.1522L71.3864 64.6167C71.0377 64.4075 70.8052 63.9659 70.8052 63.3382C70.8052 63.1987 70.8285 63.036 70.8517 62.8733C70.8517 62.85 70.8517 62.8268 70.875 62.8036C70.8982 62.6641 70.9215 62.5246 70.968 62.3619C70.968 62.3386 70.968 62.3386 70.9912 62.3154C71.0377 62.1527 71.1074 61.9899 71.1539 61.8505C71.2237 61.6877 71.2934 61.5483 71.3864 61.3855V61.3623L71.6653 60.9439C71.6653 60.9206 71.6886 60.9206 71.6886 60.8974C71.7816 60.7811 71.8746 60.6649 71.9908 60.5487L72.0605 60.479C72.1303 60.386 72.2233 60.3162 72.3162 60.2465C72.3627 60.2232 72.386 60.1768 72.4325 60.1535C72.5487 60.0605 72.6882 59.9675 72.8044 59.8978L104.233 41.6265C104.326 41.58 104.396 41.5335 104.489 41.5102C104.512 41.5102 104.535 41.487 104.558 41.487C104.605 41.4637 104.651 41.4637 104.698 41.4405C104.721 41.4405 104.768 41.4172 104.791 41.4172C104.814 41.4172 104.837 41.394 104.884 41.394C104.93 41.394 104.954 41.3707 105 41.3707H105.233C105.279 41.3707 105.326 41.3707 105.372 41.394H105.419C105.465 41.394 105.488 41.4172 105.535 41.4172C105.535 41.4172 105.558 41.4172 105.558 41.4405L105.697 41.5102L103.164 40.0457Z" fill="#ACC5EA"/>
<path d="M104.233 41.6266C105.325 40.9989 106.232 41.5103 106.232 42.7656C106.232 44.0209 105.348 45.5784 104.256 46.206L72.6879 64.4309C71.5953 65.0585 70.6887 64.5471 70.6887 63.2918C70.6887 62.0366 71.5721 60.4791 72.6646 59.8514L104.233 41.6266Z" fill="white"/>
<path d="M86.8217 61.6645C87.9142 61.0369 88.8208 61.5483 88.8208 62.8036C88.8208 64.0589 87.9375 65.6164 86.8449 66.244L69.1315 76.4722C68.0389 77.0999 67.1323 76.5885 67.1323 75.3332C67.1323 74.0779 68.0157 72.5204 69.1082 71.8928L86.8217 61.6645Z" fill="#2828CE"/>
<path d="M91.9129 63.9892L89.4023 62.5247C89.3791 62.5015 89.3326 62.5015 89.3093 62.4782H89.2861C89.2861 62.4782 89.2628 62.4782 89.2628 62.455C89.2396 62.455 89.2396 62.4317 89.2164 62.4317C89.1931 62.4317 89.1699 62.4317 89.1699 62.4085H89.1234H89.1001C89.0536 62.4085 89.0304 62.4085 88.9839 62.3853H88.8677H88.6817C88.6584 62.3853 88.6352 62.3853 88.5887 62.4085H88.5422C88.519 62.4085 88.519 62.4085 88.4957 62.4317C88.4492 62.455 88.4027 62.455 88.3563 62.4782C88.333 62.4782 88.333 62.4782 88.3098 62.5015C88.3098 62.5015 88.2865 62.5015 88.2865 62.5247C88.1935 62.5712 88.1238 62.5945 88.0308 62.641L70.3174 72.8692L72.8279 74.3337L90.5414 64.1055C90.6344 64.059 90.7041 64.0125 90.7971 63.9892C90.8203 63.9892 90.8436 63.966 90.8668 63.966C90.9133 63.9427 90.9598 63.9427 91.0063 63.9195C91.0295 63.9195 91.076 63.8962 91.0993 63.8962C91.1225 63.8962 91.1458 63.873 91.1923 63.873C91.2388 63.873 91.262 63.8498 91.3085 63.8498H91.541C91.5874 63.8498 91.6339 63.8498 91.6804 63.873H91.7269C91.7734 63.873 91.7967 63.8962 91.8432 63.8962C91.8432 63.8962 91.8664 63.8962 91.8664 63.9195C91.8431 63.9427 91.8896 63.966 91.9129 63.9892ZM69.9222 73.1714C69.8757 73.1946 69.8524 73.2411 69.8059 73.2644C69.7362 73.3109 69.6897 73.3574 69.6432 73.4271C69.62 73.4503 69.5967 73.4736 69.5735 73.5201L69.5038 73.5898L69.434 73.6596C69.3875 73.7293 69.3178 73.799 69.2713 73.8455C69.248 73.8688 69.2248 73.892 69.2248 73.9153C69.2248 73.9385 69.2015 73.9385 69.2015 73.9618C69.1783 73.985 69.1783 74.0083 69.1551 74.0315C69.1086 74.078 69.0853 74.1477 69.0388 74.1942C68.9923 74.2407 68.9691 74.3104 68.9458 74.3569V74.4034L68.8761 74.5429C68.8529 74.5894 68.8064 74.6591 68.7831 74.7056C68.7599 74.7521 68.7366 74.7986 68.7134 74.8684C68.6901 74.9381 68.6669 74.9846 68.6436 75.0543C68.6204 75.1241 68.5972 75.1706 68.5739 75.2403C68.5739 75.2635 68.5507 75.31 68.5507 75.3333C68.5507 75.3565 68.5507 75.3565 68.5274 75.3798C68.5274 75.403 68.5042 75.4263 68.5042 75.4495C68.4809 75.5192 68.4577 75.6122 68.4577 75.682C68.4577 75.7285 68.4344 75.775 68.4344 75.8214C68.4344 75.8447 68.4344 75.8679 68.4112 75.8912V75.9609C68.3879 76.1004 68.3879 76.2166 68.3879 76.3561C68.3879 76.9837 68.6204 77.4254 68.9691 77.6346L71.4797 79.0991C71.131 78.8899 70.8985 78.4482 70.8985 77.8206C70.8985 77.6811 70.9218 77.5184 70.945 77.3557C70.945 77.3324 70.945 77.3092 70.9682 77.2859C70.9915 77.1465 71.0147 77.007 71.0612 76.8443C71.0612 76.821 71.0612 76.821 71.0845 76.7978C71.131 76.635 71.2007 76.4723 71.2472 76.3329C71.3169 76.1701 71.3867 76.0074 71.4797 75.8679V75.8447L71.7586 75.4263C71.7586 75.403 71.7819 75.403 71.7819 75.3798C71.8748 75.2635 71.9678 75.1473 72.0841 75.0311L72.1538 74.9613C72.2235 74.8684 72.3165 74.7986 72.4095 74.7289C72.456 74.7056 72.4792 74.6591 72.5257 74.6359C72.642 74.5429 72.7814 74.4499 72.8977 74.3802L70.3871 72.9157C70.1546 72.9854 70.0384 73.0552 69.9222 73.1714Z" fill="#ACC5EA"/>
<path d="M90.4945 64.1287C91.5871 63.501 92.4937 64.0124 92.4937 65.2677C92.4937 66.523 91.6103 68.0805 90.5178 68.7081L72.8043 78.9364C71.7118 79.564 70.8052 79.0526 70.8052 77.7973C70.8052 76.542 71.6885 74.9845 72.7811 74.3569L90.4945 64.1287Z" fill="white"/>
<g style="mix-blend-mode:multiply" opacity="0.3">
<path d="M107.594 106.366L131.207 92.5151C131.884 92.1263 131.884 91.1473 131.207 90.7585L125.077 87.3748L95.8157 104.253L102.526 107.734C103 107.944 106.053 107.259 107.608 106.366H107.594Z" fill="#50298A"/>
</g>
<path d="M123.727 51.7142C123.681 51.691 123.634 51.6677 123.611 51.6677C123.588 51.6445 123.565 51.6445 123.518 51.6212C123.495 51.6212 123.495 51.598 123.472 51.598C123.448 51.598 123.448 51.598 123.425 51.5747C123.379 51.5515 123.332 51.5515 123.263 51.5283H123.239C123.17 51.5283 123.123 51.505 123.053 51.505H122.588C122.542 51.505 122.495 51.5283 122.472 51.5283C122.426 51.5283 122.379 51.5515 122.333 51.5515H122.309C122.286 51.5515 122.24 51.5747 122.216 51.5747C122.123 51.598 122.054 51.6212 121.961 51.6677C121.937 51.6677 121.914 51.691 121.891 51.691C121.845 51.7142 121.798 51.7142 121.775 51.7375C121.752 51.7607 121.705 51.7607 121.682 51.784C121.566 51.8305 121.473 51.9002 121.356 51.9467L116.707 54.62C116.568 54.713 116.405 54.7827 116.265 54.8524C116.242 54.8524 116.242 54.8757 116.219 54.8757C116.126 54.9222 116.01 54.9454 115.917 54.9687C115.87 54.9919 115.824 54.9919 115.777 54.9919C115.754 54.9919 115.708 55.0152 115.684 55.0152C115.615 55.0384 115.545 55.0384 115.475 55.0384H115.219C115.15 55.0384 115.103 55.0152 115.033 54.9919H115.01C114.94 54.9687 114.894 54.9454 114.824 54.8989L118.265 56.8981H118.288C118.334 56.9213 118.358 56.9446 118.404 56.9446C118.427 56.9446 118.451 56.9678 118.451 56.9678H118.497C118.544 56.9911 118.59 56.9911 118.613 56.9911H118.916C118.985 56.9911 119.032 56.9911 119.101 56.9678H119.125C119.148 56.9678 119.194 56.9446 119.218 56.9446C119.264 56.9446 119.287 56.9213 119.334 56.9213H119.357C119.45 56.8981 119.543 56.8516 119.659 56.8283H119.683C119.683 56.8283 119.706 56.8283 119.706 56.8051C119.845 56.7354 120.008 56.6656 120.148 56.5726L124.797 53.8993C124.913 53.8296 125.006 53.7831 125.122 53.7366C125.145 53.7134 125.192 53.7134 125.215 53.6901C125.285 53.6669 125.331 53.6436 125.401 53.6204C125.494 53.5972 125.587 53.5507 125.657 53.5274C125.703 53.5042 125.75 53.5042 125.773 53.4809C125.82 53.4577 125.866 53.4577 125.913 53.4577C125.959 53.4344 126.029 53.4344 126.075 53.4344H126.424C126.517 53.4344 126.587 53.4344 126.656 53.4577H126.68C126.749 53.4809 126.819 53.4809 126.889 53.5042C126.912 53.5042 126.912 53.5042 126.935 53.5274C127.005 53.5507 127.075 53.5972 127.145 53.6204L123.727 51.7142ZM96.4831 103.088L96.4599 97.7413C96.4599 96.8115 95.9252 96.1838 95.3906 95.8816L91.9502 93.8824C92.4848 94.2079 93.0195 94.8123 93.0195 95.7421L93.0427 101.089C93.0427 101.763 93.1822 102.321 93.4147 102.716C93.5541 102.948 93.7401 103.134 93.9493 103.251L97.3897 105.25C96.8086 104.924 96.4831 104.18 96.4831 103.088Z" fill="#C68620"/>
<path d="M112.258 54.829C113.072 54.3641 113.909 54.2711 114.583 54.6663L117.884 56.5492C118.442 57.1768 119.256 57.0141 120.069 56.5492L124.718 53.8759C126.624 52.7601 127.996 53.5505 128.019 55.7588L128.042 62.6629L132.436 65.1735C133.808 65.6384 133.808 68.1489 132.18 70.6595L128.903 76.3315C128.089 77.4241 127.81 78.5399 127.81 79.4697L127.833 84.8163C127.833 87.0247 126.485 89.3725 124.556 90.4883L119.906 93.1616C119.093 93.6266 118.256 94.7424 117.721 95.6722L114.444 101.321C113.769 102.507 112.956 103.367 112.119 103.832C111.305 104.296 110.469 104.389 109.794 103.994L106.517 102.111C105.959 101.484 105.145 101.646 104.332 102.111L99.6591 104.808C97.753 105.924 96.3815 105.133 96.3582 102.925L96.335 97.5784C96.335 96.6253 95.7771 95.9976 95.2424 95.6954L91.9415 93.8125C90.57 93.0222 90.57 90.837 91.9182 88.4659L95.1959 82.4917C96.0095 81.3992 96.2885 80.2833 96.2885 79.3535L96.2652 74.0069C96.2652 71.7986 97.6135 69.4507 99.5429 68.3349L104.192 65.6616C105.006 65.1967 105.843 64.0809 106.656 62.9883L109.934 57.3163C110.608 56.1773 111.445 55.3172 112.258 54.829Z" fill="#FFCD2E"/>
<path d="M118.698 65.592L119.139 66.5218C114.467 74.3325 110.631 83.7471 109.446 88.1173L102.379 83.7006L104.169 80.9576L108.26 82.3756C109.911 79.0514 113.607 72.2403 118.698 65.592ZM114.42 54.5501L111.119 52.6672C111.05 52.6207 110.98 52.5975 110.91 52.5742C110.91 52.5742 110.887 52.5742 110.887 52.551C110.864 52.551 110.841 52.5277 110.817 52.5277C110.794 52.5045 110.748 52.5045 110.724 52.4812C110.701 52.4812 110.655 52.458 110.631 52.458C110.608 52.458 110.585 52.458 110.562 52.4347H110.515C110.445 52.4115 110.376 52.4115 110.306 52.4115H109.841C109.818 52.4115 109.794 52.4115 109.771 52.4347C109.725 52.4347 109.678 52.458 109.655 52.458C109.632 52.458 109.609 52.458 109.585 52.4812C109.562 52.4812 109.539 52.5045 109.516 52.5045L109.306 52.5742C109.283 52.5742 109.26 52.5975 109.237 52.5975C109.213 52.5975 109.213 52.6207 109.19 52.6207C109.074 52.6672 108.934 52.7369 108.818 52.8067C108.725 52.8532 108.632 52.9229 108.539 52.9926C108.516 53.0159 108.469 53.0391 108.446 53.0624C108.376 53.1089 108.307 53.1554 108.26 53.2019C108.237 53.2251 108.19 53.2484 108.167 53.2948C108.098 53.3413 108.051 53.4111 107.981 53.4576L107.888 53.5506C107.865 53.5738 107.842 53.5738 107.842 53.597C107.819 53.6203 107.795 53.6435 107.772 53.69C107.702 53.7598 107.633 53.8295 107.563 53.9225L107.493 53.9922C107.47 54.0155 107.447 54.062 107.423 54.0852C107.377 54.1317 107.33 54.1782 107.284 54.2479C107.261 54.2712 107.237 54.2944 107.214 54.3409C107.191 54.3874 107.144 54.4107 107.121 54.4571C107.098 54.5036 107.051 54.5501 107.028 54.5966C107.005 54.6199 107.005 54.6431 106.982 54.6664C106.935 54.7361 106.889 54.8058 106.842 54.8523C106.819 54.8756 106.796 54.9221 106.772 54.9453L106.749 54.9686C106.68 55.0848 106.61 55.201 106.54 55.294C106.54 55.3172 106.517 55.3172 106.517 55.3405L103.239 61.0125L102.611 61.8494C102.542 61.9191 102.495 61.9888 102.426 62.0818C102.379 62.1283 102.356 62.1748 102.309 62.2213C102.24 62.3143 102.147 62.4073 102.077 62.5003L102.007 62.57L101.984 62.5932C101.868 62.7327 101.728 62.8722 101.612 62.9884L101.496 63.1047C101.403 63.1744 101.333 63.2674 101.24 63.3371C101.193 63.3604 101.17 63.4069 101.124 63.4301C101.007 63.5231 100.891 63.6161 100.775 63.6858L96.1258 66.3591C95.9166 66.4753 95.7306 66.6148 95.5447 66.7543C95.5214 66.7775 95.4982 66.7775 95.4749 66.8008C95.289 66.9402 95.1263 67.0797 94.9635 67.2424L94.917 67.2889C94.8938 67.3122 94.8938 67.3354 94.8706 67.3354C94.8008 67.4052 94.7078 67.4981 94.6381 67.5911L94.5683 67.6609L94.5451 67.6841C94.5219 67.7306 94.4754 67.7771 94.4521 67.8003C94.4056 67.8468 94.3591 67.8933 94.3359 67.9398C94.3126 67.9631 94.3127 67.9863 94.2894 67.9863C94.2662 68.0096 94.2429 68.0561 94.2197 68.0793C94.1964 68.1258 94.1732 68.149 94.1267 68.1955C94.1034 68.242 94.0802 68.2653 94.0569 68.3118C94.0337 68.335 94.0104 68.3815 93.9872 68.4047C93.9639 68.428 93.964 68.4512 93.9407 68.4512C93.8942 68.5442 93.8477 68.614 93.778 68.7069V68.7302C93.778 68.7534 93.7547 68.7534 93.7547 68.7767C93.7082 68.8464 93.685 68.8929 93.6618 68.9626C93.6385 69.0091 93.6153 69.0324 93.6153 69.0789C93.592 69.1021 93.592 69.1254 93.5688 69.1719C93.5688 69.1951 93.5455 69.2184 93.5455 69.2416C93.499 69.3346 93.4525 69.4043 93.4293 69.4973V69.5206C93.4293 69.5438 93.406 69.567 93.406 69.5903C93.3828 69.66 93.3596 69.7298 93.3363 69.7763C93.3131 69.7995 93.3131 69.846 93.2898 69.8925C93.2666 69.939 93.2666 69.9622 93.2433 70.0087C93.2433 70.032 93.2201 70.0552 93.2201 70.1017L93.1503 70.3109C93.1503 70.3342 93.1271 70.3807 93.1271 70.4039V70.4271C93.1039 70.5201 93.0806 70.5899 93.0574 70.6829C93.0574 70.7293 93.0341 70.7526 93.0341 70.7991V70.8223C93.0341 70.8456 93.0341 70.8688 93.0109 70.8921C92.9876 71.0083 92.9644 71.1478 92.9411 71.264V71.3802C92.9179 71.6127 92.8946 71.8219 92.8946 72.0544L92.9179 77.4009C92.9179 77.5869 92.8946 77.7729 92.8714 77.9821V78.0751C92.8714 78.1448 92.8481 78.2145 92.8249 78.2843C92.8249 78.354 92.8017 78.4005 92.7784 78.4703C92.7784 78.4935 92.7552 78.54 92.7552 78.5632L92.6854 78.8422C92.6854 78.8654 92.6622 78.8887 92.6622 78.9119C92.6157 79.0282 92.5924 79.1444 92.5227 79.2606C92.5227 79.2839 92.4995 79.2839 92.4995 79.3071C92.453 79.4233 92.3832 79.5396 92.3367 79.6558C92.3367 79.679 92.3135 79.679 92.3135 79.7023C92.2438 79.8185 92.174 79.958 92.1043 80.0742C92.1043 80.0975 92.081 80.0975 92.081 80.1207C91.9881 80.2602 91.9183 80.3764 91.8021 80.5159L88.5011 86.4901C88.4547 86.5831 88.3849 86.6993 88.3384 86.7923C88.3152 86.8156 88.3152 86.8621 88.2919 86.8853C88.2687 86.9318 88.2454 86.955 88.2222 87.0015C88.1989 87.048 88.1757 87.0713 88.1525 87.1178C88.1292 87.1875 88.106 87.234 88.0595 87.3037C88.0362 87.327 88.0362 87.3735 88.013 87.3967C88.013 87.42 87.9897 87.42 87.9897 87.4432C87.9432 87.5594 87.8968 87.6524 87.8503 87.7454V87.7687C87.8503 87.7919 87.827 87.8384 87.827 87.8616L87.7573 88.0709C87.7573 88.0941 87.734 88.1406 87.734 88.1638C87.7108 88.2103 87.7108 88.2568 87.6875 88.3033C87.6875 88.3498 87.6643 88.373 87.6643 88.4195C87.6411 88.466 87.641 88.5125 87.641 88.5358C87.6178 88.5823 87.6178 88.652 87.5945 88.6985C87.5945 88.7217 87.5713 88.745 87.5713 88.7682C87.5713 88.8147 87.5481 88.838 87.5481 88.8845C87.5248 88.9542 87.5248 89.0472 87.5016 89.1169C87.5016 89.1402 87.5016 89.1634 87.4783 89.1867V89.2796C87.4783 89.3726 87.4551 89.4656 87.4551 89.5353V90.07C87.4551 90.1862 87.4783 90.3257 87.5016 90.4187V90.4419C87.5248 90.5582 87.5481 90.6512 87.5945 90.7441C87.6178 90.7674 87.6178 90.8139 87.641 90.8371C87.6643 90.9069 87.7108 90.9766 87.734 91.0463C87.7573 91.0928 87.7805 91.1161 87.8038 91.1393C87.8503 91.2091 87.8735 91.2556 87.92 91.3021C87.9432 91.3253 87.9665 91.3718 87.9897 91.395C88.0362 91.4415 88.0827 91.5113 88.1525 91.5578L88.2222 91.6275C88.3152 91.6972 88.3849 91.767 88.4779 91.8134L91.9183 93.8126C91.8253 93.7661 91.7323 93.6964 91.6626 93.6266L91.5929 93.5569L91.4301 93.3942C90.5859 92.3996 91.0654 90.2415 91.7323 88.9077C91.8021 88.7682 91.8718 88.652 91.9416 88.5125L95.2192 82.5383C95.2657 82.4918 95.289 82.4453 95.3122 82.3988L95.4517 82.1896C95.4517 82.1664 95.4749 82.1664 95.4749 82.1431C95.4749 82.1199 95.4982 82.1199 95.4982 82.0966C95.5214 82.0501 95.5447 82.0036 95.5679 81.9804C95.6144 81.9107 95.6377 81.8409 95.6842 81.7944C95.6842 81.7712 95.7074 81.7712 95.7074 81.7479C95.7074 81.7247 95.7306 81.7247 95.7306 81.7014C95.7539 81.6782 95.7771 81.6317 95.7771 81.6085C95.8004 81.5387 95.8469 81.469 95.8701 81.4225C95.8701 81.3993 95.8934 81.376 95.8934 81.3528C95.8934 81.3295 95.9166 81.3295 95.9166 81.3063C95.9399 81.283 95.9399 81.2365 95.9631 81.2133L96.0329 81.0041C96.0329 80.9808 96.0328 80.9808 96.0561 80.9576C96.0561 80.9343 96.0793 80.9111 96.0793 80.8878C96.1026 80.8413 96.1026 80.7949 96.1258 80.7484C96.1491 80.7019 96.1491 80.6554 96.1723 80.6089C96.1723 80.5856 96.1956 80.5391 96.1956 80.5159V80.4694C96.1956 80.4229 96.2188 80.3764 96.2188 80.3299C96.2421 80.2602 96.2421 80.1905 96.2653 80.1207V80.0742V80.0045C96.2886 79.7953 96.3118 79.6093 96.3118 79.4233L96.2886 74.0768C96.2886 73.8443 96.3118 73.6351 96.335 73.4026V73.2864C96.3583 73.1702 96.3815 73.0307 96.4048 72.9145C96.4048 72.8912 96.4048 72.8447 96.428 72.8215C96.428 72.775 96.4513 72.7517 96.4513 72.7052L96.521 72.4263C96.521 72.4031 96.5443 72.3566 96.5443 72.3333C96.5675 72.2403 96.5908 72.1473 96.6372 72.0544C96.6605 72.0079 96.6605 71.9846 96.6837 71.9381C96.7302 71.8451 96.7535 71.7289 96.8 71.6359C96.8 71.6127 96.8232 71.5894 96.8232 71.5894C96.8697 71.4732 96.9162 71.357 96.9859 71.2408C97.0092 71.2175 97.0092 71.1943 97.0324 71.171C97.0789 71.078 97.1487 70.9618 97.1952 70.8688C97.1952 70.8456 97.2184 70.8456 97.2184 70.8223C97.2881 70.7061 97.3579 70.6131 97.4276 70.4969C97.4509 70.4736 97.4741 70.4271 97.4973 70.4039C97.5438 70.3342 97.6136 70.2412 97.6601 70.1714C97.6833 70.1482 97.7066 70.1017 97.7298 70.0785C97.7763 70.0087 97.846 69.939 97.8925 69.8692C97.9158 69.8227 97.9623 69.7763 97.9855 69.753C98.0088 69.7065 98.0553 69.6833 98.0785 69.6368C98.1482 69.5438 98.2412 69.4741 98.311 69.3811L98.4039 69.2881C98.5667 69.1254 98.7294 68.9859 98.9153 68.8464C98.9386 68.8232 98.9618 68.8232 98.9851 68.7999C99.1711 68.6604 99.357 68.521 99.5662 68.4047L104.215 65.7315C104.332 65.6617 104.448 65.5687 104.564 65.4757C104.611 65.4525 104.634 65.406 104.68 65.3828C104.773 65.313 104.843 65.2433 104.936 65.1503C104.959 65.1271 104.983 65.1271 105.006 65.1038L105.052 65.0573C105.169 64.9411 105.308 64.8016 105.424 64.6621L105.447 64.6389C105.471 64.6156 105.494 64.5691 105.517 64.5459C105.587 64.4529 105.657 64.3832 105.75 64.2902C105.796 64.2437 105.819 64.1972 105.866 64.1507C105.912 64.081 105.982 64.0113 106.029 63.9415C106.029 63.9415 106.029 63.9183 106.052 63.9183L106.68 63.0814L109.957 57.4094C110.027 57.2699 110.12 57.1304 110.213 57.0142C110.236 56.991 110.259 56.9445 110.283 56.9212C110.352 56.8282 110.399 56.7353 110.469 56.6655C110.492 56.619 110.538 56.5725 110.562 56.526C110.608 56.4563 110.678 56.3866 110.724 56.3168C110.771 56.2703 110.817 56.2006 110.864 56.1541C110.91 56.1076 110.957 56.0379 111.003 55.9914C111.073 55.9216 111.143 55.8287 111.212 55.7589L111.352 55.6194L111.445 55.5265C111.515 55.48 111.561 55.4102 111.631 55.3637L111.724 55.2708C111.794 55.2243 111.863 55.1778 111.91 55.1313C111.933 55.108 111.98 55.0848 112.003 55.0615C112.096 54.9918 112.189 54.9453 112.282 54.8756C112.398 54.8058 112.538 54.7361 112.654 54.6896C112.7 54.6664 112.747 54.6664 112.77 54.6431L112.979 54.5734C113.026 54.5501 113.072 54.5501 113.119 54.5269C113.165 54.5269 113.212 54.5036 113.235 54.5036C113.305 54.5036 113.351 54.4804 113.421 54.4804H113.77C113.863 54.4804 113.932 54.5036 114.025 54.5036C114.048 54.5036 114.072 54.5036 114.095 54.5269C114.165 54.5501 114.211 54.5501 114.281 54.5734C114.304 54.5734 114.327 54.5966 114.351 54.5966C114.444 54.6199 114.513 54.6664 114.583 54.7129L117.884 56.5958L114.42 54.5501Z" fill="#C68620"/>
<path d="M111.585 83.7239C111.608 83.6774 111.631 83.6542 111.654 83.6077C111.771 83.3752 111.887 83.166 112.026 82.9103C112.096 82.7708 112.189 82.6081 112.259 82.4686C112.329 82.3292 112.422 82.1897 112.491 82.027C112.584 81.8642 112.677 81.7015 112.747 81.5388C112.84 81.3761 112.91 81.2366 113.003 81.0739C113.096 80.9112 113.189 80.7484 113.282 80.5625L113.561 80.0743C113.654 79.9116 113.77 79.7256 113.863 79.5396C113.956 79.3769 114.049 79.1909 114.165 79.0282C114.235 78.912 114.281 78.819 114.351 78.7028L114.769 78.0054C114.839 77.8659 114.932 77.7497 115.002 77.6102C115.141 77.401 115.258 77.1686 115.397 76.9593C115.49 76.8199 115.583 76.6804 115.676 76.5177C115.816 76.3084 115.955 76.076 116.094 75.8668C116.187 75.7273 116.28 75.5646 116.373 75.4251C116.466 75.2624 116.559 75.1229 116.676 74.9602C117.001 74.4488 117.326 73.9374 117.675 73.4259C117.722 73.3795 117.745 73.333 117.768 73.2632C118.14 72.7053 118.512 72.1474 118.907 71.5895C119.023 71.45 119.116 71.2873 119.233 71.1478C119.465 70.8224 119.698 70.4737 119.953 70.1483C120.07 69.9855 120.163 69.8461 120.279 69.6833C120.627 69.1952 120.976 68.7303 121.348 68.2421L118.837 66.7776C118.466 67.2658 118.117 67.7307 117.768 68.2188C117.652 68.3816 117.559 68.521 117.443 68.6605C117.187 68.986 116.955 69.3346 116.722 69.6601C116.652 69.7531 116.606 69.8228 116.536 69.9158L116.397 70.125C116.001 70.6829 115.63 71.2408 115.258 71.7987C115.211 71.8452 115.188 71.8917 115.165 71.9614C114.816 72.4729 114.49 72.9843 114.165 73.4957L114.026 73.7049C113.979 73.7979 113.909 73.8676 113.863 73.9606C113.77 74.1233 113.677 74.2628 113.584 74.4023C113.444 74.6347 113.305 74.8439 113.165 75.0532C113.072 75.1926 112.98 75.3554 112.887 75.4948C112.747 75.7273 112.608 75.9365 112.491 76.1457C112.422 76.2852 112.329 76.4014 112.259 76.5409L111.84 77.2383C111.771 77.3545 111.701 77.4475 111.654 77.5637C111.631 77.587 111.631 77.6102 111.608 77.6335C111.515 77.7729 111.445 77.9357 111.352 78.0751C111.236 78.2611 111.143 78.4471 111.05 78.6098L110.771 79.098C110.678 79.2607 110.585 79.4466 110.492 79.6094C110.399 79.7721 110.329 79.9116 110.236 80.0743C110.143 80.237 110.051 80.3997 109.981 80.5625C109.911 80.7019 109.818 80.8414 109.748 80.9809C109.655 81.1436 109.586 81.2831 109.516 81.4226C109.493 81.4458 109.493 81.4691 109.469 81.4923C109.353 81.7015 109.26 81.9107 109.144 82.0967C109.121 82.1432 109.097 82.1897 109.074 82.2129L108.795 82.7708C108.772 82.8173 108.749 82.8871 108.702 82.9336C108.609 83.1428 108.493 83.3287 108.4 83.5147L104.309 82.0967L102.519 84.8397L105.029 86.3042L106.819 83.5612L110.911 84.9792C111.004 84.7932 111.097 84.6073 111.213 84.3981C111.236 84.3516 111.259 84.2818 111.306 84.2353C111.399 84.0959 111.492 83.9099 111.585 83.7239Z" fill="#E8CFAC"/>
<path d="M112.096 90.7905L109.609 89.326L102.542 84.9093L105.029 86.3505L112.096 90.7905Z" fill="#808080"/>
<path d="M121.371 68.2651L121.813 69.195C117.14 77.0056 113.305 86.4203 112.119 90.7905L105.052 86.3738L106.842 83.6307L110.934 85.0487C112.584 81.7246 116.28 74.9135 121.371 68.2651Z" fill="white"/>
</g>
<defs>
<linearGradient id="paint0_linear_515_9758" x1="0.938232" y1="125.995" x2="72.3124" y2="125.995" gradientUnits="userSpaceOnUse">
<stop stop-color="#6EBD46"/>
<stop offset="1" stop-color="#84E453"/>
</linearGradient>
<clipPath id="clip0_515_9758">
<rect width="149.007" height="150" fill="white" transform="translate(0.496582 0.00512695)"/>
</clipPath>
</defs>
</svg>
