<svg width="150" height="151" viewBox="0 0 150 151" fill="none" xmlns="http://www.w3.org/2000/svg">
<g clip-path="url(#clip0_515_9659)">
<path d="M72.1365 144.17L148.962 100.242L149.121 106.906L72.1365 150.762V144.17Z" fill="#84E453" stroke="black" stroke-width="1.53546" stroke-linejoin="round"/>
<path d="M72.1366 144.17L0.938232 102.177L1.09809 109.034L72.1366 150.786L72.1526 144.17H72.1366Z" fill="url(#paint0_linear_515_9659)" stroke="black" stroke-width="1.53546" stroke-linejoin="round"/>
<path d="M71.6251 61.7183L0.938232 102.177L72.1366 144.17L148.962 100.243L71.6251 61.7023V61.7183Z" fill="#99FF62" stroke="black" stroke-width="1.53546" stroke-linejoin="round"/>
<g style="mix-blend-mode:multiply">
<path d="M59.3929 115.158C74.2198 108.87 84.3262 99.2601 81.9661 93.6928C79.6061 88.1255 65.6733 88.7094 50.8464 94.997C36.0196 101.285 25.9132 110.895 28.2732 116.462C30.6333 122.029 44.566 121.446 59.3929 115.158Z" fill="black" fill-opacity="0.1"/>
</g>
<g style="mix-blend-mode:multiply">
<path d="M82.3908 88.0849C84.3888 92.7981 97.159 91.8904 110.914 86.0574C112.381 85.4353 113.741 84.8231 115 84.2219C111.044 82.2098 97.9999 76.1123 93.9999 73.6123C86.2652 78.5224 80.9576 84.7041 82.3908 88.0849Z" fill="black" fill-opacity="0.1"/>
</g>
<g clip-path="url(#clip1_515_9659)">
<path d="M91.6581 45.5008C89.643 46.6617 88.0002 45.7308 88.0002 43.409C88.0002 41.0981 89.6211 38.2725 91.6362 37.1116C93.6514 35.9507 95.2942 36.8816 95.2942 39.2035C95.2942 41.5253 93.6733 44.3399 91.6581 45.5008Z" fill="#6361C2"/>
<path d="M93.9052 36.7119L91.5002 39.1122L89.4731 45.9135L91.2049 46.4565L96.2533 37.5337L93.9052 36.7119Z" fill="#6361C2"/>
<path d="M93.7646 46.2148C91.7494 47.3757 90.1066 46.4448 90.1066 44.123C90.1066 41.8121 91.7275 38.9865 93.7427 37.8256C95.7578 36.6647 97.4006 37.5956 97.4006 39.9175C97.4006 42.2393 95.7797 45.0539 93.7646 46.2148Z" fill="#C5C0E7"/>
<path d="M91.4975 60.4523C91.5085 60.6385 91.5961 60.7699 91.7166 60.8466L86.9963 58.1086C86.8758 58.0429 86.7991 57.9115 86.7772 57.7143L86.4596 54.1659L91.1799 56.9039L91.4975 60.4523Z" fill="#6361C2"/>
<path d="M103.906 28.0455C103.906 28.0455 103.928 28.0455 103.939 28.0345C103.972 28.0236 103.994 28.0126 104.027 28.0017C104.048 28.0017 104.07 28.0017 104.092 27.9907C104.114 27.9907 104.125 27.9907 104.147 27.9907C104.158 27.9907 104.18 27.9907 104.191 27.9907C104.202 27.9907 104.224 27.9907 104.235 27.9907C104.246 27.9907 104.268 27.9907 104.278 27.9907C104.289 27.9907 104.311 27.9907 104.322 28.0017C104.333 28.0017 104.355 28.0126 104.366 28.0236L109.075 30.7835C109.064 30.7835 109.054 30.7725 109.032 30.7616C109.021 30.7616 108.999 30.7616 108.988 30.7506C108.977 30.7506 108.955 30.7506 108.944 30.7506C108.933 30.7506 108.911 30.7506 108.9 30.7506C108.889 30.7506 108.867 30.7506 108.856 30.7506C108.834 30.7506 108.824 30.7506 108.802 30.7506C108.78 30.7506 108.758 30.7506 108.736 30.7616C108.714 30.7616 108.681 30.7835 108.648 30.7944C108.648 30.7944 108.626 30.7944 108.615 30.8054L105.374 32.3277L100.653 29.5897L103.895 28.0674L103.906 28.0455Z" fill="#6361C2"/>
<path d="M73.4486 46.4667C73.4486 46.4667 73.4486 46.4667 73.4486 46.4557C73.4486 46.4119 73.4596 46.3681 73.4705 46.3353C73.4705 46.3134 73.4705 46.3024 73.4815 46.2805C73.4815 46.2805 73.4815 46.2586 73.4815 46.2476C73.4815 46.2367 73.4815 46.2257 73.4815 46.2148C73.4815 46.1819 73.5034 46.1491 73.5143 46.1162C73.5143 46.0943 73.5253 46.0724 73.5362 46.0615C73.5362 46.0615 73.5362 46.0615 73.5362 46.0505C73.5362 46.0505 73.5362 46.0505 73.5362 46.0396C73.5362 46.0177 73.5582 45.9848 73.5691 45.9629C73.5801 45.941 73.591 45.9081 73.602 45.8862C73.602 45.8862 73.602 45.8753 73.602 45.8643C73.602 45.8643 73.602 45.8643 73.602 45.8534C73.602 45.8424 73.6129 45.8205 73.6239 45.8096C73.6348 45.7877 73.6458 45.7658 73.6677 45.7439C73.6786 45.722 73.6896 45.7 73.7115 45.6781C73.7224 45.6562 73.7443 45.6343 73.7553 45.6124C73.7662 45.5905 73.7881 45.5686 73.81 45.5467C73.81 45.5467 73.821 45.5358 73.832 45.5248C73.832 45.5248 73.832 45.5248 73.8429 45.5139C73.8429 45.5029 73.8648 45.492 73.8758 45.481C73.8977 45.4482 73.9305 45.4263 73.9524 45.3934C74.0072 45.3386 74.051 45.2948 74.1057 45.262L77.3366 43.0497C77.3804 42.7868 77.4351 42.5349 77.4899 42.2721C77.4899 42.2392 77.4899 42.2173 77.5009 42.1845C77.5118 42.1078 77.5337 42.0421 77.5556 41.9654C77.5775 41.845 77.6104 41.7354 77.6323 41.615C77.6542 41.5055 77.687 41.4069 77.7089 41.2974C77.7418 41.1769 77.7747 41.0674 77.7966 40.9469C77.7966 40.9031 77.8185 40.8702 77.8294 40.8264C77.8294 40.7936 77.8513 40.7607 77.8623 40.7279C77.9608 40.3664 78.0704 40.016 78.1908 39.6546C78.1908 39.6436 78.1908 39.6217 78.2018 39.6108C78.2018 39.5779 78.2237 39.5451 78.2346 39.5122C78.3442 39.1836 78.4646 38.8551 78.5851 38.5265C78.5851 38.5046 78.596 38.4937 78.607 38.4718C78.607 38.4718 78.607 38.4608 78.607 38.4499C78.6946 38.2199 78.7822 38.0008 78.8808 37.7708L76.7999 36.0952C76.7999 36.0952 76.7342 36.0295 76.7123 35.9966C76.7123 35.9857 76.7014 35.9638 76.6904 35.9528C76.6795 35.92 76.6685 35.8981 76.6576 35.8652C76.6576 35.8433 76.6576 35.8214 76.6576 35.7995C76.6576 35.7666 76.6576 35.7338 76.6466 35.7009C76.6466 35.679 76.6466 35.6462 76.6466 35.6243C76.6466 35.5914 76.6466 35.5476 76.6466 35.5147V35.4928C76.6466 35.449 76.6576 35.4052 76.6685 35.3614C76.6685 35.3286 76.6795 35.2957 76.6904 35.2628C76.6904 35.23 76.7123 35.1971 76.7233 35.1643C76.7233 35.1314 76.7452 35.1095 76.7561 35.0767C76.7671 35.0438 76.778 35.0219 76.789 34.989C76.789 34.989 76.789 34.9671 76.7999 34.9671C76.7999 34.9671 76.7999 34.9562 76.7999 34.9452C76.7999 34.9343 76.8109 34.9124 76.8218 34.9014C76.8328 34.8686 76.8547 34.8467 76.8656 34.8138C76.8766 34.7919 76.8985 34.7591 76.9094 34.7371L78.9027 31.2873C78.9246 31.2544 78.9356 31.2325 78.9575 31.1997C78.9794 31.1668 79.0013 31.1449 79.0122 31.1121C79.0122 31.1011 79.0341 31.0901 79.0341 31.0792C79.0341 31.0792 79.0341 31.0682 79.0451 31.0573C79.0451 31.0463 79.067 31.0354 79.067 31.0244C79.0889 30.9916 79.1217 30.9587 79.1436 30.9259C79.1546 30.9149 79.1656 30.904 79.1765 30.8821C79.1765 30.8711 79.1984 30.8602 79.2094 30.8492C79.2203 30.8383 79.2313 30.8273 79.2422 30.8163C79.2641 30.7944 79.297 30.7725 79.3189 30.7397C79.3408 30.7287 79.3517 30.7068 79.3736 30.6959C79.4284 30.6521 79.4832 30.6083 79.5379 30.5864C79.5708 30.5645 79.6146 30.5426 79.6474 30.5316C79.6474 30.5316 79.6584 30.5316 79.6693 30.5316C79.6912 30.5316 79.7022 30.5206 79.7241 30.5097C79.7351 30.5097 79.746 30.5097 79.7679 30.5097C79.7679 30.5097 79.7679 30.5097 79.7789 30.5097C79.8008 30.5097 79.8117 30.5097 79.8336 30.5097C79.8446 30.5097 79.8665 30.5097 79.8774 30.5097C79.8774 30.5097 79.8993 30.5097 79.9212 30.5097C79.9322 30.5097 79.9431 30.5097 79.965 30.5097H79.9869L82.4949 31.4516C82.4949 31.4516 82.5716 31.353 82.6154 31.2982C82.6592 31.2435 82.703 31.1778 82.7578 31.123C82.8454 31.0135 82.933 30.904 83.0206 30.7944C83.0863 30.7068 83.1521 30.6302 83.2287 30.5426C83.3163 30.433 83.404 30.3345 83.4916 30.2249C83.5244 30.1921 83.5573 30.1483 83.5792 30.1154C83.612 30.0826 83.6449 30.0497 83.6668 30.0169C83.8201 29.8526 83.9625 29.6773 84.1158 29.5131C84.1596 29.4693 84.2034 29.4145 84.2473 29.3707C84.4444 29.1626 84.6306 28.9655 84.8277 28.7683C84.8387 28.7574 84.8496 28.7464 84.8606 28.7355C84.8934 28.7026 84.9263 28.6807 84.9591 28.6479C85.1234 28.4836 85.2877 28.3303 85.4629 28.1769C85.5177 28.1222 85.5834 28.0674 85.6382 28.0127C85.8462 27.8265 86.0543 27.6403 86.2734 27.4541L90.9937 30.1921C90.7746 30.3673 90.5665 30.5535 90.3584 30.7506C90.3037 30.8054 90.238 30.8602 90.1832 30.9149C90.0189 31.0682 89.8437 31.2325 89.6794 31.3859C89.6356 31.4297 89.5918 31.4735 89.548 31.5173C89.3509 31.7144 89.1537 31.9115 88.9675 32.1196C88.9237 32.1634 88.8799 32.2182 88.8361 32.262C88.6828 32.4263 88.5295 32.5906 88.3871 32.7658C88.3214 32.8315 88.2666 32.9082 88.2009 32.9739C88.1133 33.0725 88.0257 33.182 87.9381 33.2915C87.8723 33.3791 87.7957 33.4558 87.73 33.5434C87.6424 33.6529 87.5547 33.7624 87.4671 33.8719C87.3795 33.9815 87.2919 34.091 87.2152 34.2005L84.7072 33.2586C84.7072 33.2586 84.6415 33.2367 84.5977 33.2367C84.5649 33.2367 84.5211 33.2367 84.4882 33.2367C84.4882 33.2367 84.4882 33.2367 84.4772 33.2367C84.4444 33.2367 84.4115 33.2477 84.3787 33.2696C84.3787 33.2696 84.3677 33.2696 84.3568 33.2696C84.313 33.2805 84.2801 33.3024 84.2363 33.3243C84.1815 33.3572 84.1268 33.3901 84.072 33.4339C84.0501 33.4448 84.0392 33.4667 84.0173 33.4777C83.9735 33.5105 83.9406 33.5434 83.8968 33.5872C83.8968 33.5981 83.8749 33.6091 83.8639 33.62C83.8201 33.6748 83.7654 33.7296 83.7216 33.7953C83.7216 33.7953 83.7216 33.8062 83.7106 33.8172C83.6558 33.8829 83.612 33.9596 83.5682 34.0362L81.575 37.4861C81.5312 37.5518 81.4983 37.6175 81.4655 37.6942C81.4655 37.6942 81.4655 37.7051 81.4655 37.7161C81.4326 37.7818 81.4107 37.8475 81.3888 37.9132C81.3669 37.9789 81.345 38.0446 81.334 38.1103C81.3231 38.1651 81.3121 38.2199 81.3121 38.2637C81.3121 38.2965 81.3121 38.3403 81.3121 38.3732C81.3121 38.3951 81.3121 38.428 81.3121 38.4499C81.3121 38.4827 81.3121 38.5156 81.3231 38.5484C81.3231 38.5703 81.3231 38.5922 81.3231 38.6141C81.3231 38.647 81.345 38.6798 81.3559 38.7018C81.3559 38.7127 81.3559 38.7346 81.3778 38.7456C81.3997 38.7894 81.4326 38.8222 81.4655 38.8441L83.5463 40.5198C83.4478 40.7498 83.3601 40.9688 83.2725 41.1988C83.2725 41.2207 83.2506 41.2536 83.2397 41.2755C83.1192 41.604 82.9987 41.9326 82.8892 42.2611C82.8783 42.3049 82.8564 42.3597 82.8454 42.4035C82.7249 42.7649 82.6154 43.1154 82.5168 43.4768C82.4949 43.5535 82.473 43.6192 82.4511 43.6958C82.4183 43.8163 82.3854 43.9258 82.3635 44.0463C82.3416 44.1558 82.3088 44.2544 82.2869 44.3639C82.254 44.4844 82.2321 44.6049 82.2102 44.7144C82.1883 44.8129 82.1664 44.9115 82.1445 45.0101C82.0897 45.2729 82.035 45.5248 81.9912 45.7877L78.7603 48C78.7056 48.0328 78.6508 48.0876 78.607 48.1314C78.5632 48.1752 78.5303 48.208 78.4865 48.2628C78.4865 48.2628 78.4865 48.2628 78.4756 48.2738C78.4318 48.3285 78.3989 48.3723 78.3551 48.438C78.3223 48.4928 78.2894 48.5585 78.2565 48.6133C78.2565 48.6133 78.2565 48.6133 78.2565 48.6242C78.2237 48.6899 78.2018 48.7447 78.1799 48.8104C78.1799 48.8104 78.1799 48.8104 78.1799 48.8214C78.158 48.8871 78.1361 48.9418 78.1251 49.0075C78.1251 49.0075 78.1251 49.0294 78.1251 49.0404C78.1142 49.0952 78.1032 49.1609 78.0923 49.2156C78.0923 49.2156 78.0923 49.2156 78.0923 49.2266C78.0923 49.2923 78.0813 49.358 78.0813 49.4237V49.4566L82.0459 51.7565C82.3526 53.1474 82.9002 54.3083 83.623 55.2063L81.5531 59.2805C81.5202 59.3462 81.4983 59.4009 81.4764 59.4666C81.4545 59.5433 81.4326 59.5981 81.4217 59.6638C81.4217 59.7076 81.4107 59.7514 81.3997 59.7843C81.3997 59.85 81.3997 59.9047 81.3997 59.9704C81.3997 59.9704 81.3997 59.9923 81.3997 60.0033C81.3997 60.069 81.4217 60.1347 81.4436 60.1895C81.4436 60.2004 81.4545 60.2223 81.4655 60.2333C81.4874 60.2771 81.5093 60.3209 81.5312 60.3538C81.5312 60.3647 81.5531 60.3866 81.564 60.3976C81.5969 60.4414 81.6407 60.4852 81.6954 60.5071L76.9752 57.7691C76.9752 57.7691 76.8875 57.7034 76.8437 57.6596C76.8437 57.6486 76.8218 57.6377 76.8109 57.6158C76.789 57.5829 76.7671 57.5391 76.7452 57.4953C76.7452 57.4843 76.7342 57.4624 76.7233 57.4515C76.7014 57.3967 76.6904 57.331 76.6795 57.2653C76.6795 57.2653 76.6795 57.2434 76.6795 57.2324C76.6795 57.1777 76.6795 57.112 76.6795 57.0463C76.6795 57.0463 76.6795 57.0244 76.6795 57.0134C76.6795 56.9806 76.6795 56.9477 76.6904 56.9148C76.6904 56.882 76.7014 56.8601 76.7123 56.8272C76.7123 56.8053 76.7233 56.7834 76.7342 56.7506C76.7342 56.7506 76.7342 56.7396 76.7342 56.7287C76.7342 56.7287 76.7342 56.7287 76.7342 56.7177C76.7342 56.7068 76.7342 56.6958 76.7452 56.6848C76.7452 56.6629 76.7671 56.641 76.7671 56.6191C76.7671 56.5972 76.789 56.5753 76.7999 56.5534C76.7999 56.5534 76.7999 56.5315 76.8109 56.5315L78.8808 52.4574C78.5741 52.0741 78.3003 51.636 78.0594 51.1651V52.6655C78.0594 52.9721 78.1689 53.1912 78.3332 53.2788L73.6129 50.5408C73.6129 50.5408 73.5362 50.486 73.5034 50.4422C73.4048 50.3218 73.3501 50.1465 73.3501 49.9165V46.6748C73.3501 46.6091 73.3501 46.5433 73.3501 46.4776L73.4486 46.4667Z" fill="#6361C2"/>
<path d="M86.6897 23.5114C86.6897 23.5114 86.6897 23.4676 86.6897 23.4567C86.6897 23.4238 86.6897 23.391 86.7116 23.3581C86.7116 23.3581 86.7116 23.3471 86.7116 23.3362C86.7116 23.3362 86.7116 23.3362 86.7116 23.3252C86.7116 23.3143 86.7116 23.2924 86.7116 23.2814C86.7116 23.2595 86.7226 23.2376 86.7336 23.2048C86.7336 23.1829 86.7445 23.161 86.7555 23.1391C86.7555 23.1172 86.7774 23.0952 86.7774 23.0733C86.7774 23.0514 86.7993 23.0295 86.8102 23.0076C86.8102 22.9967 86.8212 22.9748 86.8321 22.9638C86.8321 22.9638 86.8321 22.9638 86.8321 22.9529C86.8431 22.931 86.854 22.9091 86.865 22.8872C86.8759 22.8653 86.8978 22.8434 86.9088 22.8215C86.9088 22.8215 86.9088 22.8105 86.9197 22.7995C86.9197 22.7995 86.9197 22.7995 86.9197 22.7886C86.9197 22.7776 86.9416 22.7667 86.9416 22.7557C86.9635 22.7338 86.9854 22.701 86.9964 22.6791C86.9964 22.6681 87.0183 22.6572 87.0293 22.6462C87.0293 22.6462 87.0402 22.6353 87.0512 22.6243C87.0512 22.6243 87.0731 22.6024 87.0731 22.5915C87.1059 22.5586 87.1388 22.5148 87.1716 22.4819C87.2045 22.4491 87.2373 22.4162 87.2811 22.3943C87.3031 22.3834 87.314 22.3615 87.3359 22.3505C87.3907 22.3067 87.4454 22.2739 87.5111 22.23L90.3367 20.5982C90.3367 20.5982 90.4353 20.5434 90.4791 20.5325C90.4901 20.5325 90.501 20.5325 90.512 20.5215C90.5229 20.5215 90.5339 20.5215 90.5448 20.5106C90.5558 20.5106 90.5777 20.4996 90.5886 20.4996C90.6215 20.4996 90.6434 20.4887 90.6763 20.4777C90.6763 20.4777 90.6872 20.4777 90.6982 20.4777C90.6982 20.4777 90.6982 20.4777 90.7091 20.4777C90.7201 20.4777 90.731 20.4777 90.742 20.4777C90.7639 20.4777 90.7858 20.4777 90.8077 20.4777C90.8296 20.4777 90.8405 20.4777 90.8624 20.4777C90.8734 20.4777 90.8953 20.4777 90.9062 20.4777C90.9172 20.4777 90.9391 20.4777 90.9501 20.4887C90.961 20.4887 90.9829 20.4996 90.9939 20.5106L95.7141 23.2486C95.7141 23.2486 95.6265 23.2048 95.5827 23.1938C95.5389 23.1938 95.4842 23.1938 95.4294 23.1938C95.4294 23.1938 95.4294 23.1938 95.4184 23.1938C95.3746 23.1938 95.3199 23.2157 95.2651 23.2267C95.2542 23.2267 95.2432 23.2267 95.2323 23.2376C95.1775 23.2595 95.1118 23.2814 95.057 23.3252L93.9071 23.9933C93.9071 23.9933 93.9399 23.9933 93.9618 23.9933C94.2247 23.9824 94.4875 23.9933 94.7504 23.9933C94.9475 24.0043 95.1446 24.0262 95.3418 24.059L97.8388 20.2258C97.8388 20.2258 97.8607 20.193 97.8717 20.1711C97.8826 20.1492 97.9045 20.1273 97.9155 20.1054C97.9374 20.0835 97.9483 20.0616 97.9702 20.0397C97.9922 20.0068 98.025 19.9849 98.0469 19.952C98.1236 19.8754 98.2112 19.8097 98.2988 19.7549C98.3426 19.733 98.3755 19.7111 98.4193 19.7001C98.4521 19.6892 98.485 19.6782 98.5288 19.6673C98.5617 19.6673 98.5836 19.6563 98.6055 19.6454C98.6274 19.6454 98.6493 19.6454 98.6712 19.6454C98.6931 19.6454 98.715 19.6454 98.7369 19.6454C98.7588 19.6454 98.7807 19.6454 98.7916 19.6454C98.8135 19.6454 98.8245 19.6454 98.8464 19.6563C98.8683 19.6563 98.8793 19.6673 98.9012 19.6782C98.9231 19.6782 98.934 19.6892 98.9559 19.7001L100.96 20.8391L105.68 23.5771L103.676 22.4381C103.654 22.4381 103.643 22.4162 103.621 22.4162C103.6 22.4162 103.589 22.4053 103.567 22.3943C103.545 22.3943 103.534 22.3943 103.512 22.3834C103.49 22.3834 103.468 22.3834 103.457 22.3834C103.435 22.3834 103.413 22.3834 103.391 22.3834C103.37 22.3834 103.348 22.3834 103.326 22.3834C103.304 22.3834 103.271 22.3834 103.249 22.4053C103.216 22.4053 103.183 22.4272 103.14 22.4381C103.096 22.46 103.063 22.471 103.019 22.4929C102.931 22.5477 102.844 22.6134 102.767 22.69C102.745 22.7119 102.712 22.7448 102.691 22.7776C102.669 22.7995 102.658 22.8215 102.636 22.8434C102.625 22.8653 102.603 22.8872 102.592 22.9091C102.581 22.931 102.57 22.9419 102.559 22.9638L100.062 26.7861C99.8649 26.7532 99.6788 26.7313 99.4707 26.7203C99.2188 26.7094 98.9559 26.6984 98.6821 26.7203C98.3974 26.7313 98.1017 26.7642 97.795 26.808C97.4555 26.8627 97.105 26.9394 96.7436 27.027C96.5794 27.0708 96.426 27.1146 96.2617 27.1694L92.33 24.8914L92.2314 24.9461C92.1767 24.979 92.111 25.0228 92.0562 25.0666C92.0343 25.0776 92.0233 25.0995 92.0014 25.1104C91.9686 25.1433 91.9248 25.1761 91.8919 25.209C91.8481 25.2528 91.8043 25.3075 91.7605 25.3514C91.7605 25.3514 91.7495 25.3623 91.7386 25.3733C91.6948 25.428 91.6619 25.4718 91.6291 25.5266C91.6291 25.5266 91.6291 25.5266 91.6291 25.5375C91.5962 25.5923 91.5524 25.6471 91.5305 25.7128C91.4976 25.7675 91.4757 25.8332 91.4538 25.8989C91.4319 25.9537 91.41 26.0194 91.3991 26.0742C91.3991 26.0742 91.3991 26.0742 91.3991 26.0851C91.3881 26.1508 91.3772 26.2056 91.3662 26.2604L91.0705 30.1593L86.3502 27.4213L86.6459 23.5224L86.6897 23.5114Z" fill="#6361C2"/>
<path d="M87.1607 52.4136C88.5735 52.7093 90.271 52.3808 92.1109 51.3184C96.9407 48.5367 100.84 41.7793 100.818 36.2267C100.818 33.7187 99.9963 31.8897 98.6712 30.8931C100.971 31.375 102.482 33.5434 102.493 36.9823C102.504 42.535 98.6054 49.2923 93.7866 52.0741C91.1472 53.5965 88.7706 53.6184 87.1716 52.4136H87.1607Z" fill="#6361C2"/>
<path d="M109.349 34.6495C109.349 35.1861 109.043 35.8104 108.637 36.0842L105.406 38.2965C105.111 40.0379 104.574 41.8121 103.851 43.5534L105.932 45.2291C106.195 45.4372 106.14 46.0395 105.812 46.609L103.818 50.0589C103.632 50.3874 103.391 50.6393 103.161 50.7708C102.986 50.8693 102.822 50.9022 102.69 50.8474L100.182 49.9056C99.0434 51.406 97.762 52.7531 96.404 53.8921L96.1083 57.78C96.0754 58.2619 95.6811 58.8533 95.2211 59.1161L92.3955 60.748C91.9356 61.0108 91.5413 60.8794 91.5084 60.4413L91.1908 56.8929C89.8218 57.331 88.5514 57.4515 87.4015 57.2762L84.9044 61.0984C84.773 61.3065 84.6087 61.4599 84.4335 61.5584C84.2035 61.6898 83.9625 61.7227 83.7654 61.6132L81.7612 60.4742C81.4326 60.288 81.3779 59.7514 81.6407 59.2366L83.7106 55.1625C82.9769 54.2644 82.4402 53.1145 82.1336 51.7126L78.9027 53.2349C78.4975 53.4211 78.1799 53.1583 78.1799 52.6216V49.3799C78.1799 48.8432 78.4756 48.219 78.8808 47.9452L82.1117 45.7329C82.4074 43.9915 82.944 42.2063 83.6668 40.4759L81.586 38.8003C81.3231 38.5922 81.3779 37.9898 81.7064 37.4203L83.6997 33.9705C83.8859 33.6419 84.1268 33.39 84.3678 33.2586C84.543 33.16 84.7073 33.1272 84.8387 33.171L87.3467 34.1128C88.4857 32.6124 89.7671 31.2653 91.1251 30.1263L91.4208 26.2274C91.4537 25.7456 91.837 25.1651 92.3079 24.8913L95.1335 23.2595C95.5935 22.9966 95.9878 23.128 96.0206 23.5661L96.3273 27.1146C97.6963 26.6765 98.9777 26.556 100.117 26.7312L102.614 22.8981C102.745 22.69 102.909 22.5366 103.085 22.4381C103.315 22.3066 103.556 22.2738 103.753 22.3833L105.757 23.5223C106.085 23.7085 106.14 24.2451 105.888 24.7599L103.818 28.834C104.552 29.7321 105.089 30.882 105.396 32.2839L108.637 30.7616C109.043 30.5754 109.36 30.8382 109.36 31.3749V34.6166L109.349 34.6495ZM102.493 36.9823C102.482 31.4406 98.5505 29.1954 93.7207 31.9882C88.8909 34.7809 84.992 41.5273 85.0139 47.08C85.0249 52.6326 88.9566 54.8668 93.7864 52.085C98.6162 49.3032 102.515 42.5458 102.493 36.9932V36.9823Z" fill="#C5C0E7"/>
<path d="M54.0801 110.022C54.1001 110.302 54.2201 110.502 54.4001 110.602L47.3201 106.492C47.1401 106.382 47.0201 106.192 47.0001 105.912L46.5301 100.602L53.6101 104.712L54.0801 110.022Z" fill="#6361C2"/>
<path d="M72.6701 61.4423C72.6701 61.4423 72.7001 61.4323 72.7101 61.4223C72.7501 61.4023 72.7901 61.3923 72.8301 61.3823C72.8601 61.3823 72.8901 61.3623 72.9201 61.3623C72.9501 61.3623 72.9701 61.3623 73.0001 61.3623C73.0201 61.3623 73.0501 61.3623 73.0701 61.3623C73.0901 61.3623 73.1201 61.3623 73.1401 61.3623C73.1601 61.3623 73.1801 61.3623 73.2001 61.3823C73.2201 61.3823 73.2401 61.3923 73.2601 61.4023C73.2801 61.4023 73.3001 61.4223 73.3201 61.4323L80.4001 65.5423C80.3801 65.5323 80.3601 65.5223 80.3401 65.5123C80.3201 65.5123 80.3001 65.4923 80.2801 65.4923C80.2601 65.4923 80.2401 65.4823 80.2201 65.4723C80.2001 65.4723 80.1801 65.4723 80.1501 65.4723C80.1301 65.4723 80.1001 65.4723 80.0801 65.4723C80.0501 65.4723 80.0301 65.4723 80.0001 65.4723C79.9701 65.4723 79.9401 65.4823 79.9101 65.4923C79.8701 65.5023 79.8301 65.5223 79.7901 65.5323C79.7801 65.5323 79.7601 65.5423 79.7501 65.5523L74.9001 67.8323L67.8201 63.7223L72.6701 61.4423Z" fill="#6361C2"/>
<path d="M27.0101 89.0524C27.0101 89.0524 27.0101 89.0423 27.0101 89.0323C27.0101 88.9723 27.0301 88.9124 27.0401 88.8424C27.0401 88.8124 27.0501 88.7824 27.0601 88.7624C27.0601 88.7524 27.0601 88.7324 27.0701 88.7224C27.0701 88.7124 27.0701 88.6924 27.0801 88.6824C27.0901 88.6324 27.1101 88.5823 27.1201 88.5323C27.1201 88.5023 27.1401 88.4724 27.1501 88.4424C27.1501 88.4424 27.1501 88.4323 27.1501 88.4223C27.1501 88.4223 27.1501 88.4124 27.1501 88.4024C27.1701 88.3624 27.1801 88.3223 27.2001 88.2823C27.2201 88.2423 27.2301 88.2023 27.2501 88.1723C27.2501 88.1723 27.2501 88.1524 27.2601 88.1524C27.2601 88.1524 27.2601 88.1423 27.2601 88.1323C27.2701 88.1123 27.2801 88.0923 27.2901 88.0623C27.3101 88.0223 27.3301 87.9923 27.3501 87.9623C27.3701 87.9323 27.3901 87.9024 27.4101 87.8624C27.4301 87.8323 27.4501 87.7924 27.4801 87.7624C27.5001 87.7224 27.5301 87.6924 27.5601 87.6624C27.5601 87.6524 27.5801 87.6423 27.5901 87.6323C27.5901 87.6323 27.6001 87.6124 27.6101 87.6124C27.6201 87.5924 27.6401 87.5723 27.6501 87.5623C27.6901 87.5223 27.7301 87.4724 27.7701 87.4324C27.7701 87.4324 27.7801 87.4323 27.7801 87.4223C27.8601 87.3523 27.9401 87.2824 28.0201 87.2224L32.8701 83.9024C32.9401 83.5124 33.0101 83.1323 33.0901 82.7423C33.0901 82.7023 33.1001 82.6624 33.1101 82.6224C33.1301 82.5124 33.1601 82.4024 33.1901 82.2924C33.2301 82.1124 33.2701 81.9424 33.3101 81.7624C33.3501 81.6024 33.3901 81.4423 33.4301 81.2823C33.4701 81.1023 33.5201 80.9324 33.5701 80.7523C33.5901 80.6924 33.6001 80.6323 33.6201 80.5723C33.6301 80.5224 33.6501 80.4723 33.6601 80.4223C33.8101 79.8823 33.9701 79.3524 34.1501 78.8223C34.1501 78.8023 34.1601 78.7824 34.1701 78.7523C34.1901 78.7024 34.2101 78.6523 34.2201 78.6023C34.3901 78.1123 34.5601 77.6223 34.7501 77.1323C34.7501 77.1023 34.7701 77.0824 34.7801 77.0524C34.7801 77.0424 34.7801 77.0324 34.7901 77.0224C34.9201 76.6824 35.0601 76.3424 35.2001 76.0023L32.0801 73.4924C32.0301 73.4524 31.9901 73.4024 31.9501 73.3424C31.9401 73.3223 31.9301 73.2924 31.9201 73.2724C31.9001 73.2324 31.8801 73.1824 31.8701 73.1324C31.8701 73.1024 31.8601 73.0723 31.8501 73.0323C31.8501 72.9823 31.8301 72.9324 31.8301 72.8824C31.8301 72.8424 31.8301 72.8024 31.8301 72.7624C31.8301 72.7124 31.8301 72.6524 31.8301 72.6024C31.8301 72.5924 31.8301 72.5724 31.8301 72.5624C31.8301 72.5024 31.8501 72.4323 31.8601 72.3723C31.8601 72.3723 31.8601 72.3724 31.8601 72.3624C31.8701 72.3124 31.8801 72.2724 31.8901 72.2224C31.9001 72.1724 31.9201 72.1223 31.9301 72.0723C31.9401 72.0323 31.9601 71.9924 31.9801 71.9424C32.0001 71.9024 32.0101 71.8524 32.0301 71.8124C32.0301 71.8024 32.0401 71.7824 32.0501 71.7724C32.0501 71.7724 32.0501 71.7524 32.0601 71.7424C32.0601 71.7224 32.0801 71.7024 32.0901 71.6824C32.1101 71.6424 32.1301 71.5923 32.1501 71.5523C32.1701 71.5123 32.1901 71.4724 32.2101 71.4424L35.1901 66.2724C35.1901 66.2724 35.1901 66.2724 35.1901 66.2624C35.2201 66.2224 35.2401 66.1724 35.2701 66.1324C35.3001 66.0924 35.3301 66.0423 35.3601 66.0023C35.3701 65.9823 35.3901 65.9624 35.4001 65.9524C35.4001 65.9524 35.4101 65.9324 35.4201 65.9224C35.4301 65.9024 35.4501 65.8823 35.4601 65.8723C35.5001 65.8223 35.5401 65.7723 35.5801 65.7323C35.6001 65.7123 35.6201 65.6924 35.6301 65.6724C35.6501 65.6524 35.6601 65.6423 35.6801 65.6223C35.7001 65.6023 35.7201 65.5824 35.7301 65.5624C35.7701 65.5224 35.8101 65.4924 35.8501 65.4524C35.8801 65.4324 35.9001 65.4024 35.9301 65.3824C36.0101 65.3124 36.0901 65.2623 36.1701 65.2123C36.2301 65.1823 36.2801 65.1524 36.3401 65.1324C36.3401 65.1324 36.3401 65.1324 36.3501 65.1324C36.3601 65.1324 36.3701 65.1323 36.3801 65.1223C36.4101 65.1123 36.4401 65.1024 36.4701 65.0924C36.4901 65.0924 36.5101 65.0924 36.5301 65.0824C36.5301 65.0824 36.5401 65.0824 36.5501 65.0824C36.5501 65.0824 36.5601 65.0824 36.5701 65.0824C36.6001 65.0824 36.6201 65.0824 36.6501 65.0824C36.6701 65.0824 36.7001 65.0824 36.7201 65.0824C36.7401 65.0824 36.7601 65.0824 36.7801 65.0824C36.8001 65.0824 36.8201 65.0823 36.8401 65.0924C36.8501 65.0924 36.8701 65.0924 36.8801 65.1024L40.6401 66.5124C40.7001 66.4324 40.7601 66.3623 40.8201 66.2823C40.8901 66.1923 40.9601 66.1124 41.0301 66.0224C41.1601 65.8524 41.2901 65.6923 41.4201 65.5323C41.5201 65.4123 41.6201 65.2823 41.7301 65.1623C41.8601 65.0023 41.9901 64.8424 42.1301 64.6924C42.1801 64.6424 42.2201 64.5824 42.2701 64.5224C42.3101 64.4724 42.3601 64.4223 42.4101 64.3723C42.6301 64.1223 42.8601 63.8723 43.0901 63.6223C43.1601 63.5523 43.2201 63.4824 43.2901 63.4024C43.5801 63.0924 43.8701 62.7923 44.1701 62.5023C44.1901 62.4823 44.2101 62.4624 44.2201 62.4424C44.2701 62.3924 44.3201 62.3524 44.3601 62.3124C44.6101 62.0724 44.8601 61.8324 45.1101 61.6024C45.2001 61.5224 45.2801 61.4424 45.3701 61.3624C45.6801 61.0824 46.0001 60.8023 46.3201 60.5323L53.4001 64.6423C53.0801 64.9123 52.7601 65.1924 52.4501 65.4724C52.3601 65.5524 52.2801 65.6323 52.1901 65.7123C51.9401 65.9423 51.6901 66.1824 51.4401 66.4224C51.3701 66.4824 51.3101 66.5524 51.2401 66.6124C50.9401 66.9024 50.6501 67.2024 50.3601 67.5124C50.2901 67.5824 50.2301 67.6523 50.1601 67.7323C49.9301 67.9823 49.7101 68.2223 49.4901 68.4823C49.4001 68.5923 49.3001 68.6923 49.2101 68.8023C49.0801 68.9623 48.9401 69.1124 48.8101 69.2724C48.7101 69.3924 48.6001 69.5223 48.5001 69.6423C48.3701 69.8023 48.2401 69.9724 48.1101 70.1324C47.9801 70.2924 47.8501 70.4523 47.7301 70.6223L43.9701 69.2123C43.9701 69.2123 43.8701 69.1824 43.8101 69.1824C43.7601 69.1824 43.7001 69.1824 43.6401 69.1924C43.6401 69.1924 43.6301 69.1924 43.6201 69.1924C43.5701 69.1924 43.5201 69.2123 43.4701 69.2323C43.4601 69.2323 43.4501 69.2324 43.4401 69.2424C43.3801 69.2624 43.3201 69.2924 43.2601 69.3324C43.1801 69.3824 43.1001 69.4423 43.0201 69.5023C42.9901 69.5224 42.9701 69.5523 42.9401 69.5723C42.8801 69.6223 42.8201 69.6723 42.7701 69.7323C42.7501 69.7523 42.7401 69.7623 42.7201 69.7823C42.6501 69.8623 42.5801 69.9424 42.5101 70.0424C42.5101 70.0424 42.5001 70.0623 42.4901 70.0723C42.4101 70.1723 42.3401 70.2824 42.2701 70.4024L39.2901 75.5723C39.2301 75.6723 39.1801 75.7723 39.1301 75.8723C39.1301 75.8723 39.1301 75.8924 39.1201 75.9024C39.0801 76.0024 39.0401 76.1024 39.0001 76.2024C38.9701 76.3024 38.9401 76.4024 38.9201 76.4924C38.9201 76.4924 38.9201 76.4923 38.9201 76.5023C38.9001 76.5823 38.8901 76.6623 38.8801 76.7423C38.8801 76.8023 38.8801 76.8524 38.8801 76.9024C38.8801 76.9424 38.8801 76.9824 38.8801 77.0224C38.8801 77.0724 38.8901 77.1223 38.9001 77.1723C38.9001 77.2023 38.9001 77.2424 38.9201 77.2724C38.9301 77.3224 38.9501 77.3624 38.9701 77.4124C38.9701 77.4324 38.9901 77.4624 39.0001 77.4824C39.0301 77.5424 39.0801 77.5923 39.1301 77.6323L42.2501 80.1423C42.1101 80.4823 41.9701 80.8224 41.8401 81.1624C41.8301 81.2024 41.8101 81.2324 41.8001 81.2724C41.6101 81.7624 41.4401 82.2523 41.2701 82.7423C41.2501 82.8123 41.2201 82.8823 41.2001 82.9523C41.0201 83.4823 40.8601 84.0224 40.7101 84.5524C40.6801 84.6624 40.6501 84.7723 40.6201 84.8823C40.5701 85.0623 40.5301 85.2324 40.4801 85.4124C40.4401 85.5724 40.4001 85.7323 40.3601 85.8923C40.3201 86.0723 40.2801 86.2423 40.2401 86.4223C40.2101 86.5723 40.1701 86.7224 40.1401 86.8724C40.0601 87.2624 39.9801 87.6523 39.9201 88.0323L35.0701 91.3523C34.9901 91.4123 34.9101 91.4724 34.8301 91.5524C34.7701 91.6124 34.7101 91.6723 34.6501 91.7423C34.6501 91.7423 34.6401 91.7624 34.6301 91.7624C34.5701 91.8424 34.5101 91.9223 34.4601 92.0023C34.4101 92.0924 34.3601 92.1724 34.3101 92.2724C34.3101 92.2724 34.3101 92.2824 34.3101 92.2924C34.2601 92.3824 34.2201 92.4823 34.1901 92.5723C34.1901 92.5723 34.1901 92.5824 34.1901 92.5924C34.1601 92.6824 34.1301 92.7724 34.1001 92.8724C34.1001 92.8824 34.1001 92.9024 34.0901 92.9124C34.0701 93.0024 34.0501 93.0924 34.0401 93.1824C34.0401 93.1824 34.0401 93.1923 34.0401 93.2023C34.0301 93.3023 34.0201 93.4024 34.0201 93.5023V93.5424L39.9601 96.9923C40.4201 99.0823 41.2401 100.812 42.3301 102.162L39.2301 108.262C39.1801 108.352 39.1401 108.452 39.1101 108.542C39.1101 108.542 39.1101 108.552 39.1101 108.562C39.0801 108.652 39.0501 108.742 39.0301 108.832C39.0301 108.832 39.0301 108.842 39.0301 108.852C39.0201 108.912 39.0101 108.972 39.0101 109.042C39.0101 109.132 39.0001 109.232 39.0101 109.312C39.0101 109.332 39.0101 109.342 39.0101 109.362C39.0101 109.462 39.0401 109.562 39.0701 109.642C39.0701 109.662 39.0901 109.682 39.1001 109.712C39.1301 109.772 39.1601 109.832 39.2001 109.892C39.2101 109.912 39.2301 109.932 39.2401 109.952C39.3001 110.022 39.3601 110.072 39.4301 110.122L32.3501 106.012C32.2701 105.972 32.2101 105.912 32.1601 105.842C32.1401 105.822 32.1301 105.802 32.1201 105.782C32.0801 105.732 32.0501 105.672 32.0201 105.602C32.0201 105.582 32.0001 105.562 31.9901 105.532C31.9601 105.442 31.9401 105.352 31.9301 105.252C31.9301 105.232 31.9301 105.222 31.9301 105.202C31.9301 105.112 31.9301 105.022 31.9301 104.932C31.9301 104.912 31.9301 104.902 31.9301 104.882C31.9301 104.832 31.9401 104.792 31.9501 104.742C31.9501 104.742 31.9501 104.732 31.9501 104.722C31.9501 104.682 31.9701 104.642 31.9801 104.592C31.9901 104.552 32.0001 104.522 32.0101 104.482C32.0101 104.472 32.0101 104.462 32.0201 104.452C32.0201 104.452 32.0201 104.442 32.0201 104.432C32.0201 104.412 32.0301 104.392 32.0401 104.382C32.0501 104.352 32.0601 104.322 32.0801 104.292C32.0901 104.262 32.1101 104.232 32.1201 104.202C32.1201 104.192 32.1301 104.172 32.1401 104.162L35.2401 98.0623C34.7701 97.4923 34.3701 96.8324 34.0101 96.1224V98.3823C34.0101 98.8423 34.1701 99.1624 34.4201 99.3024L27.3401 95.1924C27.2801 95.1524 27.2201 95.1124 27.1701 95.0524C27.0201 94.8824 26.9401 94.6124 26.9401 94.2724V89.4124C26.9301 89.3124 26.9401 89.2124 26.9401 89.1224L27.0101 89.0524Z" fill="#6361C2"/>
<path d="M46.8601 54.6524C46.8601 54.6524 46.8601 54.5924 46.8601 54.5624C46.8601 54.5124 46.8701 54.4624 46.8901 54.4124C46.8901 54.4024 46.8901 54.3924 46.8901 54.3824V54.3624C46.8901 54.3424 46.8901 54.3224 46.9101 54.2924C46.9201 54.2524 46.9301 54.2224 46.9401 54.1824C46.9501 54.1524 46.9601 54.1224 46.9701 54.0924C46.9801 54.0624 47.0001 54.0224 47.0101 53.9924C47.0201 53.9624 47.0401 53.9224 47.0601 53.8924C47.0701 53.8724 47.0801 53.8424 47.0901 53.8224C47.0901 53.8224 47.0901 53.8224 47.0901 53.8124C47.0901 53.8124 47.0901 53.8024 47.0901 53.7924C47.1101 53.7624 47.1301 53.7224 47.1501 53.6924C47.1701 53.6524 47.1901 53.6224 47.2101 53.5824C47.2101 53.5724 47.2201 53.5624 47.2301 53.5524C47.2301 53.5524 47.2301 53.5424 47.2401 53.5324C47.2501 53.5124 47.2701 53.4924 47.2801 53.4724C47.3101 53.4324 47.3401 53.3924 47.3701 53.3524C47.3801 53.3324 47.4001 53.3224 47.4101 53.3024C47.4101 53.2924 47.4301 53.2824 47.4401 53.2624C47.4501 53.2424 47.4701 53.2324 47.4801 53.2124C47.5301 53.1524 47.5801 53.1024 47.6401 53.0424C47.6901 52.9924 47.7401 52.9524 47.8001 52.9024C47.8301 52.8824 47.8501 52.8524 47.8801 52.8324C47.9601 52.7724 48.0501 52.7124 48.1401 52.6624L52.3701 50.2224C52.4401 50.1824 52.5101 50.1424 52.5801 50.1124C52.6001 50.1124 52.6101 50.1024 52.6301 50.0924C52.6501 50.0924 52.6701 50.0824 52.6801 50.0724C52.7001 50.0724 52.7301 50.0524 52.7501 50.0524C52.7901 50.0424 52.8401 50.0324 52.8801 50.0224C52.8901 50.0224 52.9001 50.0224 52.9201 50.0224C52.9201 50.0224 52.9301 50.0224 52.9401 50.0224C52.9601 50.0224 52.9701 50.0224 52.9901 50.0224C53.0201 50.0224 53.0501 50.0224 53.0801 50.0224C53.1101 50.0224 53.1401 50.0224 53.1601 50.0224C53.1801 50.0224 53.2001 50.0224 53.2301 50.0324C53.2501 50.0324 53.2801 50.0424 53.3001 50.0524C53.3201 50.0524 53.3401 50.0724 53.3601 50.0824L60.4401 54.1924C60.3801 54.1524 60.3101 54.1324 60.2401 54.1224C60.1701 54.1124 60.0901 54.1124 60.0101 54.1224C60.0101 54.1224 60.0001 54.1224 59.9901 54.1224C59.9201 54.1224 59.8401 54.1524 59.7601 54.1724C59.7401 54.1724 59.7201 54.1824 59.7101 54.1924C59.6201 54.2224 59.5301 54.2624 59.4401 54.3124L57.7201 55.3024C57.7201 55.3024 57.7701 55.3024 57.8001 55.3024C58.2001 55.2824 58.5901 55.2924 58.9801 55.3124C59.2801 55.3324 59.5701 55.3624 59.8601 55.4024L63.6001 49.6624C63.6001 49.6624 63.6301 49.6124 63.6501 49.5824C63.6701 49.5524 63.7001 49.5224 63.7201 49.4924C63.7501 49.4524 63.7801 49.4224 63.8001 49.3924C63.8401 49.3524 63.8801 49.3124 63.9201 49.2724C64.0401 49.1524 64.1701 49.0524 64.3101 48.9724C64.3701 48.9424 64.4301 48.9124 64.4901 48.8824C64.5401 48.8624 64.5901 48.8424 64.6501 48.8324C64.6901 48.8224 64.7301 48.8124 64.7701 48.8024C64.8101 48.8024 64.8401 48.8024 64.8801 48.7924C64.9101 48.7924 64.9401 48.7924 64.9801 48.7924C65.0101 48.7924 65.0401 48.7924 65.0701 48.8024C65.1001 48.8024 65.1301 48.8124 65.1501 48.8224C65.1801 48.8224 65.2001 48.8424 65.2301 48.8524C65.2601 48.8624 65.2801 48.8724 65.3101 48.8924L68.3101 50.6024L75.3901 54.7124L72.3901 53.0024C72.3701 52.9924 72.3401 52.9724 72.3101 52.9624C72.2801 52.9524 72.2601 52.9424 72.2301 52.9324C72.2001 52.9324 72.1701 52.9224 72.1501 52.9124C72.1201 52.9124 72.0901 52.9124 72.0601 52.9024C72.0301 52.9024 72.0001 52.9024 71.9601 52.9024C71.9201 52.9024 71.8901 52.9024 71.8501 52.9124C71.8101 52.9124 71.7701 52.9224 71.7301 52.9424C71.6801 52.9524 71.6301 52.9724 71.5701 52.9924C71.5101 53.0124 71.4501 53.0424 71.3901 53.0824C71.2601 53.1624 71.1301 53.2624 71.0001 53.3824C70.9601 53.4224 70.9201 53.4624 70.8801 53.5024C70.8501 53.5324 70.8201 53.5724 70.8001 53.6024C70.7801 53.6324 70.7501 53.6624 70.7301 53.6924C70.7101 53.7124 70.7001 53.7424 70.6801 53.7724L66.9401 59.5124C66.6501 59.4724 66.3601 59.4324 66.0601 59.4224C65.6801 59.4024 65.2801 59.3924 64.8801 59.4124C64.4501 59.4324 64.0001 59.4724 63.5501 59.5424C63.0401 59.6224 62.5101 59.7324 61.9801 59.8724C61.7401 59.9424 61.5001 60.0124 61.2501 60.0924L55.3601 56.6724L55.2101 56.7624C55.1201 56.8124 55.0401 56.8724 54.9501 56.9324C54.9201 56.9524 54.9001 56.9824 54.8701 57.0024C54.8201 57.0524 54.7601 57.0924 54.7101 57.1424C54.6401 57.2124 54.5701 57.2824 54.5101 57.3624C54.5101 57.3724 54.4901 57.3824 54.4801 57.4024C54.4201 57.4724 54.3601 57.5524 54.3101 57.6324C54.3101 57.6324 54.3101 57.6424 54.3001 57.6524C54.2401 57.7324 54.1901 57.8224 54.1501 57.9124C54.1001 58.0124 54.0601 58.1124 54.0301 58.2024C54.0001 58.2924 53.9701 58.3824 53.9501 58.4724V58.4924C53.9301 58.5824 53.9101 58.6724 53.9101 58.7624L53.4701 64.6024L46.3901 60.4924L46.8301 54.6524H46.8601Z" fill="#6361C2"/>
<path d="M47.5702 97.9724C49.6802 98.4224 52.2302 97.9224 54.9802 96.3324C62.2202 92.1524 68.0702 82.0224 68.0402 73.7024C68.0302 69.9324 66.8102 67.1924 64.8202 65.7024C68.2702 66.4324 70.5402 69.6724 70.5502 74.8324C70.5702 83.1524 64.7202 93.2824 57.4902 97.4624C53.5302 99.7524 49.9802 99.7724 47.5702 97.9724Z" fill="#6361C2"/>
<path d="M80.8401 71.3324C80.8401 72.1324 80.3801 73.0724 79.7701 73.4824L74.9201 76.8024C74.4701 79.4224 73.6701 82.0824 72.5901 84.6824L75.7101 87.1924C76.1001 87.5124 76.0201 88.4024 75.5301 89.2524L72.5501 94.4224C72.2701 94.9124 71.9101 95.2924 71.5601 95.4924C71.3001 95.6424 71.0501 95.6924 70.8501 95.6124L67.0901 94.2024C65.3801 96.4424 63.4701 98.4824 61.4201 100.182L60.9801 106.022C60.9201 106.752 60.3501 107.622 59.6501 108.022L55.4201 110.462C54.7201 110.862 54.1401 110.662 54.0901 109.992L53.6201 104.682C51.5701 105.342 49.6501 105.522 47.9301 105.262L44.1901 111.002C43.9901 111.312 43.7401 111.542 43.4801 111.692C43.1301 111.892 42.7701 111.932 42.4801 111.772L39.4801 110.062C38.9901 109.782 38.9101 108.982 39.2901 108.212L42.3901 102.112C41.2901 100.772 40.4801 99.0324 40.0201 96.9424L35.1701 99.2224C34.5601 99.5124 34.0901 99.1124 34.0901 98.3124V93.4524C34.0701 92.6524 34.5401 91.7224 35.1501 91.3024L40.0001 87.9824C40.4501 85.3624 41.2501 82.7024 42.3301 80.1024L39.2101 77.5924C38.8201 77.2724 38.9001 76.3824 39.3901 75.5324L42.3701 70.3624C42.6501 69.8724 43.0201 69.4924 43.3601 69.2924C43.6201 69.1424 43.8701 69.0924 44.0701 69.1724L47.8301 70.5824C49.5401 68.3424 51.4501 66.3024 53.5001 64.6024L53.9401 58.7624C53.9901 58.0324 54.5701 57.1624 55.2701 56.7624L59.5001 54.3224C60.2001 53.9224 60.7801 54.1224 60.8401 54.7824L61.3101 60.0924C63.3601 59.4324 65.2801 59.2524 67.0001 59.5124L70.7401 53.7724C70.9401 53.4624 71.1901 53.2324 71.4501 53.0824C71.8001 52.8824 72.1601 52.8424 72.4401 53.0024L75.4401 54.7124C75.9401 54.9924 76.0201 55.7924 75.6301 56.5624L72.5301 62.6724C73.6301 64.0124 74.4401 65.7524 74.9001 67.8424L79.7501 65.5624C80.3601 65.2824 80.8301 65.6724 80.8301 66.4724V71.3324H80.8401ZM70.5601 74.8324C70.5401 66.5124 64.6501 63.1624 57.4101 67.3424C50.1701 71.5224 44.3201 81.6524 44.3501 89.9624C44.3701 98.2824 50.2601 101.642 57.5001 97.4624C64.7401 93.2824 70.5901 83.1524 70.5601 74.8324Z" fill="#C5C0E7"/>
<path d="M55.0591 85.863C52.4427 87.3702 50.3097 86.1616 50.3097 83.147C50.3097 80.1467 52.4143 76.478 55.0307 74.9707C57.6471 73.4634 59.78 74.6721 59.78 77.6867C59.78 80.7012 57.6755 84.3557 55.0591 85.863Z" fill="#6361C2"/>
<path d="M57.9766 74.4518L54.8541 77.5683L52.2222 86.3988L54.4706 87.1038L61.0252 75.5188L57.9766 74.4518Z" fill="#6361C2"/>
<path d="M57.7942 86.79C55.1778 88.2972 53.0449 87.0886 53.0449 84.074C53.0449 81.0737 55.1494 77.405 57.7658 75.8977C60.3822 74.3904 62.5151 75.5991 62.5151 78.6137C62.5151 81.6282 60.4106 85.2827 57.7942 86.79Z" fill="#C5C0E7"/>
<g style="mix-blend-mode:overlay">
<path d="M44.5902 18.6123L44.6602 42.3723L37.3402 46.6023L37.2802 22.8323L44.5902 18.6123Z" fill="#8DFFF9"/>
<path d="M54.98 24.2023L55.01 36.6023L47.7 40.8223L47.66 28.4323L54.98 24.2023Z" fill="#8DFFF9"/>
<path d="M65.3301 22.6323L65.3601 30.7523L58.0401 34.9723L58.0101 26.8523L65.3301 22.6323Z" fill="#8DFFF9"/>
</g>
</g>
</g>
<defs>
<linearGradient id="paint0_linear_515_9659" x1="0.938232" y1="126.602" x2="72.3124" y2="126.602" gradientUnits="userSpaceOnUse">
<stop stop-color="#6EBD46"/>
<stop offset="1" stop-color="#84E453"/>
</linearGradient>
<clipPath id="clip0_515_9659">
<rect width="149.007" height="150" fill="white" transform="translate(0.496704 0.612305)"/>
</clipPath>
<clipPath id="clip1_515_9659">
<rect width="81.36" height="99.28" fill="white" transform="matrix(-1 0 0 1 108.36 12.6123)"/>
</clipPath>
</defs>
</svg>
