<svg width="150" height="150" viewBox="0 0 150 150" fill="none" xmlns="http://www.w3.org/2000/svg">
<g clip-path="url(#clip0_515_9706)">
<path d="M72.1365 143.563L148.962 99.6353L149.121 106.299L72.1365 150.154V143.563Z" fill="#84E453" stroke="black" stroke-width="1.53546" stroke-linejoin="round"/>
<path d="M72.1366 143.563L0.938232 101.57L1.09809 108.427L72.1366 150.179L72.1526 143.563H72.1366Z" fill="url(#paint0_linear_515_9706)" stroke="black" stroke-width="1.53546" stroke-linejoin="round"/>
<path d="M71.6251 61.1111L0.938232 101.57L72.1366 143.563L148.962 99.6356L71.6251 61.0951V61.1111Z" fill="#99FF62" stroke="black" stroke-width="1.53546" stroke-linejoin="round"/>
<g style="mix-blend-mode:multiply" opacity="0.3">
<path d="M102.696 75.6425L63.2076 99.0359L34.6797 115.5C34.3569 115.687 33.9573 115.678 33.6429 115.478L28.2642 112.055L28.7997 101.345L28.2642 91.7068L31.3078 79.5058L31.2643 62.5497L55.2407 48.7122L73.8939 37.9351L91.1256 27.9848L84.3808 52.2078L95.3029 58.648L102.696 75.6425Z" fill="#50298A"/>
</g>
<path d="M29.1357 61.7889L27.7288 60.9622L27.8738 111.758L29.2808 112.585L29.1357 61.7889Z" fill="#997EFF"/>
<path d="M103.27 18.9997L101.848 18.173L27.7288 60.9621L29.1357 61.7889L103.27 18.9997Z" fill="#997EFF"/>
<path d="M29.1357 61.7887L29.2808 112.584L103.415 69.7954L103.27 18.9996L29.1357 61.7887Z" fill="#5C3DD4"/>
<path d="M29.1357 70.3611L29.2808 83.1834L103.415 40.3943L103.27 27.572L29.1357 70.3611Z" fill="black"/>
<path d="M31.1348 85.9356C31.1348 85.0438 31.6033 84.288 32.3289 83.8799L33.387 83.2753C34.2486 82.7764 34.5358 83.2299 34.5358 83.9555V86.7669C34.5358 87.6588 34.0974 88.3541 33.387 88.7622L32.3289 89.3668C31.6033 89.79 31.1499 89.6086 31.1499 88.7168V85.9507L31.1348 85.9356ZM32.5254 88.2634L33.1451 87.9006C33.4474 87.7192 33.6137 87.4925 33.6137 87.0995V84.6205C33.6137 84.2729 33.4777 84.1671 33.1754 84.3333L32.4952 84.7263C32.1022 84.9531 32.0266 85.3158 32.0266 85.5275V88.0064C32.0266 88.4599 32.2987 88.3843 32.5103 88.2634H32.5254Z" fill="black"/>
<path d="M35.2007 83.5777C35.2007 82.6859 35.6693 81.9301 36.3948 81.522L37.4529 80.9173C38.3145 80.4185 38.6017 80.872 38.6017 81.5975V84.409C38.6017 85.3008 38.1633 85.9962 37.4529 86.4043L36.3948 87.0089C35.6693 87.4321 35.2158 87.2507 35.2158 86.3589V83.5928L35.2007 83.5777ZM36.5913 85.9055L37.211 85.5427C37.5134 85.3613 37.6796 85.1346 37.6796 84.7416V82.2626C37.6796 81.915 37.5436 81.8092 37.2413 81.9754L36.5611 82.3684C36.1681 82.5952 36.0925 82.9579 36.0925 83.1696V85.6485C36.0925 86.102 36.3646 86.0264 36.5762 85.9055H36.5913Z" fill="black"/>
<path d="M39.2671 81.2348C39.2671 80.343 39.7357 79.5872 40.4612 79.1791L41.5193 78.5744C42.3809 78.0756 42.6681 78.5291 42.6681 79.2546V82.0661C42.6681 82.9579 42.2297 83.6533 41.5193 84.0614L40.4612 84.666C39.7357 85.0892 39.2822 84.9078 39.2822 84.016V81.2499L39.2671 81.2348ZM40.6577 83.5626L41.2774 83.1998C41.5798 83.0184 41.746 82.7917 41.746 82.3987V79.9197C41.746 79.5721 41.61 79.4663 41.3077 79.6325L40.6275 80.0255C40.2345 80.2523 40.1589 80.615 40.1589 80.8267V83.3056C40.1589 83.7591 40.431 83.6835 40.6426 83.5626H40.6577Z" fill="black"/>
<path d="M43.3328 78.8918C43.3328 77.9999 43.8013 77.2442 44.5269 76.8361L45.585 76.2314C46.4466 75.7326 46.7338 76.1861 46.7338 76.9116V79.7231C46.7338 80.6149 46.2954 81.3102 45.585 81.7184L44.5269 82.323C43.8013 82.7462 43.3479 82.5648 43.3479 81.673V78.9069L43.3328 78.8918ZM44.7234 81.2195L45.3431 80.8568C45.6454 80.6754 45.8117 80.4487 45.8117 80.0557V77.5767C45.8117 77.2291 45.6757 77.1232 45.3734 77.2895L44.6932 77.6825C44.3002 77.9092 44.2246 78.272 44.2246 78.4836V80.9626C44.2246 81.416 44.4967 81.3405 44.7083 81.2195H44.7234Z" fill="black"/>
<path d="M49.0015 75.6117C49.0015 74.7199 49.47 73.9641 50.1956 73.556L51.2537 72.9514C52.1153 72.4526 52.4025 72.9061 52.4025 73.6316V76.4431C52.4025 77.3349 51.9641 78.0302 51.2537 78.4383L50.1956 79.043C49.47 79.4662 49.0166 79.2848 49.0166 78.393V75.6268L49.0015 75.6117ZM50.3921 77.9395L51.0118 77.5767C51.3141 77.3954 51.4804 77.1686 51.4804 76.7756V74.2967C51.4804 73.949 51.3444 73.8432 51.0421 74.0095L50.3619 74.4025C49.9689 74.6292 49.8933 74.992 49.8933 75.2036V77.6826C49.8933 78.136 50.1654 78.0604 50.377 77.9395H50.3921Z" fill="black"/>
<path d="M53.0674 73.2688C53.0674 72.377 53.536 71.6212 54.2615 71.2131L55.3196 70.6085C56.1812 70.1097 56.4684 70.5632 56.4684 71.2887V74.1002C56.4684 74.992 56.03 75.6873 55.3196 76.0954L54.2615 76.7001C53.536 77.1233 53.0825 76.9419 53.0825 76.0501V73.2839L53.0674 73.2688ZM54.458 75.5966L55.0777 75.2339C55.3801 75.0525 55.5463 74.8257 55.5463 74.4327V71.9538C55.5463 71.6061 55.4103 71.5003 55.108 71.6666L54.4278 72.0596C54.0348 72.2863 53.9592 72.6491 53.9592 72.8607V75.3397C53.9592 75.7931 54.2313 75.7175 54.4429 75.5966H54.458Z" fill="black"/>
<path d="M57.1335 70.9259C57.1335 70.0341 57.6021 69.2783 58.3277 68.8702L59.3858 68.2656C60.2473 67.7668 60.5345 68.2203 60.5345 68.9458V71.7573C60.5345 72.6491 60.0962 73.3444 59.3858 73.7525L58.3277 74.3572C57.6021 74.7804 57.1487 74.599 57.1487 73.7072V70.9411L57.1335 70.9259ZM58.5242 73.2537L59.1439 72.891C59.4462 72.7096 59.6125 72.4828 59.6125 72.0898V69.6109C59.6125 69.2632 59.4764 69.1574 59.1741 69.3237L58.4939 69.7167C58.1009 69.9434 58.0254 70.3062 58.0254 70.5178V72.9968C58.0254 73.4502 58.2974 73.3746 58.5091 73.2537H58.5242Z" fill="black"/>
<path d="M61.1995 68.5679C61.1995 67.6761 61.668 66.9203 62.3936 66.5122L63.4517 65.9076C64.3133 65.4088 64.5853 65.8622 64.5853 66.5878V69.3993C64.5853 70.2911 64.147 70.9864 63.4366 71.3945L62.3785 71.9991C61.6529 72.4224 61.1995 72.241 61.1995 71.3492V68.583V68.5679ZM62.5901 70.8957L63.2098 70.5329C63.5121 70.3515 63.6784 70.1248 63.6784 69.7318V67.2529C63.6784 66.9052 63.5424 66.7994 63.2401 66.9657L62.5599 67.3587C62.1669 67.5854 62.0913 67.9482 62.0913 68.1598V70.6387C62.0913 71.0922 62.3634 71.0166 62.575 70.8957H62.5901Z" fill="black"/>
<path d="M66.8677 65.303C66.8677 64.4112 67.3363 63.6554 68.0618 63.2473L69.1199 62.6427C69.9815 62.1439 70.2687 62.5973 70.2687 63.3229V66.1344C70.2687 67.0262 69.8303 67.7215 69.1199 68.1296L68.0618 68.7342C67.3363 69.1575 66.8828 68.9761 66.8828 68.0843V65.3181L66.8677 65.303ZM68.2583 67.6308L68.878 67.268C69.1804 67.0866 69.3466 66.8599 69.3466 66.4669V63.988C69.3466 63.6403 69.2106 63.5345 68.9083 63.7008L68.2281 64.0938C67.8351 64.3205 67.7595 64.6833 67.7595 64.8949V67.3738C67.7595 67.8273 68.0316 67.7517 68.2432 67.6308H68.2583Z" fill="black"/>
<path d="M70.9338 62.945C70.9338 62.0532 71.4024 61.2974 72.128 60.8893L73.1861 60.2847C74.0476 59.7858 74.3348 60.2393 74.3197 60.9648V63.7763C74.3197 64.6681 73.8814 65.3635 73.1709 65.7716L72.1129 66.3762C71.3873 66.7994 70.9338 66.618 70.9338 65.7262V62.9601V62.945ZM72.3245 65.2728L72.9442 64.91C73.2465 64.7286 73.4128 64.5019 73.4128 64.1089V61.6299C73.4128 61.2823 73.2767 61.1765 72.9744 61.3427L72.2942 61.7357C71.9012 61.9625 71.8257 62.3252 71.8257 62.5369V65.0158C71.8257 65.4693 72.0977 65.3937 72.3093 65.2728H72.3245Z" fill="black"/>
<path d="M74.9998 60.602C74.9998 59.7101 75.4683 58.9544 76.1939 58.5463L77.252 57.9416C78.1135 57.4428 78.4007 57.8963 78.4007 58.6218V61.4333C78.4007 62.3251 77.9624 63.0204 77.252 63.4286L76.1939 64.0332C75.4683 64.4564 75.0149 64.275 75.0149 63.3832V60.6171L74.9998 60.602ZM76.3904 62.9298L77.0101 62.567C77.3124 62.3856 77.4787 62.1589 77.4787 61.7659V59.2869C77.4787 58.9393 77.3427 58.8334 77.0403 58.9997L76.3601 59.3927C75.9671 59.6195 75.8916 59.9822 75.8916 60.1938V62.6728C75.8916 63.1263 76.1637 63.0507 76.3753 62.9298H76.3904Z" fill="black"/>
<path d="M79.0662 58.2591C79.0662 57.3673 79.5347 56.6115 80.2603 56.2034L81.3184 55.5987C82.18 55.0999 82.4672 55.5534 82.4672 56.2789V59.0904C82.4672 59.9822 82.0288 60.6775 81.3184 61.0857L80.2603 61.6903C79.5347 62.1135 79.0813 61.9321 79.0813 61.0403V58.2742L79.0662 58.2591ZM80.4568 60.5869L81.0765 60.2241C81.3788 60.0427 81.5451 59.816 81.5451 59.423V56.944C81.5451 56.5964 81.4091 56.4906 81.1068 56.6568L80.4266 57.0498C80.0336 57.2766 79.958 57.6393 79.958 57.8509V60.3299C79.958 60.7834 80.2301 60.7078 80.4417 60.5869H80.4568Z" fill="black"/>
<path d="M84.7495 54.9792C84.7495 54.0873 85.2181 53.3316 85.9436 52.9235L87.0017 52.3188C87.8633 51.82 88.1505 52.2735 88.1505 52.999V55.8105C88.1505 56.7023 87.7121 57.3976 87.0017 57.8058L85.9436 58.4104C85.2181 58.8336 84.7646 58.6522 84.7646 57.7604V54.9943L84.7495 54.9792ZM86.1401 57.3069L86.7599 56.9442C87.0622 56.7628 87.2285 56.5361 87.2285 56.1431V53.6641C87.2285 53.3165 87.0924 53.2106 86.7901 53.3769L86.1099 53.7699C85.7169 53.9967 85.6413 54.3594 85.6413 54.571V57.05C85.6413 57.5035 85.9134 57.4279 86.125 57.3069H86.1401Z" fill="black"/>
<path d="M88.8005 52.6363C88.8005 51.7445 89.2691 50.9887 89.9947 50.5806L91.0527 49.9759C91.9143 49.4771 92.2015 49.9306 92.2015 50.6561V53.4676C92.2015 54.3594 91.7632 55.0547 91.0527 55.4629L89.9947 56.0675C89.2691 56.4907 88.8156 56.3093 88.8156 55.4175V52.6514L88.8005 52.6363ZM90.1912 54.9641L90.8109 54.6013C91.1132 54.4199 91.2795 54.1932 91.2795 53.8002V51.3212C91.2795 50.9736 91.1434 50.8678 90.8411 51.034L90.1609 51.427C89.7679 51.6538 89.6923 52.0165 89.6923 52.2281V54.7071C89.6923 55.1606 89.9644 55.085 90.176 54.9641H90.1912Z" fill="black"/>
<path d="M92.8665 50.2932C92.8665 49.4014 93.335 48.6457 94.0606 48.2375L95.1187 47.6329C95.9803 47.1341 96.2674 47.5876 96.2674 48.3131V51.1246C96.2674 52.0164 95.8291 52.7117 95.1187 53.1198L94.0606 53.7245C93.335 54.1477 92.8816 53.9663 92.8816 53.0745V50.3084L92.8665 50.2932ZM94.2571 52.621L94.8768 52.2583C95.1791 52.0769 95.3454 51.8501 95.3454 51.4571V48.9782C95.3454 48.6305 95.2094 48.5247 94.9071 48.691L94.2269 49.084C93.8339 49.3107 93.7583 49.6735 93.7583 49.8851V52.3641C93.7583 52.8175 94.0304 52.742 94.242 52.621H94.2571Z" fill="black"/>
<path d="M96.9326 47.9352C96.9326 47.0434 97.4012 46.2876 98.1267 45.8795L99.1848 45.2749C100.046 44.7761 100.334 45.2295 100.334 45.9551V48.7666C100.334 49.6584 99.8953 50.3537 99.1848 50.7618L98.1267 51.3664C97.4012 51.7897 96.9477 51.6083 96.9477 50.7165V47.9503L96.9326 47.9352ZM98.3232 50.263L98.943 49.9002C99.2453 49.7188 99.4116 49.4921 99.4116 49.0991V46.6202C99.4116 46.2725 99.2755 46.1667 98.9732 46.333L98.293 46.726C97.9 46.9527 97.8244 47.3155 97.8244 47.5271V50.006C97.8244 50.4595 98.0965 50.3839 98.3081 50.263H98.3232Z" fill="black"/>
<g style="mix-blend-mode:multiply" opacity="0.3">
<path d="M117.757 84.7976L78.269 108.191L49.7328 124.66C49.4144 124.844 49.0208 124.838 48.7079 124.645L43.8611 121.656V110.501L46.3257 100.925L46.3692 88.661L46.3257 71.7049L70.3021 57.8674L88.9553 47.0903L106.187 37.14L99.4422 61.363L110.364 67.8031L117.757 84.7976Z" fill="#50298A"/>
</g>
<path d="M44.0894 71.0973L42.668 70.2705L42.813 121.066L44.2345 121.893L44.0894 71.0973Z" fill="#997EFF"/>
<path d="M118.209 28.2936L116.787 27.4813L42.668 70.2704L44.0894 71.0972L118.209 28.2936Z" fill="#997EFF"/>
<path d="M118.354 79.0893L73.2877 105.111L44.2346 121.893L44.2056 113.408L44.1766 101.224L44.1331 88.0388L44.0896 71.0972L68.066 57.2451L86.7192 46.4826L103.951 36.5323L118.209 28.2936L118.267 47.2368L118.354 79.0893Z" fill="#8666FF"/>
<path d="M48.0781 98.9173C48.0781 98.0615 48.5278 97.3362 49.224 96.9446L50.2393 96.3644C51.0661 95.8858 51.3417 96.3209 51.3417 97.0171V99.715C51.3417 100.571 50.9211 101.238 50.2393 101.63L49.224 102.21C48.5278 102.616 48.0926 102.442 48.0926 101.586V98.9318L48.0781 98.9173ZM49.4126 101.151L50.0073 100.803C50.2974 100.629 50.4569 100.411 50.4569 100.034V97.6553C50.4569 97.3217 50.3264 97.2202 50.0363 97.3797L49.3836 97.7569C49.0064 97.9744 48.9339 98.3226 48.9339 98.5256V100.904C48.9339 101.34 49.195 101.267 49.3981 101.151H49.4126Z" fill="white"/>
<path d="M51.98 96.6691C51.98 95.8133 52.4296 95.0881 53.1259 94.6964L54.1412 94.1162C54.968 93.6376 55.2436 94.0727 55.2436 94.769V97.4669C55.2436 98.3226 54.8229 98.9899 54.1412 99.3815L53.1259 99.9617C52.4296 100.368 51.9945 100.194 51.9945 99.338V96.6836L51.98 96.6691ZM53.3144 98.9028L53.9091 98.5547C54.1992 98.3807 54.3588 98.1631 54.3588 97.786V95.4072C54.3588 95.0736 54.2282 94.972 53.9381 95.1316L53.2854 95.5087C52.9083 95.7263 52.8358 96.0744 52.8358 96.2775V98.6562C52.8358 99.0914 53.0968 99.0189 53.2999 98.9028H53.3144Z" fill="white"/>
<path d="M55.8818 94.4209C55.8818 93.5651 56.3315 92.8399 57.0277 92.4483L58.043 91.8681C58.8698 91.3894 59.1454 91.8246 59.1454 92.5208V95.2187C59.1454 96.0745 58.7248 96.7417 58.043 97.1333L57.0277 97.7135C56.3315 98.1196 55.8963 97.9456 55.8963 97.0898V94.4354L55.8818 94.4209ZM57.2163 96.6546L57.811 96.3065C58.1011 96.1325 58.2606 95.9149 58.2606 95.5378V93.159C58.2606 92.8254 58.1301 92.7239 57.84 92.8834L57.1873 93.2605C56.8101 93.4781 56.7376 93.8262 56.7376 94.0293V96.4081C56.7376 96.8432 56.9987 96.7707 57.2018 96.6546H57.2163Z" fill="white"/>
<path d="M59.7834 92.1726C59.7834 91.3168 60.2331 90.5916 60.9293 90.2L61.9447 89.6198C62.7714 89.1411 63.047 89.5763 63.047 90.2725V92.9704C63.047 93.8262 62.6264 94.4934 61.9447 94.885L60.9293 95.4652C60.2331 95.8713 59.798 95.6973 59.798 94.8415V92.1871L59.7834 92.1726ZM61.1179 94.4064L61.7126 94.0583C62.0027 93.8842 62.1622 93.6666 62.1622 93.2895V90.9107C62.1622 90.5771 62.0317 90.4756 61.7416 90.6351L61.0889 91.0122C60.7118 91.2298 60.6392 91.5779 60.6392 91.781V94.1598C60.6392 94.5949 60.9003 94.5224 61.1034 94.4064H61.1179Z" fill="white"/>
<path d="M65.2229 89.0252C65.2229 88.1694 65.6726 87.4441 66.3688 87.0525L67.3841 86.4723C68.2109 85.9937 68.4865 86.4288 68.4865 87.125V89.8229C68.4865 90.6787 68.0658 91.3459 67.3841 91.7376L66.3688 92.3177C65.6726 92.7239 65.2374 92.5498 65.2374 91.694V89.0397L65.2229 89.0252ZM66.5573 91.2589L67.152 90.9108C67.4421 90.7367 67.6017 90.5192 67.6017 90.142V87.7632C67.6017 87.4296 67.4711 87.3281 67.181 87.4877L66.5283 87.8648C66.1512 88.0823 66.0787 88.4305 66.0787 88.6335V91.0123C66.0787 91.4475 66.3398 91.3749 66.5428 91.2589H66.5573Z" fill="white"/>
<path d="M69.1245 86.777C69.1245 85.9212 69.5742 85.196 70.2704 84.8043L71.2857 84.2242C72.1125 83.7455 72.3881 84.1806 72.3736 84.8769V87.5748C72.3736 88.4305 71.9529 89.0978 71.2712 89.4894L70.2559 90.0696C69.5597 90.4757 69.1245 90.3017 69.1245 89.4459V86.7915V86.777ZM70.459 89.0107L71.0536 88.6626C71.3437 88.4886 71.5033 88.271 71.5033 87.8939V85.5151C71.5033 85.1815 71.3728 85.0799 71.0827 85.2395L70.4299 85.6166C70.0528 85.8342 69.9803 86.1823 69.9803 86.3854V88.7641C69.9803 89.1993 70.2414 89.1268 70.4444 89.0107H70.459Z" fill="white"/>
<path d="M73.0261 84.5142C73.0261 83.6584 73.4758 82.9332 74.172 82.5415L75.1873 81.9613C76.0141 81.4827 76.2897 81.9178 76.2897 82.614V85.3119C76.2897 86.1677 75.8691 86.8349 75.1873 87.2266L74.172 87.8068C73.4758 88.2129 73.0406 88.0388 73.0406 87.1831V84.5287L73.0261 84.5142ZM74.3606 86.7479L74.9553 86.3998C75.2454 86.2257 75.4049 86.0082 75.4049 85.631V83.2523C75.4049 82.9186 75.2744 82.8171 74.9843 82.9767L74.3316 83.3538C73.9544 83.5714 73.8819 83.9195 73.8819 84.1225V86.5013C73.8819 86.9365 74.143 86.8639 74.3461 86.7479H74.3606Z" fill="white"/>
<path d="M76.928 82.2659C76.928 81.4101 77.3776 80.6849 78.0739 80.2932L79.0892 79.713C79.916 79.2344 80.1916 79.6695 80.1916 80.3658V83.0636C80.1916 83.9194 79.7709 84.5867 79.0892 84.9783L78.0739 85.5585C77.3776 85.9646 76.9425 85.7905 76.9425 84.9348V82.2804L76.928 82.2659ZM78.2624 84.4996L78.8571 84.1515C79.1472 83.9775 79.3068 83.7599 79.3068 83.3828V81.004C79.3068 80.6704 79.1762 80.5688 78.8861 80.7284L78.2334 81.1055C77.8563 81.3231 77.7838 81.6712 77.7838 81.8743V84.253C77.7838 84.6882 78.0448 84.6157 78.2479 84.4996H78.2624Z" fill="white"/>
<path d="M82.3821 79.1183C82.3821 78.2625 82.8317 77.5373 83.528 77.1457L84.5433 76.5655C85.3701 76.0868 85.6457 76.5219 85.6457 77.2182V79.9161C85.6457 80.7718 85.225 81.4391 84.5433 81.8307L83.528 82.4109C82.8317 82.817 82.3966 82.643 82.3966 81.7872V79.1328L82.3821 79.1183ZM83.7165 81.352L84.3112 81.0039C84.6013 80.8299 84.7609 80.6123 84.7609 80.2352V77.8564C84.7609 77.5228 84.6303 77.4212 84.3402 77.5808L83.6875 77.9579C83.3104 78.1755 83.2379 78.5236 83.2379 78.7267V81.1055C83.2379 81.5406 83.4989 81.4681 83.702 81.352H83.7165Z" fill="white"/>
<path d="M86.2693 76.87C86.2693 76.0142 86.7189 75.289 87.4152 74.8974L88.4305 74.3172C89.2573 73.8385 89.5329 74.2737 89.5329 74.9699V77.6678C89.5329 78.5236 89.1122 79.1908 88.4305 79.5824L87.4152 80.1626C86.7189 80.5687 86.2838 80.3947 86.2838 79.5389V76.8845L86.2693 76.87ZM87.6037 79.1037L88.1984 78.7556C88.4885 78.5816 88.6481 78.364 88.6481 77.9869V75.6081C88.6481 75.2745 88.5175 75.173 88.2274 75.3325L87.5747 75.7096C87.1976 75.9272 87.1251 76.2753 87.1251 76.4784V78.8572C87.1251 79.2923 87.3862 79.2198 87.5892 79.1037H87.6037Z" fill="white"/>
<path d="M90.1709 74.6217C90.1709 73.7659 90.6205 73.0407 91.3168 72.6491L92.3321 72.0689C93.1589 71.5902 93.4345 72.0254 93.4345 72.7216V75.4195C93.4345 76.2753 93.0138 76.9425 92.3321 77.3341L91.3168 77.9143C90.6205 78.3204 90.1854 78.1464 90.1854 77.2906V74.6362L90.1709 74.6217ZM91.5053 76.8555L92.1 76.5073C92.3901 76.3333 92.5497 76.1157 92.5497 75.7386V73.3598C92.5497 73.0262 92.4191 72.9247 92.129 73.0842L91.4763 73.4613C91.0992 73.6789 91.0267 74.027 91.0267 74.2301V76.6089C91.0267 77.044 91.2878 76.9715 91.4908 76.8555H91.5053Z" fill="white"/>
<path d="M94.0725 72.3735C94.0725 71.5178 94.5222 70.7925 95.2184 70.4009L96.2337 69.8207C97.0605 69.3421 97.3361 69.7772 97.3361 70.4734V73.1713C97.3361 74.0271 96.9154 74.6943 96.2337 75.0859L95.2184 75.6661C94.5222 76.0723 94.087 75.8982 94.087 75.0424V72.3881L94.0725 72.3735ZM95.407 74.6073L96.0016 74.2592C96.2917 74.0851 96.4513 73.8675 96.4513 73.4904V71.1116C96.4513 70.778 96.3208 70.6765 96.0307 70.836L95.3779 71.2132C95.0008 71.4307 94.9283 71.7789 94.9283 71.9819V74.3607C94.9283 74.7959 95.1894 74.7233 95.3924 74.6073H95.407Z" fill="white"/>
<path d="M99.5266 69.2261C99.5266 68.3703 99.9763 67.6451 100.672 67.2534L101.688 66.6732C102.515 66.1946 102.79 66.6297 102.79 67.326V70.0239C102.79 70.8796 102.37 71.5469 101.688 71.9385L100.672 72.5187C99.9763 72.9248 99.5411 72.7508 99.5411 71.895V69.2406L99.5266 69.2261ZM100.861 71.4598L101.456 71.1117C101.746 70.9377 101.905 70.7201 101.905 70.343V67.9642C101.905 67.6306 101.775 67.529 101.485 67.6886L100.832 68.0657C100.455 68.2833 100.382 68.6314 100.382 68.8345V71.2132C100.382 71.6484 100.643 71.5759 100.847 71.4598H100.861Z" fill="white"/>
<path d="M103.428 66.9779C103.428 66.1221 103.878 65.3969 104.574 65.0053L105.589 64.4251C106.416 63.9464 106.692 64.3816 106.692 65.0778V67.7757C106.692 68.6315 106.271 69.2987 105.589 69.6903L104.574 70.2705C103.878 70.6766 103.443 70.5026 103.443 69.6468V66.9924L103.428 66.9779ZM104.763 69.2117L105.357 68.8635C105.647 68.6895 105.807 68.4719 105.807 68.0948V65.716C105.807 65.3824 105.676 65.2809 105.386 65.4404L104.734 65.8175C104.357 66.0351 104.284 66.3832 104.284 66.5863V68.9651C104.284 69.4002 104.545 69.3277 104.748 69.2117H104.763Z" fill="white"/>
<path d="M107.316 64.715C107.316 63.8592 107.766 63.134 108.462 62.7423L109.477 62.1621C110.304 61.6835 110.579 62.1186 110.579 62.8149V65.5127C110.579 66.3685 110.159 67.0357 109.477 67.4274L108.462 68.0076C107.766 68.4137 107.33 68.2396 107.33 67.3839V64.7295L107.316 64.715ZM108.65 66.9487L109.245 66.6006C109.535 66.4265 109.695 66.209 109.695 65.8319V63.4531C109.695 63.1195 109.564 63.0179 109.274 63.1775L108.621 63.5546C108.244 63.7722 108.172 64.1203 108.172 64.3234V66.7021C108.172 67.1373 108.433 67.0648 108.636 66.9487H108.65Z" fill="white"/>
<path d="M111.218 62.4668C111.218 61.611 111.667 60.8858 112.363 60.4942L113.379 59.914C114.206 59.4353 114.481 59.8705 114.481 60.5667V63.2646C114.481 64.1204 114.06 64.7876 113.379 65.1792L112.363 65.7594C111.667 66.1655 111.232 65.9915 111.232 65.1357V62.4813L111.218 62.4668ZM112.552 64.7005L113.147 64.3524C113.437 64.1784 113.596 63.9608 113.596 63.5837V61.2049C113.596 60.8713 113.466 60.7698 113.176 60.9293L112.523 61.3064C112.146 61.524 112.073 61.8721 112.073 62.0752V64.454C112.073 64.8891 112.334 64.8166 112.537 64.7005H112.552Z" fill="white"/>
<path d="M48.0781 89.5907V85.921C48.0781 84.5431 49.0499 82.846 50.2538 82.1498L53.793 80.1046C54.9824 79.4084 55.9687 79.974 55.9687 81.3665V85.0362C55.9687 86.4142 54.9969 88.1112 53.793 88.8075L50.2538 90.8526C49.0645 91.5489 48.0781 90.9832 48.0781 89.5907Z" fill="#50DCFF"/>
<path d="M50.341 87.1251C50.5441 86.8785 50.6746 86.5449 50.6746 86.2548C50.6746 85.9647 50.5441 85.7906 50.341 85.7761C50.2395 85.7761 50.1234 85.7906 50.0074 85.8631C49.6303 86.0807 49.3257 86.6029 49.3257 87.038C49.3257 87.4732 49.6303 87.6472 50.0074 87.4297C50.138 87.3571 50.2395 87.2556 50.341 87.1251Z" fill="white"/>
<path d="M53.4012 80.9894L53.0676 81.5695C53.8074 81.9902 54.257 82.904 54.257 84.1804C54.257 85.4713 53.8074 86.8928 53.0676 88.1692L53.4012 88.3578C54.2135 86.9363 54.7357 85.3408 54.7357 83.9048C54.7357 82.4688 54.228 81.4535 53.4012 80.9749V80.9894Z" fill="white"/>
<path d="M52.3856 82.7445L52.052 83.3247C52.5307 83.6003 52.8208 84.1805 52.8208 85.0218C52.8208 85.863 52.5307 86.7768 52.052 87.6036L52.3856 87.7922C52.9513 86.8204 53.2994 85.7325 53.2994 84.7462C53.2994 83.7598 52.9513 83.0636 52.3856 82.7445Z" fill="white"/>
<path d="M51.3707 84.4996L51.0371 85.0798C51.2547 85.2104 51.3852 85.4715 51.3852 85.8486C51.3852 86.2257 51.2547 86.6463 51.0371 87.0235L51.3707 87.212C51.6753 86.6899 51.8639 86.0952 51.8639 85.573C51.8639 85.0508 51.6753 84.6737 51.3707 84.4996Z" fill="white"/>
<path d="M48.0781 79.0168L68.4573 67.2679V61.2484L48.0781 73.0118V79.0168Z" fill="white" fill-opacity="0.1"/>
<g style="mix-blend-mode:multiply" opacity="0.3">
<path d="M115.285 110.952L138.898 97.1004C139.574 96.7117 139.574 95.7326 138.898 95.3438L120.41 84.6028L104.846 112.319H110.216C112.002 112.319 113.744 111.844 115.299 110.952H115.285Z" fill="#50298A"/>
</g>
<path d="M94.9792 115.429L95.0512 88.9222C95.0512 89.239 95.2672 89.5702 95.6416 89.8005L95.5696 116.308C95.1952 116.077 94.9792 115.746 94.9792 115.429Z" fill="#FFB700"/>
<mask id="mask0_515_9706" style="mask-type:luminance" maskUnits="userSpaceOnUse" x="94" y="88" width="2" height="29">
<path d="M94.9792 115.429L95.0512 88.9222C95.0512 89.239 95.2672 89.5702 95.6416 89.8005L95.5696 116.308C95.1952 116.077 94.9792 115.746 94.9792 115.429Z" fill="white"/>
</mask>
<g mask="url(#mask0_515_9706)">
<path d="M95.6274 89.8005L95.5554 116.308C95.1811 116.077 94.9651 115.746 94.9651 115.429L95.0371 88.9222C95.0371 89.239 95.2531 89.5702 95.6274 89.8005Z" fill="#FFB700"/>
</g>
<path d="M98.7945 91.6291L98.7225 118.136C97.6715 117.531 96.6204 116.927 95.5693 116.308L95.6413 89.8005C96.6924 90.4053 97.7435 91.01 98.7945 91.6291Z" fill="#FFB700"/>
<mask id="mask1_515_9706" style="mask-type:luminance" maskUnits="userSpaceOnUse" x="95" y="89" width="4" height="30">
<path d="M98.7945 91.6291L98.7225 118.136C97.6715 117.531 96.6204 116.927 95.5693 116.308L95.6413 89.8005C96.6924 90.4053 97.7435 91.01 98.7945 91.6291Z" fill="white"/>
</mask>
<g mask="url(#mask1_515_9706)">
<path d="M98.7945 91.6291L98.7225 118.136C97.6715 117.531 96.6204 116.927 95.5693 116.308L95.6413 89.8005C96.6924 90.4053 97.7435 91.01 98.7945 91.6291Z" fill="#FFB700"/>
</g>
<path d="M127.145 103.018L127.217 76.511C127.217 76.511 127.217 76.583 127.217 76.6118V76.6406C127.217 76.6694 127.217 76.6838 127.217 76.7126C127.217 76.7558 127.188 76.8133 127.174 76.8565C127.174 76.8565 127.174 76.8709 127.174 76.8853C127.159 76.9285 127.13 76.9717 127.116 77.0149C127.116 77.0149 127.116 77.0149 127.116 77.0293C127.087 77.0725 127.058 77.1157 127.015 77.1589C127.015 77.1589 127.001 77.1733 126.986 77.1877C126.943 77.2309 126.914 77.2741 126.871 77.3173C119.974 82.9038 111.623 87.756 101.991 91.7731C101.919 91.8019 101.847 91.8307 101.761 91.8595C101.732 91.8595 101.717 91.8595 101.689 91.8739C101.631 91.8883 101.559 91.9027 101.502 91.9171C101.487 91.9171 101.458 91.9171 101.444 91.9171C101.358 91.9315 101.286 91.9459 101.199 91.9603C101.185 91.9603 101.17 91.9603 101.142 91.9603C101.07 91.9603 100.998 91.9747 100.926 91.9747C100.177 92.0179 99.3706 91.8739 98.8235 91.5859L98.7515 118.093C99.2842 118.367 100.076 118.525 100.81 118.482C100.81 118.482 100.839 118.482 100.854 118.482C100.926 118.482 100.998 118.482 101.07 118.467C101.084 118.467 101.098 118.467 101.127 118.467C101.214 118.467 101.3 118.439 101.372 118.424C101.386 118.424 101.415 118.424 101.43 118.424C101.487 118.424 101.559 118.395 101.617 118.381C101.646 118.381 101.66 118.381 101.689 118.367C101.761 118.338 101.847 118.309 101.919 118.28C111.551 114.263 119.902 109.411 126.799 103.824C126.842 103.781 126.886 103.738 126.914 103.695C126.914 103.695 126.929 103.68 126.943 103.666C126.972 103.623 127.015 103.58 127.044 103.536C127.044 103.536 127.044 103.536 127.044 103.522C127.073 103.479 127.087 103.436 127.102 103.392C127.102 103.392 127.102 103.378 127.102 103.364C127.116 103.32 127.13 103.263 127.145 103.22C127.145 103.205 127.145 103.176 127.145 103.162V103.133C127.145 103.104 127.145 103.061 127.145 103.032V103.018Z" fill="#FFC400"/>
<path d="M100.854 92.0179L100.782 118.525C100.048 118.568 99.2556 118.41 98.7229 118.136L98.7949 91.6292C99.3276 91.9027 100.12 92.0611 100.854 92.0179Z" fill="#FFB700"/>
<path d="M123.329 73.6457C124.438 74.2793 125.489 74.884 126.54 75.5031C127.375 75.9926 127.39 76.7989 126.828 77.3317C119.931 82.9182 111.58 87.7704 101.948 91.7875C101.026 92.1906 99.6154 92.061 98.7947 91.6291C97.7437 91.0244 96.6926 90.4196 95.6415 89.8005C94.9216 89.3542 94.8064 88.5623 95.6415 88.1159C103.921 83.3069 112.214 78.4835 120.493 73.6745C121.256 73.2714 122.566 73.1994 123.344 73.6457H123.329Z" fill="#FFDE38"/>
<path d="M124.395 65.3523V76.4821C124.395 76.8709 124.15 77.2452 123.646 77.5476C122.638 78.1379 121.011 78.1379 120.018 77.5476C119.514 77.2596 119.269 76.8709 119.269 76.4821V65.3523C119.269 63.4373 118.722 62.0119 117.771 61.4648C116.821 60.9177 115.324 61.148 113.654 62.1127L110.817 63.7397C106.382 66.3026 102.639 72.7818 102.639 77.9075V89.0374C102.639 89.4261 102.394 89.8005 101.89 90.1028C101.242 90.4772 100.35 90.6068 99.5145 90.506C99.0538 90.4484 98.6074 90.3188 98.2475 90.1028C98.1179 90.0164 97.9883 89.9444 97.9019 89.8437C97.6284 89.5989 97.4988 89.3109 97.4988 89.0374V77.9075C97.4988 74.5528 98.6074 70.7948 100.623 67.2961C102.639 63.8117 105.346 60.9608 108.24 59.2907L111.076 57.6493C112.674 56.7278 114.273 56.195 115.813 56.0511C117.455 55.9071 119.01 56.2382 120.334 57.0013C121.645 57.7645 122.71 58.9451 123.416 60.4425C124.078 61.8535 124.409 63.4949 124.409 65.3379L124.395 65.3523Z" fill="#C9C9EC"/>
<path d="M119.197 62.0696C118.909 61.8968 118.563 61.8104 118.189 61.7816C118.88 62.4583 119.283 63.7254 119.283 65.3524V76.4822C119.283 76.8709 119.528 77.2453 120.032 77.5477C120.234 77.6628 120.464 77.7636 120.694 77.8212V65.9571C120.694 64.0277 120.147 62.6167 119.197 62.0696Z" fill="#B7B7D7"/>
<path d="M120.68 57.6781C119.787 57.4333 118.822 57.347 117.829 57.4333C116.288 57.5629 114.69 58.1101 113.092 59.0315L110.256 60.6729C107.347 62.3431 104.655 65.194 102.639 68.6784C100.623 72.1627 99.5145 75.9351 99.5145 79.2898V90.5348C99.0537 90.4772 98.6074 90.3477 98.2474 90.1317C98.1178 90.0453 97.9882 89.9733 97.9019 89.8725V78.6131C97.9019 75.2583 99.0105 71.5004 101.026 68.0016C103.042 64.5173 105.749 61.6664 108.657 59.9962L111.494 58.3548C113.092 57.4334 114.69 56.9006 116.231 56.7566C117.843 56.6127 119.384 56.9294 120.694 57.6781H120.68Z" fill="#E1E1F5"/>
<path d="M117.743 103.119C117.743 102.169 117.066 101.78 116.245 102.255C115.425 102.73 114.748 103.896 114.748 104.847C114.748 105.48 115.036 105.855 115.482 105.912V108.633L117.023 107.741V105.019C117.455 104.472 117.757 103.752 117.757 103.119H117.743Z" fill="#DF9B09"/>
</g>
<defs>
<linearGradient id="paint0_linear_515_9706" x1="0.938232" y1="125.995" x2="72.3124" y2="125.995" gradientUnits="userSpaceOnUse">
<stop stop-color="#6EBD46"/>
<stop offset="1" stop-color="#84E453"/>
</linearGradient>
<clipPath id="clip0_515_9706">
<rect width="149.007" height="150" fill="white" transform="translate(0.496582 0.00512695)"/>
</clipPath>
</defs>
</svg>
