<svg width="150" height="151" viewBox="0 0 150 151" fill="none" xmlns="http://www.w3.org/2000/svg">
<g clip-path="url(#clip0_515_9334)">
<path d="M72.1365 144.17L148.962 100.242L149.121 106.906L72.1365 150.762V144.17Z" fill="#84E453" stroke="black" stroke-width="1.53546" stroke-linejoin="round"/>
<path d="M72.1366 144.17L0.938232 102.177L1.09809 109.034L72.1366 150.786L72.1526 144.17H72.1366Z" fill="url(#paint0_linear_515_9334)" stroke="black" stroke-width="1.53546" stroke-linejoin="round"/>
<path d="M71.6251 61.7183L0.938232 102.177L72.1366 144.17L148.962 100.243L71.6251 61.7023V61.7183Z" fill="#99FF62" stroke="black" stroke-width="1.53546" stroke-linejoin="round"/>
<g style="mix-blend-mode:multiply">
<path d="M132.526 93.2188L73.0175 125.967H72.0817L63.4736 123.16L51.4971 105.195L40.2693 102.201L93.2279 73.3823L132.526 93.2188Z" fill="black" fill-opacity="0.1"/>
</g>
<g style="mix-blend-mode:multiply">
<path d="M18 104.696L83.9531 68.6123L144 97.974L75.0577 137.612L18 104.696Z" fill="#BED1CD"/>
</g>
<path d="M132.594 86.364L87.6704 60.367L21.7911 98.5026L66.7144 124.5L132.594 86.364Z" fill="#EADCDB"/>
<g style="mix-blend-mode:multiply">
<path d="M118.236 78.0575L87.6704 60.367L21.7911 98.5026L52.6985 116.393L118.236 78.0575Z" fill="#DDDBDC" fill-opacity="0.5"/>
</g>
<path d="M36.106 101.271C33.8851 102.556 30.269 102.549 28.0339 101.257C25.7988 99.9654 25.7846 97.8745 28.0054 96.59C30.2263 95.3055 33.8424 95.3127 36.0775 96.6043C38.3127 97.896 38.3269 99.9868 36.106 101.271Z" fill="#E0CBC9"/>
<path d="M27.1441 95.2414C27.1441 95.2414 26.3611 97.0183 26.3611 98.7738C26.3611 100.529 37.7716 98.7738 37.7716 98.7738C37.7716 98.7738 37.4157 95.8266 36.8818 95.0701C36.3622 95.0701 27.1441 95.2414 27.1441 95.2414Z" fill="#E0CBC9"/>
<path d="M35.6647 98.0743C33.6858 99.2161 30.4684 99.2161 28.4824 98.06C26.4893 96.9111 26.4821 95.0486 28.461 93.8997C30.4399 92.7579 33.6573 92.7579 35.6433 93.9139C37.6364 95.0629 37.6435 96.9254 35.6647 98.0743Z" fill="#EADCDB"/>
<path d="M35.5295 97.9459C33.6147 99.052 30.504 99.0449 28.5749 97.9316C26.6459 96.8184 26.6388 95.013 28.5536 93.9069C30.4684 92.8008 33.5791 92.8079 35.5081 93.9211C37.4372 95.0344 37.4443 96.8398 35.5295 97.9459Z" fill="#EADCDB"/>
<path d="M34.9386 97.6534C33.3583 98.5668 30.7886 98.5597 29.2013 97.6462C27.6139 96.7257 27.6068 95.2414 29.1799 94.3279C30.753 93.4145 33.3298 93.4216 34.9172 94.3351C36.5046 95.2556 36.5117 96.74 34.9386 97.6534Z" fill="#F4E8E7"/>
<path d="M36.1202 95.9906L35.6432 61.3375H28.4752L28.0054 95.9906H36.1202Z" fill="#F4E8E7"/>
<path d="M34.6041 62.8076C33.2089 63.614 30.9382 63.614 29.5359 62.8005C28.1336 61.9869 28.1265 60.6739 29.5217 59.8675C30.9169 59.0611 33.1876 59.0611 34.5899 59.8746C35.9922 60.6882 35.9993 62.0012 34.6041 62.8076Z" fill="#FFF8F8"/>
<path d="M27.5783 61.887C27.5783 61.887 26.7597 58.2547 26.9804 56.8132C27.2153 55.2718 37.1452 57.0344 37.1452 57.0344C37.1452 57.0344 36.9886 60.3028 36.5402 61.9298C36.0775 61.9298 27.5783 61.8942 27.5783 61.8942V61.887Z" fill="#E0CBC9"/>
<path d="M35.2731 63.3928C33.5077 64.4133 30.6462 64.4061 28.8738 63.3785C27.1013 62.3509 27.0942 60.6953 28.8524 59.6749C30.6177 58.6544 33.4793 58.6615 35.2517 59.6891C37.0241 60.7167 37.0313 62.3723 35.2731 63.3928Z" fill="#E0CBC9"/>
<path d="M35.665 59.0396C33.6861 60.1814 30.4686 60.1814 28.4755 59.0254C26.4824 57.8693 26.4753 56.0068 28.4542 54.865C30.433 53.7232 33.6505 53.7232 35.6436 54.8793C37.6367 56.0353 37.6438 57.8979 35.665 59.0396Z" fill="#FFF8F8"/>
<path d="M47.6092 94.6775C45.3883 95.962 41.7722 95.9549 39.5371 94.6633C37.302 93.3716 37.2877 91.2807 39.5086 89.9962C41.7295 88.7117 45.3456 88.7189 47.5807 90.0105C49.8158 91.3021 49.8301 93.393 47.6092 94.6775Z" fill="#E0CBC9"/>
<path d="M38.6402 88.6404C38.6402 88.6404 37.8572 90.4173 37.8572 92.1728C37.8572 93.9283 49.2677 92.1728 49.2677 92.1728C49.2677 92.1728 48.9118 89.2256 48.3779 88.4692C47.8583 88.4692 38.6402 88.6404 38.6402 88.6404Z" fill="#E0CBC9"/>
<path d="M47.1679 91.4806C45.189 92.6224 41.9716 92.6224 39.9856 91.4663C37.9996 90.3103 37.9853 88.4549 39.9642 87.306C41.9431 86.1642 45.1605 86.1642 47.1465 87.3203C49.1396 88.4692 49.1467 90.3317 47.1679 91.4806Z" fill="#EADCDB"/>
<path d="M47.0326 91.345C45.1178 92.4511 42.0072 92.4439 40.0781 91.3307C38.1491 90.2175 38.142 88.412 40.0568 87.3059C41.9716 86.1998 45.0822 86.2069 47.0113 87.3202C48.9403 88.4334 48.9474 90.2389 47.0326 91.345Z" fill="#EADCDB"/>
<path d="M46.4417 91.0595C44.8615 91.9729 42.2918 91.9658 40.7044 91.0524C39.1171 90.1318 39.1099 88.6475 40.6831 87.7341C42.2633 86.8206 44.833 86.8278 46.4204 87.7412C48.0077 88.6618 48.0149 90.1461 46.4417 91.0595Z" fill="#F4E8E7"/>
<path d="M47.6162 89.3896L47.1464 54.7437H39.9783L39.5085 89.3896H47.6162Z" fill="#F4E8E7"/>
<path d="M46.1073 56.2137C44.7121 57.0201 42.4414 57.0201 41.0391 56.2066C39.6368 55.3931 39.6297 54.08 41.0249 53.2736C42.42 52.4673 44.6908 52.4673 46.093 53.2808C47.4953 54.0943 47.5025 55.4073 46.1073 56.2137Z" fill="#FFF8F8"/>
<path d="M39.0815 55.2861C39.0815 55.2861 38.2629 51.6538 38.4836 50.2123C38.7185 48.6709 48.6484 50.4335 48.6484 50.4335C48.6484 50.4335 48.4918 53.7018 48.0434 55.3289C47.5807 55.3289 39.0815 55.2932 39.0815 55.2932V55.2861Z" fill="#E0CBC9"/>
<path d="M46.7691 56.7918C45.0038 57.8123 42.1423 57.8052 40.3698 56.7776C38.5974 55.75 38.5903 54.0944 40.3485 53.0739C42.1138 52.0534 44.9754 52.0606 46.7478 53.0882C48.5202 54.1158 48.5274 55.7714 46.7691 56.7918Z" fill="#E0CBC9"/>
<path d="M47.1681 52.4387C45.1893 53.5877 41.9718 53.5805 39.9787 52.4245C37.9856 51.2756 37.9785 49.4059 39.9573 48.2641C41.9362 47.1223 45.1537 47.1223 47.1468 48.2784C49.1399 49.4273 49.147 51.297 47.1681 52.4387Z" fill="#FFF8F8"/>
<path d="M80.6663 74.9248C78.4454 76.2093 74.8293 76.2022 72.5942 74.9105C70.3591 73.6189 70.3449 71.528 72.5657 70.2435C74.7866 68.959 78.4027 68.9661 80.6378 70.2578C82.873 71.5494 82.8872 73.6403 80.6663 74.9248Z" fill="#E0CBC9"/>
<path d="M71.6973 68.8876C71.6973 68.8876 70.9143 70.6645 70.9143 72.42C70.9143 74.1755 82.3248 72.42 82.3248 72.42C82.3248 72.42 81.9689 69.4727 81.4351 68.7163C80.9154 68.7163 71.6973 68.8876 71.6973 68.8876Z" fill="#E0CBC9"/>
<path d="M80.225 71.7278C78.2461 72.8695 75.0287 72.8695 73.0427 71.7135C71.0496 70.5646 71.0424 68.702 73.0213 67.5531C75.0002 66.4113 78.2176 66.4113 80.2036 67.5674C82.1967 68.7163 82.2038 70.5788 80.225 71.7278Z" fill="#EADCDB"/>
<path d="M80.0827 71.5922C78.1679 72.6983 75.0572 72.6911 73.1282 71.5779C71.1991 70.4646 71.192 68.6592 73.1068 67.5531C75.0216 66.447 78.1323 66.4541 80.0613 67.5674C81.9904 68.6806 81.9975 70.4861 80.0827 71.5922Z" fill="#EADCDB"/>
<path d="M79.4989 71.3067C77.9186 72.2201 75.3489 72.213 73.7616 71.2996C72.1742 70.379 72.1671 68.8947 73.7402 67.9813C75.3133 67.0678 77.8901 67.075 79.4775 67.9884C81.0649 68.909 81.072 70.3933 79.4989 71.3067Z" fill="#FFF8F8"/>
<path d="M80.6734 69.6369L80.2036 34.9909H73.0355L72.5586 69.6369H80.6734Z" fill="#FFF8F8"/>
<path d="M79.1644 36.4609C77.7692 37.2673 75.4985 37.2673 74.0962 36.4538C72.6939 35.6403 72.6868 34.3272 74.082 33.5208C75.4772 32.7144 77.7479 32.7144 79.1502 33.528C80.5525 34.3415 80.5596 35.6545 79.1644 36.4609Z" fill="#FFF8F8"/>
<path d="M72.1315 35.5333C72.1315 35.5333 71.3129 31.901 71.5336 30.4595C71.7685 28.9181 81.6985 30.6807 81.6985 30.6807C81.6985 30.6807 81.5419 33.949 81.0934 35.5761C80.6307 35.5761 72.1315 35.5404 72.1315 35.5404V35.5333Z" fill="#E0CBC9"/>
<path d="M79.8263 37.0461C78.0609 38.0666 75.1994 38.0594 73.427 37.0318C71.6545 36.0042 71.6474 34.3486 73.4056 33.3282C75.1709 32.3077 78.0325 32.3148 79.8049 33.3424C81.5774 34.37 81.5845 36.0256 79.8263 37.0461Z" fill="#E0CBC9"/>
<path d="M80.225 32.6859C78.2461 33.8348 75.0287 33.8277 73.0356 32.6716C71.0425 31.5156 71.0354 29.653 73.0142 28.5112C74.9931 27.3695 78.2105 27.3695 80.2037 28.5255C82.1968 29.6816 82.2039 31.5441 80.225 32.6859Z" fill="#FFF8F8"/>
<path d="M92.1692 68.3238C89.9483 69.6083 86.3323 69.6012 84.0971 68.3095C81.862 67.0179 81.8478 64.927 84.0687 63.6425C86.2896 62.358 89.9056 62.3651 92.1408 63.6567C94.3759 64.9484 94.3901 67.0393 92.1692 68.3238Z" fill="#E0CBC9"/>
<path d="M83.2002 62.2938C83.2002 62.2938 82.4172 64.0707 82.4172 65.8262C82.4172 67.5816 93.8278 65.8262 93.8278 65.8262C93.8278 65.8262 93.4719 62.8789 92.938 62.1225C92.4184 62.1225 83.2002 62.2938 83.2002 62.2938Z" fill="#E0CBC9"/>
<path d="M91.7208 65.1268C89.7419 66.2686 86.5245 66.2686 84.5385 65.1125C82.5454 63.9636 82.5383 62.1011 84.5172 60.9522C86.496 59.8104 89.7135 59.8104 91.6995 60.9664C93.6926 62.1153 93.6997 63.9779 91.7208 65.1268Z" fill="#EADCDB"/>
<path d="M91.5856 64.9983C89.6708 66.1044 86.5601 66.0973 84.6311 64.984C82.7021 63.8708 82.6949 62.0653 84.6097 60.9592C86.5245 59.8531 89.6352 59.8603 91.5643 60.9735C93.4933 62.0867 93.5004 63.8922 91.5856 64.9983Z" fill="#EADCDB"/>
<path d="M90.9947 64.7057C89.4145 65.6192 86.8448 65.612 85.2574 64.6986C83.67 63.778 83.6629 62.2937 85.2361 61.3803C86.8163 60.4669 89.386 60.474 90.9734 61.3874C92.5607 62.308 92.5678 63.7923 90.9947 64.7057Z" fill="#FFF8F8"/>
<path d="M92.1763 63.0431L91.7065 28.39H84.5313L84.0615 63.0431H92.1763Z" fill="#FFF8F8"/>
<path d="M90.6603 29.867C89.2651 30.6734 86.9944 30.6734 85.5921 29.8599C84.1898 29.0464 84.1827 27.7333 85.5778 26.927C86.973 26.1206 89.2437 26.1206 90.646 26.9341C92.0483 27.7476 92.0554 29.0607 90.6603 29.867Z" fill="#FFF8F8"/>
<path d="M83.6345 28.9395C83.6345 28.9395 82.8159 25.3072 83.0365 23.8657C83.2714 22.3242 93.2014 24.0869 93.2014 24.0869C93.2014 24.0869 93.0448 27.3552 92.5963 28.9823C92.1336 28.9823 83.6345 28.9466 83.6345 28.9466V28.9395Z" fill="#E0CBC9"/>
<path d="M91.3292 30.4452C89.5639 31.4656 86.7023 31.4585 84.9299 30.4309C83.1575 29.4033 83.1503 27.7477 84.9086 26.7272C86.6739 25.7068 89.5354 25.7139 91.3079 26.7415C93.0803 27.7691 93.0874 29.4247 91.3292 30.4452Z" fill="#E0CBC9"/>
<path d="M91.7211 26.0921C89.7422 27.2339 86.5248 27.2339 84.5317 26.0779C82.5386 24.9289 82.5315 23.0593 84.5103 21.9175C86.4892 20.7757 89.7066 20.7757 91.6997 21.9318C93.6929 23.0878 93.7 24.9503 91.7211 26.0921Z" fill="#FFF8F8"/>
<path d="M52.6914 111.076C50.4706 112.361 46.8545 112.354 44.6194 111.062C42.3842 109.77 42.37 107.68 44.5909 106.395C46.8118 105.111 50.4278 105.118 52.663 106.409C54.8981 107.701 54.9123 109.792 52.6914 111.076Z" fill="#E0CBC9"/>
<path d="M43.7225 105.039C43.7225 105.039 42.9395 106.816 42.9395 108.572C42.9395 110.327 54.35 108.572 54.35 108.572C54.35 108.572 53.9941 105.624 53.4602 104.868C52.9406 104.868 43.7225 105.039 43.7225 105.039Z" fill="#E0CBC9"/>
<path d="M52.2501 107.879C50.2712 109.021 47.0538 109.021 45.0678 107.865C43.0747 106.716 43.0676 104.854 45.0465 103.705C47.0253 102.563 50.2428 102.563 52.2288 103.719C54.2219 104.868 54.229 106.731 52.2501 107.879Z" fill="#EADCDB"/>
<path d="M52.1078 107.744C50.193 108.85 47.0824 108.843 45.1533 107.73C43.2243 106.616 43.2172 104.811 45.132 103.705C47.0468 102.599 50.1574 102.606 52.0865 103.719C54.0155 104.832 54.0226 106.638 52.1078 107.744Z" fill="#EADCDB"/>
<path d="M51.524 107.458C49.9438 108.372 47.3741 108.365 45.7867 107.451C44.1993 106.531 44.1922 105.046 45.7654 104.133C47.3456 103.22 49.9153 103.227 51.5027 104.14C53.09 105.061 53.0971 106.545 51.524 107.458Z" fill="#F4E8E7"/>
<path d="M52.6985 105.788L52.2287 71.1425H45.0607L44.5837 105.788H52.6985Z" fill="#F4E8E7"/>
<path d="M51.1896 72.6126C49.7944 73.419 47.5237 73.419 46.1214 72.6055C44.7191 71.7919 44.712 70.4789 46.1071 69.6725C47.5023 68.8661 49.773 68.8661 51.1753 69.6796C52.5776 70.4932 52.5847 71.8062 51.1896 72.6126Z" fill="#FFF8F8"/>
<path d="M44.1567 71.6849C44.1567 71.6849 43.3381 68.0526 43.5588 66.6111C43.7937 65.0697 53.7236 66.8324 53.7236 66.8324C53.7236 66.8324 53.567 70.1007 53.1186 71.7278C52.6559 71.7278 44.1567 71.6921 44.1567 71.6921V71.6849Z" fill="#E0CBC9"/>
<path d="M51.8514 73.1978C50.0861 74.2182 47.2246 74.2111 45.4521 73.1835C43.6797 72.1559 43.6726 70.5003 45.4308 69.4798C47.1961 68.4594 50.0576 68.4665 51.8301 69.4941C53.6025 70.5217 53.6096 72.1773 51.8514 73.1978Z" fill="#E0CBC9"/>
<path d="M52.2502 68.8376C50.2713 69.9865 47.0538 69.9794 45.0607 68.8233C43.0676 67.6744 43.0605 65.8048 45.0394 64.663C47.0183 63.5212 50.2357 63.5212 52.2288 64.6772C54.2219 65.8333 54.229 67.6958 52.2502 68.8376Z" fill="#FFF8F8"/>
<path d="M111.571 76.1504C111.58 74.3257 109.033 72.8325 105.88 72.8154C102.727 72.7983 100.163 74.2637 100.153 76.0885C100.143 77.9132 102.691 79.4063 105.844 79.4234C108.997 79.4405 111.561 77.9751 111.571 76.1504Z" fill="#E0CBC9"/>
<path d="M100.939 72.4341C100.939 72.4341 100.156 74.211 100.156 75.9665C100.156 77.722 111.567 75.9665 111.567 75.9665C111.567 75.9665 111.211 73.0193 110.677 72.2629C110.164 72.2629 100.939 72.4341 100.939 72.4341Z" fill="#E0CBC9"/>
<path d="M109.467 75.2672C107.488 76.409 104.27 76.409 102.284 75.253C100.291 74.104 100.284 72.2415 102.263 71.0926C104.242 69.9508 107.459 69.9508 109.445 71.1069C111.431 72.2629 111.446 74.1183 109.467 75.2672Z" fill="#EADCDB"/>
<path d="M109.331 75.1389C107.417 76.245 104.306 76.2378 102.377 75.1246C100.448 74.0113 100.441 72.2059 102.356 71.0998C104.27 69.9937 107.381 70.0008 109.31 71.1141C111.239 72.2273 111.246 74.0327 109.331 75.1389Z" fill="#EADCDB"/>
<path d="M108.741 74.8462C107.16 75.7596 104.591 75.7525 103.003 74.8391C101.416 73.9185 101.409 72.4342 102.982 71.5207C104.555 70.6073 107.132 70.6145 108.719 71.5279C110.307 72.4484 110.314 73.9328 108.741 74.8462Z" fill="#F4E8E7"/>
<path d="M109.915 73.1835L109.445 38.5304H102.277L101.807 73.1835H109.915Z" fill="#F4E8E7"/>
<path d="M108.406 40.0076C107.011 40.814 104.74 40.814 103.338 40.0005C101.936 39.187 101.929 37.8739 103.324 37.0675C104.719 36.2611 106.99 36.2611 108.392 37.0747C109.794 37.8882 109.801 39.2012 108.406 40.0076Z" fill="#FFF8F8"/>
<path d="M101.38 39.0798C101.38 39.0798 100.562 35.4475 100.782 34.006C101.017 32.4646 110.947 34.2273 110.947 34.2273C110.947 34.2273 110.791 37.4956 110.342 39.1226C109.879 39.1226 101.38 39.087 101.38 39.087V39.0798Z" fill="#E0CBC9"/>
<path d="M109.068 40.5856C107.303 41.6061 104.441 41.5989 102.669 40.5713C100.896 39.5437 100.889 37.8881 102.647 36.8677C104.413 35.8472 107.274 35.8543 109.047 36.8819C110.819 37.9095 110.826 39.5651 109.068 40.5856Z" fill="#E0CBC9"/>
<path d="M109.467 36.2325C107.488 37.3814 104.271 37.3743 102.278 36.2182C100.284 35.0693 100.277 33.1997 102.256 32.0579C104.235 30.909 107.452 30.9161 109.446 32.0721C111.439 33.2282 111.446 35.0907 109.467 36.2325Z" fill="#FFF8F8"/>
<path d="M66.7144 124.5L132.594 86.364V95.1485L66.7144 133.277V124.5Z" fill="#F4E8E7"/>
<path d="M123.561 99.1661L117.019 95.384V104.161L123.561 107.951V99.1661Z" fill="#E0CBC9"/>
<path d="M123.561 99.1662L117.019 95.384L123.561 91.5947L130.102 95.384L123.561 99.1662Z" fill="#EADCDB"/>
<path d="M130.102 95.384L123.561 99.1661V107.951L130.102 104.161V95.384Z" fill="#F4E8E7"/>
<path d="M66.7143 124.5L21.7911 98.5026V107.28L66.7143 133.277V124.5Z" fill="#E0CBC9"/>
<path d="M88.8308 125.185L123.561 105.082V107.951L88.8308 128.053V125.185Z" fill="#F4E8E7"/>
<path d="M85.5564 120.189L120.286 100.087V103.184L85.5564 123.286V120.189Z" fill="#FFF8F8"/>
<path d="M82.282 118.298L85.5564 120.189V123.286L82.282 121.395V118.298Z" fill="#D6D6D6"/>
<path d="M82.282 118.298L85.5564 120.189L120.286 100.087L117.012 98.1957L82.282 118.298Z" fill="#FFF8F8"/>
<path d="M85.5564 123.286L88.8308 125.185L123.561 105.082L120.286 103.184L85.5564 123.286Z" fill="#FFF8F8"/>
<path d="M82.282 121.395L88.8308 125.185V128.053L82.282 124.264V121.395Z" fill="#D6D6D6"/>
<path d="M82.289 123.058L75.7473 119.269V128.053L82.289 131.835V123.058Z" fill="#E0CBC9"/>
<path d="M82.289 123.058L75.7473 119.269L82.289 115.487L88.8306 119.269L82.289 123.058Z" fill="#EADCDB"/>
<path d="M88.8307 119.269L82.2891 123.058V131.835L88.8307 128.053V119.269Z" fill="#F4E8E7"/>
<path d="M70.7576 121.345C68.5367 122.63 64.9207 122.623 62.6855 121.331C60.4504 120.039 60.4362 117.949 62.6571 116.664C64.8779 115.38 68.494 115.387 70.7291 116.678C72.9643 117.97 72.9785 120.061 70.7576 121.345Z" fill="#E0CBC9"/>
<path d="M61.7886 115.315C61.7886 115.315 61.0056 117.092 61.0056 118.848C61.0056 120.603 72.4162 118.848 72.4162 118.848C72.4162 118.848 72.0602 115.9 71.5264 115.144C71.0067 115.144 61.7886 115.315 61.7886 115.315Z" fill="#E0CBC9"/>
<path d="M70.3163 118.148C68.3374 119.29 65.12 119.29 63.134 118.134C61.1409 116.985 61.1338 115.123 63.1126 113.974C65.0915 112.832 68.3089 112.832 70.2949 113.988C72.2809 115.144 72.2951 116.999 70.3163 118.148Z" fill="#EADCDB"/>
<path d="M70.1811 118.013C68.2663 119.119 65.1556 119.112 63.2266 117.998C61.2975 116.885 61.2904 115.08 63.2052 113.974C65.12 112.868 68.2307 112.875 70.1597 113.988C72.0888 115.101 72.0959 116.907 70.1811 118.013Z" fill="#EADCDB"/>
<path d="M69.5902 117.727C68.0099 118.641 65.4402 118.634 63.8529 117.72C62.2655 116.8 62.2584 115.315 63.8315 114.402C65.4118 113.488 67.9815 113.496 69.5688 114.409C71.1562 115.33 71.1633 116.814 69.5902 117.727Z" fill="#FFF8F8"/>
<path d="M70.7718 116.065L70.2949 81.4116H63.1268L62.657 116.065H70.7718Z" fill="#FFF8F8"/>
<path d="M69.2557 82.8815C67.8605 83.6879 65.5898 83.6879 64.1875 82.8744C62.7852 82.0609 62.7781 80.7478 64.1733 79.9414C65.5685 79.135 67.8392 79.135 69.2415 79.9486C70.6438 80.7621 70.6509 82.0751 69.2557 82.8815Z" fill="#FFF8F8"/>
<path d="M62.2299 81.961C62.2299 81.961 61.4113 78.3287 61.632 76.8872C61.8669 75.3458 71.7968 77.1084 71.7968 77.1084C71.7968 77.1084 71.6402 80.3768 71.1918 82.0038C70.7291 82.0038 62.2299 81.9681 62.2299 81.9681V81.961Z" fill="#E0CBC9"/>
<path d="M69.9176 83.4667C68.1523 84.4872 65.2907 84.48 63.5183 83.4524C61.7458 82.4248 61.7387 80.7692 63.4969 79.7488C65.2623 78.7283 68.1238 78.7354 69.8962 79.763C71.6687 80.7906 71.6758 82.4462 69.9176 83.4667Z" fill="#E0CBC9"/>
<path d="M70.3166 79.1137C68.3377 80.2555 65.1202 80.2555 63.1271 79.0994C61.134 77.9433 61.1269 76.0808 63.1058 74.939C65.0847 73.7973 68.3021 73.7973 70.2952 74.9533C72.2883 76.1094 72.2954 77.9719 70.3166 79.1137Z" fill="#FFF8F8"/>
<path d="M82.2608 114.744C80.0399 116.029 76.4238 116.022 74.1887 114.73C71.9536 113.439 71.9393 111.348 74.1602 110.063C76.3811 108.779 79.9972 108.786 82.2323 110.077C84.4674 111.369 84.4817 113.46 82.2608 114.744Z" fill="#E0CBC9"/>
<path d="M73.2918 108.714C73.2918 108.714 72.5088 110.491 72.5088 112.247C72.5088 114.002 83.9193 112.247 83.9193 112.247C83.9193 112.247 83.5634 109.3 83.0295 108.543C82.5099 108.543 73.2918 108.714 73.2918 108.714Z" fill="#E0CBC9"/>
<path d="M81.8195 111.547C79.8406 112.689 76.6231 112.689 74.6372 111.533C72.644 110.384 72.6369 108.522 74.6158 107.373C76.5947 106.231 79.8121 106.231 81.7981 107.387C83.7912 108.536 83.7983 110.399 81.8195 111.547Z" fill="#EADCDB"/>
<path d="M81.6772 111.419C79.7624 112.525 76.6517 112.518 74.7226 111.405C72.7936 110.291 72.7865 108.486 74.7013 107.38C76.6161 106.274 79.7268 106.281 81.6558 107.394C83.5849 108.507 83.592 110.313 81.6772 111.419Z" fill="#EADCDB"/>
<path d="M81.0933 111.126C79.5131 112.04 76.9434 112.033 75.356 111.119C73.7687 110.199 73.7616 108.714 75.3347 107.801C76.9149 106.888 79.4846 106.895 81.072 107.808C82.6594 108.729 82.6665 110.213 81.0933 111.126Z" fill="#FFF8F8"/>
<path d="M82.2679 109.464L81.7981 74.8177H74.63L74.1531 109.464H82.2679Z" fill="#FFF8F8"/>
<path d="M80.7518 76.2878C79.3566 77.0941 77.0859 77.0941 75.6836 76.2806C74.2813 75.4671 74.2742 74.1541 75.6694 73.3477C77.0646 72.5413 79.3353 72.5413 80.7376 73.3548C82.1399 74.1683 82.147 75.4814 80.7518 76.2878Z" fill="#FFF8F8"/>
<path d="M73.726 75.36C73.726 75.36 72.9074 71.7277 73.1281 70.2862C73.363 68.7448 83.2929 70.5075 83.2929 70.5075C83.2929 70.5075 83.1363 73.7758 82.6879 75.4029C82.2252 75.4029 73.726 75.3672 73.726 75.3672V75.36Z" fill="#E0CBC9"/>
<path d="M81.4208 76.8657C79.6554 77.8862 76.7939 77.8791 75.0215 76.8515C73.249 75.8239 73.2419 74.1683 75.0001 73.1478C76.7583 72.1273 79.627 72.1345 81.3994 73.1621C83.1718 74.1897 83.179 75.8453 81.4208 76.8657Z" fill="#E0CBC9"/>
<path d="M81.8127 72.5127C79.8338 73.6545 76.6163 73.6545 74.6232 72.4985C72.6301 71.3424 72.623 69.4799 74.6019 68.3381C76.5808 67.1963 79.7982 67.1963 81.7913 68.3524C83.7844 69.5084 83.7915 71.3709 81.8127 72.5127Z" fill="#FFF8F8"/>
<path d="M115.318 94.9988C113.097 96.2833 109.481 96.2761 107.246 94.9845C105.011 93.6929 104.996 91.602 107.217 90.3175C109.438 89.0329 113.054 89.0401 115.289 90.3317C117.525 91.6234 117.539 93.7143 115.318 94.9988Z" fill="#E0CBC9"/>
<path d="M106.349 88.9616C106.349 88.9616 105.566 90.7385 105.566 92.494C105.566 94.2495 116.976 92.494 116.976 92.494C116.976 92.494 116.621 89.5468 116.087 88.7903C115.567 88.7903 106.349 88.9616 106.349 88.9616Z" fill="#E0CBC9"/>
<path d="M114.87 91.7946C112.891 92.9364 109.673 92.9364 107.687 91.7803C105.694 90.6314 105.687 88.7689 107.666 87.6199C109.645 86.4782 112.862 86.4782 114.848 87.6342C116.841 88.7831 116.848 90.6457 114.87 91.7946Z" fill="#EADCDB"/>
<path d="M114.734 91.6661C112.819 92.7722 109.709 92.7651 107.78 91.6519C105.851 90.5386 105.844 88.7332 107.758 87.6271C109.673 86.521 112.784 86.5281 114.713 87.6413C116.642 88.7546 116.649 90.56 114.734 91.6661Z" fill="#EADCDB"/>
<path d="M114.143 91.3807C112.563 92.2942 109.993 92.287 108.406 91.3736C106.819 90.453 106.812 88.9687 108.385 88.0553C109.965 87.1419 112.535 87.149 114.122 88.0624C115.709 88.983 115.717 90.4673 114.143 91.3807Z" fill="#FFF8F8"/>
<path d="M115.325 89.7109L114.855 55.0649H107.687L107.21 89.7109H115.325Z" fill="#FFF8F8"/>
<path d="M113.809 56.5349C112.414 57.3413 110.143 57.3413 108.741 56.5278C107.338 55.7142 107.331 54.4012 108.727 53.5948C110.122 52.7884 112.392 52.7884 113.795 53.6019C115.197 54.4155 115.204 55.7285 113.809 56.5349Z" fill="#FFF8F8"/>
<path d="M106.783 55.6073C106.783 55.6073 105.965 51.975 106.185 50.5335C106.42 48.9921 116.35 50.7547 116.35 50.7547C116.35 50.7547 116.193 54.0231 115.745 55.6501C115.282 55.6501 106.783 55.6144 106.783 55.6144V55.6073Z" fill="#E0CBC9"/>
<path d="M114.478 57.1129C112.713 58.1334 109.851 58.1263 108.079 57.0987C106.306 56.0711 106.299 54.4155 108.057 53.395C109.823 52.3745 112.684 52.3817 114.457 53.4093C116.229 54.4369 116.236 56.0925 114.478 57.1129Z" fill="#E0CBC9"/>
<path d="M114.87 52.7599C112.891 53.9088 109.673 53.9017 107.68 52.7456C105.687 51.5896 105.68 49.7271 107.659 48.5853C109.638 47.4435 112.855 47.4435 114.848 48.5995C116.842 49.7556 116.849 51.6181 114.87 52.7599Z" fill="#FFF8F8"/>
<path d="M126.814 88.3978C124.593 89.6823 120.977 89.6751 118.742 88.3835C116.507 87.0918 116.492 85.0009 118.713 83.7164C120.934 82.4319 124.55 82.4391 126.785 83.7307C129.02 85.0224 129.035 87.1132 126.814 88.3978Z" fill="#E0CBC9"/>
<path d="M117.845 82.3678C117.845 82.3678 117.062 84.1447 117.062 85.9002C117.062 87.6557 128.472 85.9002 128.472 85.9002C128.472 85.9002 128.116 82.953 127.583 82.1965C127.063 82.1965 117.845 82.3678 117.845 82.3678Z" fill="#E0CBC9"/>
<path d="M126.372 85.2008C124.394 86.3426 121.176 86.3426 119.19 85.1865C117.204 84.0305 117.19 82.1751 119.169 81.0261C121.148 79.8772 124.365 79.8843 126.351 81.0404C128.344 82.1893 128.351 84.0519 126.372 85.2008Z" fill="#EADCDB"/>
<path d="M126.237 85.0652C124.322 86.1713 121.212 86.1642 119.283 85.051C117.354 83.9377 117.347 82.1323 119.261 81.0262C121.176 79.9201 124.287 79.9272 126.216 81.0405C128.145 82.1537 128.152 83.9591 126.237 85.0652Z" fill="#EADCDB"/>
<path d="M125.646 84.7798C124.066 85.6932 121.496 85.6861 119.909 84.7726C118.322 83.8521 118.315 82.3678 119.888 81.4543C121.468 80.5409 124.038 80.548 125.625 81.4615C127.212 82.382 127.219 83.8664 125.646 84.7798Z" fill="#FFF8F8"/>
<path d="M126.828 83.117L126.351 48.4639H119.183L118.713 83.117H126.828Z" fill="#FFF8F8"/>
<path d="M125.312 49.934C123.917 50.7404 121.646 50.7404 120.244 49.9269C118.841 49.1133 118.834 47.8003 120.229 46.9939C121.625 46.1875 123.895 46.1875 125.298 47.0011C126.7 47.8146 126.707 49.1276 125.312 49.934Z" fill="#FFF8F8"/>
<path d="M118.286 49.0134C118.286 49.0134 117.467 45.3811 117.688 43.9396C117.923 42.3982 127.853 44.1608 127.853 44.1608C127.853 44.1608 127.696 47.4292 127.248 49.0562C126.785 49.0562 118.286 49.0206 118.286 49.0206V49.0134Z" fill="#E0CBC9"/>
<path d="M125.974 50.5192C124.208 51.5397 121.347 51.5325 119.574 50.5049C117.802 49.4773 117.795 47.8217 119.553 46.8013C121.318 45.7808 124.18 45.7879 125.952 46.8155C127.725 47.8431 127.732 49.4987 125.974 50.5192Z" fill="#E0CBC9"/>
<path d="M126.373 46.1661C124.394 47.3079 121.176 47.3079 119.183 46.1518C117.19 44.9958 117.183 43.1332 119.162 41.9915C121.141 40.8497 124.358 40.8497 126.351 42.0057C128.344 43.1618 128.352 45.0243 126.373 46.1661Z" fill="#FFF8F8"/>
<path d="M66.7143 76.9085L21.7911 50.9116V55.9854L66.7143 81.9895V76.9085Z" fill="#E4372A"/>
<path d="M64.3583 76.7658L19.4351 50.7617L20.6167 52.453L65.5328 78.45L64.3583 76.7658Z" fill="#FF7C6E"/>
<path d="M99.6505 30.6093L54.7344 4.6123L19.4351 50.7617L64.3583 76.7658L99.6505 30.6093Z" fill="#FF604F"/>
<path d="M99.6505 30.6093L54.7344 4.6123L90.5035 9.97868L135.42 35.9828L99.6505 30.6093Z" fill="#F34336"/>
<path d="M66.7144 76.9086L132.594 38.7802V43.854L66.7144 81.9895V76.9086Z" fill="#C7C7C7"/>
<path d="M132.594 38.7802L99.6505 33.8348L66.7144 76.9086V81.9895L132.594 43.854V38.7802Z" fill="#E4372A"/>
<path d="M122.208 41.8059L99.6505 38.4233L77.0928 67.917V71.3923L122.208 45.2812V41.8059Z" fill="#F34336"/>
<path d="M119.745 41.4348V44.6675L77.0928 69.3514V71.3923L122.208 45.2812V41.8059L119.745 41.4348Z" fill="#FF7C6E"/>
<path d="M99.6504 30.6093L135.42 35.9828L134.508 39.0656L99.6504 33.8348L65.5327 78.45L64.3582 76.7658L99.6504 30.6093Z" fill="#FF7C6E"/>
<path d="M104.05 49.413L103.017 48.8135L103.01 45.8235L104.042 46.4301L104.05 49.413Z" fill="#B38E3A"/>
<path d="M104.042 46.4301L103.01 45.8235L104.455 44.9886L105.487 45.588L104.042 46.4301Z" fill="#C5A348"/>
<path d="M101.43 47.9358L100.398 47.3364L103.017 48.8135L104.05 49.413L101.43 47.9358Z" fill="#BD9A42"/>
<path d="M100.839 48.2783L99.8071 47.6789L100.398 47.3364L101.43 47.9358L100.839 48.2783Z" fill="#C5A348"/>
<path d="M100.861 54.601L99.8285 53.9944L99.8071 47.6789L100.839 48.2783L100.861 54.601Z" fill="#B38E3A"/>
<path d="M105.488 45.588L105.509 51.9106L104.911 52.2532L102.299 50.7689L102.306 53.7589L100.861 54.601L100.839 48.2783L101.43 47.9358L104.05 49.413L104.043 46.4301L105.488 45.588Z" fill="#F5D96A"/>
<path d="M98.4976 55.964L97.4655 55.3646L97.1238 54.7295L98.1559 55.3361L98.4976 55.964Z" fill="#B38E3A"/>
<path d="M96.4616 54.915L95.4294 54.3155L96.5541 53.659L97.5934 54.2656L96.4616 54.915Z" fill="#C5A348"/>
<path d="M97.5935 54.2656L96.5543 53.6591L95.9919 52.6029L97.0241 53.2023L97.5935 54.2656Z" fill="#B38E3A"/>
<path d="M96.6752 50.6904L95.6431 50.091L96.2979 49.7056L97.3301 50.3122L96.6752 50.6904Z" fill="#C5A348"/>
<path d="M94.1198 58.4973L93.0876 57.8979L95.6431 50.0909L96.6752 50.6904L94.1198 58.4973Z" fill="#B7923D"/>
<path d="M97.3302 50.3122L99.9497 55.1291L98.4976 55.9712L98.1559 55.3432L95.8994 56.6491L95.572 57.6696L94.1199 58.5116L96.6753 50.6975L97.3302 50.3193V50.3122ZM96.4618 54.915L97.5865 54.2656L97.017 53.2023L96.4547 54.915H96.4618Z" fill="#F5D96A"/>
<mask id="mask0_515_9334" style="mask-type:luminance" maskUnits="userSpaceOnUse" x="91" y="55" width="2" height="2">
<path d="M91.9273 55.4146L92.9595 56.014C92.9096 55.9855 92.8598 55.964 92.81 55.9426L91.7778 55.3432C91.8277 55.3646 91.8846 55.386 91.9273 55.4146Z" fill="white"/>
</mask>
<g mask="url(#mask0_515_9334)">
<path d="M92.81 55.95L91.7778 55.3505C91.8277 55.3719 91.8846 55.3933 91.9273 55.4219L92.9595 56.0213C92.9096 55.9928 92.8598 55.9714 92.81 55.95Z" fill="#D9B956"/>
</g>
<mask id="mask1_515_9334" style="mask-type:luminance" maskUnits="userSpaceOnUse" x="90" y="56" width="2" height="3">
<path d="M90.8238 56.9131L91.856 57.5126C91.9414 57.5625 91.9983 57.6624 91.9983 57.8123C91.9983 58.1192 91.7919 58.476 91.5214 58.633L90.4893 58.0335C90.7598 57.8765 90.9662 57.5197 90.9662 57.2129C90.9662 57.063 90.9092 56.9631 90.8238 56.9131Z" fill="white"/>
</mask>
<g mask="url(#mask1_515_9334)">
<path d="M91.5214 58.633L90.4893 58.0335C90.7598 57.8765 90.9662 57.5197 90.9662 57.2129C90.9662 57.063 90.9092 56.9631 90.8238 56.9131L91.856 57.5126C91.9414 57.5625 91.9983 57.6624 91.9983 57.8123C91.9983 58.1192 91.7919 58.476 91.5214 58.633Z" fill="#D9B956"/>
</g>
<path d="M90.5463 59.1967L89.5142 58.5973L90.4894 58.0335L91.5215 58.6329L90.5463 59.1967Z" fill="#C5A348"/>
<mask id="mask2_515_9334" style="mask-type:luminance" maskUnits="userSpaceOnUse" x="90" y="54" width="2" height="3">
<path d="M90.5463 54.5724L91.5784 55.1719C91.6638 55.2218 91.7137 55.3289 91.7137 55.4787C91.7137 55.7856 91.5072 56.1495 91.2367 56.3065L90.2046 55.7071C90.4751 55.5501 90.6815 55.1862 90.6815 54.8793C90.6815 54.7294 90.6317 54.6224 90.5463 54.5724Z" fill="white"/>
</mask>
<g mask="url(#mask2_515_9334)">
<path d="M91.2441 56.3139L90.2119 55.7144C90.4824 55.5574 90.6888 55.1935 90.6888 54.8866C90.6888 54.7368 90.639 54.6297 90.5536 54.5798L91.5857 55.1792C91.6712 55.2292 91.721 55.3362 91.721 55.4861C91.721 55.7929 91.5145 56.1569 91.2441 56.3139Z" fill="#D9B956"/>
</g>
<path d="M90.5392 56.7134L89.5071 56.1139L90.2047 55.7072L91.2439 56.3137L90.5392 56.7134Z" fill="#C5A348"/>
<mask id="mask3_515_9334" style="mask-type:luminance" maskUnits="userSpaceOnUse" x="90" y="52" width="3" height="2">
<path d="M91.6424 52.9739L92.6746 53.5734C92.3756 53.4021 91.9628 53.4164 91.5143 53.6733L90.4822 53.0739C90.9306 52.817 91.3435 52.7955 91.6424 52.9739Z" fill="white"/>
</mask>
<g mask="url(#mask3_515_9334)">
<path d="M91.5216 53.6733L90.4895 53.0739C90.938 52.817 91.3508 52.7955 91.6498 52.9739L92.6819 53.5734C92.3829 53.4021 91.9701 53.4164 91.5216 53.6733Z" fill="#D9B956"/>
</g>
<path d="M89.1013 61.4017L88.0692 60.8023L88.0549 54.4797L89.0871 55.0863L89.1013 61.4017Z" fill="#B38E3A"/>
<path d="M92.81 55.9498C93.1873 56.0782 93.4364 56.4636 93.4436 57.0345C93.4436 58.0335 92.7033 59.318 91.8277 59.8247L89.1014 61.4018L89.0801 55.0792L91.5145 53.6662C92.3972 53.1524 93.1517 53.5877 93.1588 54.601C93.1588 55.0292 93.0236 55.5073 92.81 55.9426V55.9498ZM91.5216 58.6401C91.7921 58.4831 91.9986 58.1263 91.9986 57.8194C91.9986 57.5126 91.7708 57.3984 91.5216 57.5483L90.5464 58.112V59.2039L91.5216 58.6401ZM90.5393 55.6215V56.7205L91.244 56.3137C91.5145 56.1567 91.7209 55.7928 91.7209 55.4859C91.7209 55.1791 91.5074 55.0578 91.244 55.2148L90.5464 55.6215H90.5393Z" fill="#F5D96A"/>
<path d="M89.0871 55.0863L88.0549 54.4797L90.4894 53.0739L91.5215 53.6733L89.0871 55.0863Z" fill="#C5A348"/>
<path d="M109.602 46.1018L108.57 45.5024L111.573 47.2008L112.606 47.8002L109.602 46.1018Z" fill="#BD9A42"/>
<path d="M108.235 46.1375L107.203 45.531L109.047 42.3268L110.079 42.9334L108.235 46.1375Z" fill="#BB9740"/>
<path d="M110.079 42.9334L109.047 42.3268L111.082 41.1565L112.115 41.7559L110.079 42.9334Z" fill="#C5A348"/>
<path d="M106.776 44.8459L105.744 44.2393L107.196 43.4044L108.228 44.0039L106.776 44.8459Z" fill="#C5A348"/>
<path d="M106.797 51.1614L105.765 50.562L105.744 44.2394L106.776 44.846L106.797 51.1614Z" fill="#B38E3A"/>
<path d="M112.115 41.7559L109.602 46.1018L112.606 47.8002L110.556 48.9848L108.584 47.8859L108.242 48.4853V50.3264L106.797 51.1614L106.776 44.8459L108.228 44.0038L108.235 46.1375L110.079 42.9334L112.115 41.7559Z" fill="#F5D96A"/>
<path d="M124.208 51.4753L124.415 84.8868C124.415 84.8868 125.226 84.7369 126.095 83.9876C126.095 83.3596 125.283 51.2042 125.283 51.2042C125.283 51.2042 124.714 51.5039 124.201 51.4753H124.208Z" fill="#FFF8F8"/>
<path d="M112.67 58.0549L112.876 91.4663C112.876 91.4663 113.688 91.3164 114.556 90.5671C114.556 89.9391 113.745 57.7837 113.745 57.7837C113.745 57.7837 113.175 58.0834 112.663 58.0549H112.67Z" fill="#FFF8F8"/>
<path d="M79.4561 77.9005L79.6625 111.312C79.6625 111.312 80.474 111.162 81.3424 110.413C81.3424 109.785 80.5309 77.6293 80.5309 77.6293C80.5309 77.6293 79.9615 77.929 79.449 77.9005H79.4561Z" fill="#FFF8F8"/>
<path d="M67.9173 84.48L68.1237 117.891C68.1237 117.891 68.9352 117.742 69.8036 116.992C69.8036 116.364 68.9921 84.2089 68.9921 84.2089C68.9921 84.2089 68.4227 84.5086 67.9102 84.48H67.9173Z" fill="#FFF8F8"/>
</g>
<defs>
<linearGradient id="paint0_linear_515_9334" x1="0.938232" y1="126.602" x2="72.3124" y2="126.602" gradientUnits="userSpaceOnUse">
<stop stop-color="#6EBD46"/>
<stop offset="1" stop-color="#84E453"/>
</linearGradient>
<clipPath id="clip0_515_9334">
<rect width="149.007" height="150" fill="white" transform="translate(0.496704 0.612305)"/>
</clipPath>
</defs>
</svg>
