<svg width="150" height="151" viewBox="0 0 150 151" fill="none" xmlns="http://www.w3.org/2000/svg">
<g clip-path="url(#clip0_515_9559)">
<path d="M72.1365 144.17L148.962 100.242L149.121 106.906L72.1365 150.762V144.17Z" fill="#84E453" stroke="black" stroke-width="1.53546" stroke-linejoin="round"/>
<path d="M72.1366 144.17L0.938232 102.177L1.09809 109.034L72.1366 150.786L72.1526 144.17H72.1366Z" fill="url(#paint0_linear_515_9559)" stroke="black" stroke-width="1.53546" stroke-linejoin="round"/>
<path d="M71.6251 61.7183L0.938232 102.177L72.1366 144.17L148.962 100.243L71.6251 61.7023V61.7183Z" fill="#99FF62" stroke="black" stroke-width="1.53546" stroke-linejoin="round"/>
<g clip-path="url(#clip1_515_9559)">
<g style="mix-blend-mode:multiply">
<path d="M81.5175 119.006C97.1594 115.172 108.005 104.575 105.742 95.3379C103.479 86.1006 88.9639 81.7207 73.3221 85.5551C57.6802 89.3896 46.8346 99.9863 49.0977 109.224C51.3608 118.461 65.8757 122.841 81.5175 119.006Z" fill="black" fill-opacity="0.1"/>
</g>
<path d="M86.0012 84.9876C86.0012 79.2557 82.641 74.6122 78.5012 74.6122C74.3615 74.6122 71.0012 79.2557 71.0012 84.9876C71.0012 90.7195 78.5012 111.612 78.5012 111.612C78.5012 111.612 86.0012 90.7195 86.0012 84.9876Z" fill="url(#paint1_linear_515_9559)"/>
<path d="M66.8936 72.3809C67.2526 75.2172 67.9853 77.9801 69.1869 80.5446C74.2059 83.234 81.936 83.2487 86.9623 80.5887C88.1786 78.0095 88.9113 75.2319 89.2777 72.3809H66.8936Z" fill="#EADCDB"/>
<path style="mix-blend-mode:multiply" d="M67.4357 75.4377C69.7437 76.7603 73.5831 77.6274 77.928 77.6274C82.5074 77.6274 86.5153 76.6648 88.772 75.2319C88.8673 74.7984 88.9552 74.3575 89.0358 73.924C82.5807 76.775 73.5757 76.7603 67.1133 73.8799C67.2085 74.4016 67.3111 74.9307 67.4283 75.445L67.4357 75.4377Z" fill="url(#paint2_radial_515_9559)"/>
<path d="M100.539 71.8518C100.319 69.1404 99.3156 67.7149 98.1139 67.0168L96.4287 66.0322C97.6303 66.7302 98.6341 68.1558 98.854 70.8672C98.8906 71.2934 99.0591 71.5873 99.3082 71.7343L100.993 72.7189C100.737 72.5719 100.568 72.2707 100.539 71.8518Z" fill="#E4372A"/>
<path d="M92.9558 57.3761C103.199 56.1711 103.016 71.2934 103.001 72.087L102.093 72.6087C101.279 73.079 100.605 72.7409 100.532 71.8445C99.9165 64.3201 93.3222 66.7376 92.9778 66.8625L92.9485 57.3688L92.9558 57.3761Z" fill="#F34336"/>
<path d="M96.0477 57.2659C96.0477 57.2659 96.0038 57.2365 95.9818 57.2292C95.9671 57.2218 95.9452 57.2145 95.9305 57.1998C95.8499 57.1557 95.7693 57.1116 95.6887 57.0675C95.6594 57.0528 95.6374 57.0381 95.6081 57.0234C95.5055 56.972 95.3956 56.9205 95.2857 56.8765C95.2857 56.8765 95.2784 56.8765 95.2711 56.8765C95.2564 56.8765 95.2418 56.8618 95.2271 56.8618C95.1392 56.825 95.0513 56.7956 94.9633 56.7589C94.9267 56.7442 94.8974 56.7368 94.8608 56.7221C94.7802 56.6928 94.6922 56.6634 94.6116 56.6413C94.5897 56.6413 94.575 56.6266 94.553 56.6193C94.5457 56.6193 94.5384 56.6193 94.531 56.6193C94.4211 56.5899 94.3039 56.5605 94.1867 56.5311C94.1647 56.5311 94.1427 56.5238 94.1207 56.5164C94.0255 56.4944 93.9302 56.4723 93.835 56.4576C93.8203 56.4576 93.7983 56.4503 93.7837 56.4503C93.7617 56.4503 93.747 56.4503 93.7251 56.4429C93.6298 56.4282 93.5346 56.4135 93.4393 56.3988C93.41 56.3988 93.3807 56.3915 93.3441 56.3841C93.2195 56.3694 93.0949 56.3547 92.9631 56.3474C92.9631 56.3474 92.9484 56.3474 92.9411 56.3474C92.9264 56.3474 92.9044 56.3474 92.8825 56.3474C92.7652 56.3474 92.648 56.3401 92.5308 56.3327C92.4941 56.3327 92.4575 56.3327 92.4135 56.3327C92.267 56.3327 92.1278 56.3327 91.9812 56.34C91.908 56.34 91.8347 56.3474 91.7614 56.3547C91.7175 56.3547 91.6735 56.3547 91.6295 56.3621C91.5123 56.3694 91.3951 56.3841 91.2705 56.3988L92.9557 57.3835C93.0803 57.3688 93.1975 57.3541 93.3148 57.3467C93.3587 57.3467 93.4027 57.3467 93.4466 57.3394C93.5199 57.3394 93.5932 57.332 93.6665 57.3247C93.813 57.3247 93.9595 57.3173 94.0987 57.3173C94.1354 57.3173 94.172 57.3173 94.216 57.3173C94.3332 57.3173 94.4504 57.3173 94.5677 57.332C94.5897 57.332 94.619 57.332 94.6409 57.332C94.7728 57.3394 94.8974 57.3541 95.022 57.3688C95.0513 57.3688 95.0806 57.3761 95.1172 57.3835C95.2125 57.3982 95.3077 57.4129 95.403 57.4276C95.4396 57.4276 95.4762 57.4423 95.5129 57.4496C95.6081 57.4643 95.7034 57.4863 95.7986 57.5084C95.8206 57.5084 95.8426 57.5157 95.8646 57.5231C95.9818 57.5525 96.0917 57.5819 96.2089 57.6113C96.2382 57.6186 96.2675 57.626 96.2969 57.6407C96.3848 57.6701 96.4654 57.6921 96.546 57.7215C96.5826 57.7362 96.6119 57.7435 96.6486 57.7582C96.7365 57.7876 96.8244 57.8244 96.9123 57.8611C96.9343 57.8685 96.949 57.8758 96.9709 57.8831C97.0809 57.9272 97.1834 57.9787 97.2933 58.0301C97.3226 58.0448 97.3446 58.0595 97.3739 58.0742C97.4545 58.1183 97.5351 58.1624 97.6157 58.2065C97.6524 58.2285 97.6963 58.2505 97.733 58.2726L96.0477 57.2879V57.2659Z" fill="url(#paint3_linear_515_9559)"/>
<path d="M92.985 66.8772L91.2998 65.8925L91.2705 56.3988L92.9557 57.3761L92.985 66.8772Z" fill="url(#paint4_linear_515_9559)"/>
<path d="M53.4704 71.8518C53.6902 69.1403 54.694 67.7148 55.8956 67.0167L57.5809 66.0321C56.3792 66.7302 55.3754 68.1557 55.1556 70.8671C55.119 71.2933 54.9505 71.5872 54.7013 71.7342L53.0161 72.7188C53.2726 72.5719 53.4338 72.2706 53.4704 71.8518Z" fill="#E4372A"/>
<path d="M61.0465 57.3761C50.8033 56.171 50.9938 71.2933 51.0011 72.0943L51.9097 72.616C52.723 73.0862 53.3971 72.7482 53.4704 71.8518C54.0858 64.3273 60.6802 66.7449 61.0245 66.8698L61.0538 57.3761H61.0465Z" fill="#F34336"/>
<path d="M61.0247 66.8772L62.7099 65.8925L62.7319 56.3988L61.0466 57.3761L61.0247 66.8772Z" fill="url(#paint5_linear_515_9559)"/>
<path d="M96.9784 56.5237C96.4948 62.0495 95.2199 67.465 92.8753 72.4323C84.5005 76.8632 71.6195 76.8338 63.2521 72.3588C60.9221 67.3989 59.6545 61.9834 59.1782 56.465C58.2111 45.34 60.4531 33.7888 63.699 24.6625C64.6442 22.0025 65.67 19.5556 66.7324 17.3806C71.0773 8.44533 75.9278 2.13334 77.5325 0.810685C77.8475 0.553502 78.3091 0.553502 78.6242 0.810685C80.2288 2.13334 85.0866 8.44533 89.4316 17.3732C90.5013 19.563 91.5344 22.0319 92.4796 24.7066C95.7182 33.8476 97.9529 45.3988 96.9784 56.5237Z" fill="#F7EAEA"/>
<path d="M91.0141 20.8856C90.5012 19.6511 89.9737 18.4754 89.4315 17.3732C85.0865 8.44533 80.2287 2.13334 78.6241 0.810685C78.309 0.553502 77.8474 0.553502 77.5323 0.810685C75.9277 2.13334 71.0772 8.44533 66.7323 17.3732C66.2047 18.4607 65.6772 19.6217 65.1716 20.8415C72.7918 24.229 83.4086 24.2437 91.0141 20.8856Z" fill="url(#paint6_linear_515_9559)"/>
<path d="M78.331 0.649032C76.9462 4.12467 73.9787 12.1929 71.6707 22.8108C69.37 22.3846 67.1646 21.7306 65.1643 20.8415C65.3328 20.4374 65.5014 20.0479 65.6699 19.6585C65.8897 19.1588 66.1095 18.6738 66.3293 18.1962C66.4685 17.917 66.6004 17.6451 66.725 17.3659C71.0772 8.44533 75.9277 2.12599 77.5397 0.81069C77.7229 0.649032 77.972 0.597596 78.2064 0.626988C78.2504 0.626988 78.287 0.641684 78.331 0.656381V0.649032Z" fill="url(#paint7_linear_515_9559)"/>
<g style="mix-blend-mode:multiply" opacity="0.53">
<path d="M68.5347 52.2178C65.1716 51.5932 61.955 50.6012 59.0608 49.2565C59.0388 48.9626 59.0242 48.6613 59.0168 48.36C59.0168 48.36 59.0168 48.3453 59.0168 48.338C59.0315 47.8824 59.0535 47.4268 59.0828 46.9713C61.8671 48.3747 65.069 49.4329 68.52 50.1089C68.52 50.8143 68.52 51.5124 68.52 52.2178H68.5347Z" fill="#4356FF"/>
</g>
<g style="mix-blend-mode:multiply" opacity="0.53">
<path d="M68.7325 57.3026C65.2888 56.678 62.0063 55.6787 59.0608 54.3046C59.0095 53.5551 58.9876 52.7909 58.9656 52.0341V51.9606C61.8085 53.4081 65.0837 54.503 68.6153 55.1864C68.6519 55.8918 68.6812 56.5972 68.7325 57.3026Z" fill="#4356FF"/>
</g>
<path d="M55.6685 92.6542C55.6538 91.7063 55.3241 73.7402 67.6775 60.8738L65.5307 60.9546C65.5307 60.9546 54.2544 71.2933 54.313 91.8606L55.6685 92.6542Z" fill="#FF604F"/>
<path d="M67.6776 60.8738C55.3242 73.7402 55.6539 91.7063 55.6686 92.6542L56.7603 92.0222C57.7421 91.4491 58.5554 90.1044 58.636 88.9214C59.3248 78.9868 68.2784 71.9767 68.696 71.646L67.6776 60.8738Z" fill="#F34336"/>
<path d="M99.1252 92.6542C99.1399 91.7063 99.4696 73.7402 87.1162 60.8738L89.263 60.9546C89.263 60.9546 100.539 71.2933 100.481 91.8606L99.1252 92.6542Z" fill="#FF604F"/>
<path d="M87.1161 60.8738C99.4768 73.7402 99.1398 91.7063 99.1251 92.6542L98.0334 92.0222C97.0516 91.4491 96.2383 90.1044 96.1577 88.9214C95.4689 78.9868 86.5153 71.9767 86.0977 71.646L87.1161 60.8738Z" fill="#F34336"/>
<path d="M70.2125 30.7467C73.8174 32.8335 76.7336 37.8964 76.7189 42.0554C76.7043 46.207 73.7735 47.8824 70.1686 45.7955C66.5637 43.7087 63.6475 38.6459 63.6622 34.4942C63.6768 30.3352 66.6076 28.6598 70.2125 30.7467Z" fill="#FF604F"/>
<path d="M70.2051 32.4735C72.9894 34.0827 75.2314 37.9846 75.2241 41.1957C75.2168 44.3994 72.9527 45.6927 70.1685 44.0835C67.3842 42.4742 65.1421 38.5724 65.1494 35.3613C65.1568 32.1575 67.4208 30.8643 70.2051 32.4735Z" fill="url(#paint8_linear_515_9559)"/>
<path d="M78.155 40.9238C78.155 40.8209 78.1477 40.7107 78.1403 40.6078C78.1403 40.5564 78.133 40.5123 78.1257 40.4609C78.1257 40.4388 78.1257 40.4168 78.1257 40.4021C78.1257 40.3653 78.1257 40.3286 78.1184 40.2919C78.111 40.1816 78.0964 40.0788 78.0817 39.9685C78.0671 39.8583 78.0524 39.7481 78.0378 39.6379C78.0378 39.6379 78.0378 39.6379 78.0378 39.6305C78.0378 39.6305 78.0378 39.6232 78.0378 39.6158C78.0231 39.513 78.0011 39.4101 77.9865 39.3072C77.9645 39.197 77.9425 39.0794 77.9205 38.9692C77.9132 38.9251 77.8985 38.8884 77.8912 38.8443C77.8912 38.8222 77.8766 38.8002 77.8766 38.7708C77.8619 38.7194 77.8546 38.6679 77.8399 38.6165C77.8106 38.4989 77.7813 38.3814 77.752 38.2711C77.73 38.183 77.7007 38.1021 77.6787 38.014C77.6787 37.9993 77.6714 37.9846 77.6641 37.9699C77.6641 37.9552 77.6568 37.9405 77.6494 37.9258C77.6128 37.8156 77.5762 37.698 77.5395 37.5878C77.5029 37.4775 77.4662 37.3673 77.4223 37.2571C77.415 37.2351 77.4076 37.213 77.4003 37.1983C77.4003 37.1836 77.3857 37.1616 77.3783 37.1469C77.349 37.0807 77.327 37.0073 77.2977 36.9411C77.2538 36.8383 77.2171 36.728 77.1732 36.6252C77.1439 36.5517 77.1072 36.4709 77.0779 36.3974C77.0779 36.3827 77.0633 36.368 77.0633 36.3606C77.0633 36.3459 77.0486 36.3312 77.0413 36.3165C76.9973 36.2137 76.946 36.1035 76.8947 36.0006C76.8434 35.883 76.7848 35.7728 76.7262 35.6552C76.7189 35.6405 76.7116 35.6185 76.6969 35.6038C76.6823 35.5817 76.6749 35.5597 76.6603 35.5377C76.6163 35.4495 76.565 35.354 76.5211 35.2658C76.4624 35.1556 76.3965 35.038 76.3306 34.9278C76.3012 34.869 76.2646 34.8175 76.2353 34.7588C76.2207 34.7367 76.2133 34.7147 76.1987 34.6926C76.1401 34.5971 76.0814 34.5016 76.0155 34.4061C75.9276 34.2664 75.847 34.1268 75.7517 33.9872C75.7371 33.9652 75.7224 33.9431 75.7078 33.9211C75.5759 33.7227 75.4367 33.5243 75.2974 33.3332C75.2022 33.201 75.1069 33.076 75.0044 32.9511C74.9238 32.8483 74.8432 32.7454 74.7626 32.6499C74.682 32.547 74.594 32.4515 74.5135 32.3559C74.4329 32.2604 74.3449 32.1649 74.257 32.0767C74.2424 32.062 74.2277 32.0473 74.213 32.0326C74.1984 32.0179 74.1837 32.0032 74.1691 31.9885C74.1105 31.9224 74.0518 31.8636 73.9932 31.7975C73.9053 31.702 73.8101 31.6138 73.7148 31.5256C73.6855 31.4962 73.6562 31.4742 73.6269 31.4448C73.6049 31.4227 73.5829 31.408 73.5609 31.386C73.517 31.3419 73.473 31.2978 73.429 31.2611C73.3338 31.1729 73.2385 31.0921 73.136 31.0039C73.092 30.9672 73.048 30.9304 73.0041 30.901C72.9821 30.8863 72.9601 30.8643 72.9381 30.8496C72.9088 30.8202 72.8722 30.7981 72.8429 30.7688C72.7476 30.6953 72.6524 30.6218 72.5571 30.5483C72.4912 30.4969 72.4179 30.4454 72.3446 30.4014C72.33 30.394 72.3227 30.3793 72.308 30.372C72.2934 30.3646 72.286 30.3573 72.2714 30.3499C72.1761 30.2838 72.0882 30.225 71.9929 30.1662C71.8977 30.1074 71.8098 30.0486 71.7145 29.9972C71.6925 29.9825 71.6706 29.9752 71.6486 29.9605C71.5826 29.9237 71.5094 29.8796 71.4434 29.8429C71.3555 29.7915 71.2676 29.7474 71.1723 29.7033C71.1137 29.6739 71.0551 29.6518 71.0038 29.6225C70.9891 29.6225 70.9745 29.6078 70.9598 29.6004C70.9452 29.5931 70.9232 29.5857 70.9085 29.5784C70.8206 29.5416 70.7327 29.5049 70.6448 29.4681C70.5568 29.4314 70.4689 29.402 70.381 29.3653C70.3663 29.3653 70.3517 29.3579 70.337 29.3506C70.3224 29.3506 70.3077 29.3432 70.3004 29.3359C70.2418 29.3138 70.1832 29.2991 70.1246 29.2771C70.0366 29.2477 69.9414 29.2257 69.8535 29.2036C69.8095 29.1963 69.7655 29.1816 69.7289 29.1742C69.7069 29.1742 69.6923 29.1669 69.6703 29.1595C69.641 29.1595 69.6117 29.1448 69.5897 29.1375C69.4944 29.1154 69.3992 29.1007 69.3039 29.0934C69.2453 29.086 69.1867 29.0787 69.1354 29.0787C69.1134 29.0787 69.0914 29.0787 69.0768 29.0787C69.0548 29.0787 69.0402 29.0787 69.0182 29.0787C68.9156 29.0787 68.813 29.0714 68.7104 29.0714C68.6665 29.0714 68.6225 29.0714 68.5785 29.0714C68.5419 29.0714 68.5126 29.0714 68.476 29.0714C68.4393 29.0714 68.4027 29.0714 68.3734 29.0714C68.2415 29.086 68.1169 29.1007 67.9997 29.1228C67.9704 29.1228 67.9484 29.1375 67.9191 29.1448C67.7946 29.1742 67.67 29.2036 67.5454 29.2477C67.5308 29.2477 67.5161 29.2624 67.5015 29.2624C67.4795 29.2697 67.4648 29.2771 67.4429 29.2844C67.2963 29.3432 67.1498 29.4094 67.0179 29.4902L65.5745 30.3279C65.7137 30.247 65.8529 30.1809 66.0068 30.1221C66.0287 30.1148 66.0434 30.1074 66.0654 30.1001C66.1973 30.0486 66.3365 30.0119 66.4757 29.9825C66.505 29.9825 66.527 29.9678 66.5563 29.9605C66.7175 29.9311 66.8787 29.909 67.0472 29.9017C67.0838 29.9017 67.1131 29.9017 67.1498 29.9017C67.311 29.9017 67.4795 29.9017 67.648 29.909C67.67 29.909 67.692 29.909 67.7066 29.909C67.8825 29.9237 68.0657 29.9531 68.2488 29.9899C68.2708 29.9899 68.2855 29.9972 68.3074 30.0046C68.498 30.0486 68.6885 30.1001 68.8863 30.1662C68.9009 30.1662 68.9156 30.1736 68.9229 30.1809C69.1281 30.2544 69.3332 30.3352 69.5457 30.4307C69.5604 30.4307 69.575 30.4454 69.5897 30.4528C69.8022 30.5483 70.022 30.6659 70.2345 30.7908C70.4543 30.9157 70.6741 31.0553 70.8866 31.2096C70.9012 31.217 70.9085 31.2243 70.9232 31.239C71.121 31.3786 71.3189 31.5256 71.5167 31.6873C71.5387 31.702 71.5607 31.724 71.5826 31.7387C71.7731 31.893 71.9563 32.0547 72.1395 32.2237C72.1615 32.2457 72.1835 32.2604 72.2054 32.2825C72.3886 32.4588 72.5718 32.6352 72.7476 32.8262C72.7623 32.8409 72.7769 32.8556 72.7916 32.8703C72.9821 33.076 73.1653 33.2818 73.3411 33.4949C73.5243 33.7153 73.7001 33.9431 73.876 34.1783C74.0299 34.3914 74.1837 34.6118 74.3303 34.8322C74.4182 34.9719 74.5061 35.1115 74.594 35.2511C74.6673 35.3686 74.7406 35.4862 74.8139 35.6038C74.8432 35.6626 74.8798 35.714 74.9091 35.7728C75.0263 35.9712 75.1363 36.1769 75.2388 36.3827C75.2535 36.4047 75.2608 36.4268 75.2755 36.4488C75.4 36.6986 75.5173 36.9485 75.6345 37.2057C75.6345 37.2204 75.6491 37.2351 75.6491 37.2424C75.759 37.4922 75.8616 37.7421 75.9496 37.9993C75.9496 38.014 75.9642 38.036 75.9715 38.0507C76.0668 38.3079 76.1547 38.5724 76.2353 38.8296C76.2353 38.8443 76.2426 38.859 76.25 38.8737C76.3232 39.1235 76.3892 39.3733 76.4478 39.6232C76.4478 39.6452 76.4624 39.6673 76.4624 39.6967C76.5211 39.9538 76.5723 40.211 76.6163 40.4682C76.6163 40.4682 76.6163 40.4756 76.6163 40.4829C76.6603 40.7401 76.6896 40.9973 76.7116 41.2545C76.7116 41.2765 76.7116 41.2985 76.7116 41.3132C76.7335 41.5704 76.7409 41.8203 76.7409 42.0701C76.7409 42.3199 76.7262 42.5551 76.7042 42.7902C76.7042 42.8122 76.7042 42.8343 76.7042 42.849C76.6823 43.0621 76.6529 43.2605 76.6163 43.4589C76.6163 43.4883 76.609 43.5103 76.6017 43.5397C76.565 43.7307 76.5137 43.9071 76.4624 44.0835C76.4551 44.1129 76.4405 44.1496 76.4331 44.179C76.3818 44.3406 76.3159 44.495 76.25 44.6493C76.2426 44.664 76.2353 44.686 76.228 44.7007C76.1474 44.8697 76.0595 45.0314 75.9642 45.1783C75.9496 45.2004 75.9349 45.2151 75.9202 45.2371C75.8396 45.3547 75.759 45.4649 75.6638 45.5751C75.6345 45.6119 75.5979 45.6486 75.5612 45.6853C75.4806 45.7662 75.4 45.847 75.3194 45.9205C75.2828 45.9499 75.2535 45.9866 75.2168 46.0087C75.0996 46.1042 74.9751 46.1924 74.8432 46.2732L76.2866 45.4355C76.4185 45.362 76.543 45.2665 76.6603 45.171C76.6969 45.1416 76.7335 45.1122 76.7629 45.0754C76.8508 45.002 76.9314 44.9211 77.0046 44.8403C77.0413 44.8036 77.0706 44.7668 77.1072 44.7301C77.1951 44.6272 77.2831 44.517 77.3637 44.3921C77.3783 44.37 77.393 44.3553 77.4076 44.3333C77.4076 44.3333 77.4076 44.3259 77.415 44.3186C77.5029 44.179 77.5835 44.032 77.6641 43.8704C77.6641 43.8704 77.6641 43.863 77.6641 43.8557C77.6714 43.841 77.6787 43.8189 77.6861 43.8042C77.73 43.7014 77.774 43.6058 77.8179 43.4956C77.8399 43.4442 77.8546 43.3854 77.8692 43.334C77.8766 43.3046 77.8912 43.2678 77.8985 43.2384C77.9059 43.209 77.9205 43.1796 77.9279 43.1503C77.9572 43.04 77.9865 42.9298 78.0158 42.8196C78.0231 42.7828 78.0304 42.7388 78.0378 42.6947C78.0378 42.6726 78.0451 42.6432 78.0524 42.6138C78.0597 42.5771 78.0671 42.533 78.0744 42.4963C78.089 42.3934 78.111 42.2905 78.1184 42.1803C78.1184 42.1215 78.133 42.0627 78.1403 42.004C78.1403 41.9819 78.1403 41.9599 78.1403 41.9452C78.1403 41.9231 78.1403 41.8937 78.1477 41.8717C78.155 41.7688 78.1623 41.6659 78.1696 41.5631C78.1696 41.4602 78.1696 41.3573 78.177 41.2471C78.177 41.2471 78.177 41.2324 78.177 41.2251C78.177 41.1295 78.177 41.0267 78.177 40.9311L78.155 40.9238Z" fill="#F34336"/>
<path d="M91.0141 20.8856C90.5012 19.6511 89.9737 18.4754 89.4315 17.3732C85.0865 8.44533 80.2287 2.13334 78.6241 0.810685C78.309 0.553502 77.8474 0.553502 77.5323 0.810685C75.9277 2.13334 71.0772 8.44533 66.7323 17.3732C66.2047 18.4607 65.6772 19.6217 65.1716 20.8415C72.7918 24.229 83.4086 24.2437 91.0141 20.8856Z" fill="#FF604F"/>
<path d="M97.1248 53.9666C97.1614 53.1804 97.1834 52.3868 97.1981 51.6005C91.9446 54.4663 85.0865 56.0461 77.7594 56.0461C70.4324 56.0461 64.1458 54.5985 58.9656 51.9606C58.9802 52.7468 59.0169 53.5257 59.0608 54.3046C70.2126 59.485 86.2295 59.3748 97.1321 53.9666H97.1248Z" fill="url(#paint9_linear_515_9559)"/>
<path d="M97.1248 48.9111C97.1614 48.1249 97.1834 47.3313 97.1981 46.545C91.9446 49.4108 85.0865 50.9906 77.7594 50.9906C70.4324 50.9906 64.1458 49.5431 58.9656 46.9051C58.9802 47.6913 59.0169 48.4702 59.0608 49.2491C70.2126 54.4295 86.2295 54.3193 97.1321 48.9111H97.1248Z" fill="url(#paint10_linear_515_9559)"/>
<g style="mix-blend-mode:multiply" opacity="0.53">
<g style="mix-blend-mode:multiply" opacity="0.4">
<path d="M68.7325 57.3026C65.2888 56.678 62.0063 55.6787 59.0608 54.3046C59.0095 53.5551 58.9876 52.7909 58.9656 52.0341V51.9606C61.8085 53.4081 65.0837 54.503 68.6153 55.1864C68.6519 55.8918 68.6812 56.5972 68.7325 57.3026Z" fill="#4356FF"/>
</g>
<g style="mix-blend-mode:multiply" opacity="0.4">
<path d="M68.5347 52.2178C65.1716 51.5932 61.955 50.6012 59.0608 49.2565C59.0388 48.9626 59.0242 48.6613 59.0169 48.36C59.0169 48.36 59.0169 48.3453 59.0169 48.338C58.9876 47.8604 58.9729 47.3828 58.9583 46.9125C59.0022 46.9345 59.0388 46.9566 59.0828 46.9713C61.8671 48.3747 65.069 49.4329 68.52 50.1089C68.52 50.8143 68.52 51.5124 68.52 52.2178H68.5347Z" fill="#4356FF"/>
</g>
</g>
</g>
</g>
<defs>
<linearGradient id="paint0_linear_515_9559" x1="0.938232" y1="126.602" x2="72.3124" y2="126.602" gradientUnits="userSpaceOnUse">
<stop stop-color="#6EBD46"/>
<stop offset="1" stop-color="#84E453"/>
</linearGradient>
<linearGradient id="paint1_linear_515_9559" x1="78.5012" y1="107.442" x2="78.5012" y2="78.8949" gradientUnits="userSpaceOnUse">
<stop stop-color="#FFFB03"/>
<stop offset="1" stop-color="#FF7006"/>
</linearGradient>
<radialGradient id="paint2_radial_515_9559" cx="0" cy="0" r="1" gradientUnits="userSpaceOnUse" gradientTransform="translate(77.95 74.4967) scale(9.78892 2.55242)">
<stop offset="0.01" stop-color="#AFA477"/>
<stop offset="0.15" stop-color="#B2A77C"/>
<stop offset="0.33" stop-color="#BCB38D"/>
<stop offset="0.54" stop-color="#CCC5A8"/>
<stop offset="0.77" stop-color="#E2DECF"/>
<stop offset="1" stop-color="white"/>
</radialGradient>
<linearGradient id="paint3_linear_515_9559" x1="91.2705" y1="57.288" x2="97.733" y2="57.288" gradientUnits="userSpaceOnUse">
<stop offset="0.07" stop-color="#BFB89D"/>
<stop offset="1" stop-color="#EFEBDA"/>
</linearGradient>
<linearGradient id="paint4_linear_515_9559" x1="91.2705" y1="61.638" x2="92.985" y2="61.638" gradientUnits="userSpaceOnUse">
<stop offset="0.04" stop-color="#FFFDF5"/>
<stop offset="1" stop-color="#EFEBDA"/>
</linearGradient>
<linearGradient id="paint5_linear_515_9559" x1="62.7392" y1="61.638" x2="61.0247" y2="61.638" gradientUnits="userSpaceOnUse">
<stop offset="0.04" stop-color="#FFFDF5"/>
<stop offset="1" stop-color="#EFEBDA"/>
</linearGradient>
<linearGradient id="paint6_linear_515_9559" x1="64.5195" y1="12.0018" x2="91.1167" y2="12.0018" gradientUnits="userSpaceOnUse">
<stop stop-color="#0031BA"/>
<stop offset="1" stop-color="#0089F9"/>
</linearGradient>
<linearGradient id="paint7_linear_515_9559" x1="80.4265" y1="18.7988" x2="68.305" y2="7.62025" gradientUnits="userSpaceOnUse">
<stop stop-color="#0031BA"/>
<stop offset="1" stop-color="#0089F9"/>
</linearGradient>
<linearGradient id="paint8_linear_515_9559" x1="65.5085" y1="43.3927" x2="73.8947" y2="34.2683" gradientUnits="userSpaceOnUse">
<stop stop-color="#384BF7"/>
<stop offset="1" stop-color="#4356FF"/>
</linearGradient>
<linearGradient id="paint9_linear_515_9559" x1="58.9656" y1="54.8557" x2="97.1981" y2="54.8557" gradientUnits="userSpaceOnUse">
<stop stop-color="#3245E8"/>
<stop offset="0.98" stop-color="#4356FF"/>
</linearGradient>
<linearGradient id="paint10_linear_515_9559" x1="58.9656" y1="49.8002" x2="97.1981" y2="49.8002" gradientUnits="userSpaceOnUse">
<stop stop-color="#3245E8"/>
<stop offset="0.98" stop-color="#4356FF"/>
</linearGradient>
<clipPath id="clip0_515_9559">
<rect width="149.007" height="150" fill="white" transform="translate(0.496582 0.612305)"/>
</clipPath>
<clipPath id="clip1_515_9559">
<rect width="148" height="143" fill="white" transform="translate(3.49658 0.612305)"/>
</clipPath>
</defs>
</svg>
