<svg width="163" height="159" viewBox="0 0 163 159" fill="none" xmlns="http://www.w3.org/2000/svg">
<g id="NodeIn">
<g id="Vector">
<mask id="path-1-outside-1_331_1989" maskUnits="userSpaceOnUse" x="-0.518555" y="36.3506" width="164" height="123" fill="black">
<rect fill="white" x="-0.518555" y="36.3506" width="164" height="123"/>
<path d="M81.4923 157.732C79.8771 157.732 78.2698 157.336 76.8288 156.591L3.44912 118.701L2.90895 118.396C1.48849 117.381 1.48846 116.695 1.48846 115.147C1.48846 114.997 1.47291 114.895 1.48811 114.816C1.48836 114.815 1.48849 114.813 1.48849 114.812L1.48698 37.7203C1.48698 37.7092 1.49588 37.7003 1.5069 37.7003L80.7469 37.3507C80.7567 37.3506 80.765 37.3577 80.7667 37.3673L81.4726 41.572C81.4763 41.5943 81.5083 41.5943 81.512 41.572L82.2179 37.3673C82.2195 37.3576 82.2279 37.3506 82.2376 37.3506H161.473C161.484 37.3506 161.493 37.3595 161.493 37.3705L161.729 115.251V115.552C161.666 116.929 160.891 118.179 159.697 118.82C159.695 118.821 159.694 118.823 159.692 118.824L159.673 118.843C159.672 118.845 159.67 118.846 159.668 118.847L86.1637 156.591C84.7306 157.336 83.1154 157.732 81.4923 157.732Z"/>
</mask>
<path d="M81.4923 157.732C79.8771 157.732 78.2698 157.336 76.8288 156.591L3.44912 118.701L2.90895 118.396C1.48849 117.381 1.48846 116.695 1.48846 115.147C1.48846 114.997 1.47291 114.895 1.48811 114.816C1.48836 114.815 1.48849 114.813 1.48849 114.812L1.48698 37.7203C1.48698 37.7092 1.49588 37.7003 1.5069 37.7003L80.7469 37.3507C80.7567 37.3506 80.765 37.3577 80.7667 37.3673L81.4726 41.572C81.4763 41.5943 81.5083 41.5943 81.512 41.572L82.2179 37.3673C82.2195 37.3576 82.2279 37.3506 82.2376 37.3506H161.473C161.484 37.3506 161.493 37.3595 161.493 37.3705L161.729 115.251V115.552C161.666 116.929 160.891 118.179 159.697 118.82C159.695 118.821 159.694 118.823 159.692 118.824L159.673 118.843C159.672 118.845 159.67 118.846 159.668 118.847L86.1637 156.591C84.7306 157.336 83.1154 157.732 81.4923 157.732Z" fill="#2CB8DB"/>
<path d="M76.8288 156.591L77.2876 155.703L77.2876 155.703L76.8288 156.591ZM3.44912 118.701L2.95748 119.572L2.97373 119.581L2.99031 119.59L3.44912 118.701ZM2.90895 118.396L2.32759 119.21L2.37093 119.241L2.41731 119.267L2.90895 118.396ZM161.729 115.251H162.729L162.729 115.248L161.729 115.251ZM161.729 115.552L162.728 115.598L162.729 115.575V115.552H161.729ZM86.1637 156.591L85.7069 155.702L85.7029 155.704L86.1637 156.591ZM159.673 118.843L160.38 119.551L159.673 118.843ZM159.668 118.847L160.125 119.737L159.668 118.847ZM159.697 118.82L159.224 117.94L159.697 118.82ZM159.692 118.824L160.4 119.531L159.692 118.824ZM161.493 37.3705L160.493 37.3736L161.493 37.3705ZM82.2179 37.3673L83.2041 37.5328L82.2179 37.3673ZM81.4726 41.572L82.4588 41.4064L81.4726 41.572ZM81.512 41.572L80.5258 41.4064L81.512 41.572ZM80.7469 37.3507L80.7424 36.3507L80.7469 37.3507ZM80.7667 37.3673L79.7805 37.5329L80.7667 37.3673ZM1.48811 114.816L0.506159 114.627L1.48811 114.816ZM81.4923 156.732C80.0393 156.732 78.5891 156.375 77.2876 155.703L76.3699 157.48C77.9505 158.296 79.7149 158.732 81.4923 158.732V156.732ZM77.2876 155.703L3.90792 117.813L2.99031 119.59L76.3699 157.48L77.2876 155.703ZM3.94075 117.831L3.40059 117.526L2.41731 119.267L2.95748 119.572L3.94075 117.831ZM3.49031 117.583C2.86496 117.136 2.68812 116.858 2.60665 116.632C2.50089 116.339 2.48846 115.976 2.48846 115.147H0.488463C0.488463 115.865 0.476045 116.62 0.725414 117.311C0.999078 118.069 1.53248 118.642 2.32759 119.21L3.49031 117.583ZM2.48846 115.147C2.48846 115.092 2.48703 115.044 2.48554 115.005C2.4848 114.986 2.484 114.968 2.48338 114.953C2.48271 114.938 2.48226 114.928 2.48191 114.918C2.48117 114.898 2.48162 114.899 2.48132 114.909C2.48099 114.92 2.47953 114.956 2.47006 115.005L0.506159 114.627C0.474724 114.79 0.481304 114.938 0.48326 114.992C0.486309 115.075 0.488463 115.096 0.488463 115.147H2.48846ZM2.48849 114.812L2.48698 37.7202L0.486984 37.7203L0.48849 114.812L2.48849 114.812ZM1.51131 38.7002L80.7513 38.3507L80.7424 36.3507L1.50248 36.7003L1.51131 38.7002ZM79.7805 37.5329L80.4864 41.7376L82.4588 41.4064L81.7529 37.2018L79.7805 37.5329ZM82.4982 41.7376L83.2041 37.5328L81.2317 37.2017L80.5258 41.4064L82.4982 41.7376ZM82.2376 38.3506H161.473V36.3506H82.2376V38.3506ZM160.493 37.3736L160.729 115.254L162.729 115.248L162.493 37.3675L160.493 37.3736ZM160.729 115.251V115.552H162.729V115.251H160.729ZM160.73 115.506C160.683 116.54 160.1 117.469 159.224 117.94L160.171 119.701C161.682 118.889 162.649 117.317 162.728 115.598L160.73 115.506ZM158.985 118.117L158.966 118.136L160.38 119.551L160.4 119.531L158.985 118.117ZM159.211 117.957L85.7069 155.702L86.6205 157.481L160.125 119.737L159.211 117.957ZM85.7029 155.704C84.4119 156.374 82.9548 156.732 81.4923 156.732V158.732C83.276 158.732 85.0493 158.297 86.6246 157.479L85.7029 155.704ZM158.966 118.136C159.038 118.064 159.121 118.004 159.211 117.957L160.125 119.737C160.219 119.688 160.305 119.625 160.38 119.551L158.966 118.136ZM159.224 117.94C159.137 117.986 159.056 118.046 158.985 118.117L160.4 119.531C160.331 119.599 160.254 119.656 160.171 119.701L159.224 117.94ZM161.473 38.3506C160.933 38.3506 160.495 37.9133 160.493 37.3736L162.493 37.3675C162.491 36.8057 162.035 36.3506 161.473 36.3506V38.3506ZM83.2041 37.5328C83.1249 38.0049 82.7162 38.3506 82.2376 38.3506V36.3506C81.7395 36.3506 81.3142 36.7104 81.2317 37.2017L83.2041 37.5328ZM80.4864 41.7376C80.6769 42.8724 82.3077 42.8724 82.4982 41.7376L80.5258 41.4064C80.7089 40.3161 82.2757 40.3161 82.4588 41.4064L80.4864 41.7376ZM80.7513 38.3507C80.271 38.3528 79.86 38.0065 79.7805 37.5329L81.7529 37.2018C81.6701 36.7089 81.2424 36.3485 80.7424 36.3507L80.7513 38.3507ZM2.48698 37.7202C2.48699 38.2599 2.05079 38.6979 1.51131 38.7002L1.50248 36.7003C0.940975 36.7027 0.486973 37.1586 0.486984 37.7203L2.48698 37.7202ZM2.47006 115.005C2.48173 114.944 2.48849 114.88 2.48849 114.812L0.48849 114.812C0.488489 114.747 0.494989 114.685 0.506159 114.627L2.47006 115.005Z" fill="black" mask="url(#path-1-outside-1_331_1989)"/>
</g>
<path id="Vector_2" d="M81.5133 44.576V157.887C79.9773 157.887 78.4412 157.522 77.0319 156.794L3.23875 118.607C3.23875 118.607 3.16749 118.567 3.13582 118.543H3.1279C1.73709 117.692 1.48682 116.868 1.48682 114.984L1.48832 76.6128V38.2418H80.4444L81.5054 44.5681L81.5133 44.576Z" fill="#2CB8DB"/>
<path id="Vector_3" d="M161.749 38.1541L161.757 115.448L161.749 115.741C161.714 116.655 161.389 117.358 160.783 118.011C160.477 118.341 159.984 118.725 159.438 118.997C135.136 131.147 110.289 144.127 86.1497 156.598C84.7482 157.326 83.0786 157.716 81.5346 157.716L81.5344 44.4803L82.6033 38.1541H161.749Z" fill="#35DFFF"/>
<path id="Vector_4" d="M2.61036 35.2786L2.61116 35.2783L76.9585 2.30892L76.9589 2.30876C78.3999 1.67107 79.9256 1.34753 81.4922 1.34753C83.0582 1.34753 84.5923 1.67085 86.0265 2.30919L160.365 35.2783L160.366 35.2786C161.342 35.7136 161.965 36.6477 161.985 37.7216C162.004 38.7984 161.409 39.7508 160.446 40.2224L160.443 40.2238L86.0008 76.1227L85.7836 75.6723L86.0008 76.1227C84.6016 76.7973 83.0466 77.1462 81.4922 77.1462C79.9364 77.1462 78.3737 76.7888 76.9757 76.1148L2.53414 40.2242L2.61036 35.2786ZM2.61036 35.2786C1.63416 35.7136 1.01102 36.6477 0.99167 37.7216C0.972322 38.7954 1.56551 39.7589 2.53336 40.2238L2.61036 35.2786Z" fill="#42FDFF" stroke="black"/>
<g id="Icon">
<path id="Vector_5" d="M46.8882 38.5185L41.4536 35.9817L70.8119 36.1622C72.0281 36.1622 72.9877 35.7442 72.9972 35.1836C73.0067 34.623 72.0756 34.186 70.8499 34.1765L41.5486 33.996L47.0212 31.5447C47.8858 31.1551 47.8953 30.5471 47.0497 30.148C46.2041 29.749 44.8645 29.749 43.9999 30.129L34.8218 34.243L34.7743 34.262C33.9097 34.6515 33.9002 35.2596 34.7458 35.6586L43.8003 39.8961C44.6174 40.2762 45.9856 40.2952 46.8502 39.9151C47.7148 39.5351 47.7243 38.9175 46.8787 38.5185H46.8882Z" fill="black"/>
<path id="Vector_6" d="M95.3625 52.7415C94.5169 52.3425 93.1773 52.3425 92.3127 52.7225L86.8686 55.1548L87.1251 41.7773C87.1346 41.2167 86.2035 40.7797 84.9778 40.7797C83.7617 40.7797 82.8021 41.1977 82.7926 41.7583L82.5361 55.1833L77.0729 52.6275C76.2273 52.2285 74.8877 52.2285 74.0231 52.6085C73.1585 52.9981 73.149 53.6061 73.9946 54.0052L83.0491 58.2427C83.1346 58.2807 83.2391 58.2997 83.3246 58.3282C83.3817 58.3472 83.4387 58.3662 83.4957 58.3852C83.6477 58.4232 83.8092 58.4612 83.9802 58.4802C84.0942 58.4992 84.2082 58.5087 84.3318 58.5182C84.4458 58.5182 84.5503 58.5372 84.6643 58.5277C85.4054 58.5277 86.0515 58.3662 86.4315 58.1096L95.315 54.1382C96.1796 53.7486 96.1891 53.1406 95.3435 52.7415H95.3625Z" fill="black"/>
<path id="Vector_7" d="M73.4056 47.3164C74.6217 47.3164 75.5813 46.8983 75.5908 46.3378C75.6003 45.7772 74.6692 45.3402 73.4436 45.3307L65.7097 45.2832L75.6668 40.8271C76.5314 40.4376 76.5409 39.8295 75.6953 39.4305C74.8497 39.0314 73.5101 39.0314 72.6455 39.4115L62.6883 43.8675L62.7549 40.3331C62.7644 39.7725 61.8333 39.3355 60.6076 39.3355C59.3915 39.3355 58.4319 39.7535 58.4224 40.3141L58.3083 46.2238C58.3083 46.2333 58.3083 46.2428 58.3083 46.2618C58.3083 46.5088 58.5269 46.7463 58.8974 46.9173C58.8974 46.9173 58.9069 46.9173 58.9164 46.9173C58.9164 46.9173 58.9164 46.9173 58.9259 46.9173C58.9259 46.9173 58.9449 46.9173 58.9544 46.9173C59.1444 47.0029 59.363 47.0789 59.6195 47.1264C59.648 47.1264 59.6765 47.1264 59.705 47.1359C59.9235 47.1739 60.1611 47.2024 60.4176 47.2024C60.4271 47.2024 60.4461 47.2024 60.4556 47.2024C60.4556 47.2024 60.4651 47.2024 60.4746 47.2024L73.3866 47.2784L73.4056 47.3164Z" fill="black"/>
<path id="Vector_8" d="M78.2702 38.2904C79.9329 39.0695 82.6692 39.079 84.3604 38.3284C86.0516 37.5778 86.0706 36.3141 84.4174 35.5446C82.7548 34.7655 80.0184 34.756 78.3272 35.5065C76.636 36.2666 76.617 37.5208 78.2702 38.2904Z" fill="black"/>
<path id="Vector_9" d="M112.835 24.5708C109.804 22.3095 103.724 21.3784 98.403 22.3475C97.3009 22.5375 96.7783 23.1076 97.2249 23.6207C97.6429 24.1242 98.8875 24.3713 100.018 24.1717C102.897 23.6302 106.935 23.9532 109.158 25.5779C110.574 26.604 110.574 27.9817 109.244 28.9888C107.106 30.604 103.391 30.9175 100.588 30.509C96.8543 29.9674 92.6358 30.471 89.529 31.8581L87.8378 32.6182C86.9732 33.0077 86.9637 33.6158 87.8093 34.0149C88.6264 34.3949 90.023 34.4044 90.8211 34.0434L92.5123 33.2833C94.422 32.4282 97.0728 32.0956 99.2296 32.4092C104.455 33.1693 110.08 32.2001 112.921 30.0434C115.115 28.3712 115.068 26.243 112.816 24.5708H112.835Z" fill="black"/>
</g>
</g>
</svg>
