<svg width="201" height="194" viewBox="0 0 201 194" fill="none" xmlns="http://www.w3.org/2000/svg">
<g id="NodeIn">
<path id="Vector" d="M3.25018 145.289L3.25828 145.293L3.26655 145.298L94.0962 191.743C95.9494 192.691 98.0168 193.195 100.096 193.195C102.185 193.195 104.263 192.691 106.107 191.742L197.09 145.476C197.127 145.458 197.161 145.435 197.192 145.408C198.795 144.529 199.828 142.854 199.914 141.015L199.914 141.004V140.992V140.623V140.622L199.622 45.1522C199.621 44.8657 199.388 44.6338 199.102 44.6338H101.015C100.761 44.6338 100.545 44.8168 100.502 45.0669L100.096 47.4609L99.6905 45.0669C99.648 44.8161 99.4302 44.6328 99.1756 44.6339L1.08318 45.0624C0.796946 45.0637 0.565443 45.2961 0.565449 45.5824L0.567314 140.049C0.555598 140.139 0.558303 140.223 0.560338 140.278C0.561213 140.302 0.562167 140.324 0.56308 140.344C0.565301 140.394 0.56728 140.439 0.56728 140.495L0.567273 140.56C0.567128 141.453 0.567005 142.217 0.817302 142.903C1.08583 143.64 1.61552 144.235 2.53677 144.887L2.55842 144.902L2.58157 144.915L3.25018 145.289Z" fill="#F069AB" stroke="black"/>
<path id="Vector_2" d="M100.123 53.9907V192.885C98.2213 192.885 96.32 192.439 94.5755 191.546L3.23398 144.737C3.23398 144.737 3.14578 144.688 3.10658 144.659H3.09677C1.37522 143.615 1.06543 142.605 1.06543 140.296L1.0673 93.261V46.2263H98.7995L100.113 53.981L100.123 53.9907Z" fill="#F069AB"/>
<path id="Vector_3" d="M199.439 46.1187L199.448 140.865L199.439 141.224C199.395 142.344 198.993 143.205 198.242 144.007C197.864 144.411 197.253 144.881 196.579 145.215C166.497 160.108 135.741 176.019 105.861 191.305C104.127 192.198 102.06 192.676 100.149 192.676L100.149 53.8733L101.472 46.1187H199.439Z" fill="#FF80CE"/>
<path id="Vector_4" d="M2.50613 42.6963L2.50693 42.696L94.5345 2.28253L94.5348 2.28238C96.3031 1.50746 98.1747 1.1145 100.096 1.1145C102.017 1.1145 103.899 1.50716 105.659 2.28259C105.659 2.28266 105.659 2.28273 105.659 2.2828L197.676 42.696L197.677 42.6963C198.842 43.2105 199.589 44.3154 199.612 45.5905C199.635 46.8684 198.922 47.9954 197.772 48.5534L197.769 48.5547L105.624 92.5592L105.417 92.1254L105.624 92.5592C103.909 93.3781 102.002 93.8018 100.096 93.8018C98.1893 93.8018 96.2732 93.3678 94.5593 92.5495L2.41491 48.5551L2.50613 42.6963ZM2.50613 42.6963C1.34081 43.2105 0.59455 44.3154 0.571351 45.5905C0.548153 46.8655 1.25885 48.0053 2.41413 48.5548L2.50613 42.6963Z" fill="#FF93EB" stroke="black"/>
<g id="In">
<path id="Vector_5" d="M145.365 41.9212L107.398 25.2085C103.037 23.2868 95.9017 23.3644 91.4816 25.3832L87.2478 27.3145C86.3461 27.7222 86.3461 28.353 87.2282 28.7412C88.1102 29.1295 89.5117 29.1198 90.4133 28.7121L94.6472 26.7808C97.3424 25.5579 101.537 25.5093 104.203 26.674L142.17 43.3868C144.797 44.5417 144.767 46.4537 142.111 47.6669L103.664 65.1949C101.008 66.4081 96.7347 66.4566 94.1082 65.2919L56.1407 48.5792C53.5141 47.4242 53.5435 45.5122 56.1995 44.2991L60.4333 42.3677C61.335 41.9601 61.335 41.3292 60.4529 40.941C59.5709 40.5528 58.1694 40.5625 57.2677 40.9701L53.0339 42.9015C48.6138 44.9202 48.5648 48.1133 52.9359 50.035L90.9034 66.7477C95.2646 68.6694 102.399 68.5918 106.82 66.573L145.267 49.045C149.687 47.0263 149.736 43.8332 145.365 41.9115V41.9212Z" fill="black"/>
<path id="Vector_6" d="M72.2333 35.5738L93.7162 45.0269L85.6895 45.1142C84.4154 45.1239 83.4256 45.5801 83.4158 46.1527C83.3766 46.4245 83.6314 46.6768 84.043 46.8612C84.4546 47.0456 84.9937 47.1621 85.6895 47.133L98.8027 46.9971C99.2045 47.0165 99.6161 46.9971 99.9984 46.9194C100.861 46.7641 101.459 46.3953 101.468 45.9586L101.557 39.9121C101.557 39.3395 100.586 38.9124 99.3123 38.9222C98.0382 38.9319 97.0484 39.388 97.0386 39.9606L96.9896 43.6099L75.4479 34.1277C74.5658 33.7395 73.1643 33.7492 72.2627 34.1665C71.361 34.5741 71.361 35.205 72.2431 35.5932L72.2333 35.5738Z" fill="black"/>
</g>
</g>
</svg>
