<svg width="1031" height="246" viewBox="0 0 1031 246" fill="none" xmlns="http://www.w3.org/2000/svg">
<path fill-rule="evenodd" clip-rule="evenodd" d="M961.17 0.102539L970.84 24.0324L1031 24.0879V25.3657L971.37 25.3107L1001.65 100.224L1031 100.251V101.708L1002.22 101.681L1031 172.879V176.803L1000.72 101.673L921.167 101.599L950.07 187.384L1031 187.458V189.129L950.64 189.055L969.528 245.103H967.911L949.09 189.053L863.759 188.975L878.898 245.103H877.281L862.209 188.973L776.878 188.894L788.256 245.103H786.639L775.328 188.893L689.997 188.814L697.604 245.103H695.987L688.447 188.813L603.116 188.734L606.94 245.103H605.323L601.566 188.733L516.235 188.654L516.265 245.103H514.655L514.685 188.653L429.354 188.574L425.587 245.103H423.969L427.804 188.573L342.473 188.494L334.889 245.103H333.271L340.923 188.492L255.592 188.414L244.18 245.103H242.562L254.043 188.412L168.711 188.334L153.46 245.103H151.842L167.162 188.332L81.8304 188.253L62.7291 245.103H61.1105L80.2807 188.252L0 188.178V186.508L80.9164 186.582L109.819 100.851L30.2635 100.778L0 175.82V172.052L28.8329 100.776L0 100.75V99.2934L29.4157 99.3205L59.6963 24.463L0 24.4079V23.13L60.1202 23.1854L60.1334 23.1855L69.4678 0.102539H70.8049L61.4978 23.1867L135.914 23.2553L143.718 0.102539H145.055L137.279 23.2566L211.695 23.3252L217.959 0.102539H219.296L213.059 23.3265L287.476 23.3951L292.191 0.102539H293.528L288.84 23.3964L363.256 23.465L366.414 0.102539H367.75L364.621 23.4662L439.037 23.5349L440.628 0.102539H441.964L440.401 23.5361L514.818 23.6047L514.832 0.102539H516.168L516.182 23.606L590.599 23.6746L589.027 0.102539H590.363L591.963 23.6759L666.379 23.7445L663.213 0.102539H664.549L667.744 23.7457L742.16 23.8144L737.39 0.102539H738.725L743.524 23.8156L817.941 23.8843L811.557 0.102539H812.893L819.305 23.8855L893.722 23.9542L885.716 0.102539H887.051L895.086 23.9554L969.502 24.024L959.865 0.102539H961.17ZM919.737 101.598L948.534 187.382L863.322 187.304L840.181 101.524L919.737 101.598ZM838.737 101.523L861.772 187.302L776.547 187.224L759.181 101.45L838.737 101.523ZM757.751 101.448L775.01 187.222L689.785 187.144L678.195 101.375L757.751 101.448ZM676.764 101.374L688.249 187.142L603.037 187.064L597.208 101.3L676.764 101.374ZM595.765 101.299L601.487 187.062L516.262 186.984L516.209 101.226L595.765 101.299ZM514.778 101.224L514.725 186.982L429.5 186.904L435.222 101.151L514.778 101.224ZM433.792 101.15L427.963 186.902L342.751 186.824L354.236 101.076L433.792 101.15ZM352.792 101.075L341.202 186.822L255.976 186.744L273.236 101.002L352.792 101.075ZM271.806 101L254.44 186.742L169.215 186.664L192.25 100.927L271.806 101ZM190.819 100.926L167.678 186.662L82.4663 186.584L111.263 100.852L190.819 100.926ZM1000.21 100.216L970.019 25.3024L895.51 25.2336L920.757 100.142L1000.21 100.216ZM919.313 100.141L894.159 25.2324L819.663 25.1637L839.863 100.068L919.313 100.141ZM838.406 100.067L818.298 25.1625L743.789 25.0938L758.956 99.9932L838.406 100.067ZM757.512 99.9919L742.438 25.0925L667.942 25.0238L678.062 99.9186L757.512 99.9919ZM676.605 99.9173L666.578 25.0225L592.069 24.9539L597.155 99.8441L676.605 99.9173ZM595.712 99.8427L590.718 24.9526L516.222 24.8839L516.262 99.7695L595.712 99.8427ZM514.818 99.7681L514.858 24.8826L440.362 24.814L435.368 99.6948L514.818 99.7681ZM433.911 99.6935L438.997 24.8127L364.488 24.744L354.461 99.6202L433.911 99.6935ZM353.017 99.6189L363.137 24.7427L288.641 24.674L273.567 99.5457L353.017 99.6189ZM272.11 99.5443L287.277 24.6728L212.768 24.6041L192.66 99.4711L272.11 99.5443ZM191.216 99.4697L211.417 24.6028L136.921 24.5341L111.767 99.3964L191.216 99.4697ZM110.309 99.3951L135.556 24.5329L61.0474 24.4642L30.8596 99.3218L110.309 99.3951Z" fill="#0A27C2"/>
</svg>
