<svg width="102" height="99" viewBox="0 0 102 99" fill="none" xmlns="http://www.w3.org/2000/svg">
<g id="NodeIn">
<path id="Vector" d="M1.97798 74.1128L1.9861 74.1173L1.99439 74.1216L47.6329 97.6874C48.599 98.1864 49.6772 98.4523 50.7628 98.4523C51.8521 98.4523 52.9351 98.187 53.8972 97.6877C53.8977 97.6874 53.8982 97.6871 53.8987 97.6869L99.6105 74.2139C99.6387 74.1995 99.6651 74.1828 99.6896 74.1641C100.562 73.672 101.12 72.7495 101.166 71.7415L101.166 71.73V71.7186V71.5314V71.5299L101.019 23.0997C101.019 23.0997 101.019 23.0996 101.019 23.0996C101.019 22.8129 100.786 22.5812 100.499 22.5812H51.2328C51.0279 22.5812 50.8471 22.7006 50.7628 22.8785C50.6783 22.7 50.4965 22.5803 50.2906 22.5813L1.02115 22.7986C0.734814 22.7999 0.503439 23.0324 0.503445 23.3186L0.504381 71.2262C0.498111 71.2867 0.500032 71.3383 0.501002 71.3644L0.50107 71.3663C0.501636 71.3815 0.502178 71.3939 0.502654 71.4046C0.503658 71.4274 0.504364 71.4435 0.504364 71.4665C0.504364 71.4842 0.504355 71.502 0.504345 71.5197C0.504112 71.9551 0.503884 72.3816 0.644495 72.7713C0.802982 73.2104 1.11299 73.5486 1.59716 73.8945L1.61883 73.91L1.64202 73.9231L1.97798 74.1128Z" fill="#F069AB" stroke="black"/>
<path id="Vector_2" d="M50.776 27.575V98.0487C49.8206 98.0487 48.8653 97.8222 47.9887 97.3692L2.09304 73.6185C2.09304 73.6185 2.04872 73.5939 2.02902 73.5791H2.02409C1.15908 73.0495 1.00342 72.5371 1.00342 71.3652L1.00436 47.5004V23.6355H50.1112L50.7711 27.5701L50.776 27.575Z" fill="#F069AB"/>
<path id="Vector_3" d="M100.679 23.5809L100.683 71.6541L100.679 71.8363C100.657 72.4049 100.455 72.8417 100.078 73.2482C99.8873 73.4532 99.5806 73.6919 99.2416 73.8615C84.1269 81.4178 68.673 89.4908 53.6595 97.2472C52.7879 97.7002 51.7494 97.9426 50.7892 97.9426L50.7891 27.5156L51.4539 23.5809H100.679Z" fill="#FF80CE"/>
<path id="Vector_4" d="M1.62603 21.6195L1.62523 21.6199C0.951353 21.9201 0.519783 22.5669 0.50642 23.3085C0.493055 24.0503 0.903856 24.7175 1.57268 25.0387C1.57277 25.0387 1.57287 25.0388 1.57296 25.0388L47.8717 47.3609C48.7668 47.7924 49.7668 48.0211 50.7628 48.0211C51.7575 48.0211 52.7527 47.798 53.649 47.3658L53.6491 47.3658L99.9486 25.0384L99.9514 25.037C100.615 24.7121 101.028 24.0531 101.014 23.3085C101.001 22.5669 100.569 21.9201 99.8955 21.6199L99.8947 21.6195L53.6598 1.11444C53.6597 1.11441 53.6597 1.11439 53.6596 1.11436C52.7433 0.706548 51.763 0.5 50.7628 0.5C49.762 0.5 48.787 0.706796 47.8668 1.114L47.8665 1.11416L1.62603 21.6195Z" fill="#FF93EB" stroke="black"/>
<g id="OUT">
<path id="Vector_5" d="M46.7435 34.1327L27.0977 25.0646C24.8745 24.0393 24.9784 22.3751 27.3159 21.3549L47.211 12.6527C49.4498 11.6737 53.0445 11.6737 55.2521 12.6527L74.7524 21.2983C77.0329 22.3081 77.09 23.962 74.8667 24.9873L72.7318 25.9714C72.2799 26.1827 71.5578 26.1827 71.0903 25.9714C70.6228 25.7602 70.6176 25.4356 71.0747 25.2243L73.2097 24.2403C74.5499 23.622 74.5187 22.6379 73.1473 22.0248L53.6418 13.3688C52.312 12.7763 50.1563 12.7763 48.8109 13.3688L28.9262 22.0866C27.5237 22.7049 27.4614 23.6993 28.8015 24.3124L48.4369 33.3547C49.8187 33.9885 52.0627 33.9833 53.4548 33.3393L55.6677 32.3191C56.1352 32.1027 56.8676 32.1027 57.3352 32.3191C57.8027 32.5355 57.8027 32.8704 57.3352 33.0868L55.1223 34.107C52.8003 35.1787 49.0395 35.189 46.7435 34.1327Z" fill="black"/>
<path id="Vector_6" d="M64.7166 29.6191C65.1633 29.5418 65.4698 29.3512 65.4698 29.1193L65.4282 25.9352C65.4282 25.6363 64.9139 25.4045 64.2542 25.4096C63.5997 25.4096 63.0907 25.6415 63.0907 25.9403L63.1063 27.857L51.912 22.7974C51.4549 22.5913 50.7329 22.5913 50.2705 22.7974C49.8082 23.0035 49.803 23.3281 50.2601 23.5393L61.4284 28.5938L57.2572 28.6041C56.5923 28.6041 56.078 28.8411 56.078 29.1451C56.0625 29.2893 56.1923 29.4233 56.4105 29.5212C56.6079 29.6139 56.8884 29.6809 57.2728 29.6706L64.2075 29.6551C64.3789 29.6551 64.5555 29.65 64.7166 29.6191Z" fill="black"/>
</g>
</g>
</svg>
