<svg width="328" height="347" viewBox="0 0 328 347" fill="none" xmlns="http://www.w3.org/2000/svg">
<g clip-path="url(#clip0_187_3593)">
<path d="M25.2031 278.129L125.853 331.705C158.234 348.933 198.208 346.43 227.936 325.273L319.683 259.998C330.873 252.024 330.751 235.989 319.439 228.19L215.13 156.134C177.657 130.263 126.067 134.192 93.3805 165.418L19.1049 236.368C6.11582 248.765 9.1649 269.573 25.2031 278.129Z" fill="#E8E8E8"/>
<path d="M321.874 206.383L164.306 115.238L6.79858 206.383L163.937 297.65L321.874 206.413V206.383Z" fill="#40FBFF" stroke="black" stroke-width="1.53546" stroke-linejoin="round"/>
<path d="M321.874 206.198L163.937 297.65V323.876L321.874 232.762V206.229V206.198Z" fill="#35DFFF" stroke="black" stroke-width="1.53546" stroke-linejoin="round"/>
<path d="M6.76782 205.738L164 297.404V323.845L6.76782 231.963V205.738Z" fill="url(#paint0_linear_187_3593)" stroke="black" stroke-width="1.53546" stroke-linejoin="round"/>
<path d="M161.818 273.666L309.407 189.278L309.714 202.078L161.818 286.33V273.666Z" fill="#35DFFF" stroke="black" stroke-width="1.53546" stroke-linejoin="round"/>
<path d="M161.818 273.666L25.0398 192.993L25.3469 206.168L161.818 286.377L161.849 273.666H161.818Z" fill="url(#paint1_linear_187_3593)" stroke="black" stroke-width="1.53546" stroke-linejoin="round"/>
<path d="M160.836 115.268L25.0398 192.993L161.818 273.666L309.407 189.278L160.836 115.238V115.268Z" fill="#40FBFF" stroke="black" stroke-width="1.53546" stroke-linejoin="round"/>
<g style="mix-blend-mode:multiply">
<path d="M67.7868 133.571L205.886 161.486L181.656 241.821L115.816 194.559L47.9487 193.362L67.7868 133.571Z" fill="black" fill-opacity="0.2"/>
</g>
<g style="mix-blend-mode:multiply">
<path d="M189.518 199.78L180.336 149.847L278.513 206.475L196.028 255.364L168.083 259.479L189.518 199.811V199.78Z" fill="black" fill-opacity="0.2"/>
</g>
<g style="mix-blend-mode:multiply">
<path d="M241.632 178.898H259.873L276.026 183.074L260.702 189.646L234.323 184.763L241.632 178.929V178.898Z" fill="black" fill-opacity="0.2"/>
</g>
<g style="mix-blend-mode:multiply">
<path d="M230.423 150.523L273.415 170.668L253.332 181.815L220.473 175.244L230.423 150.523Z" fill="black" fill-opacity="0.2"/>
</g>
<path d="M146.003 202.452L146.525 207.242L145.819 206.843C145.512 206.659 145.297 206.26 145.297 205.707V202.052L146.003 202.452Z" fill="#221C3A"/>
<path d="M148.828 199.995L149.535 200.425L145.972 202.483L145.266 202.083L148.828 200.026V199.995Z" fill="#BEC7EE"/>
<path d="M149.535 200.425V204.079C149.535 205.216 148.736 206.598 147.784 207.15C146.802 207.703 146.003 207.273 146.003 206.137V202.483L149.535 200.425Z" fill="#221C3A"/>
<path d="M146.341 207.549C145.88 207.304 145.635 206.782 145.635 206.106V202.482C145.635 202.482 145.696 202.237 145.788 202.175L149.351 200.118C149.351 200.118 149.596 200.056 149.688 200.118C149.811 200.179 149.873 200.302 149.873 200.425V204.079C149.873 205.338 149.043 206.812 147.938 207.457C147.6 207.642 147.262 207.734 146.955 207.734C146.74 207.734 146.525 207.672 146.31 207.549H146.341ZM146.341 202.667V206.106C146.341 206.505 146.464 206.812 146.679 206.935C146.894 207.058 147.232 207.027 147.569 206.812C148.429 206.321 149.166 205.031 149.166 204.049V201.008L146.31 202.667H146.341Z" fill="#221C3A"/>
<path d="M148.03 203.035C148.368 202.851 149.35 202.329 150.548 202.974L150.794 203.127C151.101 203.312 151.377 203.557 151.562 203.834C151.654 203.957 151.746 204.11 151.807 204.233C151.991 204.663 152.053 205.124 152.022 205.615C151.961 206.229 151.776 206.751 151.5 207.242C151.377 207.488 151.224 207.703 151.07 207.887C150.855 208.133 150.64 208.379 150.364 208.594C149.995 208.901 149.565 209.116 149.135 209.208C148.921 209.269 148.706 209.269 148.521 209.269C147.969 209.269 147.569 209.054 147.416 208.962L147.139 208.809C144.928 207.427 146.095 204.172 147.999 203.035H148.03Z" fill="#221C3A"/>
<path d="M148.89 204.141L149.412 208.931L148.706 208.532C148.399 208.348 148.184 207.949 148.184 207.396V203.741L148.89 204.141Z" fill="#221C3A"/>
<path d="M151.715 201.684L152.421 202.083L148.859 204.141L148.153 203.742L151.715 201.684Z" fill="#BEC7EE"/>
<path d="M152.421 202.083V205.738C152.421 206.874 151.623 208.256 150.671 208.809C149.688 209.361 148.89 208.931 148.89 207.795V204.141L152.421 202.083Z" fill="#221C3A"/>
<path d="M149.228 209.208C148.767 208.962 148.521 208.44 148.521 207.765V204.11C148.521 204.11 148.583 203.864 148.706 203.803L152.268 201.746C152.268 201.746 152.514 201.684 152.606 201.746C152.729 201.807 152.79 201.93 152.79 202.053V205.676C152.79 206.935 151.961 208.44 150.855 209.054C150.518 209.239 150.18 209.331 149.903 209.331C149.658 209.331 149.473 209.269 149.259 209.146L149.228 209.208ZM149.228 204.325V207.765C149.228 208.164 149.351 208.471 149.566 208.594C149.781 208.717 150.118 208.686 150.456 208.471C151.316 207.98 152.053 206.72 152.053 205.707V202.698L149.197 204.325H149.228Z" fill="#221C3A"/>
<path d="M145.174 161.302L145.696 166.092L144.99 165.693C144.683 165.509 144.468 165.11 144.468 164.557V160.902L145.174 161.302Z" fill="#221C3A"/>
<path d="M147.999 158.845L148.706 159.244L145.143 161.301L144.437 160.902L147.999 158.845Z" fill="#BEC7EE"/>
<path d="M148.706 159.244V162.898C148.706 164.035 147.907 165.416 146.955 165.969C145.973 166.522 145.174 166.092 145.174 164.956V161.301L148.706 159.244Z" fill="#221C3A"/>
<path d="M145.512 166.399C145.051 166.154 144.806 165.632 144.806 164.956V161.302C144.806 161.302 144.867 161.056 144.99 160.994L148.552 158.937C148.552 158.937 148.798 158.876 148.921 158.937C149.044 158.998 149.105 159.121 149.105 159.244V162.868C149.105 164.127 148.276 165.601 147.17 166.246C146.832 166.43 146.495 166.522 146.218 166.522C145.973 166.522 145.788 166.461 145.573 166.338L145.512 166.399ZM145.512 161.517V164.956C145.512 165.355 145.635 165.662 145.85 165.785C146.065 165.908 146.403 165.877 146.74 165.662C147.6 165.171 148.337 163.912 148.337 162.898V159.889L145.481 161.517H145.512Z" fill="#221C3A"/>
<path d="M147.201 161.885C147.539 161.701 148.521 161.179 149.719 161.823L149.965 161.977C150.272 162.161 150.548 162.407 150.732 162.683C150.825 162.806 150.917 162.96 150.978 163.083C151.162 163.512 151.224 163.973 151.193 164.464C151.132 165.079 150.947 165.601 150.671 166.092C150.548 166.338 150.395 166.553 150.241 166.737C150.026 167.013 149.811 167.228 149.535 167.443C149.166 167.75 148.736 167.965 148.306 168.057C148.091 168.119 147.876 168.119 147.692 168.119C147.139 168.119 146.74 167.904 146.587 167.812L146.31 167.658C144.099 166.276 145.266 163.021 147.17 161.885H147.201Z" fill="#221C3A"/>
<path d="M148.061 162.991L148.583 167.781L147.877 167.382C147.569 167.198 147.354 166.798 147.354 166.246V162.591L148.061 162.991Z" fill="#221C3A"/>
<path d="M150.886 160.503L151.592 160.902L148.03 162.96L147.324 162.53L150.886 160.472V160.503Z" fill="#BEC7EE"/>
<path d="M151.592 160.933V164.587C151.592 165.724 150.794 167.106 149.842 167.658C148.859 168.211 148.061 167.781 148.061 166.645V162.991L151.592 160.933Z" fill="#221C3A"/>
<path d="M148.398 168.058C147.938 167.812 147.692 167.29 147.692 166.614V162.991C147.692 162.991 147.754 162.745 147.846 162.683L151.408 160.626C151.408 160.626 151.654 160.565 151.746 160.626C151.869 160.687 151.93 160.81 151.93 160.933V164.557C151.93 165.816 151.101 167.29 149.995 167.935C149.658 168.119 149.32 168.211 149.043 168.211C148.828 168.211 148.613 168.15 148.398 168.027V168.058ZM148.398 163.175V166.614C148.398 167.013 148.521 167.321 148.736 167.443C148.951 167.566 149.289 167.535 149.627 167.321C150.487 166.829 151.224 165.57 151.224 164.557V161.547L148.368 163.175H148.398Z" fill="#221C3A"/>
<path d="M210.277 209.668L210.769 214.183L210.093 213.784C209.786 213.599 209.602 213.231 209.602 212.709V209.269L210.247 209.668H210.277Z" fill="#221C3A"/>
<path d="M216.604 211.787L217.31 212.187L213.748 214.244L213.041 213.845L216.604 211.787Z" fill="#BEC7EE"/>
<path d="M217.31 212.187V215.841C217.31 216.977 216.511 218.359 215.559 218.912C214.577 219.465 213.778 219.035 213.778 217.898V214.244L217.31 212.187Z" fill="#221C3A"/>
<path d="M214.116 219.342C213.655 219.096 213.41 218.574 213.41 217.898V214.275C213.41 214.275 213.471 214.029 213.594 213.968L217.156 211.91C217.156 211.91 217.402 211.849 217.494 211.91C217.617 211.972 217.678 212.094 217.678 212.217V215.872C217.678 217.131 216.849 218.605 215.744 219.25C215.406 219.434 215.068 219.526 214.792 219.526C214.546 219.526 214.362 219.465 214.147 219.342H214.116ZM214.116 214.459V217.898C214.116 218.298 214.239 218.605 214.454 218.728C214.669 218.85 215.007 218.82 215.344 218.605C216.204 218.113 216.941 216.854 216.941 215.841V212.801L214.085 214.459H214.116Z" fill="#221C3A"/>
<path d="M212.181 210.221C212.489 210.068 213.44 209.546 214.577 210.16L214.822 210.313C215.13 210.498 215.375 210.713 215.529 210.958C215.621 211.081 215.682 211.204 215.744 211.357C215.928 211.757 215.989 212.217 215.928 212.647C215.867 213.231 215.682 213.722 215.437 214.183C215.314 214.398 215.191 214.613 215.037 214.797C214.853 215.043 214.638 215.257 214.392 215.442C214.024 215.718 213.655 215.933 213.256 216.025C213.041 216.087 212.857 216.087 212.703 216.087C212.181 216.087 211.813 215.872 211.659 215.78L211.414 215.626C209.325 214.336 210.431 211.235 212.243 210.19L212.181 210.221Z" fill="#221C3A"/>
<path d="M213.011 211.235L213.502 215.749L212.826 215.35C212.519 215.165 212.335 214.797 212.335 214.275V210.835L213.011 211.235Z" fill="#221C3A"/>
<path d="M215.682 210.16L216.358 210.559L213.011 211.265L212.335 210.866L215.682 210.16Z" fill="#BEC7EE"/>
<path d="M216.358 210.559V212.739C216.358 213.814 215.621 215.104 214.699 215.626C213.778 216.148 213.041 215.718 213.01 214.674V211.235L216.358 210.528V210.559Z" fill="#221C3A"/>
<path d="M213.318 216.056C212.888 215.81 212.642 215.319 212.642 214.674V211.235C212.642 211.081 212.734 210.928 212.888 210.897L216.235 210.221C216.235 210.221 216.45 210.221 216.511 210.283C216.573 210.344 216.634 210.436 216.634 210.528V212.709C216.634 213.906 215.836 215.288 214.792 215.902C214.485 216.087 214.178 216.179 213.87 216.179C213.655 216.179 213.441 216.117 213.256 216.025L213.318 216.056ZM213.318 211.511V214.674C213.318 215.073 213.441 215.35 213.655 215.472C213.87 215.595 214.178 215.534 214.515 215.35C215.344 214.889 216.02 213.691 216.02 212.739V210.958L213.318 211.511Z" fill="#221C3A"/>
<path d="M253.946 181.078L254.468 185.869L253.762 185.47C253.454 185.285 253.24 184.886 253.24 184.333V180.71L253.946 181.109V181.078Z" fill="#221C3A"/>
<path d="M256.771 178.622L257.478 179.021L253.915 181.078L253.209 180.679L256.771 178.622Z" fill="#BEC7EE"/>
<path d="M257.477 179.052V182.706C257.477 183.842 256.679 185.224 255.727 185.777C254.744 186.33 253.946 185.9 253.946 184.763V181.109L257.477 179.052Z" fill="#221C3A"/>
<path d="M254.284 186.176C253.823 185.93 253.577 185.408 253.577 184.733V181.109C253.577 181.109 253.639 180.863 253.762 180.802L257.324 178.744C257.324 178.744 257.57 178.683 257.662 178.744C257.785 178.806 257.846 178.929 257.846 179.051V182.706C257.846 183.965 257.017 185.439 255.911 186.084C255.573 186.268 255.236 186.36 254.929 186.36C254.683 186.36 254.499 186.299 254.284 186.176ZM254.284 181.293V184.733C254.284 185.132 254.407 185.439 254.621 185.562C254.836 185.685 255.174 185.654 255.512 185.439C256.372 184.948 257.109 183.689 257.109 182.675V179.635L254.253 181.293H254.284Z" fill="#221C3A"/>
<path d="M255.973 181.662C256.311 181.477 257.293 180.955 258.491 181.6L258.737 181.754C259.044 181.938 259.32 182.184 259.504 182.46C259.597 182.583 259.689 182.737 259.75 182.859C259.934 183.289 259.996 183.75 259.965 184.241C259.904 184.856 259.719 185.378 259.443 185.869C259.32 186.115 259.167 186.33 259.013 186.514C258.798 186.759 258.583 187.005 258.307 187.22C257.938 187.527 257.508 187.742 257.078 187.834C256.863 187.896 256.648 187.896 256.464 187.896C255.911 187.896 255.512 187.681 255.359 187.589L255.082 187.435C252.871 186.053 254.038 182.798 255.942 181.662H255.973Z" fill="#221C3A"/>
<path d="M256.833 182.767L257.355 187.558L256.648 187.159C256.341 186.974 256.126 186.575 256.126 186.022V182.368L256.833 182.767Z" fill="#221C3A"/>
<path d="M259.658 180.311L260.364 180.71L256.802 182.767L256.095 182.368L259.658 180.311Z" fill="#BEC7EE"/>
<path d="M260.364 180.71V184.364C260.364 185.5 259.566 186.882 258.614 187.435C257.631 187.988 256.833 187.558 256.833 186.422V182.767L260.364 180.71Z" fill="#221C3A"/>
<path d="M257.17 187.834C256.71 187.588 256.464 187.066 256.464 186.391V182.767C256.464 182.767 256.525 182.521 256.648 182.46L260.21 180.403C260.21 180.403 260.456 180.341 260.548 180.403C260.671 180.464 260.732 180.587 260.732 180.71V184.364C260.732 185.623 259.903 187.097 258.798 187.742C258.46 187.926 258.122 188.018 257.846 188.018C257.6 188.018 257.416 187.957 257.201 187.834H257.17ZM257.17 182.951V186.391C257.17 186.79 257.293 187.097 257.508 187.22C257.723 187.343 258.03 187.312 258.399 187.097C259.258 186.606 259.995 185.347 259.995 184.333V181.293L257.139 182.951H257.17Z" fill="#221C3A"/>
<path d="M214.177 149.11C214.515 148.926 215.498 148.404 216.696 149.049L216.941 149.202C217.248 149.386 217.525 149.632 217.709 149.908C217.801 150.031 217.893 150.185 217.955 150.308C218.139 150.738 218.2 151.198 218.17 151.69C218.108 152.304 217.924 152.826 217.648 153.317C217.525 153.563 217.371 153.778 217.218 153.962C217.003 154.208 216.788 154.453 216.511 154.668C216.143 154.975 215.713 155.19 215.283 155.283C215.068 155.344 214.853 155.344 214.669 155.344C214.116 155.344 213.717 155.129 213.563 155.037L213.287 154.883C211.076 153.501 212.243 150.246 214.147 149.11H214.177Z" fill="#221C3A"/>
<path d="M215.037 150.185L215.559 154.976L214.853 154.576C214.546 154.392 214.331 153.993 214.331 153.44V149.816L215.037 150.216V150.185Z" fill="#221C3A"/>
<path d="M217.863 147.728L218.569 148.158L215.007 150.215L214.3 149.816L217.863 147.759V147.728Z" fill="#BEC7EE"/>
<path d="M218.569 148.127V151.782C218.569 152.918 217.77 154.3 216.818 154.853C215.836 155.405 215.037 154.975 215.037 153.839V150.185L218.569 148.127Z" fill="#221C3A"/>
<path d="M215.375 155.283C214.915 155.037 214.669 154.515 214.669 153.839V150.216C214.669 150.216 214.73 149.97 214.853 149.909L218.415 147.851C218.415 147.851 218.661 147.79 218.753 147.851C218.845 147.912 218.938 148.035 218.938 148.158V151.782C218.938 153.041 218.108 154.546 217.003 155.16C216.665 155.344 216.327 155.436 216.02 155.436C215.805 155.436 215.59 155.375 215.375 155.252V155.283ZM215.375 150.4V153.839C215.375 154.239 215.498 154.546 215.713 154.668C215.928 154.791 216.266 154.761 216.604 154.546C217.463 154.054 218.201 152.795 218.201 151.782V148.772L215.345 150.4H215.375Z" fill="#221C3A"/>
<path d="M204.105 172.848V179.666L219.03 147.636V145.855L204.105 172.848Z" fill="#221C3A"/>
<path d="M204.043 180.034C203.89 180.003 203.767 179.85 203.767 179.696V172.848C203.767 172.848 203.767 172.725 203.767 172.664L218.692 145.671C218.692 145.671 218.937 145.456 219.091 145.486C219.244 145.517 219.367 145.671 219.367 145.824C219.367 145.824 219.367 147.605 219.367 147.759L204.443 179.789C204.443 179.789 204.258 180.003 204.105 180.003C204.105 180.003 204.043 180.003 204.013 180.003L204.043 180.034ZM218.661 147.237L204.443 172.94V178.069L218.661 147.575V147.237Z" fill="#221C3A"/>
<path d="M143.915 160.779V162.561L189.457 182.583V175.735L143.915 160.749V160.779Z" fill="#4C4A91"/>
<path d="M189.303 182.952L143.792 162.929C143.792 162.929 143.577 162.745 143.577 162.591V160.81C143.577 160.81 143.608 160.595 143.7 160.534C143.792 160.472 143.915 160.442 144.007 160.472L189.518 175.459C189.518 175.459 189.764 175.643 189.764 175.796V182.645C189.764 182.645 189.733 182.89 189.61 182.952C189.549 182.982 189.487 183.013 189.426 183.013C189.364 183.013 189.334 183.013 189.272 183.013L189.303 182.952ZM144.283 161.271V162.346L189.088 182.061V176.042L144.283 161.271Z" fill="#4C4A91"/>
<path d="M204.258 178.406V185.255L261.469 183.443V181.662L204.258 178.406Z" fill="#221C3A"/>
<path d="M204.013 185.5C204.013 185.5 203.921 185.347 203.921 185.255V178.406C203.921 178.406 203.921 178.222 204.013 178.161C204.074 178.099 204.166 178.069 204.289 178.069L261.5 181.324C261.685 181.324 261.838 181.477 261.838 181.662V183.443C261.838 183.627 261.715 183.781 261.5 183.811L204.289 185.592C204.197 185.592 204.105 185.562 204.043 185.5H204.013ZM261.101 181.999L204.596 178.806V184.886L261.101 183.105V181.999Z" fill="#221C3A"/>
<path d="M148.03 204.172V205.953L195.199 187.036V180.188L148.03 204.141V204.172Z" fill="#221C3A"/>
<path d="M147.846 206.26C147.846 206.26 147.692 206.076 147.692 205.983V204.202C147.692 204.202 147.754 203.926 147.876 203.895L195.015 179.942C195.015 179.942 195.261 179.881 195.353 179.942C195.445 180.004 195.537 180.126 195.537 180.249V187.097C195.537 187.097 195.445 187.374 195.322 187.435C195.322 187.435 148.183 206.352 148.03 206.383C147.969 206.383 147.876 206.383 147.846 206.321V206.26ZM194.831 180.771L148.398 204.387V205.431L194.831 186.79V180.771Z" fill="#221C3A"/>
<path d="M144.836 201.745V203.526L148.03 205.983V204.202L144.836 201.745Z" fill="#221C3A"/>
<path d="M211.997 211.511V213.2L216.757 212.248V210.559L211.997 211.511Z" fill="#221C3A"/>
<path d="M211.813 213.476C211.813 213.476 211.69 213.323 211.69 213.231V211.542C211.69 211.388 211.782 211.235 211.936 211.204L216.665 210.252C216.665 210.252 216.88 210.252 216.941 210.313C217.003 210.375 217.064 210.467 217.064 210.559V212.248C217.064 212.402 216.972 212.555 216.818 212.586C216.818 212.586 212.089 213.538 211.997 213.538C211.936 213.538 211.843 213.538 211.782 213.476H211.813ZM216.419 210.989L212.335 211.787V212.801L216.419 212.002V210.989Z" fill="#221C3A"/>
<path d="M195.168 180.218V187.066L215.621 217.991V216.209L195.168 180.249V180.218Z" fill="#4C4A91"/>
<path d="M215.345 218.175L194.892 187.251C194.892 187.251 194.831 187.128 194.831 187.066V180.218C194.831 180.065 194.923 179.911 195.076 179.88C195.23 179.85 195.384 179.88 195.476 180.065L215.928 216.025C215.928 216.025 215.959 216.148 215.959 216.209V217.991C215.959 218.144 215.867 218.298 215.621 218.359C215.498 218.359 215.406 218.298 215.314 218.206L215.345 218.175ZM195.537 181.569V186.944L215.252 216.793V216.302L195.537 181.6V181.569Z" fill="#4C4A91"/>
<path d="M146.955 158.292L143.915 160.81L189.426 175.796L144.836 201.745L147.999 204.202L195.138 180.249L215.559 216.209L220.596 215.227L204.228 178.437L261.439 181.692L261.378 178.652L204.105 172.91L219.03 145.916L213.963 145.026L194.954 171.282L146.955 158.323V158.292Z" fill="#221C3A"/>
<path d="M215.283 216.363L195.015 180.679L148.184 204.479C148.184 204.479 147.907 204.54 147.815 204.448L144.652 201.991C144.652 201.991 144.498 201.807 144.529 201.684C144.529 201.561 144.591 201.469 144.713 201.408L188.628 175.858L143.854 161.117C143.854 161.117 143.639 160.964 143.608 160.841C143.608 160.718 143.608 160.595 143.731 160.503L146.771 157.985C146.771 157.985 146.986 157.893 147.078 157.924L194.831 170.821L213.717 144.749C213.717 144.749 213.932 144.565 214.055 144.596L219.122 145.486C219.122 145.486 219.337 145.578 219.367 145.671C219.429 145.763 219.429 145.886 219.367 146.008L204.719 172.51L261.439 178.192C261.623 178.192 261.746 178.376 261.746 178.529L261.807 181.57C261.807 181.57 261.777 181.754 261.715 181.846C261.654 181.907 261.531 181.969 261.439 181.938L204.811 178.714L220.964 214.95C220.964 214.95 220.995 215.165 220.964 215.257C220.903 215.35 220.811 215.411 220.719 215.442C220.719 215.442 215.713 216.424 215.621 216.455C215.498 216.455 215.375 216.394 215.314 216.271L215.283 216.363ZM203.921 178.56C203.921 178.56 203.89 178.314 203.951 178.222C204.013 178.13 204.136 178.069 204.258 178.069L261.07 181.293L261.009 178.929L204.044 173.217C204.044 173.217 203.829 173.125 203.767 173.032C203.706 172.94 203.706 172.787 203.767 172.695L218.446 146.162L214.085 145.394L195.199 171.497C195.199 171.497 194.954 171.681 194.831 171.62L147.017 158.691L144.621 160.687L189.518 175.489C189.518 175.489 189.733 175.643 189.764 175.796C189.794 175.95 189.702 176.073 189.58 176.134L145.45 201.807L148.03 203.803L194.984 179.942C195.138 179.85 195.353 179.942 195.445 180.096L215.744 215.841L220.074 214.981L203.89 178.591L203.921 178.56Z" fill="#221C3A"/>
<path d="M202.846 152.396V174.752C202.846 175.489 202.324 176.226 201.372 176.779C199.407 177.915 196.213 177.915 194.217 176.779C193.234 176.195 192.743 175.458 192.743 174.691V152.334L202.846 152.396Z" fill="#221C3A"/>
<path d="M194.063 177.086C192.988 176.472 192.405 175.612 192.405 174.691V152.334C192.405 152.334 192.435 152.15 192.497 152.089C192.558 152.027 192.65 151.997 192.743 151.997L202.846 152.058C203.03 152.058 203.184 152.212 203.184 152.396V174.752C203.184 175.643 202.57 176.472 201.525 177.086C200.481 177.669 199.13 177.977 197.779 177.977C196.428 177.977 195.076 177.669 194.032 177.086H194.063ZM193.111 152.703V174.691C193.111 175.336 193.572 175.98 194.401 176.472C196.274 177.547 199.314 177.547 201.188 176.472C202.017 175.98 202.477 175.366 202.508 174.752V152.764L193.111 152.703Z" fill="#221C3A"/>
<path d="M194.217 154.423C196.182 155.559 199.376 155.559 201.372 154.423C203.337 153.287 203.337 151.444 201.372 150.308C199.407 149.172 196.213 149.172 194.217 150.308C192.251 151.444 192.251 153.287 194.217 154.423Z" fill="#BEC7EE"/>
<path d="M203.491 148.68V155.098C203.491 155.927 202.907 156.757 201.833 157.401C199.621 158.691 195.998 158.691 193.787 157.401C192.65 156.757 192.098 155.897 192.128 155.037V148.619L203.522 148.68H203.491Z" fill="#221C3A"/>
<path d="M197.81 151.935C200.942 151.935 203.491 150.461 203.491 148.649C203.491 146.838 200.942 145.364 197.81 145.364C194.677 145.364 192.128 146.838 192.128 148.649C192.128 150.461 194.677 151.935 197.81 151.935Z" fill="#2B2633"/>
<path d="M201.403 128.873V148.281C201.403 148.803 201.034 149.325 200.358 149.724C198.946 150.523 196.673 150.523 195.261 149.724C194.554 149.325 194.186 148.772 194.217 148.25V128.842H201.433V128.873H201.403Z" fill="#6361C2"/>
<path d="M194.984 150.185C194.124 149.694 193.664 148.987 193.664 148.22V128.811C193.664 128.811 193.725 128.535 193.817 128.443C193.909 128.351 194.063 128.289 194.186 128.289H201.403C201.679 128.32 201.925 128.566 201.925 128.873V148.281C201.925 149.018 201.433 149.694 200.604 150.185C199.806 150.646 198.792 150.861 197.779 150.861C196.765 150.861 195.752 150.615 194.954 150.185H194.984ZM194.739 129.364V148.25C194.739 148.619 195.015 148.987 195.537 149.264C196.765 149.97 198.854 149.97 200.113 149.264C200.604 148.987 200.911 148.619 200.911 148.281V129.426H194.769L194.739 129.364Z" fill="#403D8B"/>
<path d="M195.261 130.316C196.673 131.114 198.946 131.114 200.358 130.316C201.771 129.518 201.771 128.197 200.358 127.368C198.946 126.569 196.673 126.569 195.261 127.368C193.848 128.166 193.848 129.487 195.261 130.316Z" fill="#6361C2"/>
<path d="M194.984 130.807C194.124 130.316 193.664 129.61 193.664 128.873C193.664 128.105 194.124 127.429 194.984 126.938C196.55 126.017 199.038 126.017 200.635 126.938C201.495 127.429 201.955 128.105 201.955 128.873C201.955 129.64 201.495 130.316 200.635 130.807C199.836 131.268 198.823 131.483 197.81 131.483C196.796 131.483 195.783 131.237 194.984 130.807ZM195.506 127.859C195.015 128.136 194.708 128.504 194.708 128.873C194.708 129.241 194.984 129.579 195.506 129.886C196.735 130.592 198.823 130.592 200.082 129.886C200.573 129.61 200.88 129.241 200.88 128.873C200.88 128.504 200.604 128.166 200.082 127.859C199.468 127.491 198.639 127.337 197.81 127.337C196.98 127.337 196.151 127.521 195.537 127.859H195.506Z" fill="#403D8B"/>
<path d="M202.784 161.885L200.788 160.718C200.174 160.35 199.775 159.551 199.775 158.446C199.775 156.173 201.372 153.44 203.337 152.304C204.32 151.72 205.241 151.69 205.886 152.058L207.882 153.225L202.815 161.885H202.784Z" fill="#2B2633"/>
<path d="M205.333 153.471C203.368 154.607 201.771 157.34 201.771 159.613C201.771 161.885 203.368 162.806 205.333 161.67C207.299 160.534 208.896 157.801 208.896 155.528C208.896 153.256 207.299 152.335 205.333 153.471Z" fill="#221C3A"/>
<path d="M205.333 155.16C204.197 155.835 203.245 157.432 203.245 158.753C203.245 160.073 204.166 160.626 205.333 159.95C206.47 159.275 207.422 157.678 207.422 156.357C207.422 155.037 206.5 154.484 205.333 155.16Z" fill="#8A91B8"/>
<path d="M176.528 82.1334C177.572 76.7286 186.509 70.8631 185.986 65.3969C185.065 55.8771 176.528 49.5817 186.232 34.4728C190.47 27.8703 197.318 15.5867 197.318 15.5867C199.499 16.7229 199.744 41.9044 198.332 53.0518C196.95 63.9843 190.316 95.6147 188.167 106.455C176.743 94.8777 175.484 87.4768 176.528 82.1334Z" fill="#4C4A91"/>
<path d="M187.921 106.701C175.546 94.1407 175.3 86.617 176.19 82.072C176.682 79.5539 178.831 76.9436 180.889 74.3948C183.346 71.3853 185.895 68.2836 185.618 65.4277C185.342 62.6946 184.482 60.2992 183.53 57.7197C181.257 51.5471 178.924 45.1289 185.895 34.2886C190.071 27.7783 196.919 15.556 196.981 15.4332C197.073 15.2489 197.288 15.1875 197.441 15.2796C200.051 16.6308 199.929 42.9793 198.639 53.1133C197.564 61.7119 193.234 83.0854 190.347 97.2424C189.58 101.02 188.935 104.244 188.474 106.547C188.474 106.67 188.351 106.793 188.136 106.824C188.044 106.824 187.952 106.793 187.891 106.731L187.921 106.701ZM186.509 34.6571C179.753 45.2211 182.025 51.455 184.206 57.474C185.127 59.9614 186.048 62.541 186.324 65.3356C186.632 68.4986 183.991 71.7231 181.442 74.8247C179.415 77.2814 177.327 79.8303 176.897 82.1949C176.037 86.5249 176.313 93.6801 187.983 105.718C188.413 103.476 189.027 100.498 189.733 97.0581C192.589 82.9319 196.919 61.589 197.994 52.9905C199.437 41.6281 199.007 19.0261 197.41 16.1702C196.182 18.3813 190.286 28.7917 186.539 34.6571H186.509Z" fill="#4C4A91"/>
<path d="M149.443 105.564C155.861 101.818 185.035 96.4744 190.624 95.6453C190.624 95.6453 139.862 141.863 136.975 132.957C134.702 126.017 135.685 113.61 149.473 105.564H149.443Z" fill="#221C3A"/>
<path d="M137.958 134.37C137.282 134.185 136.821 133.755 136.606 133.08C134.518 126.692 134.856 113.672 149.258 105.257C155.738 101.48 185.065 96.1061 190.562 95.3076C190.716 95.3076 190.869 95.369 190.931 95.4919C190.992 95.6454 190.931 95.799 190.839 95.9218C189.058 97.5494 148.399 134.462 138.695 134.462C138.418 134.462 138.172 134.462 137.958 134.37ZM149.596 105.872C135.593 114.04 135.255 126.692 137.251 132.834C137.405 133.264 137.681 133.541 138.111 133.663C144.253 135.26 173.857 110.294 189.457 96.1982C181.872 97.4265 155.615 102.371 149.596 105.872Z" fill="#4C4A91"/>
<path d="M137.098 130.255C138.111 127.951 139.524 125.618 141.305 123.621C142.656 122.086 144.191 120.766 145.942 119.752C146.218 119.599 146.495 119.445 146.802 119.291L176.436 104.09L189.395 94.9391C189.395 94.9391 189.672 94.7549 189.794 94.6627C190.808 94.0793 191.729 94.0178 192.405 94.4171L246.207 125.648C245.532 125.249 244.61 125.31 243.597 125.894C243.474 125.986 243.32 126.047 243.198 126.17L230.238 135.322L200.604 150.523C200.328 150.676 200.021 150.83 199.744 150.983C197.994 151.997 196.458 153.317 195.107 154.853C193.357 156.879 191.944 159.213 190.9 161.486C188.72 166.399 188.351 171.098 190.163 172.173L136.361 140.941C134.549 139.897 134.917 135.168 137.098 130.255Z" fill="#6361C2"/>
<path d="M189.917 172.633L136.115 141.402C133.75 140.02 134.579 134.646 136.637 130.04C137.742 127.521 139.216 125.188 140.905 123.253C142.349 121.595 143.976 120.243 145.665 119.261C145.942 119.076 146.249 118.923 146.525 118.8L176.098 103.63L189.057 94.4784C189.211 94.3862 189.364 94.2634 189.487 94.202C190.654 93.5264 191.791 93.4342 192.65 93.9563L246.453 125.188C246.698 125.341 246.791 125.679 246.637 125.925C246.484 126.17 246.146 126.262 245.9 126.109C245.378 125.802 244.61 125.894 243.812 126.354C243.689 126.416 243.566 126.508 243.443 126.6L230.423 135.782L200.788 150.983C200.512 151.106 200.236 151.26 199.959 151.413C198.362 152.334 196.858 153.593 195.476 155.16C193.848 157.002 192.435 159.244 191.361 161.67C189.15 166.706 189.088 170.883 190.409 171.681C190.654 171.835 190.746 172.173 190.593 172.418C190.501 172.602 190.316 172.695 190.132 172.695C190.04 172.695 189.948 172.695 189.856 172.633H189.917ZM192.128 94.8776C191.606 94.5705 190.839 94.6626 190.04 95.1233C189.917 95.1847 189.794 95.2768 189.672 95.3689L176.651 104.551L147.017 119.752C146.74 119.875 146.464 120.028 146.187 120.182C144.591 121.103 143.086 122.362 141.704 123.928C140.076 125.771 138.664 128.013 137.589 130.439C135.378 135.475 135.316 139.652 136.637 140.45L188.627 170.637C188.105 168.303 188.935 164.587 190.409 161.271C191.514 158.753 192.988 156.419 194.708 154.484C196.151 152.826 197.779 151.475 199.468 150.492C199.744 150.308 200.051 150.154 200.328 150.031L229.901 134.861L242.86 125.71C243.013 125.617 243.167 125.495 243.32 125.433C243.597 125.28 243.873 125.157 244.15 125.065L192.159 94.8776H192.128Z" fill="#403D8B"/>
<path d="M199.714 150.983C189.119 157.094 185.526 176.011 192.865 171.773L242 143.429C244.917 141.74 247.282 137.656 247.251 134.308V128.013C247.251 125.648 245.532 124.758 243.535 125.894C243.413 125.986 243.259 126.048 243.136 126.17L230.177 135.322L200.543 150.523C200.266 150.676 199.959 150.83 199.683 150.983H199.714Z" fill="#231E22"/>
<path d="M189.887 164.219C187.399 157.555 194.217 147.482 209.479 138.331C215.682 134.615 235.152 127.675 242.952 126.324L243.167 126.17C243.167 126.17 243.443 125.986 243.566 125.894C245.562 124.727 247.251 125.648 247.251 128.013V134.308C247.251 137.655 244.917 141.74 242 143.429L192.865 171.773C188.935 174.015 188.136 169.685 189.856 164.219H189.887Z" fill="#231E22"/>
<path d="M189.887 164.219C187.399 157.555 194.217 147.482 209.479 138.331C215.682 134.615 235.152 127.675 242.952 126.324L243.167 126.17C243.167 126.17 243.443 125.986 243.566 125.894C245.562 124.727 247.251 125.648 247.251 128.013V134.308C247.251 137.655 244.917 141.74 242 143.398L192.865 171.743C188.935 173.984 188.136 169.654 189.856 164.188L189.887 164.219Z" fill="#221C3A"/>
<path d="M189.764 172.326C188.382 171.221 188.29 168.15 189.487 164.25C186.939 157.064 194.677 146.807 209.264 138.055C215.375 134.4 234.753 127.429 242.921 125.925C243.075 125.832 243.228 125.74 243.351 125.648C244.457 125.034 245.501 124.911 246.33 125.403C247.128 125.863 247.589 126.815 247.589 128.074V134.37C247.589 137.84 245.194 142.047 242.154 143.797L193.019 172.142C192.19 172.633 191.514 172.787 190.992 172.787C190.439 172.787 190.009 172.603 189.733 172.357L189.764 172.326ZM243.75 126.232C243.75 126.232 243.505 126.385 243.382 126.477C243.382 126.477 243.167 126.631 243.044 126.692C235.121 128.074 215.774 135.015 209.694 138.669C195.322 147.298 187.676 157.279 190.255 164.127C190.255 164.188 190.255 164.28 190.255 164.372C189.15 167.935 189.119 170.914 190.255 171.804C190.931 172.357 192.006 171.958 192.743 171.497L241.877 143.152C244.672 141.525 246.975 137.594 246.944 134.37V128.074C246.944 127.092 246.606 126.355 246.023 126.017C245.777 125.894 245.532 125.802 245.225 125.802C244.795 125.802 244.273 125.955 243.75 126.262V126.232Z" fill="#221C3A"/>
<path d="M239.789 126.846L187.706 96.5974C187.706 96.5974 187.86 96.751 187.952 96.7817L240.035 127.03C240.035 127.03 239.881 126.907 239.789 126.846Z" fill="#6361C2"/>
<path d="M240.004 127.552C240.188 127.552 240.372 127.46 240.465 127.307C240.618 127.061 240.526 126.723 240.28 126.57C240.25 126.508 240.096 126.385 240.035 126.385L187.952 96.1368C187.737 96.014 187.43 96.0447 187.276 96.2596C187.092 96.4439 187.092 96.751 187.276 96.9352C187.369 97.0581 187.522 97.1809 187.645 97.2423L239.728 127.491C239.728 127.491 239.912 127.552 240.004 127.552Z" fill="#403D8B"/>
<path d="M205.272 32.2617L257.355 62.5102L253.424 62.2031L201.341 31.9546C203.03 31.5247 204.32 31.7089 205.272 32.2617Z" fill="#221C3A"/>
<path d="M257.324 62.848C257.324 62.848 253.393 62.5409 253.24 62.5102L201.157 32.2617C201.157 32.2617 200.973 32.0468 200.973 31.8932C200.973 31.7397 201.095 31.6475 201.249 31.5861C202.907 31.1562 204.32 31.279 205.425 31.9239L257.508 62.1724C257.508 62.1724 257.723 62.4181 257.662 62.6024C257.6 62.7559 257.477 62.848 257.324 62.848ZM202.324 32.1082L253.516 61.8346L255.788 62.0189L205.026 32.5688C204.473 32.231 203.798 32.0775 203.03 32.0775C202.785 32.0775 202.539 32.0775 202.262 32.1389L202.324 32.1082Z" fill="#221C3A"/>
<path d="M187.46 95.2155L198.178 33.3979L250.261 63.6465L239.543 125.464C239.451 126.047 239.543 126.539 239.758 126.846L187.675 96.5974C187.43 96.2903 187.338 95.7989 187.46 95.2155Z" fill="#6361C2"/>
<path d="M239.513 127.306L187.43 97.0579C187.43 97.0579 187.307 96.9658 187.276 96.9351C186.939 96.4745 186.816 95.8603 186.939 95.1233L197.656 33.3058C197.656 33.1215 197.81 32.9987 197.963 32.9065C198.117 32.8144 198.301 32.8451 198.455 32.9065L250.537 63.1551C250.722 63.2779 250.844 63.4928 250.783 63.7078L240.065 125.525C239.973 125.955 240.065 126.293 240.188 126.477C240.342 126.692 240.342 126.969 240.188 127.153C240.096 127.276 239.943 127.337 239.789 127.337C239.697 127.337 239.605 127.337 239.513 127.276V127.306ZM198.577 34.227L187.983 95.3075C187.921 95.676 187.952 95.9831 188.044 96.1981L238.96 125.771C238.96 125.771 238.96 125.495 239.021 125.372L249.677 63.9228L198.577 34.2577V34.227Z" fill="#403D8B"/>
<path d="M196.765 5.75967C197.011 5.23762 197.318 4.71556 197.687 4.28563C197.963 3.97854 198.239 3.73287 198.547 3.5179L201.433 1.64464C201.433 1.64464 201.617 1.55252 201.679 1.4911C202.139 1.21472 202.631 1.03046 203.276 0.754079C203.828 0.508406 204.32 0.508406 204.688 0.754079L256.771 31.0026C256.403 30.7876 255.911 30.7876 255.358 31.0026C254.714 31.279 254.253 31.4632 253.762 31.7396C253.669 31.801 253.608 31.8317 253.516 31.8932L250.629 33.7664C250.322 33.9814 250.015 34.2271 249.769 34.5341C249.401 34.9641 249.063 35.4554 248.848 36.0082C248.541 36.6838 248.387 37.3901 248.449 38.0043L221.271 24.2159L196.366 7.78647C196.335 7.17229 196.489 6.46598 196.765 5.79038V5.75967Z" fill="#6361C2"/>
<path d="M248.234 38.4957L220.995 24.6458L196.09 8.21643C196.09 8.21643 195.875 7.97076 195.844 7.81721C195.783 7.1109 195.936 6.34317 196.305 5.57544C196.551 4.99197 196.919 4.4392 197.318 3.97857C197.625 3.64077 197.963 3.33368 198.301 3.11871L201.249 1.21474C201.249 1.21474 201.403 1.12262 201.464 1.09191C201.863 0.846234 202.262 0.692688 202.754 0.477724L203.122 0.324179C203.829 0.0170871 204.504 0.0477963 205.026 0.324179C205.026 0.324179 257.109 30.5727 257.14 30.5727C257.385 30.7262 257.477 31.064 257.324 31.3097C257.17 31.5554 256.833 31.6475 256.587 31.494C256.372 31.3404 256.034 31.3711 255.666 31.5247L255.236 31.7089C254.806 31.8932 254.468 32.016 254.13 32.231C254.069 32.2617 253.977 32.3231 253.915 32.3845L251.029 34.2578C250.752 34.442 250.507 34.657 250.261 34.9334C249.923 35.3326 249.616 35.7932 249.432 36.2539C249.155 36.8681 249.032 37.4823 249.063 38.0043C249.063 38.1886 248.971 38.3728 248.818 38.4957C248.725 38.5571 248.633 38.5878 248.51 38.5878C248.418 38.5878 248.326 38.5878 248.265 38.5264L248.234 38.4957ZM204.443 1.24545C204.228 1.12262 203.89 1.12262 203.491 1.27616L203.122 1.42971C202.692 1.61396 202.324 1.76751 201.955 1.98247L198.854 3.97857C198.577 4.16282 198.332 4.37779 198.086 4.65417C197.748 5.05339 197.472 5.48332 197.257 5.97466C197.042 6.49672 196.888 7.01877 196.888 7.4487L221.517 23.6938L247.958 37.1445C248.019 36.7145 248.173 36.2539 248.357 35.7625C248.603 35.1791 248.971 34.6263 249.37 34.1657C249.677 33.8279 250.015 33.5208 250.353 33.3058L253.24 31.4325C253.24 31.4325 253.424 31.3097 253.516 31.2483C253.915 31.0333 254.284 30.8491 254.744 30.6648L255.021 30.542L204.443 1.21474V1.24545Z" fill="#403D8B"/>
<path d="M248.449 38.0044L250.261 63.6158L198.178 33.3673L196.366 7.75586L248.449 38.0044Z" fill="#6361C2"/>
<path d="M250.015 64.0764L197.932 33.8279C197.779 33.7357 197.687 33.5822 197.656 33.3979L195.844 7.78652C195.844 7.60226 195.936 7.3873 196.09 7.29517C196.274 7.20304 196.458 7.20304 196.643 7.29517L248.725 37.5437C248.879 37.6358 248.971 37.7894 249.002 37.9736L250.814 63.585C250.814 63.7693 250.721 63.9843 250.568 64.0764C250.476 64.1378 250.384 64.1685 250.292 64.1685C250.199 64.1685 250.107 64.1685 250.015 64.1071V64.0764ZM196.98 8.7385L198.7 33.0601L249.677 62.6638L247.958 38.3421L196.98 8.7385Z" fill="#403D8B"/>
<path d="M235.09 114.47C237.793 105.964 243.228 100.958 242.891 95.4918C242.307 85.972 236.841 79.6766 243.044 64.5677C245.317 59.0094 248.142 48.7832 249.002 45.6509L248.449 38.0043C248.357 36.561 249.34 34.657 250.66 33.7664L253.547 31.8932C253.547 31.8932 253.7 31.801 253.792 31.7396C254.284 31.4632 254.744 31.279 255.389 31.0026C256.249 30.6341 256.955 30.8491 257.293 31.5247L261.193 47.217C261.623 53.9423 257.416 59.3472 253.424 62.1724C256.28 61.4661 257.938 62.4181 258.89 64.0764C259.934 65.8575 260.088 68.5292 259.566 71.3851L250.814 121.81C250.629 122.823 249.923 123.867 249.125 124.328C249.002 124.42 248.848 124.481 248.725 124.512L243.904 126.047C233.401 131.944 233.432 119.476 235.06 114.409L235.09 114.47Z" fill="#221C3A"/>
<path d="M236.319 127.03C233.156 124.451 233.739 117.51 234.753 114.347C235.95 110.601 237.67 107.53 239.175 104.828C241.079 101.419 242.737 98.4707 242.553 95.4919C242.369 92.7588 241.816 90.3328 241.232 87.7532C239.789 81.6114 238.315 75.2239 242.737 64.4143C245.01 58.8559 247.835 48.6912 248.664 45.6203L248.142 38.0351C248.019 36.4382 249.063 34.4421 250.507 33.4902L253.393 31.6169C253.393 31.6169 253.577 31.4941 253.67 31.4326C254.069 31.2177 254.437 31.0641 254.867 30.8492L255.297 30.6649C256.28 30.235 257.232 30.4807 257.692 31.4019L261.593 47.1557C261.961 53.3283 258.522 58.4567 254.806 61.5583C256.802 61.4048 258.276 62.2032 259.259 63.8615C260.272 65.5812 260.548 68.2836 259.996 71.416L251.244 121.84C251.059 122.946 250.261 124.113 249.401 124.604C249.247 124.696 249.094 124.758 248.94 124.819L244.18 126.324C242.276 127.399 240.618 127.921 239.206 127.921C238.1 127.921 237.179 127.614 236.38 126.969L236.319 127.03ZM253.516 62.5103C253.332 62.5717 253.178 62.4796 253.117 62.326C253.055 62.1725 253.117 61.9882 253.24 61.8961C257.17 59.0709 261.255 53.7275 260.856 47.3093L256.986 31.709C256.741 31.2177 256.188 31.0948 255.543 31.3712L255.113 31.5555C254.683 31.7397 254.314 31.8933 253.977 32.0775C253.885 32.1082 253.823 32.1697 253.731 32.2311L250.844 34.1043C249.647 34.9028 248.695 36.6839 248.787 38.0044C248.787 38.0044 249.309 45.651 249.309 45.7738C248.48 48.7833 245.655 59.0709 243.351 64.7214C238.991 75.316 240.465 81.5807 241.877 87.6304C242.461 90.1178 243.044 92.6667 243.228 95.4919C243.413 98.6857 241.724 101.726 239.789 105.227C238.284 107.898 236.595 110.939 235.428 114.624C234.292 118.125 234.139 124.389 236.78 126.539C238.315 127.798 240.68 127.583 243.843 125.802L248.664 124.266C248.664 124.266 248.879 124.174 249.002 124.113C249.708 123.714 250.353 122.731 250.507 121.84L259.259 71.416C259.781 68.4372 259.535 65.919 258.614 64.3221C257.846 63.0016 256.71 62.3568 255.205 62.3568C254.683 62.3568 254.13 62.4489 253.516 62.5717V62.5103Z" fill="#221C3A"/>
<path d="M207.944 155.344C208.988 152.979 210.431 150.738 212.089 148.803C213.502 147.175 215.099 145.824 216.788 144.842L245.132 128.474C246.391 127.767 247.528 127.675 248.326 128.166L250.261 129.303C249.432 128.811 248.295 128.903 247.067 129.61L218.722 145.978C217.033 146.96 215.437 148.312 214.024 149.939C212.335 151.843 210.922 154.116 209.878 156.48C208.711 159.152 208.005 161.947 208.005 164.557C208.005 164.772 208.066 164.925 208.189 164.987L206.255 163.851C206.255 163.851 206.07 163.636 206.07 163.421C206.07 160.841 206.746 158.016 207.944 155.344Z" fill="#6361C2"/>
<path d="M218.722 145.978L247.067 129.61C249.554 128.166 251.581 129.333 251.581 132.158V139.344C251.581 139.774 251.305 140.266 250.936 140.481L208.65 164.894C208.281 165.109 208.005 164.925 208.005 164.495C208.005 157.678 212.796 149.386 218.722 145.947V145.978Z" fill="#221C3A"/>
<path d="M208.036 165.263C207.79 165.14 207.667 164.864 207.667 164.526C207.667 157.586 212.55 149.141 218.569 145.671L246.914 129.303C248.234 128.535 249.493 128.443 250.476 128.996C251.428 129.548 251.981 130.685 251.981 132.189V139.375C251.981 139.928 251.643 140.542 251.151 140.819L208.865 165.232C208.711 165.324 208.558 165.355 208.404 165.355C208.281 165.355 208.159 165.355 208.066 165.263H208.036ZM247.251 129.917L218.907 146.285C213.072 149.663 208.343 157.831 208.496 164.587L250.783 140.174C251.029 140.02 251.274 139.621 251.274 139.345V132.159C251.274 130.93 250.844 130.009 250.107 129.579C249.8 129.395 249.462 129.333 249.094 129.333C248.541 129.333 247.896 129.518 247.251 129.917Z" fill="#221C3A"/>
<path d="M182.854 194.406C183.069 193.423 183.161 192.41 183.284 191.396L192.62 192.287C191.238 198.92 192.036 203.987 191.176 212.494C191.023 213.998 190.961 215.687 189.702 216.639C187.675 218.144 180.121 218.574 177.787 216.117C173.365 211.48 181.718 200.241 182.885 194.406H182.854Z" fill="#EAA510"/>
<path d="M183.161 192.226C183.376 191.243 183.468 190.229 183.591 189.216L192.927 190.107C191.545 196.74 192.343 201.807 191.483 210.313C191.33 211.818 191.268 213.507 190.009 214.459C187.983 215.964 180.428 216.394 178.094 213.937C173.672 209.3 182.025 198.06 183.192 192.226H183.161Z" fill="#221C3A"/>
<path d="M130.495 124.727C139.677 115.637 162.463 118.892 186.201 106.179L223.943 116.712C226.369 121.318 223.759 126.017 221.148 130.285C219.859 132.404 218.569 134.523 216.788 136.489C211.107 142.753 197.871 152.734 197.871 152.734C198.055 153.931 201.525 157.279 196.765 166.338C194.8 170.084 193.664 171.927 193.203 177.301C192.896 179.266 181.595 178.806 181.227 175.643C180.919 173.063 181.626 168.948 180.643 163.144C179.814 158.077 177.848 150.369 178.278 149.264C180.95 142.446 194.8 127.307 193.725 126.815C192.681 126.324 161.726 132.251 148.92 132.804C156.905 139.283 151.991 144.35 153.189 149.141C153.773 151.536 155.431 156.296 155.431 156.296C155.953 158.753 142.011 159.582 141.55 157.371C140.291 151.321 137.282 147.728 133.597 138.178C131.508 132.681 126.288 128.903 130.434 124.819L130.495 124.727Z" fill="#221C3A"/>
<path d="M197.195 199.135C197.195 204.386 197.902 209.238 197.871 216.424C197.871 217.254 197.871 218.144 197.748 218.973C197.748 220.539 197.779 222.259 196.704 223.365C194.892 225.177 187.645 226.405 185.157 224.04C183.622 222.566 183.346 220.14 183.714 217.376C183.53 211.665 187.584 203.127 188.167 198.183C188.167 197.784 188.198 197.415 188.198 197.016C187.921 196.648 187.737 196.218 187.676 195.696C187.491 194.252 187.399 192.41 187.307 190.23L152.422 204.233V205.738C152.422 206.874 151.623 208.256 150.64 208.809C150.272 209.024 149.934 209.054 149.627 208.993C149.443 209.085 149.289 209.208 149.105 209.269C148.89 209.331 148.675 209.331 148.491 209.331C147.938 209.331 147.539 209.116 147.385 209.024L147.109 208.87C146.372 208.409 146.034 207.734 145.973 207.027L145.788 206.905C145.481 206.72 145.266 206.321 145.266 205.768V203.957L144.806 203.619V201.838L178.924 181.969C186.232 186.79 192.159 192.686 197.195 199.227V199.135Z" fill="#221C3A"/>
<path d="M184.912 224.286C183.438 222.873 182.946 220.601 183.346 217.346C183.223 213.906 184.574 209.638 185.895 205.492C186.754 202.728 187.584 200.087 187.829 198.122C187.829 197.937 187.829 197.753 187.829 197.569C187.829 197.385 187.829 197.231 187.829 197.047C187.553 196.617 187.369 196.156 187.307 195.665C187.123 194.314 187.061 192.625 186.969 190.69L152.79 204.417V205.707C152.79 206.966 151.93 208.471 150.855 209.085C150.487 209.3 150.088 209.361 149.658 209.361C149.535 209.423 149.381 209.515 149.228 209.546C148.982 209.607 148.767 209.638 148.552 209.607C147.907 209.607 147.447 209.331 147.262 209.238L146.986 209.085C146.28 208.655 145.85 207.979 145.666 207.119C145.205 206.874 144.959 206.352 144.959 205.676V204.018L144.652 203.772C144.652 203.772 144.529 203.588 144.529 203.496V201.715C144.529 201.715 144.591 201.469 144.683 201.408L178.801 181.539C178.801 181.539 179.077 181.477 179.169 181.539C186.017 186.053 192.036 191.704 197.503 198.859C197.564 198.92 197.564 199.012 197.564 199.074C197.564 201.469 197.718 203.834 197.871 206.321C198.055 209.208 198.27 212.494 198.24 216.363V216.639C198.24 217.407 198.24 218.205 198.117 219.096C198.117 220.662 198.117 222.413 196.95 223.58C195.752 224.777 192.62 225.668 189.764 225.668C187.798 225.668 185.956 225.269 184.912 224.255V224.286ZM178.954 182.276L145.205 201.93V203.342L145.543 203.588C145.635 203.649 145.666 203.772 145.666 203.864V205.676C145.666 206.075 145.788 206.382 146.003 206.505L146.188 206.628C146.188 206.628 146.341 206.782 146.372 206.905C146.464 207.611 146.802 208.133 147.355 208.501L147.631 208.655C147.631 208.655 148.122 208.901 148.583 208.931C148.736 208.931 148.921 208.931 149.074 208.87C149.136 208.87 149.228 208.808 149.289 208.747C149.351 208.716 149.443 208.655 149.504 208.624C149.596 208.594 149.658 208.594 149.75 208.624C149.996 208.686 150.241 208.624 150.487 208.501C151.347 208.01 152.084 206.751 152.084 205.738V204.233C152.084 204.233 152.176 203.956 152.299 203.895L187.184 189.892C187.184 189.892 187.43 189.861 187.522 189.892C187.614 189.953 187.676 190.076 187.676 190.168V190.567C187.798 192.533 187.86 194.222 188.044 195.573C188.106 196.003 188.259 196.371 188.536 196.74C188.566 196.801 188.597 196.893 188.597 196.955C188.597 197.17 188.597 197.385 188.597 197.6C188.597 197.784 188.597 197.937 188.597 198.152C188.351 200.241 187.522 202.882 186.632 205.676C185.403 209.576 184.021 213.968 184.144 217.346C183.745 220.386 184.206 222.474 185.495 223.733C187.768 225.914 194.739 224.869 196.551 223.088C197.503 222.136 197.503 220.601 197.503 219.096V218.881C197.625 218.175 197.625 217.407 197.625 216.639V216.363C197.625 212.494 197.441 209.238 197.257 206.352C197.103 203.895 196.95 201.561 196.95 199.197C191.576 192.226 185.71 186.667 179.046 182.245L178.954 182.276Z" fill="#221C3A"/>
<path d="M248.695 36.5609C248.756 36.3152 248.848 36.1002 248.971 35.8853C248.817 36.1923 248.756 36.3766 248.695 36.5609Z" fill="#221C3A"/>
<path d="M249.8 34.5648C250.046 34.2885 250.353 34.0121 250.691 33.7971C250.384 34.0121 250.076 34.2578 249.8 34.5648Z" fill="#221C3A"/>
<path d="M249.616 129.057C249.616 129.057 249.8 129.118 249.892 129.149C249.8 129.118 249.708 129.057 249.616 129.057Z" fill="#221C3A"/>
<path d="M49.5764 194.099L110.718 158.538V97.365L49.5764 132.926V194.099Z" fill="#B1A2A2"/>
<path d="M168.513 259.755L229.655 224.194V163.021L168.513 198.582V259.755Z" fill="#F7E9E9"/>
<path d="M164.859 257.636L168.513 259.755V198.582L164.859 196.463V257.636Z" fill="#DDCDCC"/>
<path d="M46.4441 192.533L50.0985 194.652V133.479L46.4441 131.36V192.533Z" fill="#DDCDCC"/>
<path d="M168.513 196.187L243.842 152.457V156.941L168.513 200.671V196.187Z" fill="#FFF8F8"/>
<path d="M39.6575 129.272L168.544 200.64V196.156L39.6575 124.819V129.303V129.272Z" fill="#EADCDB"/>
<path d="M168.513 196.187L243.843 152.457L114.956 81.0891L39.6267 124.819L168.513 196.187Z" fill="#6361C2"/>
<g style="mix-blend-mode:multiply">
<path d="M144.744 148.649L167.039 125.802L176.927 131.514L153.22 145.947V148.68H144.744V148.649Z" fill="black" fill-opacity="0.2"/>
</g>
<g style="mix-blend-mode:multiply">
<path d="M156.874 134.984L185.188 111.614L199.928 116.712L179.445 128.78L156.874 134.953V134.984Z" fill="black" fill-opacity="0.2"/>
</g>
<g style="mix-blend-mode:multiply">
<path d="M123.309 124.758L152.513 100.682L164.183 107.253L145.88 118.585L123.309 124.758Z" fill="black" fill-opacity="0.2"/>
</g>
<path d="M144.775 147.882L101.352 122.669V123.437L144.775 148.649V147.882Z" fill="#EADCDB"/>
<path d="M175.208 129.456L131.785 104.244L101.383 121.779L144.806 146.991L175.208 129.456Z" fill="#FFF8F8"/>
<g opacity="0.2">
<path d="M133.873 119.384L147.815 127.429C148.122 127.614 148.644 127.614 148.951 127.429L158.195 122.117C158.502 121.932 158.502 121.656 158.195 121.472L144.253 113.426C143.946 113.242 143.424 113.242 143.117 113.426L133.873 118.739C133.566 118.923 133.566 119.199 133.873 119.384Z" fill="#EADCDB"/>
</g>
<path d="M155.155 135.844L156.721 134.922C156.905 134.83 157.212 134.83 157.396 134.922L159.27 135.997C159.454 136.089 159.454 136.274 159.27 136.366L157.703 137.287C157.519 137.379 157.212 137.379 157.028 137.287L155.155 136.212C154.97 136.12 154.97 135.936 155.155 135.844ZM152.114 134.462L153.988 135.537C154.172 135.629 154.479 135.629 154.663 135.537L156.229 134.615C156.414 134.523 156.414 134.339 156.229 134.247L154.356 133.172C154.172 133.08 153.865 133.08 153.681 133.172L152.114 134.093C151.93 134.185 151.93 134.37 152.114 134.462ZM149.074 132.711L150.947 133.786C151.132 133.878 151.439 133.878 151.623 133.786L153.189 132.865C153.373 132.773 153.373 132.588 153.189 132.496L151.316 131.421C151.132 131.329 150.825 131.329 150.64 131.421L149.074 132.343C148.89 132.435 148.89 132.619 149.074 132.711ZM146.034 130.961L147.907 132.036C148.091 132.128 148.399 132.128 148.583 132.036L150.149 131.114C150.333 131.022 150.333 130.838 150.149 130.746L148.276 129.671C148.091 129.579 147.784 129.579 147.6 129.671L146.034 130.592C145.85 130.684 145.85 130.869 146.034 130.961ZM142.994 129.21L144.867 130.285C145.051 130.377 145.358 130.377 145.543 130.285L147.109 129.364C147.293 129.272 147.293 129.088 147.109 128.995L145.236 127.921C145.051 127.829 144.744 127.829 144.56 127.921L142.994 128.842C142.81 128.934 142.81 129.118 142.994 129.21ZM139.954 127.46L141.827 128.535C142.011 128.627 142.318 128.627 142.502 128.535L144.069 127.614C144.253 127.521 144.253 127.337 144.069 127.245L142.195 126.17C142.011 126.078 141.704 126.078 141.52 126.17L139.954 127.091C139.769 127.184 139.769 127.368 139.954 127.46ZM136.913 125.71L138.787 126.784C138.971 126.877 139.278 126.877 139.462 126.784L141.028 125.863C141.213 125.771 141.213 125.587 141.028 125.495L139.155 124.42C138.971 124.328 138.664 124.328 138.48 124.42L136.913 125.341C136.729 125.433 136.729 125.617 136.913 125.71ZM133.873 123.959L135.746 125.034C135.931 125.126 136.238 125.126 136.422 125.034L137.988 124.113C138.172 124.021 138.172 123.836 137.988 123.744L136.115 122.669C135.931 122.577 135.624 122.577 135.439 122.669L133.873 123.591C133.689 123.683 133.689 123.867 133.873 123.959ZM130.833 122.209L132.706 123.284C132.89 123.376 133.198 123.376 133.382 123.284L134.948 122.362C135.132 122.27 135.132 122.086 134.948 121.994L133.075 120.919C132.89 120.827 132.583 120.827 132.399 120.919L130.833 121.84C130.649 121.932 130.649 122.117 130.833 122.209ZM126.81 119.906L129.666 121.564C129.85 121.656 130.157 121.656 130.342 121.564L131.908 120.643C132.092 120.55 132.092 120.366 131.908 120.274L129.052 118.616C128.868 118.524 128.56 118.524 128.376 118.616L126.81 119.537C126.626 119.629 126.626 119.813 126.81 119.906ZM115.417 122.946L117.29 124.021C117.474 124.113 117.782 124.113 117.966 124.021L119.532 123.099C119.716 123.007 119.716 122.823 119.532 122.731L117.659 121.656C117.474 121.564 117.167 121.564 116.983 121.656L115.417 122.577C115.233 122.669 115.233 122.854 115.417 122.946ZM112.377 121.195L114.25 122.27C114.434 122.362 114.741 122.362 114.926 122.27L116.492 121.349C116.676 121.257 116.676 121.073 116.492 120.98L114.618 119.906C114.434 119.813 114.127 119.813 113.943 119.906L112.377 120.827C112.192 120.919 112.192 121.103 112.377 121.195ZM109.337 119.445L111.21 120.52C111.394 120.612 111.701 120.612 111.885 120.52L113.452 119.598C113.636 119.506 113.636 119.322 113.452 119.23L111.578 118.155C111.394 118.063 111.087 118.063 110.903 118.155L109.337 119.076C109.152 119.169 109.152 119.353 109.337 119.445ZM112.622 124.543L114.496 125.617C114.68 125.71 114.987 125.71 115.171 125.617L116.737 124.696C116.922 124.604 116.922 124.42 116.737 124.328L114.864 123.253C114.68 123.161 114.373 123.161 114.189 123.253L112.622 124.174C112.438 124.266 112.438 124.451 112.622 124.543ZM109.582 122.792L111.455 123.867C111.64 123.959 111.947 123.959 112.131 123.867L113.697 122.946C113.881 122.854 113.881 122.669 113.697 122.577L111.824 121.502C111.64 121.41 111.333 121.41 111.148 121.502L109.582 122.424C109.398 122.516 109.398 122.7 109.582 122.792ZM106.542 121.042L108.415 122.117C108.6 122.209 108.907 122.209 109.091 122.117L110.657 121.195C110.841 121.103 110.841 120.919 110.657 120.827L108.784 119.752C108.6 119.66 108.292 119.66 108.108 119.752L106.542 120.673C106.358 120.765 106.358 120.95 106.542 121.042ZM151.224 137.256L154.08 138.915C154.264 139.007 154.571 139.007 154.755 138.915L156.322 137.993C156.506 137.901 156.506 137.717 156.322 137.625L153.466 135.966C153.281 135.874 152.974 135.874 152.79 135.966L151.224 136.888C151.04 136.98 151.04 137.164 151.224 137.256ZM148.184 135.506L150.057 136.581C150.241 136.673 150.548 136.673 150.732 136.581L152.299 135.659C152.483 135.567 152.483 135.383 152.299 135.291L150.425 134.216C150.241 134.124 149.934 134.124 149.75 134.216L148.184 135.137C147.999 135.229 147.999 135.414 148.184 135.506ZM145.143 133.755L147.017 134.83C147.201 134.922 147.508 134.922 147.692 134.83L149.258 133.909C149.443 133.817 149.443 133.633 149.258 133.54L147.385 132.466C147.201 132.373 146.894 132.373 146.71 132.466L145.143 133.387C144.959 133.479 144.959 133.663 145.143 133.755ZM142.103 132.005L143.976 133.08C144.161 133.172 144.468 133.172 144.652 133.08L146.218 132.159C146.402 132.066 146.402 131.882 146.218 131.79L144.345 130.715C144.161 130.623 143.854 130.623 143.669 130.715L142.103 131.636C141.919 131.729 141.919 131.913 142.103 132.005ZM139.063 130.255L140.936 131.329C141.12 131.421 141.428 131.421 141.612 131.329L143.178 130.408C143.362 130.316 143.362 130.132 143.178 130.04L141.305 128.965C141.121 128.873 140.813 128.873 140.629 128.965L139.063 129.886C138.879 129.978 138.879 130.162 139.063 130.255ZM136.023 128.504L137.896 129.579C138.08 129.671 138.387 129.671 138.572 129.579L140.138 128.658C140.322 128.566 140.322 128.381 140.138 128.289L138.265 127.214C138.08 127.122 137.773 127.122 137.589 127.214L136.023 128.136C135.839 128.228 135.839 128.412 136.023 128.504ZM132.983 126.754L134.856 127.829C135.04 127.921 135.347 127.921 135.531 127.829L137.098 126.907C137.282 126.815 137.282 126.631 137.098 126.539L135.224 125.464C135.04 125.372 134.733 125.372 134.549 125.464L132.983 126.385C132.798 126.477 132.798 126.662 132.983 126.754ZM129.942 125.003L131.816 126.078C132 126.17 132.307 126.17 132.491 126.078L134.057 125.157C134.242 125.065 134.242 124.88 134.057 124.788L132.184 123.713C132 123.621 131.693 123.621 131.509 123.713L129.942 124.635C129.758 124.727 129.758 124.911 129.942 125.003ZM126.902 123.253L128.775 124.328C128.96 124.42 129.267 124.42 129.451 124.328L131.017 123.406C131.201 123.314 131.201 123.13 131.017 123.038L129.144 121.963C128.96 121.871 128.653 121.871 128.468 121.963L126.902 122.884C126.718 122.976 126.718 123.161 126.902 123.253ZM123.862 121.502L125.735 122.577C125.919 122.669 126.227 122.669 126.411 122.577L127.977 121.656C128.161 121.564 128.161 121.38 127.977 121.287L126.104 120.213C125.919 120.121 125.612 120.121 125.428 120.213L123.862 121.134C123.678 121.226 123.678 121.41 123.862 121.502ZM149.443 139.406L151.316 140.481C151.5 140.573 151.807 140.573 151.992 140.481L153.558 139.559C153.742 139.467 153.742 139.283 153.558 139.191L151.684 138.116C151.5 138.024 151.193 138.024 151.009 138.116L149.443 139.037C149.258 139.129 149.258 139.314 149.443 139.406ZM146.402 137.655L148.276 138.73C148.46 138.822 148.767 138.822 148.951 138.73L150.518 137.809C150.702 137.717 150.702 137.533 150.518 137.44L148.644 136.366C148.46 136.274 148.153 136.274 147.969 136.366L146.402 137.287C146.218 137.379 146.218 137.563 146.402 137.655ZM143.362 135.905L145.236 136.98C145.42 137.072 145.727 137.072 145.911 136.98L147.477 136.059C147.662 135.966 147.662 135.782 147.477 135.69L145.604 134.615C145.42 134.523 145.113 134.523 144.928 134.615L143.362 135.537C143.178 135.629 143.178 135.813 143.362 135.905ZM140.322 134.155L142.195 135.229C142.38 135.322 142.687 135.322 142.871 135.229L144.437 134.308C144.621 134.216 144.621 134.032 144.437 133.94L142.564 132.865C142.38 132.773 142.072 132.773 141.888 132.865L140.322 133.786C140.138 133.878 140.138 134.062 140.322 134.155ZM143.915 142.569L145.788 143.644C145.973 143.736 146.28 143.736 146.464 143.644L148.03 142.722C148.214 142.63 148.214 142.446 148.03 142.354L146.157 141.279C145.973 141.187 145.665 141.187 145.481 141.279L143.915 142.2C143.731 142.293 143.731 142.477 143.915 142.569ZM140.875 140.818L142.748 141.893C142.932 141.985 143.239 141.985 143.424 141.893L144.99 140.972C145.174 140.88 145.174 140.696 144.99 140.604L143.117 139.529C142.932 139.437 142.625 139.437 142.441 139.529L140.875 140.45C140.691 140.542 140.691 140.726 140.875 140.818ZM137.835 139.068L139.708 140.143C139.892 140.235 140.199 140.235 140.383 140.143L141.95 139.222C142.134 139.129 142.134 138.945 141.95 138.853L140.076 137.778C139.892 137.686 139.585 137.686 139.401 137.778L137.835 138.7C137.65 138.792 137.65 138.976 137.835 139.068ZM134.794 137.318L136.668 138.392C136.852 138.485 137.159 138.485 137.343 138.392L138.909 137.471C139.094 137.379 139.094 137.195 138.909 137.103L137.036 136.028C136.852 135.936 136.545 135.936 136.361 136.028L134.794 136.949C134.61 137.041 134.61 137.226 134.794 137.318ZM115.632 126.262L118.488 127.921C118.672 128.013 118.979 128.013 119.163 127.921L120.73 126.999C120.914 126.907 120.914 126.723 120.73 126.631L117.874 124.973C117.689 124.88 117.382 124.88 117.198 124.973L115.632 125.894C115.448 125.986 115.448 126.17 115.632 126.262ZM137.251 132.404L139.124 133.479C139.309 133.571 139.616 133.571 139.8 133.479L141.366 132.558C141.55 132.466 141.55 132.281 141.366 132.189L139.493 131.114C139.309 131.022 139.002 131.022 138.817 131.114L137.251 132.036C137.067 132.128 137.067 132.312 137.251 132.404ZM134.211 130.654L136.084 131.729C136.268 131.821 136.576 131.821 136.76 131.729L138.326 130.807C138.51 130.715 138.51 130.531 138.326 130.439L136.453 129.364C136.268 129.272 135.961 129.272 135.777 129.364L134.211 130.285C134.027 130.377 134.027 130.562 134.211 130.654ZM131.171 128.903L133.044 129.978C133.228 130.07 133.535 130.07 133.72 129.978L135.286 129.057C135.47 128.965 135.47 128.781 135.286 128.688L133.413 127.614C133.228 127.521 132.921 127.521 132.737 127.614L131.171 128.535C130.986 128.627 130.986 128.811 131.171 128.903ZM128.131 127.153L130.004 128.228C130.188 128.32 130.495 128.32 130.679 128.228L132.246 127.306C132.43 127.214 132.43 127.03 132.246 126.938L130.372 125.863C130.188 125.771 129.881 125.771 129.697 125.863L128.131 126.784C127.946 126.877 127.946 127.061 128.131 127.153ZM125.09 125.402L126.964 126.477C127.148 126.569 127.455 126.569 127.639 126.477L129.205 125.556C129.39 125.464 129.39 125.28 129.205 125.188L127.332 124.113C127.148 124.021 126.841 124.021 126.656 124.113L125.09 125.034C124.906 125.126 124.906 125.31 125.09 125.402ZM121.067 123.099L123.923 124.758C124.108 124.85 124.415 124.85 124.599 124.758L126.165 123.836C126.349 123.744 126.349 123.56 126.165 123.468L123.309 121.81C123.125 121.717 122.818 121.717 122.634 121.81L121.067 122.731C120.883 122.823 120.883 123.007 121.067 123.099ZM145.543 140.419L148.399 142.078C148.583 142.17 148.89 142.17 149.074 142.078L150.64 141.156C150.825 141.064 150.825 140.88 150.64 140.788L147.784 139.129C147.6 139.037 147.293 139.037 147.109 139.129L145.543 140.051C145.358 140.143 145.358 140.327 145.543 140.419ZM142.502 138.669L144.376 139.744C144.56 139.836 144.867 139.836 145.051 139.744L146.617 138.822C146.802 138.73 146.802 138.546 146.617 138.454L144.744 137.379C144.56 137.287 144.253 137.287 144.069 137.379L142.502 138.3C142.318 138.392 142.318 138.577 142.502 138.669ZM139.462 136.918L141.335 137.993C141.52 138.085 141.827 138.085 142.011 137.993L143.577 137.072C143.761 136.98 143.761 136.796 143.577 136.703L141.704 135.629C141.52 135.537 141.213 135.537 141.028 135.629L139.462 136.55C139.278 136.642 139.278 136.826 139.462 136.918ZM136.422 135.168L138.295 136.243C138.48 136.335 138.787 136.335 138.971 136.243L140.537 135.322C140.721 135.229 140.721 135.045 140.537 134.953L138.664 133.878C138.48 133.786 138.172 133.786 137.988 133.878L136.422 134.799C136.238 134.892 136.238 135.076 136.422 135.168ZM133.382 133.418L135.255 134.492C135.439 134.585 135.746 134.585 135.931 134.492L137.497 133.571C137.681 133.479 137.681 133.295 137.497 133.203L135.624 132.128C135.439 132.036 135.132 132.036 134.948 132.128L133.382 133.049C133.198 133.141 133.198 133.325 133.382 133.418ZM119.501 128.566L133.535 136.673C133.72 136.765 134.027 136.765 134.211 136.673L135.777 135.751C135.961 135.659 135.961 135.475 135.777 135.383L121.743 127.276C121.559 127.184 121.252 127.184 121.067 127.276L119.501 128.197C119.317 128.289 119.317 128.473 119.501 128.566ZM130.342 131.667L132.215 132.742C132.399 132.834 132.706 132.834 132.89 132.742L134.457 131.821C134.641 131.729 134.641 131.544 134.457 131.452L132.583 130.377C132.399 130.285 132.092 130.285 131.908 130.377L130.342 131.299C130.157 131.391 130.157 131.575 130.342 131.667ZM127.301 129.917L129.175 130.992C129.359 131.084 129.666 131.084 129.85 130.992L131.416 130.07C131.601 129.978 131.601 129.794 131.416 129.702L129.543 128.627C129.359 128.535 129.052 128.535 128.868 128.627L127.301 129.548C127.117 129.64 127.117 129.825 127.301 129.917ZM124.261 128.166L126.134 129.241C126.319 129.333 126.626 129.333 126.81 129.241L128.376 128.32C128.56 128.228 128.56 128.043 128.376 127.951L126.503 126.877C126.319 126.784 126.012 126.784 125.827 126.877L124.261 127.798C124.077 127.89 124.077 128.074 124.261 128.166ZM121.221 126.416L123.094 127.491C123.278 127.583 123.586 127.583 123.77 127.491L125.336 126.569C125.52 126.477 125.52 126.293 125.336 126.201L123.463 125.126C123.278 125.034 122.971 125.034 122.787 125.126L121.221 126.047C121.037 126.14 121.037 126.324 121.221 126.416ZM118.181 124.665L120.054 125.74C120.238 125.832 120.545 125.832 120.73 125.74L122.296 124.819C122.48 124.727 122.48 124.543 122.296 124.451L120.423 123.376C120.238 123.284 119.931 123.284 119.747 123.376L118.181 124.297C117.997 124.389 117.997 124.573 118.181 124.665ZM123.432 118.155L125.305 119.23C125.49 119.322 125.797 119.322 125.981 119.23L127.547 118.309C127.731 118.217 127.731 118.032 127.547 117.94L125.674 116.865C125.49 116.773 125.182 116.773 124.998 116.865L123.432 117.787C123.248 117.879 123.248 118.063 123.432 118.155ZM120.392 116.405L122.265 117.48C122.449 117.572 122.756 117.572 122.941 117.48L124.507 116.558C124.691 116.466 124.691 116.282 124.507 116.19L122.634 115.115C122.449 115.023 122.142 115.023 121.958 115.115L120.392 116.036C120.208 116.128 120.208 116.313 120.392 116.405ZM117.352 114.654L119.225 115.729C119.409 115.821 119.716 115.821 119.9 115.729L121.467 114.808C121.651 114.716 121.651 114.531 121.467 114.439L119.593 113.365C119.409 113.272 119.102 113.272 118.918 113.365L117.352 114.286C117.167 114.378 117.167 114.562 117.352 114.654ZM114.588 116.251L116.461 117.326C116.645 117.418 116.952 117.418 117.137 117.326L118.703 116.405C118.887 116.313 118.887 116.128 118.703 116.036L116.83 114.961C116.645 114.869 116.338 114.869 116.154 114.961L114.588 115.883C114.404 115.975 114.404 116.159 114.588 116.251ZM111.885 117.817L119.778 122.362C119.993 122.485 120.361 122.485 120.607 122.362L124.753 119.967C124.967 119.844 124.967 119.629 124.753 119.506L119.993 116.773C119.778 116.65 119.409 116.65 119.163 116.773L117.075 117.971C117.075 117.971 116.737 118.032 116.615 117.971L113.974 116.466C113.974 116.466 113.574 116.374 113.421 116.466L111.885 117.357C111.67 117.48 111.67 117.694 111.885 117.817Z" fill="#6361C2"/>
<path d="M131.294 123.99L87.8708 98.7776L100.984 122.884L144.406 148.096L131.294 123.99Z" fill="#EADCDB"/>
<path d="M131.908 123.284L88.485 98.0713L87.8708 98.7776L131.294 123.99L131.908 123.284Z" fill="#FFF8F8"/>
<path d="M131.908 123.284L131.293 123.99L144.406 148.097L144.775 147.882V148.649L175.238 131.084V129.456L144.836 146.991L131.938 123.284H131.908Z" fill="#B1A2A2"/>
<path d="M166.916 135.475L169.557 133.94V133.172L166.916 134.707V135.475Z" fill="#221C3A"/>
<path d="M163.2 137.625L165.841 136.089V135.322L163.2 136.857V137.625Z" fill="#221C3A"/>
<path d="M171.461 65.796C173.304 63.0322 176.283 61.6196 179.538 61.3432C182.731 61.0668 185.342 70.3717 183.898 72.7977C182.455 75.2237 169.834 94.4169 168.882 95.6453C167.93 96.9044 148.614 108.574 148.614 108.574H148.583C147.938 108.912 147.017 108.973 145.973 108.82C144.928 108.635 143.792 108.267 142.81 107.745C141.827 107.253 140.998 106.639 140.568 106.086C140.353 105.81 140.261 105.564 140.23 105.38C140.23 105.227 140.261 105.042 140.445 104.889C142.81 102.77 161.327 86.8011 161.327 86.8011L171.492 65.7346L171.461 65.796Z" fill="#DDE8F6" stroke="#6361C2" stroke-width="0.460637"/>
<path d="M140.261 103.722C142.257 101.818 149.136 107.131 148.091 109.065L147.17 110.079C144.529 112.105 137.62 107.038 139.431 104.797C139.708 104.428 140.261 103.753 140.261 103.753V103.722Z" fill="#FFF8F8" stroke="#6361C2" stroke-width="0.73702"/>
<path d="M127.578 115.453C128.376 111.031 127.67 107.96 131.509 107.161C133.658 106.701 135.808 106.455 137.988 106.516C138.848 106.516 139.186 106.117 140.261 105.656C142.441 105.104 146.157 107.898 146.034 109.526C146.218 111.737 145.758 113.672 143.854 114.777C141.765 115.975 137.712 115.391 136.944 114.685C136.637 114.409 136.668 113.672 136.668 113.672C136.668 113.672 133.781 114.255 132.921 114.47C131.539 114.777 131.017 118.401 130.464 119.476C129.052 122.117 127.086 118.186 127.578 115.453Z" fill="#FBBD9E"/>
<path d="M180.551 53.5431C184.881 51.1785 189.211 52.5911 194.124 53.5738C198.915 54.5565 204.934 61.2818 201.679 66.2567C192.067 80.9049 191.698 80.26 190.255 91.9602C189.702 90.9468 189.18 93.8335 188.474 92.7894C187.368 91.1311 186.294 89.1043 183.253 84.5593C181.38 79.9837 179.783 75.6844 178.647 72.982C174.993 64.0763 174.808 56.7368 180.551 53.5738V53.5431Z" fill="#FFF8F8"/>
<path d="M197.503 121.441C202.477 122.239 206.04 122.608 209.326 122.301C212.611 121.994 215.652 121.011 219.582 119.107L220.012 118.892C223.544 117.05 224.711 114.47 224.772 112.105C224.834 109.618 223.667 107.315 222.531 106.271C222.285 106.056 222.101 105.656 221.947 105.227C221.793 104.766 221.64 104.182 221.486 103.507C221.21 102.156 220.934 100.405 220.688 98.3784C220.412 96.1059 220.135 93.4956 219.859 90.7625C219.644 88.6436 219.429 86.4632 219.183 84.3136C219.03 82.8395 218.968 81.519 218.938 80.3521C218.938 80.26 218.938 80.1678 218.938 80.1064C218.907 78.8781 218.845 77.7725 218.661 76.7284C218.293 74.6709 217.341 72.7362 214.638 70.2181C211.905 67.6999 209.203 65.7038 207.176 64.3219C206.163 63.6463 205.303 63.1243 204.719 62.7865C204.412 62.6022 204.197 62.4794 204.044 62.3872L203.859 62.2951H203.829H203.798L203.767 62.2337C202.416 60.9746 200.113 59.777 197.38 58.8864C194.647 57.9958 191.545 57.4431 188.566 57.3509C185.587 57.2588 182.793 57.658 180.705 58.7329C178.616 59.777 177.235 61.466 177.02 63.9534C176.958 64.629 176.897 65.2739 176.835 65.9495C176.467 69.9724 176.068 74.1488 175.914 77.9261C175.822 80.1064 175.791 82.1639 175.914 83.9144C176.037 85.6955 176.252 87.1388 176.651 88.2136C177.449 90.3633 179.138 92.3901 180.735 94.2019C180.797 94.2633 180.858 94.3555 180.92 94.4169C181.626 95.246 182.302 96.0138 182.854 96.7508C183.438 97.5492 183.868 98.317 183.929 99.0233C184.052 100.037 184.236 102.278 184.482 104.735C184.635 106.393 184.789 108.113 184.943 109.649C185.127 111.583 185.28 113.119 185.372 113.641C185.618 115.053 187.676 119.875 197.564 121.472L197.503 121.441Z" fill="#DDE8F6" stroke="#6361C2" stroke-width="0.675601"/>
<path d="M198.823 28.1466C197.011 26.6725 195.936 25.1064 195.506 22.926C195.076 20.6843 195.261 18.4118 196.673 16.9377C199.867 13.4676 203.644 13.3755 206.899 15.2487C214.3 19.6094 214.331 30.3883 206.899 31.0639C204.473 31.2789 201.648 30.4805 198.823 28.1466Z" fill="#221C3A"/>
<path d="M201.71 25.6591C204.381 28.945 201.71 31.586 198.854 30.7875C196.98 30.2348 194.984 28.1772 195.23 26.089C195.537 23.663 199.253 22.6496 201.679 25.6591H201.71Z" fill="#FDA4FE"/>
<path d="M191.054 58.3029L185.557 71.9992L178.708 72.2756C178.708 72.2756 181.411 68.2834 185.157 62.8786C186.263 61.2203 190.746 58.2415 191.054 58.3029Z" fill="#FFF8F8"/>
<path d="M199.806 52.8676C196.397 55.2936 183.683 61.2819 183.683 61.2819C183.683 61.2819 183.376 67.393 184.021 70.9246C184.267 72.4601 185.127 72.8286 185.127 72.8286L185.864 75.4696L187.522 73.5656C191.576 73.5656 197.748 69.7269 199.437 67.9765C201.157 66.1954 202.999 63.1552 202.692 60.4835C202.508 59.3473 201.802 58.2724 201.034 57.1669C200.205 55.9385 199.929 54.4338 199.775 52.8369L199.806 52.8676Z" fill="#F2A883"/>
<path d="M204.013 39.2328C204.044 40.8296 203.675 50.8101 199.284 57.9346C193.142 67.9458 182.731 69.6962 181.196 69.8805C178.893 70.1569 177.142 68.1608 176.528 66.1954C173.457 56.8291 170.601 41.8123 175.515 35.8855C179.783 30.6956 183.591 27.9932 188.443 27.1334C192.712 26.3656 203.798 29.8358 204.044 39.2328H204.013Z" fill="#FCBE9F"/>
<path d="M174.01 31.8932C174.993 30.542 182.056 24.4002 189.917 24.0931C196.52 23.8167 200.082 26.7648 202.078 28.5766C204.013 30.4192 205.149 32.9066 205.671 35.5169C206.193 38.1272 206.04 40.8296 205.671 43.4091C205.303 45.9887 204.719 48.5683 203.491 50.8715C202.109 53.5432 200.42 56.3377 198.577 59.0401C198.332 58.0267 198.823 56.5219 198.884 55.4778C198.884 54.403 199.007 52.6833 197.717 51.9463C193.971 49.7352 192.22 54.7408 191.975 57.2897C191.975 57.2897 190.9 52.6833 189.856 50.3801C187.553 45.2517 174.501 40.676 173.027 42.7335C169.127 38.2193 172.26 34.2578 174.071 31.8625H174.041L174.01 31.8932Z" fill="#221C3A"/>
<path d="M184.42 72.0607C184.666 72.6135 185.925 73.6576 187.46 73.5962C188.996 73.5348 192.097 73.0127 192.405 75.1317C192.558 76.0836 191.852 77.0049 191.084 77.5884C189.119 79.001 186.263 79.1546 184.236 77.8955C182.393 76.7592 181.411 74.3025 181.656 72.1529L184.389 72.03L184.42 72.0607Z" fill="#CF00C7"/>
<path d="M194.278 86.0949L190.562 88.0296C190.562 88.0296 186.355 81.0893 185.649 77.4963C185.618 77.2506 187.583 76.5136 188.106 76.8207C188.628 77.1585 193.848 85.5421 194.278 86.0949Z" fill="#CF00C7"/>
<path d="M177.449 82.7474L180.643 85.3577C180.643 85.3577 186.171 79.4308 187.614 76.0528C187.706 75.8378 185.925 74.7016 185.372 74.9166C184.82 75.1315 177.941 82.3175 177.419 82.7474H177.449Z" fill="#CF00C7"/>
<path d="M201.095 57.2896C203.706 58.8557 204.719 61.2203 204.965 63.155C205.18 64.5983 203.89 68.4063 196.213 79.4001L187.522 73.5654C194.032 70.8323 205.518 63.37 201.126 57.3203L201.095 57.2896Z" fill="#FFF8F8"/>
<path d="M213.84 91.5304C210.984 94.8163 201.587 103.783 197.779 106.916C192.742 111.061 185.034 116.589 178.708 120.581C176.19 122.178 168.789 127.245 168.789 127.245C168.697 127.307 168.513 127.337 168.267 127.245C168.022 127.153 167.653 126.969 167.285 126.662C166.548 126.048 165.749 125.126 165.074 124.051C164.398 123.007 163.845 121.84 163.63 120.858C163.415 119.844 163.538 119.138 163.999 118.739C163.999 118.739 185.679 100.006 193.142 91.9603C200.604 83.9145 202.631 72.2144 210.554 69.6962C212.089 69.2049 213.809 69.4198 216.358 71.5695C217.525 72.5522 218.63 74.7325 218.999 78.2026C219.459 82.7169 216.696 88.2445 213.84 91.4997V91.5304Z" fill="#DDE8F6" stroke="#6361C2" stroke-width="0.73702"/>
<path d="M169.496 126.815C167.929 127.89 167.346 128.105 167.346 128.105C165.811 129.18 160.529 121.902 162.709 120.121L164.337 118.984C166.118 117.725 171.707 125.495 169.526 126.815H169.496Z" fill="white" stroke="#6361C2" stroke-width="0.73702"/>
<path d="M149.289 126.631C150.855 125.403 159.024 123.161 162.709 121.472C164.767 120.489 168.882 126.539 167.561 128.074C165.166 130.93 165.35 132.374 164.306 133.233C163.538 133.848 159.454 135.291 158.655 134.738C158.164 134.37 158.164 134.216 157.581 134.83C156.844 135.598 155.4 135.322 155.001 134.339C154.602 133.356 153.496 134.984 152.514 133.786C152.207 133.387 152.084 132.865 152.114 132.374C152.114 131.452 152.606 130.04 153.312 129.487C150.671 129.026 149.504 132.558 148.306 134.216C147.539 135.291 146.126 134.769 146.034 133.571C146.003 133.018 148.184 127.552 149.289 126.692V126.631Z" fill="#FBBD9E"/>
</g>
<defs>
<linearGradient id="paint0_linear_187_3593" x1="6.76782" y1="264.791" x2="165.104" y2="264.791" gradientUnits="userSpaceOnUse">
<stop stop-color="#2CB8DB"/>
<stop offset="1" stop-color="#2CB8DB"/>
</linearGradient>
<linearGradient id="paint1_linear_187_3593" x1="25.0398" y1="239.917" x2="162.156" y2="239.917" gradientUnits="userSpaceOnUse">
<stop stop-color="#2CB8DB"/>
<stop offset="1" stop-color="#2CB8DB"/>
</linearGradient>
<clipPath id="clip0_187_3593">
<rect width="328" height="346" fill="white" transform="translate(0 0.0783691)"/>
</clipPath>
</defs>
</svg>
