<svg width="328" height="347" viewBox="0 0 328 347" fill="none" xmlns="http://www.w3.org/2000/svg">
<g clip-path="url(#clip0_187_3748)">
<path d="M25.2031 278.129L125.853 331.705C158.234 348.933 198.208 346.43 227.936 325.273L319.683 259.998C330.873 252.024 330.751 235.989 319.439 228.19L215.13 156.134C177.657 130.263 126.067 134.192 93.3805 165.418L19.1049 236.368C6.11582 248.765 9.1649 269.573 25.2031 278.129Z" fill="#E8E8E8"/>
<path d="M321.874 206.383L164.306 115.238L6.79858 206.383L163.937 297.65L321.874 206.413V206.383Z" fill="#40FBFF" stroke="black" stroke-width="1.53546" stroke-linejoin="round"/>
<path d="M321.874 206.198L163.937 297.65V323.876L321.874 232.762V206.229V206.198Z" fill="#35DFFF" stroke="black" stroke-width="1.53546" stroke-linejoin="round"/>
<path d="M6.76782 205.738L164 297.404V323.845L6.76782 231.963V205.738Z" fill="url(#paint0_linear_187_3748)" stroke="black" stroke-width="1.53546" stroke-linejoin="round"/>
<path d="M161.818 273.666L309.407 189.278L309.714 202.078L161.818 286.33V273.666Z" fill="#35DFFF" stroke="black" stroke-width="1.53546" stroke-linejoin="round"/>
<path d="M161.818 273.666L25.0398 192.993L25.3469 206.168L161.818 286.377L161.849 273.666H161.818Z" fill="url(#paint1_linear_187_3748)" stroke="black" stroke-width="1.53546" stroke-linejoin="round"/>
<path d="M160.836 115.268L25.0398 192.993L161.818 273.666L309.407 189.278L160.836 115.238V115.268Z" fill="#40FBFF" stroke="black" stroke-width="1.53546" stroke-linejoin="round"/>
<g style="mix-blend-mode:multiply">
<path d="M47.9487 177.578L115.816 141.578L205.886 161.486L176 235.578L115.816 194.559L47.9487 193.362V177.578Z" fill="black" fill-opacity="0.2"/>
</g>
<g style="mix-blend-mode:multiply">
<path d="M188.273 199.05L179.091 149.116L277.5 207.078L194.784 254.633L166 258.578L188.273 199.08V199.05Z" fill="black" fill-opacity="0.2"/>
</g>
<g style="mix-blend-mode:multiply">
<path d="M241.632 178.898H259.873L276.026 183.074L260.702 189.646L234.323 184.763L241.632 178.929V178.898Z" fill="black" fill-opacity="0.2"/>
</g>
<g style="mix-blend-mode:multiply">
<path d="M230.423 150.523L273.415 170.668L253.332 181.815L220.473 175.244L230.423 150.523Z" fill="black" fill-opacity="0.2"/>
</g>
<path d="M146.003 202.452L146.525 207.242L145.819 206.843C145.512 206.659 145.297 206.26 145.297 205.707V202.052L146.003 202.452Z" fill="#221C3A"/>
<path d="M148.828 199.995L149.535 200.425L145.972 202.483L145.266 202.083L148.828 200.026V199.995Z" fill="#BEC7EE"/>
<path d="M149.535 200.425V204.079C149.535 205.216 148.736 206.598 147.784 207.15C146.802 207.703 146.003 207.273 146.003 206.137V202.483L149.535 200.425Z" fill="#221C3A"/>
<path d="M146.341 207.549C145.88 207.304 145.635 206.782 145.635 206.106V202.482C145.635 202.482 145.696 202.237 145.788 202.175L149.351 200.118C149.351 200.118 149.596 200.056 149.688 200.118C149.811 200.179 149.873 200.302 149.873 200.425V204.079C149.873 205.338 149.043 206.812 147.938 207.457C147.6 207.642 147.262 207.734 146.955 207.734C146.74 207.734 146.525 207.672 146.31 207.549H146.341ZM146.341 202.667V206.106C146.341 206.505 146.464 206.812 146.679 206.935C146.894 207.058 147.232 207.027 147.569 206.812C148.429 206.321 149.166 205.031 149.166 204.049V201.008L146.31 202.667H146.341Z" fill="#221C3A"/>
<path d="M148.03 203.035C148.368 202.851 149.35 202.329 150.548 202.974L150.794 203.127C151.101 203.312 151.377 203.557 151.562 203.834C151.654 203.957 151.746 204.11 151.807 204.233C151.991 204.663 152.053 205.124 152.022 205.615C151.961 206.229 151.776 206.751 151.5 207.242C151.377 207.488 151.224 207.703 151.07 207.887C150.855 208.133 150.64 208.379 150.364 208.594C149.995 208.901 149.565 209.116 149.135 209.208C148.921 209.269 148.706 209.269 148.521 209.269C147.969 209.269 147.569 209.054 147.416 208.962L147.139 208.809C144.928 207.427 146.095 204.172 147.999 203.035H148.03Z" fill="#221C3A"/>
<path d="M148.89 204.141L149.412 208.931L148.706 208.532C148.399 208.348 148.184 207.949 148.184 207.396V203.741L148.89 204.141Z" fill="#221C3A"/>
<path d="M151.715 201.684L152.421 202.083L148.859 204.141L148.153 203.742L151.715 201.684Z" fill="#BEC7EE"/>
<path d="M152.421 202.083V205.738C152.421 206.874 151.623 208.256 150.671 208.809C149.688 209.361 148.89 208.931 148.89 207.795V204.141L152.421 202.083Z" fill="#221C3A"/>
<path d="M149.228 209.208C148.767 208.962 148.521 208.44 148.521 207.765V204.11C148.521 204.11 148.583 203.864 148.706 203.803L152.268 201.746C152.268 201.746 152.514 201.684 152.606 201.746C152.729 201.807 152.79 201.93 152.79 202.053V205.676C152.79 206.935 151.961 208.44 150.855 209.054C150.518 209.239 150.18 209.331 149.903 209.331C149.658 209.331 149.473 209.269 149.259 209.146L149.228 209.208ZM149.228 204.325V207.765C149.228 208.164 149.351 208.471 149.566 208.594C149.781 208.717 150.118 208.686 150.456 208.471C151.316 207.98 152.053 206.72 152.053 205.707V202.698L149.197 204.325H149.228Z" fill="#221C3A"/>
<path d="M145.174 161.302L145.696 166.092L144.99 165.693C144.683 165.509 144.468 165.11 144.468 164.557V160.902L145.174 161.302Z" fill="#221C3A"/>
<path d="M147.999 158.845L148.706 159.244L145.143 161.301L144.437 160.902L147.999 158.845Z" fill="#BEC7EE"/>
<path d="M148.706 159.244V162.898C148.706 164.035 147.907 165.416 146.955 165.969C145.973 166.522 145.174 166.092 145.174 164.956V161.301L148.706 159.244Z" fill="#221C3A"/>
<path d="M145.512 166.399C145.051 166.154 144.806 165.632 144.806 164.956V161.302C144.806 161.302 144.867 161.056 144.99 160.994L148.552 158.937C148.552 158.937 148.798 158.876 148.921 158.937C149.044 158.998 149.105 159.121 149.105 159.244V162.868C149.105 164.127 148.276 165.601 147.17 166.246C146.832 166.43 146.495 166.522 146.218 166.522C145.973 166.522 145.788 166.461 145.573 166.338L145.512 166.399ZM145.512 161.517V164.956C145.512 165.355 145.635 165.662 145.85 165.785C146.065 165.908 146.403 165.877 146.74 165.662C147.6 165.171 148.337 163.912 148.337 162.898V159.889L145.481 161.517H145.512Z" fill="#221C3A"/>
<path d="M147.201 161.885C147.539 161.701 148.521 161.179 149.719 161.823L149.965 161.977C150.272 162.161 150.548 162.407 150.732 162.683C150.825 162.806 150.917 162.96 150.978 163.083C151.162 163.512 151.224 163.973 151.193 164.464C151.132 165.079 150.947 165.601 150.671 166.092C150.548 166.338 150.395 166.553 150.241 166.737C150.026 167.013 149.811 167.228 149.535 167.443C149.166 167.75 148.736 167.965 148.306 168.057C148.091 168.119 147.876 168.119 147.692 168.119C147.139 168.119 146.74 167.904 146.587 167.812L146.31 167.658C144.099 166.276 145.266 163.021 147.17 161.885H147.201Z" fill="#221C3A"/>
<path d="M148.061 162.991L148.583 167.781L147.877 167.382C147.569 167.198 147.354 166.798 147.354 166.246V162.591L148.061 162.991Z" fill="#221C3A"/>
<path d="M150.886 160.503L151.592 160.902L148.03 162.96L147.324 162.53L150.886 160.472V160.503Z" fill="#BEC7EE"/>
<path d="M151.592 160.933V164.587C151.592 165.724 150.794 167.106 149.842 167.658C148.859 168.211 148.061 167.781 148.061 166.645V162.991L151.592 160.933Z" fill="#221C3A"/>
<path d="M148.398 168.058C147.938 167.812 147.692 167.29 147.692 166.614V162.991C147.692 162.991 147.754 162.745 147.846 162.683L151.408 160.626C151.408 160.626 151.654 160.565 151.746 160.626C151.869 160.687 151.93 160.81 151.93 160.933V164.557C151.93 165.816 151.101 167.29 149.995 167.935C149.658 168.119 149.32 168.211 149.043 168.211C148.828 168.211 148.613 168.15 148.398 168.027V168.058ZM148.398 163.175V166.614C148.398 167.013 148.521 167.321 148.736 167.443C148.951 167.566 149.289 167.535 149.627 167.321C150.487 166.829 151.224 165.57 151.224 164.557V161.547L148.368 163.175H148.398Z" fill="#221C3A"/>
<path d="M210.277 209.668L210.769 214.183L210.093 213.784C209.786 213.599 209.602 213.231 209.602 212.709V209.269L210.247 209.668H210.277Z" fill="#221C3A"/>
<path d="M216.604 211.787L217.31 212.187L213.748 214.244L213.041 213.845L216.604 211.787Z" fill="#BEC7EE"/>
<path d="M217.31 212.187V215.841C217.31 216.977 216.511 218.359 215.559 218.912C214.577 219.465 213.778 219.035 213.778 217.898V214.244L217.31 212.187Z" fill="#221C3A"/>
<path d="M214.116 219.342C213.655 219.096 213.41 218.574 213.41 217.898V214.275C213.41 214.275 213.471 214.029 213.594 213.968L217.156 211.91C217.156 211.91 217.402 211.849 217.494 211.91C217.617 211.972 217.678 212.094 217.678 212.217V215.872C217.678 217.131 216.849 218.605 215.744 219.25C215.406 219.434 215.068 219.526 214.792 219.526C214.546 219.526 214.362 219.465 214.147 219.342H214.116ZM214.116 214.459V217.898C214.116 218.298 214.239 218.605 214.454 218.728C214.669 218.85 215.007 218.82 215.344 218.605C216.204 218.113 216.941 216.854 216.941 215.841V212.801L214.085 214.459H214.116Z" fill="#221C3A"/>
<path d="M212.181 210.221C212.489 210.068 213.44 209.546 214.577 210.16L214.822 210.313C215.13 210.498 215.375 210.713 215.529 210.958C215.621 211.081 215.682 211.204 215.744 211.357C215.928 211.757 215.989 212.217 215.928 212.647C215.867 213.231 215.682 213.722 215.437 214.183C215.314 214.398 215.191 214.613 215.037 214.797C214.853 215.043 214.638 215.257 214.392 215.442C214.024 215.718 213.655 215.933 213.256 216.025C213.041 216.087 212.857 216.087 212.703 216.087C212.181 216.087 211.813 215.872 211.659 215.78L211.414 215.626C209.325 214.336 210.431 211.235 212.243 210.19L212.181 210.221Z" fill="#221C3A"/>
<path d="M213.011 211.235L213.502 215.749L212.826 215.35C212.519 215.165 212.335 214.797 212.335 214.275V210.835L213.011 211.235Z" fill="#221C3A"/>
<path d="M215.682 210.16L216.358 210.559L213.011 211.265L212.335 210.866L215.682 210.16Z" fill="#BEC7EE"/>
<path d="M216.358 210.559V212.739C216.358 213.814 215.621 215.104 214.699 215.626C213.778 216.148 213.041 215.718 213.01 214.674V211.235L216.358 210.528V210.559Z" fill="#221C3A"/>
<path d="M213.318 216.056C212.888 215.81 212.642 215.319 212.642 214.674V211.235C212.642 211.081 212.734 210.928 212.888 210.897L216.235 210.221C216.235 210.221 216.45 210.221 216.511 210.283C216.573 210.344 216.634 210.436 216.634 210.528V212.709C216.634 213.906 215.836 215.288 214.792 215.902C214.485 216.087 214.178 216.179 213.87 216.179C213.655 216.179 213.441 216.117 213.256 216.025L213.318 216.056ZM213.318 211.511V214.674C213.318 215.073 213.441 215.35 213.655 215.472C213.87 215.595 214.178 215.534 214.515 215.35C215.344 214.889 216.02 213.691 216.02 212.739V210.958L213.318 211.511Z" fill="#221C3A"/>
<path d="M253.946 181.078L254.468 185.869L253.762 185.47C253.454 185.285 253.24 184.886 253.24 184.333V180.71L253.946 181.109V181.078Z" fill="#221C3A"/>
<path d="M256.771 178.622L257.478 179.021L253.915 181.078L253.209 180.679L256.771 178.622Z" fill="#BEC7EE"/>
<path d="M257.477 179.052V182.706C257.477 183.842 256.679 185.224 255.727 185.777C254.744 186.33 253.946 185.9 253.946 184.763V181.109L257.477 179.052Z" fill="#221C3A"/>
<path d="M254.284 186.176C253.823 185.93 253.577 185.408 253.577 184.733V181.109C253.577 181.109 253.639 180.863 253.762 180.802L257.324 178.744C257.324 178.744 257.57 178.683 257.662 178.744C257.785 178.806 257.846 178.929 257.846 179.051V182.706C257.846 183.965 257.017 185.439 255.911 186.084C255.573 186.268 255.236 186.36 254.929 186.36C254.683 186.36 254.499 186.299 254.284 186.176ZM254.284 181.293V184.733C254.284 185.132 254.407 185.439 254.621 185.562C254.836 185.685 255.174 185.654 255.512 185.439C256.372 184.948 257.109 183.689 257.109 182.675V179.635L254.253 181.293H254.284Z" fill="#221C3A"/>
<path d="M255.973 181.662C256.311 181.477 257.293 180.955 258.491 181.6L258.737 181.754C259.044 181.938 259.32 182.184 259.504 182.46C259.597 182.583 259.689 182.737 259.75 182.859C259.934 183.289 259.996 183.75 259.965 184.241C259.904 184.856 259.719 185.378 259.443 185.869C259.32 186.115 259.167 186.33 259.013 186.514C258.798 186.759 258.583 187.005 258.307 187.22C257.938 187.527 257.508 187.742 257.078 187.834C256.863 187.896 256.648 187.896 256.464 187.896C255.911 187.896 255.512 187.681 255.359 187.589L255.082 187.435C252.871 186.053 254.038 182.798 255.942 181.662H255.973Z" fill="#221C3A"/>
<path d="M256.833 182.767L257.355 187.558L256.648 187.159C256.341 186.974 256.126 186.575 256.126 186.022V182.368L256.833 182.767Z" fill="#221C3A"/>
<path d="M259.658 180.311L260.364 180.71L256.802 182.767L256.095 182.368L259.658 180.311Z" fill="#BEC7EE"/>
<path d="M260.364 180.71V184.364C260.364 185.5 259.566 186.882 258.614 187.435C257.631 187.988 256.833 187.558 256.833 186.422V182.767L260.364 180.71Z" fill="#221C3A"/>
<path d="M257.17 187.834C256.71 187.588 256.464 187.066 256.464 186.391V182.767C256.464 182.767 256.525 182.521 256.648 182.46L260.21 180.403C260.21 180.403 260.456 180.341 260.548 180.403C260.671 180.464 260.732 180.587 260.732 180.71V184.364C260.732 185.623 259.903 187.097 258.798 187.742C258.46 187.926 258.122 188.018 257.846 188.018C257.6 188.018 257.416 187.957 257.201 187.834H257.17ZM257.17 182.951V186.391C257.17 186.79 257.293 187.097 257.508 187.22C257.723 187.343 258.03 187.312 258.399 187.097C259.258 186.606 259.995 185.347 259.995 184.333V181.293L257.139 182.951H257.17Z" fill="#221C3A"/>
<path d="M214.177 149.11C214.515 148.926 215.498 148.404 216.696 149.049L216.941 149.202C217.248 149.386 217.525 149.632 217.709 149.908C217.801 150.031 217.893 150.185 217.955 150.308C218.139 150.738 218.2 151.198 218.17 151.69C218.108 152.304 217.924 152.826 217.648 153.317C217.525 153.563 217.371 153.778 217.218 153.962C217.003 154.208 216.788 154.453 216.511 154.668C216.143 154.975 215.713 155.19 215.283 155.283C215.068 155.344 214.853 155.344 214.669 155.344C214.116 155.344 213.717 155.129 213.563 155.037L213.287 154.883C211.076 153.501 212.243 150.246 214.147 149.11H214.177Z" fill="#221C3A"/>
<path d="M215.037 150.185L215.559 154.976L214.853 154.576C214.546 154.392 214.331 153.993 214.331 153.44V149.816L215.037 150.216V150.185Z" fill="#221C3A"/>
<path d="M217.863 147.728L218.569 148.158L215.007 150.215L214.3 149.816L217.863 147.759V147.728Z" fill="#BEC7EE"/>
<path d="M218.569 148.127V151.782C218.569 152.918 217.77 154.3 216.818 154.853C215.836 155.405 215.037 154.975 215.037 153.839V150.185L218.569 148.127Z" fill="#221C3A"/>
<path d="M215.375 155.283C214.915 155.037 214.669 154.515 214.669 153.839V150.216C214.669 150.216 214.73 149.97 214.853 149.909L218.415 147.851C218.415 147.851 218.661 147.79 218.753 147.851C218.845 147.912 218.938 148.035 218.938 148.158V151.782C218.938 153.041 218.108 154.546 217.003 155.16C216.665 155.344 216.327 155.436 216.02 155.436C215.805 155.436 215.59 155.375 215.375 155.252V155.283ZM215.375 150.4V153.839C215.375 154.239 215.498 154.546 215.713 154.668C215.928 154.791 216.266 154.761 216.604 154.546C217.463 154.054 218.201 152.795 218.201 151.782V148.772L215.345 150.4H215.375Z" fill="#221C3A"/>
<path d="M204.105 172.848V179.666L219.03 147.636V145.855L204.105 172.848Z" fill="#221C3A"/>
<path d="M204.043 180.034C203.89 180.003 203.767 179.85 203.767 179.696V172.848C203.767 172.848 203.767 172.725 203.767 172.664L218.692 145.671C218.692 145.671 218.937 145.456 219.091 145.486C219.244 145.517 219.367 145.671 219.367 145.824C219.367 145.824 219.367 147.605 219.367 147.759L204.443 179.789C204.443 179.789 204.258 180.003 204.105 180.003C204.105 180.003 204.043 180.003 204.013 180.003L204.043 180.034ZM218.661 147.237L204.443 172.94V178.069L218.661 147.575V147.237Z" fill="#221C3A"/>
<path d="M143.915 160.779V162.561L189.457 182.583V175.735L143.915 160.749V160.779Z" fill="#4C4A91"/>
<path d="M189.303 182.952L143.792 162.929C143.792 162.929 143.577 162.745 143.577 162.591V160.81C143.577 160.81 143.608 160.595 143.7 160.534C143.792 160.472 143.915 160.442 144.007 160.472L189.518 175.459C189.518 175.459 189.764 175.643 189.764 175.796V182.645C189.764 182.645 189.733 182.89 189.61 182.952C189.549 182.982 189.487 183.013 189.426 183.013C189.364 183.013 189.334 183.013 189.272 183.013L189.303 182.952ZM144.283 161.271V162.346L189.088 182.061V176.042L144.283 161.271Z" fill="#4C4A91"/>
<path d="M204.258 178.406V185.255L261.469 183.443V181.662L204.258 178.406Z" fill="#221C3A"/>
<path d="M204.013 185.5C204.013 185.5 203.921 185.347 203.921 185.255V178.406C203.921 178.406 203.921 178.222 204.013 178.161C204.074 178.099 204.166 178.069 204.289 178.069L261.5 181.324C261.685 181.324 261.838 181.477 261.838 181.662V183.443C261.838 183.627 261.715 183.781 261.5 183.811L204.289 185.592C204.197 185.592 204.105 185.562 204.043 185.5H204.013ZM261.101 181.999L204.596 178.806V184.886L261.101 183.105V181.999Z" fill="#221C3A"/>
<path d="M148.03 204.172V205.953L195.199 187.036V180.188L148.03 204.141V204.172Z" fill="#221C3A"/>
<path d="M147.846 206.26C147.846 206.26 147.692 206.076 147.692 205.983V204.202C147.692 204.202 147.754 203.926 147.876 203.895L195.015 179.942C195.015 179.942 195.261 179.881 195.353 179.942C195.445 180.004 195.537 180.126 195.537 180.249V187.097C195.537 187.097 195.445 187.374 195.322 187.435C195.322 187.435 148.183 206.352 148.03 206.383C147.969 206.383 147.876 206.383 147.846 206.321V206.26ZM194.831 180.771L148.398 204.387V205.431L194.831 186.79V180.771Z" fill="#221C3A"/>
<path d="M144.836 201.745V203.526L148.03 205.983V204.202L144.836 201.745Z" fill="#221C3A"/>
<path d="M211.997 211.511V213.2L216.757 212.248V210.559L211.997 211.511Z" fill="#221C3A"/>
<path d="M211.813 213.476C211.813 213.476 211.69 213.323 211.69 213.231V211.542C211.69 211.388 211.782 211.235 211.936 211.204L216.665 210.252C216.665 210.252 216.88 210.252 216.941 210.313C217.003 210.375 217.064 210.467 217.064 210.559V212.248C217.064 212.402 216.972 212.555 216.818 212.586C216.818 212.586 212.089 213.538 211.997 213.538C211.936 213.538 211.843 213.538 211.782 213.476H211.813ZM216.419 210.989L212.335 211.787V212.801L216.419 212.002V210.989Z" fill="#221C3A"/>
<path d="M195.168 180.218V187.066L215.621 217.991V216.209L195.168 180.249V180.218Z" fill="#4C4A91"/>
<path d="M215.345 218.175L194.892 187.251C194.892 187.251 194.831 187.128 194.831 187.066V180.218C194.831 180.065 194.923 179.911 195.076 179.88C195.23 179.85 195.384 179.88 195.476 180.065L215.928 216.025C215.928 216.025 215.959 216.148 215.959 216.209V217.991C215.959 218.144 215.867 218.298 215.621 218.359C215.498 218.359 215.406 218.298 215.314 218.206L215.345 218.175ZM195.537 181.569V186.944L215.252 216.793V216.302L195.537 181.6V181.569Z" fill="#4C4A91"/>
<path d="M146.955 158.292L143.915 160.81L189.426 175.796L144.836 201.745L147.999 204.202L195.138 180.249L215.559 216.209L220.596 215.227L204.228 178.437L261.439 181.692L261.378 178.652L204.105 172.91L219.03 145.916L213.963 145.026L194.954 171.282L146.955 158.323V158.292Z" fill="#221C3A"/>
<path d="M215.283 216.363L195.015 180.679L148.184 204.479C148.184 204.479 147.907 204.54 147.815 204.448L144.652 201.991C144.652 201.991 144.498 201.807 144.529 201.684C144.529 201.561 144.591 201.469 144.713 201.408L188.628 175.858L143.854 161.117C143.854 161.117 143.639 160.964 143.608 160.841C143.608 160.718 143.608 160.595 143.731 160.503L146.771 157.985C146.771 157.985 146.986 157.893 147.078 157.924L194.831 170.821L213.717 144.749C213.717 144.749 213.932 144.565 214.055 144.596L219.122 145.486C219.122 145.486 219.337 145.578 219.367 145.671C219.429 145.763 219.429 145.886 219.367 146.008L204.719 172.51L261.439 178.192C261.623 178.192 261.746 178.376 261.746 178.529L261.807 181.57C261.807 181.57 261.777 181.754 261.715 181.846C261.654 181.907 261.531 181.969 261.439 181.938L204.811 178.714L220.964 214.95C220.964 214.95 220.995 215.165 220.964 215.257C220.903 215.35 220.811 215.411 220.719 215.442C220.719 215.442 215.713 216.424 215.621 216.455C215.498 216.455 215.375 216.394 215.314 216.271L215.283 216.363ZM203.921 178.56C203.921 178.56 203.89 178.314 203.951 178.222C204.013 178.13 204.136 178.069 204.258 178.069L261.07 181.293L261.009 178.929L204.044 173.217C204.044 173.217 203.829 173.125 203.767 173.032C203.706 172.94 203.706 172.787 203.767 172.695L218.446 146.162L214.085 145.394L195.199 171.497C195.199 171.497 194.954 171.681 194.831 171.62L147.017 158.691L144.621 160.687L189.518 175.489C189.518 175.489 189.733 175.643 189.764 175.796C189.794 175.95 189.702 176.073 189.58 176.134L145.45 201.807L148.03 203.803L194.984 179.942C195.138 179.85 195.353 179.942 195.445 180.096L215.744 215.841L220.074 214.981L203.89 178.591L203.921 178.56Z" fill="#221C3A"/>
<path d="M202.846 152.396V174.752C202.846 175.489 202.324 176.226 201.372 176.779C199.407 177.915 196.213 177.915 194.217 176.779C193.234 176.195 192.743 175.458 192.743 174.691V152.334L202.846 152.396Z" fill="#221C3A"/>
<path d="M194.063 177.086C192.988 176.472 192.405 175.612 192.405 174.691V152.334C192.405 152.334 192.435 152.15 192.497 152.089C192.558 152.027 192.65 151.997 192.743 151.997L202.846 152.058C203.03 152.058 203.184 152.212 203.184 152.396V174.752C203.184 175.643 202.57 176.472 201.525 177.086C200.481 177.669 199.13 177.977 197.779 177.977C196.428 177.977 195.076 177.669 194.032 177.086H194.063ZM193.111 152.703V174.691C193.111 175.336 193.572 175.98 194.401 176.472C196.274 177.547 199.314 177.547 201.188 176.472C202.017 175.98 202.477 175.366 202.508 174.752V152.764L193.111 152.703Z" fill="#221C3A"/>
<path d="M194.217 154.423C196.182 155.559 199.376 155.559 201.372 154.423C203.337 153.287 203.337 151.444 201.372 150.308C199.407 149.172 196.213 149.172 194.217 150.308C192.251 151.444 192.251 153.287 194.217 154.423Z" fill="#BEC7EE"/>
<path d="M203.491 148.68V155.098C203.491 155.927 202.907 156.757 201.833 157.401C199.621 158.691 195.998 158.691 193.787 157.401C192.65 156.757 192.098 155.897 192.128 155.037V148.619L203.522 148.68H203.491Z" fill="#221C3A"/>
<path d="M197.81 151.935C200.942 151.935 203.491 150.461 203.491 148.649C203.491 146.838 200.942 145.364 197.81 145.364C194.677 145.364 192.128 146.838 192.128 148.649C192.128 150.461 194.677 151.935 197.81 151.935Z" fill="#2B2633"/>
<path d="M201.403 128.873V148.281C201.403 148.803 201.034 149.325 200.358 149.724C198.946 150.523 196.673 150.523 195.261 149.724C194.554 149.325 194.186 148.772 194.217 148.25V128.842H201.433V128.873H201.403Z" fill="#6361C2"/>
<path d="M194.984 150.185C194.124 149.694 193.664 148.987 193.664 148.22V128.811C193.664 128.811 193.725 128.535 193.817 128.443C193.909 128.351 194.063 128.289 194.186 128.289H201.403C201.679 128.32 201.925 128.566 201.925 128.873V148.281C201.925 149.018 201.433 149.694 200.604 150.185C199.806 150.646 198.792 150.861 197.779 150.861C196.765 150.861 195.752 150.615 194.954 150.185H194.984ZM194.739 129.364V148.25C194.739 148.619 195.015 148.987 195.537 149.264C196.765 149.97 198.854 149.97 200.113 149.264C200.604 148.987 200.911 148.619 200.911 148.281V129.426H194.769L194.739 129.364Z" fill="#403D8B"/>
<path d="M195.261 130.316C196.673 131.114 198.946 131.114 200.358 130.316C201.771 129.518 201.771 128.197 200.358 127.368C198.946 126.569 196.673 126.569 195.261 127.368C193.848 128.166 193.848 129.487 195.261 130.316Z" fill="#6361C2"/>
<path d="M194.984 130.807C194.124 130.316 193.664 129.61 193.664 128.873C193.664 128.105 194.124 127.429 194.984 126.938C196.55 126.017 199.038 126.017 200.635 126.938C201.495 127.429 201.955 128.105 201.955 128.873C201.955 129.64 201.495 130.316 200.635 130.807C199.836 131.268 198.823 131.483 197.81 131.483C196.796 131.483 195.783 131.237 194.984 130.807ZM195.506 127.859C195.015 128.136 194.708 128.504 194.708 128.873C194.708 129.241 194.984 129.579 195.506 129.886C196.735 130.592 198.823 130.592 200.082 129.886C200.573 129.61 200.88 129.241 200.88 128.873C200.88 128.504 200.604 128.166 200.082 127.859C199.468 127.491 198.639 127.337 197.81 127.337C196.98 127.337 196.151 127.521 195.537 127.859H195.506Z" fill="#403D8B"/>
<path d="M202.784 161.885L200.788 160.718C200.174 160.35 199.775 159.551 199.775 158.446C199.775 156.173 201.372 153.44 203.337 152.304C204.32 151.72 205.241 151.69 205.886 152.058L207.882 153.225L202.815 161.885H202.784Z" fill="#2B2633"/>
<path d="M205.333 153.471C203.368 154.607 201.771 157.34 201.771 159.613C201.771 161.885 203.368 162.806 205.333 161.67C207.299 160.534 208.896 157.801 208.896 155.528C208.896 153.256 207.299 152.335 205.333 153.471Z" fill="#221C3A"/>
<path d="M205.333 155.16C204.197 155.835 203.245 157.432 203.245 158.753C203.245 160.073 204.166 160.626 205.333 159.95C206.47 159.275 207.422 157.678 207.422 156.357C207.422 155.037 206.5 154.484 205.333 155.16Z" fill="#8A91B8"/>
<path d="M182.854 194.406C183.069 193.423 183.161 192.41 183.284 191.396L192.62 192.287C191.238 198.92 192.036 203.987 191.176 212.494C191.023 213.998 190.961 215.687 189.702 216.639C187.675 218.144 180.121 218.574 177.787 216.117C173.365 211.48 181.718 200.241 182.885 194.406H182.854Z" fill="#EAA510"/>
<path d="M183.161 192.226C183.376 191.243 183.468 190.229 183.591 189.216L192.927 190.107C191.545 196.74 192.343 201.807 191.483 210.313C191.33 211.818 191.268 213.507 190.009 214.459C187.983 215.964 180.428 216.394 178.094 213.937C173.672 209.3 182.025 198.06 183.192 192.226H183.161Z" fill="#221C3A"/>
<path d="M197.195 199.135C197.195 204.386 197.902 209.238 197.871 216.424C197.871 217.254 197.871 218.144 197.748 218.973C197.748 220.539 197.779 222.259 196.704 223.365C194.892 225.177 187.645 226.405 185.157 224.04C183.622 222.566 183.346 220.14 183.714 217.376C183.53 211.665 187.584 203.127 188.167 198.183C188.167 197.784 188.198 197.415 188.198 197.016C187.921 196.648 187.737 196.218 187.676 195.696C187.491 194.252 187.399 192.41 187.307 190.23L152.422 204.233V205.738C152.422 206.874 151.623 208.256 150.64 208.809C150.272 209.024 149.934 209.054 149.627 208.993C149.443 209.085 149.289 209.208 149.105 209.269C148.89 209.331 148.675 209.331 148.491 209.331C147.938 209.331 147.539 209.116 147.385 209.024L147.109 208.87C146.372 208.409 146.034 207.734 145.973 207.027L145.788 206.905C145.481 206.72 145.266 206.321 145.266 205.768V203.957L144.806 203.619V201.838L178.924 181.969C186.232 186.79 192.159 192.686 197.195 199.227V199.135Z" fill="#221C3A"/>
<path d="M184.912 224.286C183.438 222.873 182.946 220.601 183.346 217.346C183.223 213.906 184.574 209.638 185.895 205.492C186.754 202.728 187.584 200.087 187.829 198.122C187.829 197.937 187.829 197.753 187.829 197.569C187.829 197.385 187.829 197.231 187.829 197.047C187.553 196.617 187.369 196.156 187.307 195.665C187.123 194.314 187.061 192.625 186.969 190.69L152.79 204.417V205.707C152.79 206.966 151.93 208.471 150.855 209.085C150.487 209.3 150.088 209.361 149.658 209.361C149.535 209.423 149.381 209.515 149.228 209.546C148.982 209.607 148.767 209.638 148.552 209.607C147.907 209.607 147.447 209.331 147.262 209.238L146.986 209.085C146.28 208.655 145.85 207.979 145.666 207.119C145.205 206.874 144.959 206.352 144.959 205.676V204.018L144.652 203.772C144.652 203.772 144.529 203.588 144.529 203.496V201.715C144.529 201.715 144.591 201.469 144.683 201.408L178.801 181.539C178.801 181.539 179.077 181.477 179.169 181.539C186.017 186.053 192.036 191.704 197.503 198.859C197.564 198.92 197.564 199.012 197.564 199.074C197.564 201.469 197.718 203.834 197.871 206.321C198.055 209.208 198.27 212.494 198.24 216.363V216.639C198.24 217.407 198.24 218.205 198.117 219.096C198.117 220.662 198.117 222.413 196.95 223.58C195.752 224.777 192.62 225.668 189.764 225.668C187.798 225.668 185.956 225.269 184.912 224.255V224.286ZM178.954 182.276L145.205 201.93V203.342L145.543 203.588C145.635 203.649 145.666 203.772 145.666 203.864V205.676C145.666 206.075 145.788 206.382 146.003 206.505L146.188 206.628C146.188 206.628 146.341 206.782 146.372 206.905C146.464 207.611 146.802 208.133 147.355 208.501L147.631 208.655C147.631 208.655 148.122 208.901 148.583 208.931C148.736 208.931 148.921 208.931 149.074 208.87C149.136 208.87 149.228 208.808 149.289 208.747C149.351 208.716 149.443 208.655 149.504 208.624C149.596 208.594 149.658 208.594 149.75 208.624C149.996 208.686 150.241 208.624 150.487 208.501C151.347 208.01 152.084 206.751 152.084 205.738V204.233C152.084 204.233 152.176 203.956 152.299 203.895L187.184 189.892C187.184 189.892 187.43 189.861 187.522 189.892C187.614 189.953 187.676 190.076 187.676 190.168V190.567C187.798 192.533 187.86 194.222 188.044 195.573C188.106 196.003 188.259 196.371 188.536 196.74C188.566 196.801 188.597 196.893 188.597 196.955C188.597 197.17 188.597 197.385 188.597 197.6C188.597 197.784 188.597 197.937 188.597 198.152C188.351 200.241 187.522 202.882 186.632 205.676C185.403 209.576 184.021 213.968 184.144 217.346C183.745 220.386 184.206 222.474 185.495 223.733C187.768 225.914 194.739 224.869 196.551 223.088C197.503 222.136 197.503 220.601 197.503 219.096V218.881C197.625 218.175 197.625 217.407 197.625 216.639V216.363C197.625 212.494 197.441 209.238 197.257 206.352C197.103 203.895 196.95 201.561 196.95 199.197C191.576 192.226 185.71 186.667 179.046 182.245L178.954 182.276Z" fill="#221C3A"/>
<path d="M249.616 129.057C249.616 129.057 249.8 129.118 249.892 129.149C249.8 129.118 249.708 129.057 249.616 129.057Z" fill="#221C3A"/>
<path d="M173.51 124.368L193.26 112.279C195.259 110.987 196.705 109.018 197.32 106.711L201.843 89.3297C202.396 87.1456 201.658 84.9307 199.843 83.5463C198.059 82.162 195.721 82.0082 193.752 83.1464L172.464 95.2362C167.05 98.3124 163.666 104.096 163.666 110.341V110.648L167.327 121.323C167.45 122.646 168.219 123.876 169.419 124.522C170.034 124.861 170.711 125.045 171.357 125.045C172.095 125.045 172.864 124.83 173.479 124.43L173.51 124.368ZM174.248 98.4663L195.536 86.3457C196.521 85.792 197.32 86.3457 197.536 86.4996C197.751 86.6841 198.459 87.3302 198.182 88.3761L193.66 105.757C193.291 107.172 192.429 108.372 191.229 109.141L171.48 121.231C171.48 121.231 171.264 121.292 171.141 121.231C171.018 121.169 170.957 121.046 170.957 120.954V120.646L167.327 110.064C167.419 105.296 170.065 100.866 174.248 98.497V98.4663Z" fill="#221C3A"/>
<path d="M180.432 157.469C181.17 157.069 182.339 157.069 183.077 157.469C183.816 157.869 183.816 158.546 183.077 159.007C182.339 159.407 181.17 159.407 180.432 159.007C179.693 158.607 179.693 157.931 180.432 157.469Z" fill="#DCDCDC"/>
<path d="M217.347 155.777C216.024 155.008 213.871 155.008 212.548 155.777C211.225 156.546 211.225 157.777 212.548 158.577C213.871 159.346 216.055 159.346 217.378 158.577C218.701 157.807 218.701 156.577 217.378 155.777H217.347Z" fill="#828282"/>
<path d="M217.562 156.731V129.075L212.363 129.321V156.946C212.425 157.284 212.64 157.592 213.102 157.838C214.117 158.423 215.778 158.423 216.793 157.838C217.316 157.561 217.562 157.131 217.562 156.761V156.731Z" fill="url(#paint2_linear_187_3748)"/>
<path d="M217.562 155.562V140.211L212.363 140.457V155.777C212.425 156.116 212.64 156.423 213.102 156.669C214.117 157.254 215.778 157.254 216.793 156.669C217.316 156.392 217.562 155.962 217.562 155.593V155.562Z" fill="#828282"/>
<path d="M256.723 73.21C246.51 63.9812 242.911 69.1493 233.805 64.2273C222.515 58.1363 229.591 58.69 219.131 54.1064C212.21 51.0608 205.411 60.2897 205.811 64.8425L201.043 102.988C200.766 106.741 198.613 110.125 195.352 112.002L169.296 126.245C165.327 128.521 162.343 136.95 166.312 139.227C166.312 139.227 180.77 149.163 184.431 151.101C188.861 153.439 202.981 158.607 202.981 158.607C210.518 161.407 216.393 154.731 220.146 152.609L244.695 138.581C248.417 136.458 250.817 132.613 251.094 128.337L255.647 87.6993C257.123 78.3166 261.645 77.6091 256.754 73.2408L256.723 73.21Z" fill="#221C3A"/>
<path d="M252.878 71.8256C242.665 62.5968 239.066 67.7649 229.96 62.8429C218.67 56.7519 225.745 57.3056 215.286 52.722C208.364 49.6764 201.566 58.9053 201.966 63.4581L197.197 100.035C196.921 103.788 194.767 107.172 191.506 109.049L168.25 122.246C164.281 124.522 162.374 133.936 166.342 136.212C166.342 136.212 179.724 145.164 183.416 147.102C187.846 149.409 201.966 154.608 201.966 154.608C209.503 157.408 212.579 151.809 216.332 149.655L240.881 135.628C244.603 133.505 247.002 129.66 247.279 125.384L251.832 86.3149C253.278 76.9322 257.831 76.2247 252.94 71.8564L252.878 71.8256Z" fill="#C56CF0" stroke="#221C3A" stroke-width="1.67028"/>
<path d="M250.294 92.8059L196.274 74.0714" stroke="#221C3A" stroke-width="0.850897"/>
<path d="M250.294 110.064L196.274 91.3292" stroke="#221C3A" stroke-width="0.850897"/>
<path d="M188.307 103.204C188.307 103.204 173.879 112.74 166.096 122.031C158.344 131.29 181.293 135.935 184.277 135.935C187.261 135.935 209.81 127.999 209.81 127.999L216.855 115.693L188.276 103.204H188.307Z" fill="black"/>
<path d="M218.608 114.555C218.608 114.555 225.961 123.969 225.961 131.229C225.961 138.489 220.023 149.932 205.596 155.87C191.168 161.807 170.711 144.395 173.941 138.458C177.171 132.521 206.765 120.062 206.765 120.062L218.639 114.555H218.608Z" fill="black"/>
<path d="M195.136 62.6891L189.66 46.5387C189.66 46.5387 189.63 46.5387 189.599 46.5387C189.414 46.5079 189.168 46.4772 188.83 46.4156C188.184 46.3541 187.292 46.2926 186.277 46.4156C184.277 46.631 181.847 47.4923 180.155 49.9226C178.371 52.4759 176.248 56.2905 174.525 59.6436C173.664 61.3356 172.926 62.9045 172.372 64.1657C172.095 64.781 171.88 65.3347 171.726 65.7654C171.572 66.2268 171.48 66.5037 171.48 66.6883C171.387 67.4881 171.51 68.9955 171.972 70.5952C172.403 72.1948 173.11 73.7637 174.125 74.7481C176.186 76.7169 179.786 77.1784 183.569 75.7941C184.431 75.4864 185.6 74.5328 186.923 73.1792C188.215 71.8564 189.568 70.2568 190.799 68.6571C192.029 67.0574 193.167 65.5193 193.967 64.3811C194.367 63.7966 194.706 63.3352 194.921 62.9968C195.013 62.8429 195.106 62.7199 195.167 62.6584L195.136 62.6891Z" fill="#E6F1FF" stroke="#6361C2" stroke-width="0.850897"/>
<path d="M215.286 52.5682C212.702 51.4915 209.872 50.6302 207.872 50.0457C207.81 50.1072 207.749 50.1687 207.657 50.2303C207.411 50.4456 207.011 50.7532 206.549 51.1224C205.626 51.8607 204.365 52.8451 202.981 53.7987C201.596 54.7524 200.058 55.706 198.643 56.3521C197.228 56.9981 195.844 57.3672 194.736 57.1211C193.813 56.9058 192.952 56.1982 192.214 55.3676C191.475 54.5371 190.799 53.4911 190.245 52.476C189.691 51.4608 189.23 50.5071 188.891 49.7688C188.738 49.3997 188.615 49.092 188.522 48.9075C188.522 48.9075 188.522 48.9075 188.522 48.8767C186.984 49.0613 185.907 49.2151 185.138 49.3997C184.339 49.5843 183.908 49.7996 183.631 50.0765C182.585 51.1532 181.816 52.6605 181.293 54.4448C180.77 56.229 180.462 58.2286 180.278 60.2589C179.97 64.0735 180.186 67.8573 180.278 70.0107C180.278 70.1338 180.278 70.2568 180.278 70.3491C180.955 81.2083 180.155 91.4831 178.955 106.864C178.709 109.91 178.463 113.14 178.186 116.585C177.909 120.4 180.216 123.722 184.154 126.46C188.061 129.198 193.506 131.259 199.228 132.49C204.919 133.72 210.887 134.151 215.809 133.597C218.27 133.32 220.454 132.797 222.238 132.059C223.653 131.444 224.792 130.675 225.591 129.783L226.022 129.106C226.022 129.106 226.022 129.106 226.022 129.044C226.022 129.014 226.022 128.952 226.084 128.891C226.114 128.737 226.145 128.552 226.176 128.306C226.237 127.814 226.299 127.168 226.33 126.399C226.422 124.799 226.483 122.646 226.514 120.123C226.576 115.047 226.514 108.495 226.391 102.035C226.299 95.5438 226.145 89.1451 226.022 84.3461C225.96 81.9466 225.899 79.9471 225.868 78.5627C225.868 77.8552 225.837 77.3322 225.807 76.9631V76.5324V76.4401C225.591 75.6095 225.376 74.1637 225.099 72.4102C225.038 72.041 224.976 71.6719 224.915 71.272C224.699 69.7646 224.422 68.0727 224.145 66.3807C223.776 64.2581 223.376 62.1354 222.915 60.382C222.454 58.5977 221.961 57.2134 221.408 56.5059C220.885 55.7983 219.993 55.0908 218.916 54.414C217.839 53.768 216.547 53.1527 215.194 52.599L215.286 52.5682Z" fill="#DDE8F6" stroke="#6361C2" stroke-width="0.850897"/>
<path d="M196.736 43.0011L190.583 56.9982L183.785 56.8443C183.785 56.8443 186.677 52.8452 190.645 47.4309C191.845 45.7698 196.428 42.9396 196.705 43.0011H196.736Z" fill="#FFF8F8"/>
<path d="M205.688 38.1096C202.181 40.3245 189.26 45.5542 189.26 45.5542C189.26 45.5542 188.491 51.03 188.953 54.5369C189.107 56.0751 189.476 56.598 190.06 57.0595C190.614 57.5209 192.398 57.9208 192.398 57.9208C196.397 58.1669 202.735 54.6907 204.488 53.0603C206.303 51.3684 208.272 48.4767 208.118 45.8003C208.026 44.6928 207.38 43.5546 206.672 42.4164C205.934 41.1551 205.749 39.6478 205.688 38.0789V38.1096Z" fill="#F2A883"/>
<path d="M206.734 42.5704C209.226 44.2624 210.087 46.6619 210.241 48.5999C210.364 50.0458 208.887 53.7373 200.643 64.1966L192.368 57.9518C198.982 55.6138 210.764 48.846 206.765 42.632L206.734 42.5704Z" fill="#FFF8F8"/>
<path d="M177.971 15.0993C178.678 13.3151 181.416 10.1157 184.154 10.3926C184.862 10.3926 185.661 11.0078 185.292 11.6231C184.769 12.7921 183.969 14.4533 184.308 15.6223C184.738 17.2219 186.061 18.5447 186.246 20.329C186.523 23.7129 180.401 25.2202 178.894 22.267C177.755 20.1444 176.955 17.468 177.909 14.9762V15.0685L177.971 15.0993Z" fill="#61351C"/>
<path d="M209.533 28.4194C208.826 31.8033 204.857 40.0477 202.55 42.078C198.397 45.8003 190.183 47.6769 185.754 44.3852C179.816 39.9554 180.001 29.3115 180.462 18.483C180.985 7.65455 189.291 6.05488 196.028 10.9462C202.827 15.9297 211.687 17.7755 209.472 28.3271L209.564 28.4194H209.533Z" fill="#FCBE9F"/>
<path d="M186.83 1.68666C191.168 -0.25139 196.982 -0.620543 202.827 1.59437C204.427 2.20963 205.749 2.91717 206.98 3.80929C210.794 6.39336 213.44 10.7309 214.332 15.9606C215.224 21.1902 213.625 26.8813 211.225 31.588C210.518 32.8185 209.718 33.9875 208.826 34.9719C208.641 35.3411 208.457 35.5872 208.21 35.9563C206.98 37.9867 204.765 40.8476 202.366 42.2627C201.566 42.9702 195.475 48.5691 189.384 48.6614C184.954 48.6614 181.878 46.1696 182.216 42.355C181.693 41.0322 181.508 37.8329 181.232 36.3255C181.232 36.5101 181.754 36.4178 181.939 36.3255C182.831 35.7102 184.062 35.2488 185.108 35.3411C185.384 35.3411 185.631 35.5257 185.907 35.7102C187.415 35.095 189.261 36.9408 190.153 37.9252C191.045 38.8173 192.275 40.2324 192.183 41.5552C195.29 40.8476 198.12 39.5248 199.351 38.725C200.151 37.8329 201.043 37.033 202.273 36.3255C208.026 33.2185 207.749 28.2349 206.703 26.7275C204.304 23.0052 201.843 29.7423 199.443 30.4498C197.136 31.1574 199.812 22.1131 195.905 18.6369C194.921 17.7448 193.598 16.5143 192.029 16.6066C189.999 16.6989 188.061 17.4987 186.092 18.0217C183.17 18.8215 178.494 18.7292 178.032 14.7301C176.832 3.80929 187.353 1.96353 186.8 1.68666H186.83ZM189.045 41.709C189.045 41.709 188.861 41.3398 188.676 41.186C188.307 40.5708 187.784 40.017 187.353 39.4941C186.83 38.8788 185.938 38.2635 185.415 37.4637C184.8 37.8329 182.954 38.6327 182.677 38.6327C183.754 40.0478 185.138 41.5552 186.215 41.7397C187.107 41.9243 188.061 41.9243 189.045 41.9243V41.7397V41.709Z" fill="#78401F"/>
<path d="M224.915 149.994L244.295 137.935C246.264 136.643 247.679 134.674 248.264 132.367L252.693 115.016C253.247 112.832 252.509 110.648 250.725 109.264C248.94 107.88 246.664 107.726 244.757 108.864L223.869 120.954C218.547 124.03 215.255 129.813 215.255 136.027V136.335L218.854 146.979C218.977 148.302 219.746 149.532 220.915 150.178C221.5 150.517 222.177 150.701 222.823 150.701C223.561 150.701 224.299 150.486 224.915 150.086V150.024V149.994ZM225.653 124.153L246.541 112.063C247.494 111.51 248.294 112.063 248.51 112.217C248.725 112.402 249.402 113.048 249.156 114.094L244.726 131.444C244.357 132.859 243.526 134.059 242.357 134.797L222.977 146.856C222.977 146.856 222.73 146.917 222.638 146.856C222.515 146.794 222.484 146.702 222.484 146.579V146.271L218.916 135.689C219.008 130.921 221.623 126.522 225.714 124.153H225.653Z" fill="#221C3A"/>
<path d="M47.3828 193.308L108.631 157.685V96.4052L47.3828 132.028V193.308Z" fill="#B1A2A2"/>
<path d="M166.527 259.078L227.775 223.455V162.176L166.527 197.799V259.078Z" fill="#F7E9E9"/>
<path d="M162.866 256.925L166.527 259.048V197.768L162.866 195.646V256.925Z" fill="#DDCDCC"/>
<path d="M44.2451 191.739L47.9059 193.861V132.582L44.2451 130.459V191.739Z" fill="#DDCDCC"/>
<path d="M166.527 195.369L241.988 151.563V156.054L166.527 199.86V195.369Z" fill="#FFF8F8"/>
<path d="M37.4465 128.368L166.558 199.86V195.369L37.4465 123.876V128.368Z" fill="#EADCDB"/>
<path d="M166.527 195.369L241.988 151.563L112.877 80.0701L37.4158 123.876L166.527 195.369Z" fill="#C56CF0"/>
<path d="M112.754 110.495L173.079 145.256C174.187 145.902 175.571 145.902 176.679 145.256L192.183 136.274C193.167 135.72 193.167 134.305 192.183 133.751L154.376 111.94L134.872 98.8354C133.765 98.1894 129.366 98.3432 128.258 98.9892L112.784 107.972C111.8 108.526 111.8 109.941 112.784 110.495H112.754Z" fill="#C1AB9E"/>
<path d="M113.584 107.049L128.781 98.2509C129.889 97.6049 131.273 97.6049 132.38 98.2509L192.521 132.92L193.414 133.382V134.243C193.414 134.735 193.167 135.258 192.706 135.535L177.232 144.518C176.125 145.164 174.741 145.164 173.633 144.518L151.115 131.567L113.307 109.756C112.877 109.51 112.631 109.079 112.6 108.618V107.603L113.615 107.049H113.584Z" fill="url(#paint3_linear_187_3748)"/>
<path d="M113.277 108.71L173.602 143.472C174.71 144.118 176.094 144.118 177.202 143.472L192.706 134.489C193.69 133.936 193.69 132.52 192.706 131.967L154.899 110.156L132.38 97.2048C131.273 96.5588 129.889 96.5588 128.781 97.2048L113.307 106.188C112.323 106.741 112.323 108.156 113.307 108.71H113.277Z" fill="#FFF8F8"/>
<path d="M132.38 97.205L154.899 110.156L168.342 117.908L134.226 120.769L113.277 108.679C112.292 108.126 112.292 106.711 113.277 106.157L128.75 97.1742C129.858 96.5282 131.242 96.5282 132.35 97.1742L132.38 97.205Z" fill="#FFF8F8"/>
<path d="M134.503 115.601L136.164 116.555C136.41 116.678 136.995 116.709 137.179 116.555L138.748 115.693C138.994 115.54 138.994 115.355 138.748 115.201L137.087 114.248C136.841 114.125 136.256 114.094 136.072 114.248L134.503 115.109C134.257 115.263 134.257 115.447 134.503 115.601Z" fill="#6361C2"/>
<path d="M157.729 129.106L159.39 130.06C159.636 130.183 160.221 130.213 160.405 130.06L161.974 129.198C162.22 129.044 162.22 128.86 161.974 128.706L160.313 127.752C160.097 127.629 159.482 127.599 159.298 127.752L157.729 128.614C157.483 128.768 157.483 128.952 157.729 129.106Z" fill="#6361C2"/>
<path d="M154.837 126.952C154.591 127.106 154.591 127.291 154.837 127.445L156.498 128.398C156.744 128.521 157.329 128.552 157.514 128.398L159.082 127.537C159.329 127.383 159.329 127.199 159.082 127.045L157.421 126.091C157.175 125.968 156.591 125.937 156.406 126.091L154.837 126.952Z" fill="#6361C2"/>
<path d="M169.05 132.551L170.711 133.505C170.957 133.628 171.541 133.659 171.726 133.505L173.295 132.644C173.541 132.49 173.541 132.305 173.295 132.151L171.634 131.198C171.388 131.075 170.803 131.044 170.618 131.198L169.05 132.059C168.803 132.213 168.803 132.397 169.05 132.551Z" fill="#6361C2"/>
<path d="M166.219 130.89L167.88 131.844C168.127 131.967 168.711 131.998 168.896 131.844L170.465 130.982C170.711 130.829 170.711 130.644 170.465 130.49L168.803 129.537C168.557 129.414 167.973 129.383 167.788 129.537L166.219 130.398C165.973 130.552 165.973 130.736 166.219 130.89Z" fill="#6361C2"/>
<path d="M137.764 117.508L142.286 120.123C142.286 120.123 142.624 120.215 142.809 120.215C143.024 120.215 143.209 120.215 143.332 120.123L144.901 119.262C145.147 119.108 145.147 118.923 144.901 118.77L143.239 117.816L140.378 116.155C140.132 116.032 139.548 116.001 139.363 116.155L137.794 117.016C137.548 117.17 137.548 117.355 137.794 117.508H137.764Z" fill="#6361C2"/>
<path d="M146.316 122.492L147.977 123.446C148.223 123.569 148.808 123.599 148.992 123.446L150.561 122.584C150.807 122.43 150.807 122.246 150.561 122.092L148.9 121.138C148.654 121.015 148.069 120.985 147.885 121.138L146.316 122C146.07 122.154 146.07 122.338 146.316 122.492Z" fill="#6361C2"/>
<path d="M157.667 125.937L159.328 126.891C159.544 127.014 160.159 127.045 160.344 126.891L161.912 126.03C162.159 125.876 162.159 125.691 161.912 125.537L160.251 124.584C160.005 124.461 159.421 124.43 159.236 124.584L157.667 125.445C157.421 125.599 157.421 125.783 157.667 125.937Z" fill="#6361C2"/>
<path d="M166.25 133.566C166.004 133.72 166.004 133.905 166.25 134.059L167.911 135.012C168.157 135.135 168.742 135.166 168.926 135.012L170.495 134.151C170.741 133.997 170.741 133.812 170.495 133.659L168.834 132.705C168.588 132.582 168.003 132.551 167.819 132.705L166.25 133.566Z" fill="#6361C2"/>
<path d="M143.455 120.831L145.116 121.784C145.362 121.907 145.947 121.938 146.131 121.784L147.7 120.923C147.946 120.769 147.946 120.585 147.7 120.431L146.039 119.477C145.824 119.354 145.208 119.323 145.024 119.477L143.455 120.338C143.209 120.492 143.209 120.677 143.455 120.831Z" fill="#6361C2"/>
<path d="M154.806 124.245L156.468 125.199C156.714 125.322 157.298 125.353 157.483 125.199L159.052 124.338C159.298 124.184 159.298 123.999 159.052 123.845L157.39 122.892C157.144 122.769 156.56 122.738 156.375 122.892L154.806 123.753C154.56 123.907 154.56 124.091 154.806 124.245Z" fill="#6361C2"/>
<path d="M154.652 123.599L156.221 122.738C156.467 122.584 156.467 122.4 156.221 122.246L154.56 121.292C154.314 121.169 153.73 121.138 153.545 121.292L151.976 122.153C151.73 122.307 151.73 122.492 151.976 122.646L153.637 123.599C153.883 123.722 154.468 123.753 154.652 123.599Z" fill="#6361C2"/>
<path d="M166.066 130.213L167.634 129.352C167.881 129.198 167.881 129.013 167.634 128.86L165.973 127.906C165.727 127.783 165.143 127.752 164.958 127.906L163.389 128.767C163.143 128.921 163.143 129.106 163.389 129.26L165.05 130.213C165.296 130.336 165.881 130.367 166.066 130.213Z" fill="#6361C2"/>
<path d="M167.419 122.523L165.758 121.569C165.512 121.446 164.927 121.415 164.743 121.569L163.174 122.43C162.928 122.584 162.928 122.769 163.174 122.923L164.835 123.876C165.081 123.999 165.666 124.03 165.85 123.876L167.419 123.015C167.665 122.861 167.665 122.676 167.419 122.523Z" fill="#6361C2"/>
<path d="M170.28 124.184L168.619 123.23C168.373 123.107 167.788 123.076 167.604 123.23L166.035 124.091C165.789 124.245 165.789 124.43 166.035 124.584L167.696 125.537C167.942 125.66 168.526 125.691 168.711 125.537L170.28 124.676C170.526 124.522 170.526 124.338 170.28 124.184Z" fill="#6361C2"/>
<path d="M173.11 125.814L171.449 124.861C171.203 124.738 170.618 124.707 170.434 124.861L168.865 125.722C168.619 125.876 168.619 126.06 168.865 126.214L170.526 127.168C170.772 127.291 171.357 127.322 171.541 127.168L173.11 126.306C173.356 126.153 173.356 125.968 173.11 125.814Z" fill="#6361C2"/>
<path d="M161.728 119.2L160.067 118.247C159.821 118.124 159.236 118.093 159.052 118.247L157.483 119.108C157.237 119.262 157.237 119.446 157.483 119.6L159.144 120.554C159.39 120.677 159.974 120.708 160.159 120.554L161.728 119.693C161.974 119.539 161.974 119.354 161.728 119.2Z" fill="#6361C2"/>
<path d="M164.558 120.861L162.897 119.908C162.651 119.785 162.066 119.754 161.882 119.908L160.313 120.769C160.067 120.923 160.067 121.107 160.313 121.261L161.974 122.215C162.22 122.338 162.805 122.369 162.989 122.215L164.558 121.354C164.804 121.2 164.804 121.015 164.558 120.861Z" fill="#6361C2"/>
<path d="M176.156 134.305C176.402 134.151 176.402 133.966 176.156 133.813L174.494 132.859C174.248 132.736 173.664 132.705 173.479 132.859L171.91 133.72C171.664 133.874 171.664 134.059 171.91 134.213L173.572 135.166C173.818 135.289 174.402 135.32 174.587 135.166L176.156 134.305Z" fill="#6361C2"/>
<path d="M178.924 132.797C179.17 132.644 179.17 132.459 178.924 132.305L177.263 131.352C177.017 131.229 176.432 131.198 176.248 131.352L174.679 132.213C174.433 132.367 174.433 132.551 174.679 132.705L176.34 133.659C176.555 133.782 177.171 133.813 177.355 133.659L178.924 132.797Z" fill="#6361C2"/>
<path d="M169.142 135.689L170.803 136.643C171.049 136.766 171.634 136.797 171.818 136.643L173.387 135.781C173.633 135.628 173.633 135.443 173.387 135.289L171.726 134.336C171.48 134.213 170.895 134.182 170.711 134.336L169.142 135.197C168.896 135.351 168.896 135.535 169.142 135.689Z" fill="#6361C2"/>
<path d="M178.863 129.629C179.109 129.475 179.109 129.29 178.863 129.137L177.202 128.183C176.955 128.06 176.371 128.029 176.186 128.183L174.617 129.044C174.371 129.198 174.371 129.383 174.617 129.537L176.279 130.49C176.494 130.613 177.109 130.644 177.294 130.49L178.863 129.629Z" fill="#6361C2"/>
<path d="M176.033 130.675L174.371 129.721C174.125 129.598 173.541 129.567 173.356 129.721L171.787 130.582C171.541 130.736 171.541 130.921 171.787 131.075L173.449 132.028C173.695 132.151 174.279 132.182 174.464 132.028L176.033 131.167C176.279 131.013 176.279 130.829 176.033 130.675Z" fill="#6361C2"/>
<path d="M175.971 127.475L174.31 126.522C174.064 126.399 173.479 126.368 173.295 126.522L171.726 127.383C171.48 127.537 171.48 127.721 171.726 127.875L173.387 128.829C173.633 128.952 174.218 128.983 174.402 128.829L175.971 127.968C176.217 127.814 176.217 127.629 175.971 127.475Z" fill="#6361C2"/>
<path d="M119.86 106.68C119.614 106.834 119.614 107.018 119.86 107.172L121.521 108.126C121.767 108.249 122.352 108.28 122.536 108.126L124.105 107.264C124.351 107.111 124.351 106.926 124.105 106.772L122.444 105.818C122.198 105.695 121.613 105.665 121.429 105.818L119.86 106.68Z" fill="#6361C2"/>
<path d="M170.341 127.352L168.68 126.399C168.434 126.276 167.85 126.245 167.665 126.399L166.096 127.26C165.85 127.414 165.85 127.598 166.096 127.752L167.757 128.706C168.003 128.829 168.588 128.86 168.773 128.706L170.341 127.845C170.588 127.691 170.588 127.506 170.341 127.352Z" fill="#6361C2"/>
<path d="M158.867 117.57L157.206 116.616C156.96 116.493 156.375 116.462 156.191 116.616L154.622 117.477C154.376 117.631 154.376 117.816 154.622 117.97L156.283 118.923C156.529 119.046 157.114 119.077 157.298 118.923L158.867 118.062C159.113 117.908 159.113 117.724 158.867 117.57Z" fill="#6361C2"/>
<path d="M125.582 110.433L127.243 111.387C127.458 111.51 128.074 111.54 128.258 111.387L129.827 110.525C130.073 110.371 130.073 110.187 129.827 110.033L128.166 109.079C127.92 108.956 127.335 108.926 127.151 109.079L125.582 109.941C125.336 110.095 125.336 110.279 125.582 110.433Z" fill="#6361C2"/>
<path d="M122.598 105.142C122.352 105.295 122.352 105.48 122.598 105.634L124.259 106.587C124.505 106.71 125.089 106.741 125.274 106.587L126.843 105.726C127.089 105.572 127.089 105.388 126.843 105.234L125.182 104.28C124.936 104.157 124.351 104.126 124.167 104.28L122.598 105.142Z" fill="#6361C2"/>
<path d="M128.812 112.31L130.473 113.263C130.719 113.386 131.304 113.417 131.488 113.263L133.057 112.402C133.303 112.248 133.303 112.063 133.057 111.91L131.396 110.956C131.15 110.833 130.565 110.802 130.381 110.956L128.812 111.817C128.566 111.971 128.566 112.156 128.812 112.31Z" fill="#6361C2"/>
<path d="M131.642 113.94L133.303 114.893C133.549 115.016 134.134 115.047 134.318 114.893L135.887 114.032C136.133 113.878 136.133 113.694 135.887 113.54L134.226 112.586C133.98 112.463 133.396 112.432 133.211 112.586L131.642 113.448C131.396 113.601 131.396 113.786 131.642 113.94Z" fill="#6361C2"/>
<path d="M122.721 108.802L124.382 109.756C124.628 109.879 125.212 109.91 125.397 109.756L126.966 108.895C127.212 108.741 127.212 108.556 126.966 108.403L125.305 107.449C125.059 107.326 124.474 107.295 124.29 107.449L122.721 108.31C122.475 108.464 122.475 108.649 122.721 108.802Z" fill="#6361C2"/>
<path d="M122.505 104.957L126.843 102.558C127.089 102.404 127.089 102.219 126.843 102.065L125.182 101.112C124.936 100.989 124.351 100.958 124.167 101.112L122.598 101.973L119.829 103.481C119.583 103.634 119.583 103.819 119.829 103.973L121.49 104.926C121.736 105.049 122.321 105.08 122.505 104.926V104.957Z" fill="#6361C2"/>
<path d="M129.735 106.926L128.074 105.972C127.827 105.849 127.243 105.818 127.058 105.972L125.49 106.834C125.243 106.987 125.243 107.172 125.49 107.326L127.151 108.28C127.397 108.403 127.981 108.433 128.166 108.28L129.735 107.418C129.981 107.264 129.981 107.08 129.735 106.926Z" fill="#6361C2"/>
<path d="M128.35 108.925L130.012 109.879C130.258 110.002 130.842 110.033 131.027 109.879L132.596 109.018C132.842 108.864 132.842 108.679 132.596 108.525L130.934 107.572C130.688 107.449 130.104 107.418 129.919 107.572L128.35 108.433C128.104 108.587 128.104 108.772 128.35 108.925Z" fill="#6361C2"/>
<path d="M132.534 105.88C132.78 105.726 132.78 105.542 132.534 105.388L130.873 104.434C130.627 104.311 130.042 104.28 129.858 104.434L128.289 105.296C128.043 105.449 128.043 105.634 128.289 105.788L129.95 106.741C130.196 106.864 130.781 106.895 130.965 106.741L132.534 105.88Z" fill="#6361C2"/>
<path d="M129.642 103.757L127.981 102.804C127.735 102.681 127.151 102.65 126.966 102.804L125.397 103.665C125.151 103.819 125.151 104.003 125.397 104.157L127.058 105.111C127.274 105.234 127.889 105.265 128.074 105.111L129.642 104.249C129.889 104.096 129.889 103.911 129.642 103.757Z" fill="#6361C2"/>
<path d="M149.084 120.954L150.746 121.907C150.992 122.03 151.576 122.061 151.761 121.907L153.33 121.046C153.576 120.892 153.576 120.708 153.33 120.554L151.669 119.6C151.422 119.477 150.838 119.446 150.653 119.6L149.084 120.461C148.838 120.615 148.838 120.8 149.084 120.954Z" fill="#6361C2"/>
<path d="M138.81 112.74L137.241 113.601C136.995 113.755 136.995 113.94 137.241 114.094L138.902 115.047C139.148 115.17 139.733 115.201 139.917 115.047L141.486 114.186C141.732 114.032 141.732 113.848 141.486 113.694L139.825 112.74C139.579 112.617 138.994 112.586 138.81 112.74Z" fill="#6361C2"/>
<path d="M156.098 119.077L154.437 118.123C154.191 118 153.607 117.97 153.422 118.123L151.853 118.985C151.607 119.139 151.607 119.323 151.853 119.477L153.514 120.431C153.76 120.554 154.345 120.584 154.529 120.431L156.098 119.569C156.344 119.415 156.344 119.231 156.098 119.077Z" fill="#6361C2"/>
<path d="M147.639 117.324L145.977 116.37C145.731 116.247 145.147 116.216 144.962 116.37L143.393 117.231C143.147 117.385 143.147 117.57 143.393 117.724L145.054 118.677C145.301 118.8 145.885 118.831 146.07 118.677L147.639 117.816C147.885 117.662 147.885 117.478 147.639 117.324Z" fill="#6361C2"/>
<path d="M153.237 117.447L151.576 116.493C151.33 116.37 150.746 116.339 150.561 116.493L148.992 117.355C148.746 117.508 148.746 117.693 148.992 117.847L150.653 118.8C150.899 118.923 151.484 118.954 151.669 118.8L153.237 117.939C153.484 117.785 153.484 117.601 153.237 117.447Z" fill="#6361C2"/>
<path d="M146.254 119.293L147.916 120.246C148.162 120.369 148.746 120.4 148.931 120.246L150.5 119.385C150.746 119.231 150.746 119.046 150.5 118.893L148.838 117.939C148.623 117.816 148.008 117.785 147.823 117.939L146.254 118.8C146.008 118.954 146.008 119.139 146.254 119.293Z" fill="#6361C2"/>
<path d="M150.377 115.755L145.885 113.14C145.885 113.14 145.547 113.048 145.362 113.048C145.147 113.048 144.962 113.048 144.839 113.14L143.27 114.001L140.502 115.509C140.256 115.663 140.256 115.847 140.502 116.001L142.163 116.955C142.409 117.078 142.994 117.109 143.178 116.955L145.455 115.724L147.762 117.047C148.008 117.17 148.592 117.201 148.777 117.047L150.346 116.186C150.592 116.032 150.592 115.847 150.346 115.693L150.377 115.755Z" fill="#6361C2"/>
<path d="M164.743 127.229L163.081 126.276C162.835 126.153 162.251 126.122 162.066 126.276L160.497 127.137C160.251 127.291 160.251 127.476 160.497 127.629L162.159 128.583C162.405 128.706 162.989 128.737 163.174 128.583L164.743 127.722C164.989 127.568 164.989 127.383 164.743 127.229Z" fill="#6361C2"/>
<path d="M168.957 129.352L170.618 130.306C170.865 130.429 171.449 130.459 171.634 130.306L173.203 129.444C173.449 129.29 173.449 129.106 173.203 128.952L171.541 127.998C171.326 127.875 170.711 127.844 170.526 127.998L168.957 128.86C168.711 129.013 168.711 129.198 168.957 129.352Z" fill="#6361C2"/>
<path d="M158.929 120.738L157.267 119.785C157.021 119.662 156.437 119.631 156.252 119.785L154.683 120.646C154.437 120.8 154.437 120.985 154.683 121.138L156.345 122.092C156.591 122.215 157.175 122.246 157.36 122.092L158.929 121.231C159.175 121.077 159.175 120.892 158.929 120.738Z" fill="#6361C2"/>
<path d="M167.481 125.691L165.819 124.738C165.573 124.615 164.989 124.584 164.804 124.738L163.235 125.599C162.989 125.753 162.989 125.937 163.235 126.091L164.897 127.045C165.112 127.168 165.727 127.199 165.912 127.045L167.481 126.184C167.727 126.03 167.727 125.845 167.481 125.691Z" fill="#6361C2"/>
<path d="M161.789 122.4L160.128 121.446C159.882 121.323 159.298 121.292 159.113 121.446L157.544 122.307C157.298 122.461 157.298 122.646 157.544 122.8L159.205 123.753C159.421 123.876 160.036 123.907 160.221 123.753L161.789 122.892C162.036 122.738 162.036 122.554 161.789 122.4Z" fill="#6361C2"/>
<path d="M164.62 124.061L162.958 123.107C162.712 122.984 162.128 122.953 161.943 123.107L160.374 123.968C160.128 124.122 160.128 124.307 160.374 124.461L162.035 125.414C162.282 125.537 162.866 125.568 163.051 125.414L164.62 124.553C164.866 124.399 164.866 124.215 164.62 124.061Z" fill="#6361C2"/>
<path d="M123.674 110.74C123.921 110.587 123.921 110.402 123.674 110.248L122.013 109.295C121.767 109.172 121.183 109.141 120.998 109.295L120.537 109.541C120.291 109.694 120.291 109.879 120.537 110.033L122.198 110.987C122.444 111.11 123.028 111.14 123.213 110.987L123.674 110.74Z" fill="#6361C2"/>
<path d="M179.57 132.89C179.355 132.89 179.17 132.89 179.047 132.982L177.479 133.843C177.232 133.997 177.232 134.182 177.479 134.336L179.14 135.289L182.001 136.95C182.216 137.074 182.831 137.104 183.016 136.95L184.585 136.089C184.831 135.935 184.831 135.751 184.585 135.597L180.063 132.982C180.063 132.982 179.724 132.89 179.54 132.89H179.57Z" fill="#6361C2"/>
<path d="M179.509 129.721H179.14C179.14 129.721 179.017 129.721 178.955 129.783L177.386 130.644C177.386 130.644 177.202 130.798 177.202 130.89C177.202 130.982 177.294 131.075 177.417 131.136L179.078 132.09L181.939 133.751L184.8 135.412C185.046 135.535 185.631 135.566 185.815 135.412L187.384 134.551C187.63 134.397 187.63 134.212 187.384 134.059L180.032 129.783C180.032 129.783 179.693 129.69 179.509 129.69V129.752V129.721Z" fill="#6361C2"/>
<path d="M156.006 115.909L148.654 111.633C148.408 111.51 147.823 111.479 147.639 111.633L146.1 112.494C145.854 112.617 145.885 112.802 146.162 112.956L153.514 117.232C153.76 117.355 154.345 117.385 154.529 117.232L156.098 116.37C156.344 116.216 156.344 116.032 156.098 115.878L156.006 115.909Z" fill="#6361C2"/>
<path d="M180.155 129.137C179.909 129.29 179.909 129.475 180.155 129.629L181.816 130.582C182.062 130.706 182.647 130.736 182.831 130.582L184.4 129.721C184.646 129.567 184.646 129.383 184.4 129.229L182.739 128.275C182.493 128.152 181.908 128.121 181.724 128.275L180.155 129.137Z" fill="#6361C2"/>
<path d="M176.371 137.689L174.802 138.55C174.556 138.704 174.556 138.888 174.802 139.042L176.463 139.996C176.709 140.119 177.294 140.15 177.478 139.996L179.047 139.134C179.293 138.981 179.293 138.796 179.047 138.642L177.386 137.689C177.14 137.566 176.555 137.535 176.371 137.689Z" fill="#6361C2"/>
<path d="M182.985 130.798C182.739 130.952 182.739 131.136 182.985 131.29L187.507 133.905C187.753 134.028 188.338 134.059 188.522 133.905L190.091 133.044C190.337 132.89 190.337 132.705 190.091 132.551L187.261 130.89L185.6 129.937C185.6 129.937 185.261 129.844 185.046 129.844C184.831 129.844 184.646 129.844 184.523 129.937L182.954 130.798H182.985Z" fill="#6361C2"/>
<path d="M164.374 134.366C164.62 134.212 164.62 134.028 164.374 133.874L162.712 132.92C162.466 132.797 161.882 132.767 161.697 132.92L161.236 133.167C160.99 133.32 160.99 133.505 161.236 133.659L162.897 134.612C163.143 134.735 163.728 134.766 163.912 134.612L164.374 134.366Z" fill="#6361C2"/>
<path d="M177.325 127.476C177.079 127.629 177.079 127.814 177.325 127.968L178.986 128.921C179.232 129.044 179.816 129.075 180.001 128.921L181.57 128.06C181.816 127.906 181.816 127.722 181.57 127.568L179.909 126.614C179.663 126.491 179.078 126.46 178.894 126.614L177.325 127.476Z" fill="#6361C2"/>
<path d="M167.234 135.997C167.481 135.843 167.481 135.658 167.234 135.504L165.573 134.551C165.327 134.428 164.743 134.397 164.558 134.551L164.097 134.797C163.851 134.951 163.851 135.135 164.097 135.289L165.758 136.243C165.973 136.366 166.588 136.397 166.773 136.243L167.234 135.997Z" fill="#6361C2"/>
<path d="M176.248 137.504C176.494 137.35 176.494 137.166 176.248 137.012L174.587 136.058C174.341 135.935 173.756 135.905 173.572 136.058L172.003 136.92C171.757 137.074 171.757 137.258 172.003 137.412L173.664 138.366C173.91 138.489 174.494 138.519 174.679 138.366L176.248 137.504Z" fill="#6361C2"/>
<path d="M173.049 139.504L172.587 139.75C172.341 139.904 172.341 140.088 172.587 140.242L174.248 141.196C174.494 141.319 175.079 141.349 175.264 141.196L175.725 140.95C175.971 140.796 175.971 140.611 175.725 140.457L174.064 139.504C173.818 139.381 173.233 139.35 173.049 139.504Z" fill="#6361C2"/>
<path d="M170.065 137.689C170.311 137.535 170.311 137.35 170.065 137.196L168.403 136.243C168.157 136.12 167.573 136.089 167.388 136.243L166.927 136.489C166.681 136.643 166.681 136.827 166.927 136.981L168.588 137.935C168.834 138.058 169.419 138.089 169.603 137.935L170.065 137.689Z" fill="#6361C2"/>
<path d="M129.642 98.0354L128.074 98.8968L125.305 100.404C125.059 100.558 125.059 100.743 125.305 100.896L126.966 101.85C127.212 101.973 127.797 102.004 127.981 101.85L132.319 99.4505C132.565 99.2967 132.565 99.1121 132.319 98.9583L130.658 98.0047C130.412 97.8816 129.827 97.8508 129.642 98.0047V98.0354Z" fill="#6361C2"/>
<path d="M139.825 105.726C139.579 105.88 139.579 106.065 139.825 106.218L141.486 107.172C141.732 107.295 142.317 107.326 142.501 107.172L144.07 106.311C144.316 106.157 144.316 105.972 144.07 105.818L142.409 104.865C142.163 104.742 141.578 104.711 141.394 104.865L139.825 105.726Z" fill="#6361C2"/>
<path d="M133.795 102.219C133.549 102.373 133.549 102.558 133.795 102.711L135.457 103.665L138.318 105.326C138.564 105.449 139.148 105.48 139.333 105.326L140.902 104.465C141.148 104.311 141.148 104.126 140.902 103.973L138.041 102.311L136.379 101.358C136.133 101.235 135.549 101.204 135.364 101.358L133.795 102.219Z" fill="#6361C2"/>
<path d="M130.934 100.558C130.688 100.712 130.688 100.896 130.934 101.05L132.596 102.004C132.842 102.127 133.426 102.158 133.611 102.004L135.18 101.143C135.426 100.989 135.426 100.804 135.18 100.65L133.518 99.6967C133.272 99.5736 132.688 99.5429 132.503 99.6967L130.934 100.558Z" fill="#6361C2"/>
<path d="M166.127 133.413L167.696 132.551C167.942 132.398 167.942 132.213 167.696 132.059L166.035 131.105C165.789 130.982 165.204 130.952 165.02 131.105L163.451 131.967C163.205 132.121 163.205 132.305 163.451 132.459L165.112 133.413C165.358 133.536 165.942 133.567 166.127 133.413Z" fill="#6361C2"/>
<path d="M142.686 107.388C142.44 107.541 142.44 107.726 142.686 107.88L144.347 108.833C144.593 108.956 145.178 108.987 145.362 108.833L146.931 107.972C147.177 107.818 147.177 107.634 146.931 107.48L145.27 106.526C145.055 106.403 144.439 106.372 144.255 106.526L142.686 107.388Z" fill="#6361C2"/>
<path d="M160.22 117.539C159.974 117.693 159.974 117.877 160.22 118.031L161.882 118.985C162.128 119.108 162.712 119.139 162.897 118.985L164.466 118.123C164.712 117.97 164.712 117.785 164.466 117.631L162.805 116.678C162.558 116.555 161.974 116.524 161.789 116.678L160.22 117.539Z" fill="#6361C2"/>
<path d="M163.051 119.2C162.805 119.354 162.805 119.539 163.051 119.692L176.094 127.291C176.34 127.414 176.925 127.445 177.109 127.291L178.678 126.429C178.924 126.276 178.924 126.091 178.678 125.937L167.265 119.323L165.604 118.37C165.358 118.247 164.774 118.216 164.589 118.37L163.02 119.231L163.051 119.2Z" fill="#6361C2"/>
<path d="M157.36 115.909C157.114 116.062 157.114 116.247 157.36 116.401L159.021 117.354C159.267 117.478 159.851 117.508 160.036 117.354L161.605 116.493C161.851 116.339 161.851 116.155 161.605 116.001L159.944 115.047C159.698 114.924 159.113 114.893 158.929 115.047L157.36 115.909Z" fill="#6361C2"/>
<path d="M145.516 109.049C145.27 109.202 145.27 109.387 145.516 109.541L147.177 110.494C147.423 110.617 148.008 110.648 148.192 110.494L149.761 109.633C150.007 109.479 150.007 109.295 149.761 109.141L148.1 108.187C147.854 108.064 147.269 108.033 147.085 108.187L145.516 109.049Z" fill="#6361C2"/>
<path d="M148.838 110.925C148.592 111.079 148.592 111.263 148.838 111.417L153.361 114.032C153.607 114.155 154.191 114.186 154.376 114.032L155.945 113.171C156.191 113.017 156.191 112.832 155.945 112.678L151.422 110.064C151.176 109.941 150.592 109.91 150.407 110.064L148.838 110.925Z" fill="#6361C2"/>
<path d="M154.499 114.247C154.253 114.401 154.253 114.586 154.499 114.74L156.16 115.693C156.406 115.816 156.991 115.847 157.175 115.693L158.744 114.832C158.99 114.678 158.99 114.493 158.744 114.34L157.083 113.386C156.868 113.263 156.252 113.232 156.068 113.386L154.499 114.247Z" fill="#6361C2"/>
<path d="M176.802 134.428C176.586 134.428 176.402 134.428 176.279 134.52L174.71 135.382C174.464 135.535 174.464 135.72 174.71 135.874L176.371 136.827L179.232 138.489C179.478 138.612 180.062 138.642 180.247 138.489L181.816 137.627C182.062 137.473 182.062 137.289 181.816 137.135L177.294 134.52C177.294 134.52 176.955 134.428 176.771 134.428H176.802Z" fill="#6361C2"/>
<path d="M119.706 106.495L121.275 105.634C121.521 105.48 121.521 105.295 121.275 105.142L119.614 104.188C119.368 104.065 118.783 104.034 118.599 104.188L117.03 105.049C116.784 105.203 116.784 105.388 117.03 105.542L118.691 106.495C118.937 106.618 119.522 106.649 119.706 106.495Z" fill="#6361C2"/>
<path d="M132.411 102.219L130.75 101.266C130.504 101.142 129.919 101.112 129.735 101.266L128.166 102.127C127.92 102.281 127.92 102.465 128.166 102.619L129.827 103.573C130.073 103.696 130.658 103.727 130.842 103.573L132.411 102.711C132.657 102.558 132.657 102.373 132.411 102.219Z" fill="#6361C2"/>
<path d="M117.983 107.449C118.229 107.295 118.229 107.111 117.983 106.957L116.322 106.003C116.076 105.88 115.491 105.849 115.307 106.003L114.845 106.249C114.599 106.403 114.599 106.588 114.845 106.741L116.507 107.695C116.722 107.818 117.337 107.849 117.522 107.695L117.983 107.449Z" fill="#6361C2"/>
<path d="M126.535 112.433C126.781 112.279 126.781 112.094 126.535 111.94L124.874 110.987C124.628 110.864 124.043 110.833 123.859 110.987L123.397 111.233C123.151 111.387 123.151 111.571 123.397 111.725L125.059 112.679C125.305 112.802 125.889 112.832 126.074 112.679L126.535 112.433Z" fill="#6361C2"/>
<path d="M120.844 109.11C121.09 108.956 121.09 108.772 120.844 108.618L119.183 107.664C118.937 107.541 118.353 107.511 118.168 107.664L117.707 107.91C117.46 108.064 117.46 108.249 117.707 108.403L119.368 109.356C119.614 109.479 120.198 109.51 120.383 109.356L120.844 109.11Z" fill="#6361C2"/>
<path d="M135.272 103.881L133.611 102.927C133.365 102.804 132.78 102.773 132.596 102.927L131.027 103.788C130.781 103.942 130.781 104.127 131.027 104.28L132.688 105.234C132.903 105.357 133.519 105.388 133.703 105.234L135.272 104.373C135.518 104.219 135.518 104.034 135.272 103.881Z" fill="#6361C2"/>
<path d="M138.133 106.034C138.379 105.88 138.379 105.695 138.133 105.542L136.472 104.588C136.226 104.465 135.641 104.434 135.457 104.588L133.888 105.449C133.642 105.603 133.642 105.788 133.888 105.941L135.549 106.895C135.795 107.018 136.379 107.049 136.564 106.895L138.133 106.034Z" fill="#6361C2"/>
<path d="M135.826 110.433L134.165 109.479C133.919 109.356 133.334 109.325 133.149 109.479L131.581 110.341C131.334 110.494 131.334 110.679 131.581 110.833L133.242 111.786C133.488 111.91 134.072 111.94 134.257 111.786L135.826 110.925C136.072 110.771 136.072 110.587 135.826 110.433Z" fill="#6361C2"/>
<path d="M135.98 111.048L134.411 111.909C134.165 112.063 134.165 112.248 134.411 112.402L136.072 113.355C136.318 113.478 136.902 113.509 137.087 113.355L138.656 112.494C138.902 112.34 138.902 112.156 138.656 112.002L136.995 111.048C136.749 110.925 136.164 110.894 135.98 111.048Z" fill="#6361C2"/>
<path d="M164.835 130.89C165.081 130.736 165.081 130.552 164.835 130.398L163.174 129.444C162.928 129.321 162.343 129.29 162.158 129.444L160.59 130.305C160.344 130.459 160.344 130.644 160.59 130.798L162.251 131.751C162.497 131.874 163.081 131.905 163.266 131.751L164.835 130.89Z" fill="#6361C2"/>
<path d="M135.364 107.049L133.703 106.095C133.457 105.972 132.873 105.941 132.688 106.095L131.119 106.957C130.873 107.11 130.873 107.295 131.119 107.449L132.78 108.402C133.026 108.525 133.611 108.556 133.796 108.402L135.364 107.541C135.611 107.387 135.611 107.203 135.364 107.049Z" fill="#6361C2"/>
<path d="M144.224 109.541C144.47 109.387 144.47 109.202 144.224 109.049L142.563 108.095C142.317 107.972 141.732 107.941 141.548 108.095L139.979 108.956C139.733 109.11 139.733 109.295 139.979 109.449L141.64 110.402C141.886 110.525 142.471 110.556 142.655 110.402L144.224 109.541Z" fill="#6361C2"/>
<path d="M129.735 114.248C129.981 114.094 129.981 113.909 129.735 113.755L128.074 112.802C127.827 112.679 127.243 112.648 127.058 112.802L126.597 113.048C126.351 113.202 126.351 113.386 126.597 113.54L128.258 114.494C128.504 114.617 129.089 114.647 129.273 114.494L129.735 114.248Z" fill="#6361C2"/>
<path d="M153.422 124.276C153.668 124.122 153.668 123.938 153.422 123.784L151.761 122.83C151.515 122.707 150.93 122.676 150.746 122.83L149.177 123.692C148.931 123.845 148.931 124.03 149.177 124.184L150.838 125.137C151.084 125.26 151.669 125.291 151.853 125.137L153.422 124.276Z" fill="#6361C2"/>
<path d="M152.961 127.752C153.207 127.599 153.207 127.414 152.961 127.26L151.299 126.307C151.084 126.183 150.469 126.153 150.284 126.307L149.823 126.553C149.577 126.706 149.577 126.891 149.823 127.045L151.484 127.998C151.73 128.122 152.315 128.152 152.499 127.998L152.961 127.752Z" fill="#6361C2"/>
<path d="M154.714 126.768L156.283 125.907C156.529 125.753 156.529 125.568 156.283 125.414L154.622 124.461C154.406 124.338 153.791 124.307 153.607 124.461L152.038 125.322C151.792 125.476 151.792 125.66 152.038 125.814L153.699 126.768C153.945 126.891 154.529 126.922 154.714 126.768Z" fill="#6361C2"/>
<path d="M155.821 129.413C156.068 129.26 156.068 129.075 155.821 128.921L154.16 127.968C153.914 127.844 153.33 127.814 153.145 127.968L152.684 128.214C152.437 128.367 152.437 128.552 152.684 128.706L154.345 129.659C154.591 129.783 155.175 129.813 155.36 129.659L155.821 129.413Z" fill="#6361C2"/>
<path d="M158.682 131.075C158.929 130.921 158.929 130.736 158.682 130.582L157.021 129.629C156.775 129.506 156.191 129.475 156.006 129.629L155.545 129.875C155.299 130.029 155.299 130.213 155.545 130.367L157.206 131.321C157.452 131.444 158.036 131.475 158.221 131.321L158.682 131.075Z" fill="#6361C2"/>
<path d="M144.409 122.8C144.655 122.646 144.655 122.461 144.409 122.307L142.747 121.354C142.501 121.231 141.917 121.2 141.732 121.354L141.271 121.6C141.025 121.754 141.025 121.938 141.271 122.092L142.932 123.046C143.178 123.169 143.763 123.199 143.947 123.046L144.409 122.8Z" fill="#6361C2"/>
<path d="M138.717 119.477C138.963 119.323 138.963 119.139 138.717 118.985L137.056 118.031C136.81 117.908 136.226 117.877 136.041 118.031L135.58 118.277C135.333 118.431 135.333 118.616 135.58 118.77L137.241 119.723C137.456 119.846 138.071 119.877 138.256 119.723L138.717 119.477Z" fill="#6361C2"/>
<path d="M135.457 117.57C135.703 117.416 135.703 117.231 135.457 117.078L133.795 116.124C133.549 116.001 132.965 115.97 132.78 116.124L132.319 116.37C132.073 116.524 132.073 116.709 132.319 116.862L133.98 117.816C134.226 117.939 134.811 117.97 134.995 117.816L135.457 117.57Z" fill="#6361C2"/>
<path d="M141.547 121.138C141.794 120.985 141.794 120.8 141.547 120.646L139.886 119.693C139.64 119.569 139.056 119.539 138.871 119.693L138.41 119.939C138.164 120.092 138.164 120.277 138.41 120.431L140.071 121.384C140.317 121.508 140.901 121.538 141.086 121.384L141.547 121.138Z" fill="#6361C2"/>
<path d="M132.596 115.909C132.842 115.755 132.842 115.57 132.596 115.416L130.934 114.463C130.688 114.34 130.104 114.309 129.919 114.463L129.458 114.709C129.212 114.863 129.212 115.047 129.458 115.201L131.119 116.155C131.365 116.278 131.95 116.308 132.134 116.155L132.596 115.909Z" fill="#6361C2"/>
<path d="M147.269 124.43C147.515 124.276 147.515 124.092 147.269 123.938L145.608 122.984C145.362 122.861 144.778 122.83 144.593 122.984L144.132 123.23C143.885 123.384 143.885 123.569 144.132 123.722L145.793 124.676C146.039 124.799 146.623 124.83 146.808 124.676L147.269 124.43Z" fill="#6361C2"/>
<path d="M180.186 81.4236C179.54 82.931 177.817 86.3149 176.894 88.2837C173.141 96.6512 160.559 101.419 159.421 102.681C158.283 103.942 158.467 107.357 158.221 108.403C157.975 109.356 155.452 112.063 155.145 112.432V112.494C155.145 112.494 153.822 115.416 153.637 115.97C153.484 116.37 152.53 116.278 151.853 115.909C151.515 115.724 151.299 115.478 151.207 115.201C150.961 114.309 151.915 112.217 151.915 111.909C151.915 111.602 152.991 110.341 152.991 110.341L152.622 108.064L146.685 113.817C146.685 113.817 144.901 116.493 143.516 117.447C142.101 118.4 141.148 117.693 141.086 117.447C141.086 117.385 141.148 117.201 141.271 116.985C141.64 116.216 142.594 114.74 142.809 114.401C142.409 114.863 140.194 117.293 138.994 117.416C137.671 117.57 137.671 116.032 137.671 116.032C137.671 116.032 137.025 115.878 137.149 115.416C137.272 114.955 138.84 112.432 139.056 112.094C138.871 112.186 137.641 112.894 136.718 112.74C136.533 112.74 136.379 112.679 136.195 112.648C135.487 112.463 135.118 112.094 135.118 111.756C135.118 111.325 143.701 106.372 144.378 106.003C144.993 105.634 149.392 102.711 150.253 101.942C151.084 101.173 155.606 97.0511 157.329 94.0978C159.052 91.1139 165.235 83.1463 165.235 83.1463C165.235 83.1463 168.373 78.5319 169.049 77.486C169.388 76.963 170.249 74.1944 170.988 71.6103C171.111 71.2411 171.326 70.1029 171.418 69.7645C171.726 71.3027 172.433 73.3638 173.356 74.4405C175.54 77.0245 178.463 77.1168 180.216 77.0245C180.216 78.255 180.278 81.4851 180.278 81.4851L180.186 81.4236Z" fill="#FBBD9E"/>
<path d="M207.749 97.3896C208.487 94.4979 208.118 87.9454 208.118 87.9454L216.947 76.9939C216.947 76.9939 223.069 86.1612 223.346 90.8987C223.623 95.6361 221.162 113.478 216.27 116.862C211.256 119.047 192.368 118.923 182.77 118.862C179.57 118.862 177.417 118.831 177.14 118.893C176.063 119.231 168.896 122.738 168.896 122.738C168.896 122.738 161.912 127.414 160.651 127.691C159.39 127.998 159.298 126.06 159.298 126.06C159.298 126.06 158.221 126.706 156.56 127.506C155.575 127.998 155.36 127.414 155.329 126.891C155.329 126.891 155.329 126.891 155.299 126.86C155.052 126.583 154.929 126.214 154.929 126.214L156.929 123.692C156.929 123.692 158.99 122.184 160.713 120.923C160.805 120.862 160.867 120.8 160.959 120.738L162.805 118.923L158.067 121.907C158.067 121.907 153.484 126.214 152.13 126.214C151.453 126.214 151.33 125.691 151.422 125.199C150.961 124.891 151.515 124.399 151.669 124.245C151.669 124.245 151.669 124.245 151.699 124.215L156.068 119.816L156.221 119.723L157.206 118.708L152.561 121.877C152.561 121.877 151.238 122.83 150.684 122.769C150.284 122.738 149.915 122.092 149.854 121.508L149.823 121.477C149.823 121.261 149.823 121.046 149.884 120.892C150.1 120.523 153.73 117.785 155.76 116.309L155.945 116.216C156.652 115.693 157.114 115.355 157.114 115.355L155.114 114.647C155.114 114.647 154.96 114.309 154.868 113.94H154.837C154.714 113.448 154.683 112.863 155.052 112.771C155.175 112.74 155.329 112.709 155.483 112.74C156.344 112.74 157.79 113.109 157.913 113.14C158.313 113.14 161.913 112.863 162.343 112.832C162.466 112.832 162.743 112.74 163.143 112.586C163.881 112.34 165.081 111.94 166.465 111.633C167.265 111.448 168.157 111.294 169.049 111.264C169.234 111.264 169.388 111.264 169.572 111.264C171.172 111.233 172.218 111.017 173.725 110.771C175.51 110.433 177.909 110.002 182.616 109.572C188.738 108.987 198.151 107.387 203.165 106.495C205.257 106.126 206.58 105.88 206.58 105.88C206.58 105.88 206.98 100.404 207.718 97.5126L207.749 97.3896Z" fill="#FBBD9E"/>
<path d="M223.961 89.4834C223.961 89.4834 224.084 89.5142 224.146 89.545C224.207 89.3604 224.238 89.1451 224.269 88.8682C224.361 88.3145 224.422 87.6069 224.484 86.7763C224.607 85.1151 224.638 83.0233 224.638 80.8391C224.638 76.4708 224.484 71.8256 224.361 69.9184C224.361 69.9184 224.361 69.7953 224.361 69.7338C224.238 67.765 224.022 64.3195 223.315 61.1817C222.946 59.5821 222.484 58.0747 221.838 56.9057C221.192 55.7367 220.423 54.9369 219.5 54.6908C218.208 54.2909 216.824 54.5677 215.409 55.3983C214.025 56.2289 212.671 57.644 211.471 59.3975C209.072 62.9044 207.411 67.7957 207.441 72.2563C207.472 76.7784 207.872 80.9929 208.272 84.0692C208.456 85.6073 208.672 86.8379 208.795 87.6992C208.856 88.1299 208.918 88.4683 208.979 88.6836C209.133 88.6836 209.318 88.6836 209.533 88.6529C210.118 88.6221 210.887 88.5606 211.81 88.499C213.625 88.376 215.901 88.2837 217.716 88.2837C219.531 88.2837 221.254 88.6529 222.484 88.9912C223.1 89.1758 223.592 89.3296 223.961 89.4834Z" fill="#E6F1FF" stroke="#6361C2" stroke-width="0.850897"/>
<g style="mix-blend-mode:multiply">
<path d="M59.0919 123.71L99.5449 147.028C100.929 147.828 103.36 147.735 104.959 146.782L108.466 144.782C110.066 143.859 110.25 142.444 108.835 141.644L68.3823 118.326C66.998 117.526 64.5677 117.619 62.968 118.572L59.4611 120.603C57.8614 121.526 57.6769 122.941 59.0919 123.741V123.71Z" fill="black" fill-opacity="0.2"/>
</g>
<path d="M57.3691 27.5146L59.7686 26.1303H59.7994C59.984 26.038 60.2301 26.0688 60.5069 26.2226L104.344 51.3557C104.928 51.6941 105.421 52.5555 105.421 53.2322V133.4C105.421 133.769 105.236 134.015 105.051 134.107L102.621 135.523L101.237 132.231L60.4762 108.851C59.8917 108.513 59.3995 107.652 59.3995 106.975V32.4674L57.3384 27.4838L57.3691 27.5146Z" fill="#FFF8F8"/>
<path d="M102.99 134.784C102.99 135.492 102.498 135.769 101.914 135.43L58.0767 110.297C57.4922 109.959 57 109.097 57 108.421V28.253C57 27.5454 57.523 27.2686 58.1075 27.6069L101.944 52.7401C102.529 53.0785 103.021 53.9398 103.021 54.6166V134.784H102.99Z" fill="#EADCDB"/>
<path d="M64.9983 121.279C68.0131 131.031 81.1795 137.953 98.099 139.706C98.1605 139.706 98.0375 140.321 98.099 140.352L96.5609 145.951C76.3497 143.921 60.7223 134.907 57.1846 123.248V121.679L65.0291 121.279H64.9983Z" fill="#EADCDB"/>
<path d="M64.9983 120.664C68.0131 130.477 81.0564 138.014 98.099 139.737L96.5609 144.382C76.3498 142.352 60.7223 133.338 57.1846 121.679L65.0291 120.664H64.9983Z" fill="#FFF8F8"/>
<path d="M72.9043 76.6119L71.4277 77.1041L80.3182 101.314L81.764 100.791L81.5794 81.9647L72.9043 76.6119Z" fill="#B1A2A2"/>
<path d="M71.4277 77.0732L71.6123 95.9L80.3182 101.284L80.1028 82.4567L71.4277 77.0732Z" fill="#F8ECEB"/>
<path d="M81.3027 135.769C81.6103 136.968 77.7957 138.537 77.7957 138.537L76.3191 130.016L76.5652 91.009L78.7493 89.6246L78.2571 129.247C79.0877 130.17 81.3334 135.738 81.3334 135.738L81.3027 135.769Z" fill="#B1A2A2"/>
<path d="M76.2575 130.016L71.4893 127.278L71.7354 88.271L76.5343 91.0089L76.2882 130.016H76.2575Z" fill="#EADCDB"/>
<path d="M77.7342 138.537C71.4894 138.291 67.7363 135.246 65.829 133C64.9061 131.923 65.2445 130.262 66.5366 129.647L71.4894 127.247L76.2576 129.985C77.8573 131.923 79.8876 138.599 77.7342 138.507V138.537Z" fill="#EADCDB"/>
<path d="M78.6877 89.6554L73.3965 86.7021L71.7354 88.271L76.5343 91.0089L78.6877 89.6554Z" fill="#FFF8F8"/>
<g style="mix-blend-mode:multiply">
<path d="M111.199 156.062L170.21 189.962C171.594 190.762 174.024 190.669 175.624 189.716L179.131 187.716C180.731 186.793 180.915 185.378 179.5 184.578L120.49 150.678C119.105 149.879 116.675 149.971 115.075 150.925L111.569 152.955C109.969 153.878 109.784 155.293 111.199 156.093V156.062Z" fill="black" fill-opacity="0.2"/>
</g>
<path d="M108.461 83.5848L110.953 82.139C111.138 82.0467 111.415 82.0467 111.692 82.2313L181.215 122.315C181.8 122.654 182.292 123.515 182.292 124.192L182.138 174.673C182.138 174.981 182.046 175.227 181.831 175.35L179.37 176.765L176.016 172.366L111.538 135.205C110.953 134.866 110.461 134.005 110.461 133.328L110.584 86.415L108.431 83.5848H108.461Z" fill="#FFF8F8"/>
<path d="M109.231 83.6772L178.754 124.007C179.339 124.346 179.831 125.207 179.831 125.884L179.677 176.642C179.677 177.319 179.185 177.627 178.6 177.257L109.077 136.927C108.492 136.589 108 135.728 108 135.051L108.154 84.2924C108.154 83.5849 108.646 83.308 109.231 83.6772Z" fill="#EADCDB"/>
<path d="M130.334 160.153C133.349 169.905 146.515 176.827 163.434 178.58C163.496 178.58 163.373 179.195 163.434 179.226L161.896 184.825C141.685 182.795 126.058 173.781 122.52 162.122V160.553L130.365 160.153H130.334Z" fill="#EADCDB"/>
<path d="M130.334 159.538C133.349 169.351 146.392 176.888 163.434 178.611L161.896 183.256C141.685 181.226 126.058 172.212 122.52 160.553L130.365 159.538H130.334Z" fill="#FFF8F8"/>
<path d="M151.314 149.632L150.145 150.648L133.41 131.052L134.548 130.037L150.883 139.45L151.314 149.632Z" fill="#B1A2A2"/>
<path d="M150.145 150.648L133.81 141.234L133.379 131.052L149.714 140.465L150.145 150.678V150.648Z" fill="#F8ECEB"/>
<path d="M146.638 174.643C146.946 175.842 143.131 177.411 143.131 177.411L141.655 168.89L141.901 142.834L144.085 141.45L143.593 168.152C144.423 169.075 146.669 174.643 146.669 174.643H146.638Z" fill="#B1A2A2"/>
<path d="M141.593 168.89L136.825 166.152L137.071 140.096L141.87 142.834L141.624 168.89H141.593Z" fill="#F8ECEB"/>
<path d="M143.069 177.411C136.825 177.165 133.072 174.119 131.164 171.874C130.241 170.797 130.58 169.136 131.872 168.521L136.825 166.121L141.593 168.859C143.192 170.797 145.254 177.473 143.069 177.38V177.411Z" fill="#EADCDB"/>
<path d="M144.023 141.45L138.732 138.496L137.071 140.096L141.87 142.834L144.023 141.45Z" fill="#FFF8F8"/>
</g>
<defs>
<linearGradient id="paint0_linear_187_3748" x1="6.76782" y1="264.791" x2="165.104" y2="264.791" gradientUnits="userSpaceOnUse">
<stop stop-color="#2CB8DB"/>
<stop offset="1" stop-color="#2CB8DB"/>
</linearGradient>
<linearGradient id="paint1_linear_187_3748" x1="25.0398" y1="239.917" x2="162.156" y2="239.917" gradientUnits="userSpaceOnUse">
<stop stop-color="#2CB8DB"/>
<stop offset="1" stop-color="#2CB8DB"/>
</linearGradient>
<linearGradient id="paint2_linear_187_3748" x1="212.333" y1="143.656" x2="217.562" y2="143.656" gradientUnits="userSpaceOnUse">
<stop offset="0.27" stop-color="#B0B0B0"/>
<stop offset="0.46" stop-color="#BBBBBB"/>
<stop offset="0.68" stop-color="#DFDFDF"/>
<stop offset="0.84" stop-color="#B9B9B9"/>
</linearGradient>
<linearGradient id="paint3_linear_187_3748" x1="193.414" y1="121.384" x2="112.6" y2="121.384" gradientUnits="userSpaceOnUse">
<stop stop-color="#010101"/>
<stop offset="0.21" stop-color="#0A0A0A"/>
<stop offset="0.98" stop-color="#050505"/>
</linearGradient>
<clipPath id="clip0_187_3748">
<rect width="328" height="346" fill="white" transform="translate(0 0.0783691)"/>
</clipPath>
</defs>
</svg>
