<svg width="151" height="211" viewBox="0 0 151 211" fill="none" xmlns="http://www.w3.org/2000/svg">
<g clip-path="url(#clip0_400_13310)">
<path d="M72.4341 203.38L150.201 158.914L150.363 165.659L72.4341 210.053V203.38Z" fill="#35DFFF" stroke="black" stroke-width="1.53546" stroke-linejoin="round"/>
<path d="M72.4342 203.38L0.363037 160.872L0.52485 167.814L72.4342 210.078L72.4504 203.38H72.4342Z" fill="url(#paint0_linear_400_13310)" stroke="black" stroke-width="1.53546" stroke-linejoin="round"/>
<path d="M71.9164 119.918L0.363037 160.872L72.4342 203.38L150.201 158.914L71.9164 119.901V119.918Z" fill="#40FBFF" stroke="black" stroke-width="1.53546" stroke-linejoin="round"/>
<g style="mix-blend-mode:multiply">
<path d="M60.1916 166.278L62.0526 179.856L80.9382 190.54L126.185 165.387L143.345 156.007L128.669 144.994C109.984 143.326 74.8654 128.929 62.0526 128.929C49.8148 129.563 30.9402 144.082 26.1577 147.307L22.9041 163.316L33.1728 177.237L60.1916 166.278Z" fill="black" fill-opacity="0.2"/>
</g>
<path d="M73.2355 45.3887C73.2355 45.3887 76.6004 50.293 78.0846 51.8971C79.3844 53.4459 82.0487 55.8796 84.0123 57.834C85.9759 59.7884 93.7933 71.0076 93.7933 71.0076C93.7933 71.0076 89.0641 74.9624 88.4465 75.1375C82.7954 67.8363 77.6237 65.6975 75.7062 63.4482C73.7887 61.1988 71.5209 58.553 71.5209 58.553C71.5209 58.553 68.0269 55.3172 65.6761 53.4827C64.9479 51.7219 73.2448 45.3979 73.2448 45.3979L73.2355 45.3887Z" fill="#FCBE9F"/>
<path d="M55.3054 24.3785C55.3054 24.3785 62.6159 22.3135 66.6076 31.2096C67.8706 33.5512 67.7692 35.5885 73.955 44.8718C74.0841 51.7029 65.6581 54.6713 65.6581 54.6713L57.7116 40.751L55.3054 24.3785Z" fill="#C3D4FF" stroke="#6361C2" stroke-width="0.74"/>
<path d="M61.1964 142.175C63.1693 145.872 71.4292 149.228 72.7107 150.389C74.0013 151.551 74.7757 156.87 73.4021 158.161C72.0285 159.451 65.4924 157.561 63.1693 156.704C60.8461 155.847 59.9888 154.381 58.5322 153.606C57.0756 152.832 54.3193 154.556 49.7652 151.2C48.6498 149.827 49.5071 142.867 49.5071 142.867C49.5071 142.867 59.3066 141.659 61.1964 142.175Z" fill="#303030"/>
<path d="M49.5896 116.428C49.5896 116.428 48.216 120.595 47.5246 124.034C46.8332 127.472 47.5246 144.407 47.5246 144.407C47.5246 144.407 48.8153 146.214 54.4848 146.214C59.1495 146.214 61.2698 143.292 62.2193 142.471C61.3619 128.329 62.8185 122.061 62.2838 118.53C62.1087 116.124 66.8656 101.429 65.3629 85.8679C63.851 85.4346 44.9434 88.9654 44.9434 88.9654L49.5804 116.428H49.5896Z" fill="#2565C4"/>
<path d="M32.701 157.046C32.913 165.555 37.3195 169.427 37.3011 172.773C37.2919 174.396 37.3011 176.903 34.895 177.585C29.5666 178.36 26.6442 175.52 24.9203 173.197C23.2056 170.874 21.03 164.43 21.3158 161.342C21.5923 158.254 21.8782 156.143 21.8782 156.143C21.8782 156.143 31.5486 157.129 32.7102 157.046H32.701Z" fill="#303030"/>
<path d="M34.1574 77.3412C34.1574 77.3412 30.8572 83.0199 29.6495 87.2513C28.4419 91.4827 29.4744 97.6132 29.4744 97.6132L26.0266 122.836C26.0266 122.836 21.9979 129.538 21.3065 133.234C20.6151 136.931 19.3337 157.047 19.3337 157.047C19.3337 157.047 22.0901 160.826 27.5845 160.31C33.0881 159.794 34.8858 156.53 34.8858 156.53C34.8858 156.53 34.2405 134.608 36.6742 132.119C39.0987 129.63 49.6726 99.7151 50.447 97.226C61.067 95.5482 65.363 85.8777 65.363 85.8777L63.4952 73.0811L49.7556 75.562L34.1483 77.3412H34.1574Z" fill="#2565C4"/>
<path d="M37.7988 24.0828C38.3796 26.4982 36.6833 28.5079 36.6833 28.5079L40.3155 35.6616L48.4557 38.2429L53.3324 31.3472L43.92 21.6768C43.92 21.6768 37.5407 23.4836 37.7988 24.0921V24.0828Z" fill="#F2A883"/>
<path d="M36.6736 28.51C37.5309 27.9937 44.2422 37.7933 50.0408 34.3086C54.4934 31.9209 51.0733 29.0908 51.0733 29.0908L57.3881 30.6211L58.5773 47.5191L53.9034 50.6811L33.5945 35.8573C33.5945 35.8573 35.8162 29.0355 36.6736 28.51Z" fill="white"/>
<path d="M64.4138 38.8148C61.8141 30.352 53.5542 25.6504 53.5542 25.6504L51.9132 30.8037C51.9132 30.8037 57.5827 34.2976 55.4716 45.4062V45.4799C52.2358 37.8468 37.7532 36.4825 36.6009 28.1118C31.2724 31.8086 30.5441 34.0856 26.5801 37.0632C26.6999 37.4043 35.9678 70.9864 31.9023 79.947C33.2944 81.1916 35.5222 82.681 41.8832 83.5937C47.2816 84.615 60.463 83.3107 64.3309 77.7305C64.9301 72.7801 66.2852 43.544 64.4138 38.824V38.8148Z" fill="#C3D4FF" stroke="#6361C2" stroke-width="0.74"/>
<path d="M59.8416 13.9976C59.8416 13.9976 60.321 20.3493 59.8416 20.8287C59.353 21.308 58.7445 21.9257 58.7445 21.9257C58.7445 21.9257 58.8091 23.2163 58.7445 24.4424C58.68 25.6685 56.0434 32.435 55.647 33.1449C55.2598 33.8547 53.3239 34.7582 52.356 34.6291C48.945 34.371 44.0406 29.3376 43.3953 28.4433C42.75 27.5399 42.3628 25.1522 42.3628 25.1522C42.3628 25.1522 40.5559 24.8296 40.1503 24.1382C39.7447 23.456 37.7903 20.1188 37.7903 20.1188L43.5244 15.1038L54.3564 10.3838L59.8416 13.9976Z" fill="#FCBE9F"/>
<path d="M41.5051 24.9327C39.5969 24.0569 39.6153 21.6692 39.6153 21.6692C39.6153 21.6692 41.7817 21.8628 42.8787 21.236C43.9112 22.7663 44.4275 23.4116 45.46 23.4669C46.0868 23.5314 45.7918 21.7983 46.557 21.2083C48.0781 20.0375 50.6225 20.8211 50.5303 16.6727C51.2586 16.7833 54.5497 18.498 56.8912 17.6222C57.638 17.1428 63.3167 13.6673 59.9887 8.59702C59.2604 7.41702 55.1857 6.19094 55.1857 6.19094C55.1857 6.19094 50.1062 2.66013 47.3498 4.72514C37.8084 6.27389 35.9186 18.0462 35.9186 18.0462C35.9186 18.0462 35.2087 24.5547 39.0161 26.0389C39.8734 26.38 40.9705 25.5411 41.5051 24.9235V24.9327Z" fill="#663F30"/>
<path d="M22.9658 61.3473C23.4821 64.5001 23.2424 76.1157 23.2424 76.1157L27.5383 77.2957L34.2496 67.4962V61.0523C34.2496 61.0523 23.3807 60.7573 22.9658 61.3473Z" fill="#F2A883"/>
<path d="M28.0551 36.6215C26.2021 36.4464 22.5976 40.2721 21.8232 43.1576C21.0489 46.0338 22.3395 56.8198 22.1182 62.5354C28.4331 65.9279 35.0153 61.632 35.0153 61.632V49.5739C35.0153 49.5739 35.1443 38.5021 28.0551 36.6123V36.6215Z" fill="#C3D4FF" stroke="#6361C2" stroke-width="0.74"/>
<path d="M34.2867 66.1031C32.443 67.6335 28.0087 68.3341 26.377 70.0119C23.7312 72.4641 23.2427 76.1147 23.2427 76.1147C23.2427 76.1147 23.5469 78.5853 27.6677 79.9405C33.5953 82.07 35.4667 73.8838 38.1494 71.1735C38.555 71.0444 36.1305 64.5728 34.2775 66.1031H34.2867Z" fill="#FCBE9F"/>
<path d="M29.4653 58.5241L41.9106 51.5178C41.9106 51.5178 29.9539 39.1094 28.5803 39.976C27.2067 40.8333 29.4653 58.5241 29.4653 58.5241Z" fill="#8C8C8C"/>
<path d="M37.4666 57.7685L33.5947 50.8452L34.2861 50.458L38.1488 57.3813L37.4666 57.7685Z" fill="#737373"/>
<path d="M42.5282 62.3327C44.5103 65.8727 45.4137 69.1361 44.5379 69.6247C43.6621 70.1133 41.3482 67.6427 39.357 64.1027C37.3749 60.5627 36.4715 57.2992 37.3473 56.8106C38.2231 56.322 40.537 58.7927 42.5282 62.3327Z" fill="#663F30"/>
<path d="M37.7987 71.8835C33.2815 71.1737 33.6134 66.1864 33.6134 66.1864C33.6134 66.1864 34.6643 61.6968 35.8811 60.0835C37.098 58.4703 40.3615 57.3732 41.4401 57.2534C42.5094 57.1243 43.9937 57.9632 44.768 58.9957C45.5424 60.0282 46.2892 64.8589 45.7268 65.9559C45.1645 67.0529 42.2974 68.7676 42.2974 68.7676C42.2974 68.7676 41.1543 71.4963 37.8079 71.8835H37.7987Z" fill="#FCBE9F"/>
<path d="M38.6281 18.8034L35.8717 19.799L35.1895 16.4618L37.2545 15.374L38.6281 18.8034Z" fill="#1A1A1A"/>
<path d="M65.7777 18.8947V18.8578C65.9437 15.6497 61.6477 12.838 61.6477 12.838L36.6372 10.0078C36.6372 10.0078 35.5955 10.8191 34.941 12.4877C34.7658 12.8656 34.4247 13.5202 34.4155 14.3406V15.3915C34.4708 16.4333 35.0608 17.7976 37.1904 19.0883C40.8133 21.1901 44.2335 21.4759 44.2335 21.4759C44.2335 21.4759 49.1932 25.3662 54.5492 25.0159C54.5677 25.0159 54.5953 25.0159 54.6138 25.0159C55.1485 25.1265 63.9155 24.9329 65.6763 19.54C65.7132 19.4109 65.7224 19.2726 65.7408 19.1436C65.75 19.0606 65.7777 18.9868 65.7777 18.9039V18.8947Z" fill="#FFA41F"/>
<path d="M35.4478 12.9116C35.4755 12.5521 36.13 -1.04553 48.6399 0.152906C61.0759 1.34212 62.385 13.2251 62.173 15.3269C60.2923 20.683 51.9586 20.2405 51.9586 20.2405C51.9586 20.2405 34.5997 20.4894 35.4478 12.9209V12.9116Z" fill="#FF9800"/>
<path d="M122.734 122.278L141.033 111.64L140.978 156.968L122.669 167.607L122.734 122.278Z" fill="url(#paint1_linear_400_13310)"/>
<path d="M104.158 111.556L122.457 100.918L141.033 111.639L122.734 122.278L104.158 111.556Z" fill="url(#paint2_linear_400_13310)"/>
<path d="M122.734 122.278L122.669 167.607L104.094 156.885L104.158 111.557L122.734 122.278Z" fill="url(#paint3_linear_400_13310)"/>
<path d="M101.465 158.268L119.764 147.63L119.709 168.981L101.409 179.619L101.465 158.268Z" fill="url(#paint4_linear_400_13310)"/>
<path d="M82.8896 147.536L101.189 136.907L119.765 147.629L101.465 158.267L82.8896 147.536Z" fill="url(#paint5_linear_400_13310)"/>
<path d="M101.465 158.268L101.41 179.618L82.834 168.888L82.8893 147.537L101.465 158.268Z" fill="url(#paint6_linear_400_13310)"/>
<path d="M80.8324 169.635L99.1316 158.996L99.0671 180.347L80.7678 190.985L80.8324 169.635Z" fill="url(#paint7_linear_400_13310)"/>
<path d="M62.2566 158.903L80.5558 148.273L99.1316 158.995L80.8324 169.633L62.2566 158.903Z" fill="url(#paint8_linear_400_13310)"/>
<path d="M80.8327 169.634L80.7681 190.985L62.1924 180.254L62.2569 158.903L80.8327 169.634Z" fill="url(#paint9_linear_400_13310)"/>
<path d="M101.465 133.93L119.764 123.292L119.709 144.643L101.41 155.281L101.465 133.93Z" fill="url(#paint10_linear_400_13310)"/>
<path d="M82.8889 123.21L101.188 112.571L119.764 123.293L101.465 133.931L82.8889 123.21Z" fill="url(#paint11_linear_400_13310)"/>
<path d="M101.464 133.931L101.409 155.282L82.8333 144.561L82.8886 123.21L101.464 133.931Z" fill="url(#paint12_linear_400_13310)"/>
<path d="M80.8328 145.258L99.132 134.629L99.0676 155.98L80.7683 166.618L80.8328 145.258Z" fill="url(#paint13_linear_400_13310)"/>
<path d="M62.2566 134.538L80.5558 123.899L99.1316 134.63L80.8324 145.259L62.2566 134.538Z" fill="url(#paint14_linear_400_13310)"/>
<path d="M80.8327 145.259L80.7681 166.619L62.1924 155.889L62.2569 134.538L80.8327 145.259Z" fill="url(#paint15_linear_400_13310)"/>
<path d="M101.464 109.538L119.764 98.8994L119.708 120.25L101.409 130.888L101.464 109.538Z" fill="url(#paint16_linear_400_13310)"/>
<path d="M82.8896 98.806L101.189 88.1768L119.765 98.8982L101.465 109.537L82.8896 98.806Z" fill="url(#paint17_linear_400_13310)"/>
<path d="M101.465 109.536L101.41 130.887L82.8342 120.165L82.8895 98.8057L101.465 109.536Z" fill="url(#paint18_linear_400_13310)"/>
<path d="M80.8328 120.904L99.132 110.266L99.0676 131.616L80.7683 142.255L80.8328 120.904Z" fill="url(#paint19_linear_400_13310)"/>
<path d="M62.2571 110.172L80.5563 99.543L99.1321 110.264L80.8329 120.903L62.2571 110.172Z" fill="url(#paint20_linear_400_13310)"/>
<path d="M80.8329 120.903L80.7684 142.254L62.1926 131.533L62.2571 110.173L80.8329 120.903Z" fill="url(#paint21_linear_400_13310)"/>
<path d="M101.465 85.1999L119.764 74.5615L119.709 95.9214L101.41 106.551L101.465 85.1999Z" fill="url(#paint22_linear_400_13310)"/>
<path d="M82.8892 74.4783L101.188 63.8398L119.764 74.5613L101.465 85.1997L82.8892 74.4783Z" fill="url(#paint23_linear_400_13310)"/>
<path d="M101.465 85.1999L101.41 106.551L82.8337 95.8291L82.8891 74.4785L101.465 85.1999Z" fill="url(#paint24_linear_400_13310)"/>
<path d="M80.8328 96.5378L99.132 85.8994L99.0676 107.25L80.7683 117.888L80.8328 96.5378Z" fill="url(#paint25_linear_400_13310)"/>
<path d="M62.2566 85.8079L80.5558 75.1787L99.1316 85.9001L80.8324 96.5385L62.2566 85.8079Z" fill="url(#paint26_linear_400_13310)"/>
<path d="M80.8327 96.5373L80.7681 117.888L62.1924 107.157L62.2569 85.8066L80.8327 96.5373Z" fill="url(#paint27_linear_400_13310)"/>
</g>
<defs>
<linearGradient id="paint0_linear_400_13310" x1="0.363037" y1="185.597" x2="72.6122" y2="185.597" gradientUnits="userSpaceOnUse">
<stop stop-color="#2CB8DB"/>
<stop offset="1" stop-color="#2CB8DB"/>
</linearGradient>
<linearGradient id="paint1_linear_400_13310" x1="46.2" y1="87.7723" x2="311.147" y2="248.169" gradientUnits="userSpaceOnUse">
<stop stop-color="#FFBC2A"/>
<stop offset="1" stop-color="#F4617E"/>
</linearGradient>
<linearGradient id="paint2_linear_400_13310" x1="82.5029" y1="87.3295" x2="249.455" y2="188.404" gradientUnits="userSpaceOnUse">
<stop stop-color="#FFE62A"/>
<stop offset="1" stop-color="#F4617E"/>
</linearGradient>
<linearGradient id="paint3_linear_400_13310" x1="57.4742" y1="105.721" x2="288.303" y2="245.459" gradientUnits="userSpaceOnUse">
<stop stop-color="#FFD12A"/>
<stop offset="1" stop-color="#F4617E"/>
</linearGradient>
<linearGradient id="paint4_linear_400_13310" x1="-2.45811" y1="95.1844" x2="164.484" y2="196.259" gradientUnits="userSpaceOnUse">
<stop stop-color="#FFE62A"/>
<stop offset="1" stop-color="#F42C53"/>
</linearGradient>
<linearGradient id="paint5_linear_400_13310" x1="2.16105" y1="87.5499" x2="169.113" y2="188.615" gradientUnits="userSpaceOnUse">
<stop stop-color="#FFE62A"/>
<stop offset="1" stop-color="#F4617E"/>
</linearGradient>
<linearGradient id="paint6_linear_400_13310" x1="-7.39002" y1="103.315" x2="159.562" y2="204.389" gradientUnits="userSpaceOnUse">
<stop stop-color="#FFB82A"/>
<stop offset="1" stop-color="#F4617E"/>
</linearGradient>
<linearGradient id="paint7_linear_400_13310" x1="35.9832" y1="142.319" x2="202.926" y2="243.384" gradientUnits="userSpaceOnUse">
<stop stop-color="#FFBC2A"/>
<stop offset="1" stop-color="#F4617E"/>
</linearGradient>
<linearGradient id="paint8_linear_400_13310" x1="40.6017" y1="134.676" x2="207.553" y2="235.75" gradientUnits="userSpaceOnUse">
<stop stop-color="#FFE62A"/>
<stop offset="1" stop-color="#F4617E"/>
</linearGradient>
<linearGradient id="paint9_linear_400_13310" x1="31.0515" y1="150.45" x2="198.003" y2="251.524" gradientUnits="userSpaceOnUse">
<stop stop-color="#FFD12A"/>
<stop offset="1" stop-color="#F4617E"/>
</linearGradient>
<linearGradient id="paint10_linear_400_13310" x1="32.6379" y1="92.0957" x2="199.589" y2="193.17" gradientUnits="userSpaceOnUse">
<stop stop-color="#FFAD2A"/>
<stop offset="1" stop-color="#F4617E"/>
</linearGradient>
<linearGradient id="paint11_linear_400_13310" x1="37.2653" y1="84.4633" x2="204.217" y2="185.538" gradientUnits="userSpaceOnUse">
<stop stop-color="#FFE62A"/>
<stop offset="1" stop-color="#F4617E"/>
</linearGradient>
<linearGradient id="paint12_linear_400_13310" x1="27.7143" y1="100.237" x2="194.666" y2="201.311" gradientUnits="userSpaceOnUse">
<stop stop-color="#FFCD2A"/>
<stop offset="1" stop-color="#F4617E"/>
</linearGradient>
<linearGradient id="paint13_linear_400_13310" x1="-23.0993" y1="82.1834" x2="143.852" y2="183.248" gradientUnits="userSpaceOnUse">
<stop stop-color="#FFE62A"/>
<stop offset="1" stop-color="#F42C53"/>
</linearGradient>
<linearGradient id="paint14_linear_400_13310" x1="-18.472" y1="74.5421" x2="148.471" y2="175.616" gradientUnits="userSpaceOnUse">
<stop stop-color="#FFE62A"/>
<stop offset="1" stop-color="#F4617E"/>
</linearGradient>
<linearGradient id="paint15_linear_400_13310" x1="-28.0222" y1="90.3158" x2="138.929" y2="191.39" gradientUnits="userSpaceOnUse">
<stop stop-color="#FFB82A"/>
<stop offset="1" stop-color="#F4617E"/>
</linearGradient>
<linearGradient id="paint16_linear_400_13310" x1="-2.45835" y1="46.4539" x2="164.484" y2="147.528" gradientUnits="userSpaceOnUse">
<stop stop-color="#FFE62A"/>
<stop offset="1" stop-color="#F42C53"/>
</linearGradient>
<linearGradient id="paint17_linear_400_13310" x1="2.16105" y1="38.8195" x2="169.113" y2="139.894" gradientUnits="userSpaceOnUse">
<stop stop-color="#FFE62A"/>
<stop offset="1" stop-color="#F4617E"/>
</linearGradient>
<linearGradient id="paint18_linear_400_13310" x1="-7.38978" y1="54.5925" x2="159.562" y2="155.658" gradientUnits="userSpaceOnUse">
<stop stop-color="#FFB82A"/>
<stop offset="1" stop-color="#F4617E"/>
</linearGradient>
<linearGradient id="paint19_linear_400_13310" x1="35.9837" y1="93.5889" x2="202.926" y2="194.654" gradientUnits="userSpaceOnUse">
<stop stop-color="#FFBC2A"/>
<stop offset="1" stop-color="#F4617E"/>
</linearGradient>
<linearGradient id="paint20_linear_400_13310" x1="40.6022" y1="85.9453" x2="207.554" y2="187.02" gradientUnits="userSpaceOnUse">
<stop stop-color="#FFE62A"/>
<stop offset="1" stop-color="#F4617E"/>
</linearGradient>
<linearGradient id="paint21_linear_400_13310" x1="31.0517" y1="101.719" x2="198.003" y2="202.793" gradientUnits="userSpaceOnUse">
<stop stop-color="#FFD12A"/>
<stop offset="1" stop-color="#F4617E"/>
</linearGradient>
<linearGradient id="paint22_linear_400_13310" x1="32.6379" y1="43.3653" x2="199.589" y2="144.44" gradientUnits="userSpaceOnUse">
<stop stop-color="#FFAD2A"/>
<stop offset="1" stop-color="#F4617E"/>
</linearGradient>
<linearGradient id="paint23_linear_400_13310" x1="37.2656" y1="35.7319" x2="204.217" y2="136.806" gradientUnits="userSpaceOnUse">
<stop stop-color="#FFE62A"/>
<stop offset="1" stop-color="#F4617E"/>
</linearGradient>
<linearGradient id="paint24_linear_400_13310" x1="27.7148" y1="51.5054" x2="194.666" y2="152.58" gradientUnits="userSpaceOnUse">
<stop stop-color="#FFCD2A"/>
<stop offset="1" stop-color="#F4617E"/>
</linearGradient>
<linearGradient id="paint25_linear_400_13310" x1="-23.0993" y1="33.4539" x2="143.852" y2="134.528" gradientUnits="userSpaceOnUse">
<stop stop-color="#FFE62A"/>
<stop offset="1" stop-color="#F42C53"/>
</linearGradient>
<linearGradient id="paint26_linear_400_13310" x1="-18.472" y1="25.8216" x2="148.47" y2="126.887" gradientUnits="userSpaceOnUse">
<stop stop-color="#FFE62A"/>
<stop offset="1" stop-color="#F4617E"/>
</linearGradient>
<linearGradient id="paint27_linear_400_13310" x1="-28.0222" y1="41.5842" x2="138.929" y2="142.658" gradientUnits="userSpaceOnUse">
<stop stop-color="#FFB82A"/>
<stop offset="1" stop-color="#F4617E"/>
</linearGradient>
<clipPath id="clip0_400_13310">
<rect width="150" height="210" fill="white" transform="translate(0.333252 0.078125)"/>
</clipPath>
</defs>
</svg>
