<svg width="328" height="337" viewBox="0 0 328 337" fill="none" xmlns="http://www.w3.org/2000/svg">
<g clip-path="url(#clip0_329_11085)">
<path d="M136.443 178.923L19.9411 242.922C10.6863 248.006 10.6863 260.15 19.9411 265.234L136.443 329.233C153.071 338.36 173.929 338.36 190.557 329.233L307.059 265.234C316.314 260.15 316.314 248.006 307.059 242.922L190.557 178.923C173.929 169.796 153.071 169.796 136.443 178.923Z" fill="#DEDEDE"/>
<path d="M321.874 206.382L164.306 115.237L6.79858 206.382L163.937 297.65L321.874 206.413V206.382Z" fill="#40FBFF" stroke="black" stroke-width="1.53546" stroke-linejoin="round"/>
<path d="M321.874 206.198L163.937 297.65V323.876L321.874 232.762V206.229V206.198Z" fill="#35DFFF" stroke="black" stroke-width="1.53546" stroke-linejoin="round"/>
<path d="M6.76782 205.737L164 297.404V323.845L6.76782 231.963V205.737Z" fill="url(#paint0_linear_329_11085)" stroke="black" stroke-width="1.53546" stroke-linejoin="round"/>
<path d="M161.818 273.666L309.407 189.277L309.714 202.078L161.818 286.329V273.666Z" fill="#35DFFF" stroke="black" stroke-width="1.53546" stroke-linejoin="round"/>
<path d="M161.818 273.666L25.0398 192.993L25.3469 206.167L161.818 286.377L161.849 273.666H161.818Z" fill="url(#paint1_linear_329_11085)" stroke="black" stroke-width="1.53546" stroke-linejoin="round"/>
<path d="M160.836 115.268L25.0398 192.993L161.818 273.666L309.407 189.277L160.836 115.237V115.268Z" fill="#40FBFF" stroke="black" stroke-width="1.53546" stroke-linejoin="round"/>
<g style="mix-blend-mode:multiply">
<path d="M36.1773 190.389C34.8037 189.606 34.8385 187.614 36.2385 186.88L104.5 151.078L162.655 129.887C163.192 129.691 163.788 129.734 164.292 130.007L199.522 149.079L203.95 138.078L245.171 157.393C245.91 157.74 245.945 158.777 245.232 159.173L231.869 166.59L253.687 178.401L260.5 179.578L263.697 181.355C264.319 181.7 264.391 182.565 263.836 183.01L262.5 184.078C262.5 184.078 264.318 187.843 258.909 189.054C257.598 189.347 256.282 189.013 255.04 188.339L223.667 206.532C222.414 207.259 222.325 209.035 223.499 209.883L236.511 219.281C237.683 220.127 237.598 221.899 236.35 222.629L166.995 263.204C166.07 263.745 164.926 263.751 163.995 263.221L36.1773 190.389Z" fill="black" fill-opacity="0.2"/>
</g>
<path d="M146.003 202.452L146.525 207.243L145.819 206.843C145.512 206.659 145.297 206.26 145.297 205.707V202.053L146.003 202.452Z" fill="#221C3A"/>
<path d="M148.828 199.995L149.535 200.425L145.972 202.483L145.266 202.083L148.828 200.026V199.995Z" fill="#BEC7EE"/>
<path d="M149.535 200.425V204.079C149.535 205.215 148.736 206.597 147.784 207.15C146.802 207.703 146.003 207.273 146.003 206.137V202.482L149.535 200.425Z" fill="#221C3A"/>
<path d="M146.341 207.549C145.88 207.303 145.635 206.781 145.635 206.105V202.482C145.635 202.482 145.696 202.236 145.788 202.175L149.351 200.117C149.351 200.117 149.596 200.056 149.688 200.117C149.811 200.179 149.873 200.301 149.873 200.424V204.079C149.873 205.338 149.043 206.812 147.938 207.457C147.6 207.641 147.262 207.733 146.955 207.733C146.74 207.733 146.525 207.672 146.31 207.549H146.341ZM146.341 202.666V206.105C146.341 206.505 146.464 206.812 146.679 206.935C146.894 207.057 147.232 207.027 147.569 206.812C148.429 206.32 149.166 205.031 149.166 204.048V201.008L146.31 202.666H146.341Z" fill="#221C3A"/>
<path d="M148.03 203.035C148.368 202.85 149.35 202.328 150.548 202.973L150.794 203.127C151.101 203.311 151.377 203.557 151.562 203.833C151.654 203.956 151.746 204.109 151.807 204.232C151.991 204.662 152.053 205.123 152.022 205.614C151.961 206.228 151.776 206.75 151.5 207.242C151.377 207.487 151.224 207.702 151.07 207.887C150.855 208.132 150.64 208.378 150.364 208.593C149.995 208.9 149.565 209.115 149.135 209.207C148.921 209.269 148.706 209.269 148.521 209.269C147.969 209.269 147.569 209.054 147.416 208.961L147.139 208.808C144.928 207.426 146.095 204.171 147.999 203.035H148.03Z" fill="#221C3A"/>
<path d="M148.89 204.14L149.412 208.931L148.706 208.532C148.399 208.348 148.184 207.948 148.184 207.396V203.741L148.89 204.14Z" fill="#221C3A"/>
<path d="M151.715 201.684L152.421 202.083L148.859 204.14L148.153 203.741L151.715 201.684Z" fill="#BEC7EE"/>
<path d="M152.421 202.083V205.737C152.421 206.874 151.623 208.256 150.671 208.808C149.688 209.361 148.89 208.931 148.89 207.795V204.141L152.421 202.083Z" fill="#221C3A"/>
<path d="M149.228 209.207C148.767 208.962 148.521 208.44 148.521 207.764V204.11C148.521 204.11 148.583 203.864 148.706 203.803L152.268 201.745C152.268 201.745 152.514 201.684 152.606 201.745C152.729 201.806 152.79 201.929 152.79 202.052V205.676C152.79 206.935 151.961 208.44 150.855 209.054C150.518 209.238 150.18 209.33 149.903 209.33C149.658 209.33 149.473 209.269 149.259 209.146L149.228 209.207ZM149.228 204.325V207.764C149.228 208.163 149.351 208.47 149.566 208.593C149.781 208.716 150.118 208.685 150.456 208.47C151.316 207.979 152.053 206.72 152.053 205.707V202.697L149.197 204.325H149.228Z" fill="#221C3A"/>
<path d="M145.174 161.302L145.696 166.092L144.99 165.693C144.683 165.509 144.468 165.11 144.468 164.557V160.902L145.174 161.302Z" fill="#221C3A"/>
<path d="M147.999 158.845L148.706 159.244L145.143 161.301L144.437 160.902L147.999 158.845Z" fill="#BEC7EE"/>
<path d="M148.706 159.244V162.899C148.706 164.035 147.907 165.417 146.955 165.969C145.973 166.522 145.174 166.092 145.174 164.956V161.302L148.706 159.244Z" fill="#221C3A"/>
<path d="M145.512 166.399C145.051 166.153 144.806 165.631 144.806 164.955V161.301C144.806 161.301 144.867 161.055 144.99 160.994L148.552 158.936C148.552 158.936 148.798 158.875 148.921 158.936C149.044 158.998 149.105 159.121 149.105 159.244V162.867C149.105 164.126 148.276 165.6 147.17 166.245C146.832 166.43 146.495 166.522 146.218 166.522C145.973 166.522 145.788 166.46 145.573 166.337L145.512 166.399ZM145.512 161.516V164.955C145.512 165.355 145.635 165.662 145.85 165.785C146.065 165.907 146.403 165.877 146.74 165.662C147.6 165.17 148.337 163.911 148.337 162.898V159.888L145.481 161.516H145.512Z" fill="#221C3A"/>
<path d="M147.201 161.884C147.539 161.7 148.521 161.178 149.719 161.823L149.965 161.976C150.272 162.161 150.548 162.406 150.732 162.683C150.825 162.805 150.917 162.959 150.978 163.082C151.162 163.512 151.224 163.972 151.193 164.464C151.132 165.078 150.947 165.6 150.671 166.091C150.548 166.337 150.395 166.552 150.241 166.736C150.026 167.013 149.811 167.228 149.535 167.443C149.166 167.75 148.736 167.965 148.306 168.057C148.091 168.118 147.876 168.118 147.692 168.118C147.139 168.118 146.74 167.903 146.587 167.811L146.31 167.657C144.099 166.276 145.266 163.02 147.17 161.884H147.201Z" fill="#221C3A"/>
<path d="M148.061 162.99L148.583 167.781L147.877 167.381C147.569 167.197 147.354 166.798 147.354 166.245V162.591L148.061 162.99Z" fill="#221C3A"/>
<path d="M150.886 160.503L151.592 160.903L148.03 162.96L147.324 162.53L150.886 160.473V160.503Z" fill="#BEC7EE"/>
<path d="M151.592 160.933V164.587C151.592 165.723 150.794 167.105 149.842 167.658C148.859 168.211 148.061 167.781 148.061 166.645V162.99L151.592 160.933Z" fill="#221C3A"/>
<path d="M148.398 168.058C147.938 167.812 147.692 167.29 147.692 166.614V162.991C147.692 162.991 147.754 162.745 147.846 162.683L151.408 160.626C151.408 160.626 151.654 160.565 151.746 160.626C151.869 160.687 151.93 160.81 151.93 160.933V164.557C151.93 165.816 151.101 167.29 149.995 167.935C149.658 168.119 149.32 168.211 149.043 168.211C148.828 168.211 148.613 168.15 148.398 168.027V168.058ZM148.398 163.175V166.614C148.398 167.013 148.521 167.321 148.736 167.443C148.951 167.566 149.289 167.535 149.627 167.321C150.487 166.829 151.224 165.57 151.224 164.557V161.547L148.368 163.175H148.398Z" fill="#221C3A"/>
<path d="M210.277 209.669L210.769 214.183L210.093 213.784C209.786 213.6 209.602 213.231 209.602 212.709V209.27L210.247 209.669H210.277Z" fill="#221C3A"/>
<path d="M216.604 211.787L217.31 212.186L213.748 214.244L213.041 213.845L216.604 211.787Z" fill="#BEC7EE"/>
<path d="M217.31 212.187V215.841C217.31 216.977 216.511 218.359 215.559 218.912C214.577 219.465 213.778 219.035 213.778 217.898V214.244L217.31 212.187Z" fill="#221C3A"/>
<path d="M214.116 219.342C213.655 219.096 213.41 218.574 213.41 217.898V214.275C213.41 214.275 213.471 214.029 213.594 213.968L217.156 211.91C217.156 211.91 217.402 211.849 217.494 211.91C217.617 211.972 217.678 212.094 217.678 212.217V215.872C217.678 217.131 216.849 218.605 215.744 219.25C215.406 219.434 215.068 219.526 214.792 219.526C214.546 219.526 214.362 219.465 214.147 219.342H214.116ZM214.116 214.459V217.898C214.116 218.298 214.239 218.605 214.454 218.728C214.669 218.85 215.007 218.82 215.344 218.605C216.204 218.113 216.941 216.854 216.941 215.841V212.801L214.085 214.459H214.116Z" fill="#221C3A"/>
<path d="M212.181 210.22C212.489 210.067 213.44 209.545 214.577 210.159L214.822 210.313C215.13 210.497 215.375 210.712 215.529 210.957C215.621 211.08 215.682 211.203 215.744 211.357C215.928 211.756 215.989 212.217 215.928 212.646C215.867 213.23 215.682 213.721 215.437 214.182C215.314 214.397 215.191 214.612 215.037 214.796C214.853 215.042 214.638 215.257 214.392 215.441C214.024 215.717 213.655 215.932 213.256 216.024C213.041 216.086 212.857 216.086 212.703 216.086C212.181 216.086 211.813 215.871 211.659 215.779L211.414 215.625C209.325 214.335 210.431 211.234 212.243 210.19L212.181 210.22Z" fill="#221C3A"/>
<path d="M213.011 211.234L213.502 215.748L212.826 215.349C212.519 215.165 212.335 214.796 212.335 214.274V210.835L213.011 211.234Z" fill="#221C3A"/>
<path d="M215.682 210.16L216.358 210.559L213.011 211.266L212.335 210.866L215.682 210.16Z" fill="#BEC7EE"/>
<path d="M216.358 210.559V212.739C216.358 213.814 215.621 215.104 214.699 215.626C213.778 216.148 213.041 215.718 213.01 214.674V211.235L216.358 210.528V210.559Z" fill="#221C3A"/>
<path d="M213.318 216.055C212.888 215.81 212.642 215.318 212.642 214.674V211.234C212.642 211.081 212.734 210.927 212.888 210.896L216.235 210.221C216.235 210.221 216.45 210.221 216.511 210.282C216.573 210.344 216.634 210.436 216.634 210.528V212.708C216.634 213.906 215.836 215.288 214.792 215.902C214.485 216.086 214.178 216.178 213.87 216.178C213.655 216.178 213.441 216.117 213.256 216.025L213.318 216.055ZM213.318 211.51V214.674C213.318 215.073 213.441 215.349 213.655 215.472C213.87 215.595 214.178 215.533 214.515 215.349C215.344 214.888 216.02 213.691 216.02 212.739V210.958L213.318 211.51Z" fill="#221C3A"/>
<path d="M253.946 181.077L254.468 185.868L253.762 185.469C253.454 185.285 253.24 184.885 253.24 184.333V180.709L253.946 181.108V181.077Z" fill="#221C3A"/>
<path d="M256.771 178.621L257.478 179.02L253.915 181.078L253.209 180.679L256.771 178.621Z" fill="#BEC7EE"/>
<path d="M257.477 179.051V182.705C257.477 183.841 256.679 185.223 255.727 185.776C254.744 186.329 253.946 185.899 253.946 184.763V181.108L257.477 179.051Z" fill="#221C3A"/>
<path d="M254.284 186.176C253.823 185.93 253.577 185.408 253.577 184.732V181.109C253.577 181.109 253.639 180.863 253.762 180.802L257.324 178.744C257.324 178.744 257.57 178.683 257.662 178.744C257.785 178.806 257.846 178.928 257.846 179.051V182.706C257.846 183.965 257.017 185.439 255.911 186.084C255.573 186.268 255.236 186.36 254.929 186.36C254.683 186.36 254.499 186.299 254.284 186.176ZM254.284 181.293V184.732C254.284 185.132 254.407 185.439 254.621 185.562C254.836 185.684 255.174 185.654 255.512 185.439C256.372 184.947 257.109 183.688 257.109 182.675V179.635L254.253 181.293H254.284Z" fill="#221C3A"/>
<path d="M255.973 181.662C256.311 181.477 257.293 180.955 258.491 181.6L258.737 181.754C259.044 181.938 259.32 182.184 259.504 182.46C259.597 182.583 259.689 182.736 259.75 182.859C259.934 183.289 259.996 183.75 259.965 184.241C259.904 184.855 259.719 185.377 259.443 185.869C259.32 186.114 259.167 186.329 259.013 186.514C258.798 186.759 258.583 187.005 258.307 187.22C257.938 187.527 257.508 187.742 257.078 187.834C256.863 187.895 256.648 187.895 256.464 187.895C255.911 187.895 255.512 187.681 255.359 187.588L255.082 187.435C252.871 186.053 254.038 182.798 255.942 181.662H255.973Z" fill="#221C3A"/>
<path d="M256.833 182.766L257.355 187.557L256.648 187.158C256.341 186.974 256.126 186.574 256.126 186.022V182.367L256.833 182.766Z" fill="#221C3A"/>
<path d="M259.658 180.311L260.364 180.71L256.802 182.767L256.095 182.368L259.658 180.311Z" fill="#BEC7EE"/>
<path d="M260.364 180.709V184.363C260.364 185.5 259.566 186.882 258.614 187.434C257.631 187.987 256.833 187.557 256.833 186.421V182.767L260.364 180.709Z" fill="#221C3A"/>
<path d="M257.17 187.834C256.71 187.588 256.464 187.066 256.464 186.391V182.767C256.464 182.767 256.525 182.521 256.648 182.46L260.21 180.402C260.21 180.402 260.456 180.341 260.548 180.402C260.671 180.464 260.732 180.587 260.732 180.709V184.364C260.732 185.623 259.903 187.097 258.798 187.742C258.46 187.926 258.122 188.018 257.846 188.018C257.6 188.018 257.416 187.957 257.201 187.834H257.17ZM257.17 182.951V186.391C257.17 186.79 257.293 187.097 257.508 187.22C257.723 187.343 258.03 187.312 258.399 187.097C259.258 186.606 259.995 185.346 259.995 184.333V181.293L257.139 182.951H257.17Z" fill="#221C3A"/>
<path d="M214.177 149.11C214.515 148.925 215.498 148.403 216.696 149.048L216.941 149.202C217.248 149.386 217.525 149.632 217.709 149.908C217.801 150.031 217.893 150.185 217.955 150.307C218.139 150.737 218.2 151.198 218.17 151.689C218.108 152.304 217.924 152.826 217.648 153.317C217.525 153.563 217.371 153.778 217.218 153.962C217.003 154.207 216.788 154.453 216.511 154.668C216.143 154.975 215.713 155.19 215.283 155.282C215.068 155.344 214.853 155.344 214.669 155.344C214.116 155.344 213.717 155.129 213.563 155.037L213.287 154.883C211.076 153.501 212.243 150.246 214.147 149.11H214.177Z" fill="#221C3A"/>
<path d="M215.037 150.185L215.559 154.976L214.853 154.576C214.546 154.392 214.331 153.993 214.331 153.44V149.816L215.037 150.216V150.185Z" fill="#221C3A"/>
<path d="M217.863 147.728L218.569 148.157L215.007 150.215L214.3 149.816L217.863 147.758V147.728Z" fill="#BEC7EE"/>
<path d="M218.569 148.127V151.781C218.569 152.918 217.77 154.299 216.818 154.852C215.836 155.405 215.037 154.975 215.037 153.839V150.184L218.569 148.127Z" fill="#221C3A"/>
<path d="M215.375 155.282C214.915 155.036 214.669 154.514 214.669 153.839V150.215C214.669 150.215 214.73 149.969 214.853 149.908L218.415 147.851C218.415 147.851 218.661 147.789 218.753 147.851C218.845 147.912 218.938 148.035 218.938 148.158V151.781C218.938 153.04 218.108 154.545 217.003 155.159C216.665 155.344 216.327 155.436 216.02 155.436C215.805 155.436 215.59 155.374 215.375 155.251V155.282ZM215.375 150.399V153.839C215.375 154.238 215.498 154.545 215.713 154.668C215.928 154.791 216.266 154.76 216.604 154.545C217.463 154.054 218.201 152.795 218.201 151.781V148.772L215.345 150.399H215.375Z" fill="#221C3A"/>
<path d="M204.105 172.848V179.665L219.03 147.636V145.854L204.105 172.848Z" fill="#221C3A"/>
<path d="M204.043 180.034C203.89 180.003 203.767 179.85 203.767 179.696V172.848C203.767 172.848 203.767 172.725 203.767 172.664L218.692 145.671C218.692 145.671 218.937 145.456 219.091 145.486C219.244 145.517 219.367 145.671 219.367 145.824C219.367 145.824 219.367 147.605 219.367 147.759L204.443 179.789C204.443 179.789 204.258 180.003 204.105 180.003C204.105 180.003 204.043 180.003 204.013 180.003L204.043 180.034ZM218.661 147.237L204.443 172.94V178.069L218.661 147.575V147.237Z" fill="#221C3A"/>
<path d="M143.915 160.779V162.56L189.457 182.582V175.734L143.915 160.748V160.779Z" fill="#4C4A91"/>
<path d="M189.303 182.951L143.792 162.929C143.792 162.929 143.577 162.744 143.577 162.591V160.81C143.577 160.81 143.608 160.595 143.7 160.533C143.792 160.472 143.915 160.441 144.007 160.472L189.518 175.458C189.518 175.458 189.764 175.642 189.764 175.796V182.644C189.764 182.644 189.733 182.89 189.61 182.951C189.549 182.982 189.487 183.013 189.426 183.013C189.364 183.013 189.334 183.013 189.272 183.013L189.303 182.951ZM144.283 161.27V162.345L189.088 182.061V176.042L144.283 161.27Z" fill="#4C4A91"/>
<path d="M204.258 178.406V185.254L261.469 183.443V181.661L204.258 178.406Z" fill="#221C3A"/>
<path d="M204.013 185.5C204.013 185.5 203.921 185.346 203.921 185.254V178.406C203.921 178.406 203.921 178.222 204.013 178.16C204.074 178.099 204.166 178.068 204.289 178.068L261.5 181.324C261.685 181.324 261.838 181.477 261.838 181.661V183.442C261.838 183.627 261.715 183.78 261.5 183.811L204.289 185.592C204.197 185.592 204.105 185.561 204.043 185.5H204.013ZM261.101 181.999L204.596 178.805V184.886L261.101 183.105V181.999Z" fill="#221C3A"/>
<path d="M148.03 204.171V205.952L195.199 187.036V180.188L148.03 204.141V204.171Z" fill="#221C3A"/>
<path d="M147.846 206.259C147.846 206.259 147.692 206.075 147.692 205.983V204.202C147.692 204.202 147.754 203.925 147.876 203.895L195.015 179.941C195.015 179.941 195.261 179.88 195.353 179.941C195.445 180.003 195.537 180.126 195.537 180.248V187.097C195.537 187.097 195.445 187.373 195.322 187.434C195.322 187.434 148.183 206.351 148.03 206.382C147.969 206.382 147.876 206.382 147.846 206.321V206.259ZM194.831 180.771L148.398 204.386V205.43L194.831 186.789V180.771Z" fill="#221C3A"/>
<path d="M144.836 201.745V203.526L148.03 205.983V204.202L144.836 201.745Z" fill="#221C3A"/>
<path d="M211.997 211.511V213.2L216.757 212.248V210.559L211.997 211.511Z" fill="#221C3A"/>
<path d="M211.813 213.476C211.813 213.476 211.69 213.323 211.69 213.231V211.542C211.69 211.388 211.782 211.235 211.936 211.204L216.665 210.252C216.665 210.252 216.88 210.252 216.941 210.313C217.003 210.375 217.064 210.467 217.064 210.559V212.248C217.064 212.402 216.972 212.555 216.818 212.586C216.818 212.586 212.089 213.538 211.997 213.538C211.936 213.538 211.843 213.538 211.782 213.476H211.813ZM216.419 210.989L212.335 211.787V212.801L216.419 212.002V210.989Z" fill="#221C3A"/>
<path d="M195.168 180.218V187.066L215.621 217.99V216.209L195.168 180.248V180.218Z" fill="#4C4A91"/>
<path d="M215.345 218.175L194.892 187.251C194.892 187.251 194.831 187.128 194.831 187.066V180.218C194.831 180.065 194.923 179.911 195.076 179.88C195.23 179.85 195.384 179.88 195.476 180.065L215.928 216.025C215.928 216.025 215.959 216.148 215.959 216.209V217.991C215.959 218.144 215.867 218.298 215.621 218.359C215.498 218.359 215.406 218.298 215.314 218.206L215.345 218.175ZM195.537 181.569V186.944L215.252 216.793V216.302L195.537 181.6V181.569Z" fill="#4C4A91"/>
<path d="M146.955 158.292L143.915 160.81L189.426 175.796L144.836 201.745L147.999 204.202L195.138 180.249L215.559 216.209L220.596 215.226L204.228 178.437L261.439 181.692L261.378 178.652L204.105 172.909L219.03 145.916L213.963 145.025L194.954 171.282L146.955 158.322V158.292Z" fill="#221C3A"/>
<path d="M215.283 216.363L195.015 180.679L148.184 204.478C148.184 204.478 147.907 204.54 147.815 204.447L144.652 201.991C144.652 201.991 144.498 201.806 144.529 201.684C144.529 201.561 144.591 201.469 144.713 201.407L188.628 175.857L143.854 161.117C143.854 161.117 143.639 160.963 143.608 160.84C143.608 160.718 143.608 160.595 143.731 160.503L146.771 157.984C146.771 157.984 146.986 157.892 147.078 157.923L194.831 170.821L213.717 144.749C213.717 144.749 213.932 144.565 214.055 144.595L219.122 145.486C219.122 145.486 219.337 145.578 219.367 145.67C219.429 145.762 219.429 145.885 219.367 146.008L204.719 172.51L261.439 178.191C261.623 178.191 261.746 178.375 261.746 178.529L261.807 181.569C261.807 181.569 261.777 181.753 261.715 181.845C261.654 181.907 261.531 181.968 261.439 181.938L204.811 178.713L220.964 214.95C220.964 214.95 220.995 215.165 220.964 215.257C220.903 215.349 220.811 215.411 220.719 215.441C220.719 215.441 215.713 216.424 215.621 216.455C215.498 216.455 215.375 216.393 215.314 216.27L215.283 216.363ZM203.921 178.56C203.921 178.56 203.89 178.314 203.951 178.222C204.013 178.13 204.136 178.068 204.258 178.068L261.07 181.293L261.009 178.928L204.044 173.216C204.044 173.216 203.829 173.124 203.767 173.032C203.706 172.94 203.706 172.786 203.767 172.694L218.446 146.161L214.085 145.394L195.199 171.496C195.199 171.496 194.954 171.681 194.831 171.619L147.017 158.691L144.621 160.687L189.518 175.489C189.518 175.489 189.733 175.642 189.764 175.796C189.794 175.949 189.702 176.072 189.58 176.134L145.45 201.806L148.03 203.802L194.984 179.941C195.138 179.849 195.353 179.941 195.445 180.095L215.744 215.84L220.074 214.981L203.89 178.59L203.921 178.56Z" fill="#221C3A"/>
<path d="M202.846 152.395V174.752C202.846 175.489 202.324 176.226 201.372 176.778C199.407 177.915 196.213 177.915 194.217 176.778C193.234 176.195 192.743 175.458 192.743 174.69V152.334L202.846 152.395Z" fill="#221C3A"/>
<path d="M194.063 177.085C192.988 176.471 192.405 175.611 192.405 174.69V152.334C192.405 152.334 192.435 152.15 192.497 152.088C192.558 152.027 192.65 151.996 192.743 151.996L202.846 152.058C203.03 152.058 203.184 152.211 203.184 152.395V174.752C203.184 175.642 202.57 176.471 201.525 177.085C200.481 177.669 199.13 177.976 197.779 177.976C196.428 177.976 195.076 177.669 194.032 177.085H194.063ZM193.111 152.702V174.69C193.111 175.335 193.572 175.98 194.401 176.471C196.274 177.546 199.314 177.546 201.188 176.471C202.017 175.98 202.477 175.366 202.508 174.752V152.764L193.111 152.702Z" fill="#221C3A"/>
<path d="M194.217 154.422C196.182 155.559 199.376 155.559 201.372 154.422C203.337 153.286 203.337 151.443 201.372 150.307C199.407 149.171 196.213 149.171 194.217 150.307C192.251 151.443 192.251 153.286 194.217 154.422Z" fill="#BEC7EE"/>
<path d="M203.491 148.68V155.098C203.491 155.927 202.907 156.756 201.833 157.401C199.621 158.691 195.998 158.691 193.787 157.401C192.65 156.756 192.098 155.896 192.128 155.036V148.618L203.522 148.68H203.491Z" fill="#221C3A"/>
<path d="M197.81 151.935C200.942 151.935 203.491 150.461 203.491 148.649C203.491 146.837 200.942 145.363 197.81 145.363C194.677 145.363 192.128 146.837 192.128 148.649C192.128 150.461 194.677 151.935 197.81 151.935Z" fill="#2B2633"/>
<path d="M201.403 128.873V148.281C201.403 148.803 201.034 149.325 200.358 149.724C198.946 150.522 196.673 150.522 195.261 149.724C194.554 149.325 194.186 148.772 194.217 148.25V128.842H201.433V128.873H201.403Z" fill="#6361C2"/>
<path d="M194.984 150.185C194.124 149.693 193.664 148.987 193.664 148.219V128.811C193.664 128.811 193.725 128.535 193.817 128.443C193.909 128.35 194.063 128.289 194.186 128.289H201.403C201.679 128.32 201.925 128.565 201.925 128.873V148.281C201.925 149.018 201.433 149.693 200.604 150.185C199.806 150.645 198.792 150.86 197.779 150.86C196.765 150.86 195.752 150.615 194.954 150.185H194.984ZM194.739 129.364V148.25C194.739 148.619 195.015 148.987 195.537 149.263C196.765 149.97 198.854 149.97 200.113 149.263C200.604 148.987 200.911 148.619 200.911 148.281V129.425H194.769L194.739 129.364Z" fill="#403D8B"/>
<path d="M195.261 130.315C196.673 131.114 198.946 131.114 200.358 130.315C201.771 129.517 201.771 128.197 200.358 127.367C198.946 126.569 196.673 126.569 195.261 127.367C193.848 128.166 193.848 129.486 195.261 130.315Z" fill="#6361C2"/>
<path d="M194.984 130.807C194.124 130.316 193.664 129.61 193.664 128.873C193.664 128.105 194.124 127.429 194.984 126.938C196.55 126.017 199.038 126.017 200.635 126.938C201.495 127.429 201.955 128.105 201.955 128.873C201.955 129.64 201.495 130.316 200.635 130.807C199.836 131.268 198.823 131.483 197.81 131.483C196.796 131.483 195.783 131.237 194.984 130.807ZM195.506 127.859C195.015 128.136 194.708 128.504 194.708 128.873C194.708 129.241 194.984 129.579 195.506 129.886C196.735 130.592 198.823 130.592 200.082 129.886C200.573 129.61 200.88 129.241 200.88 128.873C200.88 128.504 200.604 128.166 200.082 127.859C199.468 127.491 198.639 127.337 197.81 127.337C196.98 127.337 196.151 127.521 195.537 127.859H195.506Z" fill="#403D8B"/>
<path d="M202.784 161.885L200.788 160.718C200.174 160.35 199.775 159.551 199.775 158.446C199.775 156.173 201.372 153.44 203.337 152.304C204.32 151.72 205.241 151.69 205.886 152.058L207.882 153.225L202.815 161.885H202.784Z" fill="#2B2633"/>
<path d="M205.333 153.471C203.368 154.607 201.771 157.34 201.771 159.613C201.771 161.885 203.368 162.807 205.333 161.67C207.299 160.534 208.896 157.801 208.896 155.529C208.896 153.256 207.299 152.335 205.333 153.471Z" fill="#221C3A"/>
<path d="M205.333 155.159C204.197 155.835 203.245 157.432 203.245 158.752C203.245 160.073 204.166 160.625 205.333 159.95C206.47 159.274 207.422 157.677 207.422 156.357C207.422 155.036 206.5 154.484 205.333 155.159Z" fill="#8A91B8"/>
<path d="M182.854 194.406C183.069 193.423 183.161 192.41 183.284 191.396L192.62 192.287C191.238 198.92 192.036 203.987 191.176 212.494C191.023 213.998 190.961 215.687 189.702 216.639C187.675 218.144 180.121 218.574 177.787 216.117C173.365 211.48 181.718 200.241 182.885 194.406H182.854Z" fill="#EAA510"/>
<path d="M183.161 192.225C183.376 191.243 183.468 190.229 183.591 189.216L192.927 190.106C191.545 196.74 192.343 201.807 191.483 210.313C191.33 211.818 191.268 213.507 190.009 214.459C187.983 215.963 180.428 216.393 178.094 213.937C173.672 209.3 182.025 198.06 183.192 192.225H183.161Z" fill="#221C3A"/>
<path d="M197.195 199.135C197.195 204.386 197.902 209.238 197.871 216.424C197.871 217.254 197.871 218.144 197.748 218.973C197.748 220.539 197.779 222.259 196.704 223.365C194.892 225.177 187.645 226.405 185.157 224.04C183.622 222.566 183.346 220.14 183.714 217.376C183.53 211.665 187.584 203.127 188.167 198.183C188.167 197.784 188.198 197.415 188.198 197.016C187.921 196.648 187.737 196.218 187.676 195.696C187.491 194.252 187.399 192.41 187.307 190.23L152.422 204.233V205.738C152.422 206.874 151.623 208.256 150.64 208.809C150.272 209.024 149.934 209.054 149.627 208.993C149.443 209.085 149.289 209.208 149.105 209.269C148.89 209.331 148.675 209.331 148.491 209.331C147.938 209.331 147.539 209.116 147.385 209.024L147.109 208.87C146.372 208.409 146.034 207.734 145.973 207.027L145.788 206.905C145.481 206.72 145.266 206.321 145.266 205.768V203.957L144.806 203.619V201.838L178.924 181.969C186.232 186.79 192.159 192.686 197.195 199.227V199.135Z" fill="#221C3A"/>
<path d="M184.912 224.286C183.438 222.874 182.946 220.601 183.346 217.346C183.223 213.906 184.574 209.638 185.895 205.492C186.754 202.728 187.584 200.087 187.829 198.122C187.829 197.938 187.829 197.753 187.829 197.569C187.829 197.385 187.829 197.231 187.829 197.047C187.553 196.617 187.369 196.157 187.307 195.665C187.123 194.314 187.061 192.625 186.969 190.69L152.79 204.417V205.707C152.79 206.966 151.93 208.471 150.855 209.085C150.487 209.3 150.088 209.362 149.658 209.362C149.535 209.423 149.381 209.515 149.228 209.546C148.982 209.607 148.767 209.638 148.552 209.607C147.907 209.607 147.447 209.331 147.262 209.239L146.986 209.085C146.28 208.655 145.85 207.98 145.666 207.12C145.205 206.874 144.959 206.352 144.959 205.676V204.018L144.652 203.772C144.652 203.772 144.529 203.588 144.529 203.496V201.715C144.529 201.715 144.591 201.469 144.683 201.408L178.801 181.539C178.801 181.539 179.077 181.478 179.169 181.539C186.017 186.053 192.036 191.704 197.503 198.859C197.564 198.92 197.564 199.013 197.564 199.074C197.564 201.469 197.718 203.834 197.871 206.321C198.055 209.208 198.27 212.494 198.24 216.363V216.64C198.24 217.407 198.24 218.206 198.117 219.096C198.117 220.662 198.117 222.413 196.95 223.58C195.752 224.778 192.62 225.668 189.764 225.668C187.798 225.668 185.956 225.269 184.912 224.255V224.286ZM178.954 182.276L145.205 201.93V203.343L145.543 203.588C145.635 203.65 145.666 203.772 145.666 203.865V205.676C145.666 206.076 145.788 206.383 146.003 206.506L146.188 206.628C146.188 206.628 146.341 206.782 146.372 206.905C146.464 207.611 146.802 208.133 147.355 208.502L147.631 208.655C147.631 208.655 148.122 208.901 148.583 208.932C148.736 208.932 148.921 208.932 149.074 208.87C149.136 208.87 149.228 208.809 149.289 208.747C149.351 208.717 149.443 208.655 149.504 208.625C149.596 208.594 149.658 208.594 149.75 208.625C149.996 208.686 150.241 208.624 150.487 208.502C151.347 208.01 152.084 206.751 152.084 205.738V204.233C152.084 204.233 152.176 203.957 152.299 203.895L187.184 189.892C187.184 189.892 187.43 189.861 187.522 189.892C187.614 189.953 187.676 190.076 187.676 190.168V190.568C187.798 192.533 187.86 194.222 188.044 195.573C188.106 196.003 188.259 196.372 188.536 196.74C188.566 196.801 188.597 196.894 188.597 196.955C188.597 197.17 188.597 197.385 188.597 197.6C188.597 197.784 188.597 197.938 188.597 198.153C188.351 200.241 187.522 202.882 186.632 205.676C185.403 209.576 184.021 213.968 184.144 217.346C183.745 220.386 184.206 222.474 185.495 223.733C187.768 225.914 194.739 224.87 196.551 223.089C197.503 222.137 197.503 220.601 197.503 219.096V218.881C197.625 218.175 197.625 217.407 197.625 216.64V216.363C197.625 212.494 197.441 209.239 197.257 206.352C197.103 203.895 196.95 201.561 196.95 199.197C191.576 192.226 185.71 186.667 179.046 182.245L178.954 182.276Z" fill="#221C3A"/>
<path d="M249.616 129.057C249.616 129.057 249.8 129.118 249.892 129.149C249.8 129.118 249.708 129.057 249.616 129.057Z" fill="#221C3A"/>
<path d="M169.192 120.909L191.744 107.104C194.027 105.629 195.678 103.38 196.381 100.746L201.544 80.899C202.177 78.405 201.333 75.8758 199.261 74.2951C197.224 72.7144 194.554 72.5388 192.306 73.8385L167.998 87.6435C161.815 91.1562 157.951 97.7601 157.951 104.891V105.242L162.132 117.431C162.272 118.942 163.15 120.347 164.52 121.085C165.223 121.471 165.996 121.682 166.733 121.682C167.576 121.682 168.454 121.436 169.157 120.979L169.192 120.909ZM170.035 91.3318L194.343 77.4917C195.467 76.8594 196.381 77.4917 196.626 77.6673C196.872 77.8781 197.68 78.6158 197.364 79.8101L192.2 99.6569C191.779 101.273 190.795 102.643 189.425 103.521L166.874 117.326C166.874 117.326 166.628 117.396 166.487 117.326C166.347 117.256 166.277 117.115 166.277 117.01V116.659L162.132 104.575C162.237 99.13 165.258 94.0717 170.035 91.3669V91.3318Z" fill="#221C3A"/>
<path d="M180.432 157.469C181.17 157.069 182.339 157.069 183.077 157.469C183.816 157.869 183.816 158.546 183.077 159.007C182.339 159.407 181.17 159.407 180.432 159.007C179.693 158.607 179.693 157.93 180.432 157.469Z" fill="#DCDCDC"/>
<path d="M217.347 155.777C216.024 155.008 213.871 155.008 212.548 155.777C211.225 156.546 211.225 157.777 212.548 158.576C213.871 159.345 216.055 159.345 217.378 158.576C218.701 157.807 218.701 156.577 217.378 155.777H217.347Z" fill="#828282"/>
<path d="M217.562 156.73V129.074L212.363 129.32V156.945C212.425 157.284 212.64 157.591 213.102 157.837C214.117 158.422 215.778 158.422 216.793 157.837C217.316 157.561 217.562 157.13 217.562 156.761V156.73Z" fill="url(#paint2_linear_329_11085)"/>
<path d="M217.562 155.562V140.211L212.363 140.457V155.777C212.425 156.115 212.64 156.423 213.102 156.669C214.117 157.253 215.778 157.253 216.793 156.669C217.316 156.392 217.562 155.961 217.562 155.592V155.562Z" fill="#828282"/>
<path d="M264.211 62.4921C252.549 51.954 248.439 57.8553 238.041 52.235C225.15 45.2798 233.229 45.9121 221.286 40.6782C213.382 37.2006 205.619 47.7387 206.076 52.9375L200.631 96.4953C200.315 100.781 197.856 104.645 194.132 106.788L164.38 123.051C159.848 125.651 156.441 135.276 160.972 137.875C160.972 137.875 177.482 149.221 181.662 151.434C186.721 154.104 202.844 160.005 202.844 160.005C211.45 163.202 218.159 155.579 222.445 153.155L250.476 137.137C254.727 134.714 257.467 130.323 257.783 125.44L262.982 79.037C264.668 68.3232 269.831 67.5153 264.246 62.5273L264.211 62.4921Z" fill="#221C3A"/>
<path d="M259.82 60.9121C248.158 50.3739 244.048 56.2753 233.65 50.6549C220.759 43.6997 228.838 44.332 216.895 39.0981C208.991 35.6205 201.228 46.1586 201.685 51.3575L196.24 93.1237C195.924 97.4092 193.465 101.273 189.741 103.416L163.185 118.485C158.654 121.085 156.476 131.834 161.007 134.433C161.007 134.433 176.288 144.655 180.503 146.868C185.561 149.503 201.685 155.439 201.685 155.439C210.291 158.636 213.804 152.243 218.089 149.784L246.121 133.766C250.371 131.342 253.111 126.951 253.427 122.068L258.626 77.457C260.277 66.7432 265.476 65.9352 259.89 60.9472L259.82 60.9121Z" fill="#C56CF0" stroke="#221C3A" stroke-width="1.67028"/>
<path d="M256.87 84.868L195.186 63.4756" stroke="#221C3A" stroke-width="0.850897"/>
<path d="M256.87 104.575L195.186 83.1826" stroke="#221C3A" stroke-width="0.850897"/>
<path d="M188.307 103.203C188.307 103.203 173.879 112.74 166.096 122.03C158.344 131.289 181.293 135.935 184.277 135.935C187.261 135.935 209.81 127.998 209.81 127.998L216.855 115.693L188.276 103.203H188.307Z" fill="black"/>
<path d="M195.136 62.6893L189.66 46.5388C189.66 46.5388 189.63 46.5388 189.599 46.5388C189.414 46.5081 189.168 46.4773 188.83 46.4158C188.184 46.3542 187.292 46.2927 186.277 46.4158C184.277 46.6311 181.847 47.4925 180.155 49.9227C178.371 52.476 176.248 56.2906 174.525 59.6437C173.664 61.3357 172.926 62.9046 172.372 64.1659C172.095 64.7811 171.88 65.3348 171.726 65.7655C171.572 66.227 171.48 66.5038 171.48 66.6884C171.387 67.4882 171.51 68.9956 171.972 70.5953C172.403 72.1949 173.11 73.7638 174.125 74.7482C176.186 76.7171 179.786 77.1785 183.569 75.7942C184.431 75.4866 185.6 74.5329 186.923 73.1793C188.215 71.8565 189.568 70.2569 190.799 68.6572C192.029 67.0576 193.167 65.5194 193.967 64.3812C194.367 63.7967 194.706 63.3353 194.921 62.9969C195.013 62.8431 195.106 62.72 195.167 62.6585L195.136 62.6893Z" fill="#E6F1FF" stroke="#6361C2" stroke-width="0.850897"/>
<path d="M196.736 43.001L190.583 56.998L183.785 56.8442C183.785 56.8442 186.676 52.8451 190.645 47.4308C191.845 45.7696 196.428 42.9395 196.705 43.001H196.736Z" fill="#FFF8F8"/>
<path d="M205.688 38.1089C202.181 40.3238 189.26 45.5535 189.26 45.5535C189.26 45.5535 188.491 51.0292 188.953 54.5362C189.107 56.0743 189.476 56.5973 190.06 57.0587C190.614 57.5202 192.398 57.9201 192.398 57.9201C196.397 58.1662 202.735 54.69 204.488 53.0596C206.303 51.3676 208.272 48.4759 208.118 45.7996C208.026 44.6921 207.38 43.5539 206.672 42.4157C205.934 41.1544 205.749 39.647 205.688 38.0781V38.1089Z" fill="#F2A883"/>
<path d="M206.734 42.5703C209.226 44.2623 210.087 46.6618 210.241 48.5998C210.364 50.0457 208.887 53.7372 200.643 64.1965L192.368 57.9517C198.982 55.6137 210.764 48.8459 206.765 42.6318L206.734 42.5703Z" fill="#FFF8F8"/>
<path d="M182.622 45.3845C181.449 45.6055 180.232 45.8265 179.302 46.5558C178.572 47.1083 178.085 47.9039 177.664 48.6995C175.164 53.4069 174.721 58.9099 174.787 64.2361C174.898 73.8718 176.469 83.4412 177.089 93.0549C177.709 102.669 177.288 112.592 173.592 121.498C173.083 122.714 172.508 124.084 172.995 125.321C173.371 126.294 174.322 126.89 175.208 127.421C184.569 133.056 194.662 137.454 205.152 140.526C207.764 141.3 210.441 141.963 213.142 142.316C215.244 142.604 219.515 143.355 221.463 142.25C223.079 141.322 223.964 137.499 224.473 135.775C225.225 133.189 225.646 130.493 225.845 127.819C226.221 122.846 225.889 117.851 225.712 112.879C225.557 108.812 225.513 104.768 225.557 100.702C225.602 96.7898 225.292 92.4361 226.199 88.6348C228.058 80.7892 229.541 72.5016 230.316 64.4571C230.471 62.9542 230.559 61.3851 230.006 59.9707C229.453 58.5342 228.28 57.4291 227.151 56.3904C219.715 49.4951 212.101 42.4893 202.85 38.3124C199.597 36.8537 197.162 41.8484 194.285 43.0418C190.744 44.5226 186.384 44.6994 182.666 45.3845H182.622Z" fill="#D9D9D9" stroke="#6361C2" stroke-width="0.74"/>
<path d="M193.4 54.3134C193.555 54.7996 193.732 55.33 194.175 55.6173C194.551 55.8604 195.038 55.8825 195.48 55.8604C201.655 55.6836 207.542 52.6558 211.969 48.3463C212.832 47.5065 213.651 46.6003 213.96 45.4511C213.983 45.3406 214.005 45.2301 213.96 45.1417C213.916 45.0091 213.783 44.9207 213.651 44.8323C210.906 43.1306 209.711 39.8155 208.981 36.6994C208.295 33.7601 207.83 30.7765 207.387 27.793C205.971 31.2627 203.559 34.3347 200.482 36.5005C199.376 37.2961 190.833 41.9372 190.589 38.9978C190.988 44.1914 191.851 49.3629 193.378 54.3355L193.4 54.3134Z" fill="#663C33"/>
<path d="M227.89 150.17L250.02 136.4C252.268 134.925 253.884 132.676 254.551 130.042L259.609 110.23C260.242 107.736 259.399 105.242 257.361 103.661C255.324 102.081 252.724 101.905 250.547 103.205L226.695 117.01C220.618 120.522 216.86 127.126 216.86 134.222V134.573L220.969 146.727C221.11 148.238 221.988 149.643 223.323 150.38C223.99 150.767 224.763 150.978 225.501 150.978C226.344 150.978 227.187 150.732 227.89 150.275V150.205V150.17ZM228.733 120.663L252.584 106.858C253.673 106.226 254.586 106.858 254.832 107.034C255.078 107.244 255.851 107.982 255.57 109.176L250.511 128.988C250.09 130.604 249.141 131.974 247.807 132.817L225.677 146.587C225.677 146.587 225.396 146.657 225.29 146.587C225.15 146.516 225.115 146.411 225.115 146.271V145.919L221.04 133.836C221.145 128.391 224.131 123.368 228.803 120.663H228.733Z" fill="#221C3A"/>
<path d="M187.358 6.08987C184.503 7.9021 182.733 10.4436 181.98 13.7366C180.918 18.444 181.139 23.7038 181.604 28.4554C182.091 33.5385 183.153 38.5331 184.415 43.4615C184.68 44.5002 184.968 45.5831 185.698 46.3788C186.76 47.528 188.487 47.7711 190.058 47.7269C194.44 47.5722 198.579 45.6716 202.319 43.3731C203.204 42.8206 204.112 42.2239 204.643 41.3178C205.395 40.0581 205.285 38.4889 205.174 37.0303C205.13 36.3673 205.13 35.638 205.617 35.196C205.794 35.0192 206.037 34.9087 206.281 34.7982C208.715 33.6269 210.574 31.4389 211.681 28.9858C212.787 26.5327 213.208 23.7922 213.319 21.096C213.496 16.1234 212.411 10.6867 208.604 7.46009C207.232 6.28877 205.572 5.49316 203.868 4.87435C198.49 2.95163 192.205 3.01793 187.38 6.06777L187.358 6.08987Z" fill="#A65745"/>
<path d="M214.934 11.792C214.381 11.3279 213.761 10.9522 213.053 10.7533C213.407 10.8638 213.451 8.7422 213.407 8.5654C213.23 7.68139 212.832 6.81948 212.256 6.13437C211.238 4.89675 209.623 4.16744 208.029 4.18954C207.343 1.8469 204.444 0.454582 202.208 1.3828C200.681 -0.0537255 198.158 -0.274729 196.41 0.874488C194.219 -0.429431 189.815 -0.31893 188.974 2.62041C189.106 2.28891 188.642 2.04581 188.265 2.02371C185.942 1.8469 182.799 2.81932 182.002 5.25035C181.604 6.46587 181.847 7.85819 182.6 8.87481C181.67 9.49362 180.785 10.245 180.254 11.2395C179.7 12.212 179.546 13.4496 180.032 14.4662C180.519 15.4386 181.56 16.0795 182.622 16.2784C183.706 16.4773 184.813 16.2784 185.853 15.9911C185.499 16.1016 186.163 17.6265 186.318 17.7812C186.65 18.1348 187.292 18.4442 187.712 18.6653C188.974 19.3725 190.523 19.5493 191.895 19.0189C191.585 19.1294 191.895 21.251 191.961 21.5383C192.205 22.3781 192.625 22.6212 193.245 23.1295C194.617 24.2787 195.901 25.1848 197.826 24.8312C197.362 26.312 197.605 28.0579 198.645 29.2071C199.708 30.3563 201.611 30.7099 202.872 29.8038C203.249 30.3784 204.222 30.0911 204.532 29.4944C204.842 28.8756 204.709 28.1463 204.599 27.4833C204.466 26.533 204.51 26.0026 205.285 25.4722C206.037 24.9638 206.834 24.3008 207.719 24.1461C208.582 23.9693 209.512 24.2787 210.154 24.8754C211.703 26.312 211.017 28.8977 210.198 30.5552C209.578 31.7928 208.737 32.92 207.852 33.9808C208.582 33.5167 209.313 33.0305 210.043 32.5664C211.526 31.616 212.876 30.3784 214.093 29.1187C214.978 28.2126 215.819 27.1739 216.085 25.9363C216.24 25.2512 216.218 24.566 216.196 23.8809C216.196 23.3284 216.151 22.7538 215.93 22.2455C215.709 21.7372 215.266 21.2731 214.713 21.2289C215.642 19.8808 216.594 18.4884 216.838 16.8751C217.125 14.9966 216.306 13.0297 214.868 11.8141L214.934 11.792Z" fill="black"/>
<path d="M47.3828 193.307L108.631 157.684V96.4043L47.3828 132.028V193.307Z" fill="#B1A2A2"/>
<path d="M166.527 259.077L227.775 223.454V162.175L166.527 197.798V259.077Z" fill="#F7E9E9"/>
<path d="M162.866 256.925L166.527 259.047V197.768L162.866 195.646V256.925Z" fill="#DDCDCC"/>
<path d="M44.2451 191.738L47.9059 193.861V132.582L44.2451 130.459V191.738Z" fill="#DDCDCC"/>
<path d="M166.527 195.368L241.988 151.562V156.053L166.527 199.859V195.368Z" fill="#FFF8F8"/>
<path d="M37.4465 128.366L166.558 199.859V195.368L37.4465 123.875V128.366Z" fill="#EADCDB"/>
<path d="M166.527 195.368L241.988 151.562L112.877 80.0693L37.4158 123.875L166.527 195.368Z" fill="#C56CF0"/>
<path d="M201.75 129.117L198.25 127.117L188.193 129.117L192.087 132.132L201.75 129.117Z" fill="#B75DE2"/>
<path d="M201.75 129.117L198.25 127.117L188.193 129.117L192.087 132.132L201.75 129.117Z" fill="#B75DE2"/>
<path d="M162.5 107.578L158 105.078L152 107.078L156.5 109.578L162.5 107.578Z" fill="#B75DE2"/>
<path d="M162.5 107.578L158 105.078L152 107.078L156.5 109.578L162.5 107.578Z" fill="#B75DE2"/>
<path d="M114.208 110.652L174.533 145.413C175.641 146.06 177.025 146.06 178.132 145.413L193.637 136.431C194.621 135.877 194.621 134.462 193.637 133.908L155.83 112.097L136.326 98.9925C135.218 98.3465 130.819 98.5003 129.712 99.1464L114.238 108.129C113.254 108.683 113.254 110.098 114.238 110.652H114.208Z" fill="#B75DE2"/>
<path d="M113.584 107.049L128.781 98.2511C129.889 97.6051 131.273 97.6051 132.38 98.2511L192.521 132.921L193.414 133.382V134.244C193.414 134.736 193.167 135.259 192.706 135.536L177.232 144.518C176.125 145.164 174.741 145.164 173.633 144.518L151.115 131.567L113.307 109.756C112.877 109.51 112.631 109.08 112.6 108.618V107.603L113.615 107.049H113.584Z" fill="url(#paint3_linear_329_11085)"/>
<path d="M113.277 108.71L173.602 143.471C174.71 144.117 176.094 144.117 177.202 143.471L192.706 134.489C193.69 133.935 193.69 132.52 192.706 131.966L154.899 110.155L132.38 97.2042C131.273 96.5582 129.889 96.5582 128.781 97.2042L113.307 106.187C112.323 106.741 112.323 108.156 113.307 108.71H113.277Z" fill="#FFF8F8"/>
<path d="M132.38 97.2047L154.899 110.156L168.342 117.908L134.226 120.769L113.277 108.679C112.292 108.125 112.292 106.71 113.277 106.157L128.75 97.174C129.858 96.5279 131.242 96.5279 132.35 97.174L132.38 97.2047Z" fill="#FFF8F8"/>
<path d="M134.503 115.601L136.164 116.555C136.41 116.678 136.995 116.709 137.179 116.555L138.748 115.694C138.994 115.54 138.994 115.355 138.748 115.201L137.087 114.248C136.841 114.125 136.256 114.094 136.072 114.248L134.503 115.109C134.257 115.263 134.257 115.447 134.503 115.601Z" fill="#6361C2"/>
<path d="M157.729 129.106L159.39 130.06C159.636 130.183 160.221 130.214 160.405 130.06L161.974 129.198C162.22 129.045 162.22 128.86 161.974 128.706L160.313 127.753C160.097 127.63 159.482 127.599 159.298 127.753L157.729 128.614C157.483 128.768 157.483 128.952 157.729 129.106Z" fill="#6361C2"/>
<path d="M154.837 126.952C154.591 127.106 154.591 127.29 154.837 127.444L156.498 128.398C156.744 128.521 157.329 128.551 157.514 128.398L159.082 127.536C159.329 127.383 159.329 127.198 159.082 127.044L157.421 126.09C157.175 125.967 156.591 125.937 156.406 126.09L154.837 126.952Z" fill="#6361C2"/>
<path d="M169.05 132.551L170.711 133.505C170.957 133.628 171.541 133.659 171.726 133.505L173.295 132.644C173.541 132.49 173.541 132.305 173.295 132.152L171.634 131.198C171.388 131.075 170.803 131.044 170.618 131.198L169.05 132.059C168.803 132.213 168.803 132.398 169.05 132.551Z" fill="#6361C2"/>
<path d="M166.219 130.89L167.88 131.844C168.127 131.967 168.711 131.998 168.896 131.844L170.465 130.983C170.711 130.829 170.711 130.644 170.465 130.49L168.803 129.537C168.557 129.414 167.973 129.383 167.788 129.537L166.219 130.398C165.973 130.552 165.973 130.737 166.219 130.89Z" fill="#6361C2"/>
<path d="M137.764 117.508L142.286 120.123C142.286 120.123 142.624 120.216 142.809 120.216C143.024 120.216 143.209 120.216 143.332 120.123L144.901 119.262C145.147 119.108 145.147 118.924 144.901 118.77L143.239 117.816L140.378 116.155C140.132 116.032 139.548 116.001 139.363 116.155L137.794 117.016C137.548 117.17 137.548 117.355 137.794 117.508H137.764Z" fill="#6361C2"/>
<path d="M146.316 122.492L147.977 123.446C148.223 123.569 148.808 123.599 148.992 123.446L150.561 122.584C150.807 122.43 150.807 122.246 150.561 122.092L148.9 121.138C148.654 121.015 148.069 120.985 147.885 121.138L146.316 122C146.07 122.154 146.07 122.338 146.316 122.492Z" fill="#6361C2"/>
<path d="M157.667 125.937L159.328 126.891C159.544 127.014 160.159 127.045 160.344 126.891L161.912 126.029C162.159 125.876 162.159 125.691 161.912 125.537L160.251 124.584C160.005 124.461 159.421 124.43 159.236 124.584L157.667 125.445C157.421 125.599 157.421 125.783 157.667 125.937Z" fill="#6361C2"/>
<path d="M166.25 133.566C166.004 133.72 166.004 133.904 166.25 134.058L167.911 135.012C168.157 135.135 168.742 135.166 168.926 135.012L170.495 134.151C170.741 133.997 170.741 133.812 170.495 133.658L168.834 132.705C168.588 132.582 168.003 132.551 167.819 132.705L166.25 133.566Z" fill="#6361C2"/>
<path d="M143.455 120.831L145.116 121.784C145.362 121.907 145.947 121.938 146.131 121.784L147.7 120.923C147.946 120.769 147.946 120.585 147.7 120.431L146.039 119.477C145.824 119.354 145.208 119.323 145.024 119.477L143.455 120.339C143.209 120.492 143.209 120.677 143.455 120.831Z" fill="#6361C2"/>
<path d="M154.806 124.245L156.468 125.198C156.714 125.322 157.298 125.352 157.483 125.198L159.052 124.337C159.298 124.183 159.298 123.999 159.052 123.845L157.39 122.891C157.144 122.768 156.56 122.737 156.375 122.891L154.806 123.753C154.56 123.906 154.56 124.091 154.806 124.245Z" fill="#6361C2"/>
<path d="M154.652 123.599L156.221 122.737C156.467 122.584 156.467 122.399 156.221 122.245L154.56 121.292C154.314 121.169 153.73 121.138 153.545 121.292L151.976 122.153C151.73 122.307 151.73 122.491 151.976 122.645L153.637 123.599C153.883 123.722 154.468 123.753 154.652 123.599Z" fill="#6361C2"/>
<path d="M166.066 130.213L167.634 129.352C167.881 129.198 167.881 129.013 167.634 128.86L165.973 127.906C165.727 127.783 165.143 127.752 164.958 127.906L163.389 128.767C163.143 128.921 163.143 129.106 163.389 129.259L165.05 130.213C165.296 130.336 165.881 130.367 166.066 130.213Z" fill="#6361C2"/>
<path d="M167.419 122.523L165.758 121.569C165.512 121.446 164.927 121.415 164.743 121.569L163.174 122.43C162.928 122.584 162.928 122.769 163.174 122.923L164.835 123.876C165.081 123.999 165.666 124.03 165.85 123.876L167.419 123.015C167.665 122.861 167.665 122.676 167.419 122.523Z" fill="#6361C2"/>
<path d="M170.28 124.184L168.619 123.23C168.373 123.107 167.788 123.076 167.604 123.23L166.035 124.091C165.789 124.245 165.789 124.43 166.035 124.584L167.696 125.537C167.942 125.66 168.526 125.691 168.711 125.537L170.28 124.676C170.526 124.522 170.526 124.338 170.28 124.184Z" fill="#6361C2"/>
<path d="M173.11 125.814L171.449 124.86C171.203 124.737 170.618 124.706 170.434 124.86L168.865 125.721C168.619 125.875 168.619 126.06 168.865 126.214L170.526 127.167C170.772 127.29 171.357 127.321 171.541 127.167L173.11 126.306C173.356 126.152 173.356 125.967 173.11 125.814Z" fill="#6361C2"/>
<path d="M161.728 119.2L160.067 118.247C159.821 118.124 159.236 118.093 159.052 118.247L157.483 119.108C157.237 119.262 157.237 119.446 157.483 119.6L159.144 120.554C159.39 120.677 159.974 120.708 160.159 120.554L161.728 119.693C161.974 119.539 161.974 119.354 161.728 119.2Z" fill="#6361C2"/>
<path d="M164.558 120.861L162.897 119.908C162.651 119.785 162.066 119.754 161.882 119.908L160.313 120.769C160.067 120.923 160.067 121.108 160.313 121.261L161.974 122.215C162.22 122.338 162.805 122.369 162.989 122.215L164.558 121.354C164.804 121.2 164.804 121.015 164.558 120.861Z" fill="#6361C2"/>
<path d="M176.156 134.305C176.402 134.151 176.402 133.966 176.156 133.813L174.494 132.859C174.248 132.736 173.664 132.705 173.479 132.859L171.91 133.72C171.664 133.874 171.664 134.059 171.91 134.213L173.572 135.166C173.818 135.289 174.402 135.32 174.587 135.166L176.156 134.305Z" fill="#6361C2"/>
<path d="M178.924 132.797C179.17 132.643 179.17 132.459 178.924 132.305L177.263 131.351C177.017 131.228 176.432 131.197 176.248 131.351L174.679 132.213C174.433 132.366 174.433 132.551 174.679 132.705L176.34 133.658C176.555 133.781 177.171 133.812 177.355 133.658L178.924 132.797Z" fill="#6361C2"/>
<path d="M169.142 135.689L170.803 136.643C171.049 136.766 171.634 136.797 171.818 136.643L173.387 135.781C173.633 135.628 173.633 135.443 173.387 135.289L171.726 134.336C171.48 134.213 170.895 134.182 170.711 134.336L169.142 135.197C168.896 135.351 168.896 135.535 169.142 135.689Z" fill="#6361C2"/>
<path d="M178.863 129.629C179.109 129.475 179.109 129.291 178.863 129.137L177.202 128.183C176.955 128.06 176.371 128.029 176.186 128.183L174.617 129.045C174.371 129.198 174.371 129.383 174.617 129.537L176.279 130.49C176.494 130.613 177.109 130.644 177.294 130.49L178.863 129.629Z" fill="#6361C2"/>
<path d="M176.033 130.675L174.371 129.721C174.125 129.598 173.541 129.568 173.356 129.721L171.787 130.583C171.541 130.736 171.541 130.921 171.787 131.075L173.449 132.029C173.695 132.152 174.279 132.182 174.464 132.029L176.033 131.167C176.279 131.013 176.279 130.829 176.033 130.675Z" fill="#6361C2"/>
<path d="M175.971 127.475L174.31 126.521C174.064 126.398 173.479 126.367 173.295 126.521L171.726 127.382C171.48 127.536 171.48 127.721 171.726 127.875L173.387 128.828C173.633 128.951 174.218 128.982 174.402 128.828L175.971 127.967C176.217 127.813 176.217 127.629 175.971 127.475Z" fill="#6361C2"/>
<path d="M119.86 106.679C119.614 106.833 119.614 107.018 119.86 107.172L121.521 108.125C121.767 108.248 122.352 108.279 122.536 108.125L124.105 107.264C124.351 107.11 124.351 106.925 124.105 106.772L122.444 105.818C122.198 105.695 121.613 105.664 121.429 105.818L119.86 106.679Z" fill="#6361C2"/>
<path d="M170.341 127.352L168.68 126.398C168.434 126.275 167.85 126.244 167.665 126.398L166.096 127.259C165.85 127.413 165.85 127.598 166.096 127.752L167.757 128.705C168.003 128.828 168.588 128.859 168.773 128.705L170.341 127.844C170.588 127.69 170.588 127.506 170.341 127.352Z" fill="#6361C2"/>
<path d="M158.867 117.569L157.206 116.616C156.96 116.493 156.375 116.462 156.191 116.616L154.622 117.477C154.376 117.631 154.376 117.816 154.622 117.969L156.283 118.923C156.529 119.046 157.114 119.077 157.298 118.923L158.867 118.062C159.113 117.908 159.113 117.723 158.867 117.569Z" fill="#6361C2"/>
<path d="M125.582 110.432L127.243 111.386C127.458 111.509 128.074 111.54 128.258 111.386L129.827 110.525C130.073 110.371 130.073 110.186 129.827 110.032L128.166 109.079C127.92 108.956 127.335 108.925 127.151 109.079L125.582 109.94C125.336 110.094 125.336 110.278 125.582 110.432Z" fill="#6361C2"/>
<path d="M122.598 105.141C122.352 105.295 122.352 105.48 122.598 105.633L124.259 106.587C124.505 106.71 125.089 106.741 125.274 106.587L126.843 105.726C127.089 105.572 127.089 105.387 126.843 105.234L125.182 104.28C124.936 104.157 124.351 104.126 124.167 104.28L122.598 105.141Z" fill="#6361C2"/>
<path d="M128.812 112.309L130.473 113.263C130.719 113.386 131.304 113.417 131.488 113.263L133.057 112.402C133.303 112.248 133.303 112.063 133.057 111.909L131.396 110.956C131.15 110.833 130.565 110.802 130.381 110.956L128.812 111.817C128.566 111.971 128.566 112.155 128.812 112.309Z" fill="#6361C2"/>
<path d="M131.642 113.939L133.303 114.893C133.549 115.016 134.134 115.047 134.318 114.893L135.887 114.031C136.133 113.878 136.133 113.693 135.887 113.539L134.226 112.586C133.98 112.463 133.396 112.432 133.211 112.586L131.642 113.447C131.396 113.601 131.396 113.785 131.642 113.939Z" fill="#6361C2"/>
<path d="M122.721 108.802L124.382 109.756C124.628 109.879 125.212 109.91 125.397 109.756L126.966 108.895C127.212 108.741 127.212 108.556 126.966 108.403L125.305 107.449C125.059 107.326 124.474 107.295 124.29 107.449L122.721 108.31C122.475 108.464 122.475 108.649 122.721 108.802Z" fill="#6361C2"/>
<path d="M122.505 104.957L126.843 102.558C127.089 102.404 127.089 102.219 126.843 102.066L125.182 101.112C124.936 100.989 124.351 100.958 124.167 101.112L122.598 101.973L119.829 103.481C119.583 103.635 119.583 103.819 119.829 103.973L121.49 104.927C121.736 105.05 122.321 105.08 122.505 104.927V104.957Z" fill="#6361C2"/>
<path d="M129.735 106.926L128.074 105.972C127.827 105.849 127.243 105.818 127.058 105.972L125.49 106.834C125.243 106.987 125.243 107.172 125.49 107.326L127.151 108.28C127.397 108.403 127.981 108.433 128.166 108.28L129.735 107.418C129.981 107.264 129.981 107.08 129.735 106.926Z" fill="#6361C2"/>
<path d="M128.35 108.925L130.012 109.879C130.258 110.002 130.842 110.033 131.027 109.879L132.596 109.018C132.842 108.864 132.842 108.679 132.596 108.526L130.934 107.572C130.688 107.449 130.104 107.418 129.919 107.572L128.35 108.433C128.104 108.587 128.104 108.772 128.35 108.925Z" fill="#6361C2"/>
<path d="M132.534 105.88C132.78 105.726 132.78 105.542 132.534 105.388L130.873 104.434C130.627 104.311 130.042 104.28 129.858 104.434L128.289 105.296C128.043 105.449 128.043 105.634 128.289 105.788L129.95 106.741C130.196 106.864 130.781 106.895 130.965 106.741L132.534 105.88Z" fill="#6361C2"/>
<path d="M129.642 103.757L127.981 102.803C127.735 102.68 127.151 102.65 126.966 102.803L125.397 103.665C125.151 103.819 125.151 104.003 125.397 104.157L127.058 105.111C127.274 105.234 127.889 105.264 128.074 105.111L129.642 104.249C129.889 104.095 129.889 103.911 129.642 103.757Z" fill="#6361C2"/>
<path d="M149.084 120.954L150.746 121.907C150.992 122.03 151.576 122.061 151.761 121.907L153.33 121.046C153.576 120.892 153.576 120.708 153.33 120.554L151.669 119.6C151.422 119.477 150.838 119.446 150.653 119.6L149.084 120.462C148.838 120.615 148.838 120.8 149.084 120.954Z" fill="#6361C2"/>
<path d="M138.81 112.74L137.241 113.601C136.995 113.755 136.995 113.94 137.241 114.093L138.902 115.047C139.148 115.17 139.733 115.201 139.917 115.047L141.486 114.186C141.732 114.032 141.732 113.847 141.486 113.694L139.825 112.74C139.579 112.617 138.994 112.586 138.81 112.74Z" fill="#6361C2"/>
<path d="M156.098 119.077L154.437 118.124C154.191 118.001 153.607 117.97 153.422 118.124L151.853 118.985C151.607 119.139 151.607 119.323 151.853 119.477L153.514 120.431C153.76 120.554 154.345 120.585 154.529 120.431L156.098 119.57C156.344 119.416 156.344 119.231 156.098 119.077Z" fill="#6361C2"/>
<path d="M147.639 117.323L145.977 116.37C145.731 116.247 145.147 116.216 144.962 116.37L143.393 117.231C143.147 117.385 143.147 117.57 143.393 117.723L145.054 118.677C145.301 118.8 145.885 118.831 146.07 118.677L147.639 117.816C147.885 117.662 147.885 117.477 147.639 117.323Z" fill="#6361C2"/>
<path d="M153.237 117.446L151.576 116.493C151.33 116.37 150.746 116.339 150.561 116.493L148.992 117.354C148.746 117.508 148.746 117.693 148.992 117.846L150.653 118.8C150.899 118.923 151.484 118.954 151.669 118.8L153.237 117.939C153.484 117.785 153.484 117.6 153.237 117.446Z" fill="#6361C2"/>
<path d="M146.254 119.293L147.916 120.246C148.162 120.369 148.746 120.4 148.931 120.246L150.5 119.385C150.746 119.231 150.746 119.047 150.5 118.893L148.838 117.939C148.623 117.816 148.008 117.785 147.823 117.939L146.254 118.8C146.008 118.954 146.008 119.139 146.254 119.293Z" fill="#6361C2"/>
<path d="M150.377 115.755L145.885 113.14C145.885 113.14 145.547 113.048 145.362 113.048C145.147 113.048 144.962 113.048 144.839 113.14L143.27 114.001L140.502 115.509C140.256 115.663 140.256 115.847 140.502 116.001L142.163 116.955C142.409 117.078 142.994 117.109 143.178 116.955L145.455 115.724L147.762 117.047C148.008 117.17 148.592 117.201 148.777 117.047L150.346 116.186C150.592 116.032 150.592 115.847 150.346 115.693L150.377 115.755Z" fill="#6361C2"/>
<path d="M164.743 127.23L163.081 126.276C162.835 126.153 162.251 126.122 162.066 126.276L160.497 127.137C160.251 127.291 160.251 127.476 160.497 127.63L162.159 128.583C162.405 128.706 162.989 128.737 163.174 128.583L164.743 127.722C164.989 127.568 164.989 127.383 164.743 127.23Z" fill="#6361C2"/>
<path d="M168.957 129.351L170.618 130.305C170.865 130.428 171.449 130.459 171.634 130.305L173.203 129.444C173.449 129.29 173.449 129.105 173.203 128.951L171.541 127.998C171.326 127.875 170.711 127.844 170.526 127.998L168.957 128.859C168.711 129.013 168.711 129.197 168.957 129.351Z" fill="#6361C2"/>
<path d="M158.929 120.738L157.267 119.785C157.021 119.662 156.437 119.631 156.252 119.785L154.683 120.646C154.437 120.8 154.437 120.985 154.683 121.138L156.345 122.092C156.591 122.215 157.175 122.246 157.36 122.092L158.929 121.231C159.175 121.077 159.175 120.892 158.929 120.738Z" fill="#6361C2"/>
<path d="M167.481 125.692L165.819 124.738C165.573 124.615 164.989 124.584 164.804 124.738L163.235 125.599C162.989 125.753 162.989 125.938 163.235 126.091L164.897 127.045C165.112 127.168 165.727 127.199 165.912 127.045L167.481 126.184C167.727 126.03 167.727 125.845 167.481 125.692Z" fill="#6361C2"/>
<path d="M161.789 122.4L160.128 121.446C159.882 121.323 159.298 121.292 159.113 121.446L157.544 122.307C157.298 122.461 157.298 122.646 157.544 122.799L159.205 123.753C159.421 123.876 160.036 123.907 160.221 123.753L161.789 122.892C162.036 122.738 162.036 122.553 161.789 122.4Z" fill="#6361C2"/>
<path d="M164.62 124.061L162.958 123.107C162.712 122.984 162.128 122.953 161.943 123.107L160.374 123.968C160.128 124.122 160.128 124.307 160.374 124.461L162.035 125.414C162.282 125.537 162.866 125.568 163.051 125.414L164.62 124.553C164.866 124.399 164.866 124.215 164.62 124.061Z" fill="#6361C2"/>
<path d="M123.674 110.74C123.921 110.587 123.921 110.402 123.674 110.248L122.013 109.295C121.767 109.172 121.183 109.141 120.998 109.295L120.537 109.541C120.291 109.694 120.291 109.879 120.537 110.033L122.198 110.987C122.444 111.11 123.028 111.14 123.213 110.987L123.674 110.74Z" fill="#6361C2"/>
<path d="M179.57 132.89C179.355 132.89 179.17 132.89 179.047 132.982L177.479 133.843C177.232 133.997 177.232 134.182 177.479 134.336L179.14 135.289L182.001 136.95C182.216 137.073 182.831 137.104 183.016 136.95L184.585 136.089C184.831 135.935 184.831 135.751 184.585 135.597L180.063 132.982C180.063 132.982 179.724 132.89 179.54 132.89H179.57Z" fill="#6361C2"/>
<path d="M179.509 129.721H179.14C179.14 129.721 179.017 129.721 178.955 129.783L177.386 130.644C177.386 130.644 177.202 130.798 177.202 130.89C177.202 130.982 177.294 131.075 177.417 131.136L179.078 132.09L181.939 133.751L184.8 135.412C185.046 135.535 185.631 135.566 185.815 135.412L187.384 134.551C187.63 134.397 187.63 134.213 187.384 134.059L180.032 129.783C180.032 129.783 179.693 129.69 179.509 129.69V129.752V129.721Z" fill="#6361C2"/>
<path d="M156.006 115.908L148.654 111.632C148.408 111.509 147.823 111.479 147.639 111.632L146.1 112.494C145.854 112.617 145.885 112.801 146.162 112.955L153.514 117.231C153.76 117.354 154.345 117.385 154.529 117.231L156.098 116.37C156.344 116.216 156.344 116.032 156.098 115.878L156.006 115.908Z" fill="#6361C2"/>
<path d="M180.155 129.136C179.909 129.29 179.909 129.475 180.155 129.629L181.816 130.582C182.062 130.705 182.647 130.736 182.831 130.582L184.4 129.721C184.646 129.567 184.646 129.383 184.4 129.229L182.739 128.275C182.493 128.152 181.908 128.121 181.724 128.275L180.155 129.136Z" fill="#6361C2"/>
<path d="M176.371 137.688L174.802 138.549C174.556 138.703 174.556 138.888 174.802 139.042L176.463 139.995C176.709 140.118 177.294 140.149 177.478 139.995L179.047 139.134C179.293 138.98 179.293 138.796 179.047 138.642L177.386 137.688C177.14 137.565 176.555 137.534 176.371 137.688Z" fill="#6361C2"/>
<path d="M182.985 130.797C182.739 130.951 182.739 131.136 182.985 131.29L187.507 133.904C187.753 134.027 188.338 134.058 188.522 133.904L190.091 133.043C190.337 132.889 190.337 132.705 190.091 132.551L187.261 130.89L185.6 129.936C185.6 129.936 185.261 129.844 185.046 129.844C184.831 129.844 184.646 129.844 184.523 129.936L182.954 130.797H182.985Z" fill="#6361C2"/>
<path d="M164.374 134.366C164.62 134.213 164.62 134.028 164.374 133.874L162.712 132.921C162.466 132.797 161.882 132.767 161.697 132.921L161.236 133.167C160.99 133.32 160.99 133.505 161.236 133.659L162.897 134.612C163.143 134.736 163.728 134.766 163.912 134.612L164.374 134.366Z" fill="#6361C2"/>
<path d="M177.325 127.475C177.079 127.629 177.079 127.814 177.325 127.967L178.986 128.921C179.232 129.044 179.816 129.075 180.001 128.921L181.57 128.06C181.816 127.906 181.816 127.721 181.57 127.568L179.909 126.614C179.663 126.491 179.078 126.46 178.894 126.614L177.325 127.475Z" fill="#6361C2"/>
<path d="M167.234 135.996C167.481 135.842 167.481 135.658 167.234 135.504L165.573 134.55C165.327 134.427 164.743 134.397 164.558 134.55L164.097 134.797C163.851 134.95 163.851 135.135 164.097 135.289L165.758 136.242C165.973 136.365 166.588 136.396 166.773 136.242L167.234 135.996Z" fill="#6361C2"/>
<path d="M176.248 137.504C176.494 137.35 176.494 137.166 176.248 137.012L174.587 136.058C174.341 135.935 173.756 135.904 173.572 136.058L172.003 136.92C171.757 137.073 171.757 137.258 172.003 137.412L173.664 138.365C173.91 138.488 174.494 138.519 174.679 138.365L176.248 137.504Z" fill="#6361C2"/>
<path d="M173.049 139.504L172.587 139.75C172.341 139.903 172.341 140.088 172.587 140.242L174.248 141.196C174.494 141.319 175.079 141.349 175.264 141.196L175.725 140.949C175.971 140.796 175.971 140.611 175.725 140.457L174.064 139.504C173.818 139.381 173.233 139.35 173.049 139.504Z" fill="#6361C2"/>
<path d="M170.065 137.689C170.311 137.535 170.311 137.35 170.065 137.196L168.403 136.243C168.157 136.12 167.573 136.089 167.388 136.243L166.927 136.489C166.681 136.643 166.681 136.827 166.927 136.981L168.588 137.935C168.834 138.058 169.419 138.089 169.603 137.935L170.065 137.689Z" fill="#6361C2"/>
<path d="M129.642 98.0353L128.074 98.8966L125.305 100.404C125.059 100.558 125.059 100.742 125.305 100.896L126.966 101.85C127.212 101.973 127.797 102.004 127.981 101.85L132.319 99.4504C132.565 99.2966 132.565 99.112 132.319 98.9582L130.658 98.0045C130.412 97.8815 129.827 97.8507 129.642 98.0045V98.0353Z" fill="#6361C2"/>
<path d="M139.825 105.726C139.579 105.88 139.579 106.065 139.825 106.218L141.486 107.172C141.732 107.295 142.317 107.326 142.501 107.172L144.07 106.311C144.316 106.157 144.316 105.972 144.07 105.819L142.409 104.865C142.163 104.742 141.578 104.711 141.394 104.865L139.825 105.726Z" fill="#6361C2"/>
<path d="M133.795 102.219C133.549 102.373 133.549 102.558 133.795 102.712L135.457 103.665L138.318 105.326C138.564 105.449 139.148 105.48 139.333 105.326L140.902 104.465C141.148 104.311 141.148 104.127 140.902 103.973L138.041 102.312L136.379 101.358C136.133 101.235 135.549 101.204 135.364 101.358L133.795 102.219Z" fill="#6361C2"/>
<path d="M130.934 100.558C130.688 100.712 130.688 100.897 130.934 101.05L132.596 102.004C132.842 102.127 133.426 102.158 133.611 102.004L135.18 101.143C135.426 100.989 135.426 100.804 135.18 100.651L133.518 99.6969C133.272 99.5739 132.688 99.5431 132.503 99.6969L130.934 100.558Z" fill="#6361C2"/>
<path d="M166.127 133.412L167.696 132.551C167.942 132.397 167.942 132.213 167.696 132.059L166.035 131.105C165.789 130.982 165.204 130.951 165.02 131.105L163.451 131.966C163.205 132.12 163.205 132.305 163.451 132.459L165.112 133.412C165.358 133.535 165.942 133.566 166.127 133.412Z" fill="#6361C2"/>
<path d="M142.686 107.387C142.44 107.541 142.44 107.726 142.686 107.88L144.347 108.833C144.593 108.956 145.178 108.987 145.362 108.833L146.931 107.972C147.177 107.818 147.177 107.633 146.931 107.48L145.27 106.526C145.055 106.403 144.439 106.372 144.255 106.526L142.686 107.387Z" fill="#6361C2"/>
<path d="M160.22 117.539C159.974 117.693 159.974 117.877 160.22 118.031L161.882 118.985C162.128 119.108 162.712 119.138 162.897 118.985L164.466 118.123C164.712 117.969 164.712 117.785 164.466 117.631L162.805 116.677C162.558 116.554 161.974 116.524 161.789 116.677L160.22 117.539Z" fill="#6361C2"/>
<path d="M163.051 119.2C162.805 119.354 162.805 119.539 163.051 119.693L176.094 127.291C176.34 127.414 176.925 127.445 177.109 127.291L178.678 126.43C178.924 126.276 178.924 126.091 178.678 125.937L167.265 119.323L165.604 118.37C165.358 118.247 164.774 118.216 164.589 118.37L163.02 119.231L163.051 119.2Z" fill="#6361C2"/>
<path d="M157.36 115.909C157.114 116.063 157.114 116.247 157.36 116.401L159.021 117.355C159.267 117.478 159.851 117.509 160.036 117.355L161.605 116.493C161.851 116.34 161.851 116.155 161.605 116.001L159.944 115.048C159.698 114.924 159.113 114.894 158.929 115.048L157.36 115.909Z" fill="#6361C2"/>
<path d="M145.516 109.049C145.27 109.202 145.27 109.387 145.516 109.541L147.177 110.494C147.423 110.617 148.008 110.648 148.192 110.494L149.761 109.633C150.007 109.479 150.007 109.295 149.761 109.141L148.1 108.187C147.854 108.064 147.269 108.033 147.085 108.187L145.516 109.049Z" fill="#6361C2"/>
<path d="M148.838 110.924C148.592 111.078 148.592 111.263 148.838 111.417L153.361 114.032C153.607 114.155 154.191 114.185 154.376 114.032L155.945 113.17C156.191 113.016 156.191 112.832 155.945 112.678L151.422 110.063C151.176 109.94 150.592 109.909 150.407 110.063L148.838 110.924Z" fill="#6361C2"/>
<path d="M154.499 114.247C154.253 114.401 154.253 114.585 154.499 114.739L156.16 115.693C156.406 115.816 156.991 115.846 157.175 115.693L158.744 114.831C158.99 114.677 158.99 114.493 158.744 114.339L157.083 113.385C156.868 113.262 156.252 113.232 156.068 113.385L154.499 114.247Z" fill="#6361C2"/>
<path d="M176.802 134.428C176.586 134.428 176.402 134.428 176.279 134.52L174.71 135.381C174.464 135.535 174.464 135.72 174.71 135.874L176.371 136.827L179.232 138.488C179.478 138.611 180.062 138.642 180.247 138.488L181.816 137.627C182.062 137.473 182.062 137.289 181.816 137.135L177.294 134.52C177.294 134.52 176.955 134.428 176.771 134.428H176.802Z" fill="#6361C2"/>
<path d="M119.706 106.495L121.275 105.634C121.521 105.48 121.521 105.296 121.275 105.142L119.614 104.188C119.368 104.065 118.783 104.034 118.599 104.188L117.03 105.049C116.784 105.203 116.784 105.388 117.03 105.542L118.691 106.495C118.937 106.618 119.522 106.649 119.706 106.495Z" fill="#6361C2"/>
<path d="M132.411 102.219L130.75 101.265C130.504 101.142 129.919 101.111 129.735 101.265L128.166 102.127C127.92 102.28 127.92 102.465 128.166 102.619L129.827 103.572C130.073 103.696 130.658 103.726 130.842 103.572L132.411 102.711C132.657 102.557 132.657 102.373 132.411 102.219Z" fill="#6361C2"/>
<path d="M117.983 107.448C118.229 107.295 118.229 107.11 117.983 106.956L116.322 106.003C116.076 105.88 115.491 105.849 115.307 106.003L114.845 106.249C114.599 106.402 114.599 106.587 114.845 106.741L116.507 107.695C116.722 107.818 117.337 107.848 117.522 107.695L117.983 107.448Z" fill="#6361C2"/>
<path d="M126.535 112.432C126.781 112.278 126.781 112.093 126.535 111.94L124.874 110.986C124.628 110.863 124.043 110.832 123.859 110.986L123.397 111.232C123.151 111.386 123.151 111.57 123.397 111.724L125.059 112.678C125.305 112.801 125.889 112.832 126.074 112.678L126.535 112.432Z" fill="#6361C2"/>
<path d="M120.844 109.11C121.09 108.956 121.09 108.771 120.844 108.617L119.183 107.664C118.937 107.541 118.353 107.51 118.168 107.664L117.707 107.91C117.46 108.064 117.46 108.248 117.707 108.402L119.368 109.356C119.614 109.479 120.198 109.509 120.383 109.356L120.844 109.11Z" fill="#6361C2"/>
<path d="M135.272 103.88L133.611 102.926C133.365 102.803 132.78 102.773 132.596 102.926L131.027 103.788C130.781 103.942 130.781 104.126 131.027 104.28L132.688 105.234C132.903 105.357 133.519 105.387 133.703 105.234L135.272 104.372C135.518 104.218 135.518 104.034 135.272 103.88Z" fill="#6361C2"/>
<path d="M138.133 106.033C138.379 105.88 138.379 105.695 138.133 105.541L136.472 104.588C136.226 104.464 135.641 104.434 135.457 104.588L133.888 105.449C133.642 105.603 133.642 105.787 133.888 105.941L135.549 106.895C135.795 107.018 136.379 107.049 136.564 106.895L138.133 106.033Z" fill="#6361C2"/>
<path d="M135.826 110.433L134.165 109.479C133.919 109.356 133.334 109.325 133.149 109.479L131.581 110.34C131.334 110.494 131.334 110.679 131.581 110.833L133.242 111.786C133.488 111.909 134.072 111.94 134.257 111.786L135.826 110.925C136.072 110.771 136.072 110.587 135.826 110.433Z" fill="#6361C2"/>
<path d="M135.98 111.048L134.411 111.909C134.165 112.063 134.165 112.247 134.411 112.401L136.072 113.355C136.318 113.478 136.902 113.509 137.087 113.355L138.656 112.493C138.902 112.34 138.902 112.155 138.656 112.001L136.995 111.048C136.749 110.924 136.164 110.894 135.98 111.048Z" fill="#6361C2"/>
<path d="M164.835 130.89C165.081 130.736 165.081 130.551 164.835 130.398L163.174 129.444C162.928 129.321 162.343 129.29 162.158 129.444L160.59 130.305C160.344 130.459 160.344 130.644 160.59 130.798L162.251 131.751C162.497 131.874 163.081 131.905 163.266 131.751L164.835 130.89Z" fill="#6361C2"/>
<path d="M135.364 107.049L133.703 106.095C133.457 105.972 132.873 105.942 132.688 106.095L131.119 106.957C130.873 107.111 130.873 107.295 131.119 107.449L132.78 108.403C133.026 108.526 133.611 108.556 133.796 108.403L135.364 107.541C135.611 107.387 135.611 107.203 135.364 107.049Z" fill="#6361C2"/>
<path d="M144.224 109.54C144.47 109.386 144.47 109.202 144.224 109.048L142.563 108.094C142.317 107.971 141.732 107.941 141.548 108.094L139.979 108.956C139.733 109.11 139.733 109.294 139.979 109.448L141.64 110.402C141.886 110.525 142.471 110.555 142.655 110.402L144.224 109.54Z" fill="#6361C2"/>
<path d="M129.735 114.247C129.981 114.093 129.981 113.909 129.735 113.755L128.074 112.801C127.827 112.678 127.243 112.648 127.058 112.801L126.597 113.048C126.351 113.201 126.351 113.386 126.597 113.54L128.258 114.493C128.504 114.616 129.089 114.647 129.273 114.493L129.735 114.247Z" fill="#6361C2"/>
<path d="M153.422 124.276C153.668 124.122 153.668 123.937 153.422 123.783L151.761 122.83C151.515 122.707 150.93 122.676 150.746 122.83L149.177 123.691C148.931 123.845 148.931 124.029 149.177 124.183L150.838 125.137C151.084 125.26 151.669 125.291 151.853 125.137L153.422 124.276Z" fill="#6361C2"/>
<path d="M152.961 127.752C153.207 127.598 153.207 127.414 152.961 127.26L151.299 126.306C151.084 126.183 150.469 126.152 150.284 126.306L149.823 126.552C149.577 126.706 149.577 126.891 149.823 127.045L151.484 127.998C151.73 128.121 152.315 128.152 152.499 127.998L152.961 127.752Z" fill="#6361C2"/>
<path d="M154.714 126.768L156.283 125.906C156.529 125.753 156.529 125.568 156.283 125.414L154.622 124.461C154.406 124.338 153.791 124.307 153.607 124.461L152.038 125.322C151.792 125.476 151.792 125.66 152.038 125.814L153.699 126.768C153.945 126.891 154.529 126.922 154.714 126.768Z" fill="#6361C2"/>
<path d="M155.821 129.413C156.068 129.259 156.068 129.075 155.821 128.921L154.16 127.967C153.914 127.844 153.33 127.814 153.145 127.967L152.684 128.214C152.437 128.367 152.437 128.552 152.684 128.706L154.345 129.659C154.591 129.782 155.175 129.813 155.36 129.659L155.821 129.413Z" fill="#6361C2"/>
<path d="M158.682 131.074C158.929 130.921 158.929 130.736 158.682 130.582L157.021 129.629C156.775 129.506 156.191 129.475 156.006 129.629L155.545 129.875C155.299 130.028 155.299 130.213 155.545 130.367L157.206 131.321C157.452 131.444 158.036 131.474 158.221 131.321L158.682 131.074Z" fill="#6361C2"/>
<path d="M144.409 122.799C144.655 122.645 144.655 122.461 144.409 122.307L142.747 121.353C142.501 121.23 141.917 121.199 141.732 121.353L141.271 121.599C141.025 121.753 141.025 121.938 141.271 122.091L142.932 123.045C143.178 123.168 143.763 123.199 143.947 123.045L144.409 122.799Z" fill="#6361C2"/>
<path d="M138.717 119.477C138.963 119.323 138.963 119.138 138.717 118.985L137.056 118.031C136.81 117.908 136.226 117.877 136.041 118.031L135.58 118.277C135.333 118.431 135.333 118.615 135.58 118.769L137.241 119.723C137.456 119.846 138.071 119.877 138.256 119.723L138.717 119.477Z" fill="#6361C2"/>
<path d="M135.457 117.57C135.703 117.416 135.703 117.231 135.457 117.077L133.795 116.124C133.549 116.001 132.965 115.97 132.78 116.124L132.319 116.37C132.073 116.524 132.073 116.708 132.319 116.862L133.98 117.816C134.226 117.939 134.811 117.969 134.995 117.816L135.457 117.57Z" fill="#6361C2"/>
<path d="M141.547 121.138C141.794 120.984 141.794 120.799 141.547 120.646L139.886 119.692C139.64 119.569 139.056 119.538 138.871 119.692L138.41 119.938C138.164 120.092 138.164 120.277 138.41 120.43L140.071 121.384C140.317 121.507 140.901 121.538 141.086 121.384L141.547 121.138Z" fill="#6361C2"/>
<path d="M132.596 115.908C132.842 115.755 132.842 115.57 132.596 115.416L130.934 114.463C130.688 114.339 130.104 114.309 129.919 114.463L129.458 114.709C129.212 114.862 129.212 115.047 129.458 115.201L131.119 116.154C131.365 116.278 131.95 116.308 132.134 116.154L132.596 115.908Z" fill="#6361C2"/>
<path d="M147.269 124.43C147.515 124.276 147.515 124.091 147.269 123.938L145.608 122.984C145.362 122.861 144.778 122.83 144.593 122.984L144.132 123.23C143.885 123.384 143.885 123.569 144.132 123.722L145.793 124.676C146.039 124.799 146.623 124.83 146.808 124.676L147.269 124.43Z" fill="#6361C2"/>
<path fill-rule="evenodd" clip-rule="evenodd" d="M57.4555 122.142L53.1239 119.215V119.246C51.7088 118.446 51.8934 117.031 53.4931 116.108L57 114.078C58.5997 113.124 61.0299 113.032 62.4143 113.832L109.508 141.538C110.923 142.337 110.739 143.752 109.139 144.675L105.632 146.675C104.032 147.629 101.602 147.721 100.218 146.921L100.004 147.712C99.8768 148.185 99.4218 148.496 98.9347 148.442C77.6207 146.053 61.2087 136.28 57.4555 123.687V122.142Z" fill="#B75DE3"/>
<path d="M57.3691 27.5144L59.7686 26.13H59.7994C59.984 26.0377 60.2301 26.0685 60.5069 26.2223L104.344 51.3555C104.928 51.6939 105.421 52.5552 105.421 53.232V133.4C105.421 133.769 105.236 134.015 105.051 134.107L102.621 135.522L101.237 132.231L60.4762 108.851C59.8917 108.513 59.3995 107.651 59.3995 106.974V32.4672L57.3384 27.4836L57.3691 27.5144Z" fill="#FFF8F8"/>
<path d="M102.99 134.784C102.99 135.491 102.498 135.768 101.914 135.43L58.0767 110.297C57.4922 109.958 57 109.097 57 108.42V28.2526C57 27.545 57.523 27.2682 58.1075 27.6066L101.944 52.7397C102.529 53.0781 103.021 53.9395 103.021 54.6163V134.784H102.99Z" fill="#EADCDB"/>
<path d="M64.9983 121.279C68.0131 131.031 81.1795 137.953 98.099 139.706C98.1605 139.706 98.0375 140.321 98.099 140.352L96.5609 145.951C76.3497 143.921 60.7223 134.907 57.1846 123.248V121.679L65.0291 121.279H64.9983Z" fill="#EADCDB"/>
<path d="M64.9983 120.664C68.0131 130.477 81.0564 138.014 98.099 139.737L96.5609 144.382C76.3498 142.352 60.7223 133.338 57.1846 121.679L65.0291 120.664H64.9983Z" fill="#FFF8F8"/>
<path d="M72.9043 76.6113L71.4277 77.1035L80.3182 101.314L81.764 100.791L81.5794 81.964L72.9043 76.6113Z" fill="#B1A2A2"/>
<path d="M71.4277 77.0732L71.6123 95.9L80.3182 101.284L80.1028 82.4567L71.4277 77.0732Z" fill="#F8ECEB"/>
<path d="M81.3027 135.768C81.6103 136.968 77.7957 138.537 77.7957 138.537L76.3191 130.015L76.5652 91.0083L78.7493 89.624L78.2571 129.246C79.0877 130.169 81.3334 135.737 81.3334 135.737L81.3027 135.768Z" fill="#B1A2A2"/>
<path d="M76.2575 130.016L71.4893 127.278L71.7354 88.2705L76.5343 91.0084L76.2882 130.016H76.2575Z" fill="#EADCDB"/>
<path d="M77.7342 138.537C71.4894 138.291 67.7363 135.245 65.829 133C64.9061 131.923 65.2445 130.262 66.5366 129.647L71.4894 127.247L76.2576 129.985C77.8573 131.923 79.8876 138.599 77.7342 138.506V138.537Z" fill="#EADCDB"/>
<path d="M78.6877 89.6554L73.3965 86.7021L71.7354 88.271L76.5343 91.0089L78.6877 89.6554Z" fill="#FFF8F8"/>
<path fill-rule="evenodd" clip-rule="evenodd" d="M122 159.689L104.5 149.548V149.579C103.085 148.779 103.269 147.364 104.869 146.441L108.376 144.411C109.976 143.457 112.406 143.365 113.79 144.165L178.256 181.519C179.671 182.319 179.487 183.734 177.887 184.657L174.38 186.657C172.78 187.61 170.35 187.703 168.966 186.903L164.762 184.467L164.549 185.258C164.421 185.731 163.966 186.043 163.479 185.988C142.165 183.599 125.753 173.826 122 161.233V159.689Z" fill="#B75DE3"/>
<path d="M175.288 56.0117C174.867 58.6546 174.772 61.3763 174.805 64.0534C174.872 69.8876 175.475 75.6976 176.077 81.5077C176.47 85.2935 176.862 89.0794 177.107 92.8722C177.225 94.7039 177.305 96.5468 177.332 98.3918C177.047 98.7299 176.721 99.05 176.318 99.37C175.234 100.21 173.972 100.784 172.711 101.315C162.973 105.381 133.696 113.802 132.811 113.978C130.708 114.398 128.584 114.686 126.459 114.973C125.419 115.105 124.379 115.238 123.361 115.105C121.28 114.84 119.488 113.581 117.806 112.365C115.88 110.995 113.955 109.602 112.029 108.21C111.299 107.68 110.546 107.127 110.082 106.354C109.838 105.934 109.705 105.426 109.705 104.939C109.705 104.807 109.727 104.652 109.838 104.564C109.971 104.453 110.17 104.475 110.325 104.519C111.698 104.833 113.053 105.293 114.407 105.752C117.155 106.686 119.893 107.615 122.741 107.304C123.516 107.216 123.449 106.707 123.338 106.044C123.228 105.381 122.962 104.763 122.608 104.188C122.242 103.594 121.802 103.042 121.362 102.488C121.163 102.239 120.964 101.989 120.771 101.735C120.727 101.668 120.683 101.58 120.705 101.514C120.727 101.447 120.815 101.381 120.882 101.381C121.192 101.315 121.546 101.315 121.878 101.315C123.029 101.337 124.179 101.381 125.33 101.47C125.776 101.508 126.224 101.534 126.672 101.559C127.758 101.621 128.846 101.683 129.912 101.934C130.996 102.174 131.989 102.633 132.99 103.096C133.093 103.143 133.195 103.19 133.298 103.238C133.527 103.344 133.763 103.443 134.001 103.542C134.452 103.73 134.906 103.92 135.312 104.166C135.799 104.453 136.108 104.564 136.706 104.564C136.953 104.564 137.18 104.545 137.424 104.524L137.481 104.519C137.99 104.365 161.623 92.2758 163.747 90.6846C164.031 90.4697 164.403 90.2681 164.783 90.0617C165.38 89.7375 165.999 89.4015 166.337 88.9829C166.828 88.3698 167.013 87.1042 167.157 86.1214C167.195 85.8642 167.23 85.6264 167.266 85.4247C167.421 84.6161 167.601 82.501 167.827 79.8352C168.312 74.1225 169.012 65.8811 170.143 62.5509C170.829 60.5176 171.693 58.8159 173.308 57.3573C173.899 56.8251 174.57 56.3692 175.288 56.0117Z" fill="#A65745"/>
<path d="M179.352 46.3479C179.341 46.3561 179.331 46.3645 179.32 46.3728C178.59 46.9254 178.103 47.721 177.682 48.5166C175.181 53.2239 174.739 58.7269 174.805 64.0531C174.868 69.5168 175.4 74.9592 175.963 80.4005C175.517 80.3136 175.074 80.2162 174.635 80.1063C172.047 79.4585 169.494 78.3177 167.553 76.4646C167.103 76.0251 166.671 75.5392 166.451 74.9631C166.068 73.916 166.431 72.7641 166.803 71.7002C168.493 66.844 170.295 61.9977 172.171 57.2099C172.432 56.5424 172.68 55.8303 172.934 55.1008C173.813 52.5797 174.765 49.8503 176.567 48.0301L176.547 48.0545C177.288 47.3055 178.159 46.7201 179.232 46.3569L179.342 46.3447C179.345 46.3455 179.349 46.3466 179.352 46.3479Z" fill="#F2F2F2" stroke="#6361C2" stroke-width="0.74"/>
<path d="M228.721 81.6435C228.366 81.3341 227.99 81.2015 227.548 80.8257C226.972 80.3174 226.773 79.5218 226.308 78.9251C225.423 77.798 224.272 76.8919 222.922 76.4278C220.333 75.5438 217.345 76.472 215.309 78.3063C213.693 79.7649 212.83 81.4667 212.144 83.4999C210.484 88.3841 209.754 103.832 209.267 106.374C209.09 107.346 208.957 109.158 208.337 109.932C207.784 110.617 206.478 111.081 205.748 111.634C203.623 113.225 178.968 125.159 178.459 125.314C178.194 125.336 177.95 125.358 177.685 125.358C177.087 125.358 176.777 125.247 176.29 124.96C175.671 124.584 174.94 124.341 174.276 124.032C173.17 123.524 172.085 122.993 170.89 122.728C169.385 122.374 167.836 122.396 166.309 122.264C165.158 122.175 164.007 122.131 162.857 122.109C162.525 122.109 162.17 122.109 161.861 122.175C161.794 122.175 161.706 122.242 161.684 122.308C161.661 122.374 161.706 122.463 161.75 122.529C162.37 123.347 163.056 124.12 163.587 124.982C163.941 125.557 164.207 126.176 164.317 126.839C164.428 127.502 164.494 128.01 163.72 128.098C159.47 128.562 155.465 126.264 151.304 125.314C151.149 125.27 150.95 125.247 150.817 125.358C150.706 125.446 150.684 125.601 150.684 125.734C150.684 126.22 150.817 126.728 151.06 127.148C151.525 127.922 152.278 128.474 153.008 129.004C154.933 130.397 156.859 131.789 158.784 133.159C160.466 134.375 162.259 135.635 164.339 135.9C165.357 136.032 166.398 135.9 167.438 135.767C169.562 135.48 171.687 135.193 173.79 134.773C174.675 134.596 204.973 126.33 214.711 122.264C215.973 121.733 217.234 121.159 218.319 120.319C219.403 119.457 219.934 118.595 220.598 117.38C222.125 114.639 223.586 111.855 224.693 108.915C225.711 106.219 226.419 103.412 227.149 100.606C228.234 96.3181 229.34 92.0085 229.827 87.6106C230.026 85.8646 230.093 83.9198 229.207 82.3286C229.052 82.0413 228.898 81.8645 228.721 81.7098V81.6435Z" fill="#A65745"/>
<path d="M214.822 64.9137C213.007 68.9139 212.077 73.2676 211.259 77.5993C210.661 80.6934 210.13 83.8095 209.621 86.9257C209.554 87.3235 209.488 87.7655 209.687 88.1412C209.82 88.3843 210.041 88.5611 210.263 88.7379C212.321 90.2407 214.932 90.749 217.478 91.0363C221.882 91.5446 226.574 91.4562 230.38 89.202C230.58 89.0694 230.801 88.9368 230.934 88.76C231.111 88.5169 231.155 88.2296 231.199 87.9423C231.952 83.4338 232.571 78.9032 232.571 74.3285C232.571 69.7537 231.885 65.1568 230.115 60.9357C229.584 59.6981 228.964 58.4604 228.034 57.4659C227.216 56.5819 226.065 55.8968 224.892 55.6537C223.852 55.4327 222.922 55.941 222.037 56.4493C219.912 57.6427 218.186 59.4328 216.836 61.4219C216.083 62.5269 215.419 63.6982 214.866 64.9358L214.822 64.9137Z" fill="#F2F2F2" stroke="#6361C2" stroke-width="0.74"/>
<path d="M108.461 83.5846L110.953 82.1387C111.138 82.0465 111.415 82.0465 111.692 82.231L181.215 122.315C181.8 122.653 182.292 123.515 182.292 124.191L182.138 174.673C182.138 174.981 182.046 175.227 181.831 175.35L179.37 176.765L176.016 172.366L111.538 135.204C110.953 134.866 110.461 134.005 110.461 133.328L110.584 86.4148L108.431 83.5846H108.461Z" fill="#FFF8F8"/>
<path d="M109.231 83.6773L178.754 124.007C179.339 124.346 179.831 125.207 179.831 125.884L179.677 176.642C179.677 177.319 179.185 177.627 178.6 177.258L109.077 136.928C108.492 136.589 108 135.728 108 135.051L108.154 84.2926C108.154 83.585 108.646 83.3081 109.231 83.6773Z" fill="#EADCDB"/>
<path d="M130.334 160.153C133.349 169.905 146.515 176.827 163.434 178.58C163.496 178.58 163.373 179.195 163.434 179.226L161.896 184.825C141.685 182.795 126.058 173.781 122.52 162.122V160.553L130.365 160.153H130.334Z" fill="#EADCDB"/>
<path d="M130.334 159.538C133.349 169.351 146.392 176.888 163.434 178.611L161.896 183.256C141.685 181.226 126.058 172.212 122.52 160.553L130.365 159.538H130.334Z" fill="#FFF8F8"/>
<path d="M151.314 149.633L150.145 150.648L133.41 131.052L134.548 130.037L150.883 139.45L151.314 149.633Z" fill="#B1A2A2"/>
<path d="M150.145 150.648L133.81 141.234L133.379 131.052L149.714 140.465L150.145 150.678V150.648Z" fill="#F8ECEB"/>
<path d="M146.638 174.643C146.945 175.843 143.131 177.412 143.131 177.412L141.654 168.891L141.9 142.835L144.085 141.45L143.592 168.152C144.423 169.075 146.669 174.643 146.669 174.643H146.638Z" fill="#B1A2A2"/>
<path d="M141.593 168.89L136.825 166.152L137.071 140.096L141.87 142.834L141.624 168.89H141.593Z" fill="#F8ECEB"/>
<path d="M143.069 177.411C136.825 177.165 133.072 174.119 131.164 171.874C130.241 170.797 130.58 169.136 131.872 168.521L136.825 166.121L141.593 168.859C143.192 170.797 145.254 177.473 143.069 177.38V177.411Z" fill="#EADCDB"/>
<path d="M144.023 141.449L138.732 138.496L137.071 140.096L141.87 142.834L144.023 141.449Z" fill="#FFF8F8"/>
</g>
<defs>
<linearGradient id="paint0_linear_329_11085" x1="6.76782" y1="264.791" x2="165.104" y2="264.791" gradientUnits="userSpaceOnUse">
<stop stop-color="#2CB8DB"/>
<stop offset="1" stop-color="#2CB8DB"/>
</linearGradient>
<linearGradient id="paint1_linear_329_11085" x1="25.0398" y1="239.917" x2="162.156" y2="239.917" gradientUnits="userSpaceOnUse">
<stop stop-color="#2CB8DB"/>
<stop offset="1" stop-color="#2CB8DB"/>
</linearGradient>
<linearGradient id="paint2_linear_329_11085" x1="212.333" y1="143.656" x2="217.562" y2="143.656" gradientUnits="userSpaceOnUse">
<stop offset="0.27" stop-color="#B0B0B0"/>
<stop offset="0.46" stop-color="#BBBBBB"/>
<stop offset="0.68" stop-color="#DFDFDF"/>
<stop offset="0.84" stop-color="#B9B9B9"/>
</linearGradient>
<linearGradient id="paint3_linear_329_11085" x1="193.414" y1="121.385" x2="112.6" y2="121.385" gradientUnits="userSpaceOnUse">
<stop stop-color="#EADCDB"/>
<stop offset="0.21" stop-color="#EADCDB"/>
<stop offset="0.98" stop-color="#EADCDB"/>
</linearGradient>
<clipPath id="clip0_329_11085">
<rect width="328" height="336" fill="white" transform="translate(0 0.078125)"/>
</clipPath>
</defs>
</svg>
