<svg width="151" height="211" viewBox="0 0 151 211" fill="none" xmlns="http://www.w3.org/2000/svg">
<g clip-path="url(#clip0_400_13307)">
<path d="M72.7681 203.38L150.535 158.914L150.697 165.659L72.7681 210.053V203.38Z" fill="#35DFFF" stroke="black" stroke-width="1.53546" stroke-linejoin="round"/>
<path d="M72.7682 203.38L0.697021 160.872L0.858834 167.814L72.7682 210.078L72.7844 203.38H72.7682Z" fill="url(#paint0_linear_400_13307)" stroke="black" stroke-width="1.53546" stroke-linejoin="round"/>
<path d="M72.2504 119.918L0.697021 160.872L72.7682 203.38L150.535 158.914L72.2504 119.901V119.918Z" fill="#40FBFF" stroke="black" stroke-width="1.53546" stroke-linejoin="round"/>
<g style="mix-blend-mode:multiply">
<path d="M132.281 150.507L72.7731 183.255H71.8373L63.2292 180.449L51.2527 162.484L40.0249 159.49L92.9835 130.671L132.281 150.507Z" fill="black" fill-opacity="0.1"/>
</g>
<path d="M102.646 12.6804L105.045 11.2961H105.076C105.26 11.2038 105.506 11.2345 105.783 11.3883L149.62 36.5215C150.205 36.8599 150.697 37.7212 150.697 38.398V140.566C150.697 140.935 150.512 141.181 150.328 141.273L147.897 142.688L146.513 139.397L105.753 116.017C105.168 115.679 104.676 114.817 104.676 114.14V17.6332L102.615 12.6496L102.646 12.6804Z" fill="#FFF8F8"/>
<path d="M148.267 141.95C148.267 142.658 147.774 142.934 147.19 142.596L103.353 117.463C102.769 117.124 102.276 116.263 102.276 115.586V13.4186C102.276 12.7111 102.799 12.4342 103.384 12.7726L147.221 37.9057C147.805 38.2441 148.297 39.1055 148.297 39.7823V141.95H148.267Z" fill="#EADCDB"/>
<path d="M145.167 65.2551V48.2651L128.187 38.4551V55.4551L145.167 65.2551Z" fill="#50DCFF"/>
<path d="M145.277 65.4446V48.1946C145.217 48.1646 128.077 38.2646 128.077 38.2646V55.5146C128.137 55.5446 145.277 65.4446 145.277 65.4446ZM145.057 48.3246V65.0547L128.297 55.3846V38.6547L145.057 48.3246Z" fill="#251E66"/>
<path d="M145.167 86.1252V69.1252L128.187 59.3252V76.3152L145.167 86.1252Z" fill="#50DCFF"/>
<path d="M145.277 86.3148V69.0648C145.217 69.0348 128.077 59.1348 128.077 59.1348V76.3848C128.137 76.4148 145.277 86.3148 145.277 86.3148ZM145.057 69.1948V85.9248L128.297 76.2548V59.5248L145.057 69.1948Z" fill="#251E66"/>
<path d="M125.167 39.2546V38.4547L105.417 27.0547V27.8547L125.167 39.2546Z" fill="#171143"/>
<path d="M125.167 45.6151V44.815L105.417 33.415V34.215L125.167 45.6151Z" fill="#171143"/>
<path d="M125.167 51.9647V51.1647L105.417 39.7646V40.5646L125.167 51.9647Z" fill="#171143"/>
<path d="M125.167 60.1248V59.3248L105.417 47.9248V48.7248L125.167 60.1248Z" fill="#171143"/>
<path d="M144.377 108.205V98.3448L134.617 92.7148V102.575L144.377 108.205Z" fill="#C5C0E7"/>
<path d="M144.437 108.324V98.3145L134.557 92.6045V102.615L144.437 108.324ZM144.307 98.3845V108.094L134.687 102.534V92.8245L144.307 98.3845Z" fill="#251E66"/>
<path d="M125.167 66.4744V65.6744L105.417 54.2744V55.0744L125.167 66.4744Z" fill="#171143"/>
<path d="M125.167 72.8348V72.0348L105.417 60.6348V61.4348L125.167 72.8348Z" fill="#171143"/>
<path d="M144.377 121.785V111.925L134.617 106.295V116.155L144.377 121.785Z" fill="#C5C0E7"/>
<path d="M144.437 121.905V111.895L134.557 106.185V116.195L144.437 121.905ZM144.307 111.965V121.675L134.687 116.115V106.405L144.307 111.965Z" fill="#251E66"/>
<path d="M130.167 100.005V90.1447L120.417 84.5146V94.3746L130.167 100.005Z" fill="#C5C0E7"/>
<path d="M130.237 100.124V90.1143L120.357 84.4043V94.4143L130.237 100.124ZM130.107 90.1843V99.8943L120.487 94.3343V84.6243L130.107 90.1843Z" fill="#251E66"/>
<path d="M144.377 135.365V125.505L134.617 119.875V129.735L144.377 135.365Z" fill="#C5C0E7"/>
<path d="M144.437 135.485V125.475L134.557 119.765V129.775L144.437 135.485ZM144.307 125.545V135.255L134.687 129.695V119.985L144.307 125.545Z" fill="#251E66"/>
<path d="M130.167 113.585V103.725L120.417 98.0947V107.955L130.167 113.585Z" fill="#C5C0E7"/>
<path d="M130.237 113.704V103.694L120.357 97.9844V107.994L130.237 113.704ZM130.107 103.764V113.474L120.487 107.914V98.2043L130.107 103.764Z" fill="#251E66"/>
<path d="M115.967 91.8055V81.9454L106.207 76.3154V86.1755L115.967 91.8055Z" fill="#C5C0E7"/>
<path d="M116.027 91.9251V81.9151L106.147 76.2051V86.2151L116.027 91.9251ZM115.897 81.9851V91.6951L106.277 86.1351V76.4251L115.897 81.9851Z" fill="#251E66"/>
<path d="M130.167 127.165V117.305L120.417 111.675V121.535L130.167 127.165Z" fill="#C5C0E7"/>
<path d="M130.237 127.275V117.265L120.357 111.555V121.565L130.237 127.275ZM130.107 117.335V127.045L120.487 121.485V111.775L130.107 117.335Z" fill="#251E66"/>
<path d="M115.967 105.385V95.5245L106.207 89.8945V99.7545L115.967 105.385Z" fill="#C5C0E7"/>
<path d="M116.027 105.494V95.4844L106.147 89.7744V99.7844L116.027 105.494ZM115.897 95.5544V105.264L106.277 99.7044V89.9944L115.897 95.5544Z" fill="#251E66"/>
<path d="M115.967 118.965V109.105L106.207 103.475V113.335L115.967 118.965Z" fill="#C5C0E7"/>
<path d="M116.027 119.074V109.064L106.147 103.354V113.365L116.027 119.074ZM115.897 109.134V118.844L106.277 113.284V103.574L115.897 109.134Z" fill="#251E66"/>
<path d="M128.187 55.5544L145.207 48.3544C145.257 48.3344 145.287 48.2744 145.257 48.2244C145.177 48.0444 146.007 47.6444 128.147 55.3544C128.037 55.4044 128.077 55.5544 128.187 55.5544Z" fill="#251E66"/>
<path d="M145.167 65.3542C145.267 65.3042 145.287 65.2442 145.257 65.1942L128.277 38.3942C128.207 38.2842 128.027 38.3942 128.107 38.5042C145.217 65.5942 144.987 65.3442 145.177 65.3442L145.167 65.3542Z" fill="#251E66"/>
<path d="M128.187 76.4147L145.207 69.2147C145.257 69.1947 145.287 69.1347 145.257 69.0847C145.177 68.9047 146.007 68.5047 128.147 76.2147C128.037 76.2647 128.077 76.4147 128.187 76.4147Z" fill="#251E66"/>
<path d="M145.167 86.2243C145.267 86.1743 145.287 86.1143 145.257 86.0643L128.277 59.2643C128.207 59.1543 128.027 59.2643 128.107 59.3743C145.217 86.4643 144.987 86.2143 145.177 86.2143L145.167 86.2243Z" fill="#251E66"/>
<path d="M135.197 103.015L144.417 98.445C144.537 98.385 144.447 98.205 144.327 98.265L135.147 102.825C135.047 102.875 135.087 103.015 135.197 103.015Z" fill="#251E66"/>
<path d="M144.467 108.155L135.287 92.9948C135.217 92.8848 135.037 92.9948 135.107 93.1048L144.287 108.265C144.357 108.375 144.517 108.255 144.467 108.155Z" fill="#251E66"/>
<path d="M135.197 116.595L144.417 112.025C144.537 111.965 144.457 111.785 144.327 111.845L135.147 116.405C135.047 116.455 135.087 116.595 135.197 116.595Z" fill="#251E66"/>
<path d="M120.997 94.815L130.217 90.235C130.337 90.175 130.247 89.995 130.127 90.055L120.947 94.615C120.847 94.665 120.887 94.805 120.997 94.805V94.815Z" fill="#251E66"/>
<path d="M144.467 121.735L135.287 106.575C135.217 106.465 135.047 106.575 135.107 106.685L144.287 121.845C144.357 121.955 144.517 121.835 144.467 121.735Z" fill="#251E66"/>
<path d="M130.257 99.9546L121.077 84.7946C121.007 84.6846 120.827 84.7946 120.897 84.9046L130.077 100.065C130.147 100.185 130.307 100.045 130.257 99.9546Z" fill="#251E66"/>
<path d="M135.197 130.174L144.417 125.594C144.537 125.534 144.457 125.354 144.327 125.414L135.147 129.984C135.047 130.034 135.087 130.174 135.197 130.174Z" fill="#251E66"/>
<path d="M120.997 108.395L130.217 103.825C130.337 103.765 130.257 103.585 130.127 103.645L120.947 108.205C120.847 108.255 120.887 108.395 120.997 108.395Z" fill="#251E66"/>
<path d="M106.787 86.6149L116.007 82.0348C116.127 81.9748 116.037 81.7948 115.917 81.8548L106.737 86.4148C106.637 86.4648 106.677 86.6048 106.787 86.6048V86.6149Z" fill="#251E66"/>
<path d="M144.467 135.315L135.287 120.155C135.207 120.045 135.037 120.155 135.107 120.265L144.287 135.425C144.357 135.535 144.517 135.415 144.467 135.315Z" fill="#251E66"/>
<path d="M130.257 113.535L121.077 98.3747C121.007 98.2647 120.837 98.3747 120.897 98.4847L130.077 113.645C130.147 113.765 130.307 113.625 130.257 113.535Z" fill="#251E66"/>
<path d="M116.057 91.7544L106.877 76.5944C106.807 76.4844 106.637 76.5944 106.697 76.7044L115.877 91.8644C115.947 91.9844 116.107 91.8444 116.057 91.7544Z" fill="#251E66"/>
<path d="M120.997 121.975L130.217 117.405C130.337 117.345 130.247 117.165 130.127 117.225L120.947 121.785C120.847 121.835 120.887 121.975 120.997 121.975Z" fill="#251E66"/>
<path d="M106.787 100.185L116.007 95.615C116.127 95.555 116.037 95.3749 115.917 95.4349L106.737 99.995C106.637 100.045 106.677 100.185 106.787 100.185Z" fill="#251E66"/>
<path d="M130.257 127.115L121.077 111.955C120.997 111.845 120.837 111.955 120.897 112.065L130.077 127.225C130.147 127.345 130.307 127.205 130.257 127.115Z" fill="#251E66"/>
<path d="M116.057 105.334L106.877 90.1745C106.807 90.0645 106.637 90.1745 106.697 90.2845L115.877 105.444C115.947 105.564 116.107 105.424 116.057 105.334Z" fill="#251E66"/>
<path d="M106.787 113.765L116.007 109.195C116.127 109.135 116.037 108.955 115.917 109.015L106.737 113.575C106.637 113.625 106.677 113.765 106.787 113.765Z" fill="#251E66"/>
<path d="M116.057 118.915L106.877 103.755C106.807 103.645 106.637 103.755 106.697 103.865L115.877 119.025C115.947 119.135 116.107 119.015 116.057 118.915Z" fill="#251E66"/>
<path d="M36.2201 156.215C36.4064 156.215 41.3668 156.676 45.1998 155.499C49.1015 154.303 55.7775 156.931 52.4346 159.95C49.0917 162.969 43.4549 165.038 39.6022 165.43C35.7495 165.832 33.3576 167.254 32.4851 167.655C31.6126 168.057 28.5148 169.087 24.6915 167.655C20.878 166.224 25.4071 157.725 25.4071 157.725L36.2201 156.215Z" fill="#221C3A"/>
<path d="M40.2099 72.6749C40.2099 72.6749 34.0731 82.7075 34.7103 88.9365C35.3475 95.1655 31.985 116.324 31.0439 119.751C30.1028 123.178 24.3777 131.52 25.4953 141.203C26.603 150.887 24.2208 157.29 24.2208 157.29C24.2208 157.29 22.9268 161.461 31.0439 160.12C39.161 158.779 39.161 156.546 39.161 156.546C39.161 156.546 39.6413 141.947 44.2489 130.325C48.8564 118.703 48.7779 115.13 49.6896 110.067C50.6013 105.005 55.052 78.1873 55.052 78.1873C55.052 78.1873 42.5137 68.3477 40.2001 72.6749H40.2099Z" fill="#464594"/>
<path d="M47.533 175.021C47.533 175.021 44.4646 183.344 45.8861 185.04C47.3173 186.736 56.4344 186.255 58.0225 186.736C59.6106 187.216 68.9335 189.275 73.5508 186.736C78.1583 184.197 76.9427 181.109 75.5114 180.716C74.0802 180.324 62.2281 176.403 60.4831 174.129C58.7381 171.854 50.5034 169.521 47.533 175.031V175.021Z" fill="#221C3A"/>
<path d="M65.9533 80.5668C65.9533 80.5668 66.8552 103.517 66.7572 114.615C66.6592 125.704 60.7968 166.524 61.2674 171.595C61.7379 176.657 60.7576 180.084 53.5424 179.79C46.3175 179.496 47.435 177.254 46.641 169.362C45.8469 161.47 44.2588 146.716 44.896 141.8C45.5332 136.885 47.6017 130.188 47.6017 130.188L42.6707 100.678C42.6707 100.678 38.3768 88.4587 42.6707 80.5668L46.9645 72.6748L65.9631 80.5668H65.9533Z" fill="#464594"/>
<path d="M78.1381 57.5236C78.1381 57.5236 59.3944 64.3466 55.4044 62.1899C51.4047 60.0332 49.748 56.161 51.1107 55.1316C52.4733 54.1023 73.0797 48.0243 78.1479 57.5236H78.1381Z" fill="#FCBE9F"/>
<path d="M97.4119 53.74H96.0198L71.4235 39.5254C71.0706 39.3195 70.4628 39.3489 70.0609 39.5842L55.2286 48.1424H53.9248V49.0541C53.8953 49.211 53.964 49.3776 54.16 49.4855L79.9131 64.3766C80.266 64.5825 81.4032 64.8373 81.8051 64.602L97.0786 55.191C97.3432 55.0341 97.4511 54.8282 97.3923 54.6517L97.4119 53.74Z" fill="#DDCDCB"/>
<path d="M79.9226 63.3471L54.1696 48.4561C53.8166 48.2502 53.8656 47.9071 54.2676 47.6718L70.0704 38.5548C70.4723 38.3195 71.0801 38.2999 71.433 38.496L97.1861 53.3871C97.539 53.593 97.49 53.9361 97.0881 54.1713L81.8146 63.5825C81.4127 63.8178 80.2755 63.553 79.9226 63.357V63.3471Z" fill="#EADCDB"/>
<path d="M70.0609 40.4075L71.0216 39.8488C71.2961 39.6919 71.7078 39.6723 71.9431 39.8096L73.0508 40.4467C73.2861 40.584 73.2567 40.8193 72.9822 40.9761L72.0215 41.5349C71.747 41.6917 71.3353 41.7114 71.1 41.5741L69.9922 40.9369C69.757 40.7997 69.7864 40.5644 70.0609 40.4075Z" fill="#DDCDCB"/>
<path d="M72.2667 41.682L73.2274 41.1232C73.5019 40.9663 73.9136 40.9467 74.1489 41.084L75.2567 41.7212C75.4919 41.8584 75.4625 42.0937 75.1881 42.2506L74.2273 42.8094C73.9528 42.9662 73.5411 42.9858 73.3058 42.8485L72.1981 42.2113C71.9628 42.0741 71.9922 41.8388 72.2667 41.682Z" fill="#DDCDCB"/>
<path d="M74.482 42.9671L75.4427 42.4083C75.7172 42.2515 76.129 42.2319 76.3642 42.3691L77.472 43.0063C77.7073 43.1436 77.6779 43.3789 77.4034 43.5357L76.4427 44.0945C76.1682 44.2514 75.7564 44.2709 75.5212 44.1337L74.4134 43.4965C74.1781 43.3592 74.2075 43.124 74.482 42.9671Z" fill="#DDCDCB"/>
<path d="M76.6878 44.2406L77.6485 43.6818C77.923 43.5249 78.3348 43.5053 78.57 43.6426L79.6778 44.2798C79.9131 44.417 79.8837 44.6523 79.6092 44.8092L78.6485 45.3679C78.374 45.5248 77.9623 45.5444 77.727 45.4071L76.6192 44.77C76.3839 44.6327 76.4133 44.3974 76.6878 44.2406Z" fill="#DDCDCB"/>
<path d="M78.8934 45.515L79.8541 44.9562C80.1286 44.7994 80.5403 44.7797 80.7756 44.917L81.8834 45.5542C82.1187 45.6914 82.0892 45.9267 81.8147 46.0835L80.8541 46.6423C80.5796 46.7992 80.1678 46.8188 79.9325 46.6815L78.8248 46.0444C78.5895 45.9071 78.6189 45.6719 78.8934 45.515Z" fill="#DDCDCB"/>
<path d="M81.0992 46.7894L82.0599 46.2306C82.3344 46.0738 82.7461 46.0541 82.9814 46.1914L84.0892 46.8286C84.3245 46.9659 84.295 47.2011 84.0206 47.358L83.0599 47.9168C82.7854 48.0736 82.3736 48.0932 82.1384 47.956L81.0306 47.3188C80.7953 47.1815 80.8247 46.9463 81.0992 46.7894Z" fill="#DDCDCB"/>
<path d="M83.315 48.0638L84.2757 47.505C84.5502 47.3482 84.962 47.3286 85.1972 47.4658L86.305 48.103C86.5403 48.2402 86.5109 48.4755 86.2364 48.6324L85.2757 49.1912C85.0012 49.348 84.5894 49.3676 84.3541 49.2304L83.2464 48.5931C83.0111 48.4559 83.0405 48.2206 83.315 48.0638Z" fill="#DDCDCB"/>
<path d="M85.5206 49.3392L86.4813 48.7804C86.7558 48.6235 87.1675 48.604 87.4028 48.7412L88.5106 49.3784C88.7459 49.5156 88.7164 49.7509 88.4419 49.9078L87.4812 50.4666C87.2067 50.6234 86.795 50.643 86.5597 50.5058L85.452 49.8685C85.2167 49.7313 85.2461 49.496 85.5206 49.3392Z" fill="#DDCDCB"/>
<path d="M87.7264 50.6126L88.6871 50.0538C88.9616 49.897 89.3733 49.8774 89.6086 50.0146L90.7164 50.6519C90.9517 50.7891 90.9222 51.0244 90.6478 51.1812L89.687 51.74C89.4125 51.8969 89.0008 51.9165 88.7655 51.7792L87.6578 51.142C87.4225 51.0048 87.4519 50.7695 87.7264 50.6126Z" fill="#DDCDCB"/>
<path d="M89.9322 51.8871L90.8929 51.3283C91.1674 51.1714 91.5791 51.1518 91.8144 51.289L92.9222 51.9263C93.1575 52.0635 93.1281 52.2988 92.8536 52.4556L91.8928 53.0144C91.6183 53.1713 91.2066 53.1908 90.9713 53.0536L89.8636 52.4164C89.6283 52.2792 89.6577 52.0439 89.9322 51.8871Z" fill="#DDCDCB"/>
<path d="M92.1475 53.1615L93.1083 52.6027C93.3828 52.4458 93.7945 52.4262 94.0298 52.5634L95.1375 53.2007C95.3728 53.3379 95.3434 53.5732 95.0689 53.73L94.1082 54.2888C93.8337 54.4457 93.422 54.4653 93.1867 54.3281L92.0789 53.6908C91.8436 53.5536 91.8731 53.3183 92.1475 53.1615Z" fill="#DDCDCB"/>
<path d="M67.8159 41.7113L68.7766 41.1525C69.0511 40.9956 69.4629 40.976 69.6982 41.1132L71.4627 42.1328C71.698 42.2701 71.6686 42.5053 71.3941 42.6622L70.4334 43.221C70.1589 43.3778 69.7472 43.3974 69.5119 43.2602L67.7473 42.2406C67.512 42.1034 67.5414 41.8681 67.8159 41.7113Z" fill="#DDCDCB"/>
<path d="M70.4923 43.2513L71.453 42.6925C71.7275 42.5357 72.1392 42.516 72.3745 42.6533L73.4822 43.2905C73.7175 43.4278 73.6881 43.663 73.4136 43.8199L72.4529 44.3787C72.1784 44.5355 71.7765 44.5551 71.5412 44.4179L70.4335 43.7807C70.1982 43.6434 70.2276 43.4081 70.5021 43.2513H70.4923Z" fill="#DDCDCB"/>
<path d="M72.443 44.387L73.4037 43.8282C73.6782 43.6714 74.0801 43.6518 74.3154 43.7891L75.4232 44.4262C75.6585 44.5635 75.629 44.7988 75.3545 44.9556L74.3938 45.5144C74.1194 45.6713 73.7174 45.6909 73.4821 45.5536L72.3744 44.9164C72.1391 44.7791 72.1685 44.5439 72.443 44.387Z" fill="#DDCDCB"/>
<path d="M74.4037 45.515L75.3644 44.9562C75.6389 44.7994 76.0408 44.7797 76.2761 44.917L77.3839 45.5542C77.6191 45.6914 77.5897 45.9267 77.3152 46.0835L76.3545 46.6423C76.08 46.7992 75.6781 46.8188 75.4428 46.6815L74.335 46.0444C74.0998 45.9071 74.1292 45.6719 74.4037 45.515Z" fill="#DDCDCB"/>
<path d="M76.3544 46.6429L77.3151 46.0841C77.5896 45.9273 77.9915 45.9077 78.2268 46.0449L79.3346 46.6821C79.5698 46.8193 79.5404 47.0546 79.2659 47.2115L78.3052 47.7703C78.0307 47.9271 77.6288 47.9467 77.3935 47.8095L76.2858 47.1722C76.0505 47.035 76.0799 46.7997 76.3544 46.6429Z" fill="#DDCDCB"/>
<path d="M78.3053 47.7699L79.266 47.2111C79.5405 47.0542 79.9424 47.0346 80.1777 47.1718L81.2855 47.8091C81.5208 47.9463 81.4913 48.1816 81.2168 48.3384L80.2561 48.8972C79.9816 49.0541 79.5797 49.0737 79.3444 48.9365L78.2367 48.2992C78.0014 48.162 78.0308 47.9267 78.3053 47.7699Z" fill="#DDCDCB"/>
<path d="M80.256 48.888L81.2167 48.3293C81.4912 48.1724 81.8931 48.1528 82.1284 48.29L83.2362 48.9272C83.4714 49.0645 83.442 49.2997 83.1675 49.4566L82.2068 50.0154C81.9323 50.1722 81.5304 50.1918 81.2951 50.0546L80.1873 49.4174C79.9521 49.2802 79.9815 49.0448 80.256 48.888Z" fill="#DDCDCB"/>
<path d="M82.2071 50.015L83.1679 49.4562C83.4424 49.2993 83.8443 49.2797 84.0796 49.417L85.1873 50.0542C85.4226 50.1914 85.3932 50.4267 85.1187 50.5836L84.158 51.1424C83.8835 51.2992 83.4816 51.3188 83.2463 51.1816L82.1385 50.5443C81.9033 50.4071 81.9327 50.1718 82.2071 50.015Z" fill="#DDCDCB"/>
<path d="M84.1576 51.1429L85.1183 50.5841C85.3928 50.4273 85.7947 50.4076 86.03 50.5449L87.1378 51.1821C87.3731 51.3194 87.3436 51.5546 87.0691 51.7115L86.1084 52.2703C85.8339 52.4271 85.432 52.4468 85.1967 52.3095L84.089 51.6723C83.8537 51.535 83.8831 51.2998 84.1576 51.1429Z" fill="#DDCDCB"/>
<path d="M86.1088 52.2689L87.0695 51.7101C87.344 51.5532 87.7459 51.5336 87.9812 51.6709L89.0889 52.3081C89.3242 52.4454 89.2948 52.6806 89.0203 52.8375L88.0596 53.3963C87.7851 53.5531 87.3832 53.5727 87.1479 53.4355L86.0401 52.7983C85.8048 52.661 85.8343 52.4257 86.1088 52.2689Z" fill="#DDCDCB"/>
<path d="M88.0694 53.3968L89.0302 52.838C89.3047 52.6812 89.7066 52.6616 89.9419 52.7988L91.0496 53.436C91.2849 53.5732 91.2555 53.8086 90.981 53.9654L90.0203 54.5241C89.7458 54.681 89.3341 54.7006 89.0988 54.5634L87.991 53.9262C87.7558 53.7889 87.7851 53.5537 88.0596 53.3968H88.0694Z" fill="#DDCDCB"/>
<path d="M68.6785 44.8L69.6393 44.2413C69.9138 44.0844 70.3255 44.0746 70.5608 44.2021L71.6685 44.8393C71.9038 44.9765 71.8744 45.2118 71.5999 45.3687L70.6392 45.9274C70.3647 46.0843 69.953 46.1039 69.7177 45.9666L68.6099 45.3295C68.3746 45.1922 68.3942 44.9569 68.6687 44.8H68.6785Z" fill="#DDCDCB"/>
<path d="M70.6197 45.9271L71.5804 45.3683C71.8549 45.2114 72.2666 45.1918 72.5019 45.3291L73.6097 45.9663C73.845 46.1035 73.8156 46.3388 73.5411 46.4957L72.5804 47.0544C72.3059 47.2113 71.8941 47.2309 71.6589 47.0937L70.5511 46.4564C70.3158 46.3192 70.3452 46.0839 70.6197 45.9271Z" fill="#DDCDCB"/>
<path d="M72.5606 47.0443L73.5213 46.4855C73.7958 46.3287 74.2076 46.309 74.4428 46.4463L75.5506 47.0835C75.7859 47.2207 75.7565 47.456 75.482 47.6128L74.5213 48.1716C74.2468 48.3285 73.835 48.3481 73.5998 48.2109L72.492 47.5737C72.2567 47.4364 72.2861 47.2012 72.5606 47.0443Z" fill="#DDCDCB"/>
<path d="M74.492 48.1624L75.4527 47.6036C75.7272 47.4468 76.139 47.4272 76.3742 47.5644L77.482 48.2017C77.7173 48.3389 77.6879 48.5742 77.4134 48.731L76.4527 49.2898C76.1782 49.4467 75.7664 49.4663 75.5311 49.329L74.4234 48.6918C74.1881 48.5546 74.2175 48.3193 74.492 48.1624Z" fill="#DDCDCB"/>
<path d="M76.4332 49.2796L77.3939 48.7208C77.6684 48.564 78.0801 48.5444 78.3154 48.6816L79.4232 49.3188C79.6584 49.4561 79.6291 49.6914 79.3546 49.8482L78.3938 50.407C78.1193 50.5639 77.7076 50.5834 77.4723 50.4462L76.3646 49.809C76.1293 49.6717 76.1587 49.4365 76.4332 49.2796Z" fill="#DDCDCB"/>
<path d="M78.3741 50.3978L79.3348 49.839C79.6093 49.6821 80.021 49.6626 80.2563 49.7998L81.3641 50.437C81.5994 50.5742 81.57 50.8095 81.2955 50.9664L80.3348 51.5251C80.0603 51.682 79.6485 51.7016 79.4133 51.5644L78.3055 50.9271C78.0702 50.7899 78.0996 50.5546 78.3741 50.3978Z" fill="#DDCDCB"/>
<path d="M80.305 51.515L81.2657 50.9562C81.5402 50.7994 81.952 50.7797 82.1872 50.917L83.295 51.5542C83.5303 51.6914 83.5009 51.9267 83.2264 52.0835L82.2657 52.6423C81.9912 52.7992 81.5794 52.8188 81.3442 52.6816L80.2364 52.0444C80.0011 51.9071 80.0305 51.6719 80.305 51.515Z" fill="#DDCDCB"/>
<path d="M82.2462 52.6322L83.2069 52.0734C83.4814 51.9165 83.8931 51.8969 84.1284 52.0342L85.2362 52.6714C85.4714 52.8087 85.442 53.0439 85.1675 53.2008L84.2068 53.7596C83.9323 53.9164 83.5206 53.936 83.2853 53.7987L82.1775 53.1616C81.9423 53.0243 81.9717 52.789 82.2462 52.6322Z" fill="#DDCDCB"/>
<path d="M67.4039 46.6624L68.3646 46.1036C68.6391 45.9468 69.0508 45.9272 69.2861 46.0644L70.3939 46.7016C70.6292 46.8389 70.5997 47.0742 70.3252 47.231L69.3645 47.7898C69.0901 47.9466 68.6783 47.9663 68.443 47.829L67.3353 47.1918C67.1 47.0545 67.1294 46.8193 67.4039 46.6624Z" fill="#DDCDCB"/>
<path d="M69.3453 47.7797L70.306 47.2209C70.5805 47.064 70.9922 47.0444 71.2275 47.1816L72.3353 47.8188C72.5706 47.9561 72.5411 48.1913 72.2667 48.3482L71.3059 48.907C71.0314 49.0638 70.6197 49.0835 70.3844 48.9462L69.2767 48.309C69.0414 48.1718 69.0708 47.9365 69.3453 47.7797Z" fill="#DDCDCB"/>
<path d="M71.2764 48.8978L72.2372 48.339C72.5116 48.1821 72.9234 48.1626 73.1587 48.2998L74.2664 48.937C74.5017 49.0743 74.4723 49.3095 74.1978 49.4664L73.2371 50.0252C72.9626 50.182 72.5508 50.2016 72.3156 50.0644L71.2078 49.4272C70.9726 49.2899 71.0019 49.0546 71.2764 48.8978Z" fill="#DDCDCB"/>
<path d="M61.0418 45.5843L62.0025 45.0255C62.277 44.8687 62.6888 44.8491 62.924 44.9863L64.0318 45.6235C64.2671 45.7608 64.2377 45.996 63.9632 46.1529L63.0025 46.7117C62.728 46.8685 62.3162 46.8881 62.081 46.7509L60.9732 46.1137C60.7379 45.9764 60.7673 45.7411 61.0418 45.5843Z" fill="#DDCDCB"/>
<path d="M62.9732 46.7015L63.9339 46.1427C64.2084 45.9858 64.6202 45.9663 64.8554 46.1035L65.9632 46.7407C66.1985 46.878 66.1691 47.1132 65.8946 47.2701L64.9339 47.8289C64.6594 47.9857 64.2476 48.0053 64.0123 47.8681L62.9046 47.2309C62.6693 47.0937 62.6987 46.8583 62.9732 46.7015Z" fill="#DDCDCB"/>
<path d="M64.9144 47.8187L65.8751 47.2599C66.1496 47.103 66.5613 47.0835 66.7966 47.2207L67.9044 47.8579C68.1396 47.9951 68.1103 48.2304 67.8358 48.3873L66.875 48.9461C66.6005 49.1029 66.1888 49.1225 65.9535 48.9853L64.8458 48.348C64.6105 48.2108 64.6399 47.9755 64.9144 47.8187Z" fill="#DDCDCB"/>
<path d="M79.2855 56.1117L80.2462 55.5529C80.5207 55.396 80.9324 55.3764 81.1677 55.5136L82.2755 56.1509C82.5107 56.2881 82.4813 56.5234 82.2068 56.6802L81.2461 57.239C80.9717 57.3959 80.5599 57.4155 80.3246 57.2783L79.2169 56.641C78.9816 56.5038 79.011 56.2685 79.2855 56.1117Z" fill="#DDCDCB"/>
<path d="M81.2169 57.2298L82.1776 56.671C82.4521 56.5142 82.8638 56.4946 83.0991 56.6318L84.2069 57.2691C84.4421 57.4063 84.4127 57.6416 84.1382 57.7984L83.1775 58.3572C82.903 58.5141 82.4913 58.5336 82.256 58.3964L81.1483 57.7592C80.913 57.622 80.9424 57.3867 81.2169 57.2298Z" fill="#DDCDCB"/>
<path d="M83.158 58.348L84.1188 57.7892C84.3932 57.6323 84.805 57.6127 85.0403 57.75L86.148 58.3872C86.3833 58.5244 86.3539 58.7597 86.0794 58.9166L85.1187 59.4754C84.8442 59.6322 84.4325 59.6518 84.1972 59.5146L83.0894 58.8773C82.8541 58.7401 82.8835 58.5048 83.158 58.348Z" fill="#DDCDCB"/>
<path d="M73.2174 50.015L74.1781 49.4562C74.4526 49.2993 74.8643 49.2797 75.0996 49.417L76.2073 50.0542C76.4426 50.1914 76.4132 50.4267 76.1387 50.5836L75.178 51.1424C74.9035 51.2992 74.4918 51.3188 74.2565 51.1816L73.1487 50.5443C72.9135 50.4071 72.9429 50.1718 73.2174 50.015Z" fill="#DDCDCB"/>
<path d="M75.1583 51.1331L76.119 50.5743C76.3935 50.4175 76.8052 50.3979 77.0405 50.5351L78.1483 51.1723C78.3835 51.3096 78.3541 51.5449 78.0796 51.7017L77.1189 52.2605C76.8445 52.4173 76.4327 52.437 76.1974 52.2997L75.0897 51.6625C74.8544 51.5252 74.8838 51.29 75.1583 51.1331Z" fill="#DDCDCB"/>
<path d="M77.0899 52.2504L78.0506 51.6916C78.3251 51.5347 78.7369 51.5151 78.9721 51.6523L80.0799 52.2895C80.3152 52.4268 80.2858 52.662 80.0113 52.8189L79.0506 53.3777C78.7761 53.5345 78.3644 53.5542 78.1291 53.4169L77.0213 52.7797C76.786 52.6425 76.8154 52.4072 77.0899 52.2504Z" fill="#DDCDCB"/>
<path d="M79.0308 53.3782L79.9916 52.8195C80.266 52.6626 80.6778 52.643 80.9131 52.7803L82.0208 53.4175C82.2561 53.5547 82.2267 53.79 81.9522 53.9469L80.9915 54.5056C80.717 54.6625 80.3052 54.6821 80.07 54.5448L78.9622 53.9077C78.7269 53.7704 78.7563 53.5351 79.0308 53.3782Z" fill="#DDCDCB"/>
<path d="M80.9718 54.4954L81.9325 53.9366C82.207 53.7798 82.6187 53.7602 82.854 53.8975L83.9617 54.5346C84.197 54.6719 84.1676 54.9072 83.8931 55.064L82.9324 55.6228C82.6579 55.7797 82.2462 55.7993 82.0109 55.662L80.9031 55.0248C80.6679 54.8875 80.6973 54.6523 80.9718 54.4954Z" fill="#DDCDCB"/>
<path d="M84.187 53.7503L85.1477 53.1915C85.4221 53.0347 85.8339 53.0151 86.0692 53.1523L87.1769 53.7895C87.4122 53.9268 87.373 54.1621 87.1083 54.3189L86.1476 54.8777C85.8731 55.0346 85.4712 55.0542 85.2359 54.9169L84.1281 54.2797C83.8929 54.1424 83.9223 53.9072 84.1968 53.7503H84.187Z" fill="#DDCDCB"/>
<path d="M89.9024 54.4564L90.8631 53.8976C91.1376 53.7408 91.5494 53.7211 91.7846 53.8584L92.8924 54.4956C93.1277 54.6328 93.0983 54.8681 92.8238 55.025L91.8631 55.5837C91.5886 55.7406 91.1768 55.7602 90.9415 55.623L89.8338 54.9858C89.5985 54.8485 89.6279 54.6133 89.9024 54.4564Z" fill="#DDCDCB"/>
<path d="M65.571 43.0062L66.5317 42.4474C66.8062 42.2906 67.218 42.2709 67.4532 42.4082L69.708 43.712C69.9432 43.8493 69.9236 44.0845 69.6491 44.2414L68.6884 44.8002C68.414 44.957 68.0022 44.9669 67.7669 44.8394L65.5122 43.5356C65.2769 43.3983 65.3063 43.163 65.5808 43.0062H65.571Z" fill="#DDCDCB"/>
<path d="M83.0303 55.681L83.991 55.1222C84.2655 54.9654 84.6772 54.9457 84.9125 55.083L88.4024 57.0927C88.6377 57.2299 88.6083 57.4652 88.3338 57.622L87.3731 58.1808C87.0986 58.3377 86.6869 58.3573 86.4516 58.22L82.9616 56.2104C82.7264 56.0731 82.7558 55.8379 83.0303 55.681Z" fill="#DDCDCB"/>
<path d="M66.9827 49.0149L67.9435 48.4562C68.2179 48.2994 68.6297 48.2797 68.865 48.417L80.1583 54.9361C80.3935 55.0734 80.3642 55.3086 80.0897 55.4655L79.1289 56.0243C78.8545 56.1811 78.4427 56.2007 78.2074 56.0635L66.9141 49.5444C66.6788 49.4071 66.7082 49.1718 66.9827 49.0149Z" fill="#DDCDCB"/>
<path d="M63.3164 44.2991L64.2771 43.7404C64.5516 43.5835 64.9634 43.5639 65.1986 43.7012L68.169 45.4167C68.4043 45.554 68.3749 45.7892 68.1004 45.9461L67.1397 46.5049C66.8652 46.6617 66.4534 46.6814 66.2182 46.5441L63.2478 44.8286C63.0125 44.6913 63.0419 44.456 63.3164 44.2991Z" fill="#DDCDCB"/>
<path d="M86.1383 54.8871L87.0991 54.3283C87.3735 54.1714 87.7755 54.1518 88.0107 54.289L90.638 55.8086C90.8733 55.9458 90.8439 56.1811 90.5694 56.3379L89.6087 56.8967C89.3342 57.0536 88.9224 57.0732 88.6872 56.9359L86.0599 55.4164C85.8246 55.2792 85.8638 55.0439 86.1285 54.8871H86.1383Z" fill="#DDCDCB"/>
<path d="M70.6782 56.6908L66.6589 54.3674L69.8449 52.5244L73.874 54.8478L70.6782 56.6908Z" fill="#FFF8F8"/>
<path d="M66.1684 54.093L65.041 53.446C64.7077 53.2597 64.7469 52.9264 65.1293 52.7009L66.9429 51.652C67.3252 51.4363 67.9036 51.4069 68.2369 51.603L69.3643 52.25L66.1684 54.093Z" fill="#FFF8F8"/>
<path d="M71.1682 56.9758L72.2955 57.6228C72.6288 57.8091 73.2072 57.7895 73.5896 57.5738L75.4032 56.5249C75.7855 56.3092 75.8247 55.9759 75.4914 55.7798L74.364 55.1328L71.1682 56.9758Z" fill="#FFF8F8"/>
<path d="M97.4018 53.3967L71.7468 37.9174C71.5017 37.7802 71.3056 37.4272 71.3056 37.1527L70.7567 18.6344C70.7567 18.3501 71.5017 17.9874 71.7468 18.1247L97.794 33.202C98.0391 33.3393 98.2351 33.6922 98.2351 33.9667V52.7399C98.2351 53.0242 97.6371 53.5437 97.392 53.3967H97.4018Z" fill="#FFF8F8"/>
<path d="M97.2449 53.3385L71.1977 38.2611C70.9526 38.1239 70.7566 37.771 70.7566 37.4965V18.7233C70.7566 18.439 70.9526 18.3312 71.1977 18.4684L97.2449 33.5458C97.49 33.683 97.686 34.0359 97.686 34.3104V53.0836C97.686 53.3679 97.49 53.4758 97.2449 53.3385Z" fill="#DDCDCB"/>
<path d="M71.5313 36.8486V20.2616C71.5313 19.8695 71.8058 19.7126 72.1489 19.9086L96.2845 33.888C96.6276 34.0841 96.9021 34.5645 96.9021 34.9566V51.5437C96.9021 51.9358 96.6276 52.0926 96.2845 51.8966L72.1489 37.9172C71.8058 37.7211 71.5313 37.2408 71.5313 36.8486Z" fill="#FBF9FA"/>
<path d="M71.2172 41.3689L70.129 40.7415C69.9526 40.6435 69.9722 40.467 70.178 40.3494L71.1584 39.7808C71.3642 39.6632 71.6681 39.6534 71.8348 39.7514L72.923 40.3788C73.0994 40.4768 73.0798 40.6533 72.8739 40.7709L71.8936 41.3395C71.6877 41.4572 71.3838 41.467 71.2172 41.3689Z" fill="#FFF8F8"/>
<path d="M73.423 42.6433L72.3348 42.016C72.1584 41.9179 72.178 41.7415 72.3838 41.6238L73.3642 41.0552C73.57 40.9376 73.8739 40.9278 74.0406 41.0258L75.1288 41.6533C75.3052 41.7513 75.2856 41.9277 75.0797 42.0454L74.0994 42.614C73.8935 42.7316 73.5896 42.7414 73.423 42.6433Z" fill="#FFF8F8"/>
<path d="M75.6286 43.9178L74.5404 43.2904C74.364 43.1923 74.3835 43.0158 74.5894 42.8982L75.5697 42.3297C75.7756 42.212 76.0795 42.2022 76.2462 42.3002L77.3343 42.9276C77.5108 43.0257 77.4912 43.2021 77.2853 43.3197L76.305 43.8883C76.0991 44.006 75.7952 44.0158 75.6286 43.9178Z" fill="#FFF8F8"/>
<path d="M77.8344 45.1922L76.7462 44.5648C76.5698 44.4667 76.5894 44.2903 76.7952 44.1726L77.7755 43.6041C77.9814 43.4864 78.2853 43.4766 78.452 43.5746L79.5401 44.2021C79.7166 44.3001 79.697 44.4766 79.4911 44.5942L78.5108 45.1628C78.3049 45.2804 78.001 45.2902 77.8344 45.1922Z" fill="#FFF8F8"/>
<path d="M80.0502 46.4666L78.962 45.8392C78.7856 45.7412 78.8052 45.5647 79.0111 45.4471L79.9914 44.8785C80.1973 44.7609 80.5012 44.751 80.6678 44.8491L81.756 45.4765C81.9324 45.5745 81.9128 45.751 81.7069 45.8686L80.7266 46.4372C80.5208 46.5548 80.2169 46.5646 80.0502 46.4666Z" fill="#FFF8F8"/>
<path d="M82.256 47.741L81.1678 47.1136C80.9914 47.0155 81.011 46.8391 81.2169 46.7215L82.1972 46.1529C82.4031 46.0352 82.707 46.0255 82.8736 46.1235L83.9618 46.7509C84.1382 46.8489 84.1186 47.0254 83.9128 47.143L82.9324 47.7116C82.7266 47.8293 82.4227 47.839 82.256 47.741Z" fill="#FFF8F8"/>
<path d="M84.4616 49.0154L83.3734 48.388C83.1969 48.29 83.2166 48.1135 83.4224 47.9959L84.4028 47.4273C84.6086 47.3096 84.9125 47.2999 85.0792 47.3979L86.1673 48.0253C86.3438 48.1234 86.3242 48.2998 86.1183 48.4174L85.138 48.986C84.9321 49.1037 84.6282 49.1134 84.4616 49.0154Z" fill="#FFF8F8"/>
<path d="M86.6674 50.2996L85.5792 49.6722C85.4028 49.5742 85.4224 49.3977 85.6282 49.2801L86.6086 48.7115C86.8144 48.5938 87.1183 48.5841 87.285 48.6821L88.3731 49.3095C88.5496 49.4075 88.53 49.584 88.3241 49.7016L87.3438 50.2702C87.1379 50.3878 86.834 50.3976 86.6674 50.2996Z" fill="#FFF8F8"/>
<path d="M88.8827 51.574L87.7946 50.9466C87.6181 50.8486 87.6377 50.6721 87.8436 50.5545L88.8239 49.9859C89.0298 49.8683 89.3337 49.8584 89.5003 49.9565L90.5885 50.5839C90.7649 50.6819 90.7453 50.8584 90.5395 50.976L89.5591 51.5446C89.3533 51.6622 89.0494 51.6721 88.8827 51.574Z" fill="#FFF8F8"/>
<path d="M91.0883 52.8484L90.0001 52.221C89.8237 52.123 89.8433 51.9465 90.0491 51.8289L91.0295 51.2603C91.2353 51.1427 91.5392 51.1329 91.7059 51.2309L92.7941 51.8583C92.9705 51.9563 92.9509 52.1328 92.745 52.2505L91.7647 52.819C91.5588 52.9366 91.255 52.9465 91.0883 52.8484Z" fill="#FFF8F8"/>
<path d="M93.2941 54.1229L92.2059 53.4954C92.0295 53.3974 92.0491 53.221 92.2549 53.1033L93.2353 52.5347C93.4411 52.4171 93.745 52.4073 93.9117 52.5053L94.9999 53.1327C95.1763 53.2308 95.1567 53.4072 94.9508 53.5249L93.9705 54.0935C93.7646 54.2111 93.4608 54.2209 93.2941 54.1229Z" fill="#FFF8F8"/>
<path d="M69.6195 43.0452L67.8745 42.0355C67.6981 41.9374 67.7177 41.761 67.9236 41.6434L68.9039 41.0748C69.1098 40.9571 69.4137 40.9473 69.5803 41.0453L71.3253 42.0551C71.5018 42.1531 71.4821 42.3296 71.2763 42.4473L70.2959 43.0158C70.0901 43.1334 69.7862 43.1433 69.6195 43.0452Z" fill="#FFF8F8"/>
<path d="M71.6391 44.2117L70.5509 43.5843C70.3744 43.4863 70.394 43.3098 70.5999 43.1922L71.5802 42.6236C71.7861 42.506 72.09 42.4961 72.2567 42.5942L73.3448 43.2216C73.5213 43.3196 73.5017 43.4961 73.2958 43.6137L72.3155 44.1823C72.1096 44.2999 71.8057 44.3098 71.6391 44.2117Z" fill="#FFF8F8"/>
<path d="M73.5895 45.3386L72.5013 44.7113C72.3249 44.6133 72.3445 44.4368 72.5504 44.3191L73.5307 43.7505C73.7366 43.6329 74.0405 43.6231 74.2071 43.7212L75.2953 44.3486C75.4717 44.4466 75.4521 44.623 75.2463 44.7407L74.2659 45.3093C74.0601 45.4269 73.7562 45.4367 73.5895 45.3386Z" fill="#FFF8F8"/>
<path d="M75.5502 46.4666L74.462 45.8392C74.2856 45.7412 74.3052 45.5647 74.5111 45.4471L75.4914 44.8785C75.6973 44.7609 76.0012 44.751 76.1678 44.8491L77.256 45.4765C77.4324 45.5745 77.4128 45.751 77.2069 45.8686L76.2266 46.4372C76.0208 46.5548 75.7169 46.5646 75.5502 46.4666Z" fill="#FFF8F8"/>
<path d="M77.5014 47.5936L76.4132 46.9661C76.2368 46.8681 76.2564 46.6916 76.4622 46.574L77.4426 46.0054C77.6484 45.8878 77.9523 45.878 78.119 45.976L79.2071 46.6034C79.3836 46.7015 79.364 46.8779 79.1581 46.9955L78.1778 47.5641C77.9719 47.6818 77.668 47.6916 77.5014 47.5936Z" fill="#FFF8F8"/>
<path d="M79.4518 48.7215L78.3637 48.094C78.1872 47.996 78.2068 47.8196 78.4127 47.7019L79.393 47.1333C79.5988 47.0157 79.9027 47.0059 80.0694 47.104L81.1576 47.7313C81.334 47.8294 81.3144 48.0058 81.1085 48.1235L80.1282 48.6921C79.9224 48.8097 79.6185 48.8195 79.4518 48.7215Z" fill="#FFF8F8"/>
<path d="M81.403 49.8494L80.3148 49.222C80.1384 49.124 80.158 48.9475 80.3638 48.8298L81.3442 48.2613C81.55 48.1437 81.8539 48.1338 82.0206 48.2319L83.1087 48.8593C83.2852 48.9573 83.2656 49.1338 83.0597 49.2514L82.0794 49.82C81.8735 49.9376 81.5696 49.9475 81.403 49.8494Z" fill="#FFF8F8"/>
<path d="M83.3534 50.9754L82.2653 50.348C82.0888 50.25 82.1084 50.0735 82.3143 49.9559L83.2946 49.3872C83.5005 49.2696 83.8044 49.2598 83.971 49.3579L85.0592 49.9853C85.2356 50.0833 85.216 50.2597 85.0102 50.3774L84.0298 50.946C83.824 51.0636 83.5201 51.0734 83.3534 50.9754Z" fill="#FFF8F8"/>
<path d="M85.3046 52.1033L84.2164 51.4759C84.04 51.3779 84.0596 51.2015 84.2654 51.0838L85.2458 50.5152C85.4516 50.3976 85.7555 50.3877 85.9222 50.4858L87.0104 51.1132C87.1868 51.2112 87.1672 51.3877 86.9613 51.5053L85.981 52.0739C85.7751 52.1915 85.4712 52.2014 85.3046 52.1033Z" fill="#FFF8F8"/>
<path d="M87.2553 53.2303L86.1671 52.6029C85.9906 52.5048 86.0103 52.3283 86.2161 52.2107L87.1965 51.6422C87.4023 51.5245 87.7062 51.5147 87.8729 51.6127L88.961 52.2401C89.1375 52.3382 89.1179 52.5146 88.912 52.6322L87.9317 53.2008C87.7258 53.3185 87.4219 53.3283 87.2553 53.2303Z" fill="#FFF8F8"/>
<path d="M89.2157 54.3582L88.1276 53.7308C87.9511 53.6327 87.9707 53.4563 88.1766 53.3387L89.1569 52.7701C89.3628 52.6524 89.6667 52.6426 89.8333 52.7407L90.9215 53.368C91.0979 53.4661 91.0783 53.6426 90.8725 53.7602L89.8922 54.3288C89.6863 54.4464 89.3824 54.4562 89.2157 54.3582Z" fill="#FFF8F8"/>
<path d="M69.8349 45.7606L68.7467 45.1332C68.5703 45.0351 68.5898 44.8586 68.7957 44.741L69.776 44.1724C69.9819 44.0548 70.2858 44.045 70.4525 44.143L71.5406 44.7704C71.7171 44.8685 71.6975 45.0449 71.4916 45.1625L70.5113 45.7311C70.3054 45.8488 70.0015 45.8586 69.8349 45.7606Z" fill="#FFF8F8"/>
<path d="M71.7758 46.8787L70.6876 46.2513C70.5112 46.1533 70.5308 45.9768 70.7366 45.8592L71.717 45.2906C71.9228 45.1729 72.2267 45.1632 72.3934 45.2612L73.4815 45.8886C73.658 45.9866 73.6384 46.1631 73.4325 46.2807L72.4522 46.8493C72.2463 46.9669 71.9424 46.9767 71.7758 46.8787Z" fill="#FFF8F8"/>
<path d="M73.7072 48.0057L72.619 47.3783C72.4426 47.2802 72.4622 47.1038 72.668 46.9862L73.6484 46.4176C73.8542 46.2999 74.1581 46.2901 74.3248 46.3881L75.4129 47.0155C75.5894 47.1136 75.5698 47.2901 75.3639 47.4077L74.3836 47.9762C74.1777 48.0939 73.8738 48.1037 73.7072 48.0057Z" fill="#FFF8F8"/>
<path d="M75.6484 49.1238L74.5602 48.4964C74.3837 48.3984 74.4033 48.2219 74.6092 48.1043L75.5895 47.5357C75.7954 47.4181 76.0993 47.4082 76.2659 47.5063L77.3541 48.1337C77.5306 48.2317 77.5109 48.4082 77.3051 48.5258L76.3248 49.0944C76.1189 49.212 75.815 49.2219 75.6484 49.1238Z" fill="#FFF8F8"/>
<path d="M77.5892 50.241L76.5011 49.6136C76.3246 49.5156 76.3442 49.3391 76.5501 49.2215L77.5304 48.6529C77.7363 48.5352 78.0402 48.5255 78.2069 48.6235L79.295 49.2509C79.4715 49.3489 79.4519 49.5254 79.246 49.643L78.2657 50.2116C78.0598 50.3293 77.7559 50.339 77.5892 50.241Z" fill="#FFF8F8"/>
<path d="M79.5207 51.3592L78.4325 50.7317C78.2561 50.6337 78.2757 50.4573 78.4815 50.3396L79.4618 49.771C79.6677 49.6534 79.9716 49.6436 80.1383 49.7417L81.2264 50.369C81.4029 50.4671 81.3833 50.6435 81.1774 50.7612L80.1971 51.3298C79.9912 51.4474 79.6873 51.4572 79.5207 51.3592Z" fill="#FFF8F8"/>
<path d="M81.4618 52.4764L80.3736 51.849C80.1972 51.7509 80.2168 51.5745 80.4227 51.4569L81.403 50.8883C81.6089 50.7706 81.9128 50.7608 82.0794 50.8588L83.1676 51.4862C83.344 51.5843 83.3244 51.7608 83.1186 51.8784L82.1382 52.4469C81.9324 52.5646 81.6285 52.5744 81.4618 52.4764Z" fill="#FFF8F8"/>
<path d="M83.3927 53.5936L82.3046 52.9661C82.1281 52.8681 82.1477 52.6916 82.3536 52.574L83.3339 52.0054C83.5398 51.8878 83.8437 51.878 84.0103 51.976L85.0985 52.6034C85.2749 52.7015 85.2553 52.8779 85.0495 52.9955L84.0692 53.5641C83.8633 53.6818 83.5594 53.6916 83.3927 53.5936Z" fill="#FFF8F8"/>
<path d="M68.5607 47.6228L67.4725 46.9954C67.2961 46.8974 67.3157 46.721 67.5216 46.6033L68.5019 46.0347C68.7078 45.9171 69.0117 45.9073 69.1783 46.0053L70.2665 46.6327C70.4429 46.7307 70.4233 46.9072 70.2174 47.0248L69.2371 47.5934C69.0313 47.7111 68.7274 47.7209 68.5607 47.6228Z" fill="#FFF8F8"/>
<path d="M70.4921 48.74L69.4039 48.1126C69.2275 48.0146 69.2471 47.8382 69.453 47.7205L70.4333 47.1519C70.6391 47.0343 70.943 47.0245 71.1097 47.1225L72.1978 47.7499C72.3743 47.8479 72.3547 48.0244 72.1488 48.1421L71.1685 48.7106C70.9627 48.8282 70.6588 48.8381 70.4921 48.74Z" fill="#FFF8F8"/>
<path d="M72.433 49.8582L71.3449 49.2308C71.1684 49.1328 71.188 48.9563 71.3939 48.8386L72.3742 48.2701C72.58 48.1525 72.884 48.1426 73.0506 48.2407L74.1388 48.8681C74.3152 48.9661 74.2956 49.1425 74.0897 49.2602L73.1094 49.8288C72.9036 49.9464 72.5997 49.9562 72.433 49.8582Z" fill="#FFF8F8"/>
<path d="M62.1884 46.535L61.1002 45.9075C60.9238 45.8095 60.9434 45.6331 61.1492 45.5155L62.1296 44.9469C62.3354 44.8292 62.6393 44.8194 62.806 44.9174L63.8941 45.5448C64.0706 45.6429 64.051 45.8193 63.8451 45.937L62.8648 46.5055C62.6589 46.6232 62.355 46.633 62.1884 46.535Z" fill="#FFF8F8"/>
<path d="M64.1296 47.6531L63.0414 47.0257C62.8649 46.9277 62.8845 46.7512 63.0904 46.6336L64.0707 46.065C64.2766 45.9474 64.5805 45.9375 64.7471 46.0356L65.8353 46.663C66.0118 46.761 65.9921 46.9375 65.7863 47.0551L64.806 47.6237C64.6001 47.7413 64.2962 47.7512 64.1296 47.6531Z" fill="#FFF8F8"/>
<path d="M66.061 48.7703L64.9728 48.1429C64.7963 48.0449 64.8159 47.8684 65.0218 47.7508L66.0021 47.1822C66.208 47.0645 66.5119 47.0548 66.6785 47.1528L67.7667 47.7802C67.9432 47.8782 67.9235 48.0547 67.7177 48.1723L66.7374 48.7409C66.5315 48.8585 66.2276 48.8683 66.061 48.7703Z" fill="#FFF8F8"/>
<path d="M80.432 57.0731L79.3439 56.4456C79.1674 56.3476 79.187 56.1712 79.3929 56.0535L80.3732 55.4849C80.5791 55.3673 80.883 55.3575 81.0496 55.4555L82.1378 56.0829C82.3143 56.181 82.2946 56.3574 82.0888 56.4751L81.1084 57.0436C80.9026 57.1613 80.5987 57.1711 80.432 57.0731Z" fill="#FFF8F8"/>
<path d="M82.373 58.1902L81.2848 57.5628C81.1084 57.4648 81.1279 57.2883 81.3338 57.1707L82.3141 56.6021C82.52 56.4845 82.8239 56.4747 82.9906 56.5727L84.0787 57.2001C84.2552 57.2981 84.2356 57.4746 84.0297 57.5922L83.0494 58.1608C82.8435 58.2784 82.5396 58.2883 82.373 58.1902Z" fill="#FFF8F8"/>
<path d="M84.3044 59.3084L83.2162 58.681C83.0397 58.583 83.0593 58.4065 83.2652 58.2889L84.2455 57.7203C84.4514 57.6026 84.7553 57.5928 84.922 57.6909L86.0101 58.3183C86.1866 58.4163 86.167 58.5928 85.9611 58.7104L84.9808 59.279C84.7749 59.3966 84.471 59.4064 84.3044 59.3084Z" fill="#FFF8F8"/>
<path d="M74.3639 50.9754L73.2758 50.348C73.0993 50.25 73.1189 50.0735 73.3248 49.9559L74.3051 49.3872C74.511 49.2696 74.8149 49.2598 74.9815 49.3579L76.0697 49.9853C76.2461 50.0833 76.2265 50.2597 76.0207 50.3774L75.0403 50.946C74.8345 51.0636 74.5306 51.0734 74.3639 50.9754Z" fill="#FFF8F8"/>
<path d="M76.3051 52.0935L75.2169 51.4661C75.0405 51.3681 75.0601 51.1917 75.2659 51.074L76.2463 50.5054C76.4521 50.3878 76.756 50.378 76.9227 50.476L78.0108 51.1034C78.1873 51.2014 78.1677 51.3779 77.9618 51.4955L76.9815 52.0642C76.7756 52.1818 76.4717 52.1916 76.3051 52.0935Z" fill="#FFF8F8"/>
<path d="M78.246 53.2117L77.1578 52.5843C76.9814 52.4863 77.001 52.3099 77.2069 52.1922L78.1872 51.6236C78.3931 51.506 78.697 51.4961 78.8636 51.5942L79.9518 52.2216C80.1282 52.3196 80.1086 52.4961 79.9028 52.6137L78.9224 53.1823C78.7166 53.2999 78.4127 53.3098 78.246 53.2117Z" fill="#FFF8F8"/>
<path d="M80.1776 54.3289L79.0895 53.7015C78.913 53.6035 78.9326 53.427 79.1385 53.3093L80.1188 52.7408C80.3247 52.6232 80.6286 52.6133 80.7953 52.7114L81.8834 53.3388C82.0599 53.4368 82.0403 53.6132 81.8344 53.7309L80.8541 54.2995C80.6482 54.4171 80.3443 54.4269 80.1776 54.3289Z" fill="#FFF8F8"/>
<path d="M82.1185 55.447L81.0304 54.8197C80.8539 54.7217 80.8735 54.5452 81.0794 54.4275L82.0597 53.8589C82.2656 53.7413 82.5695 53.7315 82.7362 53.8295L83.8243 54.457C84.0008 54.555 83.9812 54.7314 83.7753 54.8491L82.795 55.4177C82.5891 55.5353 82.2852 55.5451 82.1185 55.447Z" fill="#FFF8F8"/>
<path d="M85.3339 54.7117L84.2457 54.0843C84.0693 53.9863 84.0889 53.8098 84.2947 53.6922L85.2751 53.1236C85.4809 53.0059 85.7848 52.9962 85.9515 53.0942L87.0397 53.7216C87.2161 53.8197 87.1965 53.9961 86.9906 54.1137L86.0103 54.6823C85.8044 54.8 85.5005 54.8097 85.3339 54.7117Z" fill="#FFF8F8"/>
<path d="M91.0492 55.4168L89.9611 54.7894C89.7846 54.6914 89.8042 54.5149 90.0101 54.3973L90.9904 53.8287C91.1963 53.711 91.5002 53.7012 91.6668 53.7992L92.755 54.4267C92.9314 54.5247 92.9118 54.7012 92.706 54.8188L91.7256 55.3874C91.5198 55.505 91.2159 55.5148 91.0492 55.4168Z" fill="#FFF8F8"/>
<path d="M67.8647 44.6235L65.6295 43.3294C65.4531 43.2314 65.4727 43.055 65.6785 42.9373L66.6588 42.3687C66.8647 42.2511 67.1686 42.2413 67.3353 42.3393L69.5704 43.6333C69.7469 43.7314 69.7273 43.9078 69.5214 44.0255L68.5411 44.5941C68.3352 44.7117 68.0313 44.7215 67.8647 44.6235Z" fill="#FFF8F8"/>
<path d="M86.5592 58.0149L83.0889 56.015C82.9124 55.9169 82.932 55.7405 83.1379 55.6229L84.1182 55.0543C84.3241 54.9366 84.628 54.9268 84.7946 55.0248L88.265 57.0247C88.4415 57.1228 88.4218 57.2992 88.216 57.4168L87.2356 57.9854C87.0298 58.1031 86.7259 58.1129 86.5592 58.0149Z" fill="#FFF8F8"/>
<path d="M78.3246 55.8476L67.0509 49.3382C66.8744 49.2402 66.8941 49.0638 67.0999 48.9461L68.0802 48.3775C68.2861 48.2599 68.59 48.25 68.7567 48.3481L80.0304 54.8574C80.2068 54.9555 80.1872 55.1319 79.9813 55.2496L79.001 55.8181C78.7952 55.9358 78.4913 55.9456 78.3246 55.8476Z" fill="#FFF8F8"/>
<path d="M66.3354 46.3389L63.3846 44.6331C63.2081 44.5351 63.2277 44.3586 63.4336 44.241L64.4139 43.6724C64.6198 43.5548 64.9237 43.545 65.0903 43.643L68.0411 45.3488C68.2176 45.4468 68.198 45.6233 67.9921 45.7409L67.0118 46.3095C66.8059 46.4271 66.502 46.4369 66.3354 46.3389Z" fill="#FFF8F8"/>
<path d="M88.8041 56.7112L86.1964 55.2015C86.02 55.1034 86.0396 54.927 86.2455 54.8094L87.2258 54.2408C87.4317 54.1231 87.7356 54.1134 87.9022 54.2114L90.5099 55.7211C90.6863 55.8191 90.6667 55.9956 90.4609 56.1132L89.4805 56.6818C89.2747 56.7994 88.9708 56.8092 88.8041 56.7112Z" fill="#FFF8F8"/>
<path d="M94.9268 48.2827V35.264C94.9268 34.7738 94.5837 34.166 94.1523 33.921L89.6428 31.3133C89.2115 31.0682 88.8684 31.2643 88.8684 31.7642V44.7829C88.8684 45.2731 89.2115 45.8809 89.6428 46.126L94.1523 48.7336C94.5837 48.9787 94.9268 48.7826 94.9268 48.2827Z" fill="#FBF9FA"/>
<path d="M94.4953 48.8712C94.809 48.8712 94.9561 48.6065 94.9561 48.283V35.2644C94.9561 34.7644 94.6031 34.1468 94.162 33.8919L89.6525 31.2941C89.2016 31.0294 88.829 31.245 88.829 31.7646V44.7832C88.829 45.2832 89.182 45.9008 89.6231 46.1557C94.5149 48.9693 94.26 48.8712 94.4953 48.8712ZM94.6816 48.7634C94.3875 48.9301 94.4561 48.8712 89.6525 46.1067C89.231 45.8616 88.8977 45.2734 88.8977 44.7931V31.7744C88.8977 31.294 89.2212 31.1274 89.6231 31.3529L94.1326 33.9507C94.5541 34.1958 94.8875 34.784 94.8875 35.2644C94.8875 49.3614 94.9757 48.587 94.6816 48.7536V48.7634Z" fill="#222060"/>
<path d="M94.5737 38.8131C94.5737 38.7347 91.8092 37.1367 91.8092 37.1367C91.8092 37.2151 94.5737 38.8131 94.5737 38.8131Z" fill="#171043"/>
<path d="M91.8779 34.4216V34.304L89.1134 32.7061V32.8237L91.8779 34.4216Z" fill="#171043"/>
<path d="M94.5737 39.4508C94.5737 39.3724 91.8092 37.7744 91.8092 37.7744C91.8092 37.8528 94.5737 39.4508 94.5737 39.4508Z" fill="#171043"/>
<path d="M91.8779 35.3044V35.1966L89.1134 33.5986V33.7065L91.8779 35.3044Z" fill="#171043"/>
<path d="M94.5737 40.0875C94.5737 40.0091 91.8092 38.4111 91.8092 38.4111C91.8092 38.4896 94.5737 40.0875 94.5737 40.0875Z" fill="#171043"/>
<path d="M91.8779 36.196V36.0882L89.1134 34.4902V34.5981L91.8779 36.196Z" fill="#171043"/>
<path d="M94.5149 41.0288V40.8621L89.28 37.8428V38.0094L94.5149 41.0288Z" fill="#171043"/>
<path d="M94.5149 42.3618V42.1952L89.28 39.1758V39.3424L94.5149 42.3618Z" fill="#171043"/>
<path d="M90.8187 36.579L89.8482 36.0203C89.6325 35.8928 89.6325 36.2849 89.8482 36.4124L90.8187 36.9711C91.0344 37.0986 91.0344 36.7064 90.8187 36.579Z" fill="#FCFCFC"/>
<path d="M90.8975 37.0195C90.9857 36.9803 91.0151 36.9411 91.0151 36.8822C91.0151 36.7646 90.9367 36.6176 90.8289 36.5686L89.8584 36.0098C89.8093 35.9804 89.7603 35.9804 89.7211 36C89.5937 36.0686 89.6917 36.3529 89.8486 36.4509L90.8191 37.0097C90.8191 37.0097 90.8779 37.0391 90.9073 37.0391L90.8975 37.0195ZM90.8191 36.9705L89.8486 36.4117C89.6427 36.2941 89.6133 35.8922 89.8486 36.0196L90.8191 36.5783C91.0249 36.696 91.0543 37.0979 90.8191 36.9705Z" fill="#251E66"/>
<path d="M90.8877 36.9209C90.9759 36.8719 90.8975 36.666 90.7896 36.6072C90.721 36.568 90.6622 36.6072 90.6622 36.6856C90.6622 36.8131 90.7994 36.9699 90.8877 36.9209Z" fill="#BB141A"/>
<path d="M94.5149 43.6958V43.5292L89.28 40.5098V40.6765L94.5149 43.6958Z" fill="#171043"/>
<path d="M90.819 37.4315L89.8484 36.8728C89.6328 36.7454 89.6328 37.1374 89.8484 37.2649L90.819 37.8237C91.0346 37.9511 91.0346 37.559 90.819 37.4315Z" fill="#FCFCFC"/>
<path d="M90.8975 37.8721C90.9857 37.8329 91.0151 37.7937 91.0151 37.7349C91.0151 37.6173 90.9367 37.48 90.8289 37.4114L89.8584 36.8526C89.8093 36.8232 89.7603 36.8232 89.7211 36.8428C89.5937 36.9212 89.6917 37.2055 89.8486 37.2937L90.8191 37.8525C90.8191 37.8525 90.8779 37.8819 90.9073 37.8819L90.8975 37.8721ZM90.8191 37.8231L89.8486 37.2643C89.6329 37.1467 89.6133 36.7448 89.8486 36.8722L90.8191 37.4309C91.0445 37.5584 91.0347 37.9505 90.8191 37.8231Z" fill="#251E66"/>
<path d="M90.8877 37.7744C90.9759 37.7254 90.8975 37.5195 90.7896 37.4607C90.721 37.4215 90.6622 37.4607 90.6622 37.5391C90.6622 37.6666 90.7994 37.8234 90.8877 37.7744Z" fill="#BB141A"/>
<path d="M94.6719 46.0489V44.6666L89.1134 41.4414V42.8236L94.6719 46.0489Z" fill="#50DCFF"/>
<path d="M94.6914 46.0686V44.6472L89.0938 41.4121V42.8335L94.6914 46.0686ZM94.662 44.6667V46.0098L89.1232 42.814V41.4807L94.662 44.6667Z" fill="#251E66"/>
<path d="M94.6719 47.9405V46.568L89.1134 43.3428V44.725L94.6719 47.9405Z" fill="#50DCFF"/>
<path d="M94.6914 47.97V46.5486L89.0938 43.3135V44.735L94.6914 47.97ZM94.662 46.5682V47.9112L89.1232 44.7154V43.3821L94.662 46.5682Z" fill="#251E66"/>
<path d="M79.7708 39.7338V26.7151C79.7708 26.225 79.4276 25.6172 78.9963 25.3721L74.4868 22.7645C74.0555 22.5194 73.7124 22.7154 73.7124 23.2154V36.2341C73.7124 36.7242 74.0555 37.332 74.4868 37.5771L78.9963 40.1848C79.4276 40.4299 79.7708 40.2338 79.7708 39.7338Z" fill="#FBF9FA"/>
<path d="M79.3493 40.3226C79.5944 40.3226 79.8101 40.1364 79.8101 39.7345V26.7158C79.8101 26.2158 79.4571 25.5982 79.016 25.3433L74.5065 22.7357C74.0556 22.471 73.683 22.6965 73.683 23.2063V36.2249C73.683 36.7249 74.036 37.3425 74.4771 37.5974C79.3591 40.4109 79.114 40.3128 79.3493 40.3128V40.3226ZM78.9866 25.412C79.4081 25.6571 79.7414 26.2452 79.7414 26.7256V39.7443C79.7414 40.205 79.4277 40.4011 79.016 40.1658L74.5065 37.5679C74.085 37.3229 73.7516 36.7347 73.7516 36.2543C73.7516 22.1573 73.6634 22.9416 73.9673 22.7651C74.2516 22.5984 74.281 22.7062 78.9964 25.4217L78.9866 25.412Z" fill="#222060"/>
<path d="M79.4673 28.2556C79.4673 27.2459 78.3987 26.0891 77.6929 26.491C77.1537 26.8047 77.34 27.687 77.6635 28.236C77.7713 28.4125 78.036 28.2458 77.9282 28.0693C77.7027 27.6968 77.4968 26.9714 77.8399 26.7655C78.2713 26.5107 79.1438 27.4321 79.1438 28.2556C79.1438 28.8438 78.7124 28.883 78.2713 28.4909C78.1242 28.3536 77.8988 28.5889 78.0654 28.7262C78.7811 29.3536 79.4673 29.0497 79.4673 28.2556Z" fill="#61598B"/>
<path d="M76.7222 25.8728V25.7552L73.9577 24.1572V24.2749L76.7222 25.8728Z" fill="#171043"/>
<path d="M76.7222 26.7556V26.6477L73.9577 25.0498V25.1576L76.7222 26.7556Z" fill="#171043"/>
<path d="M78.7614 32.245C79.0653 32.245 79.3496 32.0097 79.3496 31.5294C79.3496 31.3235 79.0359 31.3235 79.0359 31.5294C79.0359 31.8921 78.83 32.0293 78.4967 31.8431C77.8399 31.4608 77.6242 30.4608 77.9477 30.2745C78.183 30.1373 78.4183 30.5 78.5556 30.2745C78.5948 30.1961 78.5752 30.0981 78.4967 30.0589C78.2418 29.9118 77.987 29.8922 77.7909 30.0001C76.9968 30.4608 77.8595 32.245 78.7614 32.245Z" fill="#61598B"/>
<path d="M76.7222 27.6472V27.5393L73.9577 25.9414V26.0492L76.7222 27.6472Z" fill="#171043"/>
<path d="M76.7222 28.7947V28.677L73.9577 27.0791V27.1968L76.7222 28.7947Z" fill="#171043"/>
<path d="M79.4177 35.5288V34.1466L78.0453 33.3623V34.7347L79.4177 35.5288Z" fill="#50DCFF"/>
<path d="M79.4177 35.5289V34.1466L78.0551 33.3428V34.7446L79.4177 35.5387V35.5289ZM79.4177 34.1466V35.5093L78.0551 34.7348V33.3624L79.4177 34.1466Z" fill="#251E66"/>
<path d="M76.7222 29.6774V29.5696L73.9577 27.9717V28.0795L76.7222 29.6774Z" fill="#171043"/>
<path d="M76.7222 30.569V30.4612L73.9577 28.8633V28.9712L76.7222 30.569Z" fill="#171043"/>
<path d="M79.418 37.4321V36.0499L78.0455 35.2656V36.638L79.418 37.4321Z" fill="#50DCFF"/>
<path d="M79.418 37.4312V36.049L78.0553 35.2451V36.647L79.418 37.441V37.4312ZM79.418 36.049V37.4117L78.0553 36.6372V35.2647L79.418 36.049Z" fill="#251E66"/>
<path d="M77.428 34.3824V33.0002L76.0555 32.1963V33.5883L77.428 34.3824Z" fill="#50DCFF"/>
<path d="M77.428 34.3824V32.9903L76.0555 32.1963V33.5883L77.428 34.3824ZM77.428 32.9903V34.353L76.0555 33.5785V32.2159L77.428 32.9903Z" fill="#251E66"/>
<path d="M79.4177 39.3335V37.9512L78.0551 37.167V38.5394L79.4177 39.3335Z" fill="#50DCFF"/>
<path d="M79.418 39.3326V37.9504L78.0553 37.1465V38.5483L79.418 39.3424V39.3326ZM79.418 37.9504V39.313L78.0553 38.5385V37.1661L79.418 37.9504Z" fill="#251E66"/>
<path d="M77.4282 36.2838V34.9015L76.0558 34.0977V35.4897L77.4282 36.2838Z" fill="#50DCFF"/>
<path d="M77.4282 36.2837V34.9015L76.0558 34.1074V35.4995L77.4282 36.2935V36.2837ZM77.4282 34.9015V36.2641L76.0558 35.4897V34.127L77.4282 34.9015Z" fill="#251E66"/>
<path d="M75.4377 33.2349V31.8429L74.0751 31.0684V32.4408L75.4377 33.2349Z" fill="#50DCFF"/>
<path d="M75.4377 33.235V31.8429L74.0751 31.0391V32.4409L75.4377 33.235ZM75.4377 31.8429V33.2055L74.0751 32.4311V31.0586L75.4377 31.8429Z" fill="#251E66"/>
<path d="M77.4282 38.1851V36.8029L76.0558 35.999V37.3911L77.4282 38.1851Z" fill="#50DCFF"/>
<path d="M77.4282 38.1851V36.8028L76.0558 36.0088V37.4008L77.4282 38.1949V38.1851ZM77.4282 36.8028V38.1655L76.0558 37.391V36.0284L77.4282 36.8028Z" fill="#251E66"/>
<path d="M75.4377 35.1363V33.7442L74.0751 32.9697V34.3422L75.4377 35.1363Z" fill="#50DCFF"/>
<path d="M75.4377 35.1363V33.7443L74.0751 32.9404V34.3423L75.4377 35.1363ZM75.4377 33.7443V35.1069L74.0751 34.3325V32.96L75.4377 33.7443Z" fill="#251E66"/>
<path d="M75.4377 37.0396V35.6476L74.0751 34.8633V36.2456L75.4377 37.0396Z" fill="#50DCFF"/>
<path d="M75.4377 37.0397V35.6476L74.0751 34.8438V36.2456L75.4377 37.0397ZM75.4377 35.6476V37.0102L74.0751 36.2358V34.8633L75.4377 35.6476Z" fill="#251E66"/>
<path d="M86.3782 35.5202V30.3931L81.2609 27.4424V32.5695L86.3782 35.5202Z" fill="#50DCFF"/>
<path d="M86.4175 35.5783V30.3728L81.2316 27.373V32.5786L86.4175 35.5783ZM86.3489 30.412V35.4607L81.3002 32.5393V27.4907L86.3489 30.412Z" fill="#251E66"/>
<path d="M81.5647 32.7653C88.427 29.4322 87.5349 29.8047 81.5549 32.7162C81.5549 32.7555 81.5647 32.7653 81.5647 32.7653Z" fill="#222060"/>
<path d="M86.3782 35.549L81.5844 27.5986C81.5452 27.628 86.3586 35.5392 86.3586 35.5392H86.3782V35.549Z" fill="#222060"/>
<path d="M86.3782 43.7341V38.607L81.2609 35.6465V40.7736L86.3782 43.7341Z" fill="#50DCFF"/>
<path d="M86.4175 43.7932V38.5877L81.2316 35.5879V40.7934L86.4175 43.7932ZM86.3489 38.6269V43.6756L81.3002 40.7542V35.7055L86.3489 38.6269Z" fill="#251E66"/>
<path d="M81.5647 40.9802C88.427 37.6471 87.5349 38.0195 81.5549 40.9311C81.5549 40.9703 81.5647 40.9802 81.5647 40.9802Z" fill="#222060"/>
<path d="M86.3782 43.7541L81.5844 35.8037C81.5452 35.8331 86.3586 43.7443 86.3586 43.7443H86.3782V43.7541Z" fill="#222060"/>
<path d="M94.6719 44.6665L89.4467 43C89.4467 43.0196 94.6719 44.6665 94.6719 44.6665Z" fill="#222060"/>
<path d="M94.6719 46.0482L89.4467 41.627C89.4271 41.6466 94.6719 46.0482 94.6719 46.0482Z" fill="#222060"/>
<path d="M94.6719 46.5679L89.4467 44.9014C89.4467 44.921 94.6719 46.5679 94.6719 46.5679Z" fill="#222060"/>
<path d="M94.6719 47.9398L89.4467 43.5186C89.4271 43.5382 94.6719 47.9398 94.6719 47.9398Z" fill="#222060"/>
<path d="M78.1337 34.7945L79.418 34.1475L78.124 34.7749C78.124 34.7945 78.124 34.7945 78.124 34.7945H78.1337Z" fill="#222060"/>
<path d="M79.418 35.5297L78.1436 33.3926C78.124 33.4024 79.418 35.5297 79.418 35.5297Z" fill="#222060"/>
<path d="M78.1337 36.6968L79.418 36.0498L78.124 36.6772C78.124 36.6968 78.124 36.6968 78.124 36.6968H78.1337Z" fill="#222060"/>
<path d="M76.1438 33.647L77.428 33L76.134 33.6274C76.134 33.647 76.134 33.647 76.134 33.647H76.1438Z" fill="#222060"/>
<path d="M79.418 37.431L78.1436 35.2939C78.124 35.3037 79.418 37.431 79.418 37.431Z" fill="#222060"/>
<path d="M77.428 34.3822L76.1536 32.2451C76.134 32.2549 77.428 34.3822 77.428 34.3822Z" fill="#222060"/>
<path d="M78.1337 38.5972L79.418 37.9502L78.124 38.5776C78.124 38.5972 78.124 38.5972 78.124 38.5972H78.1337Z" fill="#222060"/>
<path d="M76.1438 35.5484L77.428 34.9014L76.134 35.5288C76.134 35.5484 76.134 35.5484 76.134 35.5484H76.1438Z" fill="#222060"/>
<path d="M74.1535 32.5005L75.4377 31.8535L74.1437 32.4809C74.1437 32.5005 74.1437 32.5005 74.1437 32.5005H74.1535Z" fill="#222060"/>
<path d="M79.418 39.3334L78.1436 37.1963C78.124 37.2061 79.418 39.3334 79.418 39.3334Z" fill="#222060"/>
<path d="M77.428 36.2846L76.1536 34.1475C76.134 34.1573 77.428 36.2846 77.428 36.2846Z" fill="#222060"/>
<path d="M75.4377 33.2348L74.1633 31.0977C74.1437 31.1075 75.4377 33.2348 75.4377 33.2348Z" fill="#222060"/>
<path d="M76.1438 37.4507L77.428 36.8037L76.134 37.4311C76.134 37.4507 76.134 37.4507 76.134 37.4507H76.1438Z" fill="#222060"/>
<path d="M74.1535 34.4019L75.4377 33.7549L74.1437 34.3823C74.1437 34.4019 74.1437 34.4019 74.1437 34.4019H74.1535Z" fill="#222060"/>
<path d="M77.428 38.1869L76.1536 36.0498C76.134 36.0596 77.428 38.1869 77.428 38.1869Z" fill="#222060"/>
<path d="M75.4377 35.1371L74.1633 33C74.1437 33.0098 75.4377 35.1371 75.4377 35.1371Z" fill="#222060"/>
<path d="M74.1535 36.3043L75.4377 35.6572L74.1437 36.2846C74.1437 36.3043 74.1437 36.3043 74.1437 36.3043H74.1535Z" fill="#222060"/>
<path d="M75.4377 37.0385L74.1633 34.9014C74.1437 34.9112 75.4377 37.0385 75.4377 37.0385Z" fill="#222060"/>
<path d="M65.0039 59.1544C64.8759 56.5505 64.6451 53.7951 63.6523 50.4052L63.6522 50.405C63.2617 49.0735 62.4049 47.4935 61.2513 45.7982C60.1009 44.1077 58.6703 42.3239 57.1519 40.5876C54.1315 37.1338 50.7806 33.8869 48.6408 31.9643C47.1515 31.1861 44.4938 29.9612 41.8286 29.1208C40.4833 28.6967 39.1483 28.3745 37.9674 28.2538C36.7765 28.1321 35.7942 28.2212 35.1162 28.5665C34.3046 28.982 33.5591 29.9809 32.95 31.4886C32.3467 32.9821 31.9029 34.9118 31.6517 37.0911C31.1494 41.4496 31.4242 46.747 32.6805 51.4278C35.2088 60.8115 39.9333 66.3953 41.3349 67.8737C41.5119 68.0603 41.6519 68.2082 41.7543 68.3253C41.8503 68.435 41.9436 68.5506 41.9971 68.6693C42.0268 68.7351 42.0515 68.8168 42.0506 68.9108C42.0496 69.0083 42.0213 69.0924 41.983 69.161C41.9266 69.2619 41.8344 69.3463 41.7836 69.3928C41.779 69.397 41.7747 69.4009 41.7708 69.4045L41.7688 69.4064C41.6508 69.5155 41.4908 69.6633 41.3191 69.9733C41.1426 70.292 40.9459 70.7971 40.7944 71.6209C40.7424 71.9036 40.6941 72.1583 40.6501 72.3901C40.5594 72.8681 40.4871 73.2491 40.439 73.5789C40.3686 74.0613 40.3571 74.3933 40.4114 74.7039C40.4656 75.0138 40.5904 75.3302 40.835 75.7718C41.0708 76.1977 41.4044 76.7169 41.87 77.4417L41.9371 77.546C42.8894 79.0284 45.4593 81.4171 48.6981 83.4708C51.9331 85.522 55.7599 87.1901 59.2014 87.3045C66.0677 87.5331 67.8297 83.3087 67.9565 82.6035C67.9668 82.5464 67.97 82.3515 67.9497 81.9891C67.9304 81.6459 67.8929 81.1923 67.8394 80.6509C67.7324 79.5688 67.5627 78.1477 67.3511 76.5808C66.9276 73.4456 66.3385 69.7409 65.7532 67.0144C65.2457 64.6501 65.1519 62.4992 65.0564 60.3086C65.0397 59.9256 65.0229 59.5413 65.0039 59.1544Z" fill="#6EBE45" stroke="#6361C2" stroke-width="0.75"/>
<path d="M50.8068 27.5945C50.8068 27.5945 49.3756 31.1236 49.6893 32.4176C50.003 33.7215 51.846 34.594 50.6304 35.1037C49.4148 35.6233 39.9939 32.0844 38.1313 30.8492C36.2589 29.6139 35.8667 29.1434 36.0236 28.7414C36.1804 28.3395 36.9745 28.7414 37.6902 26.2808C38.4058 23.8202 38.6018 20.0852 38.6018 20.0852C38.6018 20.0852 35.7589 16.3502 35.9844 11.2231C36.2197 6.09598 42.8466 0.253248 49.3266 2.08645C55.8065 3.90985 57.5711 6.9587 58.3652 9.30167C59.1592 11.6446 59.4533 13.6935 59.1592 14.0464C58.8651 14.3993 58.5612 14.8797 58.7181 15.3993C58.8749 15.9188 60.8062 18.6147 60.9434 19.3304C61.0807 20.046 59.8552 20.5067 59.6102 20.5263C59.3749 20.5459 59.2082 22.1341 58.5612 22.9869C57.9044 23.8398 57.5319 25.3104 57.5711 25.9083C57.6103 26.5063 57.277 27.3396 55.7869 27.516C55.2771 27.5749 50.7971 27.5945 50.7971 27.5945H50.8068Z" fill="#FCBE9F"/>
<path d="M56.9635 3.96902C56.9635 3.96902 58.9732 5.50811 58.1301 7.14525C57.287 8.7922 52.1403 11.5763 52.1403 14.0075C52.1403 16.4387 49.6895 19.8208 49.6895 19.8208C49.6895 19.8208 47.5328 16.4191 45.4055 16.9485C43.288 17.4779 43.0723 18.1347 43.6017 19.8208C44.1311 21.507 38.2491 23.497 38.2491 23.497C38.2491 23.497 38.0433 19.4287 36.3473 18.4483C34.6513 17.4778 33.5828 10.743 35.9748 6.82173C38.3668 2.90044 43.8762 -1.02088 50.1307 0.361375C56.3851 1.74363 56.9635 3.96902 56.9635 3.96902Z" fill="#A65745"/>
<path d="M54.9146 77.2095L54.5451 77.2281L54.5451 77.2279L54.545 77.2273L54.5449 77.2253L54.5445 77.2173L54.543 77.186L54.5375 77.0627C54.5327 76.9537 54.526 76.791 54.5181 76.5759C54.5022 76.1458 54.4816 75.5059 54.4626 74.6654C54.4245 72.9843 54.3927 70.5004 54.4172 67.2861C54.4345 64.4547 55.2006 61.197 55.947 58.0231C56.0621 57.5338 56.1767 57.0464 56.288 56.563C56.7074 54.7417 57.0823 52.9698 57.2747 51.3244C57.4674 49.6771 57.474 48.1805 57.172 46.9047L57.172 46.9046C56.5472 44.2599 55.7345 42.7994 54.8739 41.9872C54.1382 41.2929 53.3354 41.0424 52.4907 40.961V40.9615L52.1044 40.9445C49.0972 40.8117 44.3601 41.9338 42.1326 47.621C41.5833 49.0236 41.334 51.2939 41.3106 54.0346C41.2873 56.7616 41.4873 59.9082 41.8094 63.0341C42.4543 69.2939 43.5834 75.4222 44.3659 77.8909C45.1621 80.3822 47.306 86.354 49.2542 91.7119C50.2276 94.389 51.1511 96.9098 51.8313 98.7615C52.1713 99.6873 52.4506 100.446 52.6448 100.973L52.8693 101.582L52.9281 101.741L52.9357 101.762C52.944 101.775 52.956 101.793 52.9719 101.816C53.0102 101.872 53.0711 101.955 53.157 102.057C53.3287 102.26 53.5997 102.536 53.9887 102.813C54.7627 103.366 56.0188 103.936 57.9242 103.936C58.8676 103.936 59.5037 103.742 59.9319 103.474C60.3561 103.208 60.6029 102.851 60.742 102.471C61.0291 101.688 60.8522 100.81 60.7536 100.543M54.9146 77.2095C54.5568 77.3038 54.5568 77.3039 54.5569 77.3041L54.5571 77.3048L54.5579 77.3079L54.5611 77.3202L54.5739 77.3686L54.6237 77.5575L54.813 78.2752C54.9762 78.8938 55.2095 79.7782 55.4903 80.8414C56.0519 82.9679 56.8031 85.8097 57.5616 88.6712C58.3202 91.5326 59.0862 94.4139 59.6773 96.6192C59.9728 97.7218 60.2247 98.6559 60.4102 99.3342C60.5909 99.9951 60.7159 100.441 60.7536 100.543M54.9146 77.2095L54.5451 77.2281L54.547 77.2666L54.5568 77.3038L54.9146 77.2095ZM60.7536 100.543C60.7537 100.543 60.7539 100.543 60.754 100.544L61.1004 100.414L60.7533 100.542C60.7534 100.542 60.7535 100.542 60.7536 100.543Z" fill="#F3F1F1" stroke="#6361C2" stroke-width="0.74"/>
<path d="M60.777 101.717C60.777 101.717 63.3161 105.256 63.4827 105.452C63.6396 105.648 64.5121 108.795 64.8356 109.628C65.1493 110.461 63.9239 113.598 63.9239 113.598C63.9239 113.598 64.0415 115.51 63.4435 116.059C62.8455 116.618 61.6005 117.412 61.2672 117.49C60.9437 117.569 60.777 116.775 60.777 116.775C60.777 116.775 58.7085 116.853 58.3164 116.373L57.9145 115.892C57.9145 115.892 55.6892 115.892 55.4147 115.255L55.1402 114.618C55.1402 114.618 54.1108 113.902 53.905 112.745C53.7089 111.589 53.1893 105.756 53.905 102.609C54.6206 99.4719 60.777 101.697 60.777 101.697V101.717Z" fill="#FCBE9F"/>
<path d="M37.4697 25.9011C37.2216 26.0323 36.9213 26.2087 36.6215 26.4273C35.8878 26.9624 35.2529 27.6793 35.2327 28.535L35.2326 28.5367C35.2046 29.5278 35.3522 30.2349 35.9283 30.882C36.5291 31.5569 37.6305 32.2074 39.6358 32.9588C43.9793 34.5828 46.5677 35.2911 48.4583 35.5966C49.9764 35.8419 51.0464 35.829 52.2493 35.8146C52.35 35.8134 52.4516 35.8121 52.5544 35.8111L50.3611 31.4408C50.2274 31.4868 50.0556 31.5384 49.8462 31.5865C49.3003 31.712 48.5016 31.8134 47.4616 31.7331C45.3792 31.5725 42.3534 30.6858 38.4696 27.8486L38.4691 27.8482C37.7745 27.3388 37.5418 26.6635 37.4847 26.1299C37.4762 26.0504 37.4715 25.9738 37.4697 25.9011Z" fill="#F3F1F1" stroke="#6361C2" stroke-width="0.75"/>
</g>
<defs>
<linearGradient id="paint0_linear_400_13307" x1="0.697021" y1="185.597" x2="72.9462" y2="185.597" gradientUnits="userSpaceOnUse">
<stop stop-color="#2CB8DB"/>
<stop offset="1" stop-color="#2CB8DB"/>
</linearGradient>
<clipPath id="clip0_400_13307">
<rect width="150" height="210" fill="white" transform="translate(0.666748 0.078125)"/>
</clipPath>
</defs>
</svg>
