<svg width="150" height="211" viewBox="0 0 150 211" fill="none" xmlns="http://www.w3.org/2000/svg">
<g clip-path="url(#clip0_400_13304)">
<path d="M72.071 203.38L149.838 158.914L150 165.659L72.071 210.053V203.38Z" fill="#35DFFF" stroke="black" stroke-width="1.53546" stroke-linejoin="round"/>
<path d="M72.0712 203.38L0 160.872L0.161813 167.814L72.0712 210.078L72.0874 203.38H72.0712Z" fill="url(#paint0_linear_400_13304)" stroke="black" stroke-width="1.53546" stroke-linejoin="round"/>
<path d="M71.5534 119.918L0 160.872L72.0712 203.38L149.838 158.914L71.5534 119.901V119.918Z" fill="#40FBFF" stroke="black" stroke-width="1.53546" stroke-linejoin="round"/>
<path d="M45.0405 139.837C44.4489 138.008 42.9645 137.159 42.9645 137.159L42.9538 137.169C42.9538 137.169 40.8133 132.695 36.1235 135.588C33.4388 137.245 33.0524 140.001 33.2127 142.055C33.0239 144.297 33.7571 146.269 33.7571 146.269C37.4896 148.98 41.136 152.034 44.4381 155.261C44.4381 155.261 48.2996 158.413 52.4623 156.391C54.005 155.641 54.258 154.468 53.9654 153.288C54.6986 150.948 51.3975 147.721 51.3975 147.721C51.3975 147.721 45.6321 141.666 45.0405 139.837Z" fill="#1A1A1A"/>
<g style="mix-blend-mode:multiply">
<path d="M145.809 157.136L125.731 169.382L96.2692 184.735L48.3578 161.469L39.4481 162.385L29.241 144.435C36.9628 141.311 50.4133 124.562 75.609 123.104C87.8548 128.088 131.569 148.449 145.809 157.136Z" fill="black" fill-opacity="0.1"/>
</g>
<path d="M37.1775 98.7591C37.8336 100.211 37.2635 102.696 37.2635 102.696C35.8545 105.213 35.2091 107.924 34.9832 110.57C34.5745 115.184 35.4457 119.594 35.8652 122.455C35.9835 123.283 36.0588 124.295 36.1019 125.402C36.1449 126.059 36.1664 126.747 36.1772 127.457C36.2632 131.996 36.0266 137.052 36.0266 137.052C35.962 139.482 37.7368 141.096 37.7368 141.096C41.3294 142.968 43.685 139.332 43.685 139.332C43.6743 127.737 46.5677 113.302 48.1166 107.902C48.1812 107.719 48.8696 106.375 49.3429 104.17C49.601 102.976 49.7731 101.534 49.7624 99.8778C49.7516 98.6193 49.7731 96.0271 49.8484 92.897C49.999 84.335 50.3109 71.7824 50.3109 71.7824L43.3839 57.9175L28.4434 54.54C28.4434 54.54 28.3788 57.7131 28.3681 61.7468C28.3251 67.9101 28.4004 76.0741 28.9489 78.0103C29.8632 81.0973 36.1234 96.425 37.0914 98.5978C37.1022 98.6623 37.1345 98.7054 37.156 98.7484L37.1775 98.7591Z" fill="#FCBE9F"/>
<path d="M36.5526 146.829C35.5415 144.57 34.3583 143.204 34.3583 143.204C34.3583 143.204 29.1308 136.847 26.4525 141.064C24.6903 143.849 24.5569 146.428 24.6693 147.857C24.5461 149.495 24.8498 150.562 24.8498 150.562C24.8498 150.562 26.0975 153.531 29.2491 157.93C32.3899 162.329 37.682 163.341 41.6618 162.329C43.483 161.867 43.7253 160.559 43.4523 159.277C43.985 157.432 42.0813 154.735 42.0813 154.735C42.0813 154.735 37.5637 149.088 36.5526 146.829Z" fill="#1A1A1A"/>
<path d="M28.1849 103.965C28.8411 105.417 28.271 107.902 28.271 107.902C25.0333 113.764 25.797 120.627 26.5177 125.316C26.6576 126.166 26.7759 126.962 26.8727 127.651C27.5181 132.136 27.0986 143.581 27.0986 143.581C27.2061 145.366 28.7443 147.001 28.7443 147.001C31.1752 148.217 34.4128 145.248 34.4128 145.248C34.4128 138.955 35.1658 131.641 36.1016 125.403C36.7039 121.39 37.3923 117.809 37.9947 115.259C38.1883 114.463 38.3712 113.775 38.5325 113.194C38.6078 112.925 39.877 109.817 39.834 105.127C39.8233 103.782 39.7157 101.018 39.5759 97.7804C39.2317 89.8422 38.6616 78.9999 38.6616 78.9999L34.4021 63.1128L28.3786 61.7468L19.4616 59.7354C19.4616 59.7354 19.0421 80.011 19.9671 83.2056C20.6555 85.5289 24.3557 94.7471 26.5607 100.114C27.3675 102.094 27.9806 103.556 28.1634 103.954L28.1849 103.965Z" fill="#FCBE9F"/>
<path d="M84.1391 44.8059C84.8813 43.5475 83.6013 42.0201 83.8809 40.5895C84.1391 39.2449 83.8594 38.89 82.6224 38.3307C82.0308 38.0617 82.375 36.857 81.2564 35.8244C80.8046 35.4049 80.0409 35.7276 79.4386 35.8567C79.2019 35.9105 78.933 35.975 78.8147 36.1794C78.6856 36.3945 78.7609 36.6634 78.8255 36.9001C79.1266 37.8681 79.4278 38.8362 79.729 39.8043C80.127 41.0843 80.525 42.3643 81.1703 43.5367C81.536 44.1928 81.009 44.9028 81.8157 45.0641C82.5579 45.2147 83.8164 45.3438 84.1391 44.7952V44.8059Z" fill="#FCBE9F"/>
<path d="M75.1682 39.9546C75.1682 39.9008 70.4677 26.2188 64.9498 22.2928C59.4318 18.356 54.8604 18.797 54.8604 18.797L57.0977 30.4461L68.0045 45.4511L75.179 39.9654L75.1682 39.9546Z" fill="#C3D4FF" stroke="#6361C2" stroke-width="0.74"/>
<path d="M48.1057 160.137C48.1057 158.9 48.5467 158.028 49.2567 157.62L82.4721 138.312C83.182 137.903 84.1716 137.957 85.258 138.581L122.29 159.184C124.452 160.432 126.194 163.455 126.183 165.939V169.769L92.9465 189.076L48.095 163.955V160.126L48.1057 160.137Z" fill="#B1A2A2"/>
<path d="M82.4723 138.312C83.1822 137.903 84.1718 137.957 85.2582 138.581L122.405 159.207C124.567 160.455 126.31 163.477 126.299 165.962V169.791L93.0621 189.099V185.269C93.0836 182.785 91.3411 179.762 89.1791 178.515L52.032 157.889C50.9456 157.265 49.956 157.2 49.2461 157.62L82.4723 138.312Z" fill="#EADCDB"/>
<path d="M65.596 89.6808C65.596 89.6808 65.5314 89.7131 65.4992 89.7346L72.1466 85.8731C73.2652 85.2277 74.5667 84.862 76.0188 84.8405L107.244 84.3564L107.223 90.3369L100.575 94.1985L85.3015 99.5013C84.9465 100.34 84.7529 101.341 84.7422 102.481L84.6023 156.208L77.9549 160.07L63.7782 151.884L61.0461 100.9C60.7126 95.4677 62.4336 91.4233 65.5852 89.6593L65.596 89.6808Z" fill="#B1A2A2"/>
<path d="M72.1459 85.8731C73.2646 85.2277 74.5661 84.862 76.0182 84.8405L107.244 84.3564L100.596 88.218L69.3708 88.702C67.9079 88.7235 66.6064 89.0785 65.4985 89.7346L72.1459 85.8731Z" fill="#FFF8F8"/>
<path d="M100.597 88.2295L69.3711 88.7135C63.8854 88.7996 60.6155 93.6076 61.0565 100.933L63.7886 151.918L77.9546 160.103L78.0944 106.375C78.0944 103.633 79.1916 101.653 81.0524 100.997L100.575 94.2207L100.597 88.2403V88.2295Z" fill="#DDCDCC"/>
<path d="M76.7708 138.117L90.0656 130.383L104.705 138.837L104.63 163.889L91.3349 171.612L76.7063 163.157L76.7708 138.117Z" fill="#DDCDCC"/>
<path d="M76.7711 138.117L76.7065 163.158L91.3351 171.612L91.4104 146.561L76.7711 138.117Z" fill="#B1A2A2"/>
<path d="M78.1695 36.6323L103.318 76.4198C103.382 76.4736 103.06 76.7963 102.253 77.3987C100.263 78.8938 96.1648 81.5398 93.0992 83.3146C91.2061 84.4118 90.152 84.9065 90.0982 84.7775L64.95 45.0007C64.6381 44.5167 77.8468 36.1375 78.1695 36.6431V36.6323Z" fill="#1A1A1A"/>
<path d="M79.4923 34.6217L84.5154 42.4845C84.6015 42.5491 84.182 42.9578 83.1494 43.7322C80.6002 45.6469 75.3511 49.0351 71.425 51.3047C69.0049 52.703 67.6603 53.3484 67.5743 53.1763L62.5511 45.3134C62.1531 44.6896 79.0728 33.9548 79.4815 34.6109L79.4923 34.6217Z" fill="#2E2E2E"/>
<path d="M57.6894 133.063L66.4235 127.986C67.3055 127.469 68.5317 127.545 69.887 128.319C72.5761 129.868 74.7381 133.633 74.7381 136.709C74.7381 138.247 74.1895 139.323 73.3183 139.828L64.5734 144.905C64.6272 144.873 64.681 144.83 64.7347 144.798C63.842 145.422 62.5512 145.4 61.1206 144.572C58.4315 143.023 56.2695 139.258 56.2695 136.171C56.2695 134.633 56.8181 133.558 57.7001 133.052L57.6894 133.063Z" fill="#1A1A1A"/>
<path d="M61.1421 133.407C58.4531 131.858 56.2695 133.106 56.2695 136.182C56.2695 139.269 58.4315 143.034 61.1206 144.583C63.8097 146.131 65.9932 144.884 65.9932 141.797C65.9932 138.72 63.8312 134.956 61.1421 133.407Z" fill="#4D4D4D"/>
<path d="M63.3043 116.38L66.5204 114.497C67.2304 114.078 68.2199 114.142 69.3171 114.766C71.4898 116.025 73.2431 119.058 73.2324 121.553C73.2324 122.79 72.7914 123.672 72.0814 124.081L68.8546 125.964C68.8546 125.964 68.9406 125.91 68.9836 125.877C68.263 126.383 67.2196 126.361 66.0579 125.695C63.8851 124.436 62.1319 121.403 62.1426 118.907C62.1426 117.67 62.5836 116.788 63.2936 116.38H63.3043Z" fill="#1A1A1A"/>
<path d="M66.0906 116.649C63.9178 115.39 62.1538 116.401 62.1538 118.897C62.1538 121.392 63.8963 124.436 66.0691 125.684C68.2419 126.943 70.0059 125.932 70.0059 123.436C70.0059 120.941 68.2634 117.907 66.0906 116.649Z" fill="#4D4D4D"/>
<path d="M79.6642 156.241L82.8803 154.359C83.5902 153.939 84.5798 154.004 85.6769 154.628C87.8497 155.886 89.603 158.919 89.5922 161.415C89.5922 162.652 89.1512 163.534 88.4413 163.942L85.2144 165.825C85.2144 165.825 85.3005 165.771 85.3435 165.739C84.6228 166.244 83.5795 166.223 82.4178 165.556C80.245 164.297 78.4917 161.264 78.5025 158.769C78.5025 157.532 78.9435 156.65 79.6534 156.241H79.6642Z" fill="#1A1A1A"/>
<path d="M82.461 156.521C80.2882 155.262 78.5242 156.274 78.5242 158.769C78.5242 161.264 80.2667 164.308 82.4395 165.556C84.6122 166.815 86.3763 165.804 86.3763 163.308C86.3763 160.813 84.6337 157.779 82.461 156.521Z" fill="#666666"/>
<path fill-rule="evenodd" clip-rule="evenodd" d="M127.057 140.74L106.652 128.962C103.307 127.036 97.4661 127.273 93.6153 129.5L73.5118 141.106L67.6819 141.149V146.892C67.6819 148.119 68.4241 149.291 69.9407 150.162L94.5511 164.371C97.8963 166.297 103.737 166.06 107.588 163.834L130.327 150.711C132.435 149.496 133.521 147.936 133.521 146.451V140.708L127.067 140.751L127.057 140.74Z" fill="#B1A2A2"/>
<path fill-rule="evenodd" clip-rule="evenodd" d="M93.6157 123.757C97.4772 121.53 103.318 121.283 106.652 123.219L131.263 137.428C134.608 139.353 134.188 142.731 130.327 144.958L107.588 158.08C103.727 160.307 97.8859 160.554 94.5515 158.618L69.9411 144.409C66.5959 142.484 67.0154 139.106 70.8769 136.88L93.6157 123.757Z" fill="#FFF8F8"/>
<g clip-path="url(#clip1_400_13304)">
<path d="M125.077 138.64L124.047 138.09L118.167 141.39L119.197 141.94L125.077 138.64Z" fill="#649DD5"/>
<path d="M90.1172 134.25L103.727 126.6L116.567 133.48L102.957 141.12L90.1172 134.24V134.25ZM108.487 130.12L96.9272 136.61L102.707 139.71L114.257 133.22L108.487 130.12Z" fill="#649DD5"/>
<path d="M121.057 135.9L120.087 135.38L106.477 143.02L107.447 143.54L121.057 135.9Z" fill="#649DD5"/>
<path d="M101.637 145.159L100.837 144.729L92.7073 149.289L93.5073 149.729L101.637 145.159Z" fill="#649DD5"/>
<path d="M103.457 146.139L102.647 145.699L94.5271 150.269L95.3371 150.699L103.457 146.139Z" fill="#649DD5"/>
<path d="M76.2271 141.43L86.6071 135.6L106.337 146.17L95.9571 152L76.2271 141.43ZM86.4371 137.01L78.3071 141.57L84.0371 144.64L92.1671 140.07L86.4371 137V137.01ZM96.827 142.58L88.6971 147.15L89.5071 147.58L97.6371 143.01L96.827 142.58ZM102.657 145.7L94.5271 150.27L95.3371 150.7L103.467 146.13L102.657 145.7ZM98.6571 143.55L90.5271 148.12L91.3371 148.55L99.4671 143.98L98.6571 143.55ZM100.847 144.72L92.7171 149.29L93.5271 149.72L101.657 145.15L100.847 144.72Z" fill="#8FC1EA"/>
<path d="M118.877 134.719L117.897 134.199L104.287 141.849L105.267 142.369L118.877 134.719Z" fill="#649DD5"/>
<path d="M113.517 145.129L112.487 144.579L97.6472 152.909L98.6872 153.459L113.517 145.129Z" fill="#649DD5"/>
<g opacity="0.8">
<path d="M103.377 125.02L74.0972 141.47L99.6872 155.98L128.587 138.65L103.377 125.02ZM117.897 134.2L118.867 134.72L105.257 142.37L104.287 141.85L112.917 137L117.897 134.2ZM121.057 135.89L107.447 143.54L106.477 143.02L120.087 135.37L121.057 135.89ZM121.907 136.35L122.877 136.87L109.267 144.51L108.297 143.99L121.907 136.34V136.35ZM98.8372 153.98L96.6472 152.81L123.967 137.46L126.147 138.63L98.8272 153.98H98.8372ZM76.2272 141.43L86.6072 135.6L106.337 146.17L95.9572 152L76.2272 141.43ZM102.957 141.14L90.1172 134.26L103.727 126.6L116.567 133.48L102.957 141.12V141.14Z" fill="#649DD5"/>
</g>
<path d="M108.487 130.13L114.267 133.22L102.707 139.71L96.9373 136.62L108.487 130.13Z" fill="#8FC1EA"/>
<path d="M122.877 136.87L121.907 136.35L108.297 144L109.267 144.52L122.877 136.87Z" fill="#649DD5"/>
<path d="M92.1671 140.08L86.4371 137.01L78.3071 141.58L84.0371 144.65L92.1671 140.08Z" fill="#649DD5"/>
<path d="M96.6572 152.81L123.977 137.46L126.697 138.9L99.5772 154.63L96.6472 152.8L96.6572 152.81ZM112.497 144.58L97.6572 152.92L98.6872 153.47L113.527 145.14L112.497 144.59V144.58ZM124.047 138.09L118.167 141.39L119.197 141.94L125.067 138.64L124.037 138.09H124.047Z" fill="#8FC1EA"/>
<path d="M99.4571 143.99L98.6471 143.56L90.5171 148.12L91.3271 148.56L99.4571 143.99Z" fill="#649DD5"/>
<path d="M97.6373 143.009L96.8273 142.579L88.6973 147.139L89.5073 147.579L97.6373 143.009Z" fill="#649DD5"/>
</g>
<path d="M104.892 127.326L123.748 138.211C124.554 138.674 125.867 138.674 126.673 138.211C127.48 137.749 127.48 136.985 126.673 136.522L107.818 125.637C107.011 125.174 105.699 125.174 104.892 125.637C104.085 126.099 104.085 126.863 104.892 127.326Z" fill="#B1A2A2"/>
<path d="M77.0701 144.405L95.9259 155.29C96.7326 155.753 98.0449 155.753 98.8516 155.29C99.6583 154.828 99.6583 154.064 98.8516 153.601L79.9958 142.716C79.1891 142.254 77.8769 142.254 77.0701 142.716C76.2634 143.179 76.2634 143.942 77.0701 144.405Z" fill="#B1A2A2"/>
<path d="M111.536 117.594L111.568 127.694C111.568 128.716 110.901 129.738 109.546 130.523C106.857 132.072 102.522 132.072 99.8547 130.523C98.5317 129.749 97.8648 128.738 97.854 127.726L97.8218 117.616C97.8218 117.68 97.8218 117.745 97.8433 117.809C97.7465 116.723 98.4134 115.626 99.844 114.797C102.533 113.249 106.868 113.249 109.546 114.797C110.869 115.572 111.536 116.583 111.536 117.594Z" fill="#333333"/>
<path d="M109.514 120.412C112.203 118.863 112.214 116.346 109.546 114.798C106.878 113.249 102.533 113.238 99.8439 114.798C97.1548 116.346 97.144 118.863 99.8223 120.412C102.49 121.961 106.825 121.961 109.514 120.412Z" fill="#4D4D4D"/>
<path d="M113.525 101.879L113.568 120.143C113.568 121.466 112.708 122.779 110.954 123.79C107.491 125.791 101.887 125.791 98.4448 123.79C96.7346 122.789 95.8741 121.488 95.8741 120.186L95.8418 101.912C95.8418 101.998 95.8526 102.073 95.8633 102.159C95.745 100.761 96.5947 99.3408 98.4556 98.2652C101.919 96.2645 107.523 96.2645 110.965 98.2652C112.675 99.2655 113.536 100.567 113.536 101.869L113.525 101.879Z" fill="#1A1A1A"/>
<path d="M110.912 105.516C114.375 103.515 114.386 100.267 110.955 98.2769C107.513 96.2762 101.909 96.2762 98.4451 98.2769C94.9816 100.278 94.9708 103.526 98.4128 105.527C101.855 107.527 107.448 107.527 110.922 105.527L110.912 105.516Z" fill="#4D4D4D"/>
<path d="M84.0637 91.9082C84.0637 88.1005 85.4298 85.4222 87.6025 84.1744C87.581 84.1852 107.512 72.6007 107.512 72.6007C109.707 71.3314 112.74 71.5035 116.085 73.4397C122.733 77.2797 128.111 86.5838 128.089 94.2316V98.803C128.068 100.083 127.616 100.997 126.885 101.417L106.953 113.001C106.222 113.432 105.189 113.378 104.049 112.722L88.1404 103.536C85.8815 102.234 84.0637 99.0719 84.0637 96.4904V91.919V91.9082Z" fill="#FFF8F8"/>
<path d="M96.1432 85.0242C89.4958 81.1842 84.0854 84.2605 84.0639 91.9082V96.4796C84.0424 99.0719 85.871 102.223 88.1298 103.525L104.038 112.711C106.286 114.012 108.126 112.969 108.136 110.377V105.805C108.169 98.1576 102.801 88.8642 96.1432 85.0134V85.0242Z" fill="#EADCDB"/>
<path d="M19.3863 84.3677L24.0223 103.535C25.711 106.128 26.4639 107.881 32.3799 107.881C33.832 107.881 35.3056 107.73 36.7362 107.451C42.5231 106.386 47.8152 103.288 50.3321 99.5878C52.3005 74.4504 49.7728 63.3068 49.7728 63.3068C49.7728 63.3068 27.5503 44.4833 20.1392 54.6911C19.8596 55.0675 19.6014 55.487 19.3755 55.9388C12.8572 68.7926 19.3755 84.3892 19.3755 84.3892L19.3863 84.3677Z" fill="#6361C2"/>
<path d="M17.9339 55.8413C18.0845 59.4124 19.3538 62.9405 21.5158 65.7909C21.9998 66.4255 22.5054 67.0924 23.0755 67.7701C25.9689 71.2336 30.4328 74.4497 41.5225 70.4484C45.1366 69.1469 49.665 67.2 50.2889 63.403C50.4502 62.4242 50.5685 61.4239 50.8697 60.5096C51.1063 59.7136 51.4828 58.9929 52.0959 58.4013L53.4942 57.0568C56.8502 53.7439 60.0878 50.1513 61.3786 45.6551C63.3255 38.954 60.5396 31.6827 61.7336 24.8094C62.0885 22.7873 60.5181 21.034 58.7863 19.9368C57.0331 18.8612 54.871 18.6031 52.8489 18.872C50.8159 19.1301 48.8798 19.8723 46.9867 20.6898C42.1571 22.755 33.8374 28.0925 29.352 30.8031C29.3628 34.4602 32.8422 35.0925 31.7988 38.5452C31.347 40.0619 30.7017 41.4924 29.7874 42.8047C28.0771 45.2464 25.5924 46.9997 23.3121 48.9358C21.021 50.8504 17.7834 52.8726 17.9124 55.8629L17.9339 55.8413Z" fill="#C3D4FF" stroke="#6361C2" stroke-width="0.74"/>
<path d="M57.087 30.4348L58.6789 36.5982C58.6789 36.5982 55.9468 35.4472 56.1942 35.6086C56.4309 35.7699 53.204 41.7612 53.204 41.7612L49.2457 36.5874L43.9751 43.9877C43.9751 43.9877 46.0941 36.3293 44.6097 33.7047C43.1253 31.0802 40.6944 25.5945 43.319 21.733C45.9435 17.8715 57.087 30.424 57.087 30.424V30.4348Z" fill="white"/>
<path d="M46.5889 23.7557C46.5459 27.5204 47.8797 31.1775 49.5899 34.5335C50.4719 36.2867 51.6444 37.9647 53.0965 39.2985C53.8602 38.3412 54.441 37.2763 54.9573 36.1469C56.1297 33.5654 56.8934 30.7365 58.3348 28.3486C58.765 27.6494 59.2491 26.9718 59.8191 26.3587C59.959 25.7026 60.2279 24.4548 59.7869 23.9278C59.3566 23.4222 58.765 23.0565 58.1949 22.7016C56.4094 21.5829 54.6454 20.4535 52.8598 19.3348C52.3758 19.0229 51.8595 18.7002 51.2679 18.7217C50.5902 18.7217 50.0094 19.1842 49.5146 19.6683C48.3207 20.8192 46.6104 22.0992 46.5889 23.7557Z" fill="#F2A883"/>
<path d="M66.7351 30.1979C66.961 29.9182 76.2114 26.9387 72.3499 16.0749C72.3499 16.0749 71.8551 10.7075 66.7351 7.77103C61.6151 4.83456 49.9983 3.24263 48.3203 14.2033L58.1946 22.7008L66.7351 30.2087V30.1979Z" fill="#221C3A"/>
<path d="M49.0737 20.0771C48.9661 20.1417 48.8478 20.5181 48.7402 20.5934C48.8155 22.8092 49.633 24.9605 50.8162 26.8428C51.9994 28.7252 53.5268 30.3601 55.1402 31.8875C55.9685 32.6835 56.829 33.458 57.8293 34.0173C58.8296 34.5766 59.9053 35.308 60.9486 34.824C65.6922 32.5867 69.231 27.9723 70.1668 22.8092C70.6616 20.0556 70.113 17.0223 68.833 14.5269C67.553 12.0314 65.3695 9.97698 62.7234 9.05194C60.0774 8.1269 56.9903 8.3958 54.667 9.96622C53.0535 11.0526 51.8703 12.6876 51.0206 14.4408C50.0955 16.3124 49.4824 18.1948 49.0952 20.0986L49.0737 20.0771Z" fill="#FCBE9F"/>
<path d="M71.049 22.508C71.049 22.508 62.5407 28.3379 54.8607 24.8528C54.6834 24.7723 54.5945 24.7269 54.4439 24.6128C52.3266 24.3902 47.4389 21.7443 47.4389 21.7443L41.3401 23.1641C41.3401 23.1641 44.3949 16.0649 48.3209 14.1933C52.247 12.3217 53.8174 8.50326 53.8174 8.50326L61.4328 6.76074L70.3283 12.3217L71.049 22.4972V22.508Z" fill="#221C3A"/>
<path d="M51.773 20.3564C51.0308 19.9046 49.9337 19.9907 49.4066 20.6899C49.0732 21.1309 49.0086 21.7225 49.0194 22.271C49.0302 23.0347 49.17 23.8092 49.5465 24.4653C50.1596 25.5409 52.4291 26.6058 52.9992 24.9278C53.4725 23.5188 53.1175 21.1739 51.773 20.3564Z" fill="#FFB294"/>
<path d="M61.0237 48.421C61.0237 48.421 63.9279 54.4123 61.0237 55.5417C58.1195 56.6711 41.3505 67.3413 36.3811 65.2869C31.4117 63.2216 30.4759 54.7995 30.4759 54.7995C30.4759 54.7995 25.3236 37.3743 27.3888 32.7921C28.9141 29.4076 33.6489 31.0052 34.6274 32.7925C35.6058 34.5798 41.5333 54.5736 41.5333 54.5736L56.334 47.4099C56.334 47.4099 59.0553 45.5383 61.0237 48.4425V48.421Z" fill="#C3D4FF" stroke="#6361C2" stroke-width="0.74"/>
<path d="M60.6904 45.3755L63.1536 42.9446L65.6383 41.1483L66.7784 40.2878C67.5206 39.5133 68.5102 40.2017 67.9831 41.1806L67.3485 42.1486L65.4662 43.6438L65.3694 44.2461L72.6729 40.987C74.082 40.3738 75.0285 41.5893 73.4258 42.3853L67.7142 45.354L68.0262 46.1177L74.7919 45.0098C76.2547 44.5043 77.1583 46.0962 74.964 46.548C74.7919 46.6017 68.7899 48.398 68.7899 48.398L68.9297 48.8068L74.5337 48.7422C75.846 48.5164 76.7065 50.1728 74.5983 50.3127L68.5425 51.2162L72.931 51.9261C74.2325 52.195 74.0282 53.2814 72.9633 53.2599L67.5206 53.0878L63.6914 53.8837L60.8517 53.9268C57.571 54.5721 56.6245 50.5816 57.5603 48.1076L60.7119 45.3863L60.6904 45.3755Z" fill="#FCBE9F"/>
</g>
<defs>
<linearGradient id="paint0_linear_400_13304" x1="0" y1="185.597" x2="72.2492" y2="185.597" gradientUnits="userSpaceOnUse">
<stop stop-color="#2CB8DB"/>
<stop offset="1" stop-color="#2CB8DB"/>
</linearGradient>
<clipPath id="clip0_400_13304">
<rect width="150" height="210" fill="white" transform="translate(0 0.078125)"/>
</clipPath>
<clipPath id="clip1_400_13304">
<rect width="54.49" height="30.96" fill="white" transform="translate(74.0972 125.02)"/>
</clipPath>
</defs>
</svg>
