<svg width="150" height="211" viewBox="0 0 150 211" fill="none" xmlns="http://www.w3.org/2000/svg">
<g clip-path="url(#clip0_400_13313)">
<path d="M72.0891 203.38L149.856 158.914L150.018 165.659L72.0891 210.053V203.38Z" fill="#35DFFF" stroke="black" stroke-width="1.53546" stroke-linejoin="round"/>
<path d="M72.0893 203.38L0.0180664 160.872L0.179879 167.814L72.0893 210.078L72.1054 203.38H72.0893Z" fill="url(#paint0_linear_400_13313)" stroke="black" stroke-width="1.53546" stroke-linejoin="round"/>
<path d="M71.5715 119.918L0.0180664 160.872L72.0893 203.38L149.856 158.914L71.5715 119.901V119.918Z" fill="#40FBFF" stroke="black" stroke-width="1.53546" stroke-linejoin="round"/>
<g style="mix-blend-mode:multiply">
<path d="M120.819 144.921L54.8831 182.84H53.9473L45.3392 180.033L40.229 170.348L35.0708 167.825L96.6836 132.454L120.819 144.921Z" fill="black" fill-opacity="0.1"/>
</g>
<path d="M147.095 34.9999L91.6266 2.97011C91.0862 2.6587 90.6008 2.63126 90.2527 2.83276L89.2177 3.43724C89.5658 3.23574 90.0512 3.26324 90.5916 3.57465L146.06 35.6044C147.131 36.218 147.992 37.711 147.983 38.9383L147.873 125.969C147.873 126.574 147.653 127.004 147.305 127.206L148.34 126.601C148.688 126.4 148.899 125.969 148.908 125.365L149.018 38.3338C149.018 37.1065 148.157 35.6135 147.095 34.9999Z" fill="#FFF8F8"/>
<path d="M146.06 35.5939C147.132 36.2076 147.992 37.7005 147.983 38.9279L147.873 125.959C147.873 127.186 147.003 127.681 145.932 127.067L90.4636 95.0372C89.392 94.4235 88.531 92.9214 88.5402 91.7032L88.6501 4.6725C88.6501 3.44517 89.5202 2.95055 90.5919 3.56422L146.06 35.5939Z" fill="#EADCDB"/>
<path d="M136.617 81.7215C137.368 82.1519 137.972 83.2053 137.972 84.0754V91.7325L135.252 90.1662V82.5091C135.252 81.639 135.856 81.291 136.607 81.7215H136.617Z" fill="#40FBFF"/>
<path d="M137.982 97.4836C137.982 98.3537 137.377 98.7018 136.626 98.2713C135.875 97.8409 135.27 96.7875 135.27 95.9174V90.1562L137.991 91.7225V97.4836H137.982Z" fill="#40FBFF"/>
<path d="M131.68 79.9802C132.431 80.4107 133.035 81.464 133.035 82.3342V88.883L130.315 86.8222V80.2733C130.315 79.8978 130.92 79.5406 131.671 79.9802H131.68Z" fill="#6EBE45"/>
<path d="M133.036 90.4869C133.036 91.357 132.431 91.705 131.68 91.2745C130.929 90.8441 130.324 89.7907 130.324 88.9206V87.3086L133.045 88.8748V90.4869H133.036Z" fill="#6EBE45"/>
<path d="M128.098 90.2669C128.098 91.137 127.494 91.4851 126.743 91.0546C125.992 90.6241 125.387 89.5708 125.387 88.7007V84.46L128.107 86.0261V90.2669H128.098Z" fill="#40FBFF"/>
<path d="M126.743 74.4939C127.494 74.9244 128.099 75.9777 128.099 76.8478V86.0253L125.378 84.4591V75.2816C125.378 74.4115 125.983 74.0634 126.734 74.4939H126.743Z" fill="#40FBFF"/>
<path d="M123.162 91.8599C123.162 92.73 122.557 93.5634 121.806 93.133C121.055 92.7025 120.451 91.6492 120.451 90.779V81.6016L123.171 83.1678V91.8507L123.162 91.8599Z" fill="#6EBE45"/>
<path d="M121.806 76.5833C122.557 77.0138 123.162 78.0671 123.162 78.9372V83.1779L120.442 81.6117V76.8856C120.442 76.0154 121.046 76.1528 121.797 76.5925L121.806 76.5833Z" fill="#6EBE45"/>
<path d="M118.225 87.1895C118.225 88.0596 117.621 88.4077 116.87 87.9772C116.119 87.5467 115.514 86.4934 115.514 85.6233V78.7539L118.234 80.3201V87.1895H118.225Z" fill="#40FBFF"/>
<path d="M116.86 71.4256C117.611 71.856 118.215 72.9093 118.215 73.7794V80.3283L115.495 78.762V72.2132C115.495 71.3431 116.1 70.9951 116.851 71.4256H116.86Z" fill="#40FBFF"/>
<path d="M113.279 82.4715C113.279 83.3416 112.675 83.6896 111.924 83.2592C111.173 82.8287 110.568 81.2807 110.568 80.4198V75.9043L113.288 77.4705V82.4715H113.279Z" fill="#6EBE45"/>
<path d="M111.923 66.7004C112.674 67.1308 113.279 68.1842 113.279 68.5597V76.977L110.559 75.8962V67.4789C110.559 66.6087 111.163 66.2607 111.914 66.6912L111.923 66.7004Z" fill="#6EBE45"/>
<path d="M108.342 76.7472C108.342 77.6174 107.738 77.9654 106.987 77.5349C106.236 77.1044 105.631 76.0511 105.631 75.181V73.0469L108.352 74.6131V76.7472H108.342Z" fill="#40FBFF"/>
<path d="M106.987 61.8631C107.738 62.2935 108.342 63.3468 108.342 64.2169V74.6127L105.622 73.0464V62.6507C105.622 61.7806 106.227 61.4326 106.978 61.8631H106.987Z" fill="#40FBFF"/>
<path d="M102.049 60.9939C102.801 61.4244 103.405 62.4777 103.405 63.3478V71.7651L100.685 69.7043V61.287C100.685 60.9115 101.289 60.5543 102.04 60.9939H102.049Z" fill="#6EBE45"/>
<path d="M103.406 76.7664C103.406 77.6365 102.801 77.9845 102.05 77.554C101.299 77.1235 100.694 75.5757 100.694 74.7147V70.1992L103.415 71.7655V76.7664H103.406Z" fill="#6EBE45"/>
<path d="M95.7479 63.099C95.7479 62.2289 96.3524 61.8808 97.1034 62.3113C97.8545 62.7418 98.459 63.7951 98.459 64.6652V68.9059L95.7387 67.3397V63.099H95.7479Z" fill="#40FBFF"/>
<path d="M98.4601 68.9158V73.1565C98.4601 74.0266 97.8556 74.3747 97.1045 73.9442C96.3535 73.5138 95.749 72.4604 95.749 71.5903V67.3496L98.4692 68.9158H98.4601Z" fill="#40FBFF"/>
<path d="M93.4217 66.7081L140.299 93.7735V92.6836L93.4217 65.6182V66.7081Z" fill="#464594"/>
<path d="M140.298 110.087L136.616 105.654L125.387 100.323L121.137 94.8641L106.986 91.8599L97.1035 80.9971" stroke="#1A1885" stroke-width="0.56" stroke-miterlimit="10"/>
<path d="M121.806 95.2587C121.806 94.8557 121.522 94.352 121.165 94.1505C120.807 93.949 120.523 94.1138 120.523 94.5168C120.523 94.9198 120.807 95.4236 121.165 95.6251C121.522 95.8266 121.806 95.6617 121.806 95.2587Z" fill="#6EBE45"/>
<path d="M140.298 114.236L133.035 102.475L130.324 102.201L126.743 104.005L123.161 98.6193L116.155 96.5127L108.342 88.2236L102.764 90.5318L100.685 86.1994L93.4215 78.8721" stroke="#FF5A72" stroke-width="0.56" stroke-miterlimit="10"/>
<path d="M133.676 102.85C133.676 102.447 133.392 101.943 133.035 101.741C132.677 101.54 132.394 101.705 132.394 102.108C132.394 102.511 132.677 103.014 133.035 103.216C133.392 103.417 133.676 103.253 133.676 102.85Z" fill="#6EBE45"/>
<path d="M108.983 88.5908C108.983 88.1878 108.699 87.684 108.342 87.4825C107.984 87.281 107.7 87.4459 107.7 87.8489C107.7 88.2519 107.984 88.7556 108.342 88.9571C108.699 89.1586 108.983 88.9938 108.983 88.5908Z" fill="#6EBE45"/>
<path d="M103.405 90.9061C103.405 90.5031 103.121 89.9994 102.764 89.7979C102.406 89.5964 102.122 89.7613 102.122 90.1643C102.122 90.5673 102.406 91.071 102.764 91.2725C103.121 91.474 103.405 91.3092 103.405 90.9061Z" fill="#6EBE45"/>
<path d="M127.384 104.38C127.384 103.977 127.1 103.473 126.742 103.272C126.385 103.07 126.101 103.235 126.101 103.638C126.101 104.041 126.385 104.545 126.742 104.746C127.1 104.948 127.384 104.783 127.384 104.38Z" fill="#6EBE45"/>
<path d="M136.004 51.5609C133.357 50.9747 131.031 51.4967 128.475 51.2311C125.92 50.9655 122.815 49.674 120.497 46.5874C118.244 43.5923 117.054 39.3516 114.425 37.1534C111.357 34.5797 108.746 36.7596 105.632 35.4406C104.057 34.772 102.481 33.2608 100.979 31.777C99.4771 30.2932 97.0224 27.1424 95.4378 26.08C95.0898 25.8418 94.7601 25.6586 94.4487 25.5029V46.6607L141.765 73.9734V54.3727C139.842 52.953 137.854 51.9639 135.995 51.5517L136.004 51.5609Z" fill="url(#paint1_linear_400_13313)"/>
<path d="M132.275 58.0186C129.134 56.7913 126.514 57.8446 123.418 56.8829C119.572 55.6922 115.596 51.6163 112.07 47.5038C108.553 43.3913 105.054 38.9034 101.125 36.1556C98.8259 34.5528 96.3255 33.7742 94.457 34.1772V46.6612L141.773 73.9739V65.7764C138.696 62.699 135.509 59.2734 132.275 58.0095V58.0186Z" fill="url(#paint2_linear_400_13313)"/>
<path d="M100.557 20.9141V50.1777" stroke="#FF5A72" stroke-width="0.29" stroke-linecap="round" stroke-linejoin="round"/>
<path d="M107.481 24.9082V54.181" stroke="#FF5A72" stroke-width="0.29" stroke-linecap="round" stroke-linejoin="round"/>
<path d="M114.406 28.9102V58.1738" stroke="#FF5A72" stroke-width="0.29" stroke-linecap="round" stroke-linejoin="round"/>
<path d="M121.33 32.9023V62.1752" stroke="#FF5A72" stroke-width="0.29" stroke-linecap="round" stroke-linejoin="round"/>
<path d="M128.255 36.9072V66.1708" stroke="#FF5A72" stroke-width="0.29" stroke-linecap="round" stroke-linejoin="round"/>
<path d="M135.179 40.9004V70.1732" stroke="#FF5A72" stroke-width="0.29" stroke-linecap="round" stroke-linejoin="round"/>
<path d="M60.4483 20.1701C60.8605 21.5898 61.9687 22.6797 62.6831 23.962C62.8113 24.2002 62.9304 24.4474 63.0403 24.6947C63.2876 26.9113 61.8038 28.9904 59.4774 29.4942C57.9295 29.8239 56.345 29.0637 55.0535 28.3035C54.3299 27.8822 53.6705 27.3509 53.0294 26.7922C53.0019 26.2152 52.9743 25.6381 52.956 25.0611C52.9011 22.1943 53.1575 19.245 54.3574 16.6347C55.4382 14.2991 57.2609 12.2382 57.6365 9.69197C57.8105 8.52875 57.5356 7.48457 57.4349 6.33967C57.3708 5.65273 57.6639 5.32301 58.3875 5.37797C60.0819 5.49704 61.0894 8.06161 61.465 9.43549C61.7672 10.5254 61.8405 11.6795 61.6664 12.797C61.2726 15.2883 59.743 17.7429 60.4483 20.1701Z" fill="#221C3A"/>
<path d="M58.8454 28.395C59.9262 27.9737 63.9379 28.9904 65.3117 32.1961C68.719 40.1097 69.4701 42.9124 72.1629 47.8767L89.9958 54.0225H88.2739V59.399L73.1612 57.4938C73.1612 57.851 73.1521 58.1716 73.1429 58.4739C69.1678 58.5563 65.266 55.5246 63.0037 52.4929C61.5108 50.487 60.5215 48.2339 59.6147 45.9258C57.6547 39.8349 56.0976 33.8722 55.8137 32.3518C55.2916 29.5583 54.8795 29.9521 58.8454 28.395Z" fill="#E2A6FF"/>
<path d="M30.8909 147.884C30.8909 147.994 30.9092 148.415 30.9367 149.029C31.1748 151.988 32.045 155.248 33.0067 158.472C33.6936 160.744 34.4171 162.988 35.0033 165.085C35.4247 169.326 32.2922 170.581 34.4538 174.94C34.8476 175.783 36.1024 176.507 36.4963 176.662C38.3648 177.267 38.9876 178.503 39.5921 179.676C39.9859 180.454 40.3798 181.205 41.0667 181.801C43.6038 183.944 49.31 183.578 50.4824 181.627C52.1585 178.888 44.0801 173.475 41.5155 168.666C41.4606 168.584 41.4057 168.456 41.3415 168.337C41.3873 165.149 41.5888 161.852 41.8911 158.472C42.5505 151.392 43.7046 143.955 44.9502 136.389C45.2799 134.493 46.4524 132.845 46.8462 130.976C47.2034 129.355 47.2676 127.67 47.3225 125.985C47.4691 122.44 47.7438 115.314 47.8629 111.76C48.0186 107.886 48.156 104.021 48.1194 100.146H31.7793C32.5303 108.829 33.2815 121.002 34.2707 129.648C31.3214 135.18 30.7535 141.619 30.8725 147.875L30.8909 147.884Z" fill="#F5C2A6"/>
<path d="M45.5915 178.099C47.1027 177.348 46.1868 175.983 46.2509 174.499C48.9803 177.366 51.49 179.977 50.4824 181.625C49.3101 183.576 43.5947 183.943 41.0668 181.799C40.3798 181.204 39.986 180.453 39.5921 179.674C38.9876 178.502 38.3648 177.266 36.4963 176.661C36.1025 176.514 34.8477 175.791 34.4538 174.939C33.1074 172.219 33.8127 170.708 34.4355 168.931C35.498 170.579 36.2032 172.457 37.1466 174.344C38.0808 177.156 41.8362 179.033 45.5915 178.099Z" fill="#221C3A"/>
<path d="M51.0311 127.229C51.1594 125.471 51.599 123.731 51.5807 121.981C51.5532 120.085 51.0403 114.69 50.4999 112.859C49.584 109.754 48.2926 105.467 46.9737 100.878L62.3427 99.9258C63.167 105.522 64.1471 112.437 64.3486 115.735C64.6326 120.241 63.5975 136.599 62.2328 145.181C61.5367 149.413 62.2787 153.644 63.561 157.757C65.3653 163.518 73.8376 170.827 72.0516 172.265C71.3646 172.824 70.183 173.254 68.8641 173.401C66.4735 173.703 63.5793 173.19 62.0772 171.322C60.4468 169.316 59.5308 167.173 56.3801 165.469C55.9771 165.222 54.6765 164.159 54.4567 163.152C53.5041 158.481 55.7481 158.7 55.9588 155.256C56.2152 150.659 50.39 136.947 51.022 127.238L51.0311 127.229Z" fill="#F5C2A6"/>
<path d="M60.5202 165.908C62.4528 166.732 65.3746 168.427 68.1224 167.319C68.5895 166.229 67.8476 165.203 67.2705 164.177C70.1099 167.987 73.2058 171.349 72.0609 172.274C71.374 172.833 70.1923 173.263 68.8734 173.41C66.4829 173.712 63.5886 173.199 62.0865 171.33C60.4562 169.325 59.5402 167.181 56.3894 165.478C55.9864 165.23 54.6858 164.168 54.466 163.16C53.7424 159.616 54.8599 158.883 55.5285 157.234C56.9299 160.275 57.69 163.939 60.5111 165.917L60.5202 165.908Z" fill="#221C3A"/>
<path d="M62.2422 145.191C62.169 145.639 62.1141 146.079 62.0774 146.528C59.6411 147.819 56.9941 147.957 54.4295 147.206C52.8358 141.179 50.6375 133.403 51.0406 127.238C51.1688 125.48 51.6084 123.74 51.5901 121.99C51.5718 121.029 51.4344 119.178 51.2329 117.347C51.0314 115.551 50.775 113.774 50.5094 112.868C49.8591 110.651 49.0164 107.839 48.1097 104.743C47.7433 103.498 47.3677 102.206 46.9921 100.887L48.1462 100.814L62.3705 99.9258C63.1948 105.522 64.1749 112.437 64.3764 115.735C64.3764 115.735 64.3764 115.744 64.3764 115.753C64.6512 120.277 63.6253 136.618 62.2606 145.181L62.2422 145.191Z" fill="#F5C2A6"/>
<path d="M48.1282 100.816C48.1282 102.125 48.1281 103.435 48.1006 104.745C48.0549 107.09 47.9724 109.435 47.8717 111.779C47.8259 113.162 47.7525 115.086 47.6792 117.128C47.5602 120.334 47.4229 123.833 47.3313 125.994C47.2763 127.68 47.2031 129.365 46.855 130.986C46.4612 132.855 45.2887 134.503 44.959 136.399C43.7775 143.58 42.6875 150.642 42.0189 157.392C40.2329 158.033 38.4377 158.445 36.4135 158.18C34.948 157.987 33.6932 157.493 32.53 156.833C31.7698 154.15 31.1287 151.484 30.9363 149.03C30.9088 148.416 30.8905 147.995 30.8905 147.885C30.7622 141.629 31.3392 135.19 34.2885 129.658C33.7664 125.106 33.3086 119.583 32.8872 114.097C32.5025 109.169 32.1544 104.269 31.7972 100.156H48.1372C48.1372 100.376 48.1372 100.587 48.1372 100.807L48.1282 100.816Z" fill="#F5C2A6"/>
<path d="M39.5917 32.451C39.5917 33.8615 40.1688 35.1347 41.103 36.0689C42.0281 36.994 43.3195 37.5802 44.73 37.5802L57.0584 43.5153C58.5697 43.5153 58.5329 36.939 59.4763 35.8949C59.1283 35.5285 58.8994 35.0156 58.8811 34.4202C58.8627 33.1105 58.4963 32.2129 57.8735 31.0039C57.4613 30.207 57.095 29.227 56.5271 28.5309C56.179 28.1004 55.7944 27.734 55.4464 27.3219L54.1824 27.3035L53.4679 27.2853L46.0947 27.1387C45.9757 27.2028 45.8749 27.2669 45.7834 27.3219V27.3402C40.6634 30.3719 43.1821 28.2653 39.5826 32.4602L39.5917 32.451Z" fill="#F2A883"/>
<path d="M65.8512 117.155C64.4315 123.832 37.1463 123.869 31.8706 118.868C31.2478 118.272 30.7623 115.744 30.5791 112.117C30.2494 105.358 30.9454 85.19 33.6199 75.7926C33.6657 75.6186 33.7207 75.4354 33.7757 75.2614C34.3161 73.4112 34.9389 71.6252 35.6534 69.9216C36.5326 67.7875 37.5584 65.7908 38.7217 64.0231C38.7858 63.9223 38.8499 63.8216 38.9231 63.7208C40.4161 61.5409 40.5076 59.3794 40.4893 58.6558C40.1413 47.3076 35.0122 44.6972 34.5725 37.8461C34.5542 37.6904 34.5542 37.5255 34.5542 37.3515C34.545 37.205 34.545 37.0493 34.545 36.8935C34.545 36.7378 34.5542 36.6096 34.5817 36.4722C34.5817 36.3989 34.5817 36.344 34.6184 36.2616C34.6275 36.17 34.655 36.0692 34.6916 35.9685C34.7282 35.8219 34.7831 35.6754 34.8564 35.5197V35.5013C34.9205 35.3548 35.003 35.2083 35.0763 35.0617C37.0639 31.3614 44.1805 28.2564 44.1805 28.2564C44.1805 28.2564 49.9417 41.9311 55.5654 40.3191C60.3374 38.9544 54.6861 27.313 54.6861 27.313C54.6861 27.313 57.6629 27.1482 60.9419 28.8335C61.1342 29.0716 62.6821 33.6054 64.3032 38.991C65.2192 42.0318 64.1842 46.8862 63.0027 50.1836C62.8104 50.7148 62.6089 51.2185 62.4165 51.6582C61.5189 53.6732 60.7586 54.2136 60.6304 55.331C60.5846 55.7249 60.6121 56.2103 60.7586 56.8514C60.7678 56.8972 60.777 56.9522 60.7861 56.998C60.8045 57.0713 60.8228 57.1445 60.8412 57.2178C60.8595 57.3094 60.8869 57.401 60.9144 57.5018C61.9402 61.2295 62.7553 65.4611 63.3965 69.8575C64.4498 76.9193 65.0544 84.384 65.4116 90.8046C65.9337 109.773 65.897 116.917 65.8512 117.155Z" fill="#C56CF0"/>
<path d="M65.037 66.2308C63.4707 64.3715 63.7638 60.5521 64.3134 59.3248C65.2018 59.0042 66.9788 58.4913 68.9663 58.1524C71.8148 57.6669 75.0846 57.5296 76.834 58.7661C80.5435 61.4039 79.6275 63.0892 78.2536 64.5089C76.1745 66.6521 67.6565 63.9502 65.037 66.24V66.2308Z" fill="#F2A883"/>
<path d="M69.2507 65.6438L47.0947 72.4216C46.5909 72.5316 46.0872 72.559 45.6017 72.5315C45.0247 72.5957 44.356 72.4674 43.6141 72.037C41.2785 70.6448 39.4375 67.2192 38.659 65.7354C35.3433 59.4247 33.2734 40.9598 33.1177 38.1296C32.962 35.2902 33.0261 33.1012 37.166 32.0662C37.5782 31.9654 38.1828 32.0296 38.8514 32.3135C39.9963 32.8081 41.3243 33.9438 42.2311 35.9497C45.7665 43.8083 47.4794 51.3829 48.2304 57.4189C48.377 58.5821 48.4227 60.7345 51.1613 60.2765C58.0216 59.1225 67.08 56.8876 67.08 56.8876L67.6937 59.3606L69.2507 65.653V65.6438Z" fill="#E2A6FF"/>
<path d="M68.7187 60.6713L92.3494 46.676C92.67 46.4837 92.9723 46.4653 93.1829 46.5844C93.5768 46.8134 93.9707 47.0332 94.3645 47.2531C94.1538 47.134 93.8516 47.1523 93.531 47.3446L92.3037 48.0682C92.3037 48.0682 92.3678 48.0865 92.3953 48.1049C92.6059 48.2239 92.8532 48.3613 93.1005 48.5079C93.2562 48.5995 93.4211 48.691 93.5768 48.7735C93.7051 48.8467 93.7875 49.0024 93.7875 49.2223L93.9889 63.7121C93.9889 64.1518 93.6867 64.7105 93.302 64.9303C93.1188 64.8296 92.9356 64.7196 92.7433 64.6189L93.302 64.9303L70.6146 78.3668C70.4223 78.4768 70.2392 78.4951 70.111 78.4218C69.7263 78.202 69.3416 77.9822 68.9569 77.7715L68.9751 79.2004C68.9751 79.5667 69.1125 79.8324 69.3232 79.9514C69.1308 79.8415 68.9294 79.7316 68.7371 79.6216C68.5356 79.5117 68.3432 79.4018 68.1509 79.2828C67.9402 79.1637 67.8028 78.9072 67.7937 78.5317L67.5738 62.7138C67.5647 61.9719 68.0776 61.0559 68.7187 60.6713Z" fill="#292B34"/>
<mask id="mask0_400_13313" style="mask-type:luminance" maskUnits="userSpaceOnUse" x="71" y="59" width="2" height="1">
<path d="M72.0798 59.7176V59.4795C72.0798 59.5436 72.034 59.6169 71.9516 59.6627V59.9008C72.0432 59.8459 72.0798 59.7818 72.0798 59.7176Z" fill="white"/>
</mask>
<g mask="url(#mask0_400_13313)">
<path d="M71.9516 59.6627V59.9008C72.0432 59.8459 72.0798 59.7818 72.0798 59.7176V59.4795C72.0798 59.5436 72.034 59.6169 71.9516 59.6627Z" fill="#1B1823"/>
</g>
<path d="M71.146 60.1312V60.3693L71.9519 59.9022V59.6641L71.146 60.1312Z" fill="#131419"/>
<mask id="mask1_400_13313" style="mask-type:luminance" maskUnits="userSpaceOnUse" x="70" y="59" width="2" height="2">
<path d="M70.3956 59.9473V60.1854C70.3956 60.2495 70.4414 60.3137 70.5239 60.3686C70.6979 60.4694 70.9727 60.4694 71.1467 60.3686V60.1305C70.9727 60.2312 70.6887 60.2312 70.5239 60.1305C70.4414 60.0847 70.3956 60.0114 70.3956 59.9473Z" fill="white"/>
</mask>
<g mask="url(#mask1_400_13313)">
<path d="M70.3946 59.9473V60.1854C70.3946 60.1854 70.413 60.2679 70.4404 60.3045V60.0663C70.4404 60.0663 70.3946 59.9931 70.3946 59.9473Z" fill="#1B1823"/>
<path d="M70.4401 60.0658V60.304C70.4401 60.304 70.4859 60.3498 70.5225 60.3681C70.5866 60.4047 70.6599 60.423 70.7332 60.4322V60.1941C70.6507 60.1849 70.5775 60.1574 70.5133 60.1208C70.4767 60.1024 70.4584 60.0841 70.4309 60.0566L70.4401 60.0658Z" fill="#1D2027"/>
<path d="M70.7424 60.1954V60.4335C70.889 60.4518 71.0446 60.4335 71.1545 60.3602V60.1221C71.0446 60.1862 70.889 60.2045 70.7424 60.1954Z" fill="#1B1823"/>
</g>
<path d="M70.5232 59.764C70.3492 59.8647 70.3492 60.0296 70.5232 60.1212C70.6973 60.222 70.9721 60.222 71.1461 60.1212L71.943 59.6633C72.117 59.5625 72.117 59.3976 71.943 59.306C71.7689 59.2053 71.485 59.2053 71.3201 59.306L70.5232 59.764Z" fill="#1E2129"/>
<path d="M69.9001 61.3381L93.5309 47.352C94.172 46.9673 94.7033 47.2696 94.7124 48.0115L94.9323 63.8294C94.9414 64.5713 94.4285 65.4872 93.7874 65.8719L70.1566 79.8672C69.5154 80.2519 68.9843 79.9497 68.9659 79.2078L68.746 63.3898C68.746 62.6479 69.2498 61.732 69.8909 61.3473L69.9001 61.3381Z" fill="#23262F"/>
<path d="M70.6239 63.8313C70.6239 63.1718 71.091 62.3658 71.6589 62.0361C72.2267 61.7064 72.6938 61.972 72.6938 62.6314C72.6938 63.2909 72.2267 64.0969 71.6589 64.4267C71.0818 64.7564 70.6239 64.4907 70.6239 63.8313Z" fill="#0B0B0B"/>
<path d="M68.5352 67.4389L67.9032 67.0725V65.0117L68.5352 65.3872V67.4389Z" fill="#0B0B0B"/>
<path d="M68.5352 70.2055L67.9032 69.8391V67.7783L68.5352 68.1447V70.2055Z" fill="#0B0B0B"/>
<path d="M72.8768 58.5199C73.06 58.4191 73.3531 58.4191 73.5272 58.5199C73.7103 58.6207 73.7103 58.7947 73.5272 58.8954C73.344 58.9962 73.06 58.9962 72.8768 58.8954C72.6936 58.7947 72.6936 58.6207 72.8768 58.5199Z" fill="#0B0B0B"/>
<path d="M74.3976 57.6117C74.5808 57.5109 74.8647 57.5109 75.0479 57.6117C75.2311 57.7124 75.2311 57.8864 75.0479 57.9872C74.8647 58.088 74.5808 58.088 74.3976 57.9872C74.2145 57.8864 74.2145 57.7124 74.3976 57.6117Z" fill="#0B0B0B"/>
<path d="M75.8812 56.7431L76.4582 57.082L77.7222 56.3492L77.1451 56.0195L75.8812 56.7431Z" fill="#0B0B0B"/>
<path d="M91.4249 56.7421C91.6722 56.5223 91.9196 56.3299 92.0753 56.165C91.7455 56.1559 91.3425 56.0918 91.2234 55.7804C91.141 55.5606 91.2509 55.3041 91.4249 55.1484C91.5989 54.9927 91.8279 54.9194 92.0478 54.8461C93.0186 54.5255 94.1635 53.9393 95.1252 53.6279C96.1694 53.8752 96.8563 56.4948 96.9571 57.1085C97.0945 57.9603 97.1128 59.3158 96.4259 59.9661C96.0778 60.0394 95.7115 60.0852 95.2902 60.1676C94.9879 60.2226 94.7039 60.2592 94.4383 60.2775C94.2826 60.2042 94.1452 59.9661 94.1269 59.9478C94.1086 59.8287 94.1086 59.7097 94.1453 59.5631C94.1911 59.3708 94.072 59.2242 93.8888 59.1876C93.4308 59.1143 92.4507 59.2059 92.5606 58.3449C92.5789 58.2259 92.4691 58.1343 92.3591 58.1251C91.4707 58.0519 91.4066 57.374 91.4341 56.7146L91.4249 56.7421Z" fill="#F2A883"/>
<path d="M46.2704 25.6548L46.2979 27.2577V27.963L46.3253 30.3352C46.3253 30.3352 46.6367 30.8481 47.1863 31.3977L47.2046 31.4159C47.3329 31.5442 47.4519 31.6541 47.6259 31.7732C48.0198 32.1029 48.5143 32.396 49.0914 32.57C49.7142 32.7623 50.3553 32.918 51.0148 32.9638C51.2804 32.9822 51.546 32.9822 51.8116 32.9638C52.0956 32.9638 52.3612 32.9272 52.6268 32.8357C53.2038 32.6799 53.5794 32.3777 53.8267 31.9747C53.8908 31.9106 53.9183 31.8373 53.9641 31.7732C54.1473 31.4434 54.2572 31.0862 54.3579 30.7107L54.2205 27.9355L54.1748 26.8272L54.0832 24.9404L53.3688 25.0045L46.2795 25.664L46.2704 25.6548Z" fill="#F2A883"/>
<path d="M45.9587 18.9062L45.9861 26.7831L46.0227 29.5035C46.0227 29.5035 46.325 29.9614 46.8654 30.4377L46.8837 30.456C47.0027 30.5659 47.131 30.6758 47.2959 30.7766C47.6897 31.0788 48.1751 31.3353 48.7522 31.491C49.6223 31.7291 50.5382 31.9032 51.4175 31.839C51.6923 31.839 51.9579 31.8024 52.2144 31.7291C52.8647 31.5551 53.2585 31.2162 53.5332 30.7766C53.7073 30.4927 53.8172 30.1721 53.918 29.8332L53.744 26.3985L53.6523 24.7315L45.9677 18.9154L45.9587 18.9062Z" fill="#F2A883"/>
<path d="M41.4985 18.063C46.0689 22.5327 47.2871 26.2422 51.8576 23.2563C56.4188 20.2612 60.0551 12.714 58.9651 6.42164C57.8019 -0.273731 49.1831 -1.36368 43.7334 1.72297C36.6625 5.72554 37.0654 13.7399 41.5076 18.063H41.4985Z" fill="#221C3A"/>
<path d="M59.1206 10.873C59.1206 16.9547 58.571 23.1463 55.1363 25.4636C54.028 26.2146 52.5626 26.2147 51.0788 25.8575C50.7857 25.7934 50.4925 25.7017 50.1994 25.6102C48.5599 25.0698 47.003 24.1813 46.0596 23.4852C44.6765 22.4594 43.3668 16.9089 43.0645 15.013C42.1211 9.01367 46.6 8.82132 50.5384 6.24759C54.4861 3.66469 59.1114 4.80958 59.1114 10.873H59.1206Z" fill="#FCBE9F"/>
<path d="M43.1833 15.2698C43.742 16.8635 44.5022 17.7978 45.5006 17.6604C46.5081 17.5321 47.0393 16.4605 46.8286 14.7935C46.6088 13.1266 45.1524 11.9084 44.1449 12.0366C43.1374 12.1648 42.5604 13.4654 43.1833 15.2698Z" fill="#FCBE9F"/>
<path d="M52.3332 10.5621C54.4764 10.1682 57.3707 9.93924 58.6988 7.93338C58.9553 7.55785 59.1568 7.10905 59.3125 6.62362C58.5523 4.14147 57.5356 4.0224 54.0735 1.97989C51.7379 0.606015 49.7777 -0.603011 47.8268 2.25466C47.4879 2.74926 46.6911 2.98741 47.1307 3.1248C49.5579 8.18067 42.029 12.5679 46.5629 14.6562C47.0574 12.3389 50.2815 10.9284 52.3424 10.5529L52.3332 10.5621Z" fill="#221C3A"/>
<path d="M44.7494 17.4223C45.5188 18.7779 46.3706 19.5015 47.2682 19.2084C48.1658 18.9244 48.4772 17.8528 47.9826 16.369C47.5155 14.876 45.9676 14.0242 45.07 14.3082C44.1815 14.6012 43.8793 15.8836 44.7494 17.4223Z" fill="#FCBE9F"/>
<path d="M44.0713 1.53026C42.9173 2.19888 41.9739 2.92249 41.177 3.6827C40.4259 5.03827 39.2627 6.15571 38.6399 7.5937C37.9896 9.11413 38.0354 10.7536 38.072 12.3748C38.127 14.3074 38.1637 16.6521 39.162 18.4107H47.9823C47.9457 13.5014 48.5044 9.01334 50.2446 6.06407C51.875 3.30715 48.0189 -0.768692 44.0622 1.53943L44.0713 1.53026Z" fill="#221C3A"/>
<path d="M37.9258 19.4008C37.3213 18.0178 37.2662 16.4699 37.2937 14.9586C37.367 11.1301 38.0723 7.01763 40.8018 4.33398L40.6368 6.16582C41.91 5.52468 43.4396 6.20244 44.5753 7.06341C47.7261 9.46312 49.6312 13.4107 49.5396 17.3767C49.5121 18.6315 49.2282 19.9962 48.2482 20.7839C47.5887 21.3151 46.5995 21.6082 46.3889 22.4234C46.1782 23.2203 46.8376 23.9438 47.3872 24.5483C48.1016 25.336 48.7153 26.2244 49.0175 27.2411C49.3198 28.2578 49.2557 29.4119 48.6878 30.3003C48.1932 31.0788 47.3688 31.5826 46.6727 32.1871C46.5903 32.2604 46.517 32.3336 46.4437 32.4161C45.9492 32.5718 45.5095 32.8649 45.2073 33.3137C44.8226 33.8815 44.7585 34.4586 44.8776 35.0264C43.5953 34.0464 42.3496 32.929 40.8842 32.471C40.5361 32.297 40.1789 32.123 39.84 31.9398C39.0065 31.4818 38.1913 30.8132 37.9898 29.879C37.77 28.8623 38.3287 27.864 38.805 26.9389C39.4278 25.7024 39.9316 24.3102 39.6477 22.9546C39.3821 21.6723 38.4662 20.6282 37.9441 19.4192L37.9258 19.4008Z" fill="#221C3A"/>
</g>
<defs>
<linearGradient id="paint0_linear_400_13313" x1="0.0180664" y1="185.597" x2="72.2673" y2="185.597" gradientUnits="userSpaceOnUse">
<stop stop-color="#2CB8DB"/>
<stop offset="1" stop-color="#2CB8DB"/>
</linearGradient>
<linearGradient id="paint1_linear_400_13313" x1="94.4578" y1="49.7382" x2="141.774" y2="49.7382" gradientUnits="userSpaceOnUse">
<stop stop-color="#FF5A72"/>
<stop offset="0.23" stop-color="#CA5B7F"/>
<stop offset="0.6" stop-color="#775D95"/>
<stop offset="0.87" stop-color="#435FA2"/>
<stop offset="1" stop-color="#3060A8"/>
</linearGradient>
<linearGradient id="paint2_linear_400_13313" x1="1179.81" y1="666.057" x2="1227.13" y2="693.374" gradientUnits="userSpaceOnUse">
<stop stop-color="#02007D"/>
<stop offset="0.23" stop-color="#0D1888"/>
<stop offset="0.75" stop-color="#264C9F"/>
<stop offset="1" stop-color="#3060A8"/>
</linearGradient>
<clipPath id="clip0_400_13313">
<rect width="150" height="210" fill="white" transform="translate(0 0.078125)"/>
</clipPath>
</defs>
</svg>
