<svg width="151" height="211" viewBox="0 0 151 211" fill="none" xmlns="http://www.w3.org/2000/svg">
<g clip-path="url(#clip0_400_13319)">
<path d="M72.4045 203.12L150.172 158.654L150.333 165.399L72.4045 209.793V203.12Z" fill="#35DFFF" stroke="black" stroke-width="1.53546" stroke-linejoin="round"/>
<path d="M72.4047 203.12L0.333496 160.612L0.495309 167.554L72.4047 209.818L72.4209 203.12H72.4047Z" fill="url(#paint0_linear_400_13319)" stroke="black" stroke-width="1.53546" stroke-linejoin="round"/>
<path d="M71.8869 119.658L0.333496 160.612L72.4047 203.121L150.172 158.655L71.8869 119.642V119.658Z" fill="#40FBFF" stroke="black" stroke-width="1.53546" stroke-linejoin="round"/>
<g style="mix-blend-mode:multiply">
<path d="M56.4963 142.256C46.6464 143.305 33.1545 147.515 34.1581 152.201C35.1618 156.887 64.7146 156.5 64.7146 156.5L61.7741 173.201H76.7498C84.6598 159.233 91.656 165.616 91.656 165.616C91.656 165.616 94.6626 163.747 101.899 162.064C110.133 153.734 114.733 150.392 119.927 144.704C115.236 142.215 124.967 147.333 96.2957 131.886C67.6245 116.438 66.3463 141.207 56.4963 142.256Z" fill="black" fill-opacity="0.2"/>
</g>
<path d="M92.8806 169.278C99.0923 169.278 104.128 165.272 104.128 160.33C104.128 155.387 99.0923 151.381 92.8806 151.381C86.6689 151.381 81.6333 155.387 81.6333 160.33C81.6333 165.272 86.6689 169.278 92.8806 169.278Z" fill="#CCCACC" stroke="black" stroke-width="0.32" stroke-miterlimit="10"/>
<path d="M85.3434 122.701V122.743L85.365 122.779L85.4934 122.701L85.365 122.779L85.3652 122.779L85.3662 122.781L85.3703 122.788L85.3867 122.815C85.4014 122.84 85.4232 122.878 85.4516 122.928C85.5084 123.028 85.5916 123.178 85.6963 123.376C85.9058 123.771 86.2015 124.358 86.5451 125.123C87.2324 126.651 88.1112 128.888 88.8754 131.718C90.4039 137.376 91.4734 145.405 89.6363 154.879L89.6257 154.934L89.6529 154.982C90.0159 155.625 90.3246 156.15 90.913 156.552C91.4987 156.951 92.3455 157.218 93.7652 157.399L93.7656 157.399C95.1888 157.576 96.2428 157.472 97.0338 157.187C97.828 156.902 98.3484 156.438 98.7069 155.914L98.7288 155.882L98.7324 155.843C98.7474 155.684 98.765 155.506 98.7845 155.308C99.2344 150.744 100.693 135.947 93.7798 121.05L93.7321 120.947L93.6201 120.965C91.196 121.352 89.1561 121.747 87.7219 122.046C87.0049 122.195 86.4392 122.32 86.0526 122.408C85.8593 122.452 85.7108 122.487 85.6105 122.51L85.4967 122.537L85.4678 122.544L85.4604 122.546L85.4585 122.547L85.458 122.547L85.4579 122.547L85.4934 122.692L85.4578 122.547L85.3434 122.575V122.692V122.701Z" fill="#AFADAF" stroke="black" stroke-width="0.3"/>
<path d="M90.4237 128.211C90.8799 128.211 91.3712 128.167 91.9063 128.035C93.8891 127.571 95.1086 126.816 95.6525 125.737C95.6964 125.658 95.6525 125.561 95.5823 125.518C95.5034 125.474 95.4069 125.518 95.363 125.588C94.8717 126.579 93.7137 127.281 91.8362 127.72C89.3972 128.29 87.7127 127.149 87.6952 127.141C87.625 127.088 87.5197 127.105 87.4671 127.184C87.4145 127.255 87.432 127.36 87.511 127.413C87.5724 127.456 88.6778 128.202 90.4324 128.211H90.4237Z" fill="black"/>
<path d="M92.0819 134.264C92.5469 134.264 93.0646 134.212 93.6524 134.071C96.6704 133.343 97.3898 131.694 97.4161 131.623C97.4512 131.544 97.4161 131.448 97.3284 131.413C97.2494 131.378 97.1529 131.413 97.1178 131.501C97.1178 131.518 96.4159 133.071 93.5734 133.755C90.7397 134.44 89.5114 132.992 89.5026 132.975C89.45 132.904 89.3447 132.896 89.2745 132.948C89.2043 133.01 89.1956 133.106 89.2482 133.176C89.2921 133.229 90.1518 134.255 92.0819 134.264Z" fill="black"/>
<path d="M93.7573 140.283C94.003 140.283 94.2574 140.283 94.5294 140.256C97.9509 140.046 98.6177 138.274 98.6528 138.204C98.6791 138.116 98.6352 138.028 98.5563 137.993C98.4685 137.967 98.3808 138.011 98.3457 138.089C98.3457 138.107 97.7053 139.73 94.5118 139.932C91.292 140.134 90.5814 138.976 90.5726 138.958C90.5288 138.879 90.4235 138.853 90.3445 138.897C90.2656 138.941 90.2392 139.046 90.2831 139.125C90.3094 139.177 90.985 140.274 93.7485 140.283H93.7573Z" fill="black"/>
<path d="M93.8537 146.064C94.1344 146.064 94.4327 146.056 94.7661 146.029C98.0824 145.757 99.1001 144.152 99.1439 144.09C99.1878 144.012 99.1702 143.915 99.0913 143.862C99.0123 143.818 98.9159 143.836 98.8632 143.915C98.8545 143.933 97.8718 145.442 94.7398 145.705C91.6428 145.959 90.9059 144.784 90.9059 144.775C90.862 144.696 90.7655 144.67 90.6866 144.713C90.6076 144.757 90.5813 144.854 90.6251 144.933C90.6515 144.985 91.2919 146.056 93.8625 146.064H93.8537Z" fill="black"/>
<path d="M94.5118 151.89C94.5644 151.89 94.6082 151.89 94.6609 151.89C98.3281 151.854 99.1353 150.153 99.1703 150.082C99.2054 150.003 99.1703 149.907 99.0914 149.863C99.0124 149.828 98.9159 149.863 98.872 149.942C98.872 149.959 98.0912 151.521 94.6521 151.556C91.213 151.591 90.6778 149.837 90.6778 149.819C90.6515 149.731 90.5638 149.679 90.4761 149.705C90.3883 149.731 90.3357 149.819 90.362 149.907C90.3883 149.986 90.9586 151.872 94.5118 151.89Z" fill="black"/>
<path d="M69.5791 175.55C75.7908 175.55 80.8264 171.543 80.8264 166.601C80.8264 161.659 75.7908 157.652 69.5791 157.652C63.3674 157.652 58.3318 161.659 58.3318 166.601C58.3318 171.543 63.3674 175.55 69.5791 175.55Z" fill="#CCCACC" stroke="black" stroke-width="0.32" stroke-miterlimit="10"/>
<path d="M62.1841 128.973C62.1841 128.973 70.159 142.176 66.4742 161.179C67.2024 162.469 67.6498 163.162 70.4748 163.522C73.291 163.873 74.5895 163.101 75.2738 162.1C75.6335 158.284 77.5285 142.887 70.3344 127.385C65.4916 128.157 62.1841 128.964 62.1841 128.964V128.973Z" fill="#AFADAF" stroke="black" stroke-width="0.32"/>
<path d="M67.1136 134.474C67.5698 134.474 68.0611 134.43 68.5963 134.298C70.5791 133.833 71.7985 133.079 72.3425 132C72.3863 131.921 72.3425 131.824 72.2723 131.78C72.1933 131.736 72.0968 131.78 72.053 131.851C71.5617 132.842 70.4036 133.544 68.5261 133.982C66.0872 134.553 64.4027 133.412 64.3852 133.403C64.315 133.351 64.2097 133.368 64.157 133.447C64.1044 133.517 64.1219 133.623 64.2009 133.675C64.2623 133.719 65.3678 134.465 67.1224 134.474H67.1136Z" fill="black"/>
<path d="M68.7724 140.536C69.2374 140.536 69.755 140.483 70.3428 140.343C73.3608 139.614 74.0802 137.965 74.1065 137.895C74.1416 137.816 74.1065 137.719 74.0188 137.684C73.9398 137.649 73.8433 137.684 73.8082 137.772C73.8082 137.79 73.1064 139.342 70.2638 140.027C67.4301 140.711 66.2018 139.263 66.1931 139.246C66.1404 139.176 66.0351 139.167 65.9649 139.22C65.8948 139.281 65.886 139.378 65.9386 139.448C65.9825 139.5 66.8423 140.527 68.7724 140.536Z" fill="black"/>
<path d="M70.4482 146.546C70.6939 146.546 70.9483 146.546 71.2203 146.52C74.6418 146.31 75.3086 144.537 75.3437 144.467C75.37 144.379 75.3262 144.292 75.2472 144.257C75.1595 144.23 75.0717 144.274 75.0366 144.353C75.0366 144.371 74.3962 145.994 71.2027 146.196C67.9829 146.397 67.2723 145.239 67.2635 145.222C67.2197 145.143 67.1144 145.116 67.0354 145.16C66.9565 145.204 66.9301 145.309 66.974 145.388C67.0003 145.441 67.6759 146.538 70.4395 146.546H70.4482Z" fill="black"/>
<path d="M70.5441 152.337C70.8249 152.337 71.1232 152.328 71.4565 152.302C74.7728 152.03 75.7905 150.424 75.8344 150.363C75.8782 150.284 75.8607 150.187 75.7817 150.135C75.7028 150.091 75.6063 150.109 75.5536 150.188C75.5449 150.205 74.5623 151.714 71.4302 151.977C68.3333 152.232 67.5963 151.056 67.5963 151.047C67.5524 150.968 67.4559 150.942 67.377 150.986C67.298 151.03 67.2717 151.126 67.3156 151.205C67.3419 151.258 67.9823 152.328 70.5529 152.337H70.5441Z" fill="black"/>
<path d="M71.2022 158.161C71.2548 158.161 71.2987 158.161 71.3514 158.161C75.0186 158.126 75.8257 156.424 75.8608 156.354C75.8959 156.275 75.8608 156.178 75.7818 156.134C75.7029 156.099 75.6064 156.134 75.5625 156.213C75.5625 156.231 74.7817 157.793 71.3426 157.828C67.9035 157.863 67.3683 156.108 67.3683 156.091C67.342 156.003 67.2542 155.95 67.1665 155.977C67.0788 156.003 67.0261 156.091 67.0525 156.178C67.0788 156.257 67.649 158.144 71.2022 158.161Z" fill="black"/>
<path d="M104.066 79.011C104.06 79.0039 104.055 78.9971 104.05 78.9905C104.144 78.9398 104.283 78.8661 104.462 78.772C104.828 78.5796 105.365 78.3018 106.05 77.9607C107.396 77.2898 109.31 76.374 111.607 75.3812C122.051 91.4824 124.137 109.33 124.788 114.897C124.816 115.132 124.841 115.344 124.863 115.534C124.642 116.174 124.267 116.776 123.607 117.248C122.934 117.728 121.951 118.082 120.505 118.191C119.049 118.3 118.194 118.168 117.577 117.859C116.971 117.554 116.577 117.069 116.067 116.401C115.625 104.622 112.599 95.241 109.68 88.8013C108.219 85.5771 106.785 83.09 105.715 81.4081C105.18 80.5671 104.737 79.9274 104.426 79.4975C104.271 79.2826 104.149 79.12 104.066 79.011Z" fill="#AFADAF" stroke="black" stroke-width="0.3"/>
<path d="M120.525 118.534C120.762 118.516 120.981 118.49 121.192 118.464V118.455C123.324 118.157 124.622 117.227 125.166 115.621L120.525 118.534ZM120.525 118.534C117.586 118.753 116.91 118.06 115.788 116.577M120.525 118.534L125.022 115.579M125.022 115.579C124.759 116.351 124.318 116.956 123.687 117.406C123.053 117.859 122.221 118.16 121.171 118.306L121.042 118.325V118.331C120.873 118.352 120.699 118.371 120.514 118.384L120.514 118.384C119.053 118.493 118.182 118.373 117.541 118.059C116.9 117.746 116.47 117.23 115.907 116.487L115.788 116.577M125.022 115.579C125.022 115.579 125.022 115.578 125.022 115.577C125.023 115.571 125.024 115.564 125.024 115.555C125.024 115.547 125.025 115.539 125.025 115.533L125.025 115.533L124.947 114.867L124.947 114.867L124.945 114.846C124.258 108.994 122.183 91.3018 111.664 75.1582M125.022 115.579L111.664 75.1582M115.788 116.577C115.761 116.542 115.744 116.499 115.744 116.446C114.895 93.5624 104.1 79.5928 103.708 79.0851C103.703 79.0782 103.699 79.0738 103.698 79.0719C103.663 79.028 103.645 78.9578 103.654 78.8964C103.654 78.835 103.698 78.7824 103.742 78.756M115.788 116.577L115.908 116.487C115.903 116.481 115.899 116.475 115.897 116.469C115.895 116.463 115.894 116.455 115.894 116.446H115.894L115.894 116.44C115.893 116.42 115.892 116.4 115.891 116.379M103.742 78.756L103.809 78.8902C103.81 78.8897 103.813 78.8882 103.817 78.8857M103.742 78.756L103.819 78.8847C103.819 78.8849 103.818 78.8853 103.817 78.8857M103.742 78.756C103.744 78.7552 103.753 78.75 103.77 78.7408C104.095 78.5655 107.167 76.91 111.585 75.0011C111.655 74.966 111.734 75.0011 111.787 75.0713M103.817 78.8857C103.816 78.8868 103.814 78.8882 103.812 78.8901C103.809 78.8927 103.807 78.8953 103.805 78.8976C103.805 78.8985 103.804 78.8992 103.804 78.8998M103.817 78.8857C103.823 78.8828 103.831 78.8786 103.841 78.8731C104.185 78.6879 107.244 77.0401 111.644 75.1391M103.804 78.8998V78.8964C103.804 78.8995 103.804 78.901 103.803 78.901C103.803 78.901 103.804 78.9006 103.804 78.8998ZM103.804 78.8998V78.9071L103.803 78.9177C103.799 78.9428 103.809 78.9702 103.815 78.9782L103.818 78.9818L103.818 78.9819L103.818 78.9822L103.819 78.9829L103.821 78.9861L103.83 78.9969L103.858 79.0343C103.883 79.066 103.917 79.1113 103.961 79.1699C104.049 79.287 104.175 79.4574 104.333 79.6797C104.649 80.1245 105.095 80.7773 105.631 81.629C106.701 83.3323 108.126 85.831 109.575 89.0513C112.454 95.4521 115.426 104.704 115.885 116.226M115.885 116.226H115.775L115.891 116.379M115.885 116.226H115.93M115.885 116.226H115.93M115.891 116.379L115.958 116.467C116.442 117.104 116.85 117.626 117.51 117.951C118.17 118.276 119.062 118.395 120.501 118.289L120.501 118.289C120.734 118.271 120.948 118.244 121.158 118.218L121.16 118.218C123.178 117.932 124.45 117.074 124.974 115.565L124.986 115.533L124.982 115.499L124.912 114.876L124.912 114.876C124.236 109.083 122.171 91.462 111.729 75.3494L111.66 75.2429L111.543 75.2933C107.625 76.9886 104.788 78.4733 104.031 78.8782L103.877 78.9607L103.982 79.1005C105.337 80.908 115.066 94.5654 115.93 116.226M115.891 116.379L115.93 116.226M111.644 75.1391C111.645 75.1401 111.647 75.1414 111.65 75.1433C111.654 75.1468 111.659 75.1517 111.664 75.1582M111.644 75.1391C111.644 75.139 111.644 75.1389 111.645 75.1388L111.645 75.139L111.652 75.1352C111.65 75.1361 111.647 75.1371 111.644 75.1373C111.644 75.1373 111.644 75.1373 111.643 75.1373C111.641 75.1374 111.639 75.137 111.639 75.137C111.639 75.137 111.64 75.137 111.64 75.1371C111.641 75.1374 111.642 75.138 111.644 75.1391ZM111.787 75.0713L111.661 75.1532C111.662 75.1549 111.663 75.1565 111.664 75.1582M111.787 75.0713L111.667 75.1613C111.666 75.1602 111.665 75.1592 111.664 75.1582M111.787 75.0713L111.664 75.1582" stroke="black" stroke-width="0.3"/>
<path d="M109.708 84.4765C108.155 84.6958 107.041 84.1431 106.979 84.1168C106.892 84.0729 106.848 83.9589 106.883 83.8536C106.918 83.7571 107.014 83.7044 107.102 83.7483C107.12 83.757 109.102 84.7309 111.419 83.4939C113.208 82.5376 114.2 81.4409 114.463 80.1425C114.48 80.0372 114.577 79.9759 114.665 80.0022C114.752 80.0285 114.814 80.1425 114.787 80.2477C114.507 81.669 113.454 82.8535 111.568 83.8536C110.91 84.2046 110.278 84.3888 109.708 84.4677V84.4765Z" fill="black"/>
<path d="M112.901 91.3291C111.173 91.5748 110.19 90.6624 110.137 90.6185C110.067 90.5483 110.05 90.4255 110.102 90.3377C110.155 90.25 110.269 90.2413 110.339 90.3115C110.401 90.3729 111.954 91.7766 114.629 90.3115C117.332 88.8376 117.656 86.8285 117.656 86.8022C117.674 86.6969 117.761 86.6267 117.849 86.653C117.946 86.6793 118.007 86.7846 117.99 86.8899C117.981 86.9776 117.647 89.1095 114.778 90.6711C114.077 91.0571 113.445 91.2502 112.892 91.3291H112.901Z" fill="black"/>
<path d="M115.753 98.1809C113.454 98.5055 112.647 97.5228 112.612 97.4702C112.551 97.3912 112.551 97.2597 112.612 97.1895C112.682 97.1193 112.787 97.1281 112.849 97.2071C112.866 97.2246 113.91 98.4353 117.06 97.4702C120.227 96.5051 120.482 94.4171 120.482 94.3996C120.49 94.2943 120.578 94.2154 120.666 94.2329C120.762 94.2505 120.824 94.3558 120.815 94.461C120.806 94.5575 120.561 96.821 117.157 97.8563C116.63 98.0142 116.165 98.1195 115.744 98.1809H115.753Z" fill="black"/>
<path d="M117.322 105.058C115.155 105.366 114.383 104.392 114.348 104.339C114.287 104.251 114.287 104.129 114.357 104.058C114.427 103.988 114.533 103.997 114.594 104.076C114.611 104.093 115.629 105.322 118.691 104.313C121.788 103.295 122.42 101.26 122.42 101.233C122.446 101.128 122.542 101.084 122.63 101.119C122.718 101.154 122.771 101.277 122.735 101.374C122.709 101.462 122.069 103.611 118.787 104.69C118.235 104.874 117.752 104.98 117.314 105.041L117.322 105.058Z" fill="black"/>
<path d="M119.332 111.885C116.244 112.323 115.331 110.437 115.287 110.349C115.243 110.253 115.27 110.13 115.349 110.086C115.428 110.042 115.533 110.078 115.577 110.174C115.612 110.253 116.568 112.166 120.007 111.35C123.464 110.525 123.868 108.472 123.868 108.454C123.885 108.349 123.973 108.279 124.069 108.305C124.157 108.332 124.218 108.437 124.201 108.542C124.183 108.639 123.78 110.85 120.086 111.736C119.814 111.797 119.56 111.85 119.323 111.885H119.332Z" fill="black"/>
<path d="M101.154 82.7223C96.2142 82.5469 97.3898 67.9482 102.329 68.1236C107.268 68.2991 113.489 72.7647 112.462 76.1775C111.067 80.8449 106.093 82.889 101.154 82.7136V82.7223Z" fill="#BFBDBF" stroke="black" stroke-width="0.32" stroke-miterlimit="10"/>
<path d="M106.233 71.4043L99.3022 122.596C99.2145 123.228 99.039 123.842 98.767 124.412C97.5036 127.035 93.2486 134.08 83.7297 134.475C72.0261 134.958 61.586 130.431 59.9629 125.491C58.3399 120.552 50.7773 71.3955 50.7773 71.3955H106.233V71.4043Z" fill="#AFADAF" stroke="black" stroke-width="0.32" stroke-miterlimit="10"/>
<path d="M64.6044 88.8189L68.9121 128.448C68.9559 128.816 69.1928 129.132 69.535 129.264C71.351 129.948 77.3782 131.861 84.6425 130.194C91.6435 128.588 95.6442 125.158 96.9426 123.859C97.2584 123.552 97.4427 123.14 97.4865 122.701L101.487 83.5462C101.513 83.3093 101.259 83.1515 101.066 83.2831C99.6272 84.2394 94.9423 86.959 86.5287 88.4154C78.1152 89.8718 68.4909 88.5119 65.4642 87.9943C64.9728 87.9066 64.5342 88.3189 64.5956 88.8189H64.6044Z" stroke="black" stroke-width="0.32" stroke-miterlimit="10"/>
<path d="M96.1003 107.899C97.32 106.679 97.7171 105.099 96.9874 104.369C96.2576 103.639 94.6772 104.037 93.4575 105.256C92.2378 106.476 91.8406 108.056 92.5704 108.786C93.3002 109.516 94.8805 109.119 96.1003 107.899Z" stroke="black" stroke-width="0.32" stroke-miterlimit="10"/>
<path d="M120.65 122.952C120.553 122.105 119.788 121.497 118.94 121.594C118.093 121.691 117.485 122.456 117.582 123.304L118.297 129.536C118.394 130.383 119.159 130.991 120.007 130.894C120.854 130.797 121.462 130.031 121.365 129.184L120.65 122.952Z" fill="#AFADAF" stroke="black" stroke-width="0.32" stroke-miterlimit="10"/>
<path d="M125.457 122.591C125.359 121.743 124.594 121.135 123.747 121.232C122.899 121.329 122.291 122.095 122.389 122.942L123.103 129.174C123.2 130.022 123.966 130.63 124.813 130.533C125.66 130.435 126.268 129.67 126.171 128.823L125.457 122.591Z" fill="#AFADAF" stroke="black" stroke-width="0.32" stroke-miterlimit="10"/>
<path d="M116.068 115.743C116.068 115.743 114.173 121.735 114.91 123.139C115.647 124.543 120.394 126.841 123.517 125.92C126.64 125.008 128.623 123.06 128.035 121.174C127.447 119.288 124.912 115.252 124.912 115.252C124.912 115.252 122.789 117.261 120.122 117.287C117.455 117.314 116.06 115.735 116.06 115.735L116.068 115.743Z" fill="#BFBDBF" stroke="black" stroke-width="0.32" stroke-miterlimit="10"/>
<path d="M20.3979 86.8989C22.0747 86.8999 24.3758 86.1631 26.2619 85.4267C27.2387 85.0454 28.1114 84.6612 28.7398 84.3723C29.0541 84.2278 29.3075 84.1071 29.4824 84.0225C29.5145 84.007 29.5439 83.9927 29.5706 83.9797C29.5765 84.0165 29.5833 84.058 29.591 84.1039C29.6258 84.3123 29.6779 84.6114 29.7476 84.9751C29.8867 85.7023 30.0959 86.6885 30.3757 87.7235C30.6553 88.7577 31.0066 89.8448 31.4309 90.772C31.8526 91.6935 32.3567 92.4807 32.9537 92.8889C33.5637 93.3082 34.2778 93.3335 35.0161 93.1154C35.7516 92.8982 36.5255 92.4363 37.2805 91.8577C38.7916 90.6998 40.2634 89.0461 41.2524 87.8328L41.2526 87.8326C42.2402 86.6158 43.2043 85.2002 44.0589 83.9056C44.2722 83.5826 44.4784 83.2675 44.6764 82.9649C45.2743 82.0512 45.7973 81.2519 46.2132 80.6952L46.2074 80.6883C47.7523 78.6324 50.1541 78.4483 52.0373 79.6952C52.5177 80.0141 53.4953 80.8386 53.9891 82.1381C54.4791 83.4276 54.5025 85.2092 53.0383 87.4724L53.0382 87.4726C52.6293 88.1066 52.1851 88.8586 51.6972 89.6847C50.7727 91.2498 49.6914 93.0804 48.3961 94.8773C46.4223 97.6154 43.978 100.233 40.9077 101.621C37.8022 103.025 35.0023 104.09 32.3902 104.226C29.7901 104.361 27.3679 103.574 25.011 101.247L25.0109 101.247C23.8549 100.108 20.4657 95.0361 20.3979 86.8989Z" fill="#AFADAF" stroke="black" stroke-width="0.3"/>
<path d="M24.8617 101.397L24.8618 101.397C26.9517 103.461 29.2224 104.45 31.8276 104.45H31.8452C34.6 104.45 37.4868 103.411 41.0039 101.814L41.0041 101.814C43.5752 100.652 45.7246 98.6192 47.5201 96.3847C49.3153 94.1506 50.749 91.7251 51.8944 89.7853C51.8945 89.7853 51.8945 89.7852 51.8945 89.7852L51.9167 89.7473C52.3817 88.9552 52.8232 88.203 53.2225 87.5866M24.8617 101.397L53.3484 87.6682M24.8617 101.397C23.6722 100.224 20.2126 94.9818 20.1952 86.7554L20.0452 86.7557H20.1952C20.1952 86.7456 20.1969 86.7391 20.1983 86.7357C20.1993 86.7332 20.2 86.7327 20.2002 86.7325L20.2003 86.7324L20.2068 86.7272M24.8617 101.397L20.2068 86.7272M53.2225 87.5866L53.3484 87.6682M53.2225 87.5866C53.2225 87.5867 53.2224 87.5867 53.2224 87.5868L53.3484 87.6682M53.2225 87.5866C54.8504 85.0648 54.6851 83.1293 54.0782 81.7917C53.4657 80.442 52.3919 79.676 52.1691 79.5289L52.1688 79.5287C51.3578 78.9909 50.4652 78.7115 49.5759 78.7115C48.2071 78.7115 46.9602 79.3692 46.0554 80.5811M53.3484 87.6682C56.6559 82.5446 52.7167 79.7108 52.2518 79.4037C51.4183 78.851 50.4971 78.5615 49.5759 78.5615C48.1547 78.5615 46.865 79.2458 45.935 80.4916M46.0554 80.5811C46.0555 80.581 46.0556 80.5808 46.0557 80.5807L45.935 80.4916M46.0554 80.5811C46.0553 80.5812 46.0553 80.5812 46.0552 80.5813L45.935 80.4916M46.0554 80.5811C45.6475 81.1335 45.1474 81.8946 44.5601 82.7882L44.5165 82.8546M45.935 80.4916C45.5246 81.0474 45.0224 81.8116 44.4367 82.7029L44.3909 82.7726M44.3909 82.7726L44.5165 82.8546M44.3909 82.7726L44.5163 82.855M44.3909 82.7726L44.5163 82.855M44.5165 82.8546C44.5164 82.8547 44.5164 82.8549 44.5163 82.855M44.5165 82.8546L44.5163 82.855M20.2068 86.7272L20.2112 86.7228M20.2068 86.7272L20.2112 86.7228M20.2112 86.7228C20.2121 86.7223 20.2154 86.7204 20.2219 86.7182C20.2319 86.7149 20.2436 86.7129 20.2539 86.7127C20.2545 86.7127 20.2551 86.7127 20.2557 86.7127V86.5627C23.4843 86.668 29.5378 83.6237 29.5992 83.5886L20.2112 86.7228ZM29.7183 83.724C29.6987 83.7168 29.6821 83.7171 29.6623 83.7248L29.7183 83.724ZM29.7183 83.724C29.719 83.7246 29.7199 83.7252 29.7209 83.7262C29.7238 83.7287 29.727 83.7323 29.7301 83.7367C29.7369 83.7463 29.7397 83.7549 29.7403 83.759L29.7183 83.724ZM33.067 92.7396C33.0671 92.7397 33.0672 92.7397 33.0673 92.7398L33.1524 92.6163L33.0666 92.7393C33.0667 92.7394 33.0668 92.7395 33.067 92.7396ZM20.44 86.8075H20.2885L20.29 86.959C20.3693 95.0059 23.7262 100.142 24.9319 101.33L24.932 101.33C26.9915 103.354 29.2477 104.347 31.8276 104.347C34.5739 104.347 37.4689 103.29 40.9434 101.719L40.9435 101.719C43.5137 100.556 45.6589 98.5116 47.4416 96.2862C49.2245 94.0606 50.6529 91.6437 51.784 89.7277C51.8841 89.5604 51.9825 89.3951 52.0792 89.2327C52.45 88.6101 52.7961 88.0289 53.1149 87.5299C54.6886 85.0912 54.556 83.18 53.9535 81.8372C53.3564 80.5064 52.3092 79.7589 52.0893 79.6123C51.3033 79.0883 50.4325 78.8151 49.5584 78.8151C48.2156 78.8151 46.9975 79.474 46.1219 80.6476L46.2421 80.7373L46.1218 80.6476C45.7061 81.2049 45.1856 81.9989 44.59 82.9099L44.5897 82.9103C43.6154 84.4113 42.4 86.2646 41.1689 87.7752L41.1689 87.7752C40.3465 88.7857 39.1597 90.1378 37.8863 91.236C37.2496 91.7851 36.5947 92.2677 35.9558 92.6124C35.3156 92.9578 34.7015 93.1593 34.1438 93.1593C33.7156 93.1593 33.3338 93.0445 33.0103 92.818L33.0092 92.8172C32.5232 92.4836 32.0804 91.8653 31.6865 91.0816C31.2945 90.3017 30.9594 89.3753 30.6806 88.4454C30.1229 86.5858 29.7952 84.7289 29.686 84.0389L29.6543 83.8385L29.472 83.9276C28.8909 84.2116 27.378 84.9265 25.6363 85.5733C23.89 86.2219 21.9332 86.7944 20.4568 86.8075H20.44Z" stroke="black" stroke-width="0.3"/>
<path d="M50.2691 92.3456C50.2691 91.4595 50.0848 88.6082 47.6371 87.0465C44.7156 85.1778 42.882 85.8358 42.8557 85.8446C42.7504 85.8885 42.6363 85.827 42.6012 85.7305C42.5661 85.6253 42.6188 85.5113 42.7153 85.4762C42.7943 85.4411 44.7595 84.7479 47.8477 86.7219C50.0322 88.1169 50.5323 90.4681 50.6375 91.7578C50.6814 92.3017 50.2603 92.5299 50.2603 92.3632L50.2691 92.3456Z" fill="black"/>
<path d="M45.0662 99.3115C45.0662 99.3115 45.0312 99.3115 45.0049 99.3027C44.8996 99.2676 44.8381 99.1623 44.8732 99.057C44.882 99.0219 45.9436 95.4074 43.3467 93.0562C40.7235 90.6786 38.4951 90.8891 38.4688 90.8891C38.3635 90.8979 38.2582 90.8189 38.2494 90.7137C38.2407 90.6084 38.3196 90.5031 38.4249 90.4943C38.5214 90.4856 40.8463 90.2574 43.6099 92.7666C46.3998 95.2933 45.2593 99.1448 45.2505 99.1799C45.2242 99.2676 45.1452 99.3202 45.0575 99.3202L45.0662 99.3115Z" fill="black"/>
<path d="M35.9336 103.794C35.9336 103.794 35.8634 103.785 35.8283 103.759C35.7318 103.697 35.7055 103.574 35.7669 103.487C35.916 103.259 39.2762 97.7841 34.1877 93.2659C34.1087 93.1957 34.1 93.064 34.1702 92.9851C34.2403 92.9061 34.3719 92.8973 34.4509 92.9675C39.7938 97.7138 36.1353 103.645 36.1003 103.697C36.0652 103.759 35.995 103.794 35.9336 103.794Z" fill="black"/>
<path d="M26.336 99.4514C24.555 99.4514 23.0109 98.8023 22.9144 98.7584C22.8091 98.7146 22.7653 98.6005 22.8091 98.4952C22.853 98.3899 22.9671 98.346 23.0723 98.3899C23.1074 98.4075 26.2131 99.7059 28.5907 98.5829C32.5299 96.723 32.8282 92.8013 32.8282 92.7574C32.8282 92.6434 32.9247 92.5732 33.0387 92.5732C33.1528 92.5732 33.2317 92.6785 33.223 92.7838C33.223 92.8277 32.9071 96.9774 28.7574 98.9426C27.9766 99.3111 27.1344 99.4427 26.336 99.4427V99.4514Z" fill="black"/>
<path d="M24.309 93.8187C22.221 93.8187 20.8787 93.0554 20.8173 93.0115C20.7208 92.9589 20.6945 92.836 20.7471 92.7395C20.7997 92.643 20.9226 92.6167 21.0191 92.6694C21.0366 92.6781 22.8351 93.7046 25.4671 93.3361C28.6343 92.8975 30.9767 89.6514 30.9943 89.6163C31.0557 89.5286 31.1785 89.5022 31.275 89.5724C31.3627 89.6338 31.3891 89.7567 31.3189 89.8532C31.2224 89.9936 28.8624 93.2659 25.5198 93.7309C25.0899 93.7923 24.6863 93.8187 24.309 93.8187Z" fill="black"/>
<path d="M51.9269 76.168C52.8217 77.6682 53.4271 79.1596 54.6378 82.5987C55.6555 85.4939 56.4363 88.819 56.2608 89.7753C55.8748 91.8721 54.1026 92.6879 52.3217 91.5474C50.1985 90.1875 49.2422 80.4756 48.7948 79.5895C48.6193 79.2385 48.1105 79.2297 47.821 79.2561C47.6982 79.2648 47.5929 79.1771 47.5841 79.0631C47.5052 78.5191 47.3472 77.0892 47.6192 76.168C48.014 74.8081 49.6721 74.3694 50.4354 74.7554C51.1987 75.1414 51.6637 75.7205 51.9269 76.168Z" fill="#BFBDBF" stroke="black" stroke-width="0.32" stroke-miterlimit="10"/>
<path d="M24.1682 67.8409L15.2019 67.332L16.939 82.7379C16.9741 83.2906 17.2022 83.8433 17.6145 84.3609L17.8514 85.4225C17.9918 86.2208 18.5884 86.9929 19.6412 87.607C22.0801 89.037 26.0368 89.0634 28.4758 87.6773C29.476 87.107 30.0638 86.3963 30.248 85.6506L30.5288 84.475C30.906 84.0188 31.1341 83.5362 31.1955 83.0362L33.1344 67.4461L24.1594 67.8497L24.1682 67.8409Z" fill="#603813"/>
<path d="M31.1869 70.7623C27.3091 72.9732 21.0274 72.9205 17.1497 70.657C13.2719 68.3935 13.2807 64.7614 17.1497 62.5506C21.0274 60.3397 27.3091 60.3924 31.1869 62.6558C35.0646 64.9193 35.0559 68.5515 31.1869 70.7623Z" fill="#EADCDB"/>
<path d="M30.9325 69.6222C27.1951 71.7453 21.1503 71.7014 17.4129 69.5169C13.6843 67.3323 13.6843 63.8406 17.4129 61.7087C21.1503 59.5856 27.1951 59.6295 30.9325 61.814C34.6611 63.9985 34.6611 67.4903 30.9325 69.6222Z" fill="#FFF8F8"/>
<path d="M32.0639 64.4891L31.6428 62.7959L31.2217 63.0416C30.862 62.6468 30.397 62.2783 29.8267 61.9449C26.7122 60.1201 21.65 60.085 18.5355 61.8572C17.9565 62.1818 17.4915 62.5502 17.1231 62.945L16.7283 62.7082L16.2896 64.4014C15.9211 65.7964 16.6668 67.2878 18.5355 68.3757C21.65 70.2005 26.7122 70.2356 29.8267 68.4634C31.713 67.3931 32.4499 65.9016 32.0639 64.4891Z" fill="#EADCDB"/>
<path d="M29.5198 60.3043C26.5808 58.5847 21.8169 58.5496 18.8779 60.2253C15.9388 61.901 15.9388 64.6558 18.8779 66.3754C21.8169 68.0949 26.5808 68.13 29.5198 66.4543C32.4588 64.7786 32.4588 62.0238 29.5198 60.3043Z" fill="#FFF8F8"/>
<path d="M30.1871 86.5377C30.1871 86.5377 33.5209 85.2129 33.5648 81.0193C33.6087 76.8257 30.7047 74.0358 28.0201 73.6937C25.3355 73.3515 24.1072 74.922 24.4231 76.7205C24.7389 78.519 24.7301 80.3438 27.134 80.3C29.5379 80.2561 30.0292 81.0544 30.5117 81.8089C30.4064 83.3179 30.1871 86.5377 30.1871 86.5377Z" fill="#BFBDBF" stroke="black" stroke-width="0.32" stroke-miterlimit="10"/>
<path d="M15.6581 71.5264C15.6581 71.5264 12.3331 72.5002 12.763 75.0005C13.1929 77.5009 15.0352 77.7379 16.4477 77.694C16.1143 74.9918 15.6581 71.5264 15.6581 71.5264Z" fill="#BFBDBF" stroke="black" stroke-width="0.32" stroke-miterlimit="10"/>
<path d="M17.2723 84.3361C17.2723 84.3361 14.3859 84.3098 14.0437 81.2128C13.7016 78.1159 16.5178 78.2211 16.5178 78.2211L17.2723 84.3448V84.3361Z" fill="#BFBDBF" stroke="black" stroke-width="0.32" stroke-miterlimit="10"/>
<path d="M106.383 71.931C106.383 79.3269 93.7052 85.319 78.0713 85.319C62.4374 85.319 49.76 79.3269 49.76 71.931C49.76 64.5352 62.4374 55.9023 78.0713 55.9023C93.7052 55.9023 106.383 64.5352 106.383 71.931Z" fill="#CCCACC" stroke="black" stroke-width="0.32" stroke-miterlimit="10"/>
<path d="M61.0249 29.0825L61.9549 62.3594C62.0514 65.9564 69.2981 68.6849 78.1503 68.448C87.0025 68.2112 94.1 65.1142 94.0035 61.5084L93.0736 28.2314L61.0249 29.0737V29.0825Z" fill="#AFADAF" stroke="black" stroke-width="0.33" stroke-miterlimit="10"/>
<path d="M92.7138 51.4546C92.8103 51.5248 92.9156 51.7881 92.9243 51.9109C92.9682 52.6303 93.091 55.1394 92.6348 57.1309C91.8189 60.7455 86.4409 63.088 81.37 63.5091C76.299 63.9302 72.0265 63.4301 70.342 61.5439C68.6575 59.6576 68.7891 56.7362 68.9295 56.122C69.0962 55.4026 70.2806 54.3849 74.3777 54.0164C85.6074 53.0075 89.8625 51.481 90.3099 51.402C92.319 51.0423 92.5032 51.3055 92.7138 51.4634V51.4546Z" fill="#48494E" stroke="black" stroke-width="0.32" stroke-miterlimit="10"/>
<path d="M91.0907 51.2803C90.8626 51.3066 90.617 51.3417 90.3099 51.4031C89.8537 51.4821 85.5987 53.0086 74.3777 54.0175C70.2718 54.386 69.0962 55.4037 68.9295 56.1231C68.7891 56.7373 68.6575 59.6587 70.342 61.545C72.0352 63.4312 76.3078 63.9313 81.37 63.5102C85.0898 63.2031 88.9676 61.8521 91.0907 59.7377V51.2803Z" fill="#FFFBD1"/>
<path d="M91.0907 51.8574V51.2871H91.0293C91.0293 51.2871 90.5643 52.103 89.3624 52.9891V51.6644C89.2484 51.6907 89.1255 51.7345 88.9852 51.7696V53.2699C88.3623 53.6822 87.5551 54.1472 86.5286 54.5946V52.3399C86.4058 52.3575 86.283 52.3837 86.1514 52.4101V54.7526C85.3092 55.1123 84.3353 55.4632 83.1948 55.7878C83.0808 55.8141 82.9579 55.8316 82.8439 55.8667V53.0154C82.721 53.0242 82.5982 53.0417 82.4666 53.0681V55.9633C81.4314 56.1914 80.3259 56.3054 79.2293 56.3317V53.5155C79.1065 53.533 78.9836 53.5418 78.8521 53.5506V56.3493C77.4922 56.3581 76.1587 56.2528 74.9479 56.1036V53.9717C74.8251 53.9805 74.7023 53.998 74.5707 54.0068V56.051C73.2196 55.8755 72.044 55.6474 71.2106 55.4632V54.5595C71.079 54.5946 70.9474 54.6385 70.8333 54.6824V55.3667C70.2455 55.2351 69.8244 55.1386 69.8068 55.1298C69.8068 55.1298 69.6489 55.2175 69.5963 55.2526C69.5349 55.2965 69.377 55.4281 69.377 55.4281C69.3945 55.4281 70.1841 55.6123 70.8333 55.7527V60.385C70.2455 60.2534 69.4296 60.0867 69.412 60.0779C69.412 60.0779 69.4822 60.2621 69.5085 60.3235C69.5261 60.3674 69.605 60.4902 69.605 60.4902C69.6226 60.4902 70.1753 60.6306 70.8245 60.771V62.008C70.9386 62.1045 71.0702 62.1835 71.2018 62.2712V60.8587C72.0528 61.0429 73.2196 61.2711 74.5619 61.4553V63.403C74.6848 63.4117 74.8076 63.4381 74.9392 63.4556V61.4904C76.0885 61.6308 77.3431 61.736 78.6152 61.736C78.6941 61.736 78.7731 61.7273 78.8521 61.7273V63.6486C78.9749 63.6486 79.0977 63.6486 79.2293 63.6399V61.7185C80.3347 61.6922 81.4314 61.5781 82.4666 61.3588V63.3942C82.5982 63.3766 82.721 63.3591 82.8439 63.3415V61.2711C82.993 61.2448 83.1422 61.2184 83.3001 61.1658C84.3967 60.8587 85.3355 60.5254 86.1514 60.1832V62.5432L86.5286 62.4116V60.034C87.5463 59.5953 88.3447 59.1567 88.9852 58.7444V61.2974C89.1168 61.2272 89.2396 61.157 89.3624 61.0693V58.49C90.3538 57.8057 90.8538 57.2178 91.0819 56.8932V56.1563C91.0819 56.1563 90.5556 57.1213 89.3624 58.0162V53.4716C90.3626 52.7786 90.8714 52.182 91.0819 51.8574H91.0907ZM74.5707 61.0693C73.2196 60.8938 72.044 60.6657 71.2106 60.4815V55.8404C72.0616 56.0247 73.2284 56.2528 74.5707 56.437V61.0693ZM78.8521 61.3588C77.4922 61.3676 76.1587 61.2623 74.9479 61.1132V56.4721C76.0972 56.6124 77.3518 56.7178 78.6239 56.7178C78.7029 56.7178 78.7819 56.709 78.8608 56.709V61.3588H78.8521ZM82.4666 60.9728C81.4314 61.2009 80.3259 61.315 79.2293 61.3413V56.7002C80.3347 56.6739 81.4314 56.5598 82.4666 56.3405V60.9728ZM86.1514 59.7796C85.3092 60.1305 84.3353 60.4727 83.1948 60.8061C83.0808 60.8324 82.9579 60.85 82.8439 60.885V56.2527C82.993 56.2264 83.1422 56.2001 83.3001 56.1475C84.3967 55.8404 85.3355 55.4983 86.1514 55.1649V59.7796ZM88.9852 58.2794C88.3623 58.6917 87.5551 59.1567 86.5286 59.6041V55.007C87.5463 54.5683 88.3447 54.1297 88.9852 53.7173V58.2794Z" fill="black"/>
<path d="M70.8425 37.1801C70.8425 37.1801 68.193 39.6103 68.4123 42.9968C68.6316 46.3833 75.4046 54.1125 75.4046 54.1125C75.4046 54.1125 83.8006 52.6386 86.7396 52.121C89.24 51.6823 95.0391 50.6646 96.7236 50.3663C97.0745 50.3049 97.4079 50.147 97.6711 49.9013C98.4343 49.1732 99.8556 47.322 99.8556 43.5846C99.8556 39.5928 97.0482 37.1801 97.0482 37.1801L92.5563 33.6445L70.8337 37.1801H70.8425Z" fill="#CCCACC" stroke="black" stroke-width="0.33" stroke-miterlimit="10"/>
<path d="M75.6498 42.6103C75.6498 42.6103 74.1233 44.0666 74.1233 47.3566C74.1233 51.6994 76.2025 52.9715 76.2025 52.9715L95.8985 49.2253C96.1178 49.1815 96.3108 49.0674 96.4512 48.8831C96.9864 48.1462 98.083 46.7162 98.083 44.0579C98.083 41.2329 97.2408 38.9694 96.4161 38.908C95.5914 38.8466 75.6586 42.619 75.6586 42.619L75.6498 42.6103Z" fill="#010102"/>
<path d="M94.898 39.5586C94.898 39.5586 96.2403 44.1733 94.1786 46.3666C92.1169 48.56 88.9409 49.2355 86.7915 48.2441C84.642 47.2527 83.1243 42.831 83.1243 42.831L94.898 39.5586Z" fill="#FFFBD1" stroke="black" stroke-width="0.32" stroke-linejoin="round"/>
<path d="M87.1428 44.0497C87.1428 44.0497 87.2569 45.0323 87.9763 45.392C88.6957 45.7517 89.7134 45.5236 89.9678 44.8218C90.2222 44.1199 89.7485 42.9882 89.4151 43.0233C89.0817 43.0584 87.485 43.4794 87.3358 43.5496C87.1867 43.6198 87.1428 44.0497 87.1428 44.0497Z" fill="#000002"/>
<path d="M84.8705 45.5668C84.7038 46.9968 84.2388 48.9971 82.5543 49.9797C80.1154 51.4186 77.0623 51.1817 75.3866 49.7166C75.0005 49.3744 74.6759 49.0497 74.4917 48.4619C74.3075 47.8741 74.3689 46.488 74.5794 45.5229C74.79 44.5579 75.1234 43.8735 75.1234 43.8735L84.5458 43.6191C84.5458 43.6191 84.9407 44.9176 84.8705 45.5668Z" fill="#FFFBD1" stroke="black" stroke-width="0.32" stroke-linejoin="round"/>
<path d="M76.0013 45.6461C76.0013 45.6461 75.8258 46.6199 76.4049 47.1814C76.9839 47.7429 78.0279 47.8218 78.4754 47.2253C78.9228 46.6287 78.8088 45.4092 78.4754 45.3478C78.142 45.2864 76.4926 45.2074 76.3347 45.2337C76.1768 45.26 76.0013 45.6549 76.0013 45.6549V45.6461Z" fill="#000002"/>
<path d="M75.4133 43.2955C75.4133 43.2955 79.1683 44.1027 82.9057 43.7956C84.8796 43.6377 90.3454 41.5321 91.9509 40.6636C92.6352 40.2951 93.3809 39.7336 93.609 39.5143C93.7406 39.3827 93.6617 39.3388 93.3985 39.3827C90.8016 39.8827 76.3784 42.6814 76.0625 42.7691C75.5625 42.9007 75.4045 43.2868 75.4045 43.2868L75.4133 43.2955Z" fill="#010102"/>
<path d="M93.1175 28.583C93.1175 32.6714 85.9235 35.9789 77.0362 35.9789C68.1489 35.9789 60.9548 32.6626 60.9548 28.583C60.9548 24.5035 68.1489 16.1338 77.0362 16.1338C85.9235 16.1338 93.1175 24.4947 93.1175 28.583Z" fill="#CCCACC" stroke="black" stroke-width="0.33" stroke-miterlimit="10"/>
<path d="M76.773 19.765C79.5251 19.765 81.7562 18.7241 81.7562 17.4401C81.7562 16.1561 79.5251 15.1152 76.773 15.1152C74.0208 15.1152 71.7898 16.1561 71.7898 17.4401C71.7898 18.7241 74.0208 19.765 76.773 19.765Z" fill="#AFADAF" stroke="black" stroke-width="0.33" stroke-miterlimit="10"/>
<path d="M74.5354 2.61336L75.0706 16.8173C75.0706 16.8173 75.2811 17.0629 76.3515 17.0629C77.4218 17.0629 78.0886 16.4839 78.0886 16.4839L75.404 2.11328H74.5354V2.60458V2.61336Z" fill="#AFADAF" stroke="black" stroke-width="0.33" stroke-miterlimit="10"/>
<path d="M75.0797 3.71026C76.0827 3.71026 76.8958 2.89718 76.8958 1.89419C76.8958 0.89121 76.0827 0.078125 75.0797 0.078125C74.0768 0.078125 73.2637 0.89121 73.2637 1.89419C73.2637 2.89718 74.0768 3.71026 75.0797 3.71026Z" fill="#484850"/>
</g>
<defs>
<linearGradient id="paint0_linear_400_13319" x1="0.333496" y1="185.337" x2="72.5827" y2="185.337" gradientUnits="userSpaceOnUse">
<stop stop-color="#2CB8DB"/>
<stop offset="1" stop-color="#2CB8DB"/>
</linearGradient>
<clipPath id="clip0_400_13319">
<rect width="150" height="210" fill="white" transform="translate(0.333496 0.078125)"/>
</clipPath>
</defs>
</svg>
