<svg width="151" height="211" viewBox="0 0 151 211" fill="none" xmlns="http://www.w3.org/2000/svg">
<g clip-path="url(#clip0_400_13316)">
<path d="M72.4829 203.38L150.25 158.914L150.412 165.659L72.4829 210.053V203.38Z" fill="#35DFFF" stroke="black" stroke-width="1.53546" stroke-linejoin="round"/>
<path d="M72.4831 203.38L0.411865 160.872L0.573678 167.814L72.4831 210.078L72.4992 203.38H72.4831Z" fill="url(#paint0_linear_400_13316)" stroke="black" stroke-width="1.53546" stroke-linejoin="round"/>
<path d="M71.9653 119.918L0.411865 160.872L72.4831 203.38L150.25 158.914L71.9653 119.901V119.918Z" fill="#40FBFF" stroke="black" stroke-width="1.53546" stroke-linejoin="round"/>
<g style="mix-blend-mode:multiply">
<path d="M22.5417 154.489L35.8611 176.973C44.2065 162.236 45.6436 158.803 45.6436 158.803C45.6436 158.803 59.6601 150.301 67.2952 148.525C73.1214 139.786 78.2737 131.743 82.9976 124.815C78.89 124.291 73.3216 119.201 71.3464 120.294C69.3712 121.387 30.2197 143.849 25.4372 147.074L22.5417 154.489Z" fill="black" fill-opacity="0.2"/>
</g>
<path d="M53.0557 12.421L44.6532 9.02277C44.1652 8.82757 43.6062 8.89857 43.198 9.20911L41.0597 11.1877C40.9178 11.3208 40.9 11.5426 41.0242 11.7024C41.1573 11.8709 41.4058 11.8975 41.5655 11.7644L43.8635 9.80357C44.0587 9.63499 44.3338 9.59951 44.5645 9.70598L53.8187 14.5682L53.5082 12.5719L53.0557 12.4387V12.421Z" fill="#636363"/>
<path d="M52.6565 12.465L44.254 9.06671C43.766 8.87151 43.207 8.94251 42.7989 9.25306L40.6606 11.2317C40.5186 11.3648 40.5008 11.5866 40.6251 11.7463C40.7582 11.9149 41.0066 11.9415 41.1663 11.8084L43.4643 9.84752C43.6595 9.67893 43.9346 9.64346 44.1653 9.74993L53.4196 14.6122L53.3929 12.6602L52.6565 12.4739V12.465Z" fill="#34383B"/>
<path d="M85.9651 67.9992L86.2934 67.2007C86.3999 66.9345 86.3821 66.6328 86.32 66.3666C86.2579 66.0916 86.045 65.852 86.0272 65.5769C86.0183 65.3995 86.1071 65.2309 86.1603 65.0535C86.3289 64.5211 86.1248 63.8911 85.6812 63.554C85.2375 63.2168 84.6431 63.1902 84.093 63.1015C83.7558 63.0482 83.4186 62.9595 83.0903 62.8441C82.9927 62.8086 82.8863 62.7643 82.8242 62.6755C82.6467 62.4093 83.9066 61.8859 83.8623 61.3624C83.7824 60.2533 80.9875 61.5576 79.7098 61.5753C78.8847 61.5753 77.2609 61.7262 76.2051 61.8327C75.9833 61.7528 75.7792 61.6818 75.5574 61.5931C75.4509 61.5576 75.3444 61.5221 75.238 61.4866C75.238 61.4866 69.2311 56.4469 67.5187 54.7167C66.2854 53.4657 65.6199 51.3096 64.9633 49.7036C64.1204 47.6185 63.3751 45.4003 62.683 43.2797C62.2305 41.8956 59.0275 33.1825 55.576 31.5677C52.1245 29.9529 48.7706 31.825 48.7706 31.825C46.233 31.8872 50.8202 41.4342 51.1307 42.0376C52.3197 44.3267 54.0942 46.2432 55.78 48.1686C56.4366 48.9228 57.3062 49.606 57.8563 50.4134C58.575 51.4604 59.1783 52.8712 59.3735 54.1222C59.4711 54.7433 59.4888 55.6838 59.7905 56.2428C60.1099 56.8373 60.9972 57.3253 61.5207 57.7512C62.7185 58.736 69.4352 64.0863 69.4352 64.0863C69.5594 64.1484 69.6836 64.2017 69.7901 64.2727C70.4822 64.7341 71.1299 65.1865 71.8308 65.6213C72.3011 65.9141 72.6826 66.3311 73.0464 66.7481C73.1174 66.828 73.1884 66.9167 73.2682 67.0054L73.215 67.1474C73.215 67.1474 73.3569 67.245 73.6054 67.4047C74.1644 68.0702 74.75 68.7623 75.5219 69.1438C76.4535 69.6052 77.0924 69.9601 77.8111 69.8004C80.1357 70.9804 81.4489 71.0514 82.5757 71.3709C83.7647 71.6992 83.4896 72.1162 85.486 70.315C87.4824 68.5138 85.9474 67.9903 85.9474 67.9903L85.9651 67.9992Z" fill="#A65745"/>
<path d="M52.3105 30.442C52.3105 30.442 56.3743 29.8918 59.2402 34.8517C62.106 39.8116 63.6765 44.0616 63.6765 44.0616C63.6765 44.0616 63.2063 48.498 61.6447 49.0924C60.0742 49.6958 52.3194 30.442 52.3194 30.442H52.3105Z" fill="#E0DCDD"/>
<path d="M46.552 142.7C46.4278 143.064 46.3124 143.436 46.1882 143.8C45.9398 144.483 45.7357 145.122 45.8865 145.859C46.0906 146.906 46.1527 147.748 46.1793 148.228C46.1882 148.494 46.3657 148.724 46.6141 148.822L51.1126 150.526C51.2191 150.57 51.3344 150.579 51.4497 150.57L53.4106 150.348C53.5348 150.33 54.1204 150.978 54.2269 151.058C54.9367 151.626 55.7087 152.123 56.525 152.54C57.6252 153.099 58.7343 153.4 59.9321 153.649C61.5469 153.995 62.9045 153.791 64.5459 153.738C64.8565 153.729 65.1759 153.72 65.4687 153.622C66.3293 153.338 67.607 152.353 68.0773 151.582C68.7338 150.499 68.1571 149.15 67.3674 148.316C64.679 145.442 59.4707 144.137 59.4707 144.137L57.4832 139.63C57.4921 139.736 53.9873 140.659 53.7567 140.73C52.7895 141.014 51.6804 141.564 50.6867 141.378C49.5687 141.165 48.3975 141.191 47.2884 141.413C47.2174 141.431 47.1376 141.44 47.0844 141.484C47.0134 141.538 46.9779 141.617 46.9424 141.688C46.8004 142.017 46.6762 142.345 46.5697 142.682L46.552 142.7Z" fill="#DEDEDE"/>
<path d="M37.209 169.647C36.9517 168.786 36.5613 167.979 36.162 167.172C35.4345 165.681 34.698 164.199 33.9705 162.709C33.1275 160.996 33.2606 158.947 32.959 157.11C32.9412 156.986 32.9146 156.853 32.8525 156.737C32.4266 156.001 30.4923 155.992 29.7559 156.028C28.7976 156.072 27.8483 156.116 26.8989 156.276C25.7277 156.471 24.521 156.817 23.4563 157.403C21.8858 158.263 22.1786 159.541 22.3117 161.103C22.3826 161.901 22.4536 162.7 22.6843 163.463C22.9949 164.51 23.4917 165.477 24.1395 166.506C24.2814 166.506 24.4145 166.497 24.5565 166.497C24.521 166.497 24.867 168.556 24.8936 168.707C25.0888 169.878 25.4171 170.809 25.9584 171.856C26.3665 172.646 26.8723 173.329 27.4401 174.03C28.567 175.432 29.889 176.861 31.6369 177.446C31.983 177.562 32.3379 177.641 32.6928 177.677C33.305 177.739 33.9261 177.65 34.5206 177.517C35.3901 177.331 36.5081 177.011 37.0848 176.257C37.7325 175.406 37.5639 174.225 37.6171 173.232C37.6793 172.034 37.5462 170.827 37.2001 169.656L37.209 169.647Z" fill="#DEDEDE"/>
<path d="M49.285 93.8648C49.285 93.8648 44.7421 103.332 45.5407 110.412C46.3304 117.493 46.1884 118.185 44.9551 121.228C43.7306 124.28 46.8627 142.301 46.8627 142.301C46.8627 142.301 51.3168 144.04 54.6796 142.097L58.0424 140.154C57.8738 137.013 57.7052 133.881 57.5366 130.74C57.368 127.51 56.9865 124.298 56.9244 121.06C56.88 118.646 57.0752 116.907 58.0246 114.76C60.0121 110.271 61.2277 105.417 61.6713 100.528C62.5763 90.573 60.651 81.3809 60.651 81.3809L49.2761 93.8559L49.285 93.8648Z" fill="#333333"/>
<path d="M22.0722 158.963C22.0722 158.963 20.0936 139.248 22.5957 133.587C25.0978 127.926 26.4465 125.983 26.2513 122.203C26.0472 118.415 30.8828 103.535 30.8828 103.535C30.8828 103.535 28.5404 96.632 30.9982 90.5276C33.4559 84.432 35.0974 83.1277 35.0974 83.1277C35.0974 83.1277 39.9419 86.3928 50.4117 81.8589C60.8816 77.3249 60.4912 75.7988 60.4912 75.7988C60.4912 75.7988 63.0554 86.7123 58.2464 93.7484C53.4374 100.784 48.8856 102.186 48.8856 102.186C48.8856 102.186 44.4759 118.814 40.2702 125.326C38.4158 128.21 35.9936 131.12 35.0087 134.448C33.9706 137.943 34.2367 141.652 34.1037 145.255C33.9439 149.54 33.7842 153.826 33.6245 158.102C33.6245 158.102 29.3479 163.958 22.0722 158.945V158.963Z" fill="#333333"/>
<path d="M63.2415 55.0294C63.4367 68.7999 61.0499 78.4978 61.0499 78.4978C61.0499 78.4978 55.2383 88.941 33.3581 83.5375C33.3581 83.5375 35.0262 71.6214 33.784 69.421C32.5152 67.1939 24.5386 58.8446 23.9441 53.5299C23.3496 48.224 21.8413 43.8763 26.8455 39.1205C29.6404 36.441 31.9917 34.2139 34.3962 32.3595C36.2772 30.8866 38.1849 29.6799 40.3054 28.6862C42.1155 27.8344 44.449 27.7901 46.7559 28.2071C50.5091 28.8637 54.2179 30.7358 55.5222 32.5192C57.6428 35.4029 63.064 41.2767 63.2592 55.0117L63.2415 55.0294Z" fill="#E0DCDD"/>
<path d="M50.9177 37.2041C50.9177 37.2041 50.9 37.1242 50.8822 37.0887C50.4474 35.5715 49.7021 33.859 48.9568 32.3418L48.9923 26.894C48.9923 26.894 39.1347 22.7859 36.535 25.8558C36.5172 25.8736 36.5084 25.8913 36.4906 25.9091C36.393 26.0244 36.3132 26.1575 36.2422 26.2906C36.2244 26.335 36.1978 26.3704 36.1801 26.4148C36.1002 26.5834 36.0381 26.7609 35.9937 26.9561L35.9228 31.2239C35.4081 31.5877 34.8935 31.9603 34.3789 32.3684C34.3789 32.3684 35.2839 34.2317 40.927 38.3043C42.5063 39.44 44.0413 40.4249 45.4255 41.2589C48.2559 42.9536 51.7872 40.3717 50.9 37.2041H50.9177Z" fill="#663C33"/>
<path d="M54.4311 26.2368C55.0966 28.9696 52.976 30.7264 49.4269 31.4273C47.6878 31.7556 45.5761 31.4362 43.8992 31.0281C43.2248 30.8506 42.6392 30.682 42.1512 30.5312C42.0093 30.478 41.8673 30.4336 41.7253 30.3804C41.61 30.3183 41.4769 30.2916 41.3704 30.2561C41.0776 30.1319 40.8913 30.0698 40.8913 30.0698C28.7445 24.5864 33.5181 21.4633 33.5624 16.7252C33.5624 16.3437 33.5979 15.9977 33.6866 15.625C33.731 15.3411 33.8197 15.0305 33.9173 14.7466C35.1418 10.6297 39.8621 6.64576 42.6481 5.95369C44.7953 5.42133 46.7562 6.29086 48.371 7.62177C49.1962 8.2961 49.9238 9.06805 50.5449 9.8666C50.6247 9.97307 50.7046 10.0884 50.7755 10.2304C52.5235 13.185 53.8012 23.6282 54.4311 26.2279V26.2368Z" fill="#A65745"/>
<path d="M54.5019 26.2812C54.4842 26.1215 54.4753 25.9617 54.4487 25.802C54.3954 25.4737 54.3244 25.1632 54.2446 24.8438C54.2446 24.8261 54.2446 24.8083 54.2357 24.7906C54.2357 24.7906 54.2357 24.7994 54.2357 24.8083C54.1825 24.6131 54.147 24.409 54.0849 24.2138C53.8719 23.5395 53.6856 22.9095 53.1976 22.3772C53.242 22.8385 53.3218 23.7436 52.6386 23.7347C52.612 23.7347 52.5854 23.7347 52.5588 23.7347C52.4434 23.7258 52.337 23.7081 52.2216 23.6815C52.0974 23.6549 51.9732 23.6371 51.8401 23.6371C51.8223 23.6371 51.8046 23.6371 51.778 23.6371C51.4763 23.6548 51.2012 23.8056 50.9617 23.9654C50.7221 24.1251 50.4914 24.3025 50.2519 24.4711C49.9679 24.6752 49.684 24.8704 49.3912 25.0301C49.3202 25.0745 49.2404 25.11 49.1694 25.1454C48.7258 25.3584 48.291 25.5358 47.9361 25.9085C47.8207 26.0238 47.7143 26.1481 47.6167 26.2723C47.5457 26.361 47.4747 26.4409 47.3948 26.5296C47.2174 26.7159 47.0577 26.9111 46.9068 27.1063C46.8625 27.1596 46.8181 27.2039 46.7826 27.2483C46.6761 27.3814 46.5519 27.5234 46.41 27.621C46.3922 27.6298 46.3745 27.6565 46.3479 27.6653C46.2769 27.7008 46.2059 27.7185 46.126 27.7363C46.0107 27.754 45.8954 27.7629 45.78 27.7629C45.2388 27.7452 44.7064 27.55 44.1918 27.3459C43.4021 27.0265 42.5858 26.636 42.0268 25.9617C41.4501 25.2785 41.2727 24.3558 40.9887 23.5217C40.8201 23.0248 40.6693 22.5102 40.5273 21.9956C40.3765 21.4544 40.2257 20.8954 40.0837 20.3453C39.8974 19.6355 39.711 18.9257 39.4981 18.2158C38.4334 14.7288 41.1839 12.2356 46.8359 9.9642C48.7612 9.19227 49.4711 9.38749 50.4559 9.70691C49.4711 7.51534 48.1135 5.70527 46.2148 4.85349C44.7508 4.18803 43.1714 3.63792 41.5655 3.30076C41.53 3.30076 41.4945 3.28304 41.4679 3.27417C41.2372 3.2298 40.9976 3.19431 40.7669 3.15882C40.5895 3.1322 40.412 3.10556 40.2345 3.07894C40.0482 3.05232 39.853 3.04345 39.6667 3.02571C39.436 3.00796 39.1964 2.99911 38.9657 2.99023C38.806 2.99023 38.6552 2.99023 38.5044 2.99023C38.2116 2.99023 37.9276 3.00797 37.6348 3.03459C37.5284 3.04346 37.4219 3.04343 37.3065 3.06118C36.8984 3.10554 36.4991 3.16769 36.091 3.26529C32.4443 4.11707 30.0043 6.60144 28.3362 9.81337C26.8811 12.626 27.4312 16.6188 28.4338 19.5024C28.6112 19.9993 28.8153 20.4873 29.0371 20.9664C29.0904 21.0906 29.1614 21.2059 29.2235 21.3213C29.4098 21.6939 29.605 22.0666 29.8091 22.4304C29.8091 22.4304 29.8091 22.4304 29.8091 22.4393C29.9067 22.6345 30.0309 22.8297 30.1551 23.016C30.235 23.1402 30.3237 23.2644 30.4035 23.3887C30.4657 23.4863 30.5278 23.575 30.5899 23.6726C30.8472 24.0541 31.1134 24.4179 31.3884 24.7906C31.699 25.2076 32.045 25.5979 32.4088 25.9706C32.4265 25.9883 32.4443 26.0061 32.462 26.0238C33.9171 27.5322 35.7006 28.7123 37.6792 29.3955C38.2559 29.5907 38.877 29.7859 39.5425 29.9279C39.4182 29.8569 39.2852 29.1382 39.2231 28.9785C38.5221 27.2927 37.2178 26.2013 35.7982 25.1366C35.2924 24.7639 34.7423 24.3735 34.3874 23.8412C33.9526 23.2201 33.6155 22.0933 33.7929 21.3568C33.8817 20.993 34.0946 20.6913 34.3608 20.4961C34.8044 20.1501 35.4255 20.0525 35.9756 20.3098C36.3394 20.4695 36.6588 20.7268 36.9516 21.0019C37.1912 21.2326 37.413 21.4721 37.626 21.7117C38.2559 22.4215 38.8149 23.1668 39.365 23.9299C39.4449 24.0452 39.507 24.1606 39.5691 24.2848C39.7732 24.6663 39.9062 25.0745 40.0482 25.4915C40.1014 25.6689 40.1636 25.8376 40.2257 26.015C40.3588 26.3788 40.5273 26.7248 40.7048 27.062C40.8734 27.3814 41.042 27.7097 41.2017 28.0291C41.2638 28.1533 41.3259 28.2775 41.3791 28.4017C41.4057 28.4638 41.4324 28.526 41.459 28.5881C41.6719 29.0761 41.9204 29.5552 42.2043 30.0077C42.364 30.2651 42.5415 30.5223 42.7278 30.7619C43.5529 31.7734 44.5289 32.359 45.6292 32.8736C45.8953 32.9978 46.1615 33.122 46.4455 33.2374C47.8828 33.8673 49.5775 33.9649 51.0682 33.406C53.73 32.3767 54.7326 29.6084 54.5995 26.9378C54.5906 26.7337 54.5463 26.5296 54.5285 26.3255L54.5019 26.2812ZM50.2075 27.967C50.2519 28.1888 50.4737 28.3308 50.6156 28.5082C50.7665 28.7301 50.802 29.0406 50.6955 29.2802C50.5713 29.5464 50.3761 29.6351 50.1188 29.7238C49.9236 29.8037 49.7284 29.9012 49.5066 29.919C49.054 29.9633 48.5572 29.777 48.2111 29.4665C47.7231 29.0317 47.5102 28.7123 47.5546 28.0468C47.6078 27.2306 49.0274 27.0708 49.5953 26.7692C50.4737 26.3167 51.1835 25.6068 51.9466 24.9946C51.9909 24.9591 52.0353 24.9325 52.0708 24.897C52.2039 24.7994 52.3547 24.7018 52.5233 24.7284C53.3307 24.9414 53.0202 26.8224 52.7362 27.3459C52.6298 27.5589 52.0353 28.6857 51.9199 27.8783C51.9022 27.7274 51.8756 27.5677 51.849 27.4169C51.7957 27.0442 51.636 26.6094 51.1835 26.849C50.9439 26.9821 50.7221 27.1329 50.518 27.3104C50.3317 27.479 50.1543 27.7097 50.2075 27.9493V27.967Z" fill="#262626"/>
<path d="M82.4865 54.0871C82.2558 53.954 81.963 53.9185 81.6968 54.0516L75.5036 57.0328C74.6962 57.4321 74.1638 58.2218 74.1106 59.118L73.0281 75.4438C73.0104 75.6922 73.0991 75.914 73.2499 76.0737L73.2322 76.0915L73.3919 76.1979L74.4034 76.8723L75.6012 75.08L81.0402 72.427C81.1733 72.3649 81.262 72.223 81.2798 72.0721L82.2824 56.9086L82.3268 56.9352L83.702 54.8768L82.4953 54.0694L82.4865 54.0871Z" fill="#AEAEAE"/>
<path d="M73.0193 75.4705L74.6253 76.5441L75.3173 75.506L73.1169 74.042L73.0193 75.4705Z" fill="#7E7E7E"/>
<path d="M82.4865 54.0871C82.2558 53.954 81.963 53.9185 81.6968 54.0516L75.5036 57.0328C74.6962 57.4321 74.1638 58.2218 74.1106 59.118L74.9535 59.6947L78.2275 61.8774L82.1759 58.4969L82.2824 56.9086L82.3267 56.9352L83.702 54.8768L82.4953 54.0694L82.4865 54.0871Z" fill="#7E7E7E"/>
<path d="M74.137 58.8512L75.2017 59.561L76.2664 57.9728L75.1662 57.2363C74.625 57.6179 74.2612 58.1946 74.1458 58.8512H74.137Z" fill="#636363"/>
<path d="M82.4865 54.0871C82.2558 53.954 81.963 53.9185 81.6968 54.0516L75.5036 57.0328C74.6962 57.4321 74.1638 58.2218 74.1106 59.118L73.0281 75.4438C73.0104 75.6922 73.0991 75.914 73.2499 76.0737L73.2322 76.0915L73.3919 76.1979L73.4274 76.2246L73.4451 76.2068C73.2943 76.0471 73.2056 75.8253 73.2233 75.5769L74.3058 59.251C74.3679 58.3549 74.9003 57.5652 75.6988 57.1659L81.892 54.1847C82.167 54.0516 82.4598 54.0871 82.6817 54.2202L82.4865 54.0871Z" fill="#5F5F5F"/>
<path d="M75.2287 59.8724L74.0486 77.6534L82.593 73.4744C82.7261 73.4034 82.8237 73.2703 82.8326 73.1194L84.0925 54.1406L76.6305 57.7874C75.8231 58.1866 75.2908 58.9763 75.2375 59.8724H75.2287Z" fill="#5F5F5F"/>
<path d="M82.531 54.6117L75.3796 58.1075C75.1844 58.2051 75.0602 58.3914 75.0513 58.6044L73.8978 76.0393C73.8712 76.4209 74.1019 76.7314 74.4036 76.8644C74.235 76.7047 74.1285 76.4741 74.1463 76.2079L75.2288 59.8821C75.2909 58.9859 75.8232 58.1962 76.6218 57.7969L82.7795 54.7891C83.019 54.6738 83.2675 54.6826 83.4804 54.7802C83.2408 54.5495 82.8682 54.4608 82.531 54.6294V54.6117Z" fill="#7F7F7F"/>
<path d="M73.9247 71.443C73.4455 71.31 72.9842 71.5673 72.5494 71.727C71.9727 71.9399 71.3782 72.1352 70.7748 72.2683C70.2514 72.3836 69.7101 72.4545 69.1689 72.4457C68.6898 72.4457 68.3615 72.0553 68.0154 71.7447C67.7049 71.4697 67.4564 71.2745 67.0483 71.3543C66.5958 71.4519 66.1255 71.4875 65.6553 71.5407C65.5311 71.5584 64.0582 71.6205 64.0227 71.7181L58.7523 72.2594C58.7523 72.2594 47.688 73.4394 47.6347 73.4483C47.6791 73.4483 46.0998 70.9285 45.94 70.6978C44.9995 69.3491 44.4228 67.7254 43.8727 66.1726C42.666 62.7921 39.4896 51.0801 38.0788 48.9329C37.786 48.4893 37.4932 48.0457 37.156 47.6375C34.7781 44.7716 30.3418 39.4835 25.9586 41.9678C25.9498 41.9678 25.9409 41.9767 25.932 41.9856C25.9231 41.9856 25.9143 41.9855 25.9054 41.9944C25.861 42.021 25.8255 42.0477 25.7812 42.0743C25.6126 42.1808 25.444 42.2872 25.2932 42.3937C25.1956 42.4647 25.1069 42.5268 25.0181 42.5978C24.885 42.7042 24.7608 42.8107 24.6455 42.9172C24.5656 42.9882 24.4858 43.0681 24.4059 43.1479C24.2728 43.281 24.1486 43.423 24.0244 43.5738C23.9889 43.6182 23.9534 43.6625 23.9179 43.7068C22.658 45.3572 22.4273 47.4423 22.7556 49.5984C23.1992 52.5352 24.6455 55.5963 25.9054 57.7613C27.609 60.7159 29.5166 63.5463 31.2557 66.4832C33.5182 70.2896 34.5208 71.0616 36.2244 75.143C36.9165 76.8022 37.5731 78.5057 38.62 79.9697C40.0574 81.9927 43.0653 82.2767 45.594 82.0194C45.7271 82.0194 45.8691 82.0016 46.0199 81.975C48.0606 81.6911 54.0497 80.4401 58.0868 79.6947L58.0602 79.9432L64.1735 78.7275C64.4131 78.976 64.6793 79.1979 64.9987 79.3487C65.5133 79.5971 66.09 79.668 66.6579 79.7302C67.066 79.7745 67.4742 79.881 67.8912 79.8544C68.4768 79.81 68.9914 79.4108 69.5415 79.2245C70.1183 79.0204 70.5885 78.559 71.041 78.1509C71.2451 77.9646 71.4492 77.7782 71.5823 77.5386C71.7242 77.2813 71.7686 76.9708 71.9283 76.7224C72.0082 76.5982 72.1146 76.4828 72.2034 76.3586C72.4695 76.0037 72.6026 75.5601 72.8156 75.1697C73.0729 74.7083 73.4544 74.3178 73.694 73.8475C73.8005 73.6346 73.8359 73.395 73.9602 73.1821C74.0933 72.9514 74.2441 72.7917 74.3062 72.5166C74.386 72.1173 74.3949 71.5496 73.9424 71.4253L73.9247 71.443Z" fill="#A65745"/>
<path d="M27.4753 15.498C27.4753 15.498 27.1026 15.853 27.0405 16.5007C26.9518 17.4057 27.0494 18.3462 27.6261 19.8901C28.2028 21.4339 28.5932 21.8598 29.2232 22.4277C29.5249 22.7027 30.1903 23.0576 30.1903 23.0576C30.1903 23.0576 29.4805 22.055 29.4983 21.7888C29.516 21.5315 29.8798 21.5049 30.2081 21.3452C30.5364 21.1855 30.909 19.5884 30.6961 18.71C30.4831 17.8316 29.7556 17.3258 29.5249 17.4234C29.2942 17.521 28.9748 17.7074 28.3093 17.246C27.9722 17.0064 27.706 16.4208 27.6084 16.0748C27.5463 15.853 27.4842 15.5069 27.4842 15.5069L27.4753 15.498Z" fill="#BEB9B8"/>
<path d="M28.1048 21.1315C28.3596 21.0603 28.3869 20.3599 28.1656 19.5669C27.9444 18.774 27.5584 18.1888 27.3035 18.2599C27.0487 18.331 27.0214 19.0315 27.2426 19.8244C27.4639 20.6174 27.8499 21.2026 28.1048 21.1315Z" fill="#D4D1D0"/>
<path d="M38.4953 16.5284L30.3235 17.3269C30.3235 17.3269 29.2854 17.4778 29.7202 19.0394C30.0662 20.3082 30.2969 20.4058 30.5897 20.53C30.8381 20.6364 31.0156 20.6187 31.0156 20.6187C31.0156 20.6187 31.3084 21.3286 31.823 21.6835C32.5062 22.1537 32.9587 21.8875 33.2338 21.6835C34.2186 20.9648 33.5887 20.6098 34.5913 20.5832C34.8664 20.5832 39.1874 20.1041 39.1874 20.1041L38.5042 16.5195L38.4953 16.5284Z" fill="#D4D1D0"/>
<path d="M52.3993 12.8287C51.4765 11.6398 48.8857 9.89188 47.3685 9.63457C45.8512 9.37726 40.7317 11.001 38.8151 12.3142C36.8188 13.6717 34.3788 16.4488 36.1267 20.3972C37.6972 23.9552 40.8914 24.1326 41.9916 23.9818C43.0918 23.8309 45.3011 23.2187 46.4901 22.2516C49.2584 20.0068 49.0277 19.5188 49.5955 19.643C50.1634 19.7672 51.725 20.9473 52.1775 20.8763C52.63 20.8053 53.6681 20.8142 54.165 20.4504C54.6619 20.0867 54.165 17.7531 53.8189 16.4045C53.4729 15.0558 52.9938 13.5918 52.4082 12.8287H52.3993Z" fill="#BEB9B8"/>
<path d="M55.3363 14.506C54.8395 12.7226 53.9965 10.602 52.6745 9.94538C51.3525 9.28879 49.782 9.44854 47.413 10.1495C45.0439 10.8593 41.5215 11.5869 39.463 13.9559C37.1472 16.6177 37.7949 19.9095 39.6937 22.0212C40.9536 23.4142 43.0742 24.1773 45.6473 22.9794C48.2204 21.7905 48.6197 19.9716 50.1547 19.0577C51.6896 18.1438 53.0649 21.3291 54.6443 20.2467C56.2325 19.1731 55.7445 15.9788 55.3275 14.4971L55.3363 14.506Z" fill="url(#paint1_radial_400_13316)"/>
<path d="M61.8669 75.9404C61.6451 73.5447 63.0204 72.1428 63.0204 72.1428L63.1535 71.7258C63.1535 71.7258 59.0809 71.3976 59.418 76.6147C59.5068 77.9989 61.6273 78.8684 63.0204 79.0103C63.7036 79.0813 64.2093 78.6554 64.2093 78.6554L63.464 78.6199C63.464 78.6199 62.0444 77.848 61.8758 75.9404H61.8669Z" fill="#5B7C8A"/>
<path d="M61.3791 76.5089C61.1218 74.8852 61.4057 73.4302 62.3729 72.3921C62.5858 72.1614 63.1448 71.7266 63.1448 71.7266C60.7492 71.7621 59.507 72.9776 59.507 72.9776C59.507 72.9776 58.3003 74.1045 58.6552 76.6598C58.9391 78.7094 60.5628 79.2507 60.5628 79.2507L63.2956 79.0111C63.2956 79.0111 61.7074 78.6562 61.3702 76.5002L61.3791 76.5089Z" fill="#184254"/>
<path d="M63.4997 77.5997L62.4349 76.0292C62.1333 75.5856 61.6364 75.3549 61.1306 75.4436L58.9124 75.7985C58.7084 75.834 58.5664 75.9937 58.5043 76.1889H58.4954L58.2292 76.8367L58.7794 77.0496L59.6311 78.2917C59.9328 78.7353 60.4297 78.9661 60.9354 78.8862L62.8076 78.5846L63.3222 78.7797L63.544 78.2208H63.5263C63.6239 78.0256 63.6416 77.7949 63.5085 77.6086L63.4997 77.5997Z" fill="#031117"/>
<path d="M62.1777 76.6767C61.876 76.233 61.3791 76.0023 60.8734 76.091L58.6552 76.446C58.2648 76.5081 58.0607 77.0227 58.3003 77.3688L59.365 78.9393C59.6667 79.3829 60.1636 79.6135 60.6693 79.5337L62.8875 79.1787C63.2779 79.1166 63.482 78.6021 63.2424 78.256L62.1777 76.6856V76.6767Z" fill="#072430"/>
<path d="M61.6188 76.9335C61.4857 76.7383 61.2639 76.6406 61.0421 76.6761L58.9925 77.0044C58.8239 77.031 58.7352 77.2617 58.8416 77.4125L59.8798 78.9387C60.0129 79.1339 60.2347 79.2314 60.4565 79.196L62.5061 78.8677C62.6747 78.8411 62.7634 78.6104 62.6569 78.4596L61.6188 76.9335Z" fill="white"/>
<path d="M40.5104 53.9803C40.3507 53.6342 40.1821 53.2616 40.0135 52.88C39.8272 52.4719 39.632 52.0549 39.419 51.629C39.0286 50.8305 38.6205 50.0142 38.1946 49.2334C38.168 49.1801 38.1325 49.118 38.1059 49.0648C37.9994 48.8607 37.8841 48.6655 37.7776 48.4703C37.6711 48.2751 37.5469 48.0799 37.4227 47.8758C37.3783 47.8048 37.334 47.7338 37.2896 47.6629C37.2009 47.5209 37.1121 47.3878 37.0234 47.2459C36.9613 47.1571 36.8992 47.0595 36.8371 46.9708C36.7483 46.8466 36.6596 46.7223 36.5709 46.5892C36.4378 46.394 36.2958 46.2077 36.145 46.0125C36.0651 45.9149 35.9942 45.8085 35.9143 45.7109C35.799 45.5689 35.6836 45.4269 35.5683 45.285C35.515 45.2229 35.4618 45.1519 35.4086 45.0898C35.2843 44.939 35.1513 44.7881 35.0182 44.6373C34.9827 44.5929 34.9472 44.5574 34.9028 44.5131C34.2551 43.8032 33.5453 43.1378 32.7911 42.5699C32.7911 42.5699 32.7822 42.5699 32.7734 42.561C31.9926 41.9843 31.1674 41.5318 30.2979 41.2568C30.2801 41.2568 30.2624 41.2479 30.2446 41.239C28.967 40.8397 27.6183 40.8309 26.2253 41.4519C26.2253 41.4519 23.3949 42.4901 22.6141 47.4056C21.8333 52.3211 27.6538 64.0774 27.6538 64.0774C27.6538 64.0774 31.1585 65.435 34.8407 63.9532C35.1513 63.829 35.4618 63.687 35.7723 63.5184C39.0641 61.735 40.537 59.7298 41.2025 58.39C41.2557 58.2747 41.3089 58.1682 41.3533 58.0706C41.4509 57.8488 41.5219 57.6536 41.5751 57.485C41.6106 57.3874 41.6284 57.2987 41.655 57.2277C41.6993 57.0769 41.7171 56.9704 41.726 56.9171C41.726 56.8905 41.726 56.8728 41.726 56.8728C41.726 56.8728 41.2379 55.6572 40.4926 53.998L40.5104 53.9803Z" fill="#F3F1F1"/>
<path d="M47.6129 20.4248L144.454 0.0966797L144.593 146.426L90.4857 171.578L47.6129 20.4248Z" fill="url(#paint2_linear_400_13316)" fill-opacity="0.3" style="mix-blend-mode:screen"/>
<g opacity="0.4">
<path d="M144.454 0.078125L144.593 146.426L90.4857 171.578L90.3369 25.2303L144.454 0.078125Z" fill="url(#paint3_linear_400_13316)" style="mix-blend-mode:screen"/>
</g>
<path opacity="0.6" d="M102.964 105.151L137.899 88.9993V77.2461L102.964 93.4068V105.151Z" fill="white"/>
<path opacity="0.6" d="M113.565 133.464L102.964 138.373V150.117L113.565 145.217V133.464Z" fill="white"/>
<path opacity="0.6" d="M102.964 112.989L137.899 96.8282V92.2812L102.964 108.433V112.989Z" fill="white"/>
<path opacity="0.6" d="M102.964 119.358L137.899 103.197V98.6504L102.964 114.811V119.358Z" fill="white"/>
<path opacity="0.6" d="M102.964 125.477L137.899 109.316V104.77L102.964 120.93V125.477Z" fill="white"/>
<path opacity="0.6" d="M128.451 115.508L102.964 127.298V131.855L128.451 120.055V115.508Z" fill="white"/>
<path opacity="0.6" d="M102.964 157.268L137.899 141.107V136.551L102.964 152.711V157.268Z" fill="white"/>
<path opacity="0.6" d="M116.977 136.867L137.898 127.188V122.641L116.977 132.32V136.867Z" fill="white"/>
<path opacity="0.6" d="M116.977 143.236L137.898 133.566V129.01L116.977 138.689V143.236Z" fill="white"/>
<path opacity="0.6" d="M138.373 38.0901L137.61 38.4342C136.681 38.8526 135.862 38.3691 135.621 37.2532C135.621 37.2439 135.621 37.2254 135.621 37.2161C135.379 36.1003 135.769 34.6404 136.578 33.6455L137.238 32.8272C138.187 31.6556 138.512 29.861 137.964 28.8196L137.183 27.3318C136.634 26.2904 135.416 26.3927 134.467 27.5643L133.807 28.3826C132.998 29.3775 131.985 29.6564 131.325 29.052C131.325 29.052 131.306 29.0428 131.306 29.0335C130.646 28.4384 130.516 27.1087 130.981 25.8069L131.362 24.7376C131.91 23.2033 131.585 21.697 130.637 21.3808L129.288 20.9252C128.34 20.6091 127.122 21.5947 126.573 23.1289L126.192 24.1983C125.727 25.5001 124.779 26.4578 123.877 26.5414C123.867 26.5414 123.858 26.5414 123.849 26.5414C122.947 26.6251 122.324 25.7976 122.324 24.5237V23.4823C122.324 21.9945 121.431 21.1856 120.334 21.6784L118.772 22.3758C117.675 22.8686 116.782 24.4772 116.782 25.9649V26.9971C116.782 28.2617 116.159 29.6564 115.257 30.3817L115.229 30.4096C114.327 31.1442 113.379 31.0326 112.914 30.14L112.533 29.4147C111.984 28.3733 110.766 28.4755 109.817 29.6471L108.469 31.3115C107.521 32.4831 107.195 34.2777 107.744 35.3192L108.125 36.0445C108.59 36.9278 108.46 38.3783 107.8 39.5685L107.772 39.615C107.112 40.8052 106.089 41.4469 105.289 41.1772L104.629 40.954C103.68 40.6379 102.462 41.6235 101.914 43.1578L101.133 45.3429C100.584 46.8771 100.91 48.3835 101.858 48.6996L102.518 48.9228C103.327 49.1924 103.718 50.3083 103.476 51.6379V51.6844C103.225 53.0141 102.407 54.2322 101.477 54.6506L100.714 54.9947C99.617 55.4875 98.7244 57.0961 98.7244 58.5838V60.7039C98.7244 62.1916 99.617 63.0006 100.714 62.5078L101.477 62.1637C102.407 61.7453 103.225 62.2288 103.467 63.3446V63.3818C103.718 64.4977 103.318 65.9668 102.518 66.9617L101.858 67.7707C100.91 68.9423 100.584 70.7369 101.133 71.7783L101.914 73.266C102.462 74.3074 103.68 74.2052 104.629 73.0336L105.289 72.2154C106.098 71.2204 107.112 70.9414 107.772 71.5458C107.772 71.5458 107.79 71.5551 107.79 71.5644C108.451 72.1595 108.581 73.4892 108.116 74.791L107.735 75.8603C107.186 77.3945 107.511 78.9009 108.46 79.2171L109.808 79.6727C110.757 79.9888 111.975 79.0032 112.523 77.469L112.904 76.3996C113.369 75.0979 114.318 74.1401 115.22 74.0564C115.229 74.0564 115.238 74.0564 115.248 74.0564C116.15 73.9727 116.773 74.8003 116.773 76.0742V77.1156C116.773 78.6034 117.665 79.4123 118.762 78.9195L120.325 78.2221C121.422 77.7293 122.314 76.1207 122.314 74.6329V73.4799C122.314 72.2804 122.91 70.96 123.765 70.272C123.83 70.2162 123.895 70.1697 123.96 70.1139C124.806 69.4165 125.708 69.5281 126.145 70.3649L126.573 71.1739C127.122 72.2153 128.34 72.113 129.288 70.9414L130.637 69.277C131.585 68.1054 131.91 66.3108 131.362 65.2694L130.934 64.4604C130.497 63.6236 130.618 62.2474 131.241 61.1316C131.287 61.0479 131.334 60.9642 131.38 60.8713C132.003 59.7369 132.97 59.1417 133.733 59.3928L134.467 59.6439C135.416 59.96 136.634 58.9744 137.183 57.4401L137.964 55.255C138.512 53.7207 138.187 52.2144 137.238 51.8983L136.504 51.6472C135.741 51.3868 135.36 50.3362 135.593 49.0809C135.611 48.9879 135.63 48.8856 135.648 48.7926C135.872 47.528 136.643 46.375 137.527 45.9845L138.373 45.6032C139.47 45.1104 140.363 43.5018 140.363 42.014V39.894C140.363 38.4063 139.47 37.5973 138.373 38.0901ZM119.534 62.3311C114.643 64.5256 110.673 60.9177 110.673 54.2787C110.673 47.6396 114.643 40.4705 119.534 38.2761C124.425 36.0817 128.396 39.6894 128.396 46.3285C128.396 52.9676 124.425 60.1367 119.534 62.3311Z" fill="white"/>
</g>
<defs>
<linearGradient id="paint0_linear_400_13316" x1="0.411865" y1="185.597" x2="72.6611" y2="185.597" gradientUnits="userSpaceOnUse">
<stop stop-color="#2CB8DB"/>
<stop offset="1" stop-color="#2CB8DB"/>
</linearGradient>
<radialGradient id="paint1_radial_400_13316" cx="0" cy="0" r="1" gradientUnits="userSpaceOnUse" gradientTransform="translate(55.2617 9.82016) rotate(161.2) scale(8.96928 5.97952)">
<stop stop-color="#252EFF"/>
<stop offset="0.15" stop-color="#1C23C3"/>
<stop offset="0.32" stop-color="#131888"/>
<stop offset="0.49" stop-color="#0C0F57"/>
<stop offset="0.64" stop-color="#070831"/>
<stop offset="0.78" stop-color="#030416"/>
<stop offset="0.91" stop-color="#000105"/>
<stop offset="1"/>
</radialGradient>
<linearGradient id="paint2_linear_400_13316" x1="52.4682" y1="33.163" x2="164.136" y2="91.6017" gradientUnits="userSpaceOnUse">
<stop offset="0.0222134" stop-color="#00B0FF"/>
<stop offset="0.605396" stop-color="#07C4ED"/>
<stop offset="1" stop-color="#05DCFF" stop-opacity="0"/>
</linearGradient>
<linearGradient id="paint3_linear_400_13316" x1="69.4978" y1="201.814" x2="148.508" y2="31.1129" gradientUnits="userSpaceOnUse">
<stop offset="0.147213" stop-color="#C3D4FF"/>
<stop offset="0.487213" stop-color="#07C4ED"/>
<stop offset="1" stop-color="#05DCFF"/>
</linearGradient>
<clipPath id="clip0_400_13316">
<rect width="150" height="210" fill="white" transform="translate(0.666748 0.078125)"/>
</clipPath>
</defs>
</svg>
