<?xml version="1.0" encoding="UTF-8" standalone="no"?>
<!-- Created with Inkscape (http://www.inkscape.org/) -->

<svg
   version="1.1"
   id="svg2"
   width="470.54666"
   height="109.46667"
   viewBox="0 0 470.54666 109.46667"
   sodipodi:docname="equifax-seeklogo.eps"
   xmlns:inkscape="http://www.inkscape.org/namespaces/inkscape"
   xmlns:sodipodi="http://sodipodi.sourceforge.net/DTD/sodipodi-0.dtd"
   xmlns="http://www.w3.org/2000/svg"
   xmlns:svg="http://www.w3.org/2000/svg">
  <defs
     id="defs6" />
  <sodipodi:namedview
     id="namedview4"
     pagecolor="#ffffff"
     bordercolor="#000000"
     borderopacity="0.25"
     inkscape:showpageshadow="2"
     inkscape:pageopacity="0.0"
     inkscape:pagecheckerboard="0"
     inkscape:deskcolor="#d1d1d1" />
  <g
     id="g8"
     inkscape:groupmode="layer"
     inkscape:label="ink_ext_XXXXXX"
     transform="matrix(1.3333333,0,0,-1.3333333,0,109.46667)">
    <g
       id="g10"
       transform="scale(0.1)">
      <path
         d="m 1229.18,55.332 h -26.19 V 31.0469 h 29.19 V 23.75 h -37.88 v 67.3633 h 36.38 v -7.2969 h -27.69 V 62.5273 h 26.19 V 55.332"
         style="fill:#231f20;fill-opacity:1;fill-rule:nonzero;stroke:none"
         id="path12" />
      <path
         d="m 1276.18,52.5273 c 0,1.2032 -0.1,2.6094 -0.4,3.7032 -1.3,5.4023 -5.99,10 -12.59,10 -9.1,0 -14.59,-7.6953 -14.59,-18.5938 0,-9.5898 4.59,-17.9883 14.29,-17.9883 5.69,0 10.59,3.4961 12.59,9.5899 0.4,1.1992 0.7,2.9023 0.7,4.1992 z m 0,-21.2773 h -0.2 c -2.6,-4.8047 -8,-8.6055 -15.79,-8.6055 -11.29,0 -20.49,9.7969 -20.49,24.4961 0,18.086 11.7,26.0821 21.89,26.0821 7.5,0 12.49,-3.7032 14.89,-8.3985 h 0.2 l 0.3,7.293 h 8.3 c -0.2,-4.0899 -0.3,-8.2891 -0.3,-13.2891 V 3.96484 h -8.8 V 31.25"
         style="fill:#231f20;fill-opacity:1;fill-rule:nonzero;stroke:none"
         id="path14" />
      <path
         d="m 1339.98,36.9414 c 0,-5 0.1,-9.3906 0.4,-13.1914 h -7.8 l -0.5,7.8984 h -0.2 c -2.3,-3.9062 -7.4,-9.0039 -15.99,-9.0039 -7.6,0 -16.69,4.2032 -16.69,21.1953 v 28.2774 h 8.79 V 45.3438 c 0,-9.2032 2.8,-15.3946 10.8,-15.3946 5.89,0 9.99,4.0938 11.59,7.9883 0.5,1.3008 0.8,2.9023 0.8,4.5039 v 29.6758 h 8.8 V 36.9414"
         style="fill:#231f20;fill-opacity:1;fill-rule:nonzero;stroke:none"
         id="path16" />
      <path
         d="m 1354.59,23.75 v 48.3672 h 8.8 V 23.75 Z m 9.8,61.9648 c 0.1,-3 -2.1,-5.3945 -5.6,-5.3945 -3.1,0 -5.29,2.3945 -5.29,5.3945 0,3.1016 2.3,5.4961 5.49,5.4961 3.3,0 5.4,-2.3945 5.4,-5.4961"
         style="fill:#231f20;fill-opacity:1;fill-rule:nonzero;stroke:none"
         id="path18" />
      <path
         d="m 1378.89,23.75 v 41.6797 h -6.79 v 6.6875 h 6.79 v 2.3086 c 0,6.7969 1.5,12.9844 5.6,16.8828 3.3,3.2031 7.7,4.5 11.79,4.5 3.1,0 5.8,-0.7031 7.5,-1.3945 l -1.2,-6.7969 c -1.3,0.5976 -3.1,1.0937 -5.6,1.0937 -7.49,0 -9.39,-6.5937 -9.39,-13.9843 v -2.6094 h 11.69 v -6.6875 h -11.69 V 23.75 h -8.7"
         style="fill:#231f20;fill-opacity:1;fill-rule:nonzero;stroke:none"
         id="path20" />
      <path
         d="m 1432.68,48.4375 c -9.59,0.1953 -20.49,-1.5039 -20.49,-10.8984 0,-5.6914 3.8,-8.3907 8.3,-8.3907 6.29,0 10.29,3.9961 11.69,8.0977 0.3,0.8984 0.5,1.8945 0.5,2.793 z m 8.5,-13.0937 c 0,-4.2032 0.2,-8.293 0.79,-11.5938 h -7.99 l -0.7,6.0938 h -0.3 c -2.7,-3.7969 -7.9,-7.1993 -14.79,-7.1993 -9.8,0 -14.8,6.9063 -14.8,13.8985 0,11.6875 10.4,18.0859 29.09,17.9883 v 1.0039 c 0,3.9961 -1.1,11.1914 -11,11.1914 -4.49,0 -9.19,-1.4063 -12.59,-3.6016 l -2,5.8008 c 4,2.5976 9.8,4.2969 15.89,4.2969 14.8,0 18.4,-10.0977 18.4,-19.7852 V 35.3438"
         style="fill:#231f20;fill-opacity:1;fill-rule:nonzero;stroke:none"
         id="path22" />
      <path
         d="m 1459.49,72.1172 6.9,-10.3906 c 1.8,-2.6953 3.3,-5.1953 4.9,-7.8868 h 0.3 c 1.6,2.8868 3.2,5.3868 4.8,7.9844 l 6.79,10.293 h 9.5 L 1476.19,48.7383 1493.17,23.75 h -9.99 l -7.1,10.8984 c -1.9,2.793 -3.49,5.4883 -5.19,8.3868 h -0.2 c -1.6,-2.9961 -3.3,-5.4961 -5.1,-8.3868 l -7,-10.8984 h -9.69 l 17.19,24.6875 -16.39,23.6797 h 9.79"
         style="fill:#231f20;fill-opacity:1;fill-rule:nonzero;stroke:none"
         id="path24" />
      <path
         d="M 1531.89,91.1133 V 23.75 h -8.69 v 67.3633 h 8.69"
         style="fill:#231f20;fill-opacity:1;fill-rule:nonzero;stroke:none"
         id="path26" />
      <path
         d="m 1546.79,59.0313 c 0,4.9921 -0.1,9.0937 -0.4,13.0859 h 7.8 l 0.5,-7.9844 h 0.2 c 2.4,4.5899 8,9.0899 15.99,9.0899 6.7,0 17.09,-3.9961 17.09,-20.586 V 23.75 h -8.8 v 27.8828 c 0,7.8008 -2.9,14.2969 -11.19,14.2969 -5.8,0 -10.29,-4.1055 -11.79,-8.9961 -0.4,-1.1055 -0.6,-2.5977 -0.6,-4.1016 V 23.75 h -8.8 v 35.2813"
         style="fill:#231f20;fill-opacity:1;fill-rule:nonzero;stroke:none"
         id="path28" />
      <path
         d="m 1636.77,25.5469 c -2.29,-1.1992 -7.39,-2.9024 -13.89,-2.9024 -14.59,0 -24.09,10 -24.09,24.7969 0,14.8828 10.2,25.6836 25.99,25.6836 5.2,0 9.8,-1.3008 12.2,-2.5 l -2,-6.7969 c -2.1,1.1992 -5.4,2.2969 -10.2,2.2969 -11.09,0 -17.09,-8.1953 -17.09,-18.293 0,-11.1914 7.2,-18.0859 16.79,-18.0859 5,0 8.3,1.3008 10.8,2.4023 l 1.49,-6.6015"
         style="fill:#231f20;fill-opacity:1;fill-rule:nonzero;stroke:none"
         id="path30" />
      <path
         d="m 1650.79,22.6445 c -3.4,0 -5.8,2.7071 -5.8,6.3008 0,3.6992 2.5,6.2969 6,6.2969 3.5,0 5.89,-2.5977 5.89,-6.2969 0,-3.5937 -2.3,-6.3008 -6,-6.3008 h -0.09"
         style="fill:#231f20;fill-opacity:1;fill-rule:nonzero;stroke:none"
         id="path32" />
      <path
         d="m 1716.89,39.4414 c -5.69,0 -10.4,4.4922 -10.4,10.3945 -0.1,5.8946 4.71,10.5938 10.5,10.5938 5.79,0 10.5,-4.6992 10.5,-10.4961 0,-5.8906 -4.6,-10.4922 -10.5,-10.4922 h -0.1"
         style="fill:#231f20;fill-opacity:1;fill-rule:nonzero;stroke:none"
         id="path34" />
      <path
         d="m 1814.07,51.7383 -6.6,19.3867 c -1.5,4.3906 -2.49,8.3945 -3.5,12.293 h -0.2 c -0.99,-3.9922 -2.1,-8.0977 -3.39,-12.1953 l -6.61,-19.4844 z m -22.09,-6.7969 -6.99,-21.1914 h -9 l 22.88,67.3633 h 10.5 L 1832.36,23.75 h -9.3 l -7.2,21.1914 h -23.88"
         style="fill:#231f20;fill-opacity:1;fill-rule:nonzero;stroke:none"
         id="path36" />
      <path
         d="M 1852.58,83.7227 V 72.1172 h 12.6 v -6.6875 h -12.6 v -26.082 c 0,-5.9961 1.7,-9.3985 6.6,-9.3985 2.4,0 3.79,0.1953 5.1,0.5977 l 0.39,-6.6016 c -1.7,-0.6914 -4.39,-1.3008 -7.79,-1.3008 -4.1,0 -7.4,1.4102 -9.49,3.8008 -2.5,2.5977 -3.4,6.9063 -3.4,12.5977 v 26.3867 h -7.5 v 6.6875 h 7.5 v 8.8984 l 8.59,2.7071"
         style="fill:#231f20;fill-opacity:1;fill-rule:nonzero;stroke:none"
         id="path38" />
      <path
         d="m 1875.08,94.707 h 8.8 V 23.75 h -8.8 v 70.957"
         style="fill:#231f20;fill-opacity:1;fill-rule:nonzero;stroke:none"
         id="path40" />
      <path
         d="m 1924.17,48.4375 c -9.59,0.1953 -20.48,-1.5039 -20.48,-10.8984 0,-5.6914 3.8,-8.3907 8.29,-8.3907 6.3,0 10.29,3.9961 11.7,8.0977 0.29,0.8984 0.49,1.8945 0.49,2.793 z m 8.5,-13.0937 c 0,-4.2032 0.21,-8.293 0.79,-11.5938 h -7.99 l -0.7,6.0938 h -0.29 c -2.71,-3.7969 -7.9,-7.1993 -14.8,-7.1993 -9.79,0 -14.79,6.9063 -14.79,13.8985 0,11.6875 10.39,18.0859 29.08,17.9883 v 1.0039 c 0,3.9961 -1.09,11.1914 -11,11.1914 -4.49,0 -9.19,-1.4063 -12.58,-3.6016 l -2.01,5.8008 c 4.01,2.5976 9.81,4.2969 15.9,4.2969 14.79,0 18.39,-10.0977 18.39,-19.7852 V 35.3438"
         style="fill:#231f20;fill-opacity:1;fill-rule:nonzero;stroke:none"
         id="path42" />
      <path
         d="m 1946.88,59.0313 c 0,4.9921 -0.1,9.0937 -0.39,13.0859 h 7.79 l 0.5,-7.9844 h 0.21 c 2.39,4.5899 7.98,9.0899 15.98,9.0899 6.7,0 17.09,-3.9961 17.09,-20.586 V 23.75 h -8.8 v 27.8828 c 0,7.8008 -2.89,14.2969 -11.19,14.2969 -5.8,0 -10.29,-4.1055 -11.8,-8.9961 -0.39,-1.1055 -0.59,-2.5977 -0.59,-4.1016 V 23.75 h -8.8 v 35.2813"
         style="fill:#231f20;fill-opacity:1;fill-rule:nonzero;stroke:none"
         id="path44" />
      <path
         d="M 2012.97,83.7227 V 72.1172 h 12.6 v -6.6875 h -12.6 v -26.082 c 0,-5.9961 1.7,-9.3985 6.61,-9.3985 2.4,0 3.79,0.1953 5.09,0.5977 l 0.4,-6.6016 c -1.7,-0.6914 -4.4,-1.3008 -7.8,-1.3008 -4.09,0 -7.39,1.4102 -9.49,3.8008 -2.5,2.5977 -3.4,6.9063 -3.4,12.5977 v 26.3867 h -7.5 v 6.6875 h 7.5 v 8.8984 l 8.59,2.7071"
         style="fill:#231f20;fill-opacity:1;fill-rule:nonzero;stroke:none"
         id="path46" />
      <path
         d="m 2060.97,48.4375 c -9.6,0.1953 -20.49,-1.5039 -20.49,-10.8984 0,-5.6914 3.8,-8.3907 8.29,-8.3907 6.3,0 10.3,3.9961 11.7,8.0977 0.3,0.8984 0.5,1.8945 0.5,2.793 z m 8.5,-13.0937 c 0,-4.2032 0.2,-8.293 0.79,-11.5938 h -7.99 l -0.7,6.0938 h -0.3 c -2.7,-3.7969 -7.9,-7.1993 -14.79,-7.1993 -9.8,0 -14.8,6.9063 -14.8,13.8985 0,11.6875 10.4,18.0859 29.09,17.9883 v 1.0039 c 0,3.9961 -1.1,11.1914 -11,11.1914 -4.49,0 -9.19,-1.4063 -12.59,-3.6016 l -2,5.8008 c 4,2.5976 9.81,4.2969 15.9,4.2969 14.78,0 18.39,-10.0977 18.39,-19.7852 V 35.3438"
         style="fill:#231f20;fill-opacity:1;fill-rule:nonzero;stroke:none"
         id="path48" />
      <path
         d="m 2078.09,11.4531 c 2.09,5.8985 4.79,16.5938 5.9,23.8907 l 9.78,1.0039 c -2.29,-8.4961 -6.69,-19.5899 -9.49,-24.2891 l -6.19,-0.6055"
         style="fill:#231f20;fill-opacity:1;fill-rule:nonzero;stroke:none"
         id="path50" />
      <path
         d="m 2173.56,26.75 c -3.91,-1.3984 -11.6,-3.7031 -20.69,-3.7031 -10.2,0 -18.59,2.5976 -25.19,8.8945 -5.8,5.5977 -9.39,14.5899 -9.39,25.0899 0.09,20.0859 13.88,34.7851 36.48,34.7851 7.79,0 13.89,-1.6992 16.79,-3.1055 l -2.1,-7.0898 c -3.6,1.5937 -8.1,2.8984 -14.89,2.8984 -16.4,0 -27.08,-10.1953 -27.08,-27.0859 0,-17.0898 10.29,-27.1914 25.97,-27.1914 5.71,0 9.6,0.8047 11.6,1.8008 v 20.0976 h -13.69 v 6.9922 h 22.19 V 26.75"
         style="fill:#231f20;fill-opacity:1;fill-rule:nonzero;stroke:none"
         id="path52" />
      <path
         d="m 2219.87,51.7383 -6.6,19.3867 c -1.51,4.3906 -2.5,8.3945 -3.5,12.293 h -0.19 c -1.01,-3.9922 -2.11,-8.0977 -3.4,-12.1953 l -6.6,-19.4844 z m -22.09,-6.7969 -6.99,-21.1914 h -9.01 l 22.89,67.3633 h 10.49 L 2238.15,23.75 h -9.29 l -7.19,21.1914 h -23.89"
         style="fill:#231f20;fill-opacity:1;fill-rule:nonzero;stroke:none"
         id="path54" />
      <path
         d="m 2296.88,39.4414 c -5.7,0 -10.4,4.4922 -10.4,10.3945 -0.11,5.8946 4.7,10.5938 10.5,10.5938 5.79,0 10.49,-4.6992 10.49,-10.4961 0,-5.8906 -4.59,-10.4922 -10.49,-10.4922 h -0.1"
         style="fill:#231f20;fill-opacity:1;fill-rule:nonzero;stroke:none"
         id="path56" />
      <path
         d="M 2369.77,91.1133 V 51.2305 c 0,-15.0899 6.7,-21.4844 15.69,-21.4844 9.99,0 16.4,6.6016 16.4,21.4844 v 39.8828 h 8.79 V 51.8359 c 0,-20.6953 -10.9,-29.1914 -25.49,-29.1914 -13.79,0 -24.18,7.9024 -24.18,28.7891 v 39.6797 h 8.79"
         style="fill:#231f20;fill-opacity:1;fill-rule:nonzero;stroke:none"
         id="path58" />
      <path
         d="m 2424.58,34.3477 c 3.89,-2.4063 9.59,-4.3985 15.58,-4.3985 8.91,0 14.1,4.6992 14.1,11.4844 0,6.3008 -3.6,9.9062 -12.69,13.4023 -11,3.8946 -17.8,9.5899 -17.8,19.0899 0,10.4883 8.7,18.293 21.79,18.293 6.91,0 11.9,-1.6055 14.89,-3.3008 l -2.4,-7.1016 c -2.19,1.1992 -6.69,3.2031 -12.79,3.2031 -9.19,0 -12.69,-5.5 -12.69,-10.0976 0,-6.2969 4.1,-9.3946 13.39,-12.9883 11.4,-4.4063 17.19,-9.9023 17.19,-19.793 0,-10.3906 -7.7,-19.4961 -23.58,-19.4961 -6.5,0 -13.59,2.0039 -17.19,4.4063 l 2.2,7.2969"
         style="fill:#231f20;fill-opacity:1;fill-rule:nonzero;stroke:none"
         id="path60" />
      <path
         d="m 2508.05,51.7383 -6.59,19.3867 c -1.49,4.3906 -2.49,8.3945 -3.5,12.293 h -0.2 c -1,-3.9922 -2.09,-8.0977 -3.4,-12.1953 l -6.59,-19.4844 z m -22.08,-6.7969 -7,-21.1914 h -8.98 l 22.88,67.3633 h 10.49 L 2526.35,23.75 h -9.29 l -7.2,21.1914 h -23.89"
         style="fill:#231f20;fill-opacity:1;fill-rule:nonzero;stroke:none"
         id="path62" />
      <path
         d="m 2585.07,39.4414 c -5.69,0 -10.4,4.4922 -10.4,10.3945 -0.09,5.8946 4.71,10.5938 10.5,10.5938 5.79,0 10.5,-4.6992 10.5,-10.4961 0,-5.8906 -4.6,-10.4922 -10.5,-10.4922 h -0.1"
         style="fill:#231f20;fill-opacity:1;fill-rule:nonzero;stroke:none"
         id="path64" />
      <path
         d="m 2654.63,81.7969 7.68,-29.5 c 1.68,-6.4766 3.23,-12.4727 4.32,-18.4688 h 0.35 c 1.33,5.8672 3.24,12.1094 5.15,18.4688 l 9.48,29.5 h 8.88 l 8.99,-29.0235 c 2.17,-6.9531 3.85,-13.0781 5.15,-18.9453 h 0.37 c 0.96,5.8672 2.52,11.9922 4.44,18.8282 l 8.28,29.1406 h 10.43 L 2709.44,23.75 h -9.59 l -8.89,27.7031 c -2.03,6.4766 -3.71,12.2383 -5.15,19.0742 h -0.24 c -1.44,-6.9648 -3.24,-12.9609 -5.27,-19.1875 L 2670.94,23.75 h -9.6 l -17.51,58.0469 h 10.8"
         style="fill:#231f20;fill-opacity:1;fill-rule:nonzero;stroke:none"
         id="path66" />
      <path
         d="m 2742.95,81.7969 7.68,-29.5 c 1.68,-6.4766 3.23,-12.4727 4.32,-18.4688 h 0.35 c 1.33,5.8672 3.24,12.1094 5.15,18.4688 l 9.48,29.5 h 8.88 l 8.99,-29.0235 c 2.17,-6.9531 3.85,-13.0781 5.15,-18.9453 h 0.38 c 0.95,5.8672 2.51,11.9922 4.43,18.8282 l 8.28,29.1406 h 10.43 L 2797.76,23.75 h -9.59 l -8.89,27.7031 c -2.03,6.4766 -3.71,12.2383 -5.15,19.0742 h -0.24 c -1.44,-6.9648 -3.24,-12.9609 -5.27,-19.1875 L 2759.26,23.75 h -9.6 l -17.51,58.0469 h 10.8"
         style="fill:#231f20;fill-opacity:1;fill-rule:nonzero;stroke:none"
         id="path68" />
      <path
         d="m 2831.27,81.7969 7.68,-29.5 c 1.68,-6.4766 3.23,-12.4727 4.32,-18.4688 h 0.35 c 1.33,5.8672 3.24,12.1094 5.15,18.4688 l 9.48,29.5 h 8.88 l 8.99,-29.0235 c 2.17,-6.9531 3.85,-13.0781 5.15,-18.9453 h 0.38 c 0.95,5.8672 2.52,11.9922 4.43,18.8282 l 8.28,29.1406 h 10.43 L 2886.08,23.75 h -9.59 l -8.89,27.7031 c -2.03,6.4766 -3.71,12.2383 -5.15,19.0742 h -0.24 c -1.44,-6.9648 -3.24,-12.9609 -5.27,-19.1875 L 2847.58,23.75 h -9.6 l -17.51,58.0469 h 10.8"
         style="fill:#231f20;fill-opacity:1;fill-rule:nonzero;stroke:none"
         id="path70" />
      <path
         d="m 2911.06,22.4336 c -4.07,0 -6.95,3.2422 -6.95,7.5547 0,4.4375 2.99,7.5508 7.19,7.5508 4.2,0 7.08,-3.1133 7.08,-7.5508 0,-4.3125 -2.76,-7.5547 -7.2,-7.5547 h -0.12"
         style="fill:#231f20;fill-opacity:1;fill-rule:nonzero;stroke:none"
         id="path72" />
      <path
         d="m 2968.29,58.4063 c 0.11,6.7226 -2.76,17.1523 -14.63,17.1523 -10.69,0 -15.35,-9.8359 -16.19,-17.1523 z m -30.94,-7.5469 c 0.23,-14.2774 9.34,-20.1563 19.9,-20.1563 7.56,0 12.11,1.3164 16.08,2.9961 l 1.79,-7.5469 c -3.72,-1.6796 -10.08,-3.7187 -19.31,-3.7187 -17.88,0 -28.54,11.875 -28.54,29.3828 0,17.5078 10.31,31.2969 27.23,31.2969 18.94,0 23.98,-16.668 23.98,-27.3438 0,-2.1562 -0.24,-3.8359 -0.36,-4.9101 h -40.77"
         style="fill:#231f20;fill-opacity:1;fill-rule:nonzero;stroke:none"
         id="path74" />
      <path
         d="m 3031.16,58.293 c 0,1.4336 -0.12,3.1133 -0.48,4.4336 -1.55,6.4843 -7.2,12 -15.11,12 -10.92,0 -17.52,-9.2383 -17.52,-22.3164 0,-11.5118 5.53,-21.5821 17.16,-21.5821 6.84,0 12.71,4.1914 15.11,11.5157 0.49,1.4335 0.84,3.4765 0.84,5.0312 z m 0,-25.5508 h -0.24 c -3.12,-5.75 -9.59,-10.3086 -18.94,-10.3086 -13.56,0 -24.59,11.7461 -24.59,29.3828 0,21.707 14.02,31.2969 26.27,31.2969 8.98,0 14.98,-4.4297 17.86,-10.0664 h 0.24 l 0.35,8.75 h 9.97 c -0.24,-4.9102 -0.37,-9.9492 -0.37,-15.9453 V 0 h -10.55 v 32.7422"
         style="fill:#231f20;fill-opacity:1;fill-rule:nonzero;stroke:none"
         id="path76" />
      <path
         d="m 3107.72,39.5781 c 0,-5.9922 0.12,-11.2695 0.47,-15.8281 h -9.36 l -0.59,9.4727 h -0.25 c -2.75,-4.6758 -8.86,-10.7891 -19.18,-10.7891 -9.12,0 -20.04,5.0391 -20.04,25.4258 v 33.9375 h 10.57 V 49.6563 c 0,-11.0313 3.36,-18.4727 12.95,-18.4727 7.07,0 11.99,4.918 13.91,9.5977 0.6,1.5625 0.95,3.4765 0.95,5.4023 v 35.6133 h 10.57 V 39.5781"
         style="fill:#231f20;fill-opacity:1;fill-rule:nonzero;stroke:none"
         id="path78" />
      <path
         d="m 3125.26,23.75 v 58.0469 h 10.57 V 23.75 Z m 11.76,74.3555 c 0.11,-3.5938 -2.52,-6.4727 -6.72,-6.4727 -3.71,0 -6.35,2.8789 -6.35,6.4727 0,3.7185 2.75,6.6015 6.59,6.6015 3.96,0 6.48,-2.883 6.48,-6.6015"
         style="fill:#231f20;fill-opacity:1;fill-rule:nonzero;stroke:none"
         id="path80" />
      <path
         d="m 3154.42,23.75 v 50.0117 h -8.16 v 8.0352 h 8.16 v 2.7617 c 0,8.1562 1.8,15.5864 6.72,20.2654 3.95,3.836 9.24,5.403 14.15,5.403 3.72,0 6.96,-0.84 8.99,-1.68 l -1.44,-8.156 c -1.56,0.711 -3.71,1.32 -6.71,1.32 -9,0 -11.28,-7.9219 -11.28,-16.8008 v -3.1133 h 14.04 v -8.0352 h -14.04 V 23.75 h -10.43"
         style="fill:#231f20;fill-opacity:1;fill-rule:nonzero;stroke:none"
         id="path82" />
      <path
         d="m 3218.96,53.3672 c -11.51,0.2461 -24.58,-1.7969 -24.58,-13.0625 0,-6.8359 4.55,-10.0781 9.95,-10.0781 7.55,0 12.35,4.7929 14.03,9.7148 0.36,1.082 0.6,2.2774 0.6,3.3594 z m 10.2,-15.6992 c 0,-5.0391 0.24,-9.9649 0.96,-13.918 h -9.6 l -0.84,7.3125 h -0.36 c -3.24,-4.5586 -9.47,-8.6289 -17.75,-8.6289 -11.75,0 -17.75,8.2695 -17.75,16.668 0,14.0351 12.47,21.707 34.9,21.5898 v 1.1953 c 0,4.8008 -1.31,13.4336 -13.19,13.4336 -5.4,0 -11.03,-1.6797 -15.11,-4.3125 l -2.41,6.9531 c 4.81,3.1133 11.76,5.1524 19.08,5.1524 17.75,0 22.07,-12.1055 22.07,-23.7383 V 37.668"
         style="fill:#231f20;fill-opacity:1;fill-rule:nonzero;stroke:none"
         id="path84" />
      <path
         d="m 3251.14,81.7969 8.28,-12.4727 c 2.15,-3.2383 3.95,-6.2383 5.87,-9.4726 h 0.36 c 1.91,3.4765 3.84,6.4765 5.76,9.5898 l 8.15,12.3555 h 11.4 L 3271.17,53.7305 3291.56,23.75 h -12 l -8.51,13.0742 c -2.28,3.3594 -4.2,6.5938 -6.24,10.0703 h -0.23 c -1.93,-3.5937 -3.97,-6.5898 -6.13,-10.0703 L 3250.06,23.75 h -11.64 l 20.63,29.6172 -19.67,28.4297 h 11.76"
         style="fill:#231f20;fill-opacity:1;fill-rule:nonzero;stroke:none"
         id="path86" />
      <path
         d="m 3306.22,22.4336 c -4.09,0 -6.96,3.2422 -6.96,7.5547 0,4.4375 2.99,7.5508 7.19,7.5508 4.2,0 7.08,-3.1133 7.08,-7.5508 0,-4.3125 -2.76,-7.5547 -7.2,-7.5547 h -0.11"
         style="fill:#231f20;fill-opacity:1;fill-rule:nonzero;stroke:none"
         id="path88" />
      <path
         d="m 3367.99,25.9063 c -2.75,-1.4336 -8.87,-3.4727 -16.67,-3.4727 -17.51,0 -28.9,11.9922 -28.9,29.7461 0,17.8711 12.23,30.8203 31.18,30.8203 6.24,0 11.76,-1.5664 14.63,-3 l -2.4,-8.1523 c -2.51,1.4336 -6.47,2.7539 -12.23,2.7539 -13.31,0 -20.51,-9.836 -20.51,-21.9453 0,-13.4375 8.63,-21.711 20.16,-21.711 5.99,0 9.95,1.5664 12.95,2.8828 l 1.79,-7.9218"
         style="fill:#231f20;fill-opacity:1;fill-rule:nonzero;stroke:none"
         id="path90" />
      <path
         d="m 3386.85,52.6563 c 0,-12.7149 7.32,-22.3125 17.63,-22.3125 10.08,0 17.63,9.4804 17.63,22.5468 0,9.836 -4.92,22.3125 -17.39,22.3125 -12.47,0 -17.87,-11.5117 -17.87,-22.5468 z m 46.06,0.5976 c 0,-21.4687 -14.88,-30.8203 -28.9,-30.8203 -15.72,0 -27.83,11.5117 -27.83,29.8633 0,19.4297 12.71,30.8164 28.79,30.8164 16.67,0 27.94,-12.1055 27.94,-29.8594"
         style="fill:#231f20;fill-opacity:1;fill-rule:nonzero;stroke:none"
         id="path92" />
      <path
         d="m 3446.25,66.0859 c 0,5.9922 -0.11,10.918 -0.47,15.711 h 9.22 l 0.49,-9.3555 h 0.35 c 3.25,5.5195 8.65,10.6719 18.25,10.6719 7.91,0 13.9,-4.793 16.42,-11.6289 h 0.24 c 1.79,3.2422 4.08,5.75 6.48,7.5586 3.48,2.6367 7.31,4.0703 12.83,4.0703 7.68,0 19.07,-5.0391 19.07,-25.1836 V 23.75 h -10.32 v 32.8594 c 0,11.1562 -4.08,17.8711 -12.59,17.8711 -6,0 -10.67,-4.4297 -12.47,-9.5977 -0.48,-1.4375 -0.83,-3.3515 -0.83,-5.2734 V 23.75 h -10.33 v 34.7852 c 0,9.2304 -4.07,15.9453 -12.11,15.9453 -6.59,0 -11.39,-5.2696 -13.07,-10.5547 -0.6,-1.5508 -0.84,-3.3594 -0.84,-5.1563 V 23.75 h -10.32 v 42.3359"
         style="fill:#231f20;fill-opacity:1;fill-rule:nonzero;stroke:none"
         id="path94" />
      <path
         d="m 3395.43,780.586 c 27.11,0 48.72,-22.031 48.72,-49.59 0,-27.969 -21.61,-49.805 -48.93,-49.805 -27.09,0 -49.12,21.836 -49.12,49.805 0,27.559 22.03,49.59 49.12,49.59 z m -0.21,-7.734 c -21.82,0 -39.65,-18.731 -39.65,-41.856 0,-23.574 17.83,-42.07 39.86,-42.07 22.06,-0.235 39.65,18.496 39.65,41.855 0,23.34 -17.59,42.071 -39.65,42.071 z m -9.28,-70.704 h -8.79 v 55.293 c 4.65,0.664 9.03,1.329 15.63,1.329 8.4,0 13.9,-1.758 17.21,-4.2 3.3,-2.422 5.05,-6.172 5.05,-11.445 0,-7.266 -4.84,-11.66 -10.78,-13.457 v -0.43 c 4.83,-0.879 8.15,-5.293 9.24,-13.437 1.31,-8.594 2.62,-11.895 3.54,-13.653 h -9.26 c -1.33,1.758 -2.66,6.817 -3.75,14.102 -1.31,7.051 -4.85,9.668 -11.88,9.668 h -6.21 z m 0,30.625 h 6.43 c 7.24,0 13.42,2.637 13.42,9.454 0,4.882 -3.54,9.707 -13.42,9.707 -2.89,0 -4.87,-0.196 -6.43,-0.43 v -18.731"
         style="fill:#b20d35;fill-opacity:1;fill-rule:nonzero;stroke:none"
         id="path96" />
      <path
         d="M 0.00390625,333.672 109.926,820.996 H 544.613 L 524.418,722.695 H 285.238 L 267.289,640.371 H 475.824 L 454.457,543.223 H 245.512 L 222.465,437.109 H 468.324 L 446.762,333.672 H 0.00390625"
         style="fill:#b20d35;fill-opacity:1;fill-rule:nonzero;stroke:none"
         id="path98" />
      <path
         d="m 527.699,619.395 c 44.571,172.265 163.36,170.781 304.453,167.812 96.602,-2.031 246.528,-2.969 219.808,-154.453 0,0 -5.96,-43.047 -15.78,-89.609 H 884.086 L 1189.73,177.031 H 986.879 L 854.418,335.742 c 0,0 -50.508,-17.832 -130.684,-14.844 -80.175,2.989 -228.711,-0.058 -222.754,139.59 2.969,69.785 26.719,158.907 26.719,158.907 m 187.129,23.75 C 683.949,557.168 673.246,478.32 673.246,478.32 c -10.391,-57.929 31.211,-78.711 71.289,-78.711 32.793,0 79.102,19.395 93.555,59.375 29.961,83.184 41.601,166.348 41.601,166.348 14.844,92.07 -71.308,78.711 -71.308,78.711 -68.906,4.648 -93.555,-60.898 -93.555,-60.898"
         style="fill:#b20d35;fill-opacity:1;fill-rule:nonzero;stroke:none"
         id="path100" />
      <path
         d="m 1131.84,766.465 h 177.34 c 0,0 -56.73,-249.551 -68.94,-311.113 0,0 1.8,-51.309 55.98,-51.446 0,0 70.95,-10.957 85.21,47.207 l 70.94,315.352 h 180.06 c 0,0 -68.13,-311.914 -80.04,-350.527 -11.86,-38.614 -71.29,-90.606 -206.41,-98.047 -23.28,-1.231 -63.85,0 -109.88,5.996 L 1074.22,515.43 c 0,0 43.36,199.863 57.62,251.035"
         style="fill:#b20d35;fill-opacity:1;fill-rule:nonzero;stroke:none"
         id="path102" />
      <path
         d="m 1699.44,766.465 h 181.19 l -97.85,-431.973 h -176.99 l 93.65,431.973"
         style="fill:#b20d35;fill-opacity:1;fill-rule:nonzero;stroke:none"
         id="path104" />
      <path
         d="m 2032.66,334.512 h -178.71 l 94,431.972 h 389.91 l -20.67,-84.531 h -205.27 l -19.61,-79.551 h 175.23 l -18.47,-82.968 h -173.38 l -43.03,-184.922"
         style="fill:#b20d35;fill-opacity:1;fill-rule:nonzero;stroke:none"
         id="path106" />
      <path
         d="M 2277.5,334.512 H 2151.96 L 2457,766.484 h 216.64 l 43.08,-350.566 145.49,133.691 -142.77,216.875 h 229.61 l 69.14,-109.98 111.85,109.98 h 175.92 l -228.4,-200.566 149.11,-231.406 h -221.39 l -74.73,128.965 -123.88,-128.965 h -267.72 l -8.32,94.375 h -189.32 z m 124.81,188.359 h 113.71 l -13.91,142.559 z"
         style="fill:#b20d35;fill-opacity:1;fill-rule:nonzero;stroke:none"
         id="path108" />
    </g>
  </g>
</svg>
