<?xml version="1.0" encoding="UTF-8" standalone="no"?>
<svg
   xmlns:dc="http://purl.org/dc/elements/1.1/"
   xmlns:cc="http://creativecommons.org/ns#"
   xmlns:rdf="http://www.w3.org/1999/02/22-rdf-syntax-ns#"
   xmlns:svg="http://www.w3.org/2000/svg"
   xmlns="http://www.w3.org/2000/svg"
   viewBox="0 0 576 384"
   height="384"
   width="576"
   xml:space="preserve"
   id="svg2"
   version="1.1"><metadata
     id="metadata8"><rdf:RDF><cc:Work
         rdf:about=""><dc:format>image/svg+xml</dc:format><dc:type
           rdf:resource="http://purl.org/dc/dcmitype/StillImage" /></cc:Work></rdf:RDF></metadata><defs
     id="defs6"><clipPath
       id="clipPath54"
       clipPathUnits="userSpaceOnUse"><path
         id="path52"
         d="M 0,288 H 432 V 0 H 0 Z" /></clipPath></defs><g
     transform="matrix(1.3333333,0,0,-1.3333333,0,384)"
     id="g10"><g
       transform="translate(100.0332,146.9604)"
       id="g12"><path
         id="path14"
         style="fill:#e97c3d;fill-opacity:1;fill-rule:nonzero;stroke:none"
         d="m 0,0 h -8.287 v 9.009 h -3.258 V 0 h -8.288 v -3.201 h 8.288 v -9.007 h 3.258 v 9.007 H 0 Z" /></g><g
       transform="translate(83.3716,132.2529)"
       id="g16"><path
         id="path18"
         style="fill:#c93545;fill-opacity:1;fill-rule:nonzero;stroke:none"
         d="m 0,0 h -7.426 v 8.065 h -2.81 V 0 h -7.424 v -2.459 h 7.424 v -8.067 h 2.81 v 8.067 H 0 Z" /></g><g
       transform="translate(114.5229,161.104)"
       id="g20"><path
         id="path22"
         style="fill:#638c9e;fill-opacity:1;fill-rule:nonzero;stroke:none"
         d="m 0,0 h -7.424 v 8.104 h -2.813 V 0 h -7.424 v -2.457 h 7.424 v -8.029 h 2.813 v 8.029 H 0 Z" /></g><g
       transform="translate(96.4028,123.3027)"
       id="g24"><path
         id="path26"
         style="fill:#646c95;fill-opacity:1;fill-rule:nonzero;stroke:none"
         d="m 0,0 h -5.038 v 5.625 h -2.4 V 0 h -5.037 v -2.172 h 5.037 v -5.626 h 2.4 v 5.626 H 0 Z" /></g><g
       transform="translate(83.3716,161.1055)"
       id="g28"><path
         id="path30"
         style="fill:#ec943b;fill-opacity:1;fill-rule:nonzero;stroke:none"
         d="m 0,0 h -7.513 v 8.103 h -2.634 V 0 h -7.513 v -2.386 h 7.513 v -8.101 h 2.634 v 8.101 H 0 Z" /></g><g
       transform="translate(120.2271,146.4458)"
       id="g32"><path
         id="path34"
         style="fill:#646c95;fill-opacity:1;fill-rule:nonzero;stroke:none"
         d="M 0,0 H -5.037 V 5.624 H -7.438 V 0 h -5.037 v -2.172 h 5.037 v -5.625 h 2.401 v 5.625 H 0 Z" /></g><g
       transform="translate(114.5229,132.2529)"
       id="g36"><path
         id="path38"
         style="fill:#355083;fill-opacity:1;fill-rule:evenodd;stroke:none"
         d="m 0,0 h -7.424 v 8.065 h -2.813 V 0 h -7.424 v -2.459 h 7.424 v -8.067 h 2.813 v 8.067 H 0 Z" /></g><g
       transform="translate(89.2681,174.9585)"
       id="g40"><path
         id="path42"
         style="fill:#779ca8;fill-opacity:1;fill-rule:nonzero;stroke:none"
         d="m 0,0 v -5.519 h -4.983 v -1.67 H 0 v -5.519 h 1.792 v 5.519 h 4.985 v 1.67 H 1.792 l 0,5.519 z" /></g><g
       transform="translate(71.7114,146.23)"
       id="g44"><path
         id="path46"
         style="fill:#779ca8;fill-opacity:1;fill-rule:nonzero;stroke:none"
         d="M 0,0 H -5.002 V 5.411 H -6.76 V 0 h -5.002 v -1.741 l 5.002,0.032 v -5.443 h 1.758 v 5.453 L 0,-1.669 Z" /></g><g
       id="g48"><g
         clip-path="url(#clipPath54)"
         id="g50"><g
           transform="translate(147.3599,114.5625)"
           id="g56"><path
             id="path58"
             style="fill:#638c9e;fill-opacity:1;fill-rule:evenodd;stroke:none"
             d="m 0,0 c 0.609,-0.366 1.268,-0.548 1.977,-0.548 1.434,0 2.25,0.657 2.25,1.694 0,0.63 -0.249,1.114 -0.751,1.423 C 3.053,2.829 2.569,2.986 2.06,3.178 1.543,3.37 1.293,3.578 1.293,3.813 c 0,0.29 0.285,0.458 0.834,0.458 0.525,0 1.134,-0.203 1.86,-0.568 V 4.871 C 3.336,5.188 2.677,5.338 2.052,5.338 0.743,5.338 -0.099,4.646 -0.099,3.696 -0.099,2.663 0.602,2.186 2.035,1.684 2.535,1.512 2.793,1.401 2.793,1.06 2.793,0.728 2.501,0.552 1.943,0.552 1.301,0.552 0.717,0.826 0,1.269 Z" /></g><g
           transform="translate(176.8052,116.957)"
           id="g60"><path
             id="path62"
             style="fill:#638c9e;fill-opacity:1;fill-rule:evenodd;stroke:none"
             d="M 0,0 C 0,1.026 0.682,1.75 1.625,1.75 2.569,1.75 3.253,1.026 3.253,0 3.253,-1.025 2.569,-1.742 1.625,-1.742 0.682,-1.742 0,-1.025 0,0 m -1.468,0 c 0,-0.842 0.31,-1.575 0.894,-2.126 0.574,-0.543 1.301,-0.816 2.199,-0.816 0.902,0 1.636,0.273 2.21,0.816 0.584,0.551 0.894,1.278 0.894,2.126 0,0.851 -0.31,1.573 -0.894,2.135 C 3.261,2.678 2.527,2.943 1.625,2.943 0.727,2.943 0,2.678 -0.574,2.135 -1.158,1.573 -1.468,0.851 -1.468,0" /></g><g
           transform="translate(206.8071,114.1143)"
           id="g64"><path
             id="path66"
             style="fill:#638c9e;fill-opacity:1;fill-rule:evenodd;stroke:none"
             d="M 0,0 H 1.427 V 2.343 H 3.545 V 3.408 H 1.427 v 1.238 h 2.26 V 5.694 H 0 Z" /></g><g
           transform="translate(237.1035,114.1143)"
           id="g68"><path
             id="path70"
             style="fill:#638c9e;fill-opacity:1;fill-rule:evenodd;stroke:none"
             d="m 0,0 h 1.501 v 4.635 h 1.885 v 1.059 h -5.27 V 4.635 H 0 Z" /></g><g
           transform="translate(265.7783,114.0635)"
           id="g72"><path
             id="path74"
             style="fill:#638c9e;fill-opacity:1;fill-rule:evenodd;stroke:none"
             d="M 0,0 H 0.582 L 1.875,3.562 3.159,0 H 3.751 L 6.063,5.745 H 4.568 L 3.469,2.634 2.352,5.745 H 1.399 L 0.283,2.652 -0.824,5.745 H -2.31 Z" /></g><g
           transform="translate(295.7568,116.1973)"
           id="g76"><path
             id="path78"
             style="fill:#638c9e;fill-opacity:1;fill-rule:evenodd;stroke:none"
             d="M 0,0 0.884,2.169 1.684,0 Z m -2.386,-2.083 h 1.52 l 0.457,1.108 h 2.451 l 0.41,-1.108 h 1.51 L 1.741,3.611 H 0.099 Z" /></g><g
           transform="translate(324.9453,117.4756)"
           id="g80"><path
             id="path82"
             style="fill:#638c9e;fill-opacity:1;fill-rule:evenodd;stroke:none"
             d="M 0,0 H -0.684 V 1.323 H 0 C 0.515,1.323 0.785,1.084 0.785,0.665 0.785,0.213 0.533,0 0,0 m -2.108,-3.361 h 1.424 v 2.318 c 0.057,0 0.107,0.009 0.166,0.009 0.56,0 0.81,-0.177 1.033,-0.685 l 0.727,-1.642 h 1.61 l -0.91,1.952 c -0.168,0.366 -0.393,0.606 -0.676,0.717 0.687,0.307 0.994,0.75 0.994,1.375 0,1.14 -0.743,1.65 -2.27,1.65 h -2.098 z" /></g><g
           transform="translate(351.4326,114.1143)"
           id="g84"><path
             id="path86"
             style="fill:#638c9e;fill-opacity:1;fill-rule:evenodd;stroke:none"
             d="M 0,0 H 3.878 V 1.066 H 1.426 v 1.36 H 3.704 V 3.484 H 1.426 V 4.646 H 3.811 V 5.694 H 0 Z" /></g><g
           transform="translate(223.9561,134.7031)"
           id="g88"><path
             id="path90"
             style="fill:#355083;fill-opacity:1;fill-rule:evenodd;stroke:none"
             d="m 0,0 c 3.893,0 6.125,2.231 6.125,6.205 0,3.908 -2.245,6.253 -5.746,6.253 -1.524,0 -2.968,-0.527 -4.026,-1.01 V 0.705 C -2.36,0.233 -1.158,0 0,0 m -3.647,15.294 c 1.963,0.772 3.706,1 4.822,1 5.566,0 9.327,-3.912 9.327,-10.046 0,-6.362 -3.952,-10.08 -10.921,-10.08 -2.417,0 -4.787,0.467 -7.277,1.311 l -0.118,28.136 h 4.167 z" /></g><path
           id="path92"
           style="fill:#355083;fill-opacity:1;fill-rule:evenodd;stroke:none"
           d="m 251.78,164.268 h 4.125 v -36.929 h -4.125 z" /><g
           transform="translate(283.3516,130.7949)"
           id="g94"><path
             id="path96"
             style="fill:#355083;fill-opacity:1;fill-rule:evenodd;stroke:none"
             d="m 0,0 c -6.353,0.616 -9.448,5.082 -9.27,10.377 0.192,5.718 3.893,9.776 9.536,9.776 5.92,0 9.349,-4.38 9.055,-10.841 H -4.929 C -4.588,5.733 -2.439,4.038 0.498,3.813 2.943,3.623 6.396,4.177 8.266,5.351 V 1.415 C 5.802,0.216 3.236,-0.314 0,0 m -4.672,12.347 h 9.47 c -0.107,2.52 -1.461,3.828 -3.873,3.983 -2.428,0.156 -4.781,-1.405 -5.597,-3.983" /></g><g
           transform="translate(353.8252,134.043)"
           id="g98"><path
             id="path100"
             style="fill:#355083;fill-opacity:1;fill-rule:evenodd;stroke:none"
             d="M 0,0 C 2.615,0 4.38,1.333 4.38,4.318 V 16.535 H 8.549 V 3.804 c 0,-4.255 -3.303,-6.851 -8.551,-6.851 -5.244,0 -8.547,2.596 -8.547,6.851 v 12.731 h 4.166 V 4.318 C -4.383,1.333 -2.612,0 0,0" /></g><g
           transform="translate(188.2783,134.7031)"
           id="g102"><path
             id="path104"
             style="fill:#355083;fill-opacity:1;fill-rule:evenodd;stroke:none"
             d="m 0,0 c 0.949,0.014 2.101,0.084 3.568,0.454 l 0.078,10.659 c -1.335,0.915 -2.622,1.345 -4.024,1.345 -3.502,0 -5.746,-2.345 -5.746,-6.253 C -6.124,2.231 -3.892,-0.055 0,0 m 0.419,-3.832 c -6.968,-0.022 -10.921,3.718 -10.921,10.08 0,6.134 3.764,10.046 9.326,10.046 1.879,0 3.431,-0.416 4.822,-1.317 v 1.406 H 7.813 L 7.695,-2.521 C 5.942,-3.283 3.063,-3.823 0.419,-3.832" /></g><g
           transform="translate(319.9463,134.7031)"
           id="g106"><path
             id="path108"
             style="fill:#355083;fill-opacity:1;fill-rule:evenodd;stroke:none"
             d="m 0,0 c 0.821,0.002 2.098,0.084 3.568,0.454 l 0.077,10.659 c -1.335,0.915 -2.624,1.345 -4.024,1.345 -3.503,0 -5.746,-2.345 -5.746,-6.253 C -6.125,2.231 -3.896,-0.008 0,0 m 0.417,-3.832 c -6.969,-0.022 -10.92,3.718 -10.92,10.08 0,6.134 3.761,10.046 9.325,10.046 1.877,0 3.43,-0.416 4.823,-1.317 v 1.406 H 7.811 L 7.691,-2.521 C 5.941,-3.283 3.062,-3.823 0.417,-3.832" /></g><g
           transform="translate(146.7681,158.9858)"
           id="g110"><path
             id="path112"
             style="fill:#355083;fill-opacity:1;fill-rule:nonzero;stroke:none"
             d="m 0,0 h 4.126 v -11.713 h 11.146 v -3.848 H 4.126 v -12.7 H 0 v 12.7 h -11.147 v 3.848 H 0 Z" /></g><g
           transform="translate(368.7607,148.3579)"
           id="g114"><path
             id="path116"
             style="fill:#355083;fill-opacity:1;fill-rule:nonzero;stroke:none"
             d="M 0,0 H 0.32 C 0.684,0 0.988,0.133 0.988,0.474 0.988,0.715 0.814,0.956 0.32,0.956 0.179,0.956 0.079,0.946 0,0.934 Z m 0,-1.527 h -0.438 v 2.758 c 0.231,0.033 0.451,0.067 0.78,0.067 0.42,0 0.692,-0.09 0.858,-0.209 C 1.363,0.967 1.452,0.781 1.452,0.517 1.452,0.155 1.21,-0.065 0.915,-0.155 V -0.174 C 1.153,-0.22 1.321,-0.438 1.373,-0.846 1.439,-1.274 1.507,-1.439 1.548,-1.527 H 1.089 C 1.022,-1.439 0.956,-1.187 0.903,-0.824 0.836,-0.471 0.659,-0.34 0.309,-0.34 H 0 Z M 0.464,2 c -1.089,0 -1.98,-0.935 -1.98,-2.087 0,-1.176 0.891,-2.099 1.989,-2.099 1.101,-0.013 1.978,0.923 1.978,2.088 C 2.451,1.065 1.574,2 0.473,2 Z m 0.009,0.384 c 1.351,0 2.429,-1.097 2.429,-2.471 0,-1.397 -1.078,-2.483 -2.438,-2.483 -1.355,0 -2.452,1.086 -2.452,2.483 0,1.374 1.097,2.471 2.452,2.471 z" /></g></g></g></g></svg>