<svg width="185" height="21" viewBox="0 0 185 21" fill="none" xmlns="http://www.w3.org/2000/svg">
<path d="M6.28675 10.7663C7.06161 10.7663 7.74311 10.6641 8.33125 10.4596C8.92873 10.2552 9.42819 9.97171 9.82962 9.60927C10.2404 9.23753 10.5485 8.7961 10.7539 8.28496C10.9592 7.77383 11.0619 7.21158 11.0619 6.59821C11.0619 5.32502 10.6652 4.33063 9.87163 3.61504C9.08744 2.89945 7.89248 2.54166 6.28675 2.54166H3.06595V10.7663H6.28675ZM6.28675 0.408832C7.5564 0.408832 8.658 0.557526 9.59157 0.854914C10.5345 1.14301 11.314 1.55656 11.9301 2.09558C12.5463 2.63459 13.0037 3.28513 13.3025 4.04719C13.6106 4.80924 13.7646 5.65958 13.7646 6.59821C13.7646 7.52755 13.6012 8.37789 13.2745 9.14924C12.9477 9.92059 12.4669 10.5851 11.8321 11.1427C11.2066 11.7003 10.4271 12.1371 9.49354 12.453C8.56931 12.7597 7.50038 12.9131 6.28675 12.9131H3.06595V20.3849H0.363281V0.408832H6.28675Z" fill="#3C3F41"/>
<path d="M24.455 10.0832C25.2391 10.0832 25.93 9.99029 26.5275 9.80443C27.1343 9.60926 27.6384 9.33976 28.0398 8.9959C28.4506 8.64275 28.7587 8.22455 28.9641 7.7413C29.1694 7.25804 29.2721 6.72367 29.2721 6.13819C29.2721 4.94864 28.88 4.05183 28.0958 3.44776C27.3117 2.84369 26.1354 2.54166 24.567 2.54166H21.5982V10.0832H24.455ZM33.7252 20.3849H31.3167C30.8219 20.3849 30.4578 20.1944 30.2244 19.8134L25.0151 12.6761C24.8564 12.453 24.6837 12.295 24.497 12.2021C24.3196 12.0999 24.0395 12.0488 23.6568 12.0488H21.5982V20.3849H18.8956V0.408832H24.567C25.8366 0.408832 26.9336 0.538939 27.8578 0.799153C28.782 1.05007 29.5429 1.41716 30.1404 1.90042C30.7472 2.38367 31.1953 2.96915 31.4847 3.65686C31.7741 4.33528 31.9188 5.09734 31.9188 5.94303C31.9188 6.64933 31.8068 7.30916 31.5827 7.92252C31.3587 8.53588 31.0319 9.08884 30.6025 9.58138C30.1824 10.0646 29.6642 10.4782 29.0481 10.822C28.4413 11.1659 27.7504 11.4261 26.9756 11.6027C27.321 11.7979 27.6197 12.0813 27.8718 12.453L33.7252 20.3849Z" fill="#3C3F41"/>
<path d="M57.1168 10.4038C57.1168 11.9001 56.8787 13.2755 56.4026 14.5301C55.9265 15.7754 55.2543 16.8488 54.3861 17.7503C53.5179 18.6517 52.4723 19.3534 51.2493 19.8552C50.0357 20.3477 48.6914 20.594 47.2163 20.594C45.7413 20.594 44.397 20.3477 43.1833 19.8552C41.9697 19.3534 40.9288 18.6517 40.0606 17.7503C39.1924 16.8488 38.5202 15.7754 38.0441 14.5301C37.568 13.2755 37.3299 11.9001 37.3299 10.4038C37.3299 8.90762 37.568 7.53684 38.0441 6.29153C38.5202 5.03693 39.1924 3.9589 40.0606 3.05744C40.9288 2.14669 41.9697 1.4404 43.1833 0.938553C44.397 0.436712 45.7413 0.185791 47.2163 0.185791C48.6914 0.185791 50.0357 0.436712 51.2493 0.938553C52.4723 1.4404 53.5179 2.14669 54.3861 3.05744C55.2543 3.9589 55.9265 5.03693 56.4026 6.29153C56.8787 7.53684 57.1168 8.90762 57.1168 10.4038ZM54.3301 10.4038C54.3301 9.17712 54.1621 8.07586 53.826 7.10006C53.4899 6.12425 53.0138 5.30179 52.3976 4.63267C51.7815 3.95425 51.0346 3.43382 50.1571 3.07138C49.2795 2.70894 48.2993 2.52772 47.2163 2.52772C46.1427 2.52772 45.1672 2.70894 44.2896 3.07138C43.4121 3.43382 42.6605 3.95425 42.0351 4.63267C41.4189 5.30179 40.9428 6.12425 40.6067 7.10006C40.2706 8.07586 40.1026 9.17712 40.1026 10.4038C40.1026 11.6306 40.2706 12.7318 40.6067 13.7076C40.9428 14.6741 41.4189 15.4966 42.0351 16.175C42.6605 16.8442 43.4121 17.3599 44.2896 17.7224C45.1672 18.0755 46.1427 18.2521 47.2163 18.2521C48.2993 18.2521 49.2795 18.0755 50.1571 17.7224C51.0346 17.3599 51.7815 16.8442 52.3976 16.175C53.0138 15.4966 53.4899 14.6741 53.826 13.7076C54.1621 12.7318 54.3301 11.6306 54.3301 10.4038Z" fill="#3C3F41"/>
<path d="M77.0163 16.2587C77.1657 16.2587 77.2964 16.3191 77.4084 16.4399L78.4867 17.5969C77.6652 18.5448 76.6662 19.2837 75.4899 19.8134C74.323 20.3431 72.9086 20.608 71.2469 20.608C69.8092 20.608 68.5022 20.3617 67.3259 19.8691C66.1496 19.3673 65.146 18.6703 64.3152 17.7781C63.4843 16.8767 62.8401 15.7986 62.3827 14.544C61.9253 13.2894 61.6965 11.9094 61.6965 10.4038C61.6965 8.89832 61.9346 7.51826 62.4107 6.26365C62.8868 5.00905 63.5543 3.93102 64.4132 3.02956C65.2814 2.12811 66.3177 1.4311 67.522 0.938553C68.7263 0.436712 70.0566 0.185791 71.513 0.185791C72.9413 0.185791 74.2016 0.413478 75.2939 0.868853C76.3862 1.32423 77.3477 1.94224 78.1786 2.72288L77.2824 3.96354C77.2264 4.05648 77.1517 4.13547 77.0583 4.20053C76.9743 4.25629 76.8576 4.28417 76.7082 4.28417C76.5402 4.28417 76.3348 4.19588 76.0921 4.0193C75.8494 3.83344 75.532 3.62898 75.1399 3.40594C74.7478 3.1829 74.2576 2.98309 73.6695 2.80652C73.0814 2.62065 72.3578 2.52772 71.499 2.52772C70.4627 2.52772 69.5151 2.70894 68.6562 3.07138C67.7974 3.42453 67.0552 3.94031 66.4297 4.61873C65.8136 5.29714 65.3328 6.12425 64.9873 7.10006C64.6419 8.07586 64.4692 9.17712 64.4692 10.4038C64.4692 11.6492 64.6466 12.7597 65.0013 13.7355C65.3654 14.7113 65.8556 15.5384 66.4717 16.2169C67.0972 16.886 67.83 17.3971 68.6702 17.7503C69.5198 18.1034 70.4347 18.28 71.4149 18.28C72.0124 18.28 72.5492 18.2474 73.0253 18.1824C73.5108 18.108 73.9542 17.9965 74.3557 17.8478C74.7664 17.6991 75.1445 17.5133 75.4899 17.2902C75.8447 17.0579 76.1948 16.7837 76.5402 16.4678C76.6989 16.3284 76.8576 16.2587 77.0163 16.2587Z" fill="#3C3F41"/>
<path d="M95.4399 18.1824L95.4259 20.3849H83.0608V0.408832H95.4259V2.61136H85.7775V9.24682H93.5915V11.3657H85.7775V18.1824H95.4399Z" fill="#3C3F41"/>
<path d="M110.472 3.5314C110.388 3.6708 110.295 3.77768 110.192 3.85202C110.099 3.91708 109.982 3.94961 109.842 3.94961C109.683 3.94961 109.497 3.87061 109.282 3.71262C109.067 3.55464 108.796 3.38271 108.47 3.19684C108.152 3.00168 107.765 2.82511 107.307 2.66712C106.859 2.50913 106.313 2.43014 105.669 2.43014C105.062 2.43014 104.525 2.51378 104.059 2.68106C103.601 2.83905 103.214 3.05744 102.896 3.33624C102.588 3.61504 102.355 3.94496 102.196 4.32599C102.037 4.69772 101.958 5.10198 101.958 5.53877C101.958 6.09637 102.093 6.56104 102.364 6.93278C102.644 7.29522 103.008 7.60654 103.456 7.86676C103.914 8.12697 104.427 8.35466 104.997 8.54982C105.576 8.73569 106.164 8.93085 106.761 9.1353C107.368 9.33976 107.956 9.57209 108.526 9.83231C109.105 10.0832 109.618 10.4038 110.066 10.7942C110.524 11.1845 110.888 11.6631 111.158 12.23C111.438 12.7969 111.578 13.4939 111.578 14.321C111.578 15.1946 111.429 16.017 111.13 16.7884C110.832 17.5504 110.393 18.2149 109.814 18.7818C109.245 19.3487 108.54 19.7948 107.699 20.1201C106.869 20.4453 105.921 20.608 104.857 20.608C103.55 20.608 102.364 20.3756 101.3 19.911C100.236 19.437 99.3254 18.8004 98.5692 18.0012L99.3534 16.7187C99.4281 16.6165 99.5168 16.5328 99.6195 16.4678C99.7315 16.3934 99.8529 16.3562 99.9836 16.3562C100.105 16.3562 100.24 16.4074 100.39 16.5096C100.548 16.6025 100.726 16.7233 100.922 16.872C101.118 17.0207 101.342 17.1834 101.594 17.3599C101.846 17.5365 102.131 17.6991 102.448 17.8478C102.775 17.9965 103.144 18.122 103.554 18.2242C103.965 18.3172 104.427 18.3636 104.941 18.3636C105.585 18.3636 106.159 18.2753 106.663 18.0988C107.167 17.9222 107.592 17.6759 107.938 17.3599C108.292 17.0347 108.563 16.649 108.75 16.2029C108.936 15.7568 109.03 15.2596 109.03 14.7113C109.03 14.1073 108.89 13.6147 108.61 13.2337C108.339 12.8434 107.98 12.5181 107.531 12.2579C107.083 11.9977 106.57 11.7793 105.991 11.6027C105.412 11.4168 104.824 11.231 104.227 11.0451C103.629 10.8499 103.041 10.6269 102.462 10.376C101.883 10.125 101.37 9.79978 100.922 9.40016C100.474 9.00055 100.11 8.50336 99.8296 7.90858C99.5588 7.30451 99.4235 6.56104 99.4235 5.67817C99.4235 4.97188 99.5588 4.28881 99.8296 3.62898C100.11 2.96916 100.511 2.38367 101.034 1.87254C101.566 1.3614 102.215 0.952495 102.98 0.645814C103.755 0.339132 104.642 0.185791 105.641 0.185791C106.761 0.185791 107.779 0.362365 108.694 0.715514C109.618 1.06866 110.43 1.5798 111.13 2.24892L110.472 3.5314Z" fill="#3C3F41"/>
<path d="M127.18 3.5314C127.096 3.6708 127.003 3.77768 126.9 3.85202C126.807 3.91708 126.69 3.94961 126.55 3.94961C126.391 3.94961 126.205 3.87061 125.99 3.71262C125.775 3.55464 125.504 3.38271 125.178 3.19684C124.86 3.00168 124.473 2.82511 124.015 2.66712C123.567 2.50913 123.021 2.43014 122.377 2.43014C121.77 2.43014 121.233 2.51378 120.767 2.68106C120.309 2.83905 119.922 3.05744 119.604 3.33624C119.296 3.61504 119.063 3.94496 118.904 4.32599C118.745 4.69772 118.666 5.10198 118.666 5.53877C118.666 6.09637 118.801 6.56104 119.072 6.93278C119.352 7.29522 119.716 7.60654 120.164 7.86676C120.622 8.12697 121.135 8.35466 121.705 8.54982C122.284 8.73569 122.872 8.93085 123.469 9.1353C124.076 9.33976 124.664 9.57209 125.234 9.83231C125.813 10.0832 126.326 10.4038 126.774 10.7942C127.232 11.1845 127.596 11.6631 127.866 12.23C128.146 12.7969 128.286 13.4939 128.286 14.321C128.286 15.1946 128.137 16.017 127.838 16.7884C127.54 17.5504 127.101 18.2149 126.522 18.7818C125.953 19.3487 125.248 19.7948 124.408 20.1201C123.577 20.4453 122.629 20.608 121.565 20.608C120.258 20.608 119.072 20.3756 118.008 19.911C116.944 19.437 116.279 18.8004 115.523 18.0012L116.061 16.7187C116.136 16.6165 116.225 16.5328 116.328 16.4678C116.44 16.3934 116.561 16.3562 116.692 16.3562C116.813 16.3562 116.948 16.4074 117.098 16.5096C117.256 16.6025 117.434 16.7233 117.63 16.872C117.826 17.0207 118.05 17.1834 118.302 17.3599C118.554 17.5365 118.839 17.6991 119.156 17.8478C119.483 17.9965 119.852 18.122 120.262 18.2242C120.673 18.3172 121.135 18.3636 121.649 18.3636C122.293 18.3636 122.867 18.2753 123.371 18.0988C123.875 17.9222 124.3 17.6759 124.646 17.3599C125 17.0347 125.271 16.649 125.458 16.2029C125.644 15.7568 125.738 15.2596 125.738 14.7113C125.738 14.1073 125.598 13.6147 125.318 13.2337C125.047 12.8434 124.688 12.5181 124.239 12.2579C123.791 11.9977 123.278 11.7793 122.699 11.6027C122.12 11.4168 121.532 11.231 120.935 11.0451C120.337 10.8499 119.749 10.6269 119.17 10.376C118.591 10.125 118.078 9.79978 117.63 9.40016C117.182 9.00055 116.818 8.50336 116.538 7.90858C116.267 7.30451 116.131 6.56104 116.131 5.67817C116.131 4.97188 116.267 4.28881 116.538 3.62898C116.818 2.96916 117.219 2.38367 117.742 1.87254C118.274 1.3614 118.923 0.952495 119.688 0.645814C120.463 0.339132 121.35 0.185791 122.349 0.185791C123.469 0.185791 124.487 0.362365 125.402 0.715514C126.326 1.06866 127.138 1.5798 127.838 2.24892L127.18 3.5314Z" fill="#3C3F41"/>
<path d="M155.865 0.631592V20.6077H153.484V5.92881C153.484 5.73365 153.489 5.52455 153.498 5.30151C153.517 5.07847 153.535 4.85078 153.554 4.61845L146.664 17.1087C146.45 17.5269 146.123 17.736 145.684 17.736H145.292C144.853 17.736 144.526 17.5269 144.312 17.1087L137.282 4.56269C137.338 5.05523 137.366 5.51061 137.366 5.92881V20.6077H134.985V0.631592H136.988C137.231 0.631592 137.417 0.654825 137.548 0.701292C137.679 0.747759 137.805 0.877866 137.926 1.09161L144.858 13.3867C144.97 13.6098 145.077 13.8421 145.18 14.0837C145.292 14.3254 145.395 14.5716 145.488 14.8226C145.581 14.5716 145.679 14.3254 145.782 14.0837C145.885 13.8328 145.997 13.5958 146.118 13.3728L152.924 1.09161C153.036 0.877866 153.157 0.747759 153.288 0.701292C153.428 0.654825 153.619 0.631592 153.862 0.631592H155.865Z" fill="#6EBE45"/>
<path d="M163.478 20.6077H160.762V0.631592H163.478V20.6077Z" fill="#6EBE45"/>
<path d="M185 20.6077H182.311C182.106 20.6077 181.943 20.5566 181.821 20.4543C181.709 20.3428 181.616 20.222 181.541 20.0919L176.164 11.7C176.089 11.923 176.005 12.1135 175.912 12.2715L170.675 20.0919C170.581 20.222 170.478 20.3428 170.366 20.4543C170.264 20.5566 170.119 20.6077 169.932 20.6077H167.412L174.315 10.3478L167.692 0.631592H170.394C170.591 0.631592 170.735 0.664118 170.829 0.729172C170.922 0.794226 171.006 0.88716 171.081 1.00797L176.318 9.00956C176.383 8.8144 176.481 8.60066 176.612 8.36832L181.555 1.06373C181.63 0.933627 181.719 0.8314 181.821 0.757053C181.924 0.673412 182.045 0.631592 182.185 0.631592H184.776L178.124 10.2223L185 20.6077Z" fill="#6EBE45"/>
</svg>
