<?xml version="1.0" encoding="utf-8"?>
<!-- Generator: Adobe Illustrator 27.6.1, SVG Export Plug-In . SVG Version: 6.00 Build 0)  -->
<svg version="1.1" id="Layer_1" xmlns="http://www.w3.org/2000/svg" xmlns:xlink="http://www.w3.org/1999/xlink" x="0px" y="0px"
	 viewBox="0 0 33 34" style="enable-background:new 0 0 33 34;" xml:space="preserve">
<style type="text/css">
	.st0{clip-path:url(#SVGID_00000087412634090137331630000005531800230201165187_);}
	.st1{fill:#FEAB30;}
	.st2{fill:#FECD83;}
	
		.st3{clip-path:url(#SVGID_00000117658335776420370940000014519213752705674935_);fill-rule:evenodd;clip-rule:evenodd;fill:#FEBC59;}
	.st4{fill-rule:evenodd;clip-rule:evenodd;fill:#FFB84D;}
</style>
<g>
	<defs>
		<path id="SVGID_1_" d="M4,0.2h25c2.2,0,4,1.8,4,4v25c0,2.2-1.8,4-4,4H4c-2.2,0-4-1.8-4-4v-25C0,2,1.8,0.2,4,0.2z"/>
	</defs>
	<clipPath id="SVGID_00000046329529418453963790000017367105317037503636_">
		<use xlink:href="#SVGID_1_"  style="overflow:visible;"/>
	</clipPath>
	<g style="clip-path:url(#SVGID_00000046329529418453963790000017367105317037503636_);">
		<g>
			<path class="st1" d="M4,0.7h25c1.9,0,3.5,1.6,3.5,3.5v25c0,1.9-1.6,3.5-3.5,3.5H4c-1.9,0-3.5-1.6-3.5-3.5v-25
				C0.5,2.3,2.1,0.7,4,0.7z"/>
			<path class="st2" d="M29,33.2H4c-2.2,0-4-1.8-4-4v-25c0-2.2,1.8-4,4-4h25c2.2,0,4,1.8,4,4v25C33,31.5,31.2,33.2,29,33.2z M4,1.2
				c-1.7,0-3,1.3-3,3v25c0,1.7,1.3,3,3,3h25c1.7,0,3-1.3,3-3v-25c0-1.7-1.3-3-3-3H4z"/>
		</g>
		<g>
			<path class="st1" d="M4,1.2h25c1.7,0,3,1.3,3,3v25c0,1.7-1.3,3-3,3H4c-1.7,0-3-1.3-3-3v-25C1,2.6,2.3,1.2,4,1.2z"/>
		</g>
		<g>
			<g>
				<defs>
					<path id="SVGID_00000022532489952609608340000000357862181112523908_" d="M20.4,1.2h-2.2c0.7,1.5,1.1,3.2,1.1,5
						c0,6.6-5.4,12-12,12c-2.3,0-4.5-0.6-6.3-1.8v2.3c1.9,1,4,1.5,6.3,1.5c7.7,0,14-6.3,14-14C21.3,4.5,21,2.8,20.4,1.2z M3.6,1.3
						v10.9c0,0.4,0.2,0.7,0.5,0.9s0.7,0.2,1,0l9-6c0.3-0.2,0.4-0.5,0.4-0.8s-0.2-0.6-0.4-0.8L7.8,1.2H4C3.8,1.2,3.7,1.3,3.6,1.3z
						 M5.6,10.4l6.2-4.1L5.6,2.1V10.4z"/>
				</defs>
				<clipPath id="SVGID_00000006668419039791178340000012972017650899459512_">
					<use xlink:href="#SVGID_00000022532489952609608340000000357862181112523908_"  style="overflow:visible;"/>
				</clipPath>
				
					<rect x="5.6" y="2.1" style="clip-path:url(#SVGID_00000006668419039791178340000012972017650899459512_);fill-rule:evenodd;clip-rule:evenodd;fill:#FEBC59;" width="6.2" height="8.2"/>
				
					<path style="clip-path:url(#SVGID_00000006668419039791178340000012972017650899459512_);fill-rule:evenodd;clip-rule:evenodd;fill:#FEBC59;" d="
					M14.5,1.2h-11H14.5z"/>
				
					<rect x="3.6" y="1.2" style="clip-path:url(#SVGID_00000006668419039791178340000012972017650899459512_);fill-rule:evenodd;clip-rule:evenodd;fill:#FEBC59;" width="11" height="12"/>
				
					<path style="clip-path:url(#SVGID_00000006668419039791178340000012972017650899459512_);fill-rule:evenodd;clip-rule:evenodd;fill:#FEBC59;" d="
					M21.3,1.2H1H21.3z"/>
				
					<rect x="1" y="1.2" style="clip-path:url(#SVGID_00000006668419039791178340000012972017650899459512_);fill-rule:evenodd;clip-rule:evenodd;fill:#FEBC59;" width="20.3" height="19"/>
				
					<path style="clip-path:url(#SVGID_00000006668419039791178340000012972017650899459512_);fill-rule:evenodd;clip-rule:evenodd;fill:#FEBC59;" d="
					M1,20.2h20.3H1z"/>
			</g>
		</g>
		<g>
			<path class="st4" d="M13,16.7c0-0.8,0.7-1.5,1.5-1.5h14c0.8,0,1.5,0.7,1.5,1.5s-0.7,1.5-1.5,1.5h-14C13.7,18.2,13,17.6,13,16.7z"
				/>
		</g>
		<g>
			<path class="st4" d="M13,23c0-0.8,0.7-1.5,1.5-1.5h14c0.8,0,1.5,0.7,1.5,1.5c0,0.8-0.7,1.5-1.5,1.5h-14C13.7,24.5,13,23.9,13,23z
				"/>
		</g>
		<g>
			<path class="st4" d="M13,29.3c0-0.8,0.7-1.5,1.5-1.5h14c0.8,0,1.5,0.7,1.5,1.5c0,0.8-0.7,1.5-1.5,1.5h-14
				C13.7,30.8,13,30.1,13,29.3z"/>
		</g>
	</g>
</g>
</svg>
