<?xml version="1.0" encoding="utf-8"?>
<!-- Generator: Adobe Illustrator 27.6.1, SVG Export Plug-In . SVG Version: 6.00 Build 0)  -->
<svg version="1.1" id="Layer_1" xmlns="http://www.w3.org/2000/svg" xmlns:xlink="http://www.w3.org/1999/xlink" x="0px" y="0px"
	 viewBox="0 0 33 34" style="enable-background:new 0 0 33 34;" xml:space="preserve">
<style type="text/css">
	.st0{clip-path:url(#SVGID_00000122712382170564959470000007858582872491558297_);}
	.st1{fill:#313335;}
	.st2{fill:#4356FF;}
	.st3{fill:#7482FF;}
	.st4{fill-rule:evenodd;clip-rule:evenodd;fill:url(#SVGID_00000129184136099992152570000006692444913655808935_);}
	.st5{fill:#4E60FF;}
	.st6{fill:none;stroke:#FFFFFF;stroke-opacity:0.2;}
</style>
<g>
	<defs>
		<path id="SVGID_1_" d="M4,0.2h25c2.2,0,4,1.8,4,4v25c0,2.2-1.8,4-4,4H4c-2.2,0-4-1.8-4-4v-25C0,2,1.8,0.2,4,0.2z"/>
	</defs>
	<clipPath id="SVGID_00000064314702848254348420000001272178436764198287_">
		<use xlink:href="#SVGID_1_"  style="overflow:visible;"/>
	</clipPath>
	<g style="clip-path:url(#SVGID_00000064314702848254348420000001272178436764198287_);">
		<path class="st1" d="M4,0.2h25c2.2,0,4,1.8,4,4v25c0,2.2-1.8,4-4,4H4c-2.2,0-4-1.8-4-4v-25C0,2,1.8,0.2,4,0.2z"/>
		<g>
			<path class="st2" d="M4,0.7h25c1.9,0,3.5,1.6,3.5,3.5v25c0,1.9-1.6,3.5-3.5,3.5H4c-1.9,0-3.5-1.6-3.5-3.5v-25
				C0.5,2.3,2.1,0.7,4,0.7z"/>
			<path class="st3" d="M29,33.2H4c-2.2,0-4-1.8-4-4v-25c0-2.2,1.8-4,4-4h25c2.2,0,4,1.8,4,4v25C33,31.5,31.2,33.2,29,33.2z M4,1.2
				c-1.7,0-3,1.3-3,3v25c0,1.7,1.3,3,3,3h25c1.7,0,3-1.3,3-3v-25c0-1.7-1.3-3-3-3H4z"/>
		</g>
		
			<linearGradient id="SVGID_00000095307136600788242580000011631967547843422380_" gradientUnits="userSpaceOnUse" x1="8.514" y1="33.9172" x2="19.7124" y2="-6.5275" gradientTransform="matrix(1 0 0 -1 0 33.8898)">
			<stop  offset="0" style="stop-color:#5364FF"/>
			<stop  offset="1" style="stop-color:#5364FF;stop-opacity:0"/>
		</linearGradient>
		<path style="fill-rule:evenodd;clip-rule:evenodd;fill:url(#SVGID_00000095307136600788242580000011631967547843422380_);" d="
			M1.5,2.6c1.1-0.4,2.2-0.8,3.3-1c0.7-0.2,1.4-0.3,2.1-0.3h4.9c8.2,1,15.2,6.9,17.1,15.2c1.3,5.7-0.2,11.4-3.5,15.8h-3
			c1.9-2.1,3.3-4.5,4-7.2l-6.6,1.4c0,2.1-0.2,4-0.6,5.8h-2.4c0-0.1,0-0.2,0.1-0.3c0.3-1.5,0.5-3.1,0.6-5L4.1,29.9
			c0.4,0.8,0.8,1.6,1.3,2.3H4c-0.6,0-1.1-0.2-1.6-0.5c-0.2-0.4-0.4-0.9-0.7-1.4l-0.5,0.1C1.1,30.1,1,29.7,1,29.2V19
			c0.1,1.1,0.3,2.3,0.6,3.4c0.4,1.9,1,3.7,1.6,5.3l14.1-3.1c-0.1-1.8-0.4-3.6-0.8-5.5c-0.4-1.6-0.8-3.2-1.4-4.7L1,17.6v-2.4
			l13.2-2.9c-0.9-1.9-1.8-3.6-2.9-4.9c-2.2-2.8-4.4-3.9-6-3.5s-3.2,2.2-4,5.7c-0.1,0.5-0.2,1-0.3,1.6V4.2C1,3.6,1.2,3.1,1.5,2.6z
			 M13.2,6c1.2,1.6,2.4,3.6,3.4,5.8l6.8-1.5c-3-3.9-7.5-6.3-12.5-6.8C11.7,4.2,12.5,5,13.2,6z M18.8,18.6c0.4,1.9,0.7,3.7,0.8,5.5
			l7.1-1.6c0.2-1.8,0.1-3.7-0.3-5.6c-0.4-1.6-1-3.2-1.7-4.6L17.5,14C18,15.4,18.4,17,18.8,18.6z"/>
		<path class="st5" d="M32,8.4V6c-0.2-0.1-0.5-0.2-0.7-0.4L32,5.2V4.2c0-0.5-0.1-1-0.4-1.5l-2.2,1.6c-1.2-0.9-2.2-1.9-3.1-3.2h-2.7
			c0.3,0.4,0.5,0.8,0.8,1.2C26.4,5.2,29,7.2,32,8.4z"/>
	</g>
</g>
<path class="st6" d="M4,0.7h25c1.9,0,3.5,1.6,3.5,3.5v25c0,1.9-1.6,3.5-3.5,3.5H4c-1.9,0-3.5-1.6-3.5-3.5v-25C0.5,2.3,2.1,0.7,4,0.7
	z"/>
</svg>
