<?xml version="1.0" encoding="utf-8"?>
<!-- Generator: Adobe Illustrator 27.6.1, SVG Export Plug-In . SVG Version: 6.00 Build 0)  -->
<svg version="1.1" id="Layer_1" xmlns="http://www.w3.org/2000/svg" xmlns:xlink="http://www.w3.org/1999/xlink" x="0px" y="0px"
	 viewBox="0 0 33 34" style="enable-background:new 0 0 33 34;" xml:space="preserve">
<style type="text/css">
	.st0{fill:#945DEE;}
	.st1{fill:#A97DF1;}
	.st2{fill:#9A67EF;}
	.st3{fill:url(#SVGID_1_);fill-opacity:0.5;}
	.st4{fill:#9E6DEF;}
</style>
<g>
	<path class="st0" d="M4,0.7h25c1.9,0,3.5,1.6,3.5,3.5v25c0,1.9-1.6,3.5-3.5,3.5H4c-1.9,0-3.5-1.6-3.5-3.5v-25
		C0.5,2.3,2.1,0.7,4,0.7z"/>
	<path class="st1" d="M29,33.2H4c-2.2,0-4-1.8-4-4v-25c0-2.2,1.8-4,4-4h25c2.2,0,4,1.8,4,4v25C33,31.5,31.2,33.2,29,33.2z M4,1.2
		c-1.7,0-3,1.3-3,3v25c0,1.7,1.3,3,3,3h25c1.7,0,3-1.3,3-3v-25c0-1.7-1.3-3-3-3H4z"/>
</g>
<path class="st2" d="M13.6,4.8c0-1.1,0.9-2,2-2h13c1.1,0,2,0.9,2,2v13c0,1.1-0.9,2-2,2h-13c-1.1,0-2-0.9-2-2V4.8z"/>
<linearGradient id="SVGID_1_" gradientUnits="userSpaceOnUse" x1="17.4295" y1="15.1626" x2="4.4919" y2="5.6202" gradientTransform="matrix(1 0 0 -1 0 33.8898)">
	<stop  offset="0" style="stop-color:#A97DF1"/>
	<stop  offset="1" style="stop-color:#A97DF1;stop-opacity:0"/>
</linearGradient>
<path class="st3" d="M27,32.2V12.3c0-0.6-0.3-1.2-0.7-1.6c-0.3-0.3-0.8-0.4-1.3-0.4H1v18.6c0,0.8,0.1,1.7,0.8,2.3
	c0.8,0.8,1.5,1,2.2,1H27z"/>
<path class="st4" d="M32,23.9H10.4c-2.2,0-4,1.8-4,4v4.3h1v-4.3c0-1.7,1.3-3,3-3H32V23.9z"/>
<path class="st4" d="M1.1,5.2H5c1.7,0,3-1.3,3-3v-1h1v1c0,2.2-1.8,4-4,4H1.1V5.2z"/>
</svg>
