<svg width="68" height="72" viewBox="0 0 68 72" fill="none" xmlns="http://www.w3.org/2000/svg">
<path fill-rule="evenodd" clip-rule="evenodd" d="M16.8793 16.906C14.552 16.906 12.6653 18.8057 12.6653 21.1492V67.6797C12.6653 70.0232 14.552 71.9229 16.8793 71.9229H63.7176C66.045 71.9229 67.9316 70.0232 67.9316 67.6797V21.1492C67.9316 18.8057 66.045 16.906 63.7176 16.906H16.8793Z" fill="#4356FF"/>
<path d="M25.667 64.7049C25.2016 64.7049 24.8242 64.3251 24.8242 63.8563V43.4125C24.8242 42.9437 25.1992 42.5639 25.6647 42.5639H42.1385C46.4479 42.5639 46.4479 34.8143 42.1385 34.8143H25.6647C25.1992 34.8143 24.8242 34.4344 24.8242 33.9657V25.4868C24.8242 25.0181 25.2016 24.6382 25.667 24.6382H41.1992C43.9376 24.6382 46.3013 25.1563 48.2895 26.1925C50.5777 27.3822 52.3973 29.0901 53.7475 31.316C55.0981 33.5035 55.7732 35.9214 55.7732 38.5695C55.7732 41.2175 55.0981 43.6544 53.7475 45.8804C52.4348 48.1064 50.6342 49.8143 48.3455 51.004C46.3948 52.0402 44.0126 52.5583 41.1992 52.5583H34.641C34.1755 52.5583 33.7982 52.8248 33.7982 53.2937V63.8563C33.7982 64.3251 33.4208 64.7049 32.9553 64.7049H25.667Z" fill="white"/>
<path d="M1.43896 33.6364C1.43896 32.4674 2.39091 31.5198 3.5652 31.5198H17.1592C18.3334 31.5198 19.2854 32.4674 19.2854 33.6364V47.1688C19.2854 48.338 18.3334 49.2854 17.1592 49.2854H3.5652C2.39091 49.2854 1.43896 48.338 1.43896 47.1688V33.6364Z" fill="#6EBE45"/>
<path d="M13.8164 5.09897C13.8164 4.18191 14.5632 3.43848 15.4845 3.43848H23.0865C24.0077 3.43848 24.7545 4.18191 24.7545 5.09897V12.6666C24.7545 13.5837 24.0077 14.3271 23.0865 14.3271H15.4845C14.5632 14.3271 13.8164 13.5837 13.8164 12.6666V5.09897Z" fill="#CF00C7"/>
<path d="M4.89331 18.2799C4.89331 17.3628 5.64015 16.6194 6.56138 16.6194H14.1634C15.0846 16.6194 15.8314 17.3628 15.8314 18.2799V25.8475C15.8314 26.7645 15.0846 27.508 14.1634 27.508H6.56138C5.64015 27.508 4.89331 26.7645 4.89331 25.8475V18.2799Z" fill="#FF7F37"/>
<path d="M0 1.229C0 0.550242 0.552746 0 1.23459 0H7.40078C8.08264 0 8.63537 0.550242 8.63537 1.229V7.36726C8.63537 8.04604 8.08264 8.59626 7.40078 8.59626H1.23459C0.552746 8.59626 0 8.04604 0 7.36726V1.229Z" fill="#4356FF"/>
</svg>
