<?xml version="1.0" encoding="utf-8"?>
<!-- Generator: Adobe Illustrator 27.6.1, SVG Export Plug-In . SVG Version: 6.00 Build 0)  -->
<svg version="1.1" id="Layer_1" xmlns="http://www.w3.org/2000/svg" xmlns:xlink="http://www.w3.org/1999/xlink" x="0px" y="0px"
	 viewBox="0 0 33 33" style="enable-background:new 0 0 33 33;" xml:space="preserve">
<style type="text/css">
	.st0{clip-path:url(#SVGID_00000049940311751243160640000011025691891082671020_);}
	.st1{fill:#2CBADD;}
	.st2{fill:#5FDFFF;}
	.st3{fill:#3BC5E7;}
	.st4{fill-rule:evenodd;clip-rule:evenodd;fill:url(#SVGID_00000129164081723605830140000007299209388245761718_);}
	.st5{fill-rule:evenodd;clip-rule:evenodd;fill:url(#SVGID_00000159468054777497965770000009770966981574427054_);}
</style>
<g>
	<defs>
		<path id="SVGID_1_" d="M4,0h25c2.2,0,4,1.8,4,4v25c0,2.2-1.8,4-4,4H4c-2.2,0-4-1.8-4-4V4C0,1.8,1.8,0,4,0z"/>
	</defs>
	<clipPath id="SVGID_00000115509403085313507930000001296485271528830099_">
		<use xlink:href="#SVGID_1_"  style="overflow:visible;"/>
	</clipPath>
	<g style="clip-path:url(#SVGID_00000115509403085313507930000001296485271528830099_);">
		<g>
			<path class="st1" d="M4,0.5h25c1.9,0,3.5,1.6,3.5,3.5v25c0,1.9-1.6,3.5-3.5,3.5H4c-1.9,0-3.5-1.6-3.5-3.5V4
				C0.5,2.1,2.1,0.5,4,0.5z"/>
			<path class="st2" d="M29,33H4c-2.2,0-4-1.8-4-4V4c0-2.2,1.8-4,4-4h25c2.2,0,4,1.8,4,4v25C33,31.2,31.2,33,29,33z M4,1
				C2.3,1,1,2.3,1,4v25c0,1.7,1.3,3,3,3h25c1.7,0,3-1.3,3-3V4c0-1.7-1.3-3-3-3H4z"/>
		</g>
		<path class="st3" d="M26.8,6c0,0.6-0.4,1-1,1s-1-0.4-1-1c0-0.6,0.4-1,1-1S26.8,5.4,26.8,6z"/>
		<path class="st3" d="M29.8,7c0.6,0,1-0.4,1-1c0-0.6-0.4-1-1-1c-0.6,0-1,0.4-1,1C28.8,6.6,29.2,7,29.8,7z"/>
		<path class="st3" d="M22.7,6c0,0.6-0.4,1-1,1c-0.6,0-1-0.4-1-1c0-0.6,0.4-1,1-1C22.3,5,22.7,5.4,22.7,6z"/>
		<path class="st3" d="M4.1,29c0,0.6-0.4,1-1,1c-0.6,0-1-0.4-1-1c0-0.6,0.4-1,1-1C3.6,28,4.1,28.5,4.1,29z"/>
		<path class="st3" d="M7.1,30c0.6,0,1-0.4,1-1c0-0.6-0.4-1-1-1c-0.6,0-1,0.4-1,1C6.1,29.6,6.5,30,7.1,30z"/>
		
			<linearGradient id="SVGID_00000165927746876066044790000010523098372880351117_" gradientUnits="userSpaceOnUse" x1="36.6785" y1="-0.3645" x2="14.4421" y2="10.3843" gradientTransform="matrix(1 0 0 -1 0 33.2756)">
			<stop  offset="0" style="stop-color:#47CDEE"/>
			<stop  offset="1" style="stop-color:#3AC4E6;stop-opacity:0"/>
		</linearGradient>
		<path style="fill-rule:evenodd;clip-rule:evenodd;fill:url(#SVGID_00000165927746876066044790000010523098372880351117_);" d="
			M32,18.9c-7.9-2.2-16.8,0.7-21.9,8.1c-1.1,1.6-2,3.3-2.6,5.1h4.1c-0.4-1.6-0.2-2.9,0.4-3.7c1-1.4,3.3-2.1,6.8-1.5
			c1.5,0.2,3.1,0.7,4.8,1.4L20.9,32h2.8l2-2.9c1.5,0.7,3,1.6,4.5,2.6c0.8-0.3,1.4-1,1.6-1.8c-1.6-1.1-3.1-2-4.7-2.8l4.2-6
			c0.2,0.1,0.5,0.1,0.7,0.2V18.9z M19.2,24.4c-1.2-0.2-2.3-0.3-3.4-0.2c3.8-2.9,8.5-4.1,13-3.6L25,26.2C23,25.3,21,24.8,19.2,24.4z"
			/>
		
			<linearGradient id="SVGID_00000171698539476236890270000013736111666387948171_" gradientUnits="userSpaceOnUse" x1="7.6207" y1="41.09" x2="9.1155" y2="15.836" gradientTransform="matrix(1 0 0 -1 0 33.2756)">
			<stop  offset="0" style="stop-color:#31D4FC"/>
			<stop  offset="1" style="stop-color:#54D7F7;stop-opacity:0"/>
		</linearGradient>
		<path style="fill-rule:evenodd;clip-rule:evenodd;fill:url(#SVGID_00000171698539476236890270000013736111666387948171_);" d="
			M12.4,5.3c-1,0-1.8-0.4-2.5-1L5.3,6.9c0.1,0.3,0.1,0.6,0.1,0.9c0,0.3,0,0.6-0.1,0.9l4.6,2.7c0.6-0.6,1.5-1,2.5-1
			c1.9,0,3.5,1.6,3.5,3.5c0,1.9-1.6,3.5-3.5,3.5c-1.9,0-3.5-1.6-3.5-3.5c0-0.3,0-0.7,0.1-1l-4.6-2.7c-0.6,0.6-1.5,1-2.5,1
			c-0.3,0-0.7,0-1-0.1V9.3c0.3,0.2,0.6,0.3,1,0.3c0.6,0,1.2-0.3,1.5-0.8c0,0,0,0,0,0c0,0,0,0,0,0c0.1-0.2,0.2-0.5,0.2-0.8
			c0-0.3-0.1-0.6-0.2-0.8c0,0,0,0,0,0c0,0,0,0,0,0C3.1,6.5,2.6,6.1,2,6.1c-0.4,0-0.7,0.1-1,0.3V4.5c0.3-0.1,0.6-0.1,1-0.1
			c1,0,1.8,0.4,2.5,1l4.6-2.7C9,2.4,8.9,2.1,8.9,1.8C8.9,1.5,9,1.2,9,1h1.8c-0.1,0.2-0.2,0.5-0.2,0.8c0,0.3,0.1,0.6,0.2,0.8
			c0,0,0,0,0,0c0,0,0,0,0,0c0.3,0.5,0.9,0.8,1.5,0.8c1,0,1.7-0.8,1.7-1.7c0-0.3-0.1-0.5-0.2-0.8h1.8c0.1,0.2,0.1,0.5,0.1,0.8
			C15.9,3.7,14.4,5.3,12.4,5.3z M10.9,13.2c-0.1,0.2-0.2,0.5-0.2,0.8c0,1,0.8,1.7,1.7,1.7s1.7-0.8,1.7-1.7s-0.8-1.7-1.7-1.7
			c-0.6,0-1.1,0.3-1.5,0.8C11,13,11,13.1,10.9,13.2C10.9,13.1,10.9,13.2,10.9,13.2z"/>
	</g>
</g>
</svg>
