<svg width="254" height="29" viewBox="0 0 254 29" fill="none" xmlns="http://www.w3.org/2000/svg">
<path d="M8.88722 14.9401C9.94997 14.9401 10.8847 14.7999 11.6913 14.5194C12.5108 14.239 13.1958 13.8503 13.7464 13.3532C14.3098 12.8433 14.7323 12.2379 15.014 11.5368C15.2957 10.8358 15.4366 10.0646 15.4366 9.22337C15.4366 7.47714 14.8924 6.11329 13.804 5.13183C12.7285 4.15037 11.0895 3.65964 8.88722 3.65964H4.46976V14.9401H8.88722ZM8.88722 0.734377C10.6286 0.734377 12.1395 0.938317 13.4199 1.3462C14.7131 1.74133 15.7823 2.30854 16.6274 3.04782C17.4725 3.7871 18.0999 4.67934 18.5096 5.72453C18.9321 6.76972 19.1434 7.936 19.1434 9.22337C19.1434 10.498 18.9193 11.6643 18.4712 12.7222C18.023 13.7802 17.3636 14.6915 16.4929 15.4563C15.635 16.2211 14.5659 16.8201 13.2855 17.2535C12.0179 17.6741 10.5518 17.8844 8.88722 17.8844H4.46976V28.1324H0.762939V0.734377H8.88722Z" fill="white"/>
<path d="M33.8057 14.0032C34.8812 14.0032 35.8287 13.8757 36.6482 13.6208C37.4805 13.3532 38.1719 12.9835 38.7225 12.5119C39.2859 12.0275 39.7084 11.454 39.9901 10.7912C40.2718 10.1284 40.4126 9.39544 40.4126 8.59243C40.4126 6.96091 39.8749 5.7309 38.7993 4.9024C37.7238 4.07389 36.1104 3.65964 33.9593 3.65964H29.8876V14.0032H33.8057ZM46.5203 28.1324H43.2168C42.5381 28.1324 42.0388 27.8711 41.7187 27.3485L34.5739 17.5594C34.3562 17.2535 34.1194 17.0368 33.8633 16.9094C33.62 16.7691 33.2359 16.699 32.7109 16.699H29.8876V28.1324H26.1807V0.734377H33.9593C35.7007 0.734377 37.2052 0.912824 38.4728 1.26972C39.7404 1.61387 40.784 2.11734 41.6034 2.78015C42.4357 3.44295 43.0503 4.24597 43.4472 5.18919C43.8442 6.11966 44.0426 7.16485 44.0426 8.32476C44.0426 9.29348 43.889 10.1985 43.5817 11.0397C43.2744 11.881 42.8262 12.6394 42.2372 13.3149C41.6611 13.9777 40.9504 14.5449 40.1053 15.0165C39.2731 15.4881 38.3256 15.845 37.2628 16.0872C37.7366 16.3549 38.1463 16.7437 38.492 17.2535L46.5203 28.1324Z" fill="white"/>
<path d="M78.6027 14.443C78.6027 16.4951 78.2762 18.3815 77.6232 20.1023C76.9702 21.8103 76.0483 23.2825 74.8575 24.5189C73.6667 25.7552 72.2326 26.7176 70.5553 27.4059C68.8907 28.0814 67.0469 28.4192 65.0239 28.4192C63.0008 28.4192 61.157 28.0814 59.4924 27.4059C57.8279 26.7176 56.4002 25.7552 55.2094 24.5189C54.0186 23.2825 53.0967 21.8103 52.4437 20.1023C51.7907 18.3815 51.4642 16.4951 51.4642 14.443C51.4642 12.3908 51.7907 10.5107 52.4437 8.80274C53.0967 7.082 54.0186 5.60344 55.2094 4.36706C56.4002 3.11792 57.8279 2.14921 59.4924 1.46091C61.157 0.772615 63.0008 0.428467 65.0239 0.428467C67.0469 0.428467 68.8907 0.772615 70.5553 1.46091C72.2326 2.14921 73.6667 3.11792 74.8575 4.36706C76.0483 5.60344 76.9702 7.082 77.6232 8.80274C78.2762 10.5107 78.6027 12.3908 78.6027 14.443ZM74.7807 14.443C74.7807 12.7605 74.5502 11.25 74.0892 9.91167C73.6283 8.57331 72.9753 7.44527 72.1302 6.52754C71.2851 5.59707 70.2608 4.88328 69.0572 4.38617C67.8536 3.88907 66.5091 3.64052 65.0239 3.64052C63.5514 3.64052 62.2133 3.88907 61.0097 4.38617C59.8061 4.88328 58.7754 5.59707 57.9175 6.52754C57.0724 7.44527 56.4194 8.57331 55.9585 9.91167C55.4975 11.25 55.267 12.7605 55.267 14.443C55.267 16.1255 55.4975 17.6359 55.9585 18.9742C56.4194 20.2998 57.0724 21.4279 57.9175 22.3584C58.7754 23.2761 59.8061 23.9835 61.0097 24.4806C62.2133 24.965 63.5514 25.2071 65.0239 25.2071C66.5091 25.2071 67.8536 24.965 69.0572 24.4806C70.2608 23.9835 71.2851 23.2761 72.1302 22.3584C72.9753 21.4279 73.6283 20.2998 74.0892 18.9742C74.5502 17.6359 74.7807 16.1255 74.7807 14.443Z" fill="white"/>
<path d="M105.896 22.4731C106.101 22.4731 106.28 22.5559 106.434 22.7216L107.912 24.3085C106.786 25.6087 105.416 26.622 103.802 27.3485C102.202 28.0751 100.262 28.4383 97.9828 28.4383C96.0109 28.4383 94.2183 28.1005 92.605 27.425C90.9916 26.7367 89.6152 25.7807 88.4756 24.5571C87.336 23.3207 86.4526 21.8421 85.8251 20.1214C85.1977 18.4007 84.884 16.5078 84.884 14.443C84.884 12.3781 85.2105 10.4853 85.8635 8.76451C86.5166 7.04377 87.4321 5.5652 88.6101 4.32882C89.8009 3.09243 91.2221 2.13646 92.8739 1.46091C94.5256 0.772615 96.3502 0.428467 98.3477 0.428467C100.307 0.428467 102.035 0.740749 103.533 1.36532C105.031 1.98988 106.35 2.83751 107.49 3.90819L106.261 5.60981C106.184 5.73727 106.081 5.84562 105.953 5.93484C105.838 6.01132 105.678 6.04956 105.473 6.04956C105.243 6.04956 104.961 5.92847 104.628 5.68629C104.295 5.43137 103.86 5.15095 103.322 4.84504C102.784 4.53913 102.112 4.26508 101.305 4.02291C100.499 3.76798 99.5065 3.64052 98.3285 3.64052C96.9072 3.64052 95.6076 3.88907 94.4296 4.38617C93.2516 4.87053 92.2337 5.57795 91.3758 6.50842C90.5307 7.4389 89.8713 8.57331 89.3975 9.91167C88.9238 11.25 88.6869 12.7605 88.6869 14.443C88.6869 16.1509 88.9302 17.6741 89.4167 19.0125C89.9161 20.3508 90.5883 21.4853 91.4334 22.4157C92.2913 23.3335 93.2964 24.0345 94.4488 24.5189C95.614 25.0032 96.8688 25.2454 98.2132 25.2454C99.0327 25.2454 99.7689 25.2008 100.422 25.1116C101.088 25.0096 101.696 24.8566 102.247 24.6527C102.81 24.4487 103.329 24.1938 103.802 23.8879C104.289 23.5693 104.769 23.1932 105.243 22.7599C105.46 22.5687 105.678 22.4731 105.896 22.4731Z" fill="white"/>
<path d="M131.165 25.1116L131.145 28.1324H114.186V0.734377H131.145V3.75523H117.912V12.856H128.629V15.7622H117.912V25.1116H131.165Z" fill="white"/>
<path d="M151.782 5.01711C151.667 5.20831 151.539 5.35489 151.398 5.45686C151.27 5.54608 151.11 5.59069 150.918 5.59069C150.7 5.59069 150.444 5.48235 150.149 5.26566C149.855 5.04898 149.484 4.81317 149.035 4.55825C148.6 4.29058 148.069 4.0484 147.441 3.83171C146.827 3.61503 146.078 3.50668 145.194 3.50668C144.362 3.50668 143.626 3.6214 142.985 3.85083C142.358 4.06752 141.827 4.36705 141.391 4.74944C140.969 5.13183 140.649 5.58432 140.431 6.10692C140.213 6.61676 140.104 7.17123 140.104 7.7703C140.104 8.53508 140.29 9.17239 140.661 9.68224C141.046 10.1793 141.545 10.6063 142.16 10.9632C142.787 11.3201 143.491 11.6324 144.272 11.9001C145.066 12.155 145.873 12.4227 146.692 12.7031C147.524 12.9835 148.331 13.3022 149.112 13.6591C149.906 14.0032 150.61 14.443 151.225 14.9783C151.852 15.5136 152.352 16.1701 152.723 16.9476C153.107 17.7251 153.299 18.6811 153.299 19.8155C153.299 21.0136 153.094 22.1417 152.685 23.1996C152.275 24.2448 151.673 25.1562 150.879 25.9337C150.098 26.7112 149.131 27.323 147.979 27.7691C146.839 28.2153 145.54 28.4383 144.08 28.4383C142.288 28.4383 140.661 28.1197 139.202 27.4824C137.742 26.8323 136.494 25.9592 135.456 24.863L136.532 23.104C136.634 22.9638 136.756 22.8491 136.897 22.7599C137.051 22.6579 137.217 22.6069 137.396 22.6069C137.563 22.6069 137.748 22.677 137.953 22.8172C138.171 22.9447 138.414 23.1104 138.683 23.3143C138.952 23.5183 139.259 23.7413 139.605 23.9835C139.951 24.2257 140.341 24.4487 140.777 24.6527C141.225 24.8566 141.731 25.0287 142.294 25.1689C142.857 25.2964 143.491 25.3601 144.195 25.3601C145.079 25.3601 145.866 25.239 146.558 24.9968C147.249 24.7547 147.832 24.4169 148.306 23.9835C148.792 23.5374 149.163 23.0084 149.419 22.3966C149.676 21.7848 149.804 21.1029 149.804 20.3508C149.804 19.5223 149.612 18.8468 149.227 18.3242C148.856 17.7888 148.363 17.3427 147.749 16.9858C147.134 16.6289 146.43 16.3294 145.636 16.0872C144.842 15.8323 144.035 15.5774 143.216 15.3224C142.396 15.0548 141.59 14.7489 140.796 14.4047C140.002 14.0606 139.298 13.6144 138.683 13.0664C138.069 12.5183 137.569 11.8364 137.185 11.0206C136.814 10.1921 136.628 9.17239 136.628 7.96149C136.628 6.99278 136.814 6.05593 137.185 5.15095C137.569 4.24597 138.12 3.44295 138.837 2.74191C139.567 2.04087 140.457 1.48003 141.506 1.05941C142.569 0.63878 143.786 0.428467 145.156 0.428467C146.692 0.428467 148.088 0.670646 149.343 1.155C150.61 1.63936 151.724 2.3404 152.685 3.25813L151.782 5.01711Z" fill="white"/>
<path d="M174.698 5.01711C174.582 5.20831 174.454 5.35489 174.313 5.45686C174.185 5.54608 174.025 5.59069 173.833 5.59069C173.616 5.59069 173.36 5.48235 173.065 5.26566C172.771 5.04898 172.399 4.81317 171.951 4.55825C171.516 4.29058 170.984 4.0484 170.357 3.83171C169.742 3.61503 168.993 3.50668 168.11 3.50668C167.278 3.50668 166.541 3.6214 165.901 3.85083C165.274 4.06752 164.742 4.36705 164.307 4.74944C163.884 5.13183 163.564 5.58432 163.347 6.10692C163.129 6.61676 163.02 7.17123 163.02 7.7703C163.02 8.53508 163.206 9.17239 163.577 9.68224C163.961 10.1793 164.461 10.6063 165.075 10.9632C165.703 11.3201 166.407 11.6324 167.188 11.9001C167.982 12.155 168.788 12.4227 169.608 12.7031C170.44 12.9835 171.247 13.3022 172.028 13.6591C172.822 14.0032 173.526 14.443 174.141 14.9783C174.768 15.5136 175.267 16.1701 175.639 16.9476C176.023 17.7251 176.215 18.6811 176.215 19.8155C176.215 21.0136 176.01 22.1417 175.6 23.1996C175.191 24.2448 174.589 25.1562 173.795 25.9337C173.014 26.7112 172.047 27.323 170.895 27.7691C169.755 28.2153 168.456 28.4383 166.996 28.4383C165.203 28.4383 163.577 28.1197 162.117 27.4824C160.658 26.8323 159.746 25.9592 158.709 24.863L159.448 23.104C159.55 22.9638 159.672 22.8491 159.813 22.7599C159.966 22.6579 160.133 22.6069 160.312 22.6069C160.479 22.6069 160.664 22.677 160.869 22.8172C161.087 22.9447 161.33 23.1104 161.599 23.3143C161.868 23.5183 162.175 23.7413 162.521 23.9835C162.866 24.2257 163.257 24.4487 163.692 24.6527C164.141 24.8566 164.646 25.0287 165.21 25.1689C165.773 25.2964 166.407 25.3601 167.111 25.3601C167.995 25.3601 168.782 25.239 169.473 24.9968C170.165 24.7547 170.747 24.4169 171.221 23.9835C171.708 23.5374 172.079 23.0084 172.335 22.3966C172.591 21.7848 172.719 21.1029 172.719 20.3508C172.719 19.5223 172.527 18.8468 172.143 18.3242C171.772 17.7888 171.279 17.3427 170.664 16.9858C170.05 16.6289 169.345 16.3294 168.552 16.0872C167.758 15.8323 166.951 15.5774 166.132 15.3224C165.312 15.0548 164.505 14.7489 163.712 14.4047C162.918 14.0606 162.213 13.6144 161.599 13.0664C160.984 12.5183 160.485 11.8364 160.101 11.0206C159.729 10.1921 159.544 9.17239 159.544 7.96149C159.544 6.99278 159.729 6.05593 160.101 5.15095C160.485 4.24597 161.035 3.44295 161.753 2.74191C162.482 2.04087 163.372 1.48003 164.422 1.05941C165.485 0.63878 166.701 0.428467 168.071 0.428467C169.608 0.428467 171.004 0.670646 172.258 1.155C173.526 1.63936 174.64 2.3404 175.6 3.25813L174.698 5.01711Z" fill="white"/>
<path d="M214.039 1.03979V28.4378H210.774V8.30515C210.774 8.03748 210.781 7.75069 210.794 7.44478C210.819 7.13887 210.845 6.82659 210.87 6.50793L201.421 23.6389C201.126 24.2125 200.678 24.4992 200.076 24.4992H199.539C198.937 24.4992 198.489 24.2125 198.194 23.6389L188.553 6.43146C188.629 7.10701 188.668 7.73157 188.668 8.30515V28.4378H185.403V1.03979H188.149C188.482 1.03979 188.738 1.07166 188.918 1.13539C189.097 1.19912 189.27 1.37757 189.436 1.67073L198.943 18.534C199.097 18.8399 199.244 19.1586 199.385 19.49C199.539 19.8214 199.68 20.1592 199.808 20.5033C199.936 20.1592 200.07 19.8214 200.211 19.49C200.352 19.1458 200.505 18.8208 200.672 18.5149L210.006 1.67073C210.16 1.37757 210.326 1.19912 210.506 1.13539C210.698 1.07166 210.96 1.03979 211.293 1.03979H214.039Z" fill="#6EBE45"/>
<path d="M224.482 28.4378H220.756V1.03979H224.482V28.4378Z" fill="#6EBE45"/>
<path d="M254 28.4378H250.312C250.031 28.4378 249.807 28.3677 249.64 28.2275C249.487 28.0746 249.359 27.9089 249.256 27.7304L241.881 16.2206C241.778 16.5265 241.663 16.7878 241.535 17.0045L234.352 27.7304C234.224 27.9089 234.083 28.0746 233.929 28.2275C233.789 28.3677 233.59 28.4378 233.334 28.4378H229.877L239.346 14.366L230.261 1.03979H233.968C234.237 1.03979 234.435 1.08441 234.563 1.17363C234.691 1.26285 234.807 1.39032 234.909 1.55602L242.092 12.5305C242.182 12.2629 242.316 11.9697 242.495 11.651L249.275 1.6325C249.378 1.45405 249.499 1.31384 249.64 1.21187C249.781 1.09715 249.948 1.03979 250.14 1.03979H253.693L244.57 14.1939L254 28.4378Z" fill="#6EBE45"/>
</svg>
